<?xml version="1.0" encoding="UTF-8" standalone="no"?>
<!DOCTYPE svg PUBLIC "-//W3C//DTD SVG 1.1//EN"
 "http://www.w3.org/Graphics/SVG/1.1/DTD/svg11.dtd">
<!-- Generated by graphviz version 2.38.0 (20140413.2041)
 -->
<!-- Title: ma_angle_restraints Pages: 1 -->
<svg width="673pt" height="1010pt"
 viewBox="0.00 0.00 673.06 1010.00" xmlns="http://www.w3.org/2000/svg" xmlns:xlink="http://www.w3.org/1999/xlink">
<g id="graph0" class="graph" transform="scale(1 1) rotate(0) translate(4 1006)">
<title>ma_angle_restraints</title>
<polygon fill="white" stroke="none" points="-4,4 -4,-1006 669.059,-1006 669.059,4 -4,4"/>
<text text-anchor="start" x="329.53" y="-58.6" font-family="Helvetica,sans-Serif" font-size="18.00"> </text>
<text text-anchor="start" x="329.53" y="-40.6" font-family="Helvetica,sans-Serif" font-size="18.00"> </text>
<text text-anchor="start" x="73.0297" y="-22.6" font-family="Helvetica,sans-Serif" font-size="18.00"> Category Relationship Diagram for </text>
<text text-anchor="start" x="356.03" y="-22.6" font-family="Helvetica,sans-Serif" font-weight="bold" font-size="18.00">MA_ANGLE_RESTRAINTS</text>
<text text-anchor="start" x="582.03" y="-22.6" font-family="Helvetica,sans-Serif" font-size="18.00"> </text>
<text text-anchor="start" x="588.03" y="-22.6" font-family="Helvetica,sans-Serif" font-size="14.00"> </text>
<text text-anchor="start" x="198.53" y="-7.8" font-family="Helvetica,sans-Serif" font-size="14.00"> &#160;in dictionary mmcif_pdbx.dic version 5.296 </text>
<!-- _chem_comp_atom -->
<g id="node1" class="node"><title>_chem_comp_atom</title>
<g id="a_node1_0"><a xlink:href="/dictionaries/mmcif_pdbx_modeling_extension_all.dic/Categories/chem_comp_atom.html" xlink:title="&lt;TABLE&gt;" target="_top">
<polygon fill="#99c49b" stroke="none" points="10.0594,-495.5 10.0594,-516.5 132.059,-516.5 132.059,-495.5 10.0594,-495.5"/>
<polygon fill="none" stroke="black" points="10.0594,-495.5 10.0594,-516.5 132.059,-516.5 132.059,-495.5 10.0594,-495.5"/>
<text text-anchor="start" x="21.0594" y="-503.5" font-family="Helvetica,sans-Serif" font-size="10.00">CHEM_COMP_ATOM</text>
</a>
</g>
<g id="a_node1_1"><a xlink:href="/dictionaries/mmcif_pdbx_modeling_extension_all.dic/Items/_chem_comp_atom.atom_id.html" xlink:title="&lt;TABLE&gt;" target="_top">
<polygon fill="#ffff99" stroke="none" points="10.0594,-475.5 10.0594,-495.5 132.059,-495.5 132.059,-475.5 10.0594,-475.5"/>
<polygon fill="none" stroke="black" points="10.0594,-475.5 10.0594,-495.5 132.059,-495.5 132.059,-475.5 10.0594,-475.5"/>
<text text-anchor="start" x="15.0594" y="-483.3" font-family="Helvetica,sans-Serif" font-size="9.00">atom_id</text>
</a>
</g>
<g id="a_node1_2"><a xlink:href="/dictionaries/mmcif_pdbx_modeling_extension_all.dic/Items/_chem_comp_atom.comp_id.html" xlink:title="&lt;TABLE&gt;" target="_top">
<polygon fill="#ffff99" stroke="none" points="10.0594,-455.5 10.0594,-475.5 132.059,-475.5 132.059,-455.5 10.0594,-455.5"/>
<polygon fill="none" stroke="black" points="10.0594,-455.5 10.0594,-475.5 132.059,-475.5 132.059,-455.5 10.0594,-455.5"/>
<text text-anchor="start" x="15.0594" y="-463.3" font-family="Helvetica,sans-Serif" font-size="9.00">comp_id</text>
</a>
</g>
<g id="a_node1_3"><a xlink:href="/dictionaries/mmcif_pdbx_modeling_extension_all.dic/Items/_chem_comp_atom.alt_atom_id.html" xlink:title="&lt;TABLE&gt;" target="_top">
<polygon fill="none" stroke="black" points="10.0594,-435.5 10.0594,-455.5 132.059,-455.5 132.059,-435.5 10.0594,-435.5"/>
<text text-anchor="start" x="15.0594" y="-443.3" font-family="Helvetica,sans-Serif" font-size="9.00">alt_atom_id</text>
</a>
</g>
<g id="a_node1_4"><a xlink:href="/dictionaries/mmcif_pdbx_modeling_extension_all.dic/Items/_chem_comp_atom.charge.html" xlink:title="&lt;TABLE&gt;" target="_top">
<polygon fill="none" stroke="black" points="10.0594,-415.5 10.0594,-435.5 132.059,-435.5 132.059,-415.5 10.0594,-415.5"/>
<text text-anchor="start" x="15.0594" y="-423.3" font-family="Helvetica,sans-Serif" font-size="9.00">charge</text>
</a>
</g>
<g id="a_node1_5"><a xlink:href="/dictionaries/mmcif_pdbx_modeling_extension_all.dic/Items/_chem_comp_atom.model_Cartn_x.html" xlink:title="&lt;TABLE&gt;" target="_top">
<polygon fill="none" stroke="black" points="10.0594,-395.5 10.0594,-415.5 132.059,-415.5 132.059,-395.5 10.0594,-395.5"/>
<text text-anchor="start" x="15.0594" y="-403.3" font-family="Helvetica,sans-Serif" font-size="9.00">model_Cartn_x</text>
</a>
</g>
<g id="a_node1_6"><a xlink:href="/dictionaries/mmcif_pdbx_modeling_extension_all.dic/Items/_chem_comp_atom.model_Cartn_x_esd.html" xlink:title="&lt;TABLE&gt;" target="_top">
<polygon fill="none" stroke="black" points="10.0594,-375.5 10.0594,-395.5 132.059,-395.5 132.059,-375.5 10.0594,-375.5"/>
<text text-anchor="start" x="15.0594" y="-383.3" font-family="Helvetica,sans-Serif" font-size="9.00">model_Cartn_x_esd</text>
</a>
</g>
<g id="a_node1_7"><a xlink:href="/dictionaries/mmcif_pdbx_modeling_extension_all.dic/Items/_chem_comp_atom.model_Cartn_y.html" xlink:title="&lt;TABLE&gt;" target="_top">
<polygon fill="none" stroke="black" points="10.0594,-355.5 10.0594,-375.5 132.059,-375.5 132.059,-355.5 10.0594,-355.5"/>
<text text-anchor="start" x="15.0594" y="-363.3" font-family="Helvetica,sans-Serif" font-size="9.00">model_Cartn_y</text>
</a>
</g>
<g id="a_node1_8"><a xlink:href="/dictionaries/mmcif_pdbx_modeling_extension_all.dic/Items/_chem_comp_atom.model_Cartn_y_esd.html" xlink:title="&lt;TABLE&gt;" target="_top">
<polygon fill="none" stroke="black" points="10.0594,-335.5 10.0594,-355.5 132.059,-355.5 132.059,-335.5 10.0594,-335.5"/>
<text text-anchor="start" x="15.0594" y="-343.3" font-family="Helvetica,sans-Serif" font-size="9.00">model_Cartn_y_esd</text>
</a>
</g>
<g id="a_node1_9"><a xlink:href="/dictionaries/mmcif_pdbx_modeling_extension_all.dic/Items/_chem_comp_atom.model_Cartn_z.html" xlink:title="&lt;TABLE&gt;" target="_top">
<polygon fill="none" stroke="black" points="10.0594,-315.5 10.0594,-335.5 132.059,-335.5 132.059,-315.5 10.0594,-315.5"/>
<text text-anchor="start" x="15.0594" y="-323.3" font-family="Helvetica,sans-Serif" font-size="9.00">model_Cartn_z</text>
</a>
</g>
<g id="a_node1_10"><a xlink:href="/dictionaries/mmcif_pdbx_modeling_extension_all.dic/Items/_chem_comp_atom.model_Cartn_z_esd.html" xlink:title="&lt;TABLE&gt;" target="_top">
<polygon fill="none" stroke="black" points="10.0594,-295.5 10.0594,-315.5 132.059,-315.5 132.059,-295.5 10.0594,-295.5"/>
<text text-anchor="start" x="15.0594" y="-303.3" font-family="Helvetica,sans-Serif" font-size="9.00">model_Cartn_z_esd</text>
</a>
</g>
<g id="a_node1_11"><a xlink:href="/dictionaries/mmcif_pdbx_modeling_extension_all.dic/Items/_chem_comp_atom.partial_charge.html" xlink:title="&lt;TABLE&gt;" target="_top">
<polygon fill="none" stroke="black" points="10.0594,-275.5 10.0594,-295.5 132.059,-295.5 132.059,-275.5 10.0594,-275.5"/>
<text text-anchor="start" x="15.0594" y="-283.3" font-family="Helvetica,sans-Serif" font-size="9.00">partial_charge</text>
</a>
</g>
<g id="a_node1_12"><a xlink:href="/dictionaries/mmcif_pdbx_modeling_extension_all.dic/Items/_chem_comp_atom.pdbx_align.html" xlink:title="&lt;TABLE&gt;" target="_top">
<polygon fill="none" stroke="black" points="10.0594,-255.5 10.0594,-275.5 132.059,-275.5 132.059,-255.5 10.0594,-255.5"/>
<text text-anchor="start" x="15.0594" y="-263.3" font-family="Helvetica,sans-Serif" font-size="9.00">pdbx_align</text>
</a>
</g>
<g id="a_node1_13"><a xlink:href="/dictionaries/mmcif_pdbx_modeling_extension_all.dic/Items/_chem_comp_atom.pdbx_alt_atom_id.html" xlink:title="&lt;TABLE&gt;" target="_top">
<polygon fill="none" stroke="black" points="10.0594,-235.5 10.0594,-255.5 132.059,-255.5 132.059,-235.5 10.0594,-235.5"/>
<text text-anchor="start" x="15.0594" y="-243.3" font-family="Helvetica,sans-Serif" font-size="9.00">pdbx_alt_atom_id</text>
</a>
</g>
<g id="a_node1_14"><a xlink:href="/dictionaries/mmcif_pdbx_modeling_extension_all.dic/Items/_chem_comp_atom.pdbx_alt_comp_id.html" xlink:title="&lt;TABLE&gt;" target="_top">
<polygon fill="none" stroke="black" points="10.0594,-215.5 10.0594,-235.5 132.059,-235.5 132.059,-215.5 10.0594,-215.5"/>
<text text-anchor="start" x="15.0594" y="-223.3" font-family="Helvetica,sans-Serif" font-size="9.00">pdbx_alt_comp_id</text>
</a>
</g>
<g id="a_node1_15"><a xlink:href="/dictionaries/mmcif_pdbx_modeling_extension_all.dic/Items/_chem_comp_atom.pdbx_aromatic_flag.html" xlink:title="&lt;TABLE&gt;" target="_top">
<polygon fill="none" stroke="black" points="10.0594,-195.5 10.0594,-215.5 132.059,-215.5 132.059,-195.5 10.0594,-195.5"/>
<text text-anchor="start" x="15.0594" y="-203.3" font-family="Helvetica,sans-Serif" font-size="9.00">pdbx_aromatic_flag</text>
</a>
</g>
<g id="a_node1_16"><a xlink:href="/dictionaries/mmcif_pdbx_modeling_extension_all.dic/Items/_chem_comp_atom.pdbx_component_atom_id.html" xlink:title="&lt;TABLE&gt;" target="_top">
<polygon fill="none" stroke="black" points="10.0594,-175.5 10.0594,-195.5 132.059,-195.5 132.059,-175.5 10.0594,-175.5"/>
<text text-anchor="start" x="15.0594" y="-183.3" font-family="Helvetica,sans-Serif" font-size="9.00">pdbx_component_atom_id</text>
</a>
</g>
<g id="a_node1_17"><a xlink:href="/dictionaries/mmcif_pdbx_modeling_extension_all.dic/Items/_chem_comp_atom.pdbx_component_comp_id.html" xlink:title="&lt;TABLE&gt;" target="_top">
<polygon fill="none" stroke="black" points="10.0594,-155.5 10.0594,-175.5 132.059,-175.5 132.059,-155.5 10.0594,-155.5"/>
<text text-anchor="start" x="15.0594" y="-163.3" font-family="Helvetica,sans-Serif" font-size="9.00">pdbx_component_comp_id</text>
</a>
</g>
<g id="a_node1_18"><a xlink:href="/dictionaries/mmcif_pdbx_modeling_extension_all.dic/Items/_chem_comp_atom.pdbx_component_entity_id.html" xlink:title="&lt;TABLE&gt;" target="_top">
<polygon fill="none" stroke="black" points="10.0594,-135.5 10.0594,-155.5 132.059,-155.5 132.059,-135.5 10.0594,-135.5"/>
<text text-anchor="start" x="15.0594" y="-143.3" font-family="Helvetica,sans-Serif" font-size="9.00">pdbx_component_entity_id</text>
</a>
</g>
<g id="a_node1_19"><a xlink:href="/dictionaries/mmcif_pdbx_modeling_extension_all.dic/Items/_chem_comp_atom.pdbx_component_id.html" xlink:title="&lt;TABLE&gt;" target="_top">
<polygon fill="none" stroke="black" points="10.0594,-115.5 10.0594,-135.5 132.059,-135.5 132.059,-115.5 10.0594,-115.5"/>
<text text-anchor="start" x="15.0594" y="-123.3" font-family="Helvetica,sans-Serif" font-size="9.00">pdbx_component_id</text>
</a>
</g>
<g id="a_node1_20"><a xlink:href="/dictionaries/mmcif_pdbx_modeling_extension_all.dic/Items/_chem_comp_atom.pdbx_leaving_atom_flag.html" xlink:title="&lt;TABLE&gt;" target="_top">
<polygon fill="none" stroke="black" points="10.0594,-95.5 10.0594,-115.5 132.059,-115.5 132.059,-95.5 10.0594,-95.5"/>
<text text-anchor="start" x="15.0594" y="-103.3" font-family="Helvetica,sans-Serif" font-size="9.00">pdbx_leaving_atom_flag</text>
</a>
</g>
<polygon fill="none" stroke="black" points="10.0594,-79.5 10.0594,-95.5 132.059,-95.5 132.059,-79.5 10.0594,-79.5"/>
<text text-anchor="start" x="40.0594" y="-85.3" font-family="Helvetica,sans-Serif" font-size="9.00">... and others ...</text>
</g>
<!-- _entity_poly_seq -->
<g id="node2" class="node"><title>_entity_poly_seq</title>
<g id="a_node2_21"><a xlink:href="/dictionaries/mmcif_pdbx_modeling_extension_all.dic/Categories/entity_poly_seq.html" xlink:title="&lt;TABLE&gt;" target="_top">
<polygon fill="#99c49b" stroke="none" points="166.059,-327.5 166.059,-348.5 270.059,-348.5 270.059,-327.5 166.059,-327.5"/>
<polygon fill="none" stroke="black" points="166.059,-327.5 166.059,-348.5 270.059,-348.5 270.059,-327.5 166.059,-327.5"/>
<text text-anchor="start" x="171.059" y="-335.5" font-family="Helvetica,sans-Serif" font-size="10.00">ENTITY_POLY_SEQ</text>
</a>
</g>
<g id="a_node2_22"><a xlink:href="/dictionaries/mmcif_pdbx_modeling_extension_all.dic/Items/_entity_poly_seq.entity_id.html" xlink:title="&lt;TABLE&gt;" target="_top">
<polygon fill="#ffff99" stroke="none" points="166.059,-307.5 166.059,-327.5 270.059,-327.5 270.059,-307.5 166.059,-307.5"/>
<polygon fill="none" stroke="black" points="166.059,-307.5 166.059,-327.5 270.059,-327.5 270.059,-307.5 166.059,-307.5"/>
<text text-anchor="start" x="171.059" y="-315.3" font-family="Helvetica,sans-Serif" font-size="9.00">entity_id</text>
</a>
</g>
<g id="a_node2_23"><a xlink:href="/dictionaries/mmcif_pdbx_modeling_extension_all.dic/Items/_entity_poly_seq.mon_id.html" xlink:title="&lt;TABLE&gt;" target="_top">
<polygon fill="#ffff99" stroke="none" points="166.059,-287.5 166.059,-307.5 270.059,-307.5 270.059,-287.5 166.059,-287.5"/>
<polygon fill="none" stroke="black" points="166.059,-287.5 166.059,-307.5 270.059,-307.5 270.059,-287.5 166.059,-287.5"/>
<text text-anchor="start" x="171.059" y="-295.3" font-family="Helvetica,sans-Serif" font-size="9.00">mon_id</text>
</a>
</g>
<g id="a_node2_24"><a xlink:href="/dictionaries/mmcif_pdbx_modeling_extension_all.dic/Items/_entity_poly_seq.num.html" xlink:title="&lt;TABLE&gt;" target="_top">
<polygon fill="#ffff99" stroke="none" points="166.059,-267.5 166.059,-287.5 270.059,-287.5 270.059,-267.5 166.059,-267.5"/>
<polygon fill="none" stroke="black" points="166.059,-267.5 166.059,-287.5 270.059,-287.5 270.059,-267.5 166.059,-267.5"/>
<text text-anchor="start" x="171.059" y="-275.3" font-family="Helvetica,sans-Serif" font-size="9.00">num</text>
</a>
</g>
<g id="a_node2_25"><a xlink:href="/dictionaries/mmcif_pdbx_modeling_extension_all.dic/Items/_entity_poly_seq.hetero.html" xlink:title="&lt;TABLE&gt;" target="_top">
<polygon fill="none" stroke="black" points="166.059,-247.5 166.059,-267.5 270.059,-267.5 270.059,-247.5 166.059,-247.5"/>
<text text-anchor="start" x="171.059" y="-255.3" font-family="Helvetica,sans-Serif" font-size="9.00">hetero</text>
</a>
</g>
</g>
<!-- _ma_angle_restraints -->
<g id="node3" class="node"><title>_ma_angle_restraints</title>
<g id="a_node3_26"><a xlink:href="/dictionaries/mmcif_pdbx_modeling_extension_all.dic/Categories/ma_angle_restraints.html" xlink:title="&lt;TABLE&gt;" target="_top">
<polygon fill="#f0027f" stroke="none" points="166.059,-976.5 166.059,-997.5 300.059,-997.5 300.059,-976.5 166.059,-976.5"/>
<polygon fill="none" stroke="black" points="166.059,-976.5 166.059,-997.5 300.059,-997.5 300.059,-976.5 166.059,-976.5"/>
<text text-anchor="start" x="171.059" y="-984.5" font-family="Helvetica,sans-Serif" font-size="10.00">MA_ANGLE_RESTRAINTS</text>
</a>
</g>
<g id="a_node3_27"><a xlink:href="/dictionaries/mmcif_pdbx_modeling_extension_all.dic/Items/_ma_angle_restraints.ordinal_id.html" xlink:title="&lt;TABLE&gt;" target="_top">
<polygon fill="#ffff99" stroke="none" points="166.059,-956.5 166.059,-976.5 300.059,-976.5 300.059,-956.5 166.059,-956.5"/>
<polygon fill="none" stroke="black" points="166.059,-956.5 166.059,-976.5 300.059,-976.5 300.059,-956.5 166.059,-956.5"/>
<text text-anchor="start" x="171.059" y="-964.3" font-family="Helvetica,sans-Serif" font-size="9.00">ordinal_id</text>
</a>
</g>
<g id="a_node3_28"><a xlink:href="/dictionaries/mmcif_pdbx_modeling_extension_all.dic/Items/_ma_angle_restraints.asym_id_1.html" xlink:title="&lt;TABLE&gt;" target="_top">
<polygon fill="none" stroke="black" points="166.059,-936.5 166.059,-956.5 300.059,-956.5 300.059,-936.5 166.059,-936.5"/>
<text text-anchor="start" x="171.059" y="-944.3" font-family="Helvetica,sans-Serif" font-size="9.00">asym_id_1</text>
</a>
</g>
<g id="a_node3_29"><a xlink:href="/dictionaries/mmcif_pdbx_modeling_extension_all.dic/Items/_ma_angle_restraints.asym_id_2.html" xlink:title="&lt;TABLE&gt;" target="_top">
<polygon fill="none" stroke="black" points="166.059,-916.5 166.059,-936.5 300.059,-936.5 300.059,-916.5 166.059,-916.5"/>
<text text-anchor="start" x="171.059" y="-924.3" font-family="Helvetica,sans-Serif" font-size="9.00">asym_id_2</text>
</a>
</g>
<g id="a_node3_30"><a xlink:href="/dictionaries/mmcif_pdbx_modeling_extension_all.dic/Items/_ma_angle_restraints.asym_id_3.html" xlink:title="&lt;TABLE&gt;" target="_top">
<polygon fill="none" stroke="black" points="166.059,-896.5 166.059,-916.5 300.059,-916.5 300.059,-896.5 166.059,-896.5"/>
<text text-anchor="start" x="171.059" y="-904.3" font-family="Helvetica,sans-Serif" font-size="9.00">asym_id_3</text>
</a>
</g>
<g id="a_node3_31"><a xlink:href="/dictionaries/mmcif_pdbx_modeling_extension_all.dic/Items/_ma_angle_restraints.atom_id_1.html" xlink:title="&lt;TABLE&gt;" target="_top">
<polygon fill="none" stroke="black" points="166.059,-876.5 166.059,-896.5 300.059,-896.5 300.059,-876.5 166.059,-876.5"/>
<text text-anchor="start" x="171.059" y="-884.3" font-family="Helvetica,sans-Serif" font-size="9.00">atom_id_1</text>
</a>
</g>
<g id="a_node3_32"><a xlink:href="/dictionaries/mmcif_pdbx_modeling_extension_all.dic/Items/_ma_angle_restraints.atom_id_2.html" xlink:title="&lt;TABLE&gt;" target="_top">
<polygon fill="none" stroke="black" points="166.059,-856.5 166.059,-876.5 300.059,-876.5 300.059,-856.5 166.059,-856.5"/>
<text text-anchor="start" x="171.059" y="-864.3" font-family="Helvetica,sans-Serif" font-size="9.00">atom_id_2</text>
</a>
</g>
<g id="a_node3_33"><a xlink:href="/dictionaries/mmcif_pdbx_modeling_extension_all.dic/Items/_ma_angle_restraints.atom_id_3.html" xlink:title="&lt;TABLE&gt;" target="_top">
<polygon fill="none" stroke="black" points="166.059,-836.5 166.059,-856.5 300.059,-856.5 300.059,-836.5 166.059,-836.5"/>
<text text-anchor="start" x="171.059" y="-844.3" font-family="Helvetica,sans-Serif" font-size="9.00">atom_id_3</text>
</a>
</g>
<g id="a_node3_34"><a xlink:href="/dictionaries/mmcif_pdbx_modeling_extension_all.dic/Items/_ma_angle_restraints.comp_id_1.html" xlink:title="&lt;TABLE&gt;" target="_top">
<polygon fill="none" stroke="black" points="166.059,-816.5 166.059,-836.5 300.059,-836.5 300.059,-816.5 166.059,-816.5"/>
<text text-anchor="start" x="171.059" y="-824.3" font-family="Helvetica,sans-Serif" font-size="9.00">comp_id_1</text>
</a>
</g>
<g id="a_node3_35"><a xlink:href="/dictionaries/mmcif_pdbx_modeling_extension_all.dic/Items/_ma_angle_restraints.comp_id_2.html" xlink:title="&lt;TABLE&gt;" target="_top">
<polygon fill="none" stroke="black" points="166.059,-796.5 166.059,-816.5 300.059,-816.5 300.059,-796.5 166.059,-796.5"/>
<text text-anchor="start" x="171.059" y="-804.3" font-family="Helvetica,sans-Serif" font-size="9.00">comp_id_2</text>
</a>
</g>
<g id="a_node3_36"><a xlink:href="/dictionaries/mmcif_pdbx_modeling_extension_all.dic/Items/_ma_angle_restraints.comp_id_3.html" xlink:title="&lt;TABLE&gt;" target="_top">
<polygon fill="none" stroke="black" points="166.059,-776.5 166.059,-796.5 300.059,-796.5 300.059,-776.5 166.059,-776.5"/>
<text text-anchor="start" x="171.059" y="-784.3" font-family="Helvetica,sans-Serif" font-size="9.00">comp_id_3</text>
</a>
</g>
<g id="a_node3_37"><a xlink:href="/dictionaries/mmcif_pdbx_modeling_extension_all.dic/Items/_ma_angle_restraints.entity_id_1.html" xlink:title="&lt;TABLE&gt;" target="_top">
<polygon fill="none" stroke="black" points="166.059,-756.5 166.059,-776.5 300.059,-776.5 300.059,-756.5 166.059,-756.5"/>
<text text-anchor="start" x="171.059" y="-764.3" font-family="Helvetica,sans-Serif" font-size="9.00">entity_id_1</text>
</a>
</g>
<g id="a_node3_38"><a xlink:href="/dictionaries/mmcif_pdbx_modeling_extension_all.dic/Items/_ma_angle_restraints.entity_id_2.html" xlink:title="&lt;TABLE&gt;" target="_top">
<polygon fill="none" stroke="black" points="166.059,-736.5 166.059,-756.5 300.059,-756.5 300.059,-736.5 166.059,-736.5"/>
<text text-anchor="start" x="171.059" y="-744.3" font-family="Helvetica,sans-Serif" font-size="9.00">entity_id_2</text>
</a>
</g>
<g id="a_node3_39"><a xlink:href="/dictionaries/mmcif_pdbx_modeling_extension_all.dic/Items/_ma_angle_restraints.entity_id_3.html" xlink:title="&lt;TABLE&gt;" target="_top">
<polygon fill="none" stroke="black" points="166.059,-716.5 166.059,-736.5 300.059,-736.5 300.059,-716.5 166.059,-716.5"/>
<text text-anchor="start" x="171.059" y="-724.3" font-family="Helvetica,sans-Serif" font-size="9.00">entity_id_3</text>
</a>
</g>
<g id="a_node3_40"><a xlink:href="/dictionaries/mmcif_pdbx_modeling_extension_all.dic/Items/_ma_angle_restraints.restraint_id.html" xlink:title="&lt;TABLE&gt;" target="_top">
<polygon fill="none" stroke="black" points="166.059,-696.5 166.059,-716.5 300.059,-716.5 300.059,-696.5 166.059,-696.5"/>
<text text-anchor="start" x="171.059" y="-704.3" font-family="Helvetica,sans-Serif" font-size="9.00">restraint_id</text>
</a>
</g>
<g id="a_node3_41"><a xlink:href="/dictionaries/mmcif_pdbx_modeling_extension_all.dic/Items/_ma_angle_restraints.seq_id_1.html" xlink:title="&lt;TABLE&gt;" target="_top">
<polygon fill="none" stroke="black" points="166.059,-676.5 166.059,-696.5 300.059,-696.5 300.059,-676.5 166.059,-676.5"/>
<text text-anchor="start" x="171.059" y="-684.3" font-family="Helvetica,sans-Serif" font-size="9.00">seq_id_1</text>
</a>
</g>
<g id="a_node3_42"><a xlink:href="/dictionaries/mmcif_pdbx_modeling_extension_all.dic/Items/_ma_angle_restraints.seq_id_2.html" xlink:title="&lt;TABLE&gt;" target="_top">
<polygon fill="none" stroke="black" points="166.059,-656.5 166.059,-676.5 300.059,-676.5 300.059,-656.5 166.059,-656.5"/>
<text text-anchor="start" x="171.059" y="-664.3" font-family="Helvetica,sans-Serif" font-size="9.00">seq_id_2</text>
</a>
</g>
<g id="a_node3_43"><a xlink:href="/dictionaries/mmcif_pdbx_modeling_extension_all.dic/Items/_ma_angle_restraints.seq_id_3.html" xlink:title="&lt;TABLE&gt;" target="_top">
<polygon fill="none" stroke="black" points="166.059,-636.5 166.059,-656.5 300.059,-656.5 300.059,-636.5 166.059,-636.5"/>
<text text-anchor="start" x="171.059" y="-644.3" font-family="Helvetica,sans-Serif" font-size="9.00">seq_id_3</text>
</a>
</g>
<g id="a_node3_44"><a xlink:href="/dictionaries/mmcif_pdbx_modeling_extension_all.dic/Items/_ma_angle_restraints.lower_limit.html" xlink:title="&lt;TABLE&gt;" target="_top">
<polygon fill="none" stroke="black" points="166.059,-616.5 166.059,-636.5 300.059,-636.5 300.059,-616.5 166.059,-616.5"/>
<text text-anchor="start" x="171.059" y="-624.3" font-family="Helvetica,sans-Serif" font-size="9.00">lower_limit</text>
</a>
</g>
<g id="a_node3_45"><a xlink:href="/dictionaries/mmcif_pdbx_modeling_extension_all.dic/Items/_ma_angle_restraints.lower_limit_esd.html" xlink:title="&lt;TABLE&gt;" target="_top">
<polygon fill="none" stroke="black" points="166.059,-596.5 166.059,-616.5 300.059,-616.5 300.059,-596.5 166.059,-596.5"/>
<text text-anchor="start" x="171.059" y="-604.3" font-family="Helvetica,sans-Serif" font-size="9.00">lower_limit_esd</text>
</a>
</g>
<g id="a_node3_46"><a xlink:href="/dictionaries/mmcif_pdbx_modeling_extension_all.dic/Items/_ma_angle_restraints.name.html" xlink:title="&lt;TABLE&gt;" target="_top">
<polygon fill="none" stroke="black" points="166.059,-576.5 166.059,-596.5 300.059,-596.5 300.059,-576.5 166.059,-576.5"/>
<text text-anchor="start" x="171.059" y="-584.3" font-family="Helvetica,sans-Serif" font-size="9.00">name</text>
</a>
</g>
<polygon fill="none" stroke="black" points="166.059,-560.5 166.059,-576.5 300.059,-576.5 300.059,-560.5 166.059,-560.5"/>
<text text-anchor="start" x="202.059" y="-566.3" font-family="Helvetica,sans-Serif" font-size="9.00">... and others ...</text>
</g>
<!-- _ma_angle_restraints&#45;&gt;_chem_comp_atom -->
<g id="edge1" class="edge"><title>_ma_angle_restraints:__atom_id_1:w&#45;&gt;_chem_comp_atom:__atom_id:w</title>
<path fill="none" stroke="black" d="M165.059,-886.5C120.893,-886.5 -15.6111,-544.263 1.54417,-492.126"/>
<polygon fill="black" stroke="black" points="3.87287,-494.739 9.05945,-485.5 -0.756312,-489.488 3.87287,-494.739"/>
</g>
<!-- _ma_angle_restraints&#45;&gt;_chem_comp_atom -->
<g id="edge2" class="edge"><title>_ma_angle_restraints:__atom_id_2:w&#45;&gt;_chem_comp_atom:__atom_id:w</title>
<path fill="none" stroke="black" d="M165.059,-866.5C122.978,-866.5 -12.4077,-544.076 1.7909,-492.438"/>
<polygon fill="black" stroke="black" points="4.24258,-494.937 9.05945,-485.5 -0.590796,-489.873 4.24258,-494.937"/>
</g>
<!-- _ma_angle_restraints&#45;&gt;_chem_comp_atom -->
<g id="edge3" class="edge"><title>_ma_angle_restraints:__atom_id_3:w&#45;&gt;_chem_comp_atom:__atom_id:w</title>
<path fill="none" stroke="black" d="M165.059,-846.5C125.033,-846.5 -9.22561,-543.59 2.09086,-492.711"/>
<polygon fill="black" stroke="black" points="4.62715,-495.123 9.05945,-485.5 -0.406539,-490.259 4.62715,-495.123"/>
</g>
<!-- _ma_angle_restraints&#45;&gt;_entity_poly_seq -->
<g id="edge4" class="edge"><title>_ma_angle_restraints:__entity_id_1:w&#45;&gt;_entity_poly_seq:__entity_id:w</title>
<path fill="none" stroke="black" d="M165.059,-766.5C153.683,-766.5 152.684,-392.957 162.06,-327.296"/>
<polygon fill="black" stroke="black" points="165.478,-328.087 165.059,-317.5 158.785,-326.037 165.478,-328.087"/>
</g>
<!-- _ma_angle_restraints&#45;&gt;_entity_poly_seq -->
<g id="edge5" class="edge"><title>_ma_angle_restraints:__entity_id_2:w&#45;&gt;_entity_poly_seq:__entity_id:w</title>
<path fill="none" stroke="black" d="M165.059,-746.5C154.213,-746.5 153.239,-391.123 162.136,-327.266"/>
<polygon fill="black" stroke="black" points="165.545,-328.084 165.059,-317.5 158.839,-326.076 165.545,-328.084"/>
</g>
<!-- _ma_angle_restraints&#45;&gt;_entity_poly_seq -->
<g id="edge6" class="edge"><title>_ma_angle_restraints:__entity_id_3:w&#45;&gt;_entity_poly_seq:__entity_id:w</title>
<path fill="none" stroke="black" d="M165.059,-726.5C154.741,-726.5 153.794,-389.143 162.218,-327.207"/>
<polygon fill="black" stroke="black" points="165.609,-328.081 165.059,-317.5 158.891,-326.114 165.609,-328.081"/>
</g>
<!-- _ma_angle_restraints&#45;&gt;_entity_poly_seq -->
<g id="edge7" class="edge"><title>_ma_angle_restraints:__comp_id_1:w&#45;&gt;_entity_poly_seq:__mon_id:w</title>
<path fill="none" stroke="black" d="M165.059,-826.5C151.542,-826.5 150.459,-378.83 161.812,-307.133"/>
<polygon fill="black" stroke="black" points="165.182,-308.094 165.059,-297.5 158.548,-305.858 165.182,-308.094"/>
</g>
<!-- _ma_angle_restraints&#45;&gt;_entity_poly_seq -->
<g id="edge8" class="edge"><title>_ma_angle_restraints:__comp_id_2:w&#45;&gt;_entity_poly_seq:__mon_id:w</title>
<path fill="none" stroke="black" d="M165.059,-806.5C152.08,-806.5 151.016,-377.583 161.865,-307.213"/>
<polygon fill="black" stroke="black" points="165.26,-308.093 165.059,-297.5 158.611,-305.906 165.26,-308.093"/>
</g>
<!-- _ma_angle_restraints&#45;&gt;_entity_poly_seq -->
<g id="edge9" class="edge"><title>_ma_angle_restraints:__comp_id_3:w&#45;&gt;_entity_poly_seq:__mon_id:w</title>
<path fill="none" stroke="black" d="M165.059,-786.5C152.617,-786.5 151.572,-376.188 161.925,-307.268"/>
<polygon fill="black" stroke="black" points="165.336,-308.091 165.059,-297.5 158.671,-305.952 165.336,-308.091"/>
</g>
<!-- _ma_angle_restraints&#45;&gt;_entity_poly_seq -->
<g id="edge10" class="edge"><title>_ma_angle_restraints:__seq_id_1:w&#45;&gt;_entity_poly_seq:__num:w</title>
<path fill="none" stroke="black" d="M165.059,-686.5C154.741,-686.5 153.794,-349.143 162.218,-287.207"/>
<polygon fill="black" stroke="black" points="165.609,-288.081 165.059,-277.5 158.891,-286.114 165.609,-288.081"/>
</g>
<!-- _ma_angle_restraints&#45;&gt;_entity_poly_seq -->
<g id="edge11" class="edge"><title>_ma_angle_restraints:__seq_id_2:w&#45;&gt;_entity_poly_seq:__num:w</title>
<path fill="none" stroke="black" d="M165.059,-666.5C155.267,-666.5 154.349,-347.019 162.305,-287.116"/>
<polygon fill="black" stroke="black" points="165.671,-288.077 165.059,-277.5 158.941,-286.15 165.671,-288.077"/>
</g>
<!-- _ma_angle_restraints&#45;&gt;_entity_poly_seq -->
<g id="edge12" class="edge"><title>_ma_angle_restraints:__seq_id_3:w&#45;&gt;_entity_poly_seq:__num:w</title>
<path fill="none" stroke="black" d="M165.059,-646.5C146.441,-646.5 144.732,-342.137 159.932,-286.257"/>
<polygon fill="black" stroke="black" points="163.027,-287.898 165.059,-277.5 156.986,-284.361 163.027,-287.898"/>
</g>
<!-- _ma_restraints -->
<g id="node4" class="node"><title>_ma_restraints</title>
<g id="a_node4_47"><a xlink:href="/dictionaries/mmcif_pdbx_modeling_extension_all.dic/Categories/ma_restraints.html" xlink:title="&lt;TABLE&gt;" target="_top">
<polygon fill="#99c49b" stroke="none" points="305.059,-337.5 305.059,-358.5 400.059,-358.5 400.059,-337.5 305.059,-337.5"/>
<polygon fill="none" stroke="black" points="305.059,-337.5 305.059,-358.5 400.059,-358.5 400.059,-337.5 305.059,-337.5"/>
<text text-anchor="start" x="310.059" y="-345.5" font-family="Helvetica,sans-Serif" font-size="10.00">MA_RESTRAINTS</text>
</a>
</g>
<g id="a_node4_48"><a xlink:href="/dictionaries/mmcif_pdbx_modeling_extension_all.dic/Items/_ma_restraints.restraint_id.html" xlink:title="&lt;TABLE&gt;" target="_top">
<polygon fill="#ffff99" stroke="none" points="305.059,-317.5 305.059,-337.5 400.059,-337.5 400.059,-317.5 305.059,-317.5"/>
<polygon fill="none" stroke="black" points="305.059,-317.5 305.059,-337.5 400.059,-337.5 400.059,-317.5 305.059,-317.5"/>
<text text-anchor="start" x="310.059" y="-325.3" font-family="Helvetica,sans-Serif" font-size="9.00">restraint_id</text>
</a>
</g>
<g id="a_node4_49"><a xlink:href="/dictionaries/mmcif_pdbx_modeling_extension_all.dic/Items/_ma_restraints.data_id.html" xlink:title="&lt;TABLE&gt;" target="_top">
<polygon fill="none" stroke="black" points="305.059,-297.5 305.059,-317.5 400.059,-317.5 400.059,-297.5 305.059,-297.5"/>
<text text-anchor="start" x="310.059" y="-305.3" font-family="Helvetica,sans-Serif" font-size="9.00">data_id</text>
</a>
</g>
<g id="a_node4_50"><a xlink:href="/dictionaries/mmcif_pdbx_modeling_extension_all.dic/Items/_ma_restraints.details.html" xlink:title="&lt;TABLE&gt;" target="_top">
<polygon fill="none" stroke="black" points="305.059,-277.5 305.059,-297.5 400.059,-297.5 400.059,-277.5 305.059,-277.5"/>
<text text-anchor="start" x="310.059" y="-285.3" font-family="Helvetica,sans-Serif" font-size="9.00">details</text>
</a>
</g>
<g id="a_node4_51"><a xlink:href="/dictionaries/mmcif_pdbx_modeling_extension_all.dic/Items/_ma_restraints.name.html" xlink:title="&lt;TABLE&gt;" target="_top">
<polygon fill="none" stroke="black" points="305.059,-257.5 305.059,-277.5 400.059,-277.5 400.059,-257.5 305.059,-257.5"/>
<text text-anchor="start" x="310.059" y="-265.3" font-family="Helvetica,sans-Serif" font-size="9.00">name</text>
</a>
</g>
<g id="a_node4_52"><a xlink:href="/dictionaries/mmcif_pdbx_modeling_extension_all.dic/Items/_ma_restraints.restraint_type.html" xlink:title="&lt;TABLE&gt;" target="_top">
<polygon fill="none" stroke="black" points="305.059,-237.5 305.059,-257.5 400.059,-257.5 400.059,-237.5 305.059,-237.5"/>
<text text-anchor="start" x="310.059" y="-245.3" font-family="Helvetica,sans-Serif" font-size="9.00">restraint_type</text>
</a>
</g>
</g>
<!-- _ma_angle_restraints&#45;&gt;_ma_restraints -->
<g id="edge16" class="edge"><title>_ma_angle_restraints:__restraint_id:w&#45;&gt;_ma_restraints:__restraint_id:w</title>
<path fill="none" stroke="black" d="M165.059,-706.5C98.6135,-706.5 126.157,-610.131 166.059,-557 199.753,-512.136 251.578,-564.464 287.059,-521 298.949,-506.436 286.647,-370.417 297.544,-335.591"/>
<polygon fill="black" stroke="black" points="300.514,-337.484 304.059,-327.5 295.062,-333.094 300.514,-337.484"/>
</g>
<!-- _struct_asym -->
<g id="node5" class="node"><title>_struct_asym</title>
<g id="a_node5_53"><a xlink:href="/dictionaries/mmcif_pdbx_modeling_extension_all.dic/Categories/struct_asym.html" xlink:title="&lt;TABLE&gt;" target="_top">
<polygon fill="#99c49b" stroke="none" points="433.059,-417.5 433.059,-438.5 657.059,-438.5 657.059,-417.5 433.059,-417.5"/>
<polygon fill="none" stroke="black" points="433.059,-417.5 433.059,-438.5 657.059,-438.5 657.059,-417.5 433.059,-417.5"/>
<text text-anchor="start" x="507.059" y="-425.5" font-family="Helvetica,sans-Serif" font-size="10.00">STRUCT_ASYM</text>
</a>
</g>
<g id="a_node5_54"><a xlink:href="/dictionaries/mmcif_pdbx_modeling_extension_all.dic/Items/_struct_asym.id.html" xlink:title="&lt;TABLE&gt;" target="_top">
<polygon fill="#ffff99" stroke="none" points="433.059,-397.5 433.059,-417.5 657.059,-417.5 657.059,-397.5 433.059,-397.5"/>
<polygon fill="none" stroke="black" points="433.059,-397.5 433.059,-417.5 657.059,-417.5 657.059,-397.5 433.059,-397.5"/>
<text text-anchor="start" x="438.059" y="-405.3" font-family="Helvetica,sans-Serif" font-size="9.00">id</text>
</a>
</g>
<g id="a_node5_55"><a xlink:href="/dictionaries/mmcif_pdbx_modeling_extension_all.dic/Items/_struct_asym.details.html" xlink:title="&lt;TABLE&gt;" target="_top">
<polygon fill="none" stroke="black" points="433.059,-377.5 433.059,-397.5 657.059,-397.5 657.059,-377.5 433.059,-377.5"/>
<text text-anchor="start" x="438.059" y="-385.3" font-family="Helvetica,sans-Serif" font-size="9.00">details</text>
</a>
</g>
<g id="a_node5_56"><a xlink:href="/dictionaries/mmcif_pdbx_modeling_extension_all.dic/Items/_struct_asym.entity_id.html" xlink:title="&lt;TABLE&gt;" target="_top">
<polygon fill="none" stroke="black" points="433.059,-357.5 433.059,-377.5 657.059,-377.5 657.059,-357.5 433.059,-357.5"/>
<text text-anchor="start" x="438.059" y="-365.3" font-family="Helvetica,sans-Serif" font-size="9.00">entity_id</text>
</a>
</g>
<g id="a_node5_57"><a xlink:href="/dictionaries/mmcif_pdbx_modeling_extension_all.dic/Items/_struct_asym.pdbx_PDB_id.html" xlink:title="&lt;TABLE&gt;" target="_top">
<polygon fill="none" stroke="black" points="433.059,-337.5 433.059,-357.5 657.059,-357.5 657.059,-337.5 433.059,-337.5"/>
<text text-anchor="start" x="438.059" y="-345.3" font-family="Helvetica,sans-Serif" font-size="9.00">pdbx_PDB_id</text>
</a>
</g>
<g id="a_node5_58"><a xlink:href="/dictionaries/mmcif_pdbx_modeling_extension_all.dic/Items/_struct_asym.pdbx_alt_id.html" xlink:title="&lt;TABLE&gt;" target="_top">
<polygon fill="none" stroke="black" points="433.059,-317.5 433.059,-337.5 657.059,-337.5 657.059,-317.5 433.059,-317.5"/>
<text text-anchor="start" x="438.059" y="-325.3" font-family="Helvetica,sans-Serif" font-size="9.00">pdbx_alt_id</text>
</a>
</g>
<g id="a_node5_59"><a xlink:href="/dictionaries/mmcif_pdbx_modeling_extension_all.dic/Items/_struct_asym.pdbx_blank_PDB_chainid_flag.html" xlink:title="&lt;TABLE&gt;" target="_top">
<polygon fill="none" stroke="black" points="433.059,-297.5 433.059,-317.5 657.059,-317.5 657.059,-297.5 433.059,-297.5"/>
<text text-anchor="start" x="438.059" y="-305.3" font-family="Helvetica,sans-Serif" font-size="9.00">pdbx_blank_PDB_chainid_flag</text>
</a>
</g>
<g id="a_node5_60"><a xlink:href="/dictionaries/mmcif_pdbx_modeling_extension_all.dic/Items/_struct_asym.pdbx_fraction_per_asym_unit.html" xlink:title="&lt;TABLE&gt;" target="_top">
<polygon fill="none" stroke="black" points="433.059,-277.5 433.059,-297.5 657.059,-297.5 657.059,-277.5 433.059,-277.5"/>
<text text-anchor="start" x="438.059" y="-285.3" font-family="Helvetica,sans-Serif" font-size="9.00">pdbx_fraction_per_asym_unit</text>
</a>
</g>
<g id="a_node5_61"><a xlink:href="/dictionaries/mmcif_pdbx_modeling_extension_all.dic/Items/_struct_asym.pdbx_missing_num_begin_of_chain_in_seqres.html" xlink:title="&lt;TABLE&gt;" target="_top">
<polygon fill="none" stroke="black" points="433.059,-257.5 433.059,-277.5 657.059,-277.5 657.059,-257.5 433.059,-257.5"/>
<text text-anchor="start" x="438.059" y="-265.3" font-family="Helvetica,sans-Serif" font-size="9.00">pdbx_missing_num_begin_of_chain_in_seqres</text>
</a>
</g>
<g id="a_node5_62"><a xlink:href="/dictionaries/mmcif_pdbx_modeling_extension_all.dic/Items/_struct_asym.pdbx_missing_num_begin_of_chain_not_in_seqres.html" xlink:title="&lt;TABLE&gt;" target="_top">
<polygon fill="none" stroke="black" points="433.059,-237.5 433.059,-257.5 657.059,-257.5 657.059,-237.5 433.059,-237.5"/>
<text text-anchor="start" x="438.059" y="-245.3" font-family="Helvetica,sans-Serif" font-size="9.00">pdbx_missing_num_begin_of_chain_not_in_seqres</text>
</a>
</g>
<g id="a_node5_63"><a xlink:href="/dictionaries/mmcif_pdbx_modeling_extension_all.dic/Items/_struct_asym.pdbx_missing_num_end_of_chain_not_in_seqres.html" xlink:title="&lt;TABLE&gt;" target="_top">
<polygon fill="none" stroke="black" points="433.059,-217.5 433.059,-237.5 657.059,-237.5 657.059,-217.5 433.059,-217.5"/>
<text text-anchor="start" x="438.059" y="-225.3" font-family="Helvetica,sans-Serif" font-size="9.00">pdbx_missing_num_end_of_chain_not_in_seqres</text>
</a>
</g>
<g id="a_node5_64"><a xlink:href="/dictionaries/mmcif_pdbx_modeling_extension_all.dic/Items/_struct_asym.pdbx_modified.html" xlink:title="&lt;TABLE&gt;" target="_top">
<polygon fill="none" stroke="black" points="433.059,-197.5 433.059,-217.5 657.059,-217.5 657.059,-197.5 433.059,-197.5"/>
<text text-anchor="start" x="438.059" y="-205.3" font-family="Helvetica,sans-Serif" font-size="9.00">pdbx_modified</text>
</a>
</g>
<g id="a_node5_65"><a xlink:href="/dictionaries/mmcif_pdbx_modeling_extension_all.dic/Items/_struct_asym.pdbx_order.html" xlink:title="&lt;TABLE&gt;" target="_top">
<polygon fill="none" stroke="black" points="433.059,-177.5 433.059,-197.5 657.059,-197.5 657.059,-177.5 433.059,-177.5"/>
<text text-anchor="start" x="438.059" y="-185.3" font-family="Helvetica,sans-Serif" font-size="9.00">pdbx_order</text>
</a>
</g>
<g id="a_node5_66"><a xlink:href="/dictionaries/mmcif_pdbx_modeling_extension_all.dic/Items/_struct_asym.pdbx_type.html" xlink:title="&lt;TABLE&gt;" target="_top">
<polygon fill="none" stroke="black" points="433.059,-157.5 433.059,-177.5 657.059,-177.5 657.059,-157.5 433.059,-157.5"/>
<text text-anchor="start" x="438.059" y="-165.3" font-family="Helvetica,sans-Serif" font-size="9.00">pdbx_type</text>
</a>
</g>
</g>
<!-- _ma_angle_restraints&#45;&gt;_struct_asym -->
<g id="edge13" class="edge"><title>_ma_angle_restraints:__asym_id_1:w&#45;&gt;_struct_asym:__id:w</title>
<path fill="none" stroke="black" d="M165.059,-946.5C-8.05224,-946.5 52.505,-687.664 166.059,-557 239.984,-471.937 337.812,-601.128 417.059,-521 432.224,-505.667 414.177,-434.776 423.822,-413.532"/>
<polygon fill="black" stroke="black" points="426.059,-416.232 432.059,-407.5 421.924,-410.585 426.059,-416.232"/>
</g>
<!-- _ma_angle_restraints&#45;&gt;_struct_asym -->
<g id="edge14" class="edge"><title>_ma_angle_restraints:__asym_id_2:w&#45;&gt;_struct_asym:__id:w</title>
<path fill="none" stroke="black" d="M165.059,-926.5C0.836623,-926.5 58.3271,-680.947 166.059,-557 239.99,-471.942 337.812,-601.128 417.059,-521 432.224,-505.667 414.177,-434.776 423.822,-413.532"/>
<polygon fill="black" stroke="black" points="426.059,-416.232 432.059,-407.5 421.924,-410.585 426.059,-416.232"/>
</g>
<!-- _ma_angle_restraints&#45;&gt;_struct_asym -->
<g id="edge15" class="edge"><title>_ma_angle_restraints:__asym_id_3:w&#45;&gt;_struct_asym:__id:w</title>
<path fill="none" stroke="black" d="M165.059,-906.5C9.72548,-906.5 64.1493,-674.23 166.059,-557 239.997,-471.948 337.812,-601.128 417.059,-521 432.224,-505.667 414.177,-434.776 423.822,-413.532"/>
<polygon fill="black" stroke="black" points="426.059,-416.232 432.059,-407.5 421.924,-410.585 426.059,-416.232"/>
</g>
</g>
</svg>
