<?xml version="1.0" encoding="UTF-8" standalone="no"?>
<!DOCTYPE svg PUBLIC "-//W3C//DTD SVG 1.1//EN"
 "http://www.w3.org/Graphics/SVG/1.1/DTD/svg11.dtd">
<!-- Generated by graphviz version 2.38.0 (20140413.2041)
 -->
<!-- Title: ma_alignment_details Pages: 1 -->
<svg width="549pt" height="1333pt"
 viewBox="0.00 0.00 549.00 1333.00" xmlns="http://www.w3.org/2000/svg" xmlns:xlink="http://www.w3.org/1999/xlink">
<g id="graph0" class="graph" transform="scale(1 1) rotate(0) translate(4 1329)">
<title>ma_alignment_details</title>
<polygon fill="white" stroke="none" points="-4,4 -4,-1329 545,-1329 545,4 -4,4"/>
<text text-anchor="start" x="267.5" y="-58.6" font-family="Helvetica,sans-Serif" font-size="18.00"> </text>
<text text-anchor="start" x="267.5" y="-40.6" font-family="Helvetica,sans-Serif" font-size="18.00"> </text>
<text text-anchor="start" x="8" y="-22.6" font-family="Helvetica,sans-Serif" font-size="18.00"> Category Relationship Diagram for </text>
<text text-anchor="start" x="291" y="-22.6" font-family="Helvetica,sans-Serif" font-weight="bold" font-size="18.00">MA_ALIGNMENT_DETAILS</text>
<text text-anchor="start" x="523" y="-22.6" font-family="Helvetica,sans-Serif" font-size="18.00"> </text>
<text text-anchor="start" x="529" y="-22.6" font-family="Helvetica,sans-Serif" font-size="14.00"> </text>
<text text-anchor="start" x="136.5" y="-7.8" font-family="Helvetica,sans-Serif" font-size="14.00"> &#160;in dictionary mmcif_pdbx.dic version 5.296 </text>
<!-- _ma_alignment -->
<g id="node1" class="node"><title>_ma_alignment</title>
<g id="a_node1_0"><a xlink:href="/dictionaries/mmcif_pdbx_modeling_extension_all.dic/Categories/ma_alignment.html" xlink:title="&lt;TABLE&gt;" target="_top">
<polygon fill="#99c49b" stroke="none" points="166.818,-1299.5 166.818,-1320.5 261.818,-1320.5 261.818,-1299.5 166.818,-1299.5"/>
<polygon fill="none" stroke="black" points="166.818,-1299.5 166.818,-1320.5 261.818,-1320.5 261.818,-1299.5 166.818,-1299.5"/>
<text text-anchor="start" x="174.818" y="-1307.5" font-family="Helvetica,sans-Serif" font-size="10.00">MA_ALIGNMENT</text>
</a>
</g>
<g id="a_node1_1"><a xlink:href="/dictionaries/mmcif_pdbx_modeling_extension_all.dic/Items/_ma_alignment.ordinal_id.html" xlink:title="&lt;TABLE&gt;" target="_top">
<polygon fill="#ffff99" stroke="none" points="166.818,-1279.5 166.818,-1299.5 261.818,-1299.5 261.818,-1279.5 166.818,-1279.5"/>
<polygon fill="none" stroke="black" points="166.818,-1279.5 166.818,-1299.5 261.818,-1299.5 261.818,-1279.5 166.818,-1279.5"/>
<text text-anchor="start" x="171.818" y="-1287.3" font-family="Helvetica,sans-Serif" font-size="9.00">ordinal_id</text>
</a>
</g>
<g id="a_node1_2"><a xlink:href="/dictionaries/mmcif_pdbx_modeling_extension_all.dic/Items/_ma_alignment.alignment_id.html" xlink:title="&lt;TABLE&gt;" target="_top">
<polygon fill="none" stroke="black" points="166.818,-1259.5 166.818,-1279.5 261.818,-1279.5 261.818,-1259.5 166.818,-1259.5"/>
<text text-anchor="start" x="171.818" y="-1267.3" font-family="Helvetica,sans-Serif" font-size="9.00">alignment_id</text>
</a>
</g>
<g id="a_node1_3"><a xlink:href="/dictionaries/mmcif_pdbx_modeling_extension_all.dic/Items/_ma_alignment.sequence.html" xlink:title="&lt;TABLE&gt;" target="_top">
<polygon fill="none" stroke="black" points="166.818,-1239.5 166.818,-1259.5 261.818,-1259.5 261.818,-1239.5 166.818,-1239.5"/>
<text text-anchor="start" x="171.818" y="-1247.3" font-family="Helvetica,sans-Serif" font-size="9.00">sequence</text>
</a>
</g>
<g id="a_node1_4"><a xlink:href="/dictionaries/mmcif_pdbx_modeling_extension_all.dic/Items/_ma_alignment.target_template_flag.html" xlink:title="&lt;TABLE&gt;" target="_top">
<polygon fill="none" stroke="black" points="166.818,-1219.5 166.818,-1239.5 261.818,-1239.5 261.818,-1219.5 166.818,-1219.5"/>
<text text-anchor="start" x="171.818" y="-1227.3" font-family="Helvetica,sans-Serif" font-size="9.00">target_template_flag</text>
</a>
</g>
</g>
<!-- _ma_alignment_details -->
<g id="node2" class="node"><title>_ma_alignment_details</title>
<g id="a_node2_5"><a xlink:href="/dictionaries/mmcif_pdbx_modeling_extension_all.dic/Categories/ma_alignment_details.html" xlink:title="&lt;TABLE&gt;" target="_top">
<polygon fill="#f0027f" stroke="none" points="166.818,-1154.5 166.818,-1175.5 309.818,-1175.5 309.818,-1154.5 166.818,-1154.5"/>
<polygon fill="none" stroke="black" points="166.818,-1154.5 166.818,-1175.5 309.818,-1175.5 309.818,-1154.5 166.818,-1154.5"/>
<text text-anchor="start" x="174.818" y="-1162.5" font-family="Helvetica,sans-Serif" font-size="10.00">MA_ALIGNMENT_DETAILS</text>
</a>
</g>
<g id="a_node2_6"><a xlink:href="/dictionaries/mmcif_pdbx_modeling_extension_all.dic/Items/_ma_alignment_details.ordinal_id.html" xlink:title="&lt;TABLE&gt;" target="_top">
<polygon fill="#ffff99" stroke="none" points="166.818,-1134.5 166.818,-1154.5 309.818,-1154.5 309.818,-1134.5 166.818,-1134.5"/>
<polygon fill="none" stroke="black" points="166.818,-1134.5 166.818,-1154.5 309.818,-1154.5 309.818,-1134.5 166.818,-1134.5"/>
<text text-anchor="start" x="171.818" y="-1142.3" font-family="Helvetica,sans-Serif" font-size="9.00">ordinal_id</text>
</a>
</g>
<g id="a_node2_7"><a xlink:href="/dictionaries/mmcif_pdbx_modeling_extension_all.dic/Items/_ma_alignment_details.alignment_id.html" xlink:title="&lt;TABLE&gt;" target="_top">
<polygon fill="none" stroke="black" points="166.818,-1114.5 166.818,-1134.5 309.818,-1134.5 309.818,-1114.5 166.818,-1114.5"/>
<text text-anchor="start" x="171.818" y="-1122.3" font-family="Helvetica,sans-Serif" font-size="9.00">alignment_id</text>
</a>
</g>
<g id="a_node2_8"><a xlink:href="/dictionaries/mmcif_pdbx_modeling_extension_all.dic/Items/_ma_alignment_details.data_id.html" xlink:title="&lt;TABLE&gt;" target="_top">
<polygon fill="none" stroke="black" points="166.818,-1094.5 166.818,-1114.5 309.818,-1114.5 309.818,-1094.5 166.818,-1094.5"/>
<text text-anchor="start" x="171.818" y="-1102.3" font-family="Helvetica,sans-Serif" font-size="9.00">data_id</text>
</a>
</g>
<g id="a_node2_9"><a xlink:href="/dictionaries/mmcif_pdbx_modeling_extension_all.dic/Items/_ma_alignment_details.software_id.html" xlink:title="&lt;TABLE&gt;" target="_top">
<polygon fill="none" stroke="black" points="166.818,-1074.5 166.818,-1094.5 309.818,-1094.5 309.818,-1074.5 166.818,-1074.5"/>
<text text-anchor="start" x="171.818" y="-1082.3" font-family="Helvetica,sans-Serif" font-size="9.00">software_id</text>
</a>
</g>
<g id="a_node2_10"><a xlink:href="/dictionaries/mmcif_pdbx_modeling_extension_all.dic/Items/_ma_alignment_details.target_id.html" xlink:title="&lt;TABLE&gt;" target="_top">
<polygon fill="none" stroke="black" points="166.818,-1054.5 166.818,-1074.5 309.818,-1074.5 309.818,-1054.5 166.818,-1054.5"/>
<text text-anchor="start" x="171.818" y="-1062.3" font-family="Helvetica,sans-Serif" font-size="9.00">target_id</text>
</a>
</g>
<g id="a_node2_11"><a xlink:href="/dictionaries/mmcif_pdbx_modeling_extension_all.dic/Items/_ma_alignment_details.template_id.html" xlink:title="&lt;TABLE&gt;" target="_top">
<polygon fill="none" stroke="black" points="166.818,-1034.5 166.818,-1054.5 309.818,-1054.5 309.818,-1034.5 166.818,-1034.5"/>
<text text-anchor="start" x="171.818" y="-1042.3" font-family="Helvetica,sans-Serif" font-size="9.00">template_id</text>
</a>
</g>
<g id="a_node2_12"><a xlink:href="/dictionaries/mmcif_pdbx_modeling_extension_all.dic/Items/_ma_alignment_details.alignment_length.html" xlink:title="&lt;TABLE&gt;" target="_top">
<polygon fill="none" stroke="black" points="166.818,-1014.5 166.818,-1034.5 309.818,-1034.5 309.818,-1014.5 166.818,-1014.5"/>
<text text-anchor="start" x="171.818" y="-1022.3" font-family="Helvetica,sans-Serif" font-size="9.00">alignment_length</text>
</a>
</g>
<g id="a_node2_13"><a xlink:href="/dictionaries/mmcif_pdbx_modeling_extension_all.dic/Items/_ma_alignment_details.alignment_type.html" xlink:title="&lt;TABLE&gt;" target="_top">
<polygon fill="none" stroke="black" points="166.818,-994.5 166.818,-1014.5 309.818,-1014.5 309.818,-994.5 166.818,-994.5"/>
<text text-anchor="start" x="171.818" y="-1002.3" font-family="Helvetica,sans-Serif" font-size="9.00">alignment_type</text>
</a>
</g>
<g id="a_node2_14"><a xlink:href="/dictionaries/mmcif_pdbx_modeling_extension_all.dic/Items/_ma_alignment_details.e_value.html" xlink:title="&lt;TABLE&gt;" target="_top">
<polygon fill="none" stroke="black" points="166.818,-974.5 166.818,-994.5 309.818,-994.5 309.818,-974.5 166.818,-974.5"/>
<text text-anchor="start" x="171.818" y="-982.3" font-family="Helvetica,sans-Serif" font-size="9.00">e_value</text>
</a>
</g>
<g id="a_node2_15"><a xlink:href="/dictionaries/mmcif_pdbx_modeling_extension_all.dic/Items/_ma_alignment_details.percent_sequence_identity.html" xlink:title="&lt;TABLE&gt;" target="_top">
<polygon fill="none" stroke="black" points="166.818,-954.5 166.818,-974.5 309.818,-974.5 309.818,-954.5 166.818,-954.5"/>
<text text-anchor="start" x="171.818" y="-962.3" font-family="Helvetica,sans-Serif" font-size="9.00">percent_sequence_identity</text>
</a>
</g>
<g id="a_node2_16"><a xlink:href="/dictionaries/mmcif_pdbx_modeling_extension_all.dic/Items/_ma_alignment_details.sequence_identity_denominator.html" xlink:title="&lt;TABLE&gt;" target="_top">
<polygon fill="none" stroke="black" points="166.818,-934.5 166.818,-954.5 309.818,-954.5 309.818,-934.5 166.818,-934.5"/>
<text text-anchor="start" x="171.818" y="-942.3" font-family="Helvetica,sans-Serif" font-size="9.00">sequence_identity_denominator</text>
</a>
</g>
</g>
<!-- _ma_alignment&#45;&gt;_ma_alignment_details -->
<g id="edge1" class="edge"><title>_ma_alignment:__alignment_id:w&#45;&gt;_ma_alignment_details:__alignment_id:w</title>
<path fill="none" stroke="black" d="M165.818,-1269.5C104.898,-1269.5 101.567,-1139.93 155.824,-1125.75"/>
<polygon fill="black" stroke="black" points="156.332,-1129.22 165.818,-1124.5 155.461,-1122.27 156.332,-1129.22"/>
</g>
<!-- _ma_data -->
<g id="node3" class="node"><title>_ma_data</title>
<g id="a_node3_17"><a xlink:href="/dictionaries/mmcif_pdbx_modeling_extension_all.dic/Categories/ma_data.html" xlink:title="&lt;TABLE&gt;" target="_top">
<polygon fill="#99c49b" stroke="none" points="147.818,-159.5 147.818,-180.5 230.818,-180.5 230.818,-159.5 147.818,-159.5"/>
<polygon fill="none" stroke="black" points="147.818,-159.5 147.818,-180.5 230.818,-180.5 230.818,-159.5 147.818,-159.5"/>
<text text-anchor="start" x="165.318" y="-167.5" font-family="Helvetica,sans-Serif" font-size="10.00">MA_DATA</text>
</a>
</g>
<g id="a_node3_18"><a xlink:href="/dictionaries/mmcif_pdbx_modeling_extension_all.dic/Items/_ma_data.id.html" xlink:title="&lt;TABLE&gt;" target="_top">
<polygon fill="#ffff99" stroke="none" points="147.818,-139.5 147.818,-159.5 230.818,-159.5 230.818,-139.5 147.818,-139.5"/>
<polygon fill="none" stroke="black" points="147.818,-139.5 147.818,-159.5 230.818,-159.5 230.818,-139.5 147.818,-139.5"/>
<text text-anchor="start" x="152.818" y="-147.3" font-family="Helvetica,sans-Serif" font-size="9.00">id</text>
</a>
</g>
<g id="a_node3_19"><a xlink:href="/dictionaries/mmcif_pdbx_modeling_extension_all.dic/Items/_ma_data.content_sub_type.html" xlink:title="&lt;TABLE&gt;" target="_top">
<polygon fill="none" stroke="black" points="147.818,-119.5 147.818,-139.5 230.818,-139.5 230.818,-119.5 147.818,-119.5"/>
<text text-anchor="start" x="152.818" y="-127.3" font-family="Helvetica,sans-Serif" font-size="9.00">content_sub_type</text>
</a>
</g>
<g id="a_node3_20"><a xlink:href="/dictionaries/mmcif_pdbx_modeling_extension_all.dic/Items/_ma_data.content_type.html" xlink:title="&lt;TABLE&gt;" target="_top">
<polygon fill="none" stroke="black" points="147.818,-99.5 147.818,-119.5 230.818,-119.5 230.818,-99.5 147.818,-99.5"/>
<text text-anchor="start" x="152.818" y="-107.3" font-family="Helvetica,sans-Serif" font-size="9.00">content_type</text>
</a>
</g>
<g id="a_node3_21"><a xlink:href="/dictionaries/mmcif_pdbx_modeling_extension_all.dic/Items/_ma_data.name.html" xlink:title="&lt;TABLE&gt;" target="_top">
<polygon fill="none" stroke="black" points="147.818,-79.5 147.818,-99.5 230.818,-99.5 230.818,-79.5 147.818,-79.5"/>
<text text-anchor="start" x="152.818" y="-87.3" font-family="Helvetica,sans-Serif" font-size="9.00">name</text>
</a>
</g>
</g>
<!-- _ma_alignment_details&#45;&gt;_ma_data -->
<g id="edge2" class="edge"><title>_ma_alignment_details:__data_id:w&#45;&gt;_ma_data:__id:w</title>
<path fill="none" stroke="black" d="M165.818,-1104.5C63.1065,-1104.5 42.0014,-210.061 136.946,-152.412"/>
<polygon fill="black" stroke="black" points="138.217,-155.686 146.818,-149.5 136.237,-148.972 138.217,-155.686"/>
</g>
<!-- _ma_target_details -->
<g id="node4" class="node"><title>_ma_target_details</title>
<g id="a_node4_22"><a xlink:href="/dictionaries/mmcif_pdbx_modeling_extension_all.dic/Categories/ma_target_details.html" xlink:title="&lt;TABLE&gt;" target="_top">
<polygon fill="#99c49b" stroke="none" points="147.818,-424.5 147.818,-445.5 266.818,-445.5 266.818,-424.5 147.818,-424.5"/>
<polygon fill="none" stroke="black" points="147.818,-424.5 147.818,-445.5 266.818,-445.5 266.818,-424.5 147.818,-424.5"/>
<text text-anchor="start" x="152.818" y="-432.5" font-family="Helvetica,sans-Serif" font-size="10.00">MA_TARGET_DETAILS</text>
</a>
</g>
<g id="a_node4_23"><a xlink:href="/dictionaries/mmcif_pdbx_modeling_extension_all.dic/Items/_ma_target_details.id.html" xlink:title="&lt;TABLE&gt;" target="_top">
<polygon fill="#ffff99" stroke="none" points="147.818,-404.5 147.818,-424.5 266.818,-424.5 266.818,-404.5 147.818,-404.5"/>
<polygon fill="none" stroke="black" points="147.818,-404.5 147.818,-424.5 266.818,-424.5 266.818,-404.5 147.818,-404.5"/>
<text text-anchor="start" x="152.818" y="-412.3" font-family="Helvetica,sans-Serif" font-size="9.00">id</text>
</a>
</g>
<g id="a_node4_24"><a xlink:href="/dictionaries/mmcif_pdbx_modeling_extension_all.dic/Items/_ma_target_details.data_id.html" xlink:title="&lt;TABLE&gt;" target="_top">
<polygon fill="none" stroke="black" points="147.818,-384.5 147.818,-404.5 266.818,-404.5 266.818,-384.5 147.818,-384.5"/>
<text text-anchor="start" x="152.818" y="-392.3" font-family="Helvetica,sans-Serif" font-size="9.00">data_id</text>
</a>
</g>
<g id="a_node4_25"><a xlink:href="/dictionaries/mmcif_pdbx_modeling_extension_all.dic/Items/_ma_target_details.db_accession.html" xlink:title="&lt;TABLE&gt;" target="_top">
<polygon fill="none" stroke="black" points="147.818,-364.5 147.818,-384.5 266.818,-384.5 266.818,-364.5 147.818,-364.5"/>
<text text-anchor="start" x="152.818" y="-372.3" font-family="Helvetica,sans-Serif" font-size="9.00">db_accession</text>
</a>
</g>
<g id="a_node4_26"><a xlink:href="/dictionaries/mmcif_pdbx_modeling_extension_all.dic/Items/_ma_target_details.db_code.html" xlink:title="&lt;TABLE&gt;" target="_top">
<polygon fill="none" stroke="black" points="147.818,-344.5 147.818,-364.5 266.818,-364.5 266.818,-344.5 147.818,-344.5"/>
<text text-anchor="start" x="152.818" y="-352.3" font-family="Helvetica,sans-Serif" font-size="9.00">db_code</text>
</a>
</g>
<g id="a_node4_27"><a xlink:href="/dictionaries/mmcif_pdbx_modeling_extension_all.dic/Items/_ma_target_details.db_isoform.html" xlink:title="&lt;TABLE&gt;" target="_top">
<polygon fill="none" stroke="black" points="147.818,-324.5 147.818,-344.5 266.818,-344.5 266.818,-324.5 147.818,-324.5"/>
<text text-anchor="start" x="152.818" y="-332.3" font-family="Helvetica,sans-Serif" font-size="9.00">db_isoform</text>
</a>
</g>
<g id="a_node4_28"><a xlink:href="/dictionaries/mmcif_pdbx_modeling_extension_all.dic/Items/_ma_target_details.db_name.html" xlink:title="&lt;TABLE&gt;" target="_top">
<polygon fill="none" stroke="black" points="147.818,-304.5 147.818,-324.5 266.818,-324.5 266.818,-304.5 147.818,-304.5"/>
<text text-anchor="start" x="152.818" y="-312.3" font-family="Helvetica,sans-Serif" font-size="9.00">db_name</text>
</a>
</g>
<g id="a_node4_29"><a xlink:href="/dictionaries/mmcif_pdbx_modeling_extension_all.dic/Items/_ma_target_details.entity_id.html" xlink:title="&lt;TABLE&gt;" target="_top">
<polygon fill="none" stroke="black" points="147.818,-284.5 147.818,-304.5 266.818,-304.5 266.818,-284.5 147.818,-284.5"/>
<text text-anchor="start" x="152.818" y="-292.3" font-family="Helvetica,sans-Serif" font-size="9.00">entity_id</text>
</a>
</g>
<g id="a_node4_30"><a xlink:href="/dictionaries/mmcif_pdbx_modeling_extension_all.dic/Items/_ma_target_details.seq_db_align_begin.html" xlink:title="&lt;TABLE&gt;" target="_top">
<polygon fill="none" stroke="black" points="147.818,-264.5 147.818,-284.5 266.818,-284.5 266.818,-264.5 147.818,-264.5"/>
<text text-anchor="start" x="152.818" y="-272.3" font-family="Helvetica,sans-Serif" font-size="9.00">seq_db_align_begin</text>
</a>
</g>
<g id="a_node4_31"><a xlink:href="/dictionaries/mmcif_pdbx_modeling_extension_all.dic/Items/_ma_target_details.seq_db_align_end.html" xlink:title="&lt;TABLE&gt;" target="_top">
<polygon fill="none" stroke="black" points="147.818,-244.5 147.818,-264.5 266.818,-264.5 266.818,-244.5 147.818,-244.5"/>
<text text-anchor="start" x="152.818" y="-252.3" font-family="Helvetica,sans-Serif" font-size="9.00">seq_db_align_end</text>
</a>
</g>
<g id="a_node4_32"><a xlink:href="/dictionaries/mmcif_pdbx_modeling_extension_all.dic/Items/_ma_target_details.seq_db_one_letter_code.html" xlink:title="&lt;TABLE&gt;" target="_top">
<polygon fill="none" stroke="black" points="147.818,-224.5 147.818,-244.5 266.818,-244.5 266.818,-224.5 147.818,-224.5"/>
<text text-anchor="start" x="152.818" y="-232.3" font-family="Helvetica,sans-Serif" font-size="9.00">seq_db_one_letter_code</text>
</a>
</g>
</g>
<!-- _ma_alignment_details&#45;&gt;_ma_target_details -->
<g id="edge4" class="edge"><title>_ma_alignment_details:__target_id:w&#45;&gt;_ma_target_details:__id:w</title>
<path fill="none" stroke="black" d="M165.818,-1064.5C132.091,-1064.5 113.291,-497.962 140.339,-422.718"/>
<polygon fill="black" stroke="black" points="143.376,-424.52 146.818,-414.5 137.879,-420.186 143.376,-424.52"/>
</g>
<!-- _ma_template_details -->
<g id="node5" class="node"><title>_ma_template_details</title>
<g id="a_node5_33"><a xlink:href="/dictionaries/mmcif_pdbx_modeling_extension_all.dic/Categories/ma_template_details.html" xlink:title="&lt;TABLE&gt;" target="_top">
<polygon fill="#99c49b" stroke="none" points="185.818,-799.5 185.818,-820.5 324.818,-820.5 324.818,-799.5 185.818,-799.5"/>
<polygon fill="none" stroke="black" points="185.818,-799.5 185.818,-820.5 324.818,-820.5 324.818,-799.5 185.818,-799.5"/>
<text text-anchor="start" x="194.818" y="-807.5" font-family="Helvetica,sans-Serif" font-size="10.00">MA_TEMPLATE_DETAILS</text>
</a>
</g>
<g id="a_node5_34"><a xlink:href="/dictionaries/mmcif_pdbx_modeling_extension_all.dic/Items/_ma_template_details.id.html" xlink:title="&lt;TABLE&gt;" target="_top">
<polygon fill="#ffff99" stroke="none" points="185.818,-779.5 185.818,-799.5 324.818,-799.5 324.818,-779.5 185.818,-779.5"/>
<polygon fill="none" stroke="black" points="185.818,-779.5 185.818,-799.5 324.818,-799.5 324.818,-779.5 185.818,-779.5"/>
<text text-anchor="start" x="190.818" y="-787.3" font-family="Helvetica,sans-Serif" font-size="9.00">id</text>
</a>
</g>
<g id="a_node5_35"><a xlink:href="/dictionaries/mmcif_pdbx_modeling_extension_all.dic/Items/_ma_template_details.data_id.html" xlink:title="&lt;TABLE&gt;" target="_top">
<polygon fill="none" stroke="black" points="185.818,-759.5 185.818,-779.5 324.818,-779.5 324.818,-759.5 185.818,-759.5"/>
<text text-anchor="start" x="190.818" y="-767.3" font-family="Helvetica,sans-Serif" font-size="9.00">data_id</text>
</a>
</g>
<g id="a_node5_36"><a xlink:href="/dictionaries/mmcif_pdbx_modeling_extension_all.dic/Items/_ma_template_details.group_id.html" xlink:title="&lt;TABLE&gt;" target="_top">
<polygon fill="none" stroke="black" points="185.818,-739.5 185.818,-759.5 324.818,-759.5 324.818,-739.5 185.818,-739.5"/>
<text text-anchor="start" x="190.818" y="-747.3" font-family="Helvetica,sans-Serif" font-size="9.00">group_id</text>
</a>
</g>
<g id="a_node5_37"><a xlink:href="/dictionaries/mmcif_pdbx_modeling_extension_all.dic/Items/_ma_template_details.pdb_code.html" xlink:title="&lt;TABLE&gt;" target="_top">
<polygon fill="none" stroke="black" points="185.818,-719.5 185.818,-739.5 324.818,-739.5 324.818,-719.5 185.818,-719.5"/>
<text text-anchor="start" x="190.818" y="-727.3" font-family="Helvetica,sans-Serif" font-size="9.00">pdb_code</text>
</a>
</g>
<g id="a_node5_38"><a xlink:href="/dictionaries/mmcif_pdbx_modeling_extension_all.dic/Items/_ma_template_details.pdb_entity_id.html" xlink:title="&lt;TABLE&gt;" target="_top">
<polygon fill="none" stroke="black" points="185.818,-699.5 185.818,-719.5 324.818,-719.5 324.818,-699.5 185.818,-699.5"/>
<text text-anchor="start" x="190.818" y="-707.3" font-family="Helvetica,sans-Serif" font-size="9.00">pdb_entity_id</text>
</a>
</g>
<g id="a_node5_39"><a xlink:href="/dictionaries/mmcif_pdbx_modeling_extension_all.dic/Items/_ma_template_details.pdb_label_asym_id.html" xlink:title="&lt;TABLE&gt;" target="_top">
<polygon fill="none" stroke="black" points="185.818,-679.5 185.818,-699.5 324.818,-699.5 324.818,-679.5 185.818,-679.5"/>
<text text-anchor="start" x="190.818" y="-687.3" font-family="Helvetica,sans-Serif" font-size="9.00">pdb_label_asym_id</text>
</a>
</g>
<g id="a_node5_40"><a xlink:href="/dictionaries/mmcif_pdbx_modeling_extension_all.dic/Items/_ma_template_details.pdb_model_num.html" xlink:title="&lt;TABLE&gt;" target="_top">
<polygon fill="none" stroke="black" points="185.818,-659.5 185.818,-679.5 324.818,-679.5 324.818,-659.5 185.818,-659.5"/>
<text text-anchor="start" x="190.818" y="-667.3" font-family="Helvetica,sans-Serif" font-size="9.00">pdb_model_num</text>
</a>
</g>
<g id="a_node5_41"><a xlink:href="/dictionaries/mmcif_pdbx_modeling_extension_all.dic/Items/_ma_template_details.pdb_seq_id_begin.html" xlink:title="&lt;TABLE&gt;" target="_top">
<polygon fill="none" stroke="black" points="185.818,-639.5 185.818,-659.5 324.818,-659.5 324.818,-639.5 185.818,-639.5"/>
<text text-anchor="start" x="190.818" y="-647.3" font-family="Helvetica,sans-Serif" font-size="9.00">pdb_seq_id_begin</text>
</a>
</g>
<g id="a_node5_42"><a xlink:href="/dictionaries/mmcif_pdbx_modeling_extension_all.dic/Items/_ma_template_details.pdb_seq_id_end.html" xlink:title="&lt;TABLE&gt;" target="_top">
<polygon fill="none" stroke="black" points="185.818,-619.5 185.818,-639.5 324.818,-639.5 324.818,-619.5 185.818,-619.5"/>
<text text-anchor="start" x="190.818" y="-627.3" font-family="Helvetica,sans-Serif" font-size="9.00">pdb_seq_id_end</text>
</a>
</g>
<g id="a_node5_43"><a xlink:href="/dictionaries/mmcif_pdbx_modeling_extension_all.dic/Items/_ma_template_details.pdb_seq_one_letter_code.html" xlink:title="&lt;TABLE&gt;" target="_top">
<polygon fill="none" stroke="black" points="185.818,-599.5 185.818,-619.5 324.818,-619.5 324.818,-599.5 185.818,-599.5"/>
<text text-anchor="start" x="190.818" y="-607.3" font-family="Helvetica,sans-Serif" font-size="9.00">pdb_seq_one_letter_code</text>
</a>
</g>
<g id="a_node5_44"><a xlink:href="/dictionaries/mmcif_pdbx_modeling_extension_all.dic/Items/_ma_template_details.pdb_seq_one_letter_code_can.html" xlink:title="&lt;TABLE&gt;" target="_top">
<polygon fill="none" stroke="black" points="185.818,-579.5 185.818,-599.5 324.818,-599.5 324.818,-579.5 185.818,-579.5"/>
<text text-anchor="start" x="190.818" y="-587.3" font-family="Helvetica,sans-Serif" font-size="9.00">pdb_seq_one_letter_code_can</text>
</a>
</g>
<g id="a_node5_45"><a xlink:href="/dictionaries/mmcif_pdbx_modeling_extension_all.dic/Items/_ma_template_details.target_entity_id.html" xlink:title="&lt;TABLE&gt;" target="_top">
<polygon fill="none" stroke="black" points="185.818,-559.5 185.818,-579.5 324.818,-579.5 324.818,-559.5 185.818,-559.5"/>
<text text-anchor="start" x="190.818" y="-567.3" font-family="Helvetica,sans-Serif" font-size="9.00">target_entity_id</text>
</a>
</g>
</g>
<!-- _ma_alignment_details&#45;&gt;_ma_template_details -->
<g id="edge5" class="edge"><title>_ma_alignment_details:__template_id:w&#45;&gt;_ma_template_details:__id:w</title>
<path fill="none" stroke="black" d="M165.818,-1044.5C153.194,-1044.5 166.794,-843.117 179.948,-798.278"/>
<polygon fill="black" stroke="black" points="183.027,-799.942 184.818,-789.5 176.906,-796.546 183.027,-799.942"/>
</g>
<!-- _software -->
<g id="node6" class="node"><title>_software</title>
<g id="a_node6_46"><a xlink:href="/dictionaries/mmcif_pdbx_modeling_extension_all.dic/Categories/software.html" xlink:title="&lt;TABLE&gt;" target="_top">
<polygon fill="#99c49b" stroke="none" points="358.818,-869.5 358.818,-890.5 457.818,-890.5 457.818,-869.5 358.818,-869.5"/>
<polygon fill="none" stroke="black" points="358.818,-869.5 358.818,-890.5 457.818,-890.5 457.818,-869.5 358.818,-869.5"/>
<text text-anchor="start" x="379.318" y="-877.5" font-family="Helvetica,sans-Serif" font-size="10.00">SOFTWARE</text>
</a>
</g>
<g id="a_node6_47"><a xlink:href="/dictionaries/mmcif_pdbx_modeling_extension_all.dic/Items/_software.pdbx_ordinal.html" xlink:title="&lt;TABLE&gt;" target="_top">
<polygon fill="#ffff99" stroke="none" points="358.818,-849.5 358.818,-869.5 457.818,-869.5 457.818,-849.5 358.818,-849.5"/>
<polygon fill="none" stroke="black" points="358.818,-849.5 358.818,-869.5 457.818,-869.5 457.818,-849.5 358.818,-849.5"/>
<text text-anchor="start" x="363.818" y="-857.3" font-family="Helvetica,sans-Serif" font-size="9.00">pdbx_ordinal</text>
</a>
</g>
<g id="a_node6_48"><a xlink:href="/dictionaries/mmcif_pdbx_modeling_extension_all.dic/Items/_software.citation_id.html" xlink:title="&lt;TABLE&gt;" target="_top">
<polygon fill="none" stroke="black" points="358.818,-829.5 358.818,-849.5 457.818,-849.5 457.818,-829.5 358.818,-829.5"/>
<text text-anchor="start" x="363.818" y="-837.3" font-family="Helvetica,sans-Serif" font-size="9.00">citation_id</text>
</a>
</g>
<g id="a_node6_49"><a xlink:href="/dictionaries/mmcif_pdbx_modeling_extension_all.dic/Items/_software.classification.html" xlink:title="&lt;TABLE&gt;" target="_top">
<polygon fill="none" stroke="black" points="358.818,-809.5 358.818,-829.5 457.818,-829.5 457.818,-809.5 358.818,-809.5"/>
<text text-anchor="start" x="363.818" y="-817.3" font-family="Helvetica,sans-Serif" font-size="9.00">classification</text>
</a>
</g>
<g id="a_node6_50"><a xlink:href="/dictionaries/mmcif_pdbx_modeling_extension_all.dic/Items/_software.compiler_name.html" xlink:title="&lt;TABLE&gt;" target="_top">
<polygon fill="none" stroke="black" points="358.818,-789.5 358.818,-809.5 457.818,-809.5 457.818,-789.5 358.818,-789.5"/>
<text text-anchor="start" x="363.818" y="-797.3" font-family="Helvetica,sans-Serif" font-size="9.00">compiler_name</text>
</a>
</g>
<g id="a_node6_51"><a xlink:href="/dictionaries/mmcif_pdbx_modeling_extension_all.dic/Items/_software.compiler_version.html" xlink:title="&lt;TABLE&gt;" target="_top">
<polygon fill="none" stroke="black" points="358.818,-769.5 358.818,-789.5 457.818,-789.5 457.818,-769.5 358.818,-769.5"/>
<text text-anchor="start" x="363.818" y="-777.3" font-family="Helvetica,sans-Serif" font-size="9.00">compiler_version</text>
</a>
</g>
<g id="a_node6_52"><a xlink:href="/dictionaries/mmcif_pdbx_modeling_extension_all.dic/Items/_software.contact_author.html" xlink:title="&lt;TABLE&gt;" target="_top">
<polygon fill="none" stroke="black" points="358.818,-749.5 358.818,-769.5 457.818,-769.5 457.818,-749.5 358.818,-749.5"/>
<text text-anchor="start" x="363.818" y="-757.3" font-family="Helvetica,sans-Serif" font-size="9.00">contact_author</text>
</a>
</g>
<g id="a_node6_53"><a xlink:href="/dictionaries/mmcif_pdbx_modeling_extension_all.dic/Items/_software.contact_author_email.html" xlink:title="&lt;TABLE&gt;" target="_top">
<polygon fill="none" stroke="black" points="358.818,-729.5 358.818,-749.5 457.818,-749.5 457.818,-729.5 358.818,-729.5"/>
<text text-anchor="start" x="363.818" y="-737.3" font-family="Helvetica,sans-Serif" font-size="9.00">contact_author_email</text>
</a>
</g>
<g id="a_node6_54"><a xlink:href="/dictionaries/mmcif_pdbx_modeling_extension_all.dic/Items/_software.date.html" xlink:title="&lt;TABLE&gt;" target="_top">
<polygon fill="none" stroke="black" points="358.818,-709.5 358.818,-729.5 457.818,-729.5 457.818,-709.5 358.818,-709.5"/>
<text text-anchor="start" x="363.818" y="-717.3" font-family="Helvetica,sans-Serif" font-size="9.00">date</text>
</a>
</g>
<g id="a_node6_55"><a xlink:href="/dictionaries/mmcif_pdbx_modeling_extension_all.dic/Items/_software.dependencies.html" xlink:title="&lt;TABLE&gt;" target="_top">
<polygon fill="none" stroke="black" points="358.818,-689.5 358.818,-709.5 457.818,-709.5 457.818,-689.5 358.818,-689.5"/>
<text text-anchor="start" x="363.818" y="-697.3" font-family="Helvetica,sans-Serif" font-size="9.00">dependencies</text>
</a>
</g>
<g id="a_node6_56"><a xlink:href="/dictionaries/mmcif_pdbx_modeling_extension_all.dic/Items/_software.description.html" xlink:title="&lt;TABLE&gt;" target="_top">
<polygon fill="none" stroke="black" points="358.818,-669.5 358.818,-689.5 457.818,-689.5 457.818,-669.5 358.818,-669.5"/>
<text text-anchor="start" x="363.818" y="-677.3" font-family="Helvetica,sans-Serif" font-size="9.00">description</text>
</a>
</g>
<g id="a_node6_57"><a xlink:href="/dictionaries/mmcif_pdbx_modeling_extension_all.dic/Items/_software.hardware.html" xlink:title="&lt;TABLE&gt;" target="_top">
<polygon fill="none" stroke="black" points="358.818,-649.5 358.818,-669.5 457.818,-669.5 457.818,-649.5 358.818,-649.5"/>
<text text-anchor="start" x="363.818" y="-657.3" font-family="Helvetica,sans-Serif" font-size="9.00">hardware</text>
</a>
</g>
<g id="a_node6_58"><a xlink:href="/dictionaries/mmcif_pdbx_modeling_extension_all.dic/Items/_software.language.html" xlink:title="&lt;TABLE&gt;" target="_top">
<polygon fill="none" stroke="black" points="358.818,-629.5 358.818,-649.5 457.818,-649.5 457.818,-629.5 358.818,-629.5"/>
<text text-anchor="start" x="363.818" y="-637.3" font-family="Helvetica,sans-Serif" font-size="9.00">language</text>
</a>
</g>
<g id="a_node6_59"><a xlink:href="/dictionaries/mmcif_pdbx_modeling_extension_all.dic/Items/_software.location.html" xlink:title="&lt;TABLE&gt;" target="_top">
<polygon fill="none" stroke="black" points="358.818,-609.5 358.818,-629.5 457.818,-629.5 457.818,-609.5 358.818,-609.5"/>
<text text-anchor="start" x="363.818" y="-617.3" font-family="Helvetica,sans-Serif" font-size="9.00">location</text>
</a>
</g>
<g id="a_node6_60"><a xlink:href="/dictionaries/mmcif_pdbx_modeling_extension_all.dic/Items/_software.mods.html" xlink:title="&lt;TABLE&gt;" target="_top">
<polygon fill="none" stroke="black" points="358.818,-589.5 358.818,-609.5 457.818,-609.5 457.818,-589.5 358.818,-589.5"/>
<text text-anchor="start" x="363.818" y="-597.3" font-family="Helvetica,sans-Serif" font-size="9.00">mods</text>
</a>
</g>
<g id="a_node6_61"><a xlink:href="/dictionaries/mmcif_pdbx_modeling_extension_all.dic/Items/_software.name.html" xlink:title="&lt;TABLE&gt;" target="_top">
<polygon fill="none" stroke="black" points="358.818,-569.5 358.818,-589.5 457.818,-589.5 457.818,-569.5 358.818,-569.5"/>
<text text-anchor="start" x="363.818" y="-577.3" font-family="Helvetica,sans-Serif" font-size="9.00">name</text>
</a>
</g>
<g id="a_node6_62"><a xlink:href="/dictionaries/mmcif_pdbx_modeling_extension_all.dic/Items/_software.os.html" xlink:title="&lt;TABLE&gt;" target="_top">
<polygon fill="none" stroke="black" points="358.818,-549.5 358.818,-569.5 457.818,-569.5 457.818,-549.5 358.818,-549.5"/>
<text text-anchor="start" x="363.818" y="-557.3" font-family="Helvetica,sans-Serif" font-size="9.00">os</text>
</a>
</g>
<g id="a_node6_63"><a xlink:href="/dictionaries/mmcif_pdbx_modeling_extension_all.dic/Items/_software.os_version.html" xlink:title="&lt;TABLE&gt;" target="_top">
<polygon fill="none" stroke="black" points="358.818,-529.5 358.818,-549.5 457.818,-549.5 457.818,-529.5 358.818,-529.5"/>
<text text-anchor="start" x="363.818" y="-537.3" font-family="Helvetica,sans-Serif" font-size="9.00">os_version</text>
</a>
</g>
<g id="a_node6_64"><a xlink:href="/dictionaries/mmcif_pdbx_modeling_extension_all.dic/Items/_software.type.html" xlink:title="&lt;TABLE&gt;" target="_top">
<polygon fill="none" stroke="black" points="358.818,-509.5 358.818,-529.5 457.818,-529.5 457.818,-509.5 358.818,-509.5"/>
<text text-anchor="start" x="363.818" y="-517.3" font-family="Helvetica,sans-Serif" font-size="9.00">type</text>
</a>
</g>
<g id="a_node6_65"><a xlink:href="/dictionaries/mmcif_pdbx_modeling_extension_all.dic/Items/_software.version.html" xlink:title="&lt;TABLE&gt;" target="_top">
<polygon fill="none" stroke="black" points="358.818,-489.5 358.818,-509.5 457.818,-509.5 457.818,-489.5 358.818,-489.5"/>
<text text-anchor="start" x="363.818" y="-497.3" font-family="Helvetica,sans-Serif" font-size="9.00">version</text>
</a>
</g>
</g>
<!-- _ma_alignment_details&#45;&gt;_software -->
<g id="edge3" class="edge"><title>_ma_alignment_details:__software_id:w&#45;&gt;_software:__pdbx_ordinal:w</title>
<path fill="none" stroke="black" d="M165.818,-1084.5C97.5947,-1084.5 123.538,-983.738 166.818,-931 217.193,-869.617 279.831,-944.628 341.818,-895 351.317,-887.395 346.813,-872.934 349.317,-865.018"/>
<polygon fill="black" stroke="black" points="351.336,-867.88 357.818,-859.5 347.525,-862.008 351.336,-867.88"/>
</g>
<!-- _ma_target_details&#45;&gt;_ma_data -->
<g id="edge7" class="edge"><title>_ma_target_details:__data_id:w&#45;&gt;_ma_data:__id:w</title>
<path fill="none" stroke="black" d="M146.818,-394.5C122.308,-394.5 119.866,-195.878 139.494,-156.308"/>
<polygon fill="black" stroke="black" points="141.877,-158.872 146.818,-149.5 137.111,-153.745 141.877,-158.872"/>
</g>
<!-- _ma_template_details&#45;&gt;_ma_data -->
<g id="edge6" class="edge"><title>_ma_template_details:__data_id:w&#45;&gt;_ma_data:__id:w</title>
<path fill="none" stroke="black" d="M184.818,-769.5C137.373,-769.5 168.421,-600.14 185.818,-556 209.345,-496.309 260.432,-509.746 283.818,-450 320.917,-355.224 345.899,-301.652 283.818,-221 245.68,-171.452 186.651,-234.006 147.818,-185 140.926,-176.302 135.428,-162.285 138.258,-154.729"/>
<polygon fill="black" stroke="black" points="140.109,-157.7 146.818,-149.5 136.46,-151.726 140.109,-157.7"/>
</g>
<!-- _ma_template_details&#45;&gt;_ma_target_details -->
<g id="edge8" class="edge"><title>_ma_template_details:__target_entity_id:w&#45;&gt;_ma_target_details:__entity_id:w</title>
<path fill="none" stroke="black" d="M184.818,-569.5C146.441,-569.5 175.116,-522.354 162.818,-486 157.264,-469.581 151.272,-466.986 147.818,-450 141.686,-419.841 118.273,-320.058 137.637,-298.591"/>
<polygon fill="black" stroke="black" points="139.109,-301.767 146.818,-294.5 136.26,-295.374 139.109,-301.767"/>
</g>
</g>
</svg>
