<?xml version="1.0" encoding="UTF-8" standalone="no"?>
<!DOCTYPE svg PUBLIC "-//W3C//DTD SVG 1.1//EN"
 "http://www.w3.org/Graphics/SVG/1.1/DTD/svg11.dtd">
<!-- Generated by graphviz version 2.38.0 (20140413.2041)
 -->
<!-- Title: ma_alignment_details Pages: 1 -->
<svg width="549pt" height="1008pt"
 viewBox="0.00 0.00 549.00 1008.00" xmlns="http://www.w3.org/2000/svg" xmlns:xlink="http://www.w3.org/1999/xlink">
<g id="graph0" class="graph" transform="scale(1 1) rotate(0) translate(4 1004)">
<title>ma_alignment_details</title>
<polygon fill="white" stroke="none" points="-4,4 -4,-1004 545,-1004 545,4 -4,4"/>
<text text-anchor="start" x="267.5" y="-58.6" font-family="Helvetica,sans-Serif" font-size="18.00"> </text>
<text text-anchor="start" x="267.5" y="-40.6" font-family="Helvetica,sans-Serif" font-size="18.00"> </text>
<text text-anchor="start" x="8" y="-22.6" font-family="Helvetica,sans-Serif" font-size="18.00"> Category Relationship Diagram for </text>
<text text-anchor="start" x="291" y="-22.6" font-family="Helvetica,sans-Serif" font-weight="bold" font-size="18.00">MA_ALIGNMENT_DETAILS</text>
<text text-anchor="start" x="523" y="-22.6" font-family="Helvetica,sans-Serif" font-size="18.00"> </text>
<text text-anchor="start" x="529" y="-22.6" font-family="Helvetica,sans-Serif" font-size="14.00"> </text>
<text text-anchor="start" x="136.5" y="-7.8" font-family="Helvetica,sans-Serif" font-size="14.00"> &#160;in dictionary mmcif_pdbx.dic version 5.280 </text>
<!-- _ma_alignment -->
<g id="node1" class="node"><title>_ma_alignment</title>
<g id="a_node1_0"><a xlink:href="/dictionaries/mmcif_modeling_v10.unix_1.04.dic/Categories/ma_alignment.html" xlink:title="&lt;TABLE&gt;" target="_top">
<polygon fill="#99c49b" stroke="none" points="242.321,-974.5 242.321,-995.5 337.321,-995.5 337.321,-974.5 242.321,-974.5"/>
<polygon fill="none" stroke="black" points="242.321,-974.5 242.321,-995.5 337.321,-995.5 337.321,-974.5 242.321,-974.5"/>
<text text-anchor="start" x="250.321" y="-982.5" font-family="Helvetica,sans-Serif" font-size="10.00">MA_ALIGNMENT</text>
</a>
</g>
<g id="a_node1_1"><a xlink:href="/dictionaries/mmcif_modeling_v10.unix_1.04.dic/Items/_ma_alignment.ordinal_id.html" xlink:title="&lt;TABLE&gt;" target="_top">
<polygon fill="#ffff99" stroke="none" points="242.321,-954.5 242.321,-974.5 337.321,-974.5 337.321,-954.5 242.321,-954.5"/>
<polygon fill="none" stroke="black" points="242.321,-954.5 242.321,-974.5 337.321,-974.5 337.321,-954.5 242.321,-954.5"/>
<text text-anchor="start" x="247.321" y="-962.3" font-family="Helvetica,sans-Serif" font-size="9.00">ordinal_id</text>
</a>
</g>
<g id="a_node1_2"><a xlink:href="/dictionaries/mmcif_modeling_v10.unix_1.04.dic/Items/_ma_alignment.alignment_id.html" xlink:title="&lt;TABLE&gt;" target="_top">
<polygon fill="none" stroke="black" points="242.321,-934.5 242.321,-954.5 337.321,-954.5 337.321,-934.5 242.321,-934.5"/>
<text text-anchor="start" x="247.321" y="-942.3" font-family="Helvetica,sans-Serif" font-size="9.00">alignment_id</text>
</a>
</g>
<g id="a_node1_3"><a xlink:href="/dictionaries/mmcif_modeling_v10.unix_1.04.dic/Items/_ma_alignment.sequence.html" xlink:title="&lt;TABLE&gt;" target="_top">
<polygon fill="none" stroke="black" points="242.321,-914.5 242.321,-934.5 337.321,-934.5 337.321,-914.5 242.321,-914.5"/>
<text text-anchor="start" x="247.321" y="-922.3" font-family="Helvetica,sans-Serif" font-size="9.00">sequence</text>
</a>
</g>
<g id="a_node1_4"><a xlink:href="/dictionaries/mmcif_modeling_v10.unix_1.04.dic/Items/_ma_alignment.target_template_flag.html" xlink:title="&lt;TABLE&gt;" target="_top">
<polygon fill="none" stroke="black" points="242.321,-894.5 242.321,-914.5 337.321,-914.5 337.321,-894.5 242.321,-894.5"/>
<text text-anchor="start" x="247.321" y="-902.3" font-family="Helvetica,sans-Serif" font-size="9.00">target_template_flag</text>
</a>
</g>
</g>
<!-- _ma_alignment_details -->
<g id="node2" class="node"><title>_ma_alignment_details</title>
<g id="a_node2_5"><a xlink:href="/dictionaries/mmcif_modeling_v10.unix_1.04.dic/Categories/ma_alignment_details.html" xlink:title="&lt;TABLE&gt;" target="_top">
<polygon fill="#f0027f" stroke="none" points="242.321,-829.5 242.321,-850.5 385.321,-850.5 385.321,-829.5 242.321,-829.5"/>
<polygon fill="none" stroke="black" points="242.321,-829.5 242.321,-850.5 385.321,-850.5 385.321,-829.5 242.321,-829.5"/>
<text text-anchor="start" x="250.321" y="-837.5" font-family="Helvetica,sans-Serif" font-size="10.00">MA_ALIGNMENT_DETAILS</text>
</a>
</g>
<g id="a_node2_6"><a xlink:href="/dictionaries/mmcif_modeling_v10.unix_1.04.dic/Items/_ma_alignment_details.ordinal_id.html" xlink:title="&lt;TABLE&gt;" target="_top">
<polygon fill="#ffff99" stroke="none" points="242.321,-809.5 242.321,-829.5 385.321,-829.5 385.321,-809.5 242.321,-809.5"/>
<polygon fill="none" stroke="black" points="242.321,-809.5 242.321,-829.5 385.321,-829.5 385.321,-809.5 242.321,-809.5"/>
<text text-anchor="start" x="247.321" y="-817.3" font-family="Helvetica,sans-Serif" font-size="9.00">ordinal_id</text>
</a>
</g>
<g id="a_node2_7"><a xlink:href="/dictionaries/mmcif_modeling_v10.unix_1.04.dic/Items/_ma_alignment_details.alignment_id.html" xlink:title="&lt;TABLE&gt;" target="_top">
<polygon fill="none" stroke="black" points="242.321,-789.5 242.321,-809.5 385.321,-809.5 385.321,-789.5 242.321,-789.5"/>
<text text-anchor="start" x="247.321" y="-797.3" font-family="Helvetica,sans-Serif" font-size="9.00">alignment_id</text>
</a>
</g>
<g id="a_node2_8"><a xlink:href="/dictionaries/mmcif_modeling_v10.unix_1.04.dic/Items/_ma_alignment_details.data_id.html" xlink:title="&lt;TABLE&gt;" target="_top">
<polygon fill="none" stroke="black" points="242.321,-769.5 242.321,-789.5 385.321,-789.5 385.321,-769.5 242.321,-769.5"/>
<text text-anchor="start" x="247.321" y="-777.3" font-family="Helvetica,sans-Serif" font-size="9.00">data_id</text>
</a>
</g>
<g id="a_node2_9"><a xlink:href="/dictionaries/mmcif_modeling_v10.unix_1.04.dic/Items/_ma_alignment_details.target_id.html" xlink:title="&lt;TABLE&gt;" target="_top">
<polygon fill="none" stroke="black" points="242.321,-749.5 242.321,-769.5 385.321,-769.5 385.321,-749.5 242.321,-749.5"/>
<text text-anchor="start" x="247.321" y="-757.3" font-family="Helvetica,sans-Serif" font-size="9.00">target_id</text>
</a>
</g>
<g id="a_node2_10"><a xlink:href="/dictionaries/mmcif_modeling_v10.unix_1.04.dic/Items/_ma_alignment_details.template_id.html" xlink:title="&lt;TABLE&gt;" target="_top">
<polygon fill="none" stroke="black" points="242.321,-729.5 242.321,-749.5 385.321,-749.5 385.321,-729.5 242.321,-729.5"/>
<text text-anchor="start" x="247.321" y="-737.3" font-family="Helvetica,sans-Serif" font-size="9.00">template_id</text>
</a>
</g>
<g id="a_node2_11"><a xlink:href="/dictionaries/mmcif_modeling_v10.unix_1.04.dic/Items/_ma_alignment_details.alignment_length.html" xlink:title="&lt;TABLE&gt;" target="_top">
<polygon fill="none" stroke="black" points="242.321,-709.5 242.321,-729.5 385.321,-729.5 385.321,-709.5 242.321,-709.5"/>
<text text-anchor="start" x="247.321" y="-717.3" font-family="Helvetica,sans-Serif" font-size="9.00">alignment_length</text>
</a>
</g>
<g id="a_node2_12"><a xlink:href="/dictionaries/mmcif_modeling_v10.unix_1.04.dic/Items/_ma_alignment_details.alignment_type.html" xlink:title="&lt;TABLE&gt;" target="_top">
<polygon fill="none" stroke="black" points="242.321,-689.5 242.321,-709.5 385.321,-709.5 385.321,-689.5 242.321,-689.5"/>
<text text-anchor="start" x="247.321" y="-697.3" font-family="Helvetica,sans-Serif" font-size="9.00">alignment_type</text>
</a>
</g>
<g id="a_node2_13"><a xlink:href="/dictionaries/mmcif_modeling_v10.unix_1.04.dic/Items/_ma_alignment_details.e_value.html" xlink:title="&lt;TABLE&gt;" target="_top">
<polygon fill="none" stroke="black" points="242.321,-669.5 242.321,-689.5 385.321,-689.5 385.321,-669.5 242.321,-669.5"/>
<text text-anchor="start" x="247.321" y="-677.3" font-family="Helvetica,sans-Serif" font-size="9.00">e_value</text>
</a>
</g>
<g id="a_node2_14"><a xlink:href="/dictionaries/mmcif_modeling_v10.unix_1.04.dic/Items/_ma_alignment_details.percent_sequence_identity.html" xlink:title="&lt;TABLE&gt;" target="_top">
<polygon fill="none" stroke="black" points="242.321,-649.5 242.321,-669.5 385.321,-669.5 385.321,-649.5 242.321,-649.5"/>
<text text-anchor="start" x="247.321" y="-657.3" font-family="Helvetica,sans-Serif" font-size="9.00">percent_sequence_identity</text>
</a>
</g>
<g id="a_node2_15"><a xlink:href="/dictionaries/mmcif_modeling_v10.unix_1.04.dic/Items/_ma_alignment_details.sequence_identity_denominator.html" xlink:title="&lt;TABLE&gt;" target="_top">
<polygon fill="none" stroke="black" points="242.321,-629.5 242.321,-649.5 385.321,-649.5 385.321,-629.5 242.321,-629.5"/>
<text text-anchor="start" x="247.321" y="-637.3" font-family="Helvetica,sans-Serif" font-size="9.00">sequence_identity_denominator</text>
</a>
</g>
<g id="a_node2_16"><a xlink:href="/dictionaries/mmcif_modeling_v10.unix_1.04.dic/Items/_ma_alignment_details.software_used.html" xlink:title="&lt;TABLE&gt;" target="_top">
<polygon fill="none" stroke="black" points="242.321,-609.5 242.321,-629.5 385.321,-629.5 385.321,-609.5 242.321,-609.5"/>
<text text-anchor="start" x="247.321" y="-617.3" font-family="Helvetica,sans-Serif" font-size="9.00">software_used</text>
</a>
</g>
</g>
<!-- _ma_alignment&#45;&gt;_ma_alignment_details -->
<g id="edge1" class="edge"><title>_ma_alignment:__alignment_id:w&#45;&gt;_ma_alignment_details:__alignment_id:w</title>
<path fill="none" stroke="black" d="M241.321,-944.5C180.4,-944.5 177.069,-814.926 231.326,-800.754"/>
<polygon fill="black" stroke="black" points="231.834,-804.217 241.321,-799.5 230.963,-797.272 231.834,-804.217"/>
</g>
<!-- _ma_data -->
<g id="node3" class="node"><title>_ma_data</title>
<g id="a_node3_17"><a xlink:href="/dictionaries/mmcif_modeling_v10.unix_1.04.dic/Categories/ma_data.html" xlink:title="&lt;TABLE&gt;" target="_top">
<polygon fill="#99c49b" stroke="none" points="143.321,-464.5 143.321,-485.5 206.321,-485.5 206.321,-464.5 143.321,-464.5"/>
<polygon fill="none" stroke="black" points="143.321,-464.5 143.321,-485.5 206.321,-485.5 206.321,-464.5 143.321,-464.5"/>
<text text-anchor="start" x="150.821" y="-472.5" font-family="Helvetica,sans-Serif" font-size="10.00">MA_DATA</text>
</a>
</g>
<g id="a_node3_18"><a xlink:href="/dictionaries/mmcif_modeling_v10.unix_1.04.dic/Items/_ma_data.id.html" xlink:title="&lt;TABLE&gt;" target="_top">
<polygon fill="#ffff99" stroke="none" points="143.321,-444.5 143.321,-464.5 206.321,-464.5 206.321,-444.5 143.321,-444.5"/>
<polygon fill="none" stroke="black" points="143.321,-444.5 143.321,-464.5 206.321,-464.5 206.321,-444.5 143.321,-444.5"/>
<text text-anchor="start" x="148.321" y="-452.3" font-family="Helvetica,sans-Serif" font-size="9.00">id</text>
</a>
</g>
<g id="a_node3_19"><a xlink:href="/dictionaries/mmcif_modeling_v10.unix_1.04.dic/Items/_ma_data.content_type.html" xlink:title="&lt;TABLE&gt;" target="_top">
<polygon fill="none" stroke="black" points="143.321,-424.5 143.321,-444.5 206.321,-444.5 206.321,-424.5 143.321,-424.5"/>
<text text-anchor="start" x="148.321" y="-432.3" font-family="Helvetica,sans-Serif" font-size="9.00">content_type</text>
</a>
</g>
<g id="a_node3_20"><a xlink:href="/dictionaries/mmcif_modeling_v10.unix_1.04.dic/Items/_ma_data.name.html" xlink:title="&lt;TABLE&gt;" target="_top">
<polygon fill="none" stroke="black" points="143.321,-404.5 143.321,-424.5 206.321,-424.5 206.321,-404.5 143.321,-404.5"/>
<text text-anchor="start" x="148.321" y="-412.3" font-family="Helvetica,sans-Serif" font-size="9.00">name</text>
</a>
</g>
</g>
<!-- _ma_alignment_details&#45;&gt;_ma_data -->
<g id="edge2" class="edge"><title>_ma_alignment_details:__data_id:w&#45;&gt;_ma_data:__id:w</title>
<path fill="none" stroke="black" d="M241.321,-779.5C169.508,-779.5 76.4339,-485.463 132.486,-456.749"/>
<polygon fill="black" stroke="black" points="133.353,-460.141 142.321,-454.5 131.792,-453.317 133.353,-460.141"/>
</g>
<!-- _ma_target_details -->
<g id="node4" class="node"><title>_ma_target_details</title>
<g id="a_node4_21"><a xlink:href="/dictionaries/mmcif_modeling_v10.unix_1.04.dic/Categories/ma_target_details.html" xlink:title="&lt;TABLE&gt;" target="_top">
<polygon fill="#99c49b" stroke="none" points="260.321,-259.5 260.321,-280.5 379.321,-280.5 379.321,-259.5 260.321,-259.5"/>
<polygon fill="none" stroke="black" points="260.321,-259.5 260.321,-280.5 379.321,-280.5 379.321,-259.5 260.321,-259.5"/>
<text text-anchor="start" x="265.321" y="-267.5" font-family="Helvetica,sans-Serif" font-size="10.00">MA_TARGET_DETAILS</text>
</a>
</g>
<g id="a_node4_22"><a xlink:href="/dictionaries/mmcif_modeling_v10.unix_1.04.dic/Items/_ma_target_details.id.html" xlink:title="&lt;TABLE&gt;" target="_top">
<polygon fill="#ffff99" stroke="none" points="260.321,-239.5 260.321,-259.5 379.321,-259.5 379.321,-239.5 260.321,-239.5"/>
<polygon fill="none" stroke="black" points="260.321,-239.5 260.321,-259.5 379.321,-259.5 379.321,-239.5 260.321,-239.5"/>
<text text-anchor="start" x="265.321" y="-247.3" font-family="Helvetica,sans-Serif" font-size="9.00">id</text>
</a>
</g>
<g id="a_node4_23"><a xlink:href="/dictionaries/mmcif_modeling_v10.unix_1.04.dic/Items/_ma_target_details.db_accession.html" xlink:title="&lt;TABLE&gt;" target="_top">
<polygon fill="none" stroke="black" points="260.321,-219.5 260.321,-239.5 379.321,-239.5 379.321,-219.5 260.321,-219.5"/>
<text text-anchor="start" x="265.321" y="-227.3" font-family="Helvetica,sans-Serif" font-size="9.00">db_accession</text>
</a>
</g>
<g id="a_node4_24"><a xlink:href="/dictionaries/mmcif_modeling_v10.unix_1.04.dic/Items/_ma_target_details.db_code.html" xlink:title="&lt;TABLE&gt;" target="_top">
<polygon fill="none" stroke="black" points="260.321,-199.5 260.321,-219.5 379.321,-219.5 379.321,-199.5 260.321,-199.5"/>
<text text-anchor="start" x="265.321" y="-207.3" font-family="Helvetica,sans-Serif" font-size="9.00">db_code</text>
</a>
</g>
<g id="a_node4_25"><a xlink:href="/dictionaries/mmcif_modeling_v10.unix_1.04.dic/Items/_ma_target_details.db_isoform.html" xlink:title="&lt;TABLE&gt;" target="_top">
<polygon fill="none" stroke="black" points="260.321,-179.5 260.321,-199.5 379.321,-199.5 379.321,-179.5 260.321,-179.5"/>
<text text-anchor="start" x="265.321" y="-187.3" font-family="Helvetica,sans-Serif" font-size="9.00">db_isoform</text>
</a>
</g>
<g id="a_node4_26"><a xlink:href="/dictionaries/mmcif_modeling_v10.unix_1.04.dic/Items/_ma_target_details.db_name.html" xlink:title="&lt;TABLE&gt;" target="_top">
<polygon fill="none" stroke="black" points="260.321,-159.5 260.321,-179.5 379.321,-179.5 379.321,-159.5 260.321,-159.5"/>
<text text-anchor="start" x="265.321" y="-167.3" font-family="Helvetica,sans-Serif" font-size="9.00">db_name</text>
</a>
</g>
<g id="a_node4_27"><a xlink:href="/dictionaries/mmcif_modeling_v10.unix_1.04.dic/Items/_ma_target_details.entity_id.html" xlink:title="&lt;TABLE&gt;" target="_top">
<polygon fill="none" stroke="black" points="260.321,-139.5 260.321,-159.5 379.321,-159.5 379.321,-139.5 260.321,-139.5"/>
<text text-anchor="start" x="265.321" y="-147.3" font-family="Helvetica,sans-Serif" font-size="9.00">entity_id</text>
</a>
</g>
<g id="a_node4_28"><a xlink:href="/dictionaries/mmcif_modeling_v10.unix_1.04.dic/Items/_ma_target_details.seq_db_align_begin.html" xlink:title="&lt;TABLE&gt;" target="_top">
<polygon fill="none" stroke="black" points="260.321,-119.5 260.321,-139.5 379.321,-139.5 379.321,-119.5 260.321,-119.5"/>
<text text-anchor="start" x="265.321" y="-127.3" font-family="Helvetica,sans-Serif" font-size="9.00">seq_db_align_begin</text>
</a>
</g>
<g id="a_node4_29"><a xlink:href="/dictionaries/mmcif_modeling_v10.unix_1.04.dic/Items/_ma_target_details.seq_db_align_end.html" xlink:title="&lt;TABLE&gt;" target="_top">
<polygon fill="none" stroke="black" points="260.321,-99.5 260.321,-119.5 379.321,-119.5 379.321,-99.5 260.321,-99.5"/>
<text text-anchor="start" x="265.321" y="-107.3" font-family="Helvetica,sans-Serif" font-size="9.00">seq_db_align_end</text>
</a>
</g>
<g id="a_node4_30"><a xlink:href="/dictionaries/mmcif_modeling_v10.unix_1.04.dic/Items/_ma_target_details.seq_db_one_letter_code.html" xlink:title="&lt;TABLE&gt;" target="_top">
<polygon fill="none" stroke="black" points="260.321,-79.5 260.321,-99.5 379.321,-99.5 379.321,-79.5 260.321,-79.5"/>
<text text-anchor="start" x="265.321" y="-87.3" font-family="Helvetica,sans-Serif" font-size="9.00">seq_db_one_letter_code</text>
</a>
</g>
</g>
<!-- _ma_alignment_details&#45;&gt;_ma_target_details -->
<g id="edge3" class="edge"><title>_ma_alignment_details:__target_id:w&#45;&gt;_ma_target_details:__id:w</title>
<path fill="none" stroke="black" d="M241.321,-759.5C215.074,-759.5 228.553,-322.394 253.194,-257.511"/>
<polygon fill="black" stroke="black" points="256.026,-259.569 259.321,-249.5 250.465,-255.317 256.026,-259.569"/>
</g>
<!-- _ma_template_details -->
<g id="node5" class="node"><title>_ma_template_details</title>
<g id="a_node5_31"><a xlink:href="/dictionaries/mmcif_modeling_v10.unix_1.04.dic/Categories/ma_template_details.html" xlink:title="&lt;TABLE&gt;" target="_top">
<polygon fill="#99c49b" stroke="none" points="279.321,-544.5 279.321,-565.5 418.321,-565.5 418.321,-544.5 279.321,-544.5"/>
<polygon fill="none" stroke="black" points="279.321,-544.5 279.321,-565.5 418.321,-565.5 418.321,-544.5 279.321,-544.5"/>
<text text-anchor="start" x="288.321" y="-552.5" font-family="Helvetica,sans-Serif" font-size="10.00">MA_TEMPLATE_DETAILS</text>
</a>
</g>
<g id="a_node5_32"><a xlink:href="/dictionaries/mmcif_modeling_v10.unix_1.04.dic/Items/_ma_template_details.id.html" xlink:title="&lt;TABLE&gt;" target="_top">
<polygon fill="#ffff99" stroke="none" points="279.321,-524.5 279.321,-544.5 418.321,-544.5 418.321,-524.5 279.321,-524.5"/>
<polygon fill="none" stroke="black" points="279.321,-524.5 279.321,-544.5 418.321,-544.5 418.321,-524.5 279.321,-524.5"/>
<text text-anchor="start" x="284.321" y="-532.3" font-family="Helvetica,sans-Serif" font-size="9.00">id</text>
</a>
</g>
<g id="a_node5_33"><a xlink:href="/dictionaries/mmcif_modeling_v10.unix_1.04.dic/Items/_ma_template_details.group_id.html" xlink:title="&lt;TABLE&gt;" target="_top">
<polygon fill="none" stroke="black" points="279.321,-504.5 279.321,-524.5 418.321,-524.5 418.321,-504.5 279.321,-504.5"/>
<text text-anchor="start" x="284.321" y="-512.3" font-family="Helvetica,sans-Serif" font-size="9.00">group_id</text>
</a>
</g>
<g id="a_node5_34"><a xlink:href="/dictionaries/mmcif_modeling_v10.unix_1.04.dic/Items/_ma_template_details.pdb_code.html" xlink:title="&lt;TABLE&gt;" target="_top">
<polygon fill="none" stroke="black" points="279.321,-484.5 279.321,-504.5 418.321,-504.5 418.321,-484.5 279.321,-484.5"/>
<text text-anchor="start" x="284.321" y="-492.3" font-family="Helvetica,sans-Serif" font-size="9.00">pdb_code</text>
</a>
</g>
<g id="a_node5_35"><a xlink:href="/dictionaries/mmcif_modeling_v10.unix_1.04.dic/Items/_ma_template_details.pdb_entity_id.html" xlink:title="&lt;TABLE&gt;" target="_top">
<polygon fill="none" stroke="black" points="279.321,-464.5 279.321,-484.5 418.321,-484.5 418.321,-464.5 279.321,-464.5"/>
<text text-anchor="start" x="284.321" y="-472.3" font-family="Helvetica,sans-Serif" font-size="9.00">pdb_entity_id</text>
</a>
</g>
<g id="a_node5_36"><a xlink:href="/dictionaries/mmcif_modeling_v10.unix_1.04.dic/Items/_ma_template_details.pdb_label_asym_id.html" xlink:title="&lt;TABLE&gt;" target="_top">
<polygon fill="none" stroke="black" points="279.321,-444.5 279.321,-464.5 418.321,-464.5 418.321,-444.5 279.321,-444.5"/>
<text text-anchor="start" x="284.321" y="-452.3" font-family="Helvetica,sans-Serif" font-size="9.00">pdb_label_asym_id</text>
</a>
</g>
<g id="a_node5_37"><a xlink:href="/dictionaries/mmcif_modeling_v10.unix_1.04.dic/Items/_ma_template_details.pdb_model_num.html" xlink:title="&lt;TABLE&gt;" target="_top">
<polygon fill="none" stroke="black" points="279.321,-424.5 279.321,-444.5 418.321,-444.5 418.321,-424.5 279.321,-424.5"/>
<text text-anchor="start" x="284.321" y="-432.3" font-family="Helvetica,sans-Serif" font-size="9.00">pdb_model_num</text>
</a>
</g>
<g id="a_node5_38"><a xlink:href="/dictionaries/mmcif_modeling_v10.unix_1.04.dic/Items/_ma_template_details.pdb_seq_id_begin.html" xlink:title="&lt;TABLE&gt;" target="_top">
<polygon fill="none" stroke="black" points="279.321,-404.5 279.321,-424.5 418.321,-424.5 418.321,-404.5 279.321,-404.5"/>
<text text-anchor="start" x="284.321" y="-412.3" font-family="Helvetica,sans-Serif" font-size="9.00">pdb_seq_id_begin</text>
</a>
</g>
<g id="a_node5_39"><a xlink:href="/dictionaries/mmcif_modeling_v10.unix_1.04.dic/Items/_ma_template_details.pdb_seq_id_end.html" xlink:title="&lt;TABLE&gt;" target="_top">
<polygon fill="none" stroke="black" points="279.321,-384.5 279.321,-404.5 418.321,-404.5 418.321,-384.5 279.321,-384.5"/>
<text text-anchor="start" x="284.321" y="-392.3" font-family="Helvetica,sans-Serif" font-size="9.00">pdb_seq_id_end</text>
</a>
</g>
<g id="a_node5_40"><a xlink:href="/dictionaries/mmcif_modeling_v10.unix_1.04.dic/Items/_ma_template_details.pdb_seq_one_letter_code.html" xlink:title="&lt;TABLE&gt;" target="_top">
<polygon fill="none" stroke="black" points="279.321,-364.5 279.321,-384.5 418.321,-384.5 418.321,-364.5 279.321,-364.5"/>
<text text-anchor="start" x="284.321" y="-372.3" font-family="Helvetica,sans-Serif" font-size="9.00">pdb_seq_one_letter_code</text>
</a>
</g>
<g id="a_node5_41"><a xlink:href="/dictionaries/mmcif_modeling_v10.unix_1.04.dic/Items/_ma_template_details.pdb_seq_one_letter_code_can.html" xlink:title="&lt;TABLE&gt;" target="_top">
<polygon fill="none" stroke="black" points="279.321,-344.5 279.321,-364.5 418.321,-364.5 418.321,-344.5 279.321,-344.5"/>
<text text-anchor="start" x="284.321" y="-352.3" font-family="Helvetica,sans-Serif" font-size="9.00">pdb_seq_one_letter_code_can</text>
</a>
</g>
<g id="a_node5_42"><a xlink:href="/dictionaries/mmcif_modeling_v10.unix_1.04.dic/Items/_ma_template_details.target_entity_id.html" xlink:title="&lt;TABLE&gt;" target="_top">
<polygon fill="none" stroke="black" points="279.321,-324.5 279.321,-344.5 418.321,-344.5 418.321,-324.5 279.321,-324.5"/>
<text text-anchor="start" x="284.321" y="-332.3" font-family="Helvetica,sans-Serif" font-size="9.00">target_entity_id</text>
</a>
</g>
</g>
<!-- _ma_alignment_details&#45;&gt;_ma_template_details -->
<g id="edge4" class="edge"><title>_ma_alignment_details:__template_id:w&#45;&gt;_ma_template_details:__id:w</title>
<path fill="none" stroke="black" d="M241.321,-739.5C181.986,-739.5 228.391,-663.677 242.321,-606 243.968,-599.178 259.892,-558.605 270.906,-541.791"/>
<polygon fill="black" stroke="black" points="273.645,-544.007 278.321,-534.5 268.737,-539.016 273.645,-544.007"/>
</g>
<!-- _ma_template_details&#45;&gt;_ma_target_details -->
<g id="edge5" class="edge"><title>_ma_template_details:__target_entity_id:w&#45;&gt;_ma_target_details:__entity_id:w</title>
<path fill="none" stroke="black" d="M278.321,-334.5C240.545,-334.5 221.424,-179.931 249.978,-153.364"/>
<polygon fill="black" stroke="black" points="251.418,-156.556 259.321,-149.5 248.742,-150.088 251.418,-156.556"/>
</g>
</g>
</svg>
