<?xml version="1.0" encoding="UTF-8" standalone="no"?>
<!DOCTYPE svg PUBLIC "-//W3C//DTD SVG 1.1//EN"
 "http://www.w3.org/Graphics/SVG/1.1/DTD/svg11.dtd">
<!-- Generated by graphviz version 2.38.0 (20140413.2041)
 -->
<!-- Title: ma_criteria Pages: 1 -->
<svg width="440pt" height="338pt"
 viewBox="0.00 0.00 440.00 338.00" xmlns="http://www.w3.org/2000/svg" xmlns:xlink="http://www.w3.org/1999/xlink">
<g id="graph0" class="graph" transform="scale(1 1) rotate(0) translate(4 334)">
<title>ma_criteria</title>
<polygon fill="white" stroke="none" points="-4,4 -4,-334 436,-334 436,4 -4,4"/>
<text text-anchor="start" x="213" y="-58.6" font-family="Helvetica,sans-Serif" font-size="18.00"> </text>
<text text-anchor="start" x="213" y="-40.6" font-family="Helvetica,sans-Serif" font-size="18.00"> </text>
<text text-anchor="start" x="8" y="-22.6" font-family="Helvetica,sans-Serif" font-size="18.00"> Category Relationship Diagram for </text>
<text text-anchor="start" x="291" y="-22.6" font-family="Helvetica,sans-Serif" font-weight="bold" font-size="18.00">MA_CRITERIA</text>
<text text-anchor="start" x="414" y="-22.6" font-family="Helvetica,sans-Serif" font-size="18.00"> </text>
<text text-anchor="start" x="420" y="-22.6" font-family="Helvetica,sans-Serif" font-size="14.00"> </text>
<text text-anchor="start" x="82" y="-7.8" font-family="Helvetica,sans-Serif" font-size="14.00"> &#160;in dictionary mmcif_pdbx.dic version 5.280 </text>
<!-- _ma_criteria -->
<g id="node1" class="node"><title>_ma_criteria</title>
<g id="a_node1_0"><a xlink:href="/dictionaries/mmcif_modeling_v10.unix_1.04.dic/Categories/ma_criteria.html" xlink:title="&lt;TABLE&gt;" target="_top">
<polygon fill="#f0027f" stroke="none" points="187.269,-304.5 187.269,-325.5 266.269,-325.5 266.269,-304.5 187.269,-304.5"/>
<polygon fill="none" stroke="black" points="187.269,-304.5 187.269,-325.5 266.269,-325.5 266.269,-304.5 187.269,-304.5"/>
<text text-anchor="start" x="192.269" y="-312.5" font-family="Helvetica,sans-Serif" font-size="10.00">MA_CRITERIA</text>
</a>
</g>
<g id="a_node1_1"><a xlink:href="/dictionaries/mmcif_modeling_v10.unix_1.04.dic/Items/_ma_criteria.ordinal_id.html" xlink:title="&lt;TABLE&gt;" target="_top">
<polygon fill="#ffff99" stroke="none" points="187.269,-284.5 187.269,-304.5 266.269,-304.5 266.269,-284.5 187.269,-284.5"/>
<polygon fill="none" stroke="black" points="187.269,-284.5 187.269,-304.5 266.269,-304.5 266.269,-284.5 187.269,-284.5"/>
<text text-anchor="start" x="192.269" y="-292.3" font-family="Helvetica,sans-Serif" font-size="9.00">ordinal_id</text>
</a>
</g>
<g id="a_node1_2"><a xlink:href="/dictionaries/mmcif_modeling_v10.unix_1.04.dic/Items/_ma_criteria.data_id.html" xlink:title="&lt;TABLE&gt;" target="_top">
<polygon fill="none" stroke="black" points="187.269,-264.5 187.269,-284.5 266.269,-284.5 266.269,-264.5 187.269,-264.5"/>
<text text-anchor="start" x="192.269" y="-272.3" font-family="Helvetica,sans-Serif" font-size="9.00">data_id</text>
</a>
</g>
<g id="a_node1_3"><a xlink:href="/dictionaries/mmcif_modeling_v10.unix_1.04.dic/Items/_ma_criteria.name.html" xlink:title="&lt;TABLE&gt;" target="_top">
<polygon fill="none" stroke="black" points="187.269,-244.5 187.269,-264.5 266.269,-264.5 266.269,-244.5 187.269,-244.5"/>
<text text-anchor="start" x="192.269" y="-252.3" font-family="Helvetica,sans-Serif" font-size="9.00">name</text>
</a>
</g>
<g id="a_node1_4"><a xlink:href="/dictionaries/mmcif_modeling_v10.unix_1.04.dic/Items/_ma_criteria.type.html" xlink:title="&lt;TABLE&gt;" target="_top">
<polygon fill="none" stroke="black" points="187.269,-224.5 187.269,-244.5 266.269,-244.5 266.269,-224.5 187.269,-224.5"/>
<text text-anchor="start" x="192.269" y="-232.3" font-family="Helvetica,sans-Serif" font-size="9.00">type</text>
</a>
</g>
<g id="a_node1_5"><a xlink:href="/dictionaries/mmcif_modeling_v10.unix_1.04.dic/Items/_ma_criteria.value.html" xlink:title="&lt;TABLE&gt;" target="_top">
<polygon fill="none" stroke="black" points="187.269,-204.5 187.269,-224.5 266.269,-224.5 266.269,-204.5 187.269,-204.5"/>
<text text-anchor="start" x="192.269" y="-212.3" font-family="Helvetica,sans-Serif" font-size="9.00">value</text>
</a>
</g>
</g>
<!-- _ma_data -->
<g id="node2" class="node"><title>_ma_data</title>
<g id="a_node2_6"><a xlink:href="/dictionaries/mmcif_modeling_v10.unix_1.04.dic/Categories/ma_data.html" xlink:title="&lt;TABLE&gt;" target="_top">
<polygon fill="#99c49b" stroke="none" points="187.269,-139.5 187.269,-160.5 250.269,-160.5 250.269,-139.5 187.269,-139.5"/>
<polygon fill="none" stroke="black" points="187.269,-139.5 187.269,-160.5 250.269,-160.5 250.269,-139.5 187.269,-139.5"/>
<text text-anchor="start" x="194.769" y="-147.5" font-family="Helvetica,sans-Serif" font-size="10.00">MA_DATA</text>
</a>
</g>
<g id="a_node2_7"><a xlink:href="/dictionaries/mmcif_modeling_v10.unix_1.04.dic/Items/_ma_data.id.html" xlink:title="&lt;TABLE&gt;" target="_top">
<polygon fill="#ffff99" stroke="none" points="187.269,-119.5 187.269,-139.5 250.269,-139.5 250.269,-119.5 187.269,-119.5"/>
<polygon fill="none" stroke="black" points="187.269,-119.5 187.269,-139.5 250.269,-139.5 250.269,-119.5 187.269,-119.5"/>
<text text-anchor="start" x="192.269" y="-127.3" font-family="Helvetica,sans-Serif" font-size="9.00">id</text>
</a>
</g>
<g id="a_node2_8"><a xlink:href="/dictionaries/mmcif_modeling_v10.unix_1.04.dic/Items/_ma_data.content_type.html" xlink:title="&lt;TABLE&gt;" target="_top">
<polygon fill="none" stroke="black" points="187.269,-99.5 187.269,-119.5 250.269,-119.5 250.269,-99.5 187.269,-99.5"/>
<text text-anchor="start" x="192.269" y="-107.3" font-family="Helvetica,sans-Serif" font-size="9.00">content_type</text>
</a>
</g>
<g id="a_node2_9"><a xlink:href="/dictionaries/mmcif_modeling_v10.unix_1.04.dic/Items/_ma_data.name.html" xlink:title="&lt;TABLE&gt;" target="_top">
<polygon fill="none" stroke="black" points="187.269,-79.5 187.269,-99.5 250.269,-99.5 250.269,-79.5 187.269,-79.5"/>
<text text-anchor="start" x="192.269" y="-87.3" font-family="Helvetica,sans-Serif" font-size="9.00">name</text>
</a>
</g>
</g>
<!-- _ma_criteria&#45;&gt;_ma_data -->
<g id="edge1" class="edge"><title>_ma_criteria:__ordinal_id:w&#45;&gt;_ma_data:__id:w</title>
<path fill="none" stroke="black" d="M186.269,-294.5C153.039,-294.5 149.924,-158.987 176.923,-133.579"/>
<polygon fill="black" stroke="black" points="178.503,-136.708 186.269,-129.5 175.703,-130.292 178.503,-136.708"/>
</g>
</g>
</svg>
