<?xml version="1.0" encoding="UTF-8" standalone="no"?>
<!DOCTYPE svg PUBLIC "-//W3C//DTD SVG 1.1//EN"
 "http://www.w3.org/Graphics/SVG/1.1/DTD/svg11.dtd">
<!-- Generated by graphviz version 2.38.0 (20140413.2041)
 -->
<!-- Title: ma_criteria Pages: 1 -->
<svg width="440pt" height="438pt"
 viewBox="0.00 0.00 440.00 438.00" xmlns="http://www.w3.org/2000/svg" xmlns:xlink="http://www.w3.org/1999/xlink">
<g id="graph0" class="graph" transform="scale(1 1) rotate(0) translate(4 434)">
<title>ma_criteria</title>
<polygon fill="white" stroke="none" points="-4,4 -4,-434 436,-434 436,4 -4,4"/>
<text text-anchor="start" x="213" y="-58.6" font-family="Helvetica,sans-Serif" font-size="18.00"> </text>
<text text-anchor="start" x="213" y="-40.6" font-family="Helvetica,sans-Serif" font-size="18.00"> </text>
<text text-anchor="start" x="8" y="-22.6" font-family="Helvetica,sans-Serif" font-size="18.00"> Category Relationship Diagram for </text>
<text text-anchor="start" x="291" y="-22.6" font-family="Helvetica,sans-Serif" font-weight="bold" font-size="18.00">MA_CRITERIA</text>
<text text-anchor="start" x="414" y="-22.6" font-family="Helvetica,sans-Serif" font-size="18.00"> </text>
<text text-anchor="start" x="420" y="-22.6" font-family="Helvetica,sans-Serif" font-size="14.00"> </text>
<text text-anchor="start" x="82" y="-7.8" font-family="Helvetica,sans-Serif" font-size="14.00"> &#160;in dictionary mmcif_pdbx.dic version 5.296 </text>
<!-- _ma_criteria -->
<g id="node1" class="node"><title>_ma_criteria</title>
<g id="a_node1_0"><a xlink:href="/dictionaries/mmcif_pdbx_modeling_extension_all.dic/Categories/ma_criteria.html" xlink:title="&lt;TABLE&gt;" target="_top">
<polygon fill="#f0027f" stroke="none" points="169.005,-404.5 169.005,-425.5 248.005,-425.5 248.005,-404.5 169.005,-404.5"/>
<polygon fill="none" stroke="black" points="169.005,-404.5 169.005,-425.5 248.005,-425.5 248.005,-404.5 169.005,-404.5"/>
<text text-anchor="start" x="174.005" y="-412.5" font-family="Helvetica,sans-Serif" font-size="10.00">MA_CRITERIA</text>
</a>
</g>
<g id="a_node1_1"><a xlink:href="/dictionaries/mmcif_pdbx_modeling_extension_all.dic/Items/_ma_criteria.id.html" xlink:title="&lt;TABLE&gt;" target="_top">
<polygon fill="#ffff99" stroke="none" points="169.005,-384.5 169.005,-404.5 248.005,-404.5 248.005,-384.5 169.005,-384.5"/>
<polygon fill="none" stroke="black" points="169.005,-384.5 169.005,-404.5 248.005,-404.5 248.005,-384.5 169.005,-384.5"/>
<text text-anchor="start" x="174.005" y="-392.3" font-family="Helvetica,sans-Serif" font-size="9.00">id</text>
</a>
</g>
<g id="a_node1_2"><a xlink:href="/dictionaries/mmcif_pdbx_modeling_extension_all.dic/Items/_ma_criteria.protocol_id.html" xlink:title="&lt;TABLE&gt;" target="_top">
<polygon fill="none" stroke="black" points="169.005,-364.5 169.005,-384.5 248.005,-384.5 248.005,-364.5 169.005,-364.5"/>
<text text-anchor="start" x="174.005" y="-372.3" font-family="Helvetica,sans-Serif" font-size="9.00">protocol_id</text>
</a>
</g>
<g id="a_node1_3"><a xlink:href="/dictionaries/mmcif_pdbx_modeling_extension_all.dic/Items/_ma_criteria.step_id.html" xlink:title="&lt;TABLE&gt;" target="_top">
<polygon fill="none" stroke="black" points="169.005,-344.5 169.005,-364.5 248.005,-364.5 248.005,-344.5 169.005,-344.5"/>
<text text-anchor="start" x="174.005" y="-352.3" font-family="Helvetica,sans-Serif" font-size="9.00">step_id</text>
</a>
</g>
<g id="a_node1_4"><a xlink:href="/dictionaries/mmcif_pdbx_modeling_extension_all.dic/Items/_ma_criteria.name.html" xlink:title="&lt;TABLE&gt;" target="_top">
<polygon fill="none" stroke="black" points="169.005,-324.5 169.005,-344.5 248.005,-344.5 248.005,-324.5 169.005,-324.5"/>
<text text-anchor="start" x="174.005" y="-332.3" font-family="Helvetica,sans-Serif" font-size="9.00">name</text>
</a>
</g>
<g id="a_node1_5"><a xlink:href="/dictionaries/mmcif_pdbx_modeling_extension_all.dic/Items/_ma_criteria.type.html" xlink:title="&lt;TABLE&gt;" target="_top">
<polygon fill="none" stroke="black" points="169.005,-304.5 169.005,-324.5 248.005,-324.5 248.005,-304.5 169.005,-304.5"/>
<text text-anchor="start" x="174.005" y="-312.3" font-family="Helvetica,sans-Serif" font-size="9.00">type</text>
</a>
</g>
<g id="a_node1_6"><a xlink:href="/dictionaries/mmcif_pdbx_modeling_extension_all.dic/Items/_ma_criteria.value.html" xlink:title="&lt;TABLE&gt;" target="_top">
<polygon fill="none" stroke="black" points="169.005,-284.5 169.005,-304.5 248.005,-304.5 248.005,-284.5 169.005,-284.5"/>
<text text-anchor="start" x="174.005" y="-292.3" font-family="Helvetica,sans-Serif" font-size="9.00">value</text>
</a>
</g>
</g>
<!-- _ma_protocol_step -->
<g id="node2" class="node"><title>_ma_protocol_step</title>
<g id="a_node2_7"><a xlink:href="/dictionaries/mmcif_pdbx_modeling_extension_all.dic/Categories/ma_protocol_step.html" xlink:title="&lt;TABLE&gt;" target="_top">
<polygon fill="#99c49b" stroke="none" points="169.005,-219.5 169.005,-240.5 287.005,-240.5 287.005,-219.5 169.005,-219.5"/>
<polygon fill="none" stroke="black" points="169.005,-219.5 169.005,-240.5 287.005,-240.5 287.005,-219.5 169.005,-219.5"/>
<text text-anchor="start" x="174.005" y="-227.5" font-family="Helvetica,sans-Serif" font-size="10.00">MA_PROTOCOL_STEP</text>
</a>
</g>
<g id="a_node2_8"><a xlink:href="/dictionaries/mmcif_pdbx_modeling_extension_all.dic/Items/_ma_protocol_step.ordinal_id.html" xlink:title="&lt;TABLE&gt;" target="_top">
<polygon fill="#ffff99" stroke="none" points="169.005,-199.5 169.005,-219.5 287.005,-219.5 287.005,-199.5 169.005,-199.5"/>
<polygon fill="none" stroke="black" points="169.005,-199.5 169.005,-219.5 287.005,-219.5 287.005,-199.5 169.005,-199.5"/>
<text text-anchor="start" x="174.005" y="-207.3" font-family="Helvetica,sans-Serif" font-size="9.00">ordinal_id</text>
</a>
</g>
<g id="a_node2_9"><a xlink:href="/dictionaries/mmcif_pdbx_modeling_extension_all.dic/Items/_ma_protocol_step.protocol_id.html" xlink:title="&lt;TABLE&gt;" target="_top">
<polygon fill="none" stroke="black" points="169.005,-179.5 169.005,-199.5 287.005,-199.5 287.005,-179.5 169.005,-179.5"/>
<text text-anchor="start" x="174.005" y="-187.3" font-family="Helvetica,sans-Serif" font-size="9.00">protocol_id</text>
</a>
</g>
<g id="a_node2_10"><a xlink:href="/dictionaries/mmcif_pdbx_modeling_extension_all.dic/Items/_ma_protocol_step.step_id.html" xlink:title="&lt;TABLE&gt;" target="_top">
<polygon fill="none" stroke="black" points="169.005,-159.5 169.005,-179.5 287.005,-179.5 287.005,-159.5 169.005,-159.5"/>
<text text-anchor="start" x="174.005" y="-167.3" font-family="Helvetica,sans-Serif" font-size="9.00">step_id</text>
</a>
</g>
<g id="a_node2_11"><a xlink:href="/dictionaries/mmcif_pdbx_modeling_extension_all.dic/Items/_ma_protocol_step.assembly_id.html" xlink:title="&lt;TABLE&gt;" target="_top">
<polygon fill="none" stroke="black" points="169.005,-139.5 169.005,-159.5 287.005,-159.5 287.005,-139.5 169.005,-139.5"/>
<text text-anchor="start" x="174.005" y="-147.3" font-family="Helvetica,sans-Serif" font-size="9.00">assembly_id</text>
</a>
</g>
<g id="a_node2_12"><a xlink:href="/dictionaries/mmcif_pdbx_modeling_extension_all.dic/Items/_ma_protocol_step.method_type.html" xlink:title="&lt;TABLE&gt;" target="_top">
<polygon fill="none" stroke="black" points="169.005,-119.5 169.005,-139.5 287.005,-139.5 287.005,-119.5 169.005,-119.5"/>
<text text-anchor="start" x="174.005" y="-127.3" font-family="Helvetica,sans-Serif" font-size="9.00">method_type</text>
</a>
</g>
<g id="a_node2_13"><a xlink:href="/dictionaries/mmcif_pdbx_modeling_extension_all.dic/Items/_ma_protocol_step.name.html" xlink:title="&lt;TABLE&gt;" target="_top">
<polygon fill="none" stroke="black" points="169.005,-99.5 169.005,-119.5 287.005,-119.5 287.005,-99.5 169.005,-99.5"/>
<text text-anchor="start" x="174.005" y="-107.3" font-family="Helvetica,sans-Serif" font-size="9.00">name</text>
</a>
</g>
<g id="a_node2_14"><a xlink:href="/dictionaries/mmcif_pdbx_modeling_extension_all.dic/Items/_ma_protocol_step.software_id.html" xlink:title="&lt;TABLE&gt;" target="_top">
<polygon fill="none" stroke="black" points="169.005,-79.5 169.005,-99.5 287.005,-99.5 287.005,-79.5 169.005,-79.5"/>
<text text-anchor="start" x="174.005" y="-87.3" font-family="Helvetica,sans-Serif" font-size="9.00">software_id</text>
</a>
</g>
</g>
<!-- _ma_criteria&#45;&gt;_ma_protocol_step -->
<g id="edge1" class="edge"><title>_ma_criteria:__protocol_id:w&#45;&gt;_ma_protocol_step:__protocol_id:w</title>
<path fill="none" stroke="black" d="M168.005,-374.5C130.427,-374.5 127.197,-219.931 158.317,-193.364"/>
<polygon fill="black" stroke="black" points="160.013,-196.456 168.005,-189.5 157.42,-189.954 160.013,-196.456"/>
</g>
<!-- _ma_criteria&#45;&gt;_ma_protocol_step -->
<g id="edge2" class="edge"><title>_ma_criteria:__step_id:w&#45;&gt;_ma_protocol_step:__step_id:w</title>
<path fill="none" stroke="black" d="M168.005,-354.5C130.427,-354.5 127.197,-199.931 158.317,-173.364"/>
<polygon fill="black" stroke="black" points="160.013,-176.456 168.005,-169.5 157.42,-169.954 160.013,-176.456"/>
</g>
</g>
</svg>
