<?xml version="1.0" encoding="UTF-8" standalone="no"?>
<!DOCTYPE svg PUBLIC "-//W3C//DTD SVG 1.1//EN"
 "http://www.w3.org/Graphics/SVG/1.1/DTD/svg11.dtd">
<!-- Generated by graphviz version 2.38.0 (20140413.2041)
 -->
<!-- Title: ma_data Pages: 1 -->
<svg width="693pt" height="458pt"
 viewBox="0.00 0.00 693.20 458.00" xmlns="http://www.w3.org/2000/svg" xmlns:xlink="http://www.w3.org/1999/xlink">
<g id="graph0" class="graph" transform="scale(1 1) rotate(0) translate(4 454)">
<title>ma_data</title>
<polygon fill="white" stroke="none" points="-4,4 -4,-454 689.204,-454 689.204,4 -4,4"/>
<text text-anchor="start" x="339.602" y="-58.6" font-family="Helvetica,sans-Serif" font-size="18.00"> </text>
<text text-anchor="start" x="339.602" y="-40.6" font-family="Helvetica,sans-Serif" font-size="18.00"> </text>
<text text-anchor="start" x="152.102" y="-22.6" font-family="Helvetica,sans-Serif" font-size="18.00"> Category Relationship Diagram for </text>
<text text-anchor="start" x="435.102" y="-22.6" font-family="Helvetica,sans-Serif" font-weight="bold" font-size="18.00">MA_DATA</text>
<text text-anchor="start" x="523.102" y="-22.6" font-family="Helvetica,sans-Serif" font-size="18.00"> </text>
<text text-anchor="start" x="529.102" y="-22.6" font-family="Helvetica,sans-Serif" font-size="14.00"> </text>
<text text-anchor="start" x="208.602" y="-7.8" font-family="Helvetica,sans-Serif" font-size="14.00"> &#160;in dictionary mmcif_pdbx.dic version 5.280 </text>
<!-- _ma_alignment_details -->
<g id="node1" class="node"><title>_ma_alignment_details</title>
<g id="a_node1_0"><a xlink:href="/dictionaries/mmcif_modeling_v10.unix_1.04.dic/Categories/ma_alignment_details.html" xlink:title="&lt;TABLE&gt;" target="_top">
<polygon fill="#99c49b" stroke="none" points="27.204,-424.5 27.204,-445.5 170.204,-445.5 170.204,-424.5 27.204,-424.5"/>
<polygon fill="none" stroke="black" points="27.204,-424.5 27.204,-445.5 170.204,-445.5 170.204,-424.5 27.204,-424.5"/>
<text text-anchor="start" x="35.204" y="-432.5" font-family="Helvetica,sans-Serif" font-size="10.00">MA_ALIGNMENT_DETAILS</text>
</a>
</g>
<g id="a_node1_1"><a xlink:href="/dictionaries/mmcif_modeling_v10.unix_1.04.dic/Items/_ma_alignment_details.ordinal_id.html" xlink:title="&lt;TABLE&gt;" target="_top">
<polygon fill="#ffff99" stroke="none" points="27.204,-404.5 27.204,-424.5 170.204,-424.5 170.204,-404.5 27.204,-404.5"/>
<polygon fill="none" stroke="black" points="27.204,-404.5 27.204,-424.5 170.204,-424.5 170.204,-404.5 27.204,-404.5"/>
<text text-anchor="start" x="32.204" y="-412.3" font-family="Helvetica,sans-Serif" font-size="9.00">ordinal_id</text>
</a>
</g>
<g id="a_node1_2"><a xlink:href="/dictionaries/mmcif_modeling_v10.unix_1.04.dic/Items/_ma_alignment_details.data_id.html" xlink:title="&lt;TABLE&gt;" target="_top">
<polygon fill="none" stroke="black" points="27.204,-384.5 27.204,-404.5 170.204,-404.5 170.204,-384.5 27.204,-384.5"/>
<text text-anchor="start" x="32.204" y="-392.3" font-family="Helvetica,sans-Serif" font-size="9.00">data_id</text>
</a>
</g>
<g id="a_node1_3"><a xlink:href="/dictionaries/mmcif_modeling_v10.unix_1.04.dic/Items/_ma_alignment_details.alignment_id.html" xlink:title="&lt;TABLE&gt;" target="_top">
<polygon fill="none" stroke="black" points="27.204,-364.5 27.204,-384.5 170.204,-384.5 170.204,-364.5 27.204,-364.5"/>
<text text-anchor="start" x="32.204" y="-372.3" font-family="Helvetica,sans-Serif" font-size="9.00">alignment_id</text>
</a>
</g>
<g id="a_node1_4"><a xlink:href="/dictionaries/mmcif_modeling_v10.unix_1.04.dic/Items/_ma_alignment_details.alignment_length.html" xlink:title="&lt;TABLE&gt;" target="_top">
<polygon fill="none" stroke="black" points="27.204,-344.5 27.204,-364.5 170.204,-364.5 170.204,-344.5 27.204,-344.5"/>
<text text-anchor="start" x="32.204" y="-352.3" font-family="Helvetica,sans-Serif" font-size="9.00">alignment_length</text>
</a>
</g>
<g id="a_node1_5"><a xlink:href="/dictionaries/mmcif_modeling_v10.unix_1.04.dic/Items/_ma_alignment_details.alignment_type.html" xlink:title="&lt;TABLE&gt;" target="_top">
<polygon fill="none" stroke="black" points="27.204,-324.5 27.204,-344.5 170.204,-344.5 170.204,-324.5 27.204,-324.5"/>
<text text-anchor="start" x="32.204" y="-332.3" font-family="Helvetica,sans-Serif" font-size="9.00">alignment_type</text>
</a>
</g>
<g id="a_node1_6"><a xlink:href="/dictionaries/mmcif_modeling_v10.unix_1.04.dic/Items/_ma_alignment_details.e_value.html" xlink:title="&lt;TABLE&gt;" target="_top">
<polygon fill="none" stroke="black" points="27.204,-304.5 27.204,-324.5 170.204,-324.5 170.204,-304.5 27.204,-304.5"/>
<text text-anchor="start" x="32.204" y="-312.3" font-family="Helvetica,sans-Serif" font-size="9.00">e_value</text>
</a>
</g>
<g id="a_node1_7"><a xlink:href="/dictionaries/mmcif_modeling_v10.unix_1.04.dic/Items/_ma_alignment_details.percent_sequence_identity.html" xlink:title="&lt;TABLE&gt;" target="_top">
<polygon fill="none" stroke="black" points="27.204,-284.5 27.204,-304.5 170.204,-304.5 170.204,-284.5 27.204,-284.5"/>
<text text-anchor="start" x="32.204" y="-292.3" font-family="Helvetica,sans-Serif" font-size="9.00">percent_sequence_identity</text>
</a>
</g>
<g id="a_node1_8"><a xlink:href="/dictionaries/mmcif_modeling_v10.unix_1.04.dic/Items/_ma_alignment_details.sequence_identity_denominator.html" xlink:title="&lt;TABLE&gt;" target="_top">
<polygon fill="none" stroke="black" points="27.204,-264.5 27.204,-284.5 170.204,-284.5 170.204,-264.5 27.204,-264.5"/>
<text text-anchor="start" x="32.204" y="-272.3" font-family="Helvetica,sans-Serif" font-size="9.00">sequence_identity_denominator</text>
</a>
</g>
<g id="a_node1_9"><a xlink:href="/dictionaries/mmcif_modeling_v10.unix_1.04.dic/Items/_ma_alignment_details.software_used.html" xlink:title="&lt;TABLE&gt;" target="_top">
<polygon fill="none" stroke="black" points="27.204,-244.5 27.204,-264.5 170.204,-264.5 170.204,-244.5 27.204,-244.5"/>
<text text-anchor="start" x="32.204" y="-252.3" font-family="Helvetica,sans-Serif" font-size="9.00">software_used</text>
</a>
</g>
<g id="a_node1_10"><a xlink:href="/dictionaries/mmcif_modeling_v10.unix_1.04.dic/Items/_ma_alignment_details.target_id.html" xlink:title="&lt;TABLE&gt;" target="_top">
<polygon fill="none" stroke="black" points="27.204,-224.5 27.204,-244.5 170.204,-244.5 170.204,-224.5 27.204,-224.5"/>
<text text-anchor="start" x="32.204" y="-232.3" font-family="Helvetica,sans-Serif" font-size="9.00">target_id</text>
</a>
</g>
<g id="a_node1_11"><a xlink:href="/dictionaries/mmcif_modeling_v10.unix_1.04.dic/Items/_ma_alignment_details.template_id.html" xlink:title="&lt;TABLE&gt;" target="_top">
<polygon fill="none" stroke="black" points="27.204,-204.5 27.204,-224.5 170.204,-224.5 170.204,-204.5 27.204,-204.5"/>
<text text-anchor="start" x="32.204" y="-212.3" font-family="Helvetica,sans-Serif" font-size="9.00">template_id</text>
</a>
</g>
</g>
<!-- _ma_data -->
<g id="node3" class="node"><title>_ma_data</title>
<g id="a_node3_12"><a xlink:href="/dictionaries/mmcif_modeling_v10.unix_1.04.dic/Categories/ma_data.html" xlink:title="&lt;TABLE&gt;" target="_top">
<polygon fill="#f0027f" stroke="none" points="317.204,-139.5 317.204,-160.5 380.204,-160.5 380.204,-139.5 317.204,-139.5"/>
<polygon fill="none" stroke="black" points="317.204,-139.5 317.204,-160.5 380.204,-160.5 380.204,-139.5 317.204,-139.5"/>
<text text-anchor="start" x="324.704" y="-147.5" font-family="Helvetica,sans-Serif" font-size="10.00">MA_DATA</text>
</a>
</g>
<g id="a_node3_13"><a xlink:href="/dictionaries/mmcif_modeling_v10.unix_1.04.dic/Items/_ma_data.id.html" xlink:title="&lt;TABLE&gt;" target="_top">
<polygon fill="#ffff99" stroke="none" points="317.204,-119.5 317.204,-139.5 380.204,-139.5 380.204,-119.5 317.204,-119.5"/>
<polygon fill="none" stroke="black" points="317.204,-119.5 317.204,-139.5 380.204,-139.5 380.204,-119.5 317.204,-119.5"/>
<text text-anchor="start" x="322.204" y="-127.3" font-family="Helvetica,sans-Serif" font-size="9.00">id</text>
</a>
</g>
<g id="a_node3_14"><a xlink:href="/dictionaries/mmcif_modeling_v10.unix_1.04.dic/Items/_ma_data.content_type.html" xlink:title="&lt;TABLE&gt;" target="_top">
<polygon fill="none" stroke="black" points="317.204,-99.5 317.204,-119.5 380.204,-119.5 380.204,-99.5 317.204,-99.5"/>
<text text-anchor="start" x="322.204" y="-107.3" font-family="Helvetica,sans-Serif" font-size="9.00">content_type</text>
</a>
</g>
<g id="a_node3_15"><a xlink:href="/dictionaries/mmcif_modeling_v10.unix_1.04.dic/Items/_ma_data.name.html" xlink:title="&lt;TABLE&gt;" target="_top">
<polygon fill="none" stroke="black" points="317.204,-79.5 317.204,-99.5 380.204,-99.5 380.204,-79.5 317.204,-79.5"/>
<text text-anchor="start" x="322.204" y="-87.3" font-family="Helvetica,sans-Serif" font-size="9.00">name</text>
</a>
</g>
</g>
<!-- _ma_alignment_details&#45;&gt;_ma_data -->
<g id="edge1" class="edge"><title>_ma_alignment_details:__data_id:w&#45;&gt;_ma_data:__id:w</title>
<path fill="none" stroke="black" d="M26.204,-394.5C-16.7966,-394.5 0.612141,-234.792 27.204,-201 66.1992,-151.446 233.3,-131.4 306.164,-129.63"/>
<polygon fill="black" stroke="black" points="306.25,-133.129 316.204,-129.5 306.16,-126.13 306.25,-133.129"/>
</g>
<!-- _ma_criteria -->
<g id="node2" class="node"><title>_ma_criteria</title>
<g id="a_node2_16"><a xlink:href="/dictionaries/mmcif_modeling_v10.unix_1.04.dic/Categories/ma_criteria.html" xlink:title="&lt;TABLE&gt;" target="_top">
<polygon fill="#99c49b" stroke="none" points="204.204,-364.5 204.204,-385.5 283.204,-385.5 283.204,-364.5 204.204,-364.5"/>
<polygon fill="none" stroke="black" points="204.204,-364.5 204.204,-385.5 283.204,-385.5 283.204,-364.5 204.204,-364.5"/>
<text text-anchor="start" x="209.204" y="-372.5" font-family="Helvetica,sans-Serif" font-size="10.00">MA_CRITERIA</text>
</a>
</g>
<g id="a_node2_17"><a xlink:href="/dictionaries/mmcif_modeling_v10.unix_1.04.dic/Items/_ma_criteria.ordinal_id.html" xlink:title="&lt;TABLE&gt;" target="_top">
<polygon fill="#ffff99" stroke="none" points="204.204,-344.5 204.204,-364.5 283.204,-364.5 283.204,-344.5 204.204,-344.5"/>
<polygon fill="none" stroke="black" points="204.204,-344.5 204.204,-364.5 283.204,-364.5 283.204,-344.5 204.204,-344.5"/>
<text text-anchor="start" x="209.204" y="-352.3" font-family="Helvetica,sans-Serif" font-size="9.00">ordinal_id</text>
</a>
</g>
<g id="a_node2_18"><a xlink:href="/dictionaries/mmcif_modeling_v10.unix_1.04.dic/Items/_ma_criteria.data_id.html" xlink:title="&lt;TABLE&gt;" target="_top">
<polygon fill="none" stroke="black" points="204.204,-324.5 204.204,-344.5 283.204,-344.5 283.204,-324.5 204.204,-324.5"/>
<text text-anchor="start" x="209.204" y="-332.3" font-family="Helvetica,sans-Serif" font-size="9.00">data_id</text>
</a>
</g>
<g id="a_node2_19"><a xlink:href="/dictionaries/mmcif_modeling_v10.unix_1.04.dic/Items/_ma_criteria.name.html" xlink:title="&lt;TABLE&gt;" target="_top">
<polygon fill="none" stroke="black" points="204.204,-304.5 204.204,-324.5 283.204,-324.5 283.204,-304.5 204.204,-304.5"/>
<text text-anchor="start" x="209.204" y="-312.3" font-family="Helvetica,sans-Serif" font-size="9.00">name</text>
</a>
</g>
<g id="a_node2_20"><a xlink:href="/dictionaries/mmcif_modeling_v10.unix_1.04.dic/Items/_ma_criteria.type.html" xlink:title="&lt;TABLE&gt;" target="_top">
<polygon fill="none" stroke="black" points="204.204,-284.5 204.204,-304.5 283.204,-304.5 283.204,-284.5 204.204,-284.5"/>
<text text-anchor="start" x="209.204" y="-292.3" font-family="Helvetica,sans-Serif" font-size="9.00">type</text>
</a>
</g>
<g id="a_node2_21"><a xlink:href="/dictionaries/mmcif_modeling_v10.unix_1.04.dic/Items/_ma_criteria.value.html" xlink:title="&lt;TABLE&gt;" target="_top">
<polygon fill="none" stroke="black" points="204.204,-264.5 204.204,-284.5 283.204,-284.5 283.204,-264.5 204.204,-264.5"/>
<text text-anchor="start" x="209.204" y="-272.3" font-family="Helvetica,sans-Serif" font-size="9.00">value</text>
</a>
</g>
</g>
<!-- _ma_criteria&#45;&gt;_ma_data -->
<g id="edge2" class="edge"><title>_ma_criteria:__ordinal_id:w&#45;&gt;_ma_data:__id:w</title>
<path fill="none" stroke="black" d="M203.204,-354.5C182.425,-354.5 196.921,-280.461 204.204,-261 229.85,-192.47 238.613,-135.115 305.851,-129.888"/>
<polygon fill="black" stroke="black" points="306.342,-133.372 316.204,-129.5 306.08,-126.377 306.342,-133.372"/>
</g>
<!-- _ma_restraints -->
<g id="node4" class="node"><title>_ma_restraints</title>
<g id="a_node4_22"><a xlink:href="/dictionaries/mmcif_modeling_v10.unix_1.04.dic/Categories/ma_restraints.html" xlink:title="&lt;TABLE&gt;" target="_top">
<polygon fill="#99c49b" stroke="none" points="317.204,-374.5 317.204,-395.5 412.204,-395.5 412.204,-374.5 317.204,-374.5"/>
<polygon fill="none" stroke="black" points="317.204,-374.5 317.204,-395.5 412.204,-395.5 412.204,-374.5 317.204,-374.5"/>
<text text-anchor="start" x="322.204" y="-382.5" font-family="Helvetica,sans-Serif" font-size="10.00">MA_RESTRAINTS</text>
</a>
</g>
<g id="a_node4_23"><a xlink:href="/dictionaries/mmcif_modeling_v10.unix_1.04.dic/Items/_ma_restraints.ordinal_id.html" xlink:title="&lt;TABLE&gt;" target="_top">
<polygon fill="#ffff99" stroke="none" points="317.204,-354.5 317.204,-374.5 412.204,-374.5 412.204,-354.5 317.204,-354.5"/>
<polygon fill="none" stroke="black" points="317.204,-354.5 317.204,-374.5 412.204,-374.5 412.204,-354.5 317.204,-354.5"/>
<text text-anchor="start" x="322.204" y="-362.3" font-family="Helvetica,sans-Serif" font-size="9.00">ordinal_id</text>
</a>
</g>
<g id="a_node4_24"><a xlink:href="/dictionaries/mmcif_modeling_v10.unix_1.04.dic/Items/_ma_restraints.data_id.html" xlink:title="&lt;TABLE&gt;" target="_top">
<polygon fill="none" stroke="black" points="317.204,-334.5 317.204,-354.5 412.204,-354.5 412.204,-334.5 317.204,-334.5"/>
<text text-anchor="start" x="322.204" y="-342.3" font-family="Helvetica,sans-Serif" font-size="9.00">data_id</text>
</a>
</g>
<g id="a_node4_25"><a xlink:href="/dictionaries/mmcif_modeling_v10.unix_1.04.dic/Items/_ma_restraints.details.html" xlink:title="&lt;TABLE&gt;" target="_top">
<polygon fill="none" stroke="black" points="317.204,-314.5 317.204,-334.5 412.204,-334.5 412.204,-314.5 317.204,-314.5"/>
<text text-anchor="start" x="322.204" y="-322.3" font-family="Helvetica,sans-Serif" font-size="9.00">details</text>
</a>
</g>
<g id="a_node4_26"><a xlink:href="/dictionaries/mmcif_modeling_v10.unix_1.04.dic/Items/_ma_restraints.name.html" xlink:title="&lt;TABLE&gt;" target="_top">
<polygon fill="none" stroke="black" points="317.204,-294.5 317.204,-314.5 412.204,-314.5 412.204,-294.5 317.204,-294.5"/>
<text text-anchor="start" x="322.204" y="-302.3" font-family="Helvetica,sans-Serif" font-size="9.00">name</text>
</a>
</g>
<g id="a_node4_27"><a xlink:href="/dictionaries/mmcif_modeling_v10.unix_1.04.dic/Items/_ma_restraints.restraint_id.html" xlink:title="&lt;TABLE&gt;" target="_top">
<polygon fill="none" stroke="black" points="317.204,-274.5 317.204,-294.5 412.204,-294.5 412.204,-274.5 317.204,-274.5"/>
<text text-anchor="start" x="322.204" y="-282.3" font-family="Helvetica,sans-Serif" font-size="9.00">restraint_id</text>
</a>
</g>
<g id="a_node4_28"><a xlink:href="/dictionaries/mmcif_modeling_v10.unix_1.04.dic/Items/_ma_restraints.restraint_type.html" xlink:title="&lt;TABLE&gt;" target="_top">
<polygon fill="none" stroke="black" points="317.204,-254.5 317.204,-274.5 412.204,-274.5 412.204,-254.5 317.204,-254.5"/>
<text text-anchor="start" x="322.204" y="-262.3" font-family="Helvetica,sans-Serif" font-size="9.00">restraint_type</text>
</a>
</g>
</g>
<!-- _ma_restraints&#45;&gt;_ma_data -->
<g id="edge3" class="edge"><title>_ma_restraints:__data_id:w&#45;&gt;_ma_data:__id:w</title>
<path fill="none" stroke="black" d="M316.204,-344.5C305.753,-344.5 304.446,-179.891 312.285,-138.738"/>
<polygon fill="black" stroke="black" points="315.521,-140.073 316.204,-129.5 309.076,-137.339 315.521,-140.073"/>
</g>
<!-- _ma_step_input -->
<g id="node5" class="node"><title>_ma_step_input</title>
<g id="a_node5_29"><a xlink:href="/dictionaries/mmcif_modeling_v10.unix_1.04.dic/Categories/ma_step_input.html" xlink:title="&lt;TABLE&gt;" target="_top">
<polygon fill="#99c49b" stroke="none" points="446.204,-364.5 446.204,-385.5 539.204,-385.5 539.204,-364.5 446.204,-364.5"/>
<polygon fill="none" stroke="black" points="446.204,-364.5 446.204,-385.5 539.204,-385.5 539.204,-364.5 446.204,-364.5"/>
<text text-anchor="start" x="451.204" y="-372.5" font-family="Helvetica,sans-Serif" font-size="10.00">MA_STEP_INPUT</text>
</a>
</g>
<g id="a_node5_30"><a xlink:href="/dictionaries/mmcif_modeling_v10.unix_1.04.dic/Items/_ma_step_input.id.html" xlink:title="&lt;TABLE&gt;" target="_top">
<polygon fill="#ffff99" stroke="none" points="446.204,-344.5 446.204,-364.5 539.204,-364.5 539.204,-344.5 446.204,-344.5"/>
<polygon fill="none" stroke="black" points="446.204,-344.5 446.204,-364.5 539.204,-364.5 539.204,-344.5 446.204,-344.5"/>
<text text-anchor="start" x="451.204" y="-352.3" font-family="Helvetica,sans-Serif" font-size="9.00">id</text>
</a>
</g>
<g id="a_node5_31"><a xlink:href="/dictionaries/mmcif_modeling_v10.unix_1.04.dic/Items/_ma_step_input.data_id.html" xlink:title="&lt;TABLE&gt;" target="_top">
<polygon fill="none" stroke="black" points="446.204,-324.5 446.204,-344.5 539.204,-344.5 539.204,-324.5 446.204,-324.5"/>
<text text-anchor="start" x="451.204" y="-332.3" font-family="Helvetica,sans-Serif" font-size="9.00">data_id</text>
</a>
</g>
<g id="a_node5_32"><a xlink:href="/dictionaries/mmcif_modeling_v10.unix_1.04.dic/Items/_ma_step_input.content_sub_type.html" xlink:title="&lt;TABLE&gt;" target="_top">
<polygon fill="none" stroke="black" points="446.204,-304.5 446.204,-324.5 539.204,-324.5 539.204,-304.5 446.204,-304.5"/>
<text text-anchor="start" x="451.204" y="-312.3" font-family="Helvetica,sans-Serif" font-size="9.00">content_sub_type</text>
</a>
</g>
<g id="a_node5_33"><a xlink:href="/dictionaries/mmcif_modeling_v10.unix_1.04.dic/Items/_ma_step_input.protocol_id.html" xlink:title="&lt;TABLE&gt;" target="_top">
<polygon fill="none" stroke="black" points="446.204,-284.5 446.204,-304.5 539.204,-304.5 539.204,-284.5 446.204,-284.5"/>
<text text-anchor="start" x="451.204" y="-292.3" font-family="Helvetica,sans-Serif" font-size="9.00">protocol_id</text>
</a>
</g>
<g id="a_node5_34"><a xlink:href="/dictionaries/mmcif_modeling_v10.unix_1.04.dic/Items/_ma_step_input.step_id.html" xlink:title="&lt;TABLE&gt;" target="_top">
<polygon fill="none" stroke="black" points="446.204,-264.5 446.204,-284.5 539.204,-284.5 539.204,-264.5 446.204,-264.5"/>
<text text-anchor="start" x="451.204" y="-272.3" font-family="Helvetica,sans-Serif" font-size="9.00">step_id</text>
</a>
</g>
</g>
<!-- _ma_step_input&#45;&gt;_ma_data -->
<g id="edge4" class="edge"><title>_ma_step_input:__data_id:w&#45;&gt;_ma_data:__id:w</title>
<path fill="none" stroke="black" d="M445.204,-334.5C415.325,-334.5 448.212,-224.053 429.204,-201 395.941,-160.659 348.596,-206.814 317.204,-165 310.689,-156.322 305.199,-142.797 307.533,-135.191"/>
<polygon fill="black" stroke="black" points="309.764,-137.913 316.204,-129.5 305.923,-132.061 309.764,-137.913"/>
</g>
<!-- _ma_step_output -->
<g id="node6" class="node"><title>_ma_step_output</title>
<g id="a_node6_35"><a xlink:href="/dictionaries/mmcif_modeling_v10.unix_1.04.dic/Categories/ma_step_output.html" xlink:title="&lt;TABLE&gt;" target="_top">
<polygon fill="#99c49b" stroke="none" points="573.204,-364.5 573.204,-385.5 677.204,-385.5 677.204,-364.5 573.204,-364.5"/>
<polygon fill="none" stroke="black" points="573.204,-364.5 573.204,-385.5 677.204,-385.5 677.204,-364.5 573.204,-364.5"/>
<text text-anchor="start" x="578.204" y="-372.5" font-family="Helvetica,sans-Serif" font-size="10.00">MA_STEP_OUTPUT</text>
</a>
</g>
<g id="a_node6_36"><a xlink:href="/dictionaries/mmcif_modeling_v10.unix_1.04.dic/Items/_ma_step_output.id.html" xlink:title="&lt;TABLE&gt;" target="_top">
<polygon fill="#ffff99" stroke="none" points="573.204,-344.5 573.204,-364.5 677.204,-364.5 677.204,-344.5 573.204,-344.5"/>
<polygon fill="none" stroke="black" points="573.204,-344.5 573.204,-364.5 677.204,-364.5 677.204,-344.5 573.204,-344.5"/>
<text text-anchor="start" x="578.204" y="-352.3" font-family="Helvetica,sans-Serif" font-size="9.00">id</text>
</a>
</g>
<g id="a_node6_37"><a xlink:href="/dictionaries/mmcif_modeling_v10.unix_1.04.dic/Items/_ma_step_output.data_id.html" xlink:title="&lt;TABLE&gt;" target="_top">
<polygon fill="none" stroke="black" points="573.204,-324.5 573.204,-344.5 677.204,-344.5 677.204,-324.5 573.204,-324.5"/>
<text text-anchor="start" x="578.204" y="-332.3" font-family="Helvetica,sans-Serif" font-size="9.00">data_id</text>
</a>
</g>
<g id="a_node6_38"><a xlink:href="/dictionaries/mmcif_modeling_v10.unix_1.04.dic/Items/_ma_step_output.content_sub_type.html" xlink:title="&lt;TABLE&gt;" target="_top">
<polygon fill="none" stroke="black" points="573.204,-304.5 573.204,-324.5 677.204,-324.5 677.204,-304.5 573.204,-304.5"/>
<text text-anchor="start" x="578.204" y="-312.3" font-family="Helvetica,sans-Serif" font-size="9.00">content_sub_type</text>
</a>
</g>
<g id="a_node6_39"><a xlink:href="/dictionaries/mmcif_modeling_v10.unix_1.04.dic/Items/_ma_step_output.protocol_id.html" xlink:title="&lt;TABLE&gt;" target="_top">
<polygon fill="none" stroke="black" points="573.204,-284.5 573.204,-304.5 677.204,-304.5 677.204,-284.5 573.204,-284.5"/>
<text text-anchor="start" x="578.204" y="-292.3" font-family="Helvetica,sans-Serif" font-size="9.00">protocol_id</text>
</a>
</g>
<g id="a_node6_40"><a xlink:href="/dictionaries/mmcif_modeling_v10.unix_1.04.dic/Items/_ma_step_output.step_id.html" xlink:title="&lt;TABLE&gt;" target="_top">
<polygon fill="none" stroke="black" points="573.204,-264.5 573.204,-284.5 677.204,-284.5 677.204,-264.5 573.204,-264.5"/>
<text text-anchor="start" x="578.204" y="-272.3" font-family="Helvetica,sans-Serif" font-size="9.00">step_id</text>
</a>
</g>
</g>
<!-- _ma_step_output&#45;&gt;_ma_data -->
<g id="edge5" class="edge"><title>_ma_step_output:__data_id:w&#45;&gt;_ma_data:__id:w</title>
<path fill="none" stroke="black" d="M572.204,-334.5C542.325,-334.5 577.01,-222.444 556.204,-201 481.403,-123.903 388.416,-245.424 317.204,-165 309.847,-156.691 304.538,-142.516 307.521,-134.832"/>
<polygon fill="black" stroke="black" points="309.514,-137.715 316.204,-129.5 305.851,-131.75 309.514,-137.715"/>
</g>
</g>
</svg>
