<?xml version="1.0" encoding="UTF-8" standalone="no"?>
<!DOCTYPE svg PUBLIC "-//W3C//DTD SVG 1.1//EN"
 "http://www.w3.org/Graphics/SVG/1.1/DTD/svg11.dtd">
<!-- Generated by graphviz version 2.38.0 (20140413.2041)
 -->
<!-- Title: ma_distance_restraints Pages: 1 -->
<svg width="673pt" height="954pt"
 viewBox="0.00 0.00 672.52 954.00" xmlns="http://www.w3.org/2000/svg" xmlns:xlink="http://www.w3.org/1999/xlink">
<g id="graph0" class="graph" transform="scale(1 1) rotate(0) translate(4 950)">
<title>ma_distance_restraints</title>
<polygon fill="white" stroke="none" points="-4,4 -4,-950 668.516,-950 668.516,4 -4,4"/>
<text text-anchor="start" x="329.258" y="-58.6" font-family="Helvetica,sans-Serif" font-size="18.00"> </text>
<text text-anchor="start" x="329.258" y="-40.6" font-family="Helvetica,sans-Serif" font-size="18.00"> </text>
<text text-anchor="start" x="58.7581" y="-22.6" font-family="Helvetica,sans-Serif" font-size="18.00"> Category Relationship Diagram for </text>
<text text-anchor="start" x="341.758" y="-22.6" font-family="Helvetica,sans-Serif" font-weight="bold" font-size="18.00">MA_DISTANCE_RESTRAINTS</text>
<text text-anchor="start" x="595.758" y="-22.6" font-family="Helvetica,sans-Serif" font-size="18.00"> </text>
<text text-anchor="start" x="601.758" y="-22.6" font-family="Helvetica,sans-Serif" font-size="14.00"> </text>
<text text-anchor="start" x="198.258" y="-7.8" font-family="Helvetica,sans-Serif" font-size="14.00"> &#160;in dictionary mmcif_pdbx.dic version 5.296 </text>
<!-- _chem_comp_atom -->
<g id="node1" class="node"><title>_chem_comp_atom</title>
<g id="a_node1_0"><a xlink:href="/dictionaries/mmcif_pdbx_modeling_extension_all.dic/Categories/chem_comp_atom.html" xlink:title="&lt;TABLE&gt;" target="_top">
<polygon fill="#99c49b" stroke="none" points="9.51629,-495.5 9.51629,-516.5 131.516,-516.5 131.516,-495.5 9.51629,-495.5"/>
<polygon fill="none" stroke="black" points="9.51629,-495.5 9.51629,-516.5 131.516,-516.5 131.516,-495.5 9.51629,-495.5"/>
<text text-anchor="start" x="20.5163" y="-503.5" font-family="Helvetica,sans-Serif" font-size="10.00">CHEM_COMP_ATOM</text>
</a>
</g>
<g id="a_node1_1"><a xlink:href="/dictionaries/mmcif_pdbx_modeling_extension_all.dic/Items/_chem_comp_atom.atom_id.html" xlink:title="&lt;TABLE&gt;" target="_top">
<polygon fill="#ffff99" stroke="none" points="9.51629,-475.5 9.51629,-495.5 131.516,-495.5 131.516,-475.5 9.51629,-475.5"/>
<polygon fill="none" stroke="black" points="9.51629,-475.5 9.51629,-495.5 131.516,-495.5 131.516,-475.5 9.51629,-475.5"/>
<text text-anchor="start" x="14.5163" y="-483.3" font-family="Helvetica,sans-Serif" font-size="9.00">atom_id</text>
</a>
</g>
<g id="a_node1_2"><a xlink:href="/dictionaries/mmcif_pdbx_modeling_extension_all.dic/Items/_chem_comp_atom.comp_id.html" xlink:title="&lt;TABLE&gt;" target="_top">
<polygon fill="#ffff99" stroke="none" points="9.51629,-455.5 9.51629,-475.5 131.516,-475.5 131.516,-455.5 9.51629,-455.5"/>
<polygon fill="none" stroke="black" points="9.51629,-455.5 9.51629,-475.5 131.516,-475.5 131.516,-455.5 9.51629,-455.5"/>
<text text-anchor="start" x="14.5163" y="-463.3" font-family="Helvetica,sans-Serif" font-size="9.00">comp_id</text>
</a>
</g>
<g id="a_node1_3"><a xlink:href="/dictionaries/mmcif_pdbx_modeling_extension_all.dic/Items/_chem_comp_atom.alt_atom_id.html" xlink:title="&lt;TABLE&gt;" target="_top">
<polygon fill="none" stroke="black" points="9.51629,-435.5 9.51629,-455.5 131.516,-455.5 131.516,-435.5 9.51629,-435.5"/>
<text text-anchor="start" x="14.5163" y="-443.3" font-family="Helvetica,sans-Serif" font-size="9.00">alt_atom_id</text>
</a>
</g>
<g id="a_node1_4"><a xlink:href="/dictionaries/mmcif_pdbx_modeling_extension_all.dic/Items/_chem_comp_atom.charge.html" xlink:title="&lt;TABLE&gt;" target="_top">
<polygon fill="none" stroke="black" points="9.51629,-415.5 9.51629,-435.5 131.516,-435.5 131.516,-415.5 9.51629,-415.5"/>
<text text-anchor="start" x="14.5163" y="-423.3" font-family="Helvetica,sans-Serif" font-size="9.00">charge</text>
</a>
</g>
<g id="a_node1_5"><a xlink:href="/dictionaries/mmcif_pdbx_modeling_extension_all.dic/Items/_chem_comp_atom.model_Cartn_x.html" xlink:title="&lt;TABLE&gt;" target="_top">
<polygon fill="none" stroke="black" points="9.51629,-395.5 9.51629,-415.5 131.516,-415.5 131.516,-395.5 9.51629,-395.5"/>
<text text-anchor="start" x="14.5163" y="-403.3" font-family="Helvetica,sans-Serif" font-size="9.00">model_Cartn_x</text>
</a>
</g>
<g id="a_node1_6"><a xlink:href="/dictionaries/mmcif_pdbx_modeling_extension_all.dic/Items/_chem_comp_atom.model_Cartn_x_esd.html" xlink:title="&lt;TABLE&gt;" target="_top">
<polygon fill="none" stroke="black" points="9.51629,-375.5 9.51629,-395.5 131.516,-395.5 131.516,-375.5 9.51629,-375.5"/>
<text text-anchor="start" x="14.5163" y="-383.3" font-family="Helvetica,sans-Serif" font-size="9.00">model_Cartn_x_esd</text>
</a>
</g>
<g id="a_node1_7"><a xlink:href="/dictionaries/mmcif_pdbx_modeling_extension_all.dic/Items/_chem_comp_atom.model_Cartn_y.html" xlink:title="&lt;TABLE&gt;" target="_top">
<polygon fill="none" stroke="black" points="9.51629,-355.5 9.51629,-375.5 131.516,-375.5 131.516,-355.5 9.51629,-355.5"/>
<text text-anchor="start" x="14.5163" y="-363.3" font-family="Helvetica,sans-Serif" font-size="9.00">model_Cartn_y</text>
</a>
</g>
<g id="a_node1_8"><a xlink:href="/dictionaries/mmcif_pdbx_modeling_extension_all.dic/Items/_chem_comp_atom.model_Cartn_y_esd.html" xlink:title="&lt;TABLE&gt;" target="_top">
<polygon fill="none" stroke="black" points="9.51629,-335.5 9.51629,-355.5 131.516,-355.5 131.516,-335.5 9.51629,-335.5"/>
<text text-anchor="start" x="14.5163" y="-343.3" font-family="Helvetica,sans-Serif" font-size="9.00">model_Cartn_y_esd</text>
</a>
</g>
<g id="a_node1_9"><a xlink:href="/dictionaries/mmcif_pdbx_modeling_extension_all.dic/Items/_chem_comp_atom.model_Cartn_z.html" xlink:title="&lt;TABLE&gt;" target="_top">
<polygon fill="none" stroke="black" points="9.51629,-315.5 9.51629,-335.5 131.516,-335.5 131.516,-315.5 9.51629,-315.5"/>
<text text-anchor="start" x="14.5163" y="-323.3" font-family="Helvetica,sans-Serif" font-size="9.00">model_Cartn_z</text>
</a>
</g>
<g id="a_node1_10"><a xlink:href="/dictionaries/mmcif_pdbx_modeling_extension_all.dic/Items/_chem_comp_atom.model_Cartn_z_esd.html" xlink:title="&lt;TABLE&gt;" target="_top">
<polygon fill="none" stroke="black" points="9.51629,-295.5 9.51629,-315.5 131.516,-315.5 131.516,-295.5 9.51629,-295.5"/>
<text text-anchor="start" x="14.5163" y="-303.3" font-family="Helvetica,sans-Serif" font-size="9.00">model_Cartn_z_esd</text>
</a>
</g>
<g id="a_node1_11"><a xlink:href="/dictionaries/mmcif_pdbx_modeling_extension_all.dic/Items/_chem_comp_atom.partial_charge.html" xlink:title="&lt;TABLE&gt;" target="_top">
<polygon fill="none" stroke="black" points="9.51629,-275.5 9.51629,-295.5 131.516,-295.5 131.516,-275.5 9.51629,-275.5"/>
<text text-anchor="start" x="14.5163" y="-283.3" font-family="Helvetica,sans-Serif" font-size="9.00">partial_charge</text>
</a>
</g>
<g id="a_node1_12"><a xlink:href="/dictionaries/mmcif_pdbx_modeling_extension_all.dic/Items/_chem_comp_atom.pdbx_align.html" xlink:title="&lt;TABLE&gt;" target="_top">
<polygon fill="none" stroke="black" points="9.51629,-255.5 9.51629,-275.5 131.516,-275.5 131.516,-255.5 9.51629,-255.5"/>
<text text-anchor="start" x="14.5163" y="-263.3" font-family="Helvetica,sans-Serif" font-size="9.00">pdbx_align</text>
</a>
</g>
<g id="a_node1_13"><a xlink:href="/dictionaries/mmcif_pdbx_modeling_extension_all.dic/Items/_chem_comp_atom.pdbx_alt_atom_id.html" xlink:title="&lt;TABLE&gt;" target="_top">
<polygon fill="none" stroke="black" points="9.51629,-235.5 9.51629,-255.5 131.516,-255.5 131.516,-235.5 9.51629,-235.5"/>
<text text-anchor="start" x="14.5163" y="-243.3" font-family="Helvetica,sans-Serif" font-size="9.00">pdbx_alt_atom_id</text>
</a>
</g>
<g id="a_node1_14"><a xlink:href="/dictionaries/mmcif_pdbx_modeling_extension_all.dic/Items/_chem_comp_atom.pdbx_alt_comp_id.html" xlink:title="&lt;TABLE&gt;" target="_top">
<polygon fill="none" stroke="black" points="9.51629,-215.5 9.51629,-235.5 131.516,-235.5 131.516,-215.5 9.51629,-215.5"/>
<text text-anchor="start" x="14.5163" y="-223.3" font-family="Helvetica,sans-Serif" font-size="9.00">pdbx_alt_comp_id</text>
</a>
</g>
<g id="a_node1_15"><a xlink:href="/dictionaries/mmcif_pdbx_modeling_extension_all.dic/Items/_chem_comp_atom.pdbx_aromatic_flag.html" xlink:title="&lt;TABLE&gt;" target="_top">
<polygon fill="none" stroke="black" points="9.51629,-195.5 9.51629,-215.5 131.516,-215.5 131.516,-195.5 9.51629,-195.5"/>
<text text-anchor="start" x="14.5163" y="-203.3" font-family="Helvetica,sans-Serif" font-size="9.00">pdbx_aromatic_flag</text>
</a>
</g>
<g id="a_node1_16"><a xlink:href="/dictionaries/mmcif_pdbx_modeling_extension_all.dic/Items/_chem_comp_atom.pdbx_component_atom_id.html" xlink:title="&lt;TABLE&gt;" target="_top">
<polygon fill="none" stroke="black" points="9.51629,-175.5 9.51629,-195.5 131.516,-195.5 131.516,-175.5 9.51629,-175.5"/>
<text text-anchor="start" x="14.5163" y="-183.3" font-family="Helvetica,sans-Serif" font-size="9.00">pdbx_component_atom_id</text>
</a>
</g>
<g id="a_node1_17"><a xlink:href="/dictionaries/mmcif_pdbx_modeling_extension_all.dic/Items/_chem_comp_atom.pdbx_component_comp_id.html" xlink:title="&lt;TABLE&gt;" target="_top">
<polygon fill="none" stroke="black" points="9.51629,-155.5 9.51629,-175.5 131.516,-175.5 131.516,-155.5 9.51629,-155.5"/>
<text text-anchor="start" x="14.5163" y="-163.3" font-family="Helvetica,sans-Serif" font-size="9.00">pdbx_component_comp_id</text>
</a>
</g>
<g id="a_node1_18"><a xlink:href="/dictionaries/mmcif_pdbx_modeling_extension_all.dic/Items/_chem_comp_atom.pdbx_component_entity_id.html" xlink:title="&lt;TABLE&gt;" target="_top">
<polygon fill="none" stroke="black" points="9.51629,-135.5 9.51629,-155.5 131.516,-155.5 131.516,-135.5 9.51629,-135.5"/>
<text text-anchor="start" x="14.5163" y="-143.3" font-family="Helvetica,sans-Serif" font-size="9.00">pdbx_component_entity_id</text>
</a>
</g>
<g id="a_node1_19"><a xlink:href="/dictionaries/mmcif_pdbx_modeling_extension_all.dic/Items/_chem_comp_atom.pdbx_component_id.html" xlink:title="&lt;TABLE&gt;" target="_top">
<polygon fill="none" stroke="black" points="9.51629,-115.5 9.51629,-135.5 131.516,-135.5 131.516,-115.5 9.51629,-115.5"/>
<text text-anchor="start" x="14.5163" y="-123.3" font-family="Helvetica,sans-Serif" font-size="9.00">pdbx_component_id</text>
</a>
</g>
<g id="a_node1_20"><a xlink:href="/dictionaries/mmcif_pdbx_modeling_extension_all.dic/Items/_chem_comp_atom.pdbx_leaving_atom_flag.html" xlink:title="&lt;TABLE&gt;" target="_top">
<polygon fill="none" stroke="black" points="9.51629,-95.5 9.51629,-115.5 131.516,-115.5 131.516,-95.5 9.51629,-95.5"/>
<text text-anchor="start" x="14.5163" y="-103.3" font-family="Helvetica,sans-Serif" font-size="9.00">pdbx_leaving_atom_flag</text>
</a>
</g>
<polygon fill="none" stroke="black" points="9.51629,-79.5 9.51629,-95.5 131.516,-95.5 131.516,-79.5 9.51629,-79.5"/>
<text text-anchor="start" x="39.5163" y="-85.3" font-family="Helvetica,sans-Serif" font-size="9.00">... and others ...</text>
</g>
<!-- _entity_poly_seq -->
<g id="node2" class="node"><title>_entity_poly_seq</title>
<g id="a_node2_21"><a xlink:href="/dictionaries/mmcif_pdbx_modeling_extension_all.dic/Categories/entity_poly_seq.html" xlink:title="&lt;TABLE&gt;" target="_top">
<polygon fill="#99c49b" stroke="none" points="165.516,-327.5 165.516,-348.5 269.516,-348.5 269.516,-327.5 165.516,-327.5"/>
<polygon fill="none" stroke="black" points="165.516,-327.5 165.516,-348.5 269.516,-348.5 269.516,-327.5 165.516,-327.5"/>
<text text-anchor="start" x="170.516" y="-335.5" font-family="Helvetica,sans-Serif" font-size="10.00">ENTITY_POLY_SEQ</text>
</a>
</g>
<g id="a_node2_22"><a xlink:href="/dictionaries/mmcif_pdbx_modeling_extension_all.dic/Items/_entity_poly_seq.entity_id.html" xlink:title="&lt;TABLE&gt;" target="_top">
<polygon fill="#ffff99" stroke="none" points="165.516,-307.5 165.516,-327.5 269.516,-327.5 269.516,-307.5 165.516,-307.5"/>
<polygon fill="none" stroke="black" points="165.516,-307.5 165.516,-327.5 269.516,-327.5 269.516,-307.5 165.516,-307.5"/>
<text text-anchor="start" x="170.516" y="-315.3" font-family="Helvetica,sans-Serif" font-size="9.00">entity_id</text>
</a>
</g>
<g id="a_node2_23"><a xlink:href="/dictionaries/mmcif_pdbx_modeling_extension_all.dic/Items/_entity_poly_seq.mon_id.html" xlink:title="&lt;TABLE&gt;" target="_top">
<polygon fill="#ffff99" stroke="none" points="165.516,-287.5 165.516,-307.5 269.516,-307.5 269.516,-287.5 165.516,-287.5"/>
<polygon fill="none" stroke="black" points="165.516,-287.5 165.516,-307.5 269.516,-307.5 269.516,-287.5 165.516,-287.5"/>
<text text-anchor="start" x="170.516" y="-295.3" font-family="Helvetica,sans-Serif" font-size="9.00">mon_id</text>
</a>
</g>
<g id="a_node2_24"><a xlink:href="/dictionaries/mmcif_pdbx_modeling_extension_all.dic/Items/_entity_poly_seq.num.html" xlink:title="&lt;TABLE&gt;" target="_top">
<polygon fill="#ffff99" stroke="none" points="165.516,-267.5 165.516,-287.5 269.516,-287.5 269.516,-267.5 165.516,-267.5"/>
<polygon fill="none" stroke="black" points="165.516,-267.5 165.516,-287.5 269.516,-287.5 269.516,-267.5 165.516,-267.5"/>
<text text-anchor="start" x="170.516" y="-275.3" font-family="Helvetica,sans-Serif" font-size="9.00">num</text>
</a>
</g>
<g id="a_node2_25"><a xlink:href="/dictionaries/mmcif_pdbx_modeling_extension_all.dic/Items/_entity_poly_seq.hetero.html" xlink:title="&lt;TABLE&gt;" target="_top">
<polygon fill="none" stroke="black" points="165.516,-247.5 165.516,-267.5 269.516,-267.5 269.516,-247.5 165.516,-247.5"/>
<text text-anchor="start" x="170.516" y="-255.3" font-family="Helvetica,sans-Serif" font-size="9.00">hetero</text>
</a>
</g>
</g>
<!-- _ma_distance_restraints -->
<g id="node3" class="node"><title>_ma_distance_restraints</title>
<g id="a_node3_26"><a xlink:href="/dictionaries/mmcif_pdbx_modeling_extension_all.dic/Categories/ma_distance_restraints.html" xlink:title="&lt;TABLE&gt;" target="_top">
<polygon fill="#f0027f" stroke="none" points="165.516,-920.5 165.516,-941.5 317.516,-941.5 317.516,-920.5 165.516,-920.5"/>
<polygon fill="none" stroke="black" points="165.516,-920.5 165.516,-941.5 317.516,-941.5 317.516,-920.5 165.516,-920.5"/>
<text text-anchor="start" x="170.516" y="-928.5" font-family="Helvetica,sans-Serif" font-size="10.00">MA_DISTANCE_RESTRAINTS</text>
</a>
</g>
<g id="a_node3_27"><a xlink:href="/dictionaries/mmcif_pdbx_modeling_extension_all.dic/Items/_ma_distance_restraints.ordinal_id.html" xlink:title="&lt;TABLE&gt;" target="_top">
<polygon fill="#ffff99" stroke="none" points="165.516,-900.5 165.516,-920.5 317.516,-920.5 317.516,-900.5 165.516,-900.5"/>
<polygon fill="none" stroke="black" points="165.516,-900.5 165.516,-920.5 317.516,-920.5 317.516,-900.5 165.516,-900.5"/>
<text text-anchor="start" x="170.516" y="-908.3" font-family="Helvetica,sans-Serif" font-size="9.00">ordinal_id</text>
</a>
</g>
<g id="a_node3_28"><a xlink:href="/dictionaries/mmcif_pdbx_modeling_extension_all.dic/Items/_ma_distance_restraints.asym_id_1.html" xlink:title="&lt;TABLE&gt;" target="_top">
<polygon fill="none" stroke="black" points="165.516,-880.5 165.516,-900.5 317.516,-900.5 317.516,-880.5 165.516,-880.5"/>
<text text-anchor="start" x="170.516" y="-888.3" font-family="Helvetica,sans-Serif" font-size="9.00">asym_id_1</text>
</a>
</g>
<g id="a_node3_29"><a xlink:href="/dictionaries/mmcif_pdbx_modeling_extension_all.dic/Items/_ma_distance_restraints.asym_id_2.html" xlink:title="&lt;TABLE&gt;" target="_top">
<polygon fill="none" stroke="black" points="165.516,-860.5 165.516,-880.5 317.516,-880.5 317.516,-860.5 165.516,-860.5"/>
<text text-anchor="start" x="170.516" y="-868.3" font-family="Helvetica,sans-Serif" font-size="9.00">asym_id_2</text>
</a>
</g>
<g id="a_node3_30"><a xlink:href="/dictionaries/mmcif_pdbx_modeling_extension_all.dic/Items/_ma_distance_restraints.atom_id_1.html" xlink:title="&lt;TABLE&gt;" target="_top">
<polygon fill="none" stroke="black" points="165.516,-840.5 165.516,-860.5 317.516,-860.5 317.516,-840.5 165.516,-840.5"/>
<text text-anchor="start" x="170.516" y="-848.3" font-family="Helvetica,sans-Serif" font-size="9.00">atom_id_1</text>
</a>
</g>
<g id="a_node3_31"><a xlink:href="/dictionaries/mmcif_pdbx_modeling_extension_all.dic/Items/_ma_distance_restraints.atom_id_2.html" xlink:title="&lt;TABLE&gt;" target="_top">
<polygon fill="none" stroke="black" points="165.516,-820.5 165.516,-840.5 317.516,-840.5 317.516,-820.5 165.516,-820.5"/>
<text text-anchor="start" x="170.516" y="-828.3" font-family="Helvetica,sans-Serif" font-size="9.00">atom_id_2</text>
</a>
</g>
<g id="a_node3_32"><a xlink:href="/dictionaries/mmcif_pdbx_modeling_extension_all.dic/Items/_ma_distance_restraints.comp_id_1.html" xlink:title="&lt;TABLE&gt;" target="_top">
<polygon fill="none" stroke="black" points="165.516,-800.5 165.516,-820.5 317.516,-820.5 317.516,-800.5 165.516,-800.5"/>
<text text-anchor="start" x="170.516" y="-808.3" font-family="Helvetica,sans-Serif" font-size="9.00">comp_id_1</text>
</a>
</g>
<g id="a_node3_33"><a xlink:href="/dictionaries/mmcif_pdbx_modeling_extension_all.dic/Items/_ma_distance_restraints.comp_id_2.html" xlink:title="&lt;TABLE&gt;" target="_top">
<polygon fill="none" stroke="black" points="165.516,-780.5 165.516,-800.5 317.516,-800.5 317.516,-780.5 165.516,-780.5"/>
<text text-anchor="start" x="170.516" y="-788.3" font-family="Helvetica,sans-Serif" font-size="9.00">comp_id_2</text>
</a>
</g>
<g id="a_node3_34"><a xlink:href="/dictionaries/mmcif_pdbx_modeling_extension_all.dic/Items/_ma_distance_restraints.entity_id_1.html" xlink:title="&lt;TABLE&gt;" target="_top">
<polygon fill="none" stroke="black" points="165.516,-760.5 165.516,-780.5 317.516,-780.5 317.516,-760.5 165.516,-760.5"/>
<text text-anchor="start" x="170.516" y="-768.3" font-family="Helvetica,sans-Serif" font-size="9.00">entity_id_1</text>
</a>
</g>
<g id="a_node3_35"><a xlink:href="/dictionaries/mmcif_pdbx_modeling_extension_all.dic/Items/_ma_distance_restraints.entity_id_2.html" xlink:title="&lt;TABLE&gt;" target="_top">
<polygon fill="none" stroke="black" points="165.516,-740.5 165.516,-760.5 317.516,-760.5 317.516,-740.5 165.516,-740.5"/>
<text text-anchor="start" x="170.516" y="-748.3" font-family="Helvetica,sans-Serif" font-size="9.00">entity_id_2</text>
</a>
</g>
<g id="a_node3_36"><a xlink:href="/dictionaries/mmcif_pdbx_modeling_extension_all.dic/Items/_ma_distance_restraints.restraint_id.html" xlink:title="&lt;TABLE&gt;" target="_top">
<polygon fill="none" stroke="black" points="165.516,-720.5 165.516,-740.5 317.516,-740.5 317.516,-720.5 165.516,-720.5"/>
<text text-anchor="start" x="170.516" y="-728.3" font-family="Helvetica,sans-Serif" font-size="9.00">restraint_id</text>
</a>
</g>
<g id="a_node3_37"><a xlink:href="/dictionaries/mmcif_pdbx_modeling_extension_all.dic/Items/_ma_distance_restraints.seq_id_1.html" xlink:title="&lt;TABLE&gt;" target="_top">
<polygon fill="none" stroke="black" points="165.516,-700.5 165.516,-720.5 317.516,-720.5 317.516,-700.5 165.516,-700.5"/>
<text text-anchor="start" x="170.516" y="-708.3" font-family="Helvetica,sans-Serif" font-size="9.00">seq_id_1</text>
</a>
</g>
<g id="a_node3_38"><a xlink:href="/dictionaries/mmcif_pdbx_modeling_extension_all.dic/Items/_ma_distance_restraints.seq_id_2.html" xlink:title="&lt;TABLE&gt;" target="_top">
<polygon fill="none" stroke="black" points="165.516,-680.5 165.516,-700.5 317.516,-700.5 317.516,-680.5 165.516,-680.5"/>
<text text-anchor="start" x="170.516" y="-688.3" font-family="Helvetica,sans-Serif" font-size="9.00">seq_id_2</text>
</a>
</g>
<g id="a_node3_39"><a xlink:href="/dictionaries/mmcif_pdbx_modeling_extension_all.dic/Items/_ma_distance_restraints.lower_limit.html" xlink:title="&lt;TABLE&gt;" target="_top">
<polygon fill="none" stroke="black" points="165.516,-660.5 165.516,-680.5 317.516,-680.5 317.516,-660.5 165.516,-660.5"/>
<text text-anchor="start" x="170.516" y="-668.3" font-family="Helvetica,sans-Serif" font-size="9.00">lower_limit</text>
</a>
</g>
<g id="a_node3_40"><a xlink:href="/dictionaries/mmcif_pdbx_modeling_extension_all.dic/Items/_ma_distance_restraints.lower_limit_esd.html" xlink:title="&lt;TABLE&gt;" target="_top">
<polygon fill="none" stroke="black" points="165.516,-640.5 165.516,-660.5 317.516,-660.5 317.516,-640.5 165.516,-640.5"/>
<text text-anchor="start" x="170.516" y="-648.3" font-family="Helvetica,sans-Serif" font-size="9.00">lower_limit_esd</text>
</a>
</g>
<g id="a_node3_41"><a xlink:href="/dictionaries/mmcif_pdbx_modeling_extension_all.dic/Items/_ma_distance_restraints.probability.html" xlink:title="&lt;TABLE&gt;" target="_top">
<polygon fill="none" stroke="black" points="165.516,-620.5 165.516,-640.5 317.516,-640.5 317.516,-620.5 165.516,-620.5"/>
<text text-anchor="start" x="170.516" y="-628.3" font-family="Helvetica,sans-Serif" font-size="9.00">probability</text>
</a>
</g>
<g id="a_node3_42"><a xlink:href="/dictionaries/mmcif_pdbx_modeling_extension_all.dic/Items/_ma_distance_restraints.restraint_type.html" xlink:title="&lt;TABLE&gt;" target="_top">
<polygon fill="none" stroke="black" points="165.516,-600.5 165.516,-620.5 317.516,-620.5 317.516,-600.5 165.516,-600.5"/>
<text text-anchor="start" x="170.516" y="-608.3" font-family="Helvetica,sans-Serif" font-size="9.00">restraint_type</text>
</a>
</g>
<g id="a_node3_43"><a xlink:href="/dictionaries/mmcif_pdbx_modeling_extension_all.dic/Items/_ma_distance_restraints.upper_limit.html" xlink:title="&lt;TABLE&gt;" target="_top">
<polygon fill="none" stroke="black" points="165.516,-580.5 165.516,-600.5 317.516,-600.5 317.516,-580.5 165.516,-580.5"/>
<text text-anchor="start" x="170.516" y="-588.3" font-family="Helvetica,sans-Serif" font-size="9.00">upper_limit</text>
</a>
</g>
<g id="a_node3_44"><a xlink:href="/dictionaries/mmcif_pdbx_modeling_extension_all.dic/Items/_ma_distance_restraints.upper_limit_esd.html" xlink:title="&lt;TABLE&gt;" target="_top">
<polygon fill="none" stroke="black" points="165.516,-560.5 165.516,-580.5 317.516,-580.5 317.516,-560.5 165.516,-560.5"/>
<text text-anchor="start" x="170.516" y="-568.3" font-family="Helvetica,sans-Serif" font-size="9.00">upper_limit_esd</text>
</a>
</g>
</g>
<!-- _ma_distance_restraints&#45;&gt;_chem_comp_atom -->
<g id="edge1" class="edge"><title>_ma_distance_restraints:__atom_id_1:w&#45;&gt;_chem_comp_atom:__atom_id:w</title>
<path fill="none" stroke="black" d="M164.516,-850.5C124.116,-850.5 -10.1742,-544.234 1.45346,-492.791"/>
<polygon fill="black" stroke="black" points="4.07239,-495.118 8.51629,-485.5 -0.955431,-490.247 4.07239,-495.118"/>
</g>
<!-- _ma_distance_restraints&#45;&gt;_chem_comp_atom -->
<g id="edge2" class="edge"><title>_ma_distance_restraints:__atom_id_2:w&#45;&gt;_chem_comp_atom:__atom_id:w</title>
<path fill="none" stroke="black" d="M164.516,-830.5C126.144,-830.5 -7.01197,-543.479 1.8019,-493.027"/>
<polygon fill="black" stroke="black" points="4.47112,-495.292 8.51629,-485.5 -0.752474,-490.632 4.47112,-495.292"/>
</g>
<!-- _ma_distance_restraints&#45;&gt;_entity_poly_seq -->
<g id="edge3" class="edge"><title>_ma_distance_restraints:__entity_id_1:w&#45;&gt;_entity_poly_seq:__entity_id:w</title>
<path fill="none" stroke="black" d="M164.516,-770.5C153.039,-770.5 152.03,-393.63 161.49,-327.383"/>
<polygon fill="black" stroke="black" points="164.935,-328.087 164.516,-317.5 158.242,-326.037 164.935,-328.087"/>
</g>
<!-- _ma_distance_restraints&#45;&gt;_entity_poly_seq -->
<g id="edge4" class="edge"><title>_ma_distance_restraints:__entity_id_2:w&#45;&gt;_entity_poly_seq:__entity_id:w</title>
<path fill="none" stroke="black" d="M164.516,-750.5C153.569,-750.5 152.586,-391.81 161.566,-327.357"/>
<polygon fill="black" stroke="black" points="165.002,-328.084 164.516,-317.5 158.296,-326.076 165.002,-328.084"/>
</g>
<!-- _ma_distance_restraints&#45;&gt;_entity_poly_seq -->
<g id="edge5" class="edge"><title>_ma_distance_restraints:__comp_id_1:w&#45;&gt;_entity_poly_seq:__mon_id:w</title>
<path fill="none" stroke="black" d="M164.516,-810.5C151.435,-810.5 150.362,-378.212 161.297,-307.29"/>
<polygon fill="black" stroke="black" points="164.717,-308.093 164.516,-297.5 158.068,-305.906 164.717,-308.093"/>
</g>
<!-- _ma_distance_restraints&#45;&gt;_entity_poly_seq -->
<g id="edge6" class="edge"><title>_ma_distance_restraints:__comp_id_2:w&#45;&gt;_entity_poly_seq:__mon_id:w</title>
<path fill="none" stroke="black" d="M164.516,-790.5C151.972,-790.5 150.918,-376.831 161.356,-307.348"/>
<polygon fill="black" stroke="black" points="164.793,-308.091 164.516,-297.5 158.128,-305.952 164.793,-308.091"/>
</g>
<!-- _ma_distance_restraints&#45;&gt;_entity_poly_seq -->
<g id="edge7" class="edge"><title>_ma_distance_restraints:__seq_id_1:w&#45;&gt;_entity_poly_seq:__num:w</title>
<path fill="none" stroke="black" d="M164.516,-710.5C153.569,-710.5 152.586,-351.81 161.566,-287.357"/>
<polygon fill="black" stroke="black" points="165.002,-288.084 164.516,-277.5 158.296,-286.076 165.002,-288.084"/>
</g>
<!-- _ma_distance_restraints&#45;&gt;_entity_poly_seq -->
<g id="edge8" class="edge"><title>_ma_distance_restraints:__seq_id_2:w&#45;&gt;_entity_poly_seq:__num:w</title>
<path fill="none" stroke="black" d="M164.516,-690.5C154.097,-690.5 153.141,-349.844 161.647,-287.302"/>
<polygon fill="black" stroke="black" points="165.066,-288.081 164.516,-277.5 158.348,-286.114 165.066,-288.081"/>
</g>
<!-- _ma_restraints -->
<g id="node4" class="node"><title>_ma_restraints</title>
<g id="a_node4_45"><a xlink:href="/dictionaries/mmcif_pdbx_modeling_extension_all.dic/Categories/ma_restraints.html" xlink:title="&lt;TABLE&gt;" target="_top">
<polygon fill="#99c49b" stroke="none" points="304.516,-337.5 304.516,-358.5 399.516,-358.5 399.516,-337.5 304.516,-337.5"/>
<polygon fill="none" stroke="black" points="304.516,-337.5 304.516,-358.5 399.516,-358.5 399.516,-337.5 304.516,-337.5"/>
<text text-anchor="start" x="309.516" y="-345.5" font-family="Helvetica,sans-Serif" font-size="10.00">MA_RESTRAINTS</text>
</a>
</g>
<g id="a_node4_46"><a xlink:href="/dictionaries/mmcif_pdbx_modeling_extension_all.dic/Items/_ma_restraints.restraint_id.html" xlink:title="&lt;TABLE&gt;" target="_top">
<polygon fill="#ffff99" stroke="none" points="304.516,-317.5 304.516,-337.5 399.516,-337.5 399.516,-317.5 304.516,-317.5"/>
<polygon fill="none" stroke="black" points="304.516,-317.5 304.516,-337.5 399.516,-337.5 399.516,-317.5 304.516,-317.5"/>
<text text-anchor="start" x="309.516" y="-325.3" font-family="Helvetica,sans-Serif" font-size="9.00">restraint_id</text>
</a>
</g>
<g id="a_node4_47"><a xlink:href="/dictionaries/mmcif_pdbx_modeling_extension_all.dic/Items/_ma_restraints.data_id.html" xlink:title="&lt;TABLE&gt;" target="_top">
<polygon fill="none" stroke="black" points="304.516,-297.5 304.516,-317.5 399.516,-317.5 399.516,-297.5 304.516,-297.5"/>
<text text-anchor="start" x="309.516" y="-305.3" font-family="Helvetica,sans-Serif" font-size="9.00">data_id</text>
</a>
</g>
<g id="a_node4_48"><a xlink:href="/dictionaries/mmcif_pdbx_modeling_extension_all.dic/Items/_ma_restraints.details.html" xlink:title="&lt;TABLE&gt;" target="_top">
<polygon fill="none" stroke="black" points="304.516,-277.5 304.516,-297.5 399.516,-297.5 399.516,-277.5 304.516,-277.5"/>
<text text-anchor="start" x="309.516" y="-285.3" font-family="Helvetica,sans-Serif" font-size="9.00">details</text>
</a>
</g>
<g id="a_node4_49"><a xlink:href="/dictionaries/mmcif_pdbx_modeling_extension_all.dic/Items/_ma_restraints.name.html" xlink:title="&lt;TABLE&gt;" target="_top">
<polygon fill="none" stroke="black" points="304.516,-257.5 304.516,-277.5 399.516,-277.5 399.516,-257.5 304.516,-257.5"/>
<text text-anchor="start" x="309.516" y="-265.3" font-family="Helvetica,sans-Serif" font-size="9.00">name</text>
</a>
</g>
<g id="a_node4_50"><a xlink:href="/dictionaries/mmcif_pdbx_modeling_extension_all.dic/Items/_ma_restraints.restraint_type.html" xlink:title="&lt;TABLE&gt;" target="_top">
<polygon fill="none" stroke="black" points="304.516,-237.5 304.516,-257.5 399.516,-257.5 399.516,-237.5 304.516,-237.5"/>
<text text-anchor="start" x="309.516" y="-245.3" font-family="Helvetica,sans-Serif" font-size="9.00">restraint_type</text>
</a>
</g>
</g>
<!-- _ma_distance_restraints&#45;&gt;_ma_restraints -->
<g id="edge11" class="edge"><title>_ma_distance_restraints:__restraint_id:w&#45;&gt;_ma_restraints:__restraint_id:w</title>
<path fill="none" stroke="black" d="M164.516,-730.5C87.4039,-730.5 119.237,-618.681 165.516,-557 199.189,-512.12 251.035,-564.464 286.516,-521 298.405,-506.436 286.104,-370.417 297.001,-335.591"/>
<polygon fill="black" stroke="black" points="299.97,-337.484 303.516,-327.5 294.518,-333.094 299.97,-337.484"/>
</g>
<!-- _struct_asym -->
<g id="node5" class="node"><title>_struct_asym</title>
<g id="a_node5_51"><a xlink:href="/dictionaries/mmcif_pdbx_modeling_extension_all.dic/Categories/struct_asym.html" xlink:title="&lt;TABLE&gt;" target="_top">
<polygon fill="#99c49b" stroke="none" points="432.516,-417.5 432.516,-438.5 656.516,-438.5 656.516,-417.5 432.516,-417.5"/>
<polygon fill="none" stroke="black" points="432.516,-417.5 432.516,-438.5 656.516,-438.5 656.516,-417.5 432.516,-417.5"/>
<text text-anchor="start" x="506.516" y="-425.5" font-family="Helvetica,sans-Serif" font-size="10.00">STRUCT_ASYM</text>
</a>
</g>
<g id="a_node5_52"><a xlink:href="/dictionaries/mmcif_pdbx_modeling_extension_all.dic/Items/_struct_asym.id.html" xlink:title="&lt;TABLE&gt;" target="_top">
<polygon fill="#ffff99" stroke="none" points="432.516,-397.5 432.516,-417.5 656.516,-417.5 656.516,-397.5 432.516,-397.5"/>
<polygon fill="none" stroke="black" points="432.516,-397.5 432.516,-417.5 656.516,-417.5 656.516,-397.5 432.516,-397.5"/>
<text text-anchor="start" x="437.516" y="-405.3" font-family="Helvetica,sans-Serif" font-size="9.00">id</text>
</a>
</g>
<g id="a_node5_53"><a xlink:href="/dictionaries/mmcif_pdbx_modeling_extension_all.dic/Items/_struct_asym.details.html" xlink:title="&lt;TABLE&gt;" target="_top">
<polygon fill="none" stroke="black" points="432.516,-377.5 432.516,-397.5 656.516,-397.5 656.516,-377.5 432.516,-377.5"/>
<text text-anchor="start" x="437.516" y="-385.3" font-family="Helvetica,sans-Serif" font-size="9.00">details</text>
</a>
</g>
<g id="a_node5_54"><a xlink:href="/dictionaries/mmcif_pdbx_modeling_extension_all.dic/Items/_struct_asym.entity_id.html" xlink:title="&lt;TABLE&gt;" target="_top">
<polygon fill="none" stroke="black" points="432.516,-357.5 432.516,-377.5 656.516,-377.5 656.516,-357.5 432.516,-357.5"/>
<text text-anchor="start" x="437.516" y="-365.3" font-family="Helvetica,sans-Serif" font-size="9.00">entity_id</text>
</a>
</g>
<g id="a_node5_55"><a xlink:href="/dictionaries/mmcif_pdbx_modeling_extension_all.dic/Items/_struct_asym.pdbx_PDB_id.html" xlink:title="&lt;TABLE&gt;" target="_top">
<polygon fill="none" stroke="black" points="432.516,-337.5 432.516,-357.5 656.516,-357.5 656.516,-337.5 432.516,-337.5"/>
<text text-anchor="start" x="437.516" y="-345.3" font-family="Helvetica,sans-Serif" font-size="9.00">pdbx_PDB_id</text>
</a>
</g>
<g id="a_node5_56"><a xlink:href="/dictionaries/mmcif_pdbx_modeling_extension_all.dic/Items/_struct_asym.pdbx_alt_id.html" xlink:title="&lt;TABLE&gt;" target="_top">
<polygon fill="none" stroke="black" points="432.516,-317.5 432.516,-337.5 656.516,-337.5 656.516,-317.5 432.516,-317.5"/>
<text text-anchor="start" x="437.516" y="-325.3" font-family="Helvetica,sans-Serif" font-size="9.00">pdbx_alt_id</text>
</a>
</g>
<g id="a_node5_57"><a xlink:href="/dictionaries/mmcif_pdbx_modeling_extension_all.dic/Items/_struct_asym.pdbx_blank_PDB_chainid_flag.html" xlink:title="&lt;TABLE&gt;" target="_top">
<polygon fill="none" stroke="black" points="432.516,-297.5 432.516,-317.5 656.516,-317.5 656.516,-297.5 432.516,-297.5"/>
<text text-anchor="start" x="437.516" y="-305.3" font-family="Helvetica,sans-Serif" font-size="9.00">pdbx_blank_PDB_chainid_flag</text>
</a>
</g>
<g id="a_node5_58"><a xlink:href="/dictionaries/mmcif_pdbx_modeling_extension_all.dic/Items/_struct_asym.pdbx_fraction_per_asym_unit.html" xlink:title="&lt;TABLE&gt;" target="_top">
<polygon fill="none" stroke="black" points="432.516,-277.5 432.516,-297.5 656.516,-297.5 656.516,-277.5 432.516,-277.5"/>
<text text-anchor="start" x="437.516" y="-285.3" font-family="Helvetica,sans-Serif" font-size="9.00">pdbx_fraction_per_asym_unit</text>
</a>
</g>
<g id="a_node5_59"><a xlink:href="/dictionaries/mmcif_pdbx_modeling_extension_all.dic/Items/_struct_asym.pdbx_missing_num_begin_of_chain_in_seqres.html" xlink:title="&lt;TABLE&gt;" target="_top">
<polygon fill="none" stroke="black" points="432.516,-257.5 432.516,-277.5 656.516,-277.5 656.516,-257.5 432.516,-257.5"/>
<text text-anchor="start" x="437.516" y="-265.3" font-family="Helvetica,sans-Serif" font-size="9.00">pdbx_missing_num_begin_of_chain_in_seqres</text>
</a>
</g>
<g id="a_node5_60"><a xlink:href="/dictionaries/mmcif_pdbx_modeling_extension_all.dic/Items/_struct_asym.pdbx_missing_num_begin_of_chain_not_in_seqres.html" xlink:title="&lt;TABLE&gt;" target="_top">
<polygon fill="none" stroke="black" points="432.516,-237.5 432.516,-257.5 656.516,-257.5 656.516,-237.5 432.516,-237.5"/>
<text text-anchor="start" x="437.516" y="-245.3" font-family="Helvetica,sans-Serif" font-size="9.00">pdbx_missing_num_begin_of_chain_not_in_seqres</text>
</a>
</g>
<g id="a_node5_61"><a xlink:href="/dictionaries/mmcif_pdbx_modeling_extension_all.dic/Items/_struct_asym.pdbx_missing_num_end_of_chain_not_in_seqres.html" xlink:title="&lt;TABLE&gt;" target="_top">
<polygon fill="none" stroke="black" points="432.516,-217.5 432.516,-237.5 656.516,-237.5 656.516,-217.5 432.516,-217.5"/>
<text text-anchor="start" x="437.516" y="-225.3" font-family="Helvetica,sans-Serif" font-size="9.00">pdbx_missing_num_end_of_chain_not_in_seqres</text>
</a>
</g>
<g id="a_node5_62"><a xlink:href="/dictionaries/mmcif_pdbx_modeling_extension_all.dic/Items/_struct_asym.pdbx_modified.html" xlink:title="&lt;TABLE&gt;" target="_top">
<polygon fill="none" stroke="black" points="432.516,-197.5 432.516,-217.5 656.516,-217.5 656.516,-197.5 432.516,-197.5"/>
<text text-anchor="start" x="437.516" y="-205.3" font-family="Helvetica,sans-Serif" font-size="9.00">pdbx_modified</text>
</a>
</g>
<g id="a_node5_63"><a xlink:href="/dictionaries/mmcif_pdbx_modeling_extension_all.dic/Items/_struct_asym.pdbx_order.html" xlink:title="&lt;TABLE&gt;" target="_top">
<polygon fill="none" stroke="black" points="432.516,-177.5 432.516,-197.5 656.516,-197.5 656.516,-177.5 432.516,-177.5"/>
<text text-anchor="start" x="437.516" y="-185.3" font-family="Helvetica,sans-Serif" font-size="9.00">pdbx_order</text>
</a>
</g>
<g id="a_node5_64"><a xlink:href="/dictionaries/mmcif_pdbx_modeling_extension_all.dic/Items/_struct_asym.pdbx_type.html" xlink:title="&lt;TABLE&gt;" target="_top">
<polygon fill="none" stroke="black" points="432.516,-157.5 432.516,-177.5 656.516,-177.5 656.516,-157.5 432.516,-157.5"/>
<text text-anchor="start" x="437.516" y="-165.3" font-family="Helvetica,sans-Serif" font-size="9.00">pdbx_type</text>
</a>
</g>
</g>
<!-- _ma_distance_restraints&#45;&gt;_struct_asym -->
<g id="edge9" class="edge"><title>_ma_distance_restraints:__asym_id_1:w&#45;&gt;_struct_asym:__id:w</title>
<path fill="none" stroke="black" d="M164.516,-890.5C16.2934,-890.5 68.2638,-668.857 165.516,-557 239.459,-471.953 337.269,-601.128 416.516,-521 431.681,-505.667 413.634,-434.776 423.279,-413.532"/>
<polygon fill="black" stroke="black" points="425.516,-416.232 431.516,-407.5 421.38,-410.585 425.516,-416.232"/>
</g>
<!-- _ma_distance_restraints&#45;&gt;_struct_asym -->
<g id="edge10" class="edge"><title>_ma_distance_restraints:__asym_id_2:w&#45;&gt;_struct_asym:__id:w</title>
<path fill="none" stroke="black" d="M164.516,-870.5C25.1822,-870.5 74.0859,-662.14 165.516,-557 239.468,-471.96 337.269,-601.128 416.516,-521 431.681,-505.667 413.634,-434.776 423.279,-413.532"/>
<polygon fill="black" stroke="black" points="425.516,-416.232 431.516,-407.5 421.38,-410.585 425.516,-416.232"/>
</g>
</g>
</svg>
