<?xml version="1.0" encoding="UTF-8" standalone="no"?>
<!DOCTYPE svg PUBLIC "-//W3C//DTD SVG 1.1//EN"
 "http://www.w3.org/Graphics/SVG/1.1/DTD/svg11.dtd">
<!-- Generated by graphviz version 2.38.0 (20140413.2041)
 -->
<!-- Title: ma_data_group Pages: 1 -->
<svg width="480pt" height="463pt"
 viewBox="0.00 0.00 480.00 463.00" xmlns="http://www.w3.org/2000/svg" xmlns:xlink="http://www.w3.org/1999/xlink">
<g id="graph0" class="graph" transform="scale(1 1) rotate(0) translate(4 459)">
<title>ma_data_group</title>
<polygon fill="white" stroke="none" points="-4,4 -4,-459 476,-459 476,4 -4,4"/>
<text text-anchor="start" x="233" y="-58.6" font-family="Helvetica,sans-Serif" font-size="18.00"> </text>
<text text-anchor="start" x="233" y="-40.6" font-family="Helvetica,sans-Serif" font-size="18.00"> </text>
<text text-anchor="start" x="8" y="-22.6" font-family="Helvetica,sans-Serif" font-size="18.00"> Category Relationship Diagram for </text>
<text text-anchor="start" x="291" y="-22.6" font-family="Helvetica,sans-Serif" font-weight="bold" font-size="18.00">MA_DATA_GROUP</text>
<text text-anchor="start" x="454" y="-22.6" font-family="Helvetica,sans-Serif" font-size="18.00"> </text>
<text text-anchor="start" x="460" y="-22.6" font-family="Helvetica,sans-Serif" font-size="14.00"> </text>
<text text-anchor="start" x="102" y="-7.8" font-family="Helvetica,sans-Serif" font-size="14.00"> &#160;in dictionary mmcif_pdbx.dic version 5.296 </text>
<!-- _ma_data -->
<g id="node1" class="node"><title>_ma_data</title>
<g id="a_node1_0"><a xlink:href="/dictionaries/mmcif_pdbx_modeling_extension_all.dic/Categories/ma_data.html" xlink:title="&lt;TABLE&gt;" target="_top">
<polygon fill="#99c49b" stroke="none" points="198.241,-159.5 198.241,-180.5 281.241,-180.5 281.241,-159.5 198.241,-159.5"/>
<polygon fill="none" stroke="black" points="198.241,-159.5 198.241,-180.5 281.241,-180.5 281.241,-159.5 198.241,-159.5"/>
<text text-anchor="start" x="215.741" y="-167.5" font-family="Helvetica,sans-Serif" font-size="10.00">MA_DATA</text>
</a>
</g>
<g id="a_node1_1"><a xlink:href="/dictionaries/mmcif_pdbx_modeling_extension_all.dic/Items/_ma_data.id.html" xlink:title="&lt;TABLE&gt;" target="_top">
<polygon fill="#ffff99" stroke="none" points="198.241,-139.5 198.241,-159.5 281.241,-159.5 281.241,-139.5 198.241,-139.5"/>
<polygon fill="none" stroke="black" points="198.241,-139.5 198.241,-159.5 281.241,-159.5 281.241,-139.5 198.241,-139.5"/>
<text text-anchor="start" x="203.241" y="-147.3" font-family="Helvetica,sans-Serif" font-size="9.00">id</text>
</a>
</g>
<g id="a_node1_2"><a xlink:href="/dictionaries/mmcif_pdbx_modeling_extension_all.dic/Items/_ma_data.content_sub_type.html" xlink:title="&lt;TABLE&gt;" target="_top">
<polygon fill="none" stroke="black" points="198.241,-119.5 198.241,-139.5 281.241,-139.5 281.241,-119.5 198.241,-119.5"/>
<text text-anchor="start" x="203.241" y="-127.3" font-family="Helvetica,sans-Serif" font-size="9.00">content_sub_type</text>
</a>
</g>
<g id="a_node1_3"><a xlink:href="/dictionaries/mmcif_pdbx_modeling_extension_all.dic/Items/_ma_data.content_type.html" xlink:title="&lt;TABLE&gt;" target="_top">
<polygon fill="none" stroke="black" points="198.241,-99.5 198.241,-119.5 281.241,-119.5 281.241,-99.5 198.241,-99.5"/>
<text text-anchor="start" x="203.241" y="-107.3" font-family="Helvetica,sans-Serif" font-size="9.00">content_type</text>
</a>
</g>
<g id="a_node1_4"><a xlink:href="/dictionaries/mmcif_pdbx_modeling_extension_all.dic/Items/_ma_data.name.html" xlink:title="&lt;TABLE&gt;" target="_top">
<polygon fill="none" stroke="black" points="198.241,-79.5 198.241,-99.5 281.241,-99.5 281.241,-79.5 198.241,-79.5"/>
<text text-anchor="start" x="203.241" y="-87.3" font-family="Helvetica,sans-Serif" font-size="9.00">name</text>
</a>
</g>
</g>
<!-- _ma_data_group -->
<g id="node2" class="node"><title>_ma_data_group</title>
<g id="a_node2_5"><a xlink:href="/dictionaries/mmcif_pdbx_modeling_extension_all.dic/Categories/ma_data_group.html" xlink:title="&lt;TABLE&gt;" target="_top">
<polygon fill="#f0027f" stroke="none" points="198.241,-284.5 198.241,-305.5 298.241,-305.5 298.241,-284.5 198.241,-284.5"/>
<polygon fill="none" stroke="black" points="198.241,-284.5 198.241,-305.5 298.241,-305.5 298.241,-284.5 198.241,-284.5"/>
<text text-anchor="start" x="203.241" y="-292.5" font-family="Helvetica,sans-Serif" font-size="10.00">MA_DATA_GROUP</text>
</a>
</g>
<g id="a_node2_6"><a xlink:href="/dictionaries/mmcif_pdbx_modeling_extension_all.dic/Items/_ma_data_group.ordinal_id.html" xlink:title="&lt;TABLE&gt;" target="_top">
<polygon fill="#ffff99" stroke="none" points="198.241,-264.5 198.241,-284.5 298.241,-284.5 298.241,-264.5 198.241,-264.5"/>
<polygon fill="none" stroke="black" points="198.241,-264.5 198.241,-284.5 298.241,-284.5 298.241,-264.5 198.241,-264.5"/>
<text text-anchor="start" x="203.241" y="-272.3" font-family="Helvetica,sans-Serif" font-size="9.00">ordinal_id</text>
</a>
</g>
<g id="a_node2_7"><a xlink:href="/dictionaries/mmcif_pdbx_modeling_extension_all.dic/Items/_ma_data_group.data_id.html" xlink:title="&lt;TABLE&gt;" target="_top">
<polygon fill="none" stroke="black" points="198.241,-244.5 198.241,-264.5 298.241,-264.5 298.241,-244.5 198.241,-244.5"/>
<text text-anchor="start" x="203.241" y="-252.3" font-family="Helvetica,sans-Serif" font-size="9.00">data_id</text>
</a>
</g>
<g id="a_node2_8"><a xlink:href="/dictionaries/mmcif_pdbx_modeling_extension_all.dic/Items/_ma_data_group.group_id.html" xlink:title="&lt;TABLE&gt;" target="_top">
<polygon fill="none" stroke="black" points="198.241,-224.5 198.241,-244.5 298.241,-244.5 298.241,-224.5 198.241,-224.5"/>
<text text-anchor="start" x="203.241" y="-232.3" font-family="Helvetica,sans-Serif" font-size="9.00">group_id</text>
</a>
</g>
</g>
<!-- _ma_data_group&#45;&gt;_ma_data -->
<g id="edge1" class="edge"><title>_ma_data_group:__data_id:w&#45;&gt;_ma_data:__id:w</title>
<path fill="none" stroke="black" d="M197.241,-254.5C154.22,-254.5 150.859,-165.265 187.158,-151.322"/>
<polygon fill="black" stroke="black" points="188.023,-154.723 197.241,-149.5 186.778,-147.835 188.023,-154.723"/>
</g>
<!-- _ma_step_input -->
<g id="node3" class="node"><title>_ma_step_input</title>
<g id="a_node3_9"><a xlink:href="/dictionaries/mmcif_pdbx_modeling_extension_all.dic/Categories/ma_step_input.html" xlink:title="&lt;TABLE&gt;" target="_top">
<polygon fill="#99c49b" stroke="none" points="135.241,-429.5 135.241,-450.5 228.241,-450.5 228.241,-429.5 135.241,-429.5"/>
<polygon fill="none" stroke="black" points="135.241,-429.5 135.241,-450.5 228.241,-450.5 228.241,-429.5 135.241,-429.5"/>
<text text-anchor="start" x="140.241" y="-437.5" font-family="Helvetica,sans-Serif" font-size="10.00">MA_STEP_INPUT</text>
</a>
</g>
<g id="a_node3_10"><a xlink:href="/dictionaries/mmcif_pdbx_modeling_extension_all.dic/Items/_ma_step_input.id.html" xlink:title="&lt;TABLE&gt;" target="_top">
<polygon fill="#ffff99" stroke="none" points="135.241,-409.5 135.241,-429.5 228.241,-429.5 228.241,-409.5 135.241,-409.5"/>
<polygon fill="none" stroke="black" points="135.241,-409.5 135.241,-429.5 228.241,-429.5 228.241,-409.5 135.241,-409.5"/>
<text text-anchor="start" x="140.241" y="-417.3" font-family="Helvetica,sans-Serif" font-size="9.00">id</text>
</a>
</g>
<g id="a_node3_11"><a xlink:href="/dictionaries/mmcif_pdbx_modeling_extension_all.dic/Items/_ma_step_input.data_group_id.html" xlink:title="&lt;TABLE&gt;" target="_top">
<polygon fill="none" stroke="black" points="135.241,-389.5 135.241,-409.5 228.241,-409.5 228.241,-389.5 135.241,-389.5"/>
<text text-anchor="start" x="140.241" y="-397.3" font-family="Helvetica,sans-Serif" font-size="9.00">data_group_id</text>
</a>
</g>
<g id="a_node3_12"><a xlink:href="/dictionaries/mmcif_pdbx_modeling_extension_all.dic/Items/_ma_step_input.protocol_id.html" xlink:title="&lt;TABLE&gt;" target="_top">
<polygon fill="none" stroke="black" points="135.241,-369.5 135.241,-389.5 228.241,-389.5 228.241,-369.5 135.241,-369.5"/>
<text text-anchor="start" x="140.241" y="-377.3" font-family="Helvetica,sans-Serif" font-size="9.00">protocol_id</text>
</a>
</g>
<g id="a_node3_13"><a xlink:href="/dictionaries/mmcif_pdbx_modeling_extension_all.dic/Items/_ma_step_input.step_id.html" xlink:title="&lt;TABLE&gt;" target="_top">
<polygon fill="none" stroke="black" points="135.241,-349.5 135.241,-369.5 228.241,-369.5 228.241,-349.5 135.241,-349.5"/>
<text text-anchor="start" x="140.241" y="-357.3" font-family="Helvetica,sans-Serif" font-size="9.00">step_id</text>
</a>
</g>
</g>
<!-- _ma_step_input&#45;&gt;_ma_data_group -->
<g id="edge2" class="edge"><title>_ma_step_input:__data_group_id:w&#45;&gt;_ma_data_group:__group_id:w</title>
<path fill="none" stroke="black" d="M134.241,-399.5C59.1172,-399.5 113.591,-248.375 187.218,-235.388"/>
<polygon fill="black" stroke="black" points="187.589,-238.869 197.241,-234.5 186.971,-231.896 187.589,-238.869"/>
</g>
<!-- _ma_step_output -->
<g id="node4" class="node"><title>_ma_step_output</title>
<g id="a_node4_14"><a xlink:href="/dictionaries/mmcif_pdbx_modeling_extension_all.dic/Categories/ma_step_output.html" xlink:title="&lt;TABLE&gt;" target="_top">
<polygon fill="#99c49b" stroke="none" points="262.241,-429.5 262.241,-450.5 366.241,-450.5 366.241,-429.5 262.241,-429.5"/>
<polygon fill="none" stroke="black" points="262.241,-429.5 262.241,-450.5 366.241,-450.5 366.241,-429.5 262.241,-429.5"/>
<text text-anchor="start" x="267.241" y="-437.5" font-family="Helvetica,sans-Serif" font-size="10.00">MA_STEP_OUTPUT</text>
</a>
</g>
<g id="a_node4_15"><a xlink:href="/dictionaries/mmcif_pdbx_modeling_extension_all.dic/Items/_ma_step_output.id.html" xlink:title="&lt;TABLE&gt;" target="_top">
<polygon fill="#ffff99" stroke="none" points="262.241,-409.5 262.241,-429.5 366.241,-429.5 366.241,-409.5 262.241,-409.5"/>
<polygon fill="none" stroke="black" points="262.241,-409.5 262.241,-429.5 366.241,-429.5 366.241,-409.5 262.241,-409.5"/>
<text text-anchor="start" x="267.241" y="-417.3" font-family="Helvetica,sans-Serif" font-size="9.00">id</text>
</a>
</g>
<g id="a_node4_16"><a xlink:href="/dictionaries/mmcif_pdbx_modeling_extension_all.dic/Items/_ma_step_output.data_group_id.html" xlink:title="&lt;TABLE&gt;" target="_top">
<polygon fill="none" stroke="black" points="262.241,-389.5 262.241,-409.5 366.241,-409.5 366.241,-389.5 262.241,-389.5"/>
<text text-anchor="start" x="267.241" y="-397.3" font-family="Helvetica,sans-Serif" font-size="9.00">data_group_id</text>
</a>
</g>
<g id="a_node4_17"><a xlink:href="/dictionaries/mmcif_pdbx_modeling_extension_all.dic/Items/_ma_step_output.protocol_id.html" xlink:title="&lt;TABLE&gt;" target="_top">
<polygon fill="none" stroke="black" points="262.241,-369.5 262.241,-389.5 366.241,-389.5 366.241,-369.5 262.241,-369.5"/>
<text text-anchor="start" x="267.241" y="-377.3" font-family="Helvetica,sans-Serif" font-size="9.00">protocol_id</text>
</a>
</g>
<g id="a_node4_18"><a xlink:href="/dictionaries/mmcif_pdbx_modeling_extension_all.dic/Items/_ma_step_output.step_id.html" xlink:title="&lt;TABLE&gt;" target="_top">
<polygon fill="none" stroke="black" points="262.241,-349.5 262.241,-369.5 366.241,-369.5 366.241,-349.5 262.241,-349.5"/>
<text text-anchor="start" x="267.241" y="-357.3" font-family="Helvetica,sans-Serif" font-size="9.00">step_id</text>
</a>
</g>
</g>
<!-- _ma_step_output&#45;&gt;_ma_data_group -->
<g id="edge3" class="edge"><title>_ma_step_output:__data_group_id:w&#45;&gt;_ma_data_group:__group_id:w</title>
<path fill="none" stroke="black" d="M261.241,-399.5C236.292,-399.5 258.477,-366.489 244.241,-346 229.428,-324.68 209.767,-333.262 198.241,-310 185.147,-283.571 168.374,-245.277 187.288,-236.391"/>
<polygon fill="black" stroke="black" points="188.07,-239.805 197.241,-234.5 186.764,-232.928 188.07,-239.805"/>
</g>
</g>
</svg>
