<?xml version="1.0" encoding="UTF-8" standalone="no"?>
<!DOCTYPE svg PUBLIC "-//W3C//DTD SVG 1.1//EN"
 "http://www.w3.org/Graphics/SVG/1.1/DTD/svg11.dtd">
<!-- Generated by graphviz version 2.38.0 (20140413.2041)
 -->
<!-- Title: ma_data Pages: 1 -->
<svg width="495pt" height="1048pt"
 viewBox="0.00 0.00 495.18 1048.00" xmlns="http://www.w3.org/2000/svg" xmlns:xlink="http://www.w3.org/1999/xlink">
<g id="graph0" class="graph" transform="scale(1 1) rotate(0) translate(4 1044)">
<title>ma_data</title>
<polygon fill="white" stroke="none" points="-4,4 -4,-1044 491.176,-1044 491.176,4 -4,4"/>
<text text-anchor="start" x="240.588" y="-58.6" font-family="Helvetica,sans-Serif" font-size="18.00"> </text>
<text text-anchor="start" x="240.588" y="-40.6" font-family="Helvetica,sans-Serif" font-size="18.00"> </text>
<text text-anchor="start" x="53.0878" y="-22.6" font-family="Helvetica,sans-Serif" font-size="18.00"> Category Relationship Diagram for </text>
<text text-anchor="start" x="336.088" y="-22.6" font-family="Helvetica,sans-Serif" font-weight="bold" font-size="18.00">MA_DATA</text>
<text text-anchor="start" x="424.088" y="-22.6" font-family="Helvetica,sans-Serif" font-size="18.00"> </text>
<text text-anchor="start" x="430.088" y="-22.6" font-family="Helvetica,sans-Serif" font-size="14.00"> </text>
<text text-anchor="start" x="109.588" y="-7.8" font-family="Helvetica,sans-Serif" font-size="14.00"> &#160;in dictionary mmcif_pdbx.dic version 5.296 </text>
<!-- _ma_alignment_details -->
<g id="node1" class="node"><title>_ma_alignment_details</title>
<g id="a_node1_0"><a xlink:href="/dictionaries/mmcif_pdbx_modeling_extension_all.dic/Categories/ma_alignment_details.html" xlink:title="&lt;TABLE&gt;" target="_top">
<polygon fill="#99c49b" stroke="none" points="59.6756,-1014.5 59.6756,-1035.5 202.676,-1035.5 202.676,-1014.5 59.6756,-1014.5"/>
<polygon fill="none" stroke="black" points="59.6756,-1014.5 59.6756,-1035.5 202.676,-1035.5 202.676,-1014.5 59.6756,-1014.5"/>
<text text-anchor="start" x="67.6756" y="-1022.5" font-family="Helvetica,sans-Serif" font-size="10.00">MA_ALIGNMENT_DETAILS</text>
</a>
</g>
<g id="a_node1_1"><a xlink:href="/dictionaries/mmcif_pdbx_modeling_extension_all.dic/Items/_ma_alignment_details.ordinal_id.html" xlink:title="&lt;TABLE&gt;" target="_top">
<polygon fill="#ffff99" stroke="none" points="59.6756,-994.5 59.6756,-1014.5 202.676,-1014.5 202.676,-994.5 59.6756,-994.5"/>
<polygon fill="none" stroke="black" points="59.6756,-994.5 59.6756,-1014.5 202.676,-1014.5 202.676,-994.5 59.6756,-994.5"/>
<text text-anchor="start" x="64.6756" y="-1002.3" font-family="Helvetica,sans-Serif" font-size="9.00">ordinal_id</text>
</a>
</g>
<g id="a_node1_2"><a xlink:href="/dictionaries/mmcif_pdbx_modeling_extension_all.dic/Items/_ma_alignment_details.data_id.html" xlink:title="&lt;TABLE&gt;" target="_top">
<polygon fill="none" stroke="black" points="59.6756,-974.5 59.6756,-994.5 202.676,-994.5 202.676,-974.5 59.6756,-974.5"/>
<text text-anchor="start" x="64.6756" y="-982.3" font-family="Helvetica,sans-Serif" font-size="9.00">data_id</text>
</a>
</g>
<g id="a_node1_3"><a xlink:href="/dictionaries/mmcif_pdbx_modeling_extension_all.dic/Items/_ma_alignment_details.alignment_id.html" xlink:title="&lt;TABLE&gt;" target="_top">
<polygon fill="none" stroke="black" points="59.6756,-954.5 59.6756,-974.5 202.676,-974.5 202.676,-954.5 59.6756,-954.5"/>
<text text-anchor="start" x="64.6756" y="-962.3" font-family="Helvetica,sans-Serif" font-size="9.00">alignment_id</text>
</a>
</g>
<g id="a_node1_4"><a xlink:href="/dictionaries/mmcif_pdbx_modeling_extension_all.dic/Items/_ma_alignment_details.alignment_length.html" xlink:title="&lt;TABLE&gt;" target="_top">
<polygon fill="none" stroke="black" points="59.6756,-934.5 59.6756,-954.5 202.676,-954.5 202.676,-934.5 59.6756,-934.5"/>
<text text-anchor="start" x="64.6756" y="-942.3" font-family="Helvetica,sans-Serif" font-size="9.00">alignment_length</text>
</a>
</g>
<g id="a_node1_5"><a xlink:href="/dictionaries/mmcif_pdbx_modeling_extension_all.dic/Items/_ma_alignment_details.alignment_type.html" xlink:title="&lt;TABLE&gt;" target="_top">
<polygon fill="none" stroke="black" points="59.6756,-914.5 59.6756,-934.5 202.676,-934.5 202.676,-914.5 59.6756,-914.5"/>
<text text-anchor="start" x="64.6756" y="-922.3" font-family="Helvetica,sans-Serif" font-size="9.00">alignment_type</text>
</a>
</g>
<g id="a_node1_6"><a xlink:href="/dictionaries/mmcif_pdbx_modeling_extension_all.dic/Items/_ma_alignment_details.e_value.html" xlink:title="&lt;TABLE&gt;" target="_top">
<polygon fill="none" stroke="black" points="59.6756,-894.5 59.6756,-914.5 202.676,-914.5 202.676,-894.5 59.6756,-894.5"/>
<text text-anchor="start" x="64.6756" y="-902.3" font-family="Helvetica,sans-Serif" font-size="9.00">e_value</text>
</a>
</g>
<g id="a_node1_7"><a xlink:href="/dictionaries/mmcif_pdbx_modeling_extension_all.dic/Items/_ma_alignment_details.percent_sequence_identity.html" xlink:title="&lt;TABLE&gt;" target="_top">
<polygon fill="none" stroke="black" points="59.6756,-874.5 59.6756,-894.5 202.676,-894.5 202.676,-874.5 59.6756,-874.5"/>
<text text-anchor="start" x="64.6756" y="-882.3" font-family="Helvetica,sans-Serif" font-size="9.00">percent_sequence_identity</text>
</a>
</g>
<g id="a_node1_8"><a xlink:href="/dictionaries/mmcif_pdbx_modeling_extension_all.dic/Items/_ma_alignment_details.sequence_identity_denominator.html" xlink:title="&lt;TABLE&gt;" target="_top">
<polygon fill="none" stroke="black" points="59.6756,-854.5 59.6756,-874.5 202.676,-874.5 202.676,-854.5 59.6756,-854.5"/>
<text text-anchor="start" x="64.6756" y="-862.3" font-family="Helvetica,sans-Serif" font-size="9.00">sequence_identity_denominator</text>
</a>
</g>
<g id="a_node1_9"><a xlink:href="/dictionaries/mmcif_pdbx_modeling_extension_all.dic/Items/_ma_alignment_details.software_id.html" xlink:title="&lt;TABLE&gt;" target="_top">
<polygon fill="none" stroke="black" points="59.6756,-834.5 59.6756,-854.5 202.676,-854.5 202.676,-834.5 59.6756,-834.5"/>
<text text-anchor="start" x="64.6756" y="-842.3" font-family="Helvetica,sans-Serif" font-size="9.00">software_id</text>
</a>
</g>
<g id="a_node1_10"><a xlink:href="/dictionaries/mmcif_pdbx_modeling_extension_all.dic/Items/_ma_alignment_details.target_id.html" xlink:title="&lt;TABLE&gt;" target="_top">
<polygon fill="none" stroke="black" points="59.6756,-814.5 59.6756,-834.5 202.676,-834.5 202.676,-814.5 59.6756,-814.5"/>
<text text-anchor="start" x="64.6756" y="-822.3" font-family="Helvetica,sans-Serif" font-size="9.00">target_id</text>
</a>
</g>
<g id="a_node1_11"><a xlink:href="/dictionaries/mmcif_pdbx_modeling_extension_all.dic/Items/_ma_alignment_details.template_id.html" xlink:title="&lt;TABLE&gt;" target="_top">
<polygon fill="none" stroke="black" points="59.6756,-794.5 59.6756,-814.5 202.676,-814.5 202.676,-794.5 59.6756,-794.5"/>
<text text-anchor="start" x="64.6756" y="-802.3" font-family="Helvetica,sans-Serif" font-size="9.00">template_id</text>
</a>
</g>
</g>
<!-- _ma_data -->
<g id="node2" class="node"><title>_ma_data</title>
<g id="a_node2_12"><a xlink:href="/dictionaries/mmcif_pdbx_modeling_extension_all.dic/Categories/ma_data.html" xlink:title="&lt;TABLE&gt;" target="_top">
<polygon fill="#f0027f" stroke="none" points="213.676,-159.5 213.676,-180.5 296.676,-180.5 296.676,-159.5 213.676,-159.5"/>
<polygon fill="none" stroke="black" points="213.676,-159.5 213.676,-180.5 296.676,-180.5 296.676,-159.5 213.676,-159.5"/>
<text text-anchor="start" x="231.176" y="-167.5" font-family="Helvetica,sans-Serif" font-size="10.00">MA_DATA</text>
</a>
</g>
<g id="a_node2_13"><a xlink:href="/dictionaries/mmcif_pdbx_modeling_extension_all.dic/Items/_ma_data.id.html" xlink:title="&lt;TABLE&gt;" target="_top">
<polygon fill="#ffff99" stroke="none" points="213.676,-139.5 213.676,-159.5 296.676,-159.5 296.676,-139.5 213.676,-139.5"/>
<polygon fill="none" stroke="black" points="213.676,-139.5 213.676,-159.5 296.676,-159.5 296.676,-139.5 213.676,-139.5"/>
<text text-anchor="start" x="218.676" y="-147.3" font-family="Helvetica,sans-Serif" font-size="9.00">id</text>
</a>
</g>
<g id="a_node2_14"><a xlink:href="/dictionaries/mmcif_pdbx_modeling_extension_all.dic/Items/_ma_data.content_sub_type.html" xlink:title="&lt;TABLE&gt;" target="_top">
<polygon fill="none" stroke="black" points="213.676,-119.5 213.676,-139.5 296.676,-139.5 296.676,-119.5 213.676,-119.5"/>
<text text-anchor="start" x="218.676" y="-127.3" font-family="Helvetica,sans-Serif" font-size="9.00">content_sub_type</text>
</a>
</g>
<g id="a_node2_15"><a xlink:href="/dictionaries/mmcif_pdbx_modeling_extension_all.dic/Items/_ma_data.content_type.html" xlink:title="&lt;TABLE&gt;" target="_top">
<polygon fill="none" stroke="black" points="213.676,-99.5 213.676,-119.5 296.676,-119.5 296.676,-99.5 213.676,-99.5"/>
<text text-anchor="start" x="218.676" y="-107.3" font-family="Helvetica,sans-Serif" font-size="9.00">content_type</text>
</a>
</g>
<g id="a_node2_16"><a xlink:href="/dictionaries/mmcif_pdbx_modeling_extension_all.dic/Items/_ma_data.name.html" xlink:title="&lt;TABLE&gt;" target="_top">
<polygon fill="none" stroke="black" points="213.676,-79.5 213.676,-99.5 296.676,-99.5 296.676,-79.5 213.676,-79.5"/>
<text text-anchor="start" x="218.676" y="-87.3" font-family="Helvetica,sans-Serif" font-size="9.00">name</text>
</a>
</g>
</g>
<!-- _ma_alignment_details&#45;&gt;_ma_data -->
<g id="edge1" class="edge"><title>_ma_alignment_details:__data_id:w&#45;&gt;_ma_data:__id:w</title>
<path fill="none" stroke="black" d="M58.6756,-984.5C-26.1813,-984.5 -6.82249,-291.318 40.6756,-221 85.0235,-155.345 126.198,-149.87 202.222,-149.521"/>
<polygon fill="black" stroke="black" points="202.683,-153.02 212.676,-149.5 202.669,-146.02 202.683,-153.02"/>
</g>
<!-- _ma_target_details -->
<g id="node5" class="node"><title>_ma_target_details</title>
<g id="a_node5_17"><a xlink:href="/dictionaries/mmcif_pdbx_modeling_extension_all.dic/Categories/ma_target_details.html" xlink:title="&lt;TABLE&gt;" target="_top">
<polygon fill="#99c49b" stroke="none" points="58.6756,-424.5 58.6756,-445.5 177.676,-445.5 177.676,-424.5 58.6756,-424.5"/>
<polygon fill="none" stroke="black" points="58.6756,-424.5 58.6756,-445.5 177.676,-445.5 177.676,-424.5 58.6756,-424.5"/>
<text text-anchor="start" x="63.6756" y="-432.5" font-family="Helvetica,sans-Serif" font-size="10.00">MA_TARGET_DETAILS</text>
</a>
</g>
<g id="a_node5_18"><a xlink:href="/dictionaries/mmcif_pdbx_modeling_extension_all.dic/Items/_ma_target_details.id.html" xlink:title="&lt;TABLE&gt;" target="_top">
<polygon fill="#ffff99" stroke="none" points="58.6756,-404.5 58.6756,-424.5 177.676,-424.5 177.676,-404.5 58.6756,-404.5"/>
<polygon fill="none" stroke="black" points="58.6756,-404.5 58.6756,-424.5 177.676,-424.5 177.676,-404.5 58.6756,-404.5"/>
<text text-anchor="start" x="63.6756" y="-412.3" font-family="Helvetica,sans-Serif" font-size="9.00">id</text>
</a>
</g>
<g id="a_node5_19"><a xlink:href="/dictionaries/mmcif_pdbx_modeling_extension_all.dic/Items/_ma_target_details.data_id.html" xlink:title="&lt;TABLE&gt;" target="_top">
<polygon fill="none" stroke="black" points="58.6756,-384.5 58.6756,-404.5 177.676,-404.5 177.676,-384.5 58.6756,-384.5"/>
<text text-anchor="start" x="63.6756" y="-392.3" font-family="Helvetica,sans-Serif" font-size="9.00">data_id</text>
</a>
</g>
<g id="a_node5_20"><a xlink:href="/dictionaries/mmcif_pdbx_modeling_extension_all.dic/Items/_ma_target_details.db_accession.html" xlink:title="&lt;TABLE&gt;" target="_top">
<polygon fill="none" stroke="black" points="58.6756,-364.5 58.6756,-384.5 177.676,-384.5 177.676,-364.5 58.6756,-364.5"/>
<text text-anchor="start" x="63.6756" y="-372.3" font-family="Helvetica,sans-Serif" font-size="9.00">db_accession</text>
</a>
</g>
<g id="a_node5_21"><a xlink:href="/dictionaries/mmcif_pdbx_modeling_extension_all.dic/Items/_ma_target_details.db_code.html" xlink:title="&lt;TABLE&gt;" target="_top">
<polygon fill="none" stroke="black" points="58.6756,-344.5 58.6756,-364.5 177.676,-364.5 177.676,-344.5 58.6756,-344.5"/>
<text text-anchor="start" x="63.6756" y="-352.3" font-family="Helvetica,sans-Serif" font-size="9.00">db_code</text>
</a>
</g>
<g id="a_node5_22"><a xlink:href="/dictionaries/mmcif_pdbx_modeling_extension_all.dic/Items/_ma_target_details.db_isoform.html" xlink:title="&lt;TABLE&gt;" target="_top">
<polygon fill="none" stroke="black" points="58.6756,-324.5 58.6756,-344.5 177.676,-344.5 177.676,-324.5 58.6756,-324.5"/>
<text text-anchor="start" x="63.6756" y="-332.3" font-family="Helvetica,sans-Serif" font-size="9.00">db_isoform</text>
</a>
</g>
<g id="a_node5_23"><a xlink:href="/dictionaries/mmcif_pdbx_modeling_extension_all.dic/Items/_ma_target_details.db_name.html" xlink:title="&lt;TABLE&gt;" target="_top">
<polygon fill="none" stroke="black" points="58.6756,-304.5 58.6756,-324.5 177.676,-324.5 177.676,-304.5 58.6756,-304.5"/>
<text text-anchor="start" x="63.6756" y="-312.3" font-family="Helvetica,sans-Serif" font-size="9.00">db_name</text>
</a>
</g>
<g id="a_node5_24"><a xlink:href="/dictionaries/mmcif_pdbx_modeling_extension_all.dic/Items/_ma_target_details.entity_id.html" xlink:title="&lt;TABLE&gt;" target="_top">
<polygon fill="none" stroke="black" points="58.6756,-284.5 58.6756,-304.5 177.676,-304.5 177.676,-284.5 58.6756,-284.5"/>
<text text-anchor="start" x="63.6756" y="-292.3" font-family="Helvetica,sans-Serif" font-size="9.00">entity_id</text>
</a>
</g>
<g id="a_node5_25"><a xlink:href="/dictionaries/mmcif_pdbx_modeling_extension_all.dic/Items/_ma_target_details.seq_db_align_begin.html" xlink:title="&lt;TABLE&gt;" target="_top">
<polygon fill="none" stroke="black" points="58.6756,-264.5 58.6756,-284.5 177.676,-284.5 177.676,-264.5 58.6756,-264.5"/>
<text text-anchor="start" x="63.6756" y="-272.3" font-family="Helvetica,sans-Serif" font-size="9.00">seq_db_align_begin</text>
</a>
</g>
<g id="a_node5_26"><a xlink:href="/dictionaries/mmcif_pdbx_modeling_extension_all.dic/Items/_ma_target_details.seq_db_align_end.html" xlink:title="&lt;TABLE&gt;" target="_top">
<polygon fill="none" stroke="black" points="58.6756,-244.5 58.6756,-264.5 177.676,-264.5 177.676,-244.5 58.6756,-244.5"/>
<text text-anchor="start" x="63.6756" y="-252.3" font-family="Helvetica,sans-Serif" font-size="9.00">seq_db_align_end</text>
</a>
</g>
<g id="a_node5_27"><a xlink:href="/dictionaries/mmcif_pdbx_modeling_extension_all.dic/Items/_ma_target_details.seq_db_one_letter_code.html" xlink:title="&lt;TABLE&gt;" target="_top">
<polygon fill="none" stroke="black" points="58.6756,-224.5 58.6756,-244.5 177.676,-244.5 177.676,-224.5 58.6756,-224.5"/>
<text text-anchor="start" x="63.6756" y="-232.3" font-family="Helvetica,sans-Serif" font-size="9.00">seq_db_one_letter_code</text>
</a>
</g>
</g>
<!-- _ma_alignment_details&#45;&gt;_ma_target_details -->
<g id="edge2" class="edge"><title>_ma_alignment_details:__target_id:w&#45;&gt;_ma_target_details:__id:w</title>
<path fill="none" stroke="black" d="M58.6756,-824.5C37.8552,-824.5 35.2304,-481.941 52.3287,-423.063"/>
<polygon fill="black" stroke="black" points="55.3481,-424.836 57.6756,-414.5 49.4105,-421.129 55.3481,-424.836"/>
</g>
<!-- _ma_template_details -->
<g id="node6" class="node"><title>_ma_template_details</title>
<g id="a_node6_28"><a xlink:href="/dictionaries/mmcif_pdbx_modeling_extension_all.dic/Categories/ma_template_details.html" xlink:title="&lt;TABLE&gt;" target="_top">
<polygon fill="#99c49b" stroke="none" points="96.6756,-729.5 96.6756,-750.5 235.676,-750.5 235.676,-729.5 96.6756,-729.5"/>
<polygon fill="none" stroke="black" points="96.6756,-729.5 96.6756,-750.5 235.676,-750.5 235.676,-729.5 96.6756,-729.5"/>
<text text-anchor="start" x="105.676" y="-737.5" font-family="Helvetica,sans-Serif" font-size="10.00">MA_TEMPLATE_DETAILS</text>
</a>
</g>
<g id="a_node6_29"><a xlink:href="/dictionaries/mmcif_pdbx_modeling_extension_all.dic/Items/_ma_template_details.id.html" xlink:title="&lt;TABLE&gt;" target="_top">
<polygon fill="#ffff99" stroke="none" points="96.6756,-709.5 96.6756,-729.5 235.676,-729.5 235.676,-709.5 96.6756,-709.5"/>
<polygon fill="none" stroke="black" points="96.6756,-709.5 96.6756,-729.5 235.676,-729.5 235.676,-709.5 96.6756,-709.5"/>
<text text-anchor="start" x="101.676" y="-717.3" font-family="Helvetica,sans-Serif" font-size="9.00">id</text>
</a>
</g>
<g id="a_node6_30"><a xlink:href="/dictionaries/mmcif_pdbx_modeling_extension_all.dic/Items/_ma_template_details.data_id.html" xlink:title="&lt;TABLE&gt;" target="_top">
<polygon fill="none" stroke="black" points="96.6756,-689.5 96.6756,-709.5 235.676,-709.5 235.676,-689.5 96.6756,-689.5"/>
<text text-anchor="start" x="101.676" y="-697.3" font-family="Helvetica,sans-Serif" font-size="9.00">data_id</text>
</a>
</g>
<g id="a_node6_31"><a xlink:href="/dictionaries/mmcif_pdbx_modeling_extension_all.dic/Items/_ma_template_details.group_id.html" xlink:title="&lt;TABLE&gt;" target="_top">
<polygon fill="none" stroke="black" points="96.6756,-669.5 96.6756,-689.5 235.676,-689.5 235.676,-669.5 96.6756,-669.5"/>
<text text-anchor="start" x="101.676" y="-677.3" font-family="Helvetica,sans-Serif" font-size="9.00">group_id</text>
</a>
</g>
<g id="a_node6_32"><a xlink:href="/dictionaries/mmcif_pdbx_modeling_extension_all.dic/Items/_ma_template_details.pdb_code.html" xlink:title="&lt;TABLE&gt;" target="_top">
<polygon fill="none" stroke="black" points="96.6756,-649.5 96.6756,-669.5 235.676,-669.5 235.676,-649.5 96.6756,-649.5"/>
<text text-anchor="start" x="101.676" y="-657.3" font-family="Helvetica,sans-Serif" font-size="9.00">pdb_code</text>
</a>
</g>
<g id="a_node6_33"><a xlink:href="/dictionaries/mmcif_pdbx_modeling_extension_all.dic/Items/_ma_template_details.pdb_entity_id.html" xlink:title="&lt;TABLE&gt;" target="_top">
<polygon fill="none" stroke="black" points="96.6756,-629.5 96.6756,-649.5 235.676,-649.5 235.676,-629.5 96.6756,-629.5"/>
<text text-anchor="start" x="101.676" y="-637.3" font-family="Helvetica,sans-Serif" font-size="9.00">pdb_entity_id</text>
</a>
</g>
<g id="a_node6_34"><a xlink:href="/dictionaries/mmcif_pdbx_modeling_extension_all.dic/Items/_ma_template_details.pdb_label_asym_id.html" xlink:title="&lt;TABLE&gt;" target="_top">
<polygon fill="none" stroke="black" points="96.6756,-609.5 96.6756,-629.5 235.676,-629.5 235.676,-609.5 96.6756,-609.5"/>
<text text-anchor="start" x="101.676" y="-617.3" font-family="Helvetica,sans-Serif" font-size="9.00">pdb_label_asym_id</text>
</a>
</g>
<g id="a_node6_35"><a xlink:href="/dictionaries/mmcif_pdbx_modeling_extension_all.dic/Items/_ma_template_details.pdb_model_num.html" xlink:title="&lt;TABLE&gt;" target="_top">
<polygon fill="none" stroke="black" points="96.6756,-589.5 96.6756,-609.5 235.676,-609.5 235.676,-589.5 96.6756,-589.5"/>
<text text-anchor="start" x="101.676" y="-597.3" font-family="Helvetica,sans-Serif" font-size="9.00">pdb_model_num</text>
</a>
</g>
<g id="a_node6_36"><a xlink:href="/dictionaries/mmcif_pdbx_modeling_extension_all.dic/Items/_ma_template_details.pdb_seq_id_begin.html" xlink:title="&lt;TABLE&gt;" target="_top">
<polygon fill="none" stroke="black" points="96.6756,-569.5 96.6756,-589.5 235.676,-589.5 235.676,-569.5 96.6756,-569.5"/>
<text text-anchor="start" x="101.676" y="-577.3" font-family="Helvetica,sans-Serif" font-size="9.00">pdb_seq_id_begin</text>
</a>
</g>
<g id="a_node6_37"><a xlink:href="/dictionaries/mmcif_pdbx_modeling_extension_all.dic/Items/_ma_template_details.pdb_seq_id_end.html" xlink:title="&lt;TABLE&gt;" target="_top">
<polygon fill="none" stroke="black" points="96.6756,-549.5 96.6756,-569.5 235.676,-569.5 235.676,-549.5 96.6756,-549.5"/>
<text text-anchor="start" x="101.676" y="-557.3" font-family="Helvetica,sans-Serif" font-size="9.00">pdb_seq_id_end</text>
</a>
</g>
<g id="a_node6_38"><a xlink:href="/dictionaries/mmcif_pdbx_modeling_extension_all.dic/Items/_ma_template_details.pdb_seq_one_letter_code.html" xlink:title="&lt;TABLE&gt;" target="_top">
<polygon fill="none" stroke="black" points="96.6756,-529.5 96.6756,-549.5 235.676,-549.5 235.676,-529.5 96.6756,-529.5"/>
<text text-anchor="start" x="101.676" y="-537.3" font-family="Helvetica,sans-Serif" font-size="9.00">pdb_seq_one_letter_code</text>
</a>
</g>
<g id="a_node6_39"><a xlink:href="/dictionaries/mmcif_pdbx_modeling_extension_all.dic/Items/_ma_template_details.pdb_seq_one_letter_code_can.html" xlink:title="&lt;TABLE&gt;" target="_top">
<polygon fill="none" stroke="black" points="96.6756,-509.5 96.6756,-529.5 235.676,-529.5 235.676,-509.5 96.6756,-509.5"/>
<text text-anchor="start" x="101.676" y="-517.3" font-family="Helvetica,sans-Serif" font-size="9.00">pdb_seq_one_letter_code_can</text>
</a>
</g>
<g id="a_node6_40"><a xlink:href="/dictionaries/mmcif_pdbx_modeling_extension_all.dic/Items/_ma_template_details.target_entity_id.html" xlink:title="&lt;TABLE&gt;" target="_top">
<polygon fill="none" stroke="black" points="96.6756,-489.5 96.6756,-509.5 235.676,-509.5 235.676,-489.5 96.6756,-489.5"/>
<text text-anchor="start" x="101.676" y="-497.3" font-family="Helvetica,sans-Serif" font-size="9.00">target_entity_id</text>
</a>
</g>
</g>
<!-- _ma_alignment_details&#45;&gt;_ma_template_details -->
<g id="edge3" class="edge"><title>_ma_alignment_details:__template_id:w&#45;&gt;_ma_template_details:__id:w</title>
<path fill="none" stroke="black" d="M58.6756,-804.5C52.6591,-804.5 58.0697,-796.798 59.6756,-791 61.5489,-784.236 77.3422,-743.629 88.2915,-726.799"/>
<polygon fill="black" stroke="black" points="91.0242,-729.019 95.6756,-719.5 86.1032,-724.041 91.0242,-729.019"/>
</g>
<!-- _ma_data_group -->
<g id="node3" class="node"><title>_ma_data_group</title>
<g id="a_node3_41"><a xlink:href="/dictionaries/mmcif_pdbx_modeling_extension_all.dic/Categories/ma_data_group.html" xlink:title="&lt;TABLE&gt;" target="_top">
<polygon fill="#99c49b" stroke="none" points="249.676,-354.5 249.676,-375.5 349.676,-375.5 349.676,-354.5 249.676,-354.5"/>
<polygon fill="none" stroke="black" points="249.676,-354.5 249.676,-375.5 349.676,-375.5 349.676,-354.5 249.676,-354.5"/>
<text text-anchor="start" x="254.676" y="-362.5" font-family="Helvetica,sans-Serif" font-size="10.00">MA_DATA_GROUP</text>
</a>
</g>
<g id="a_node3_42"><a xlink:href="/dictionaries/mmcif_pdbx_modeling_extension_all.dic/Items/_ma_data_group.ordinal_id.html" xlink:title="&lt;TABLE&gt;" target="_top">
<polygon fill="#ffff99" stroke="none" points="249.676,-334.5 249.676,-354.5 349.676,-354.5 349.676,-334.5 249.676,-334.5"/>
<polygon fill="none" stroke="black" points="249.676,-334.5 249.676,-354.5 349.676,-354.5 349.676,-334.5 249.676,-334.5"/>
<text text-anchor="start" x="254.676" y="-342.3" font-family="Helvetica,sans-Serif" font-size="9.00">ordinal_id</text>
</a>
</g>
<g id="a_node3_43"><a xlink:href="/dictionaries/mmcif_pdbx_modeling_extension_all.dic/Items/_ma_data_group.data_id.html" xlink:title="&lt;TABLE&gt;" target="_top">
<polygon fill="none" stroke="black" points="249.676,-314.5 249.676,-334.5 349.676,-334.5 349.676,-314.5 249.676,-314.5"/>
<text text-anchor="start" x="254.676" y="-322.3" font-family="Helvetica,sans-Serif" font-size="9.00">data_id</text>
</a>
</g>
<g id="a_node3_44"><a xlink:href="/dictionaries/mmcif_pdbx_modeling_extension_all.dic/Items/_ma_data_group.group_id.html" xlink:title="&lt;TABLE&gt;" target="_top">
<polygon fill="none" stroke="black" points="249.676,-294.5 249.676,-314.5 349.676,-314.5 349.676,-294.5 249.676,-294.5"/>
<text text-anchor="start" x="254.676" y="-302.3" font-family="Helvetica,sans-Serif" font-size="9.00">group_id</text>
</a>
</g>
</g>
<!-- _ma_data_group&#45;&gt;_ma_data -->
<g id="edge6" class="edge"><title>_ma_data_group:__data_id:w&#45;&gt;_ma_data:__id:w</title>
<path fill="none" stroke="black" d="M248.676,-324.5C225.207,-324.5 234.286,-243.518 227.676,-221 222.84,-204.528 217.078,-201.827 213.676,-185 211.696,-175.21 205.501,-163.594 205.218,-156.384"/>
<polygon fill="black" stroke="black" points="207.701,-158.855 212.676,-149.5 202.953,-153.711 207.701,-158.855"/>
</g>
<!-- _ma_restraints -->
<g id="node4" class="node"><title>_ma_restraints</title>
<g id="a_node4_45"><a xlink:href="/dictionaries/mmcif_pdbx_modeling_extension_all.dic/Categories/ma_restraints.html" xlink:title="&lt;TABLE&gt;" target="_top">
<polygon fill="#99c49b" stroke="none" points="384.676,-374.5 384.676,-395.5 479.676,-395.5 479.676,-374.5 384.676,-374.5"/>
<polygon fill="none" stroke="black" points="384.676,-374.5 384.676,-395.5 479.676,-395.5 479.676,-374.5 384.676,-374.5"/>
<text text-anchor="start" x="389.676" y="-382.5" font-family="Helvetica,sans-Serif" font-size="10.00">MA_RESTRAINTS</text>
</a>
</g>
<g id="a_node4_46"><a xlink:href="/dictionaries/mmcif_pdbx_modeling_extension_all.dic/Items/_ma_restraints.restraint_id.html" xlink:title="&lt;TABLE&gt;" target="_top">
<polygon fill="#ffff99" stroke="none" points="384.676,-354.5 384.676,-374.5 479.676,-374.5 479.676,-354.5 384.676,-354.5"/>
<polygon fill="none" stroke="black" points="384.676,-354.5 384.676,-374.5 479.676,-374.5 479.676,-354.5 384.676,-354.5"/>
<text text-anchor="start" x="389.676" y="-362.3" font-family="Helvetica,sans-Serif" font-size="9.00">restraint_id</text>
</a>
</g>
<g id="a_node4_47"><a xlink:href="/dictionaries/mmcif_pdbx_modeling_extension_all.dic/Items/_ma_restraints.data_id.html" xlink:title="&lt;TABLE&gt;" target="_top">
<polygon fill="none" stroke="black" points="384.676,-334.5 384.676,-354.5 479.676,-354.5 479.676,-334.5 384.676,-334.5"/>
<text text-anchor="start" x="389.676" y="-342.3" font-family="Helvetica,sans-Serif" font-size="9.00">data_id</text>
</a>
</g>
<g id="a_node4_48"><a xlink:href="/dictionaries/mmcif_pdbx_modeling_extension_all.dic/Items/_ma_restraints.details.html" xlink:title="&lt;TABLE&gt;" target="_top">
<polygon fill="none" stroke="black" points="384.676,-314.5 384.676,-334.5 479.676,-334.5 479.676,-314.5 384.676,-314.5"/>
<text text-anchor="start" x="389.676" y="-322.3" font-family="Helvetica,sans-Serif" font-size="9.00">details</text>
</a>
</g>
<g id="a_node4_49"><a xlink:href="/dictionaries/mmcif_pdbx_modeling_extension_all.dic/Items/_ma_restraints.name.html" xlink:title="&lt;TABLE&gt;" target="_top">
<polygon fill="none" stroke="black" points="384.676,-294.5 384.676,-314.5 479.676,-314.5 479.676,-294.5 384.676,-294.5"/>
<text text-anchor="start" x="389.676" y="-302.3" font-family="Helvetica,sans-Serif" font-size="9.00">name</text>
</a>
</g>
<g id="a_node4_50"><a xlink:href="/dictionaries/mmcif_pdbx_modeling_extension_all.dic/Items/_ma_restraints.restraint_type.html" xlink:title="&lt;TABLE&gt;" target="_top">
<polygon fill="none" stroke="black" points="384.676,-274.5 384.676,-294.5 479.676,-294.5 479.676,-274.5 384.676,-274.5"/>
<text text-anchor="start" x="389.676" y="-282.3" font-family="Helvetica,sans-Serif" font-size="9.00">restraint_type</text>
</a>
</g>
</g>
<!-- _ma_restraints&#45;&gt;_ma_data -->
<g id="edge7" class="edge"><title>_ma_restraints:__data_id:w&#45;&gt;_ma_data:__id:w</title>
<path fill="none" stroke="black" d="M383.676,-344.5C355.972,-344.5 385.32,-241.491 366.676,-221 319.662,-169.33 257.814,-239.146 213.676,-185 206.663,-176.398 201.214,-162.342 204.084,-154.754"/>
<polygon fill="black" stroke="black" points="205.97,-157.703 212.676,-149.5 202.318,-151.731 205.97,-157.703"/>
</g>
<!-- _ma_target_details&#45;&gt;_ma_data -->
<g id="edge5" class="edge"><title>_ma_target_details:__data_id:w&#45;&gt;_ma_data:__id:w</title>
<path fill="none" stroke="black" d="M57.6756,-394.5C38.3975,-394.5 48.2572,-237.22 58.6756,-221 97.5455,-160.483 133.668,-150.373 202.308,-149.558"/>
<polygon fill="black" stroke="black" points="202.695,-153.056 212.676,-149.5 202.656,-146.056 202.695,-153.056"/>
</g>
<!-- _ma_template_details&#45;&gt;_ma_data -->
<g id="edge4" class="edge"><title>_ma_template_details:__data_id:w&#45;&gt;_ma_data:__id:w</title>
<path fill="none" stroke="black" d="M95.6756,-699.5C48.2306,-699.5 69.4939,-524.887 96.6756,-486 123.021,-448.31 166.24,-486.904 193.676,-450 211.804,-425.616 185.08,-197.661 205.083,-156.015"/>
<polygon fill="black" stroke="black" points="207.366,-158.668 212.676,-149.5 202.807,-153.356 207.366,-158.668"/>
</g>
<!-- _ma_template_details&#45;&gt;_ma_target_details -->
<g id="edge8" class="edge"><title>_ma_template_details:__target_entity_id:w&#45;&gt;_ma_target_details:__entity_id:w</title>
<path fill="none" stroke="black" d="M95.6756,-499.5C52.9636,-499.5 17.3323,-325.28 48.3245,-298.058"/>
<polygon fill="black" stroke="black" points="49.5741,-301.328 57.6756,-294.5 47.0846,-294.785 49.5741,-301.328"/>
</g>
</g>
</svg>
