<?xml version="1.0" encoding="UTF-8" standalone="no"?>
<!DOCTYPE svg PUBLIC "-//W3C//DTD SVG 1.1//EN"
 "http://www.w3.org/Graphics/SVG/1.1/DTD/svg11.dtd">
<!-- Generated by graphviz version 2.38.0 (20140413.2041)
 -->
<!-- Title: ma_dihedral_restraints Pages: 1 -->
<svg width="674pt" height="1050pt"
 viewBox="0.00 0.00 673.77 1050.00" xmlns="http://www.w3.org/2000/svg" xmlns:xlink="http://www.w3.org/1999/xlink">
<g id="graph0" class="graph" transform="scale(1 1) rotate(0) translate(4 1046)">
<title>ma_dihedral_restraints</title>
<polygon fill="white" stroke="none" points="-4,4 -4,-1046 669.765,-1046 669.765,4 -4,4"/>
<text text-anchor="start" x="329.883" y="-58.6" font-family="Helvetica,sans-Serif" font-size="18.00"> </text>
<text text-anchor="start" x="329.883" y="-40.6" font-family="Helvetica,sans-Serif" font-size="18.00"> </text>
<text text-anchor="start" x="58.8825" y="-22.6" font-family="Helvetica,sans-Serif" font-size="18.00"> Category Relationship Diagram for </text>
<text text-anchor="start" x="341.883" y="-22.6" font-family="Helvetica,sans-Serif" font-weight="bold" font-size="18.00">MA_DIHEDRAL_RESTRAINTS</text>
<text text-anchor="start" x="596.883" y="-22.6" font-family="Helvetica,sans-Serif" font-size="18.00"> </text>
<text text-anchor="start" x="602.883" y="-22.6" font-family="Helvetica,sans-Serif" font-size="14.00"> </text>
<text text-anchor="start" x="198.883" y="-7.8" font-family="Helvetica,sans-Serif" font-size="14.00"> &#160;in dictionary mmcif_pdbx.dic version 5.280 </text>
<!-- _chem_comp_atom -->
<g id="node1" class="node"><title>_chem_comp_atom</title>
<g id="a_node1_0"><a xlink:href="/dictionaries/mmcif_modeling_v10.unix_1.04.dic/Categories/chem_comp_atom.html" xlink:title="&lt;TABLE&gt;" target="_top">
<polygon fill="#99c49b" stroke="none" points="10.7651,-495.5 10.7651,-516.5 132.765,-516.5 132.765,-495.5 10.7651,-495.5"/>
<polygon fill="none" stroke="black" points="10.7651,-495.5 10.7651,-516.5 132.765,-516.5 132.765,-495.5 10.7651,-495.5"/>
<text text-anchor="start" x="21.7651" y="-503.5" font-family="Helvetica,sans-Serif" font-size="10.00">CHEM_COMP_ATOM</text>
</a>
</g>
<g id="a_node1_1"><a xlink:href="/dictionaries/mmcif_modeling_v10.unix_1.04.dic/Items/_chem_comp_atom.atom_id.html" xlink:title="&lt;TABLE&gt;" target="_top">
<polygon fill="#ffff99" stroke="none" points="10.7651,-475.5 10.7651,-495.5 132.765,-495.5 132.765,-475.5 10.7651,-475.5"/>
<polygon fill="none" stroke="black" points="10.7651,-475.5 10.7651,-495.5 132.765,-495.5 132.765,-475.5 10.7651,-475.5"/>
<text text-anchor="start" x="15.7651" y="-483.3" font-family="Helvetica,sans-Serif" font-size="9.00">atom_id</text>
</a>
</g>
<g id="a_node1_2"><a xlink:href="/dictionaries/mmcif_modeling_v10.unix_1.04.dic/Items/_chem_comp_atom.comp_id.html" xlink:title="&lt;TABLE&gt;" target="_top">
<polygon fill="#ffff99" stroke="none" points="10.7651,-455.5 10.7651,-475.5 132.765,-475.5 132.765,-455.5 10.7651,-455.5"/>
<polygon fill="none" stroke="black" points="10.7651,-455.5 10.7651,-475.5 132.765,-475.5 132.765,-455.5 10.7651,-455.5"/>
<text text-anchor="start" x="15.7651" y="-463.3" font-family="Helvetica,sans-Serif" font-size="9.00">comp_id</text>
</a>
</g>
<g id="a_node1_3"><a xlink:href="/dictionaries/mmcif_modeling_v10.unix_1.04.dic/Items/_chem_comp_atom.alt_atom_id.html" xlink:title="&lt;TABLE&gt;" target="_top">
<polygon fill="none" stroke="black" points="10.7651,-435.5 10.7651,-455.5 132.765,-455.5 132.765,-435.5 10.7651,-435.5"/>
<text text-anchor="start" x="15.7651" y="-443.3" font-family="Helvetica,sans-Serif" font-size="9.00">alt_atom_id</text>
</a>
</g>
<g id="a_node1_4"><a xlink:href="/dictionaries/mmcif_modeling_v10.unix_1.04.dic/Items/_chem_comp_atom.charge.html" xlink:title="&lt;TABLE&gt;" target="_top">
<polygon fill="none" stroke="black" points="10.7651,-415.5 10.7651,-435.5 132.765,-435.5 132.765,-415.5 10.7651,-415.5"/>
<text text-anchor="start" x="15.7651" y="-423.3" font-family="Helvetica,sans-Serif" font-size="9.00">charge</text>
</a>
</g>
<g id="a_node1_5"><a xlink:href="/dictionaries/mmcif_modeling_v10.unix_1.04.dic/Items/_chem_comp_atom.model_Cartn_x.html" xlink:title="&lt;TABLE&gt;" target="_top">
<polygon fill="none" stroke="black" points="10.7651,-395.5 10.7651,-415.5 132.765,-415.5 132.765,-395.5 10.7651,-395.5"/>
<text text-anchor="start" x="15.7651" y="-403.3" font-family="Helvetica,sans-Serif" font-size="9.00">model_Cartn_x</text>
</a>
</g>
<g id="a_node1_6"><a xlink:href="/dictionaries/mmcif_modeling_v10.unix_1.04.dic/Items/_chem_comp_atom.model_Cartn_x_esd.html" xlink:title="&lt;TABLE&gt;" target="_top">
<polygon fill="none" stroke="black" points="10.7651,-375.5 10.7651,-395.5 132.765,-395.5 132.765,-375.5 10.7651,-375.5"/>
<text text-anchor="start" x="15.7651" y="-383.3" font-family="Helvetica,sans-Serif" font-size="9.00">model_Cartn_x_esd</text>
</a>
</g>
<g id="a_node1_7"><a xlink:href="/dictionaries/mmcif_modeling_v10.unix_1.04.dic/Items/_chem_comp_atom.model_Cartn_y.html" xlink:title="&lt;TABLE&gt;" target="_top">
<polygon fill="none" stroke="black" points="10.7651,-355.5 10.7651,-375.5 132.765,-375.5 132.765,-355.5 10.7651,-355.5"/>
<text text-anchor="start" x="15.7651" y="-363.3" font-family="Helvetica,sans-Serif" font-size="9.00">model_Cartn_y</text>
</a>
</g>
<g id="a_node1_8"><a xlink:href="/dictionaries/mmcif_modeling_v10.unix_1.04.dic/Items/_chem_comp_atom.model_Cartn_y_esd.html" xlink:title="&lt;TABLE&gt;" target="_top">
<polygon fill="none" stroke="black" points="10.7651,-335.5 10.7651,-355.5 132.765,-355.5 132.765,-335.5 10.7651,-335.5"/>
<text text-anchor="start" x="15.7651" y="-343.3" font-family="Helvetica,sans-Serif" font-size="9.00">model_Cartn_y_esd</text>
</a>
</g>
<g id="a_node1_9"><a xlink:href="/dictionaries/mmcif_modeling_v10.unix_1.04.dic/Items/_chem_comp_atom.model_Cartn_z.html" xlink:title="&lt;TABLE&gt;" target="_top">
<polygon fill="none" stroke="black" points="10.7651,-315.5 10.7651,-335.5 132.765,-335.5 132.765,-315.5 10.7651,-315.5"/>
<text text-anchor="start" x="15.7651" y="-323.3" font-family="Helvetica,sans-Serif" font-size="9.00">model_Cartn_z</text>
</a>
</g>
<g id="a_node1_10"><a xlink:href="/dictionaries/mmcif_modeling_v10.unix_1.04.dic/Items/_chem_comp_atom.model_Cartn_z_esd.html" xlink:title="&lt;TABLE&gt;" target="_top">
<polygon fill="none" stroke="black" points="10.7651,-295.5 10.7651,-315.5 132.765,-315.5 132.765,-295.5 10.7651,-295.5"/>
<text text-anchor="start" x="15.7651" y="-303.3" font-family="Helvetica,sans-Serif" font-size="9.00">model_Cartn_z_esd</text>
</a>
</g>
<g id="a_node1_11"><a xlink:href="/dictionaries/mmcif_modeling_v10.unix_1.04.dic/Items/_chem_comp_atom.partial_charge.html" xlink:title="&lt;TABLE&gt;" target="_top">
<polygon fill="none" stroke="black" points="10.7651,-275.5 10.7651,-295.5 132.765,-295.5 132.765,-275.5 10.7651,-275.5"/>
<text text-anchor="start" x="15.7651" y="-283.3" font-family="Helvetica,sans-Serif" font-size="9.00">partial_charge</text>
</a>
</g>
<g id="a_node1_12"><a xlink:href="/dictionaries/mmcif_modeling_v10.unix_1.04.dic/Items/_chem_comp_atom.pdbx_align.html" xlink:title="&lt;TABLE&gt;" target="_top">
<polygon fill="none" stroke="black" points="10.7651,-255.5 10.7651,-275.5 132.765,-275.5 132.765,-255.5 10.7651,-255.5"/>
<text text-anchor="start" x="15.7651" y="-263.3" font-family="Helvetica,sans-Serif" font-size="9.00">pdbx_align</text>
</a>
</g>
<g id="a_node1_13"><a xlink:href="/dictionaries/mmcif_modeling_v10.unix_1.04.dic/Items/_chem_comp_atom.pdbx_alt_atom_id.html" xlink:title="&lt;TABLE&gt;" target="_top">
<polygon fill="none" stroke="black" points="10.7651,-235.5 10.7651,-255.5 132.765,-255.5 132.765,-235.5 10.7651,-235.5"/>
<text text-anchor="start" x="15.7651" y="-243.3" font-family="Helvetica,sans-Serif" font-size="9.00">pdbx_alt_atom_id</text>
</a>
</g>
<g id="a_node1_14"><a xlink:href="/dictionaries/mmcif_modeling_v10.unix_1.04.dic/Items/_chem_comp_atom.pdbx_alt_comp_id.html" xlink:title="&lt;TABLE&gt;" target="_top">
<polygon fill="none" stroke="black" points="10.7651,-215.5 10.7651,-235.5 132.765,-235.5 132.765,-215.5 10.7651,-215.5"/>
<text text-anchor="start" x="15.7651" y="-223.3" font-family="Helvetica,sans-Serif" font-size="9.00">pdbx_alt_comp_id</text>
</a>
</g>
<g id="a_node1_15"><a xlink:href="/dictionaries/mmcif_modeling_v10.unix_1.04.dic/Items/_chem_comp_atom.pdbx_aromatic_flag.html" xlink:title="&lt;TABLE&gt;" target="_top">
<polygon fill="none" stroke="black" points="10.7651,-195.5 10.7651,-215.5 132.765,-215.5 132.765,-195.5 10.7651,-195.5"/>
<text text-anchor="start" x="15.7651" y="-203.3" font-family="Helvetica,sans-Serif" font-size="9.00">pdbx_aromatic_flag</text>
</a>
</g>
<g id="a_node1_16"><a xlink:href="/dictionaries/mmcif_modeling_v10.unix_1.04.dic/Items/_chem_comp_atom.pdbx_component_atom_id.html" xlink:title="&lt;TABLE&gt;" target="_top">
<polygon fill="none" stroke="black" points="10.7651,-175.5 10.7651,-195.5 132.765,-195.5 132.765,-175.5 10.7651,-175.5"/>
<text text-anchor="start" x="15.7651" y="-183.3" font-family="Helvetica,sans-Serif" font-size="9.00">pdbx_component_atom_id</text>
</a>
</g>
<g id="a_node1_17"><a xlink:href="/dictionaries/mmcif_modeling_v10.unix_1.04.dic/Items/_chem_comp_atom.pdbx_component_comp_id.html" xlink:title="&lt;TABLE&gt;" target="_top">
<polygon fill="none" stroke="black" points="10.7651,-155.5 10.7651,-175.5 132.765,-175.5 132.765,-155.5 10.7651,-155.5"/>
<text text-anchor="start" x="15.7651" y="-163.3" font-family="Helvetica,sans-Serif" font-size="9.00">pdbx_component_comp_id</text>
</a>
</g>
<g id="a_node1_18"><a xlink:href="/dictionaries/mmcif_modeling_v10.unix_1.04.dic/Items/_chem_comp_atom.pdbx_component_entity_id.html" xlink:title="&lt;TABLE&gt;" target="_top">
<polygon fill="none" stroke="black" points="10.7651,-135.5 10.7651,-155.5 132.765,-155.5 132.765,-135.5 10.7651,-135.5"/>
<text text-anchor="start" x="15.7651" y="-143.3" font-family="Helvetica,sans-Serif" font-size="9.00">pdbx_component_entity_id</text>
</a>
</g>
<g id="a_node1_19"><a xlink:href="/dictionaries/mmcif_modeling_v10.unix_1.04.dic/Items/_chem_comp_atom.pdbx_component_id.html" xlink:title="&lt;TABLE&gt;" target="_top">
<polygon fill="none" stroke="black" points="10.7651,-115.5 10.7651,-135.5 132.765,-135.5 132.765,-115.5 10.7651,-115.5"/>
<text text-anchor="start" x="15.7651" y="-123.3" font-family="Helvetica,sans-Serif" font-size="9.00">pdbx_component_id</text>
</a>
</g>
<g id="a_node1_20"><a xlink:href="/dictionaries/mmcif_modeling_v10.unix_1.04.dic/Items/_chem_comp_atom.pdbx_leaving_atom_flag.html" xlink:title="&lt;TABLE&gt;" target="_top">
<polygon fill="none" stroke="black" points="10.7651,-95.5 10.7651,-115.5 132.765,-115.5 132.765,-95.5 10.7651,-95.5"/>
<text text-anchor="start" x="15.7651" y="-103.3" font-family="Helvetica,sans-Serif" font-size="9.00">pdbx_leaving_atom_flag</text>
</a>
</g>
<polygon fill="none" stroke="black" points="10.7651,-79.5 10.7651,-95.5 132.765,-95.5 132.765,-79.5 10.7651,-79.5"/>
<text text-anchor="start" x="40.7651" y="-85.3" font-family="Helvetica,sans-Serif" font-size="9.00">... and others ...</text>
</g>
<!-- _entity_poly_seq -->
<g id="node2" class="node"><title>_entity_poly_seq</title>
<g id="a_node2_21"><a xlink:href="/dictionaries/mmcif_modeling_v10.unix_1.04.dic/Categories/entity_poly_seq.html" xlink:title="&lt;TABLE&gt;" target="_top">
<polygon fill="#99c49b" stroke="none" points="166.765,-327.5 166.765,-348.5 270.765,-348.5 270.765,-327.5 166.765,-327.5"/>
<polygon fill="none" stroke="black" points="166.765,-327.5 166.765,-348.5 270.765,-348.5 270.765,-327.5 166.765,-327.5"/>
<text text-anchor="start" x="171.765" y="-335.5" font-family="Helvetica,sans-Serif" font-size="10.00">ENTITY_POLY_SEQ</text>
</a>
</g>
<g id="a_node2_22"><a xlink:href="/dictionaries/mmcif_modeling_v10.unix_1.04.dic/Items/_entity_poly_seq.entity_id.html" xlink:title="&lt;TABLE&gt;" target="_top">
<polygon fill="#ffff99" stroke="none" points="166.765,-307.5 166.765,-327.5 270.765,-327.5 270.765,-307.5 166.765,-307.5"/>
<polygon fill="none" stroke="black" points="166.765,-307.5 166.765,-327.5 270.765,-327.5 270.765,-307.5 166.765,-307.5"/>
<text text-anchor="start" x="171.765" y="-315.3" font-family="Helvetica,sans-Serif" font-size="9.00">entity_id</text>
</a>
</g>
<g id="a_node2_23"><a xlink:href="/dictionaries/mmcif_modeling_v10.unix_1.04.dic/Items/_entity_poly_seq.mon_id.html" xlink:title="&lt;TABLE&gt;" target="_top">
<polygon fill="#ffff99" stroke="none" points="166.765,-287.5 166.765,-307.5 270.765,-307.5 270.765,-287.5 166.765,-287.5"/>
<polygon fill="none" stroke="black" points="166.765,-287.5 166.765,-307.5 270.765,-307.5 270.765,-287.5 166.765,-287.5"/>
<text text-anchor="start" x="171.765" y="-295.3" font-family="Helvetica,sans-Serif" font-size="9.00">mon_id</text>
</a>
</g>
<g id="a_node2_24"><a xlink:href="/dictionaries/mmcif_modeling_v10.unix_1.04.dic/Items/_entity_poly_seq.num.html" xlink:title="&lt;TABLE&gt;" target="_top">
<polygon fill="#ffff99" stroke="none" points="166.765,-267.5 166.765,-287.5 270.765,-287.5 270.765,-267.5 166.765,-267.5"/>
<polygon fill="none" stroke="black" points="166.765,-267.5 166.765,-287.5 270.765,-287.5 270.765,-267.5 166.765,-267.5"/>
<text text-anchor="start" x="171.765" y="-275.3" font-family="Helvetica,sans-Serif" font-size="9.00">num</text>
</a>
</g>
<g id="a_node2_25"><a xlink:href="/dictionaries/mmcif_modeling_v10.unix_1.04.dic/Items/_entity_poly_seq.hetero.html" xlink:title="&lt;TABLE&gt;" target="_top">
<polygon fill="none" stroke="black" points="166.765,-247.5 166.765,-267.5 270.765,-267.5 270.765,-247.5 166.765,-247.5"/>
<text text-anchor="start" x="171.765" y="-255.3" font-family="Helvetica,sans-Serif" font-size="9.00">hetero</text>
</a>
</g>
</g>
<!-- _ma_dihedral_restraints -->
<g id="node3" class="node"><title>_ma_dihedral_restraints</title>
<g id="a_node3_26"><a xlink:href="/dictionaries/mmcif_modeling_v10.unix_1.04.dic/Categories/ma_dihedral_restraints.html" xlink:title="&lt;TABLE&gt;" target="_top">
<polygon fill="#f0027f" stroke="none" points="166.765,-1016.5 166.765,-1037.5 318.765,-1037.5 318.765,-1016.5 166.765,-1016.5"/>
<polygon fill="none" stroke="black" points="166.765,-1016.5 166.765,-1037.5 318.765,-1037.5 318.765,-1016.5 166.765,-1016.5"/>
<text text-anchor="start" x="171.765" y="-1024.5" font-family="Helvetica,sans-Serif" font-size="10.00">MA_DIHEDRAL_RESTRAINTS</text>
</a>
</g>
<g id="a_node3_27"><a xlink:href="/dictionaries/mmcif_modeling_v10.unix_1.04.dic/Items/_ma_dihedral_restraints.ordinal_id.html" xlink:title="&lt;TABLE&gt;" target="_top">
<polygon fill="#ffff99" stroke="none" points="166.765,-996.5 166.765,-1016.5 318.765,-1016.5 318.765,-996.5 166.765,-996.5"/>
<polygon fill="none" stroke="black" points="166.765,-996.5 166.765,-1016.5 318.765,-1016.5 318.765,-996.5 166.765,-996.5"/>
<text text-anchor="start" x="171.765" y="-1004.3" font-family="Helvetica,sans-Serif" font-size="9.00">ordinal_id</text>
</a>
</g>
<g id="a_node3_28"><a xlink:href="/dictionaries/mmcif_modeling_v10.unix_1.04.dic/Items/_ma_dihedral_restraints.asym_id_1.html" xlink:title="&lt;TABLE&gt;" target="_top">
<polygon fill="none" stroke="black" points="166.765,-976.5 166.765,-996.5 318.765,-996.5 318.765,-976.5 166.765,-976.5"/>
<text text-anchor="start" x="171.765" y="-984.3" font-family="Helvetica,sans-Serif" font-size="9.00">asym_id_1</text>
</a>
</g>
<g id="a_node3_29"><a xlink:href="/dictionaries/mmcif_modeling_v10.unix_1.04.dic/Items/_ma_dihedral_restraints.asym_id_2.html" xlink:title="&lt;TABLE&gt;" target="_top">
<polygon fill="none" stroke="black" points="166.765,-956.5 166.765,-976.5 318.765,-976.5 318.765,-956.5 166.765,-956.5"/>
<text text-anchor="start" x="171.765" y="-964.3" font-family="Helvetica,sans-Serif" font-size="9.00">asym_id_2</text>
</a>
</g>
<g id="a_node3_30"><a xlink:href="/dictionaries/mmcif_modeling_v10.unix_1.04.dic/Items/_ma_dihedral_restraints.asym_id_3.html" xlink:title="&lt;TABLE&gt;" target="_top">
<polygon fill="none" stroke="black" points="166.765,-936.5 166.765,-956.5 318.765,-956.5 318.765,-936.5 166.765,-936.5"/>
<text text-anchor="start" x="171.765" y="-944.3" font-family="Helvetica,sans-Serif" font-size="9.00">asym_id_3</text>
</a>
</g>
<g id="a_node3_31"><a xlink:href="/dictionaries/mmcif_modeling_v10.unix_1.04.dic/Items/_ma_dihedral_restraints.asym_id_4.html" xlink:title="&lt;TABLE&gt;" target="_top">
<polygon fill="none" stroke="black" points="166.765,-916.5 166.765,-936.5 318.765,-936.5 318.765,-916.5 166.765,-916.5"/>
<text text-anchor="start" x="171.765" y="-924.3" font-family="Helvetica,sans-Serif" font-size="9.00">asym_id_4</text>
</a>
</g>
<g id="a_node3_32"><a xlink:href="/dictionaries/mmcif_modeling_v10.unix_1.04.dic/Items/_ma_dihedral_restraints.atom_id_1.html" xlink:title="&lt;TABLE&gt;" target="_top">
<polygon fill="none" stroke="black" points="166.765,-896.5 166.765,-916.5 318.765,-916.5 318.765,-896.5 166.765,-896.5"/>
<text text-anchor="start" x="171.765" y="-904.3" font-family="Helvetica,sans-Serif" font-size="9.00">atom_id_1</text>
</a>
</g>
<g id="a_node3_33"><a xlink:href="/dictionaries/mmcif_modeling_v10.unix_1.04.dic/Items/_ma_dihedral_restraints.atom_id_2.html" xlink:title="&lt;TABLE&gt;" target="_top">
<polygon fill="none" stroke="black" points="166.765,-876.5 166.765,-896.5 318.765,-896.5 318.765,-876.5 166.765,-876.5"/>
<text text-anchor="start" x="171.765" y="-884.3" font-family="Helvetica,sans-Serif" font-size="9.00">atom_id_2</text>
</a>
</g>
<g id="a_node3_34"><a xlink:href="/dictionaries/mmcif_modeling_v10.unix_1.04.dic/Items/_ma_dihedral_restraints.atom_id_3.html" xlink:title="&lt;TABLE&gt;" target="_top">
<polygon fill="none" stroke="black" points="166.765,-856.5 166.765,-876.5 318.765,-876.5 318.765,-856.5 166.765,-856.5"/>
<text text-anchor="start" x="171.765" y="-864.3" font-family="Helvetica,sans-Serif" font-size="9.00">atom_id_3</text>
</a>
</g>
<g id="a_node3_35"><a xlink:href="/dictionaries/mmcif_modeling_v10.unix_1.04.dic/Items/_ma_dihedral_restraints.atom_id_4.html" xlink:title="&lt;TABLE&gt;" target="_top">
<polygon fill="none" stroke="black" points="166.765,-836.5 166.765,-856.5 318.765,-856.5 318.765,-836.5 166.765,-836.5"/>
<text text-anchor="start" x="171.765" y="-844.3" font-family="Helvetica,sans-Serif" font-size="9.00">atom_id_4</text>
</a>
</g>
<g id="a_node3_36"><a xlink:href="/dictionaries/mmcif_modeling_v10.unix_1.04.dic/Items/_ma_dihedral_restraints.comp_id_1.html" xlink:title="&lt;TABLE&gt;" target="_top">
<polygon fill="none" stroke="black" points="166.765,-816.5 166.765,-836.5 318.765,-836.5 318.765,-816.5 166.765,-816.5"/>
<text text-anchor="start" x="171.765" y="-824.3" font-family="Helvetica,sans-Serif" font-size="9.00">comp_id_1</text>
</a>
</g>
<g id="a_node3_37"><a xlink:href="/dictionaries/mmcif_modeling_v10.unix_1.04.dic/Items/_ma_dihedral_restraints.comp_id_2.html" xlink:title="&lt;TABLE&gt;" target="_top">
<polygon fill="none" stroke="black" points="166.765,-796.5 166.765,-816.5 318.765,-816.5 318.765,-796.5 166.765,-796.5"/>
<text text-anchor="start" x="171.765" y="-804.3" font-family="Helvetica,sans-Serif" font-size="9.00">comp_id_2</text>
</a>
</g>
<g id="a_node3_38"><a xlink:href="/dictionaries/mmcif_modeling_v10.unix_1.04.dic/Items/_ma_dihedral_restraints.comp_id_3.html" xlink:title="&lt;TABLE&gt;" target="_top">
<polygon fill="none" stroke="black" points="166.765,-776.5 166.765,-796.5 318.765,-796.5 318.765,-776.5 166.765,-776.5"/>
<text text-anchor="start" x="171.765" y="-784.3" font-family="Helvetica,sans-Serif" font-size="9.00">comp_id_3</text>
</a>
</g>
<g id="a_node3_39"><a xlink:href="/dictionaries/mmcif_modeling_v10.unix_1.04.dic/Items/_ma_dihedral_restraints.comp_id_4.html" xlink:title="&lt;TABLE&gt;" target="_top">
<polygon fill="none" stroke="black" points="166.765,-756.5 166.765,-776.5 318.765,-776.5 318.765,-756.5 166.765,-756.5"/>
<text text-anchor="start" x="171.765" y="-764.3" font-family="Helvetica,sans-Serif" font-size="9.00">comp_id_4</text>
</a>
</g>
<g id="a_node3_40"><a xlink:href="/dictionaries/mmcif_modeling_v10.unix_1.04.dic/Items/_ma_dihedral_restraints.entity_id_1.html" xlink:title="&lt;TABLE&gt;" target="_top">
<polygon fill="none" stroke="black" points="166.765,-736.5 166.765,-756.5 318.765,-756.5 318.765,-736.5 166.765,-736.5"/>
<text text-anchor="start" x="171.765" y="-744.3" font-family="Helvetica,sans-Serif" font-size="9.00">entity_id_1</text>
</a>
</g>
<g id="a_node3_41"><a xlink:href="/dictionaries/mmcif_modeling_v10.unix_1.04.dic/Items/_ma_dihedral_restraints.entity_id_2.html" xlink:title="&lt;TABLE&gt;" target="_top">
<polygon fill="none" stroke="black" points="166.765,-716.5 166.765,-736.5 318.765,-736.5 318.765,-716.5 166.765,-716.5"/>
<text text-anchor="start" x="171.765" y="-724.3" font-family="Helvetica,sans-Serif" font-size="9.00">entity_id_2</text>
</a>
</g>
<g id="a_node3_42"><a xlink:href="/dictionaries/mmcif_modeling_v10.unix_1.04.dic/Items/_ma_dihedral_restraints.entity_id_3.html" xlink:title="&lt;TABLE&gt;" target="_top">
<polygon fill="none" stroke="black" points="166.765,-696.5 166.765,-716.5 318.765,-716.5 318.765,-696.5 166.765,-696.5"/>
<text text-anchor="start" x="171.765" y="-704.3" font-family="Helvetica,sans-Serif" font-size="9.00">entity_id_3</text>
</a>
</g>
<g id="a_node3_43"><a xlink:href="/dictionaries/mmcif_modeling_v10.unix_1.04.dic/Items/_ma_dihedral_restraints.entity_id_4.html" xlink:title="&lt;TABLE&gt;" target="_top">
<polygon fill="none" stroke="black" points="166.765,-676.5 166.765,-696.5 318.765,-696.5 318.765,-676.5 166.765,-676.5"/>
<text text-anchor="start" x="171.765" y="-684.3" font-family="Helvetica,sans-Serif" font-size="9.00">entity_id_4</text>
</a>
</g>
<g id="a_node3_44"><a xlink:href="/dictionaries/mmcif_modeling_v10.unix_1.04.dic/Items/_ma_dihedral_restraints.restraint_id.html" xlink:title="&lt;TABLE&gt;" target="_top">
<polygon fill="none" stroke="black" points="166.765,-656.5 166.765,-676.5 318.765,-676.5 318.765,-656.5 166.765,-656.5"/>
<text text-anchor="start" x="171.765" y="-664.3" font-family="Helvetica,sans-Serif" font-size="9.00">restraint_id</text>
</a>
</g>
<g id="a_node3_45"><a xlink:href="/dictionaries/mmcif_modeling_v10.unix_1.04.dic/Items/_ma_dihedral_restraints.seq_id_1.html" xlink:title="&lt;TABLE&gt;" target="_top">
<polygon fill="none" stroke="black" points="166.765,-636.5 166.765,-656.5 318.765,-656.5 318.765,-636.5 166.765,-636.5"/>
<text text-anchor="start" x="171.765" y="-644.3" font-family="Helvetica,sans-Serif" font-size="9.00">seq_id_1</text>
</a>
</g>
<g id="a_node3_46"><a xlink:href="/dictionaries/mmcif_modeling_v10.unix_1.04.dic/Items/_ma_dihedral_restraints.seq_id_2.html" xlink:title="&lt;TABLE&gt;" target="_top">
<polygon fill="none" stroke="black" points="166.765,-616.5 166.765,-636.5 318.765,-636.5 318.765,-616.5 166.765,-616.5"/>
<text text-anchor="start" x="171.765" y="-624.3" font-family="Helvetica,sans-Serif" font-size="9.00">seq_id_2</text>
</a>
</g>
<g id="a_node3_47"><a xlink:href="/dictionaries/mmcif_modeling_v10.unix_1.04.dic/Items/_ma_dihedral_restraints.seq_id_3.html" xlink:title="&lt;TABLE&gt;" target="_top">
<polygon fill="none" stroke="black" points="166.765,-596.5 166.765,-616.5 318.765,-616.5 318.765,-596.5 166.765,-596.5"/>
<text text-anchor="start" x="171.765" y="-604.3" font-family="Helvetica,sans-Serif" font-size="9.00">seq_id_3</text>
</a>
</g>
<g id="a_node3_48"><a xlink:href="/dictionaries/mmcif_modeling_v10.unix_1.04.dic/Items/_ma_dihedral_restraints.seq_id_4.html" xlink:title="&lt;TABLE&gt;" target="_top">
<polygon fill="none" stroke="black" points="166.765,-576.5 166.765,-596.5 318.765,-596.5 318.765,-576.5 166.765,-576.5"/>
<text text-anchor="start" x="171.765" y="-584.3" font-family="Helvetica,sans-Serif" font-size="9.00">seq_id_4</text>
</a>
</g>
<polygon fill="none" stroke="black" points="166.765,-560.5 166.765,-576.5 318.765,-576.5 318.765,-560.5 166.765,-560.5"/>
<text text-anchor="start" x="211.765" y="-566.3" font-family="Helvetica,sans-Serif" font-size="9.00">... and others ...</text>
</g>
<!-- _ma_dihedral_restraints&#45;&gt;_chem_comp_atom -->
<g id="edge1" class="edge"><title>_ma_dihedral_restraints:__atom_id_1:w&#45;&gt;_chem_comp_atom:__atom_id:w</title>
<path fill="none" stroke="black" d="M165.765,-906.5C119.582,-906.5 -17.5491,-545.673 1.93243,-492.113"/>
<polygon fill="black" stroke="black" points="4.382,-494.625 9.76508,-485.5 -0.133764,-489.277 4.382,-494.625"/>
</g>
<!-- _ma_dihedral_restraints&#45;&gt;_chem_comp_atom -->
<g id="edge2" class="edge"><title>_ma_dihedral_restraints:__atom_id_2:w&#45;&gt;_chem_comp_atom:__atom_id:w</title>
<path fill="none" stroke="black" d="M165.765,-886.5C121.598,-886.5 -14.9054,-544.263 2.2498,-492.126"/>
<polygon fill="black" stroke="black" points="4.5785,-494.739 9.76508,-485.5 -0.0506811,-489.488 4.5785,-494.739"/>
</g>
<!-- _ma_dihedral_restraints&#45;&gt;_chem_comp_atom -->
<g id="edge3" class="edge"><title>_ma_dihedral_restraints:__atom_id_3:w&#45;&gt;_chem_comp_atom:__atom_id:w</title>
<path fill="none" stroke="black" d="M165.765,-866.5C123.684,-866.5 -11.702,-544.076 2.49654,-492.438"/>
<polygon fill="black" stroke="black" points="4.94821,-494.937 9.76508,-485.5 0.114835,-489.873 4.94821,-494.937"/>
</g>
<!-- _ma_dihedral_restraints&#45;&gt;_chem_comp_atom -->
<g id="edge4" class="edge"><title>_ma_dihedral_restraints:__atom_id_4:w&#45;&gt;_chem_comp_atom:__atom_id:w</title>
<path fill="none" stroke="black" d="M165.765,-846.5C125.739,-846.5 -8.51998,-543.59 2.79649,-492.711"/>
<polygon fill="black" stroke="black" points="5.33278,-495.123 9.76508,-485.5 0.299092,-490.259 5.33278,-495.123"/>
</g>
<!-- _ma_dihedral_restraints&#45;&gt;_entity_poly_seq -->
<g id="edge5" class="edge"><title>_ma_dihedral_restraints:__entity_id_1:w&#45;&gt;_entity_poly_seq:__entity_id:w</title>
<path fill="none" stroke="black" d="M165.765,-746.5C154.919,-746.5 153.945,-391.123 162.842,-327.266"/>
<polygon fill="black" stroke="black" points="166.25,-328.084 165.765,-317.5 159.544,-326.076 166.25,-328.084"/>
</g>
<!-- _ma_dihedral_restraints&#45;&gt;_entity_poly_seq -->
<g id="edge6" class="edge"><title>_ma_dihedral_restraints:__entity_id_2:w&#45;&gt;_entity_poly_seq:__entity_id:w</title>
<path fill="none" stroke="black" d="M165.765,-726.5C155.447,-726.5 154.5,-389.143 162.924,-327.207"/>
<polygon fill="black" stroke="black" points="166.315,-328.081 165.765,-317.5 159.597,-326.114 166.315,-328.081"/>
</g>
<!-- _ma_dihedral_restraints&#45;&gt;_entity_poly_seq -->
<g id="edge7" class="edge"><title>_ma_dihedral_restraints:__entity_id_3:w&#45;&gt;_entity_poly_seq:__entity_id:w</title>
<path fill="none" stroke="black" d="M165.765,-706.5C155.973,-706.5 155.054,-387.019 163.011,-327.116"/>
<polygon fill="black" stroke="black" points="166.376,-328.077 165.765,-317.5 159.647,-326.15 166.376,-328.077"/>
</g>
<!-- _ma_dihedral_restraints&#45;&gt;_entity_poly_seq -->
<g id="edge8" class="edge"><title>_ma_dihedral_restraints:__entity_id_4:w&#45;&gt;_entity_poly_seq:__entity_id:w</title>
<path fill="none" stroke="black" d="M165.765,-686.5C147.147,-686.5 145.438,-382.137 160.638,-326.257"/>
<polygon fill="black" stroke="black" points="163.733,-327.898 165.765,-317.5 157.692,-324.361 163.733,-327.898"/>
</g>
<!-- _ma_dihedral_restraints&#45;&gt;_entity_poly_seq -->
<g id="edge9" class="edge"><title>_ma_dihedral_restraints:__comp_id_1:w&#45;&gt;_entity_poly_seq:__mon_id:w</title>
<path fill="none" stroke="black" d="M165.765,-826.5C152.247,-826.5 151.165,-378.83 162.518,-307.133"/>
<polygon fill="black" stroke="black" points="165.887,-308.094 165.765,-297.5 159.254,-305.858 165.887,-308.094"/>
</g>
<!-- _ma_dihedral_restraints&#45;&gt;_entity_poly_seq -->
<g id="edge10" class="edge"><title>_ma_dihedral_restraints:__comp_id_2:w&#45;&gt;_entity_poly_seq:__mon_id:w</title>
<path fill="none" stroke="black" d="M165.765,-806.5C152.786,-806.5 151.721,-377.583 162.571,-307.213"/>
<polygon fill="black" stroke="black" points="165.966,-308.093 165.765,-297.5 159.316,-305.906 165.966,-308.093"/>
</g>
<!-- _ma_dihedral_restraints&#45;&gt;_entity_poly_seq -->
<g id="edge11" class="edge"><title>_ma_dihedral_restraints:__comp_id_3:w&#45;&gt;_entity_poly_seq:__mon_id:w</title>
<path fill="none" stroke="black" d="M165.765,-786.5C153.323,-786.5 152.278,-376.188 162.63,-307.268"/>
<polygon fill="black" stroke="black" points="166.042,-308.091 165.765,-297.5 159.377,-305.952 166.042,-308.091"/>
</g>
<!-- _ma_dihedral_restraints&#45;&gt;_entity_poly_seq -->
<g id="edge12" class="edge"><title>_ma_dihedral_restraints:__comp_id_4:w&#45;&gt;_entity_poly_seq:__mon_id:w</title>
<path fill="none" stroke="black" d="M165.765,-766.5C153.857,-766.5 152.834,-374.646 162.695,-307.296"/>
<polygon fill="black" stroke="black" points="166.114,-308.089 165.765,-297.5 159.435,-305.996 166.114,-308.089"/>
</g>
<!-- _ma_dihedral_restraints&#45;&gt;_entity_poly_seq -->
<g id="edge13" class="edge"><title>_ma_dihedral_restraints:__seq_id_1:w&#45;&gt;_entity_poly_seq:__num:w</title>
<path fill="none" stroke="black" d="M165.765,-646.5C147.147,-646.5 145.438,-342.137 160.638,-286.257"/>
<polygon fill="black" stroke="black" points="163.733,-287.898 165.765,-277.5 157.692,-284.361 163.733,-287.898"/>
</g>
<!-- _ma_dihedral_restraints&#45;&gt;_entity_poly_seq -->
<g id="edge14" class="edge"><title>_ma_dihedral_restraints:__seq_id_2:w&#45;&gt;_entity_poly_seq:__num:w</title>
<path fill="none" stroke="black" d="M165.765,-626.5C148.232,-626.5 146.554,-341.104 160.731,-286.478"/>
<polygon fill="black" stroke="black" points="163.927,-287.934 165.765,-277.5 157.821,-284.511 163.927,-287.934"/>
</g>
<!-- _ma_dihedral_restraints&#45;&gt;_entity_poly_seq -->
<g id="edge15" class="edge"><title>_ma_dihedral_restraints:__seq_id_3:w&#45;&gt;_entity_poly_seq:__num:w</title>
<path fill="none" stroke="black" d="M165.765,-606.5C149.272,-606.5 147.662,-338.62 160.933,-286.3"/>
<polygon fill="black" stroke="black" points="164.02,-287.95 165.765,-277.5 157.884,-284.581 164.02,-287.95"/>
</g>
<!-- _ma_dihedral_restraints&#45;&gt;_entity_poly_seq -->
<g id="edge16" class="edge"><title>_ma_dihedral_restraints:__seq_id_4:w&#45;&gt;_entity_poly_seq:__num:w</title>
<path fill="none" stroke="black" d="M165.765,-586.5C150.342,-586.5 148.775,-337.078 161.066,-286.415"/>
<polygon fill="black" stroke="black" points="164.198,-287.978 165.765,-277.5 158.006,-284.714 164.198,-287.978"/>
</g>
<!-- _ma_restraints -->
<g id="node4" class="node"><title>_ma_restraints</title>
<g id="a_node4_49"><a xlink:href="/dictionaries/mmcif_modeling_v10.unix_1.04.dic/Categories/ma_restraints.html" xlink:title="&lt;TABLE&gt;" target="_top">
<polygon fill="#99c49b" stroke="none" points="305.765,-347.5 305.765,-368.5 400.765,-368.5 400.765,-347.5 305.765,-347.5"/>
<polygon fill="none" stroke="black" points="305.765,-347.5 305.765,-368.5 400.765,-368.5 400.765,-347.5 305.765,-347.5"/>
<text text-anchor="start" x="310.765" y="-355.5" font-family="Helvetica,sans-Serif" font-size="10.00">MA_RESTRAINTS</text>
</a>
</g>
<g id="a_node4_50"><a xlink:href="/dictionaries/mmcif_modeling_v10.unix_1.04.dic/Items/_ma_restraints.ordinal_id.html" xlink:title="&lt;TABLE&gt;" target="_top">
<polygon fill="#ffff99" stroke="none" points="305.765,-327.5 305.765,-347.5 400.765,-347.5 400.765,-327.5 305.765,-327.5"/>
<polygon fill="none" stroke="black" points="305.765,-327.5 305.765,-347.5 400.765,-347.5 400.765,-327.5 305.765,-327.5"/>
<text text-anchor="start" x="310.765" y="-335.3" font-family="Helvetica,sans-Serif" font-size="9.00">ordinal_id</text>
</a>
</g>
<g id="a_node4_51"><a xlink:href="/dictionaries/mmcif_modeling_v10.unix_1.04.dic/Items/_ma_restraints.restraint_id.html" xlink:title="&lt;TABLE&gt;" target="_top">
<polygon fill="none" stroke="black" points="305.765,-307.5 305.765,-327.5 400.765,-327.5 400.765,-307.5 305.765,-307.5"/>
<text text-anchor="start" x="310.765" y="-315.3" font-family="Helvetica,sans-Serif" font-size="9.00">restraint_id</text>
</a>
</g>
<g id="a_node4_52"><a xlink:href="/dictionaries/mmcif_modeling_v10.unix_1.04.dic/Items/_ma_restraints.data_id.html" xlink:title="&lt;TABLE&gt;" target="_top">
<polygon fill="none" stroke="black" points="305.765,-287.5 305.765,-307.5 400.765,-307.5 400.765,-287.5 305.765,-287.5"/>
<text text-anchor="start" x="310.765" y="-295.3" font-family="Helvetica,sans-Serif" font-size="9.00">data_id</text>
</a>
</g>
<g id="a_node4_53"><a xlink:href="/dictionaries/mmcif_modeling_v10.unix_1.04.dic/Items/_ma_restraints.details.html" xlink:title="&lt;TABLE&gt;" target="_top">
<polygon fill="none" stroke="black" points="305.765,-267.5 305.765,-287.5 400.765,-287.5 400.765,-267.5 305.765,-267.5"/>
<text text-anchor="start" x="310.765" y="-275.3" font-family="Helvetica,sans-Serif" font-size="9.00">details</text>
</a>
</g>
<g id="a_node4_54"><a xlink:href="/dictionaries/mmcif_modeling_v10.unix_1.04.dic/Items/_ma_restraints.name.html" xlink:title="&lt;TABLE&gt;" target="_top">
<polygon fill="none" stroke="black" points="305.765,-247.5 305.765,-267.5 400.765,-267.5 400.765,-247.5 305.765,-247.5"/>
<text text-anchor="start" x="310.765" y="-255.3" font-family="Helvetica,sans-Serif" font-size="9.00">name</text>
</a>
</g>
<g id="a_node4_55"><a xlink:href="/dictionaries/mmcif_modeling_v10.unix_1.04.dic/Items/_ma_restraints.restraint_type.html" xlink:title="&lt;TABLE&gt;" target="_top">
<polygon fill="none" stroke="black" points="305.765,-227.5 305.765,-247.5 400.765,-247.5 400.765,-227.5 305.765,-227.5"/>
<text text-anchor="start" x="310.765" y="-235.3" font-family="Helvetica,sans-Serif" font-size="9.00">restraint_type</text>
</a>
</g>
</g>
<!-- _ma_dihedral_restraints&#45;&gt;_ma_restraints -->
<g id="edge21" class="edge"><title>_ma_dihedral_restraints:__restraint_id:w&#45;&gt;_ma_restraints:__restraint_id:w</title>
<path fill="none" stroke="black" d="M165.765,-666.5C117.096,-666.5 137.491,-595.88 166.765,-557 200.514,-512.177 252.377,-564.54 287.765,-521 300.287,-505.593 286.539,-361.344 298.107,-325.522"/>
<polygon fill="black" stroke="black" points="301.072,-327.43 304.765,-317.5 295.685,-322.96 301.072,-327.43"/>
</g>
<!-- _struct_asym -->
<g id="node5" class="node"><title>_struct_asym</title>
<g id="a_node5_56"><a xlink:href="/dictionaries/mmcif_modeling_v10.unix_1.04.dic/Categories/struct_asym.html" xlink:title="&lt;TABLE&gt;" target="_top">
<polygon fill="#99c49b" stroke="none" points="433.765,-417.5 433.765,-438.5 657.765,-438.5 657.765,-417.5 433.765,-417.5"/>
<polygon fill="none" stroke="black" points="433.765,-417.5 433.765,-438.5 657.765,-438.5 657.765,-417.5 433.765,-417.5"/>
<text text-anchor="start" x="507.765" y="-425.5" font-family="Helvetica,sans-Serif" font-size="10.00">STRUCT_ASYM</text>
</a>
</g>
<g id="a_node5_57"><a xlink:href="/dictionaries/mmcif_modeling_v10.unix_1.04.dic/Items/_struct_asym.id.html" xlink:title="&lt;TABLE&gt;" target="_top">
<polygon fill="#ffff99" stroke="none" points="433.765,-397.5 433.765,-417.5 657.765,-417.5 657.765,-397.5 433.765,-397.5"/>
<polygon fill="none" stroke="black" points="433.765,-397.5 433.765,-417.5 657.765,-417.5 657.765,-397.5 433.765,-397.5"/>
<text text-anchor="start" x="438.765" y="-405.3" font-family="Helvetica,sans-Serif" font-size="9.00">id</text>
</a>
</g>
<g id="a_node5_58"><a xlink:href="/dictionaries/mmcif_modeling_v10.unix_1.04.dic/Items/_struct_asym.details.html" xlink:title="&lt;TABLE&gt;" target="_top">
<polygon fill="none" stroke="black" points="433.765,-377.5 433.765,-397.5 657.765,-397.5 657.765,-377.5 433.765,-377.5"/>
<text text-anchor="start" x="438.765" y="-385.3" font-family="Helvetica,sans-Serif" font-size="9.00">details</text>
</a>
</g>
<g id="a_node5_59"><a xlink:href="/dictionaries/mmcif_modeling_v10.unix_1.04.dic/Items/_struct_asym.entity_id.html" xlink:title="&lt;TABLE&gt;" target="_top">
<polygon fill="none" stroke="black" points="433.765,-357.5 433.765,-377.5 657.765,-377.5 657.765,-357.5 433.765,-357.5"/>
<text text-anchor="start" x="438.765" y="-365.3" font-family="Helvetica,sans-Serif" font-size="9.00">entity_id</text>
</a>
</g>
<g id="a_node5_60"><a xlink:href="/dictionaries/mmcif_modeling_v10.unix_1.04.dic/Items/_struct_asym.pdbx_PDB_id.html" xlink:title="&lt;TABLE&gt;" target="_top">
<polygon fill="none" stroke="black" points="433.765,-337.5 433.765,-357.5 657.765,-357.5 657.765,-337.5 433.765,-337.5"/>
<text text-anchor="start" x="438.765" y="-345.3" font-family="Helvetica,sans-Serif" font-size="9.00">pdbx_PDB_id</text>
</a>
</g>
<g id="a_node5_61"><a xlink:href="/dictionaries/mmcif_modeling_v10.unix_1.04.dic/Items/_struct_asym.pdbx_alt_id.html" xlink:title="&lt;TABLE&gt;" target="_top">
<polygon fill="none" stroke="black" points="433.765,-317.5 433.765,-337.5 657.765,-337.5 657.765,-317.5 433.765,-317.5"/>
<text text-anchor="start" x="438.765" y="-325.3" font-family="Helvetica,sans-Serif" font-size="9.00">pdbx_alt_id</text>
</a>
</g>
<g id="a_node5_62"><a xlink:href="/dictionaries/mmcif_modeling_v10.unix_1.04.dic/Items/_struct_asym.pdbx_blank_PDB_chainid_flag.html" xlink:title="&lt;TABLE&gt;" target="_top">
<polygon fill="none" stroke="black" points="433.765,-297.5 433.765,-317.5 657.765,-317.5 657.765,-297.5 433.765,-297.5"/>
<text text-anchor="start" x="438.765" y="-305.3" font-family="Helvetica,sans-Serif" font-size="9.00">pdbx_blank_PDB_chainid_flag</text>
</a>
</g>
<g id="a_node5_63"><a xlink:href="/dictionaries/mmcif_modeling_v10.unix_1.04.dic/Items/_struct_asym.pdbx_fraction_per_asym_unit.html" xlink:title="&lt;TABLE&gt;" target="_top">
<polygon fill="none" stroke="black" points="433.765,-277.5 433.765,-297.5 657.765,-297.5 657.765,-277.5 433.765,-277.5"/>
<text text-anchor="start" x="438.765" y="-285.3" font-family="Helvetica,sans-Serif" font-size="9.00">pdbx_fraction_per_asym_unit</text>
</a>
</g>
<g id="a_node5_64"><a xlink:href="/dictionaries/mmcif_modeling_v10.unix_1.04.dic/Items/_struct_asym.pdbx_missing_num_begin_of_chain_in_seqres.html" xlink:title="&lt;TABLE&gt;" target="_top">
<polygon fill="none" stroke="black" points="433.765,-257.5 433.765,-277.5 657.765,-277.5 657.765,-257.5 433.765,-257.5"/>
<text text-anchor="start" x="438.765" y="-265.3" font-family="Helvetica,sans-Serif" font-size="9.00">pdbx_missing_num_begin_of_chain_in_seqres</text>
</a>
</g>
<g id="a_node5_65"><a xlink:href="/dictionaries/mmcif_modeling_v10.unix_1.04.dic/Items/_struct_asym.pdbx_missing_num_begin_of_chain_not_in_seqres.html" xlink:title="&lt;TABLE&gt;" target="_top">
<polygon fill="none" stroke="black" points="433.765,-237.5 433.765,-257.5 657.765,-257.5 657.765,-237.5 433.765,-237.5"/>
<text text-anchor="start" x="438.765" y="-245.3" font-family="Helvetica,sans-Serif" font-size="9.00">pdbx_missing_num_begin_of_chain_not_in_seqres</text>
</a>
</g>
<g id="a_node5_66"><a xlink:href="/dictionaries/mmcif_modeling_v10.unix_1.04.dic/Items/_struct_asym.pdbx_missing_num_end_of_chain_not_in_seqres.html" xlink:title="&lt;TABLE&gt;" target="_top">
<polygon fill="none" stroke="black" points="433.765,-217.5 433.765,-237.5 657.765,-237.5 657.765,-217.5 433.765,-217.5"/>
<text text-anchor="start" x="438.765" y="-225.3" font-family="Helvetica,sans-Serif" font-size="9.00">pdbx_missing_num_end_of_chain_not_in_seqres</text>
</a>
</g>
<g id="a_node5_67"><a xlink:href="/dictionaries/mmcif_modeling_v10.unix_1.04.dic/Items/_struct_asym.pdbx_modified.html" xlink:title="&lt;TABLE&gt;" target="_top">
<polygon fill="none" stroke="black" points="433.765,-197.5 433.765,-217.5 657.765,-217.5 657.765,-197.5 433.765,-197.5"/>
<text text-anchor="start" x="438.765" y="-205.3" font-family="Helvetica,sans-Serif" font-size="9.00">pdbx_modified</text>
</a>
</g>
<g id="a_node5_68"><a xlink:href="/dictionaries/mmcif_modeling_v10.unix_1.04.dic/Items/_struct_asym.pdbx_order.html" xlink:title="&lt;TABLE&gt;" target="_top">
<polygon fill="none" stroke="black" points="433.765,-177.5 433.765,-197.5 657.765,-197.5 657.765,-177.5 433.765,-177.5"/>
<text text-anchor="start" x="438.765" y="-185.3" font-family="Helvetica,sans-Serif" font-size="9.00">pdbx_order</text>
</a>
</g>
<g id="a_node5_69"><a xlink:href="/dictionaries/mmcif_modeling_v10.unix_1.04.dic/Items/_struct_asym.pdbx_type.html" xlink:title="&lt;TABLE&gt;" target="_top">
<polygon fill="none" stroke="black" points="433.765,-157.5 433.765,-177.5 657.765,-177.5 657.765,-157.5 433.765,-157.5"/>
<text text-anchor="start" x="438.765" y="-165.3" font-family="Helvetica,sans-Serif" font-size="9.00">pdbx_type</text>
</a>
</g>
</g>
<!-- _ma_dihedral_restraints&#45;&gt;_struct_asym -->
<g id="edge17" class="edge"><title>_ma_dihedral_restraints:__asym_id_1:w&#45;&gt;_struct_asym:__id:w</title>
<path fill="none" stroke="black" d="M165.765,-986.5C-25.1243,-986.5 41.5664,-701.097 166.765,-557 240.68,-471.928 338.518,-601.128 417.765,-521 432.93,-505.667 414.883,-434.776 424.528,-413.532"/>
<polygon fill="black" stroke="black" points="426.765,-416.232 432.765,-407.5 422.629,-410.585 426.765,-416.232"/>
</g>
<!-- _ma_dihedral_restraints&#45;&gt;_struct_asym -->
<g id="edge18" class="edge"><title>_ma_dihedral_restraints:__asym_id_2:w&#45;&gt;_struct_asym:__id:w</title>
<path fill="none" stroke="black" d="M165.765,-966.5C-16.2355,-966.5 47.3885,-694.381 166.765,-557 240.685,-471.932 338.518,-601.128 417.765,-521 432.93,-505.667 414.883,-434.776 424.528,-413.532"/>
<polygon fill="black" stroke="black" points="426.765,-416.232 432.765,-407.5 422.629,-410.585 426.765,-416.232"/>
</g>
<!-- _ma_dihedral_restraints&#45;&gt;_struct_asym -->
<g id="edge19" class="edge"><title>_ma_dihedral_restraints:__asym_id_3:w&#45;&gt;_struct_asym:__id:w</title>
<path fill="none" stroke="black" d="M165.765,-946.5C-7.3466,-946.5 53.2106,-687.664 166.765,-557 240.69,-471.937 338.518,-601.128 417.765,-521 432.93,-505.667 414.883,-434.776 424.528,-413.532"/>
<polygon fill="black" stroke="black" points="426.765,-416.232 432.765,-407.5 422.629,-410.585 426.765,-416.232"/>
</g>
<!-- _ma_dihedral_restraints&#45;&gt;_struct_asym -->
<g id="edge20" class="edge"><title>_ma_dihedral_restraints:__asym_id_4:w&#45;&gt;_struct_asym:__id:w</title>
<path fill="none" stroke="black" d="M165.765,-926.5C1.54225,-926.5 59.0328,-680.947 166.765,-557 240.696,-471.942 338.518,-601.128 417.765,-521 432.93,-505.667 414.883,-434.776 424.528,-413.532"/>
<polygon fill="black" stroke="black" points="426.765,-416.232 432.765,-407.5 422.629,-410.585 426.765,-416.232"/>
</g>
</g>
</svg>
