<?xml version="1.0" encoding="UTF-8" standalone="no"?>
<!DOCTYPE svg PUBLIC "-//W3C//DTD SVG 1.1//EN"
 "http://www.w3.org/Graphics/SVG/1.1/DTD/svg11.dtd">
<!-- Generated by graphviz version 2.38.0 (20140413.2041)
 -->
<!-- Title: ma_distance_restraints Pages: 1 -->
<svg width="686pt" height="934pt"
 viewBox="0.00 0.00 686.43 934.00" xmlns="http://www.w3.org/2000/svg" xmlns:xlink="http://www.w3.org/1999/xlink">
<g id="graph0" class="graph" transform="scale(1 1) rotate(0) translate(4 930)">
<title>ma_distance_restraints</title>
<polygon fill="white" stroke="none" points="-4,4 -4,-930 682.431,-930 682.431,4 -4,4"/>
<text text-anchor="start" x="336.216" y="-58.6" font-family="Helvetica,sans-Serif" font-size="18.00"> </text>
<text text-anchor="start" x="336.216" y="-40.6" font-family="Helvetica,sans-Serif" font-size="18.00"> </text>
<text text-anchor="start" x="65.7156" y="-22.6" font-family="Helvetica,sans-Serif" font-size="18.00"> Category Relationship Diagram for </text>
<text text-anchor="start" x="348.716" y="-22.6" font-family="Helvetica,sans-Serif" font-weight="bold" font-size="18.00">MA_DISTANCE_RESTRAINTS</text>
<text text-anchor="start" x="602.716" y="-22.6" font-family="Helvetica,sans-Serif" font-size="18.00"> </text>
<text text-anchor="start" x="608.716" y="-22.6" font-family="Helvetica,sans-Serif" font-size="14.00"> </text>
<text text-anchor="start" x="205.216" y="-7.8" font-family="Helvetica,sans-Serif" font-size="14.00"> &#160;in dictionary mmcif_pdbx.dic version 5.280 </text>
<!-- _chem_comp_atom -->
<g id="node1" class="node"><title>_chem_comp_atom</title>
<g id="a_node1_0"><a xlink:href="/dictionaries/mmcif_modeling_v10.unix_1.04.dic/Categories/chem_comp_atom.html" xlink:title="&lt;TABLE&gt;" target="_top">
<polygon fill="#99c49b" stroke="none" points="23.4313,-495.5 23.4313,-516.5 145.431,-516.5 145.431,-495.5 23.4313,-495.5"/>
<polygon fill="none" stroke="black" points="23.4313,-495.5 23.4313,-516.5 145.431,-516.5 145.431,-495.5 23.4313,-495.5"/>
<text text-anchor="start" x="34.4313" y="-503.5" font-family="Helvetica,sans-Serif" font-size="10.00">CHEM_COMP_ATOM</text>
</a>
</g>
<g id="a_node1_1"><a xlink:href="/dictionaries/mmcif_modeling_v10.unix_1.04.dic/Items/_chem_comp_atom.atom_id.html" xlink:title="&lt;TABLE&gt;" target="_top">
<polygon fill="#ffff99" stroke="none" points="23.4313,-475.5 23.4313,-495.5 145.431,-495.5 145.431,-475.5 23.4313,-475.5"/>
<polygon fill="none" stroke="black" points="23.4313,-475.5 23.4313,-495.5 145.431,-495.5 145.431,-475.5 23.4313,-475.5"/>
<text text-anchor="start" x="28.4313" y="-483.3" font-family="Helvetica,sans-Serif" font-size="9.00">atom_id</text>
</a>
</g>
<g id="a_node1_2"><a xlink:href="/dictionaries/mmcif_modeling_v10.unix_1.04.dic/Items/_chem_comp_atom.comp_id.html" xlink:title="&lt;TABLE&gt;" target="_top">
<polygon fill="#ffff99" stroke="none" points="23.4313,-455.5 23.4313,-475.5 145.431,-475.5 145.431,-455.5 23.4313,-455.5"/>
<polygon fill="none" stroke="black" points="23.4313,-455.5 23.4313,-475.5 145.431,-475.5 145.431,-455.5 23.4313,-455.5"/>
<text text-anchor="start" x="28.4313" y="-463.3" font-family="Helvetica,sans-Serif" font-size="9.00">comp_id</text>
</a>
</g>
<g id="a_node1_3"><a xlink:href="/dictionaries/mmcif_modeling_v10.unix_1.04.dic/Items/_chem_comp_atom.alt_atom_id.html" xlink:title="&lt;TABLE&gt;" target="_top">
<polygon fill="none" stroke="black" points="23.4313,-435.5 23.4313,-455.5 145.431,-455.5 145.431,-435.5 23.4313,-435.5"/>
<text text-anchor="start" x="28.4313" y="-443.3" font-family="Helvetica,sans-Serif" font-size="9.00">alt_atom_id</text>
</a>
</g>
<g id="a_node1_4"><a xlink:href="/dictionaries/mmcif_modeling_v10.unix_1.04.dic/Items/_chem_comp_atom.charge.html" xlink:title="&lt;TABLE&gt;" target="_top">
<polygon fill="none" stroke="black" points="23.4313,-415.5 23.4313,-435.5 145.431,-435.5 145.431,-415.5 23.4313,-415.5"/>
<text text-anchor="start" x="28.4313" y="-423.3" font-family="Helvetica,sans-Serif" font-size="9.00">charge</text>
</a>
</g>
<g id="a_node1_5"><a xlink:href="/dictionaries/mmcif_modeling_v10.unix_1.04.dic/Items/_chem_comp_atom.model_Cartn_x.html" xlink:title="&lt;TABLE&gt;" target="_top">
<polygon fill="none" stroke="black" points="23.4313,-395.5 23.4313,-415.5 145.431,-415.5 145.431,-395.5 23.4313,-395.5"/>
<text text-anchor="start" x="28.4313" y="-403.3" font-family="Helvetica,sans-Serif" font-size="9.00">model_Cartn_x</text>
</a>
</g>
<g id="a_node1_6"><a xlink:href="/dictionaries/mmcif_modeling_v10.unix_1.04.dic/Items/_chem_comp_atom.model_Cartn_x_esd.html" xlink:title="&lt;TABLE&gt;" target="_top">
<polygon fill="none" stroke="black" points="23.4313,-375.5 23.4313,-395.5 145.431,-395.5 145.431,-375.5 23.4313,-375.5"/>
<text text-anchor="start" x="28.4313" y="-383.3" font-family="Helvetica,sans-Serif" font-size="9.00">model_Cartn_x_esd</text>
</a>
</g>
<g id="a_node1_7"><a xlink:href="/dictionaries/mmcif_modeling_v10.unix_1.04.dic/Items/_chem_comp_atom.model_Cartn_y.html" xlink:title="&lt;TABLE&gt;" target="_top">
<polygon fill="none" stroke="black" points="23.4313,-355.5 23.4313,-375.5 145.431,-375.5 145.431,-355.5 23.4313,-355.5"/>
<text text-anchor="start" x="28.4313" y="-363.3" font-family="Helvetica,sans-Serif" font-size="9.00">model_Cartn_y</text>
</a>
</g>
<g id="a_node1_8"><a xlink:href="/dictionaries/mmcif_modeling_v10.unix_1.04.dic/Items/_chem_comp_atom.model_Cartn_y_esd.html" xlink:title="&lt;TABLE&gt;" target="_top">
<polygon fill="none" stroke="black" points="23.4313,-335.5 23.4313,-355.5 145.431,-355.5 145.431,-335.5 23.4313,-335.5"/>
<text text-anchor="start" x="28.4313" y="-343.3" font-family="Helvetica,sans-Serif" font-size="9.00">model_Cartn_y_esd</text>
</a>
</g>
<g id="a_node1_9"><a xlink:href="/dictionaries/mmcif_modeling_v10.unix_1.04.dic/Items/_chem_comp_atom.model_Cartn_z.html" xlink:title="&lt;TABLE&gt;" target="_top">
<polygon fill="none" stroke="black" points="23.4313,-315.5 23.4313,-335.5 145.431,-335.5 145.431,-315.5 23.4313,-315.5"/>
<text text-anchor="start" x="28.4313" y="-323.3" font-family="Helvetica,sans-Serif" font-size="9.00">model_Cartn_z</text>
</a>
</g>
<g id="a_node1_10"><a xlink:href="/dictionaries/mmcif_modeling_v10.unix_1.04.dic/Items/_chem_comp_atom.model_Cartn_z_esd.html" xlink:title="&lt;TABLE&gt;" target="_top">
<polygon fill="none" stroke="black" points="23.4313,-295.5 23.4313,-315.5 145.431,-315.5 145.431,-295.5 23.4313,-295.5"/>
<text text-anchor="start" x="28.4313" y="-303.3" font-family="Helvetica,sans-Serif" font-size="9.00">model_Cartn_z_esd</text>
</a>
</g>
<g id="a_node1_11"><a xlink:href="/dictionaries/mmcif_modeling_v10.unix_1.04.dic/Items/_chem_comp_atom.partial_charge.html" xlink:title="&lt;TABLE&gt;" target="_top">
<polygon fill="none" stroke="black" points="23.4313,-275.5 23.4313,-295.5 145.431,-295.5 145.431,-275.5 23.4313,-275.5"/>
<text text-anchor="start" x="28.4313" y="-283.3" font-family="Helvetica,sans-Serif" font-size="9.00">partial_charge</text>
</a>
</g>
<g id="a_node1_12"><a xlink:href="/dictionaries/mmcif_modeling_v10.unix_1.04.dic/Items/_chem_comp_atom.pdbx_align.html" xlink:title="&lt;TABLE&gt;" target="_top">
<polygon fill="none" stroke="black" points="23.4313,-255.5 23.4313,-275.5 145.431,-275.5 145.431,-255.5 23.4313,-255.5"/>
<text text-anchor="start" x="28.4313" y="-263.3" font-family="Helvetica,sans-Serif" font-size="9.00">pdbx_align</text>
</a>
</g>
<g id="a_node1_13"><a xlink:href="/dictionaries/mmcif_modeling_v10.unix_1.04.dic/Items/_chem_comp_atom.pdbx_alt_atom_id.html" xlink:title="&lt;TABLE&gt;" target="_top">
<polygon fill="none" stroke="black" points="23.4313,-235.5 23.4313,-255.5 145.431,-255.5 145.431,-235.5 23.4313,-235.5"/>
<text text-anchor="start" x="28.4313" y="-243.3" font-family="Helvetica,sans-Serif" font-size="9.00">pdbx_alt_atom_id</text>
</a>
</g>
<g id="a_node1_14"><a xlink:href="/dictionaries/mmcif_modeling_v10.unix_1.04.dic/Items/_chem_comp_atom.pdbx_alt_comp_id.html" xlink:title="&lt;TABLE&gt;" target="_top">
<polygon fill="none" stroke="black" points="23.4313,-215.5 23.4313,-235.5 145.431,-235.5 145.431,-215.5 23.4313,-215.5"/>
<text text-anchor="start" x="28.4313" y="-223.3" font-family="Helvetica,sans-Serif" font-size="9.00">pdbx_alt_comp_id</text>
</a>
</g>
<g id="a_node1_15"><a xlink:href="/dictionaries/mmcif_modeling_v10.unix_1.04.dic/Items/_chem_comp_atom.pdbx_aromatic_flag.html" xlink:title="&lt;TABLE&gt;" target="_top">
<polygon fill="none" stroke="black" points="23.4313,-195.5 23.4313,-215.5 145.431,-215.5 145.431,-195.5 23.4313,-195.5"/>
<text text-anchor="start" x="28.4313" y="-203.3" font-family="Helvetica,sans-Serif" font-size="9.00">pdbx_aromatic_flag</text>
</a>
</g>
<g id="a_node1_16"><a xlink:href="/dictionaries/mmcif_modeling_v10.unix_1.04.dic/Items/_chem_comp_atom.pdbx_component_atom_id.html" xlink:title="&lt;TABLE&gt;" target="_top">
<polygon fill="none" stroke="black" points="23.4313,-175.5 23.4313,-195.5 145.431,-195.5 145.431,-175.5 23.4313,-175.5"/>
<text text-anchor="start" x="28.4313" y="-183.3" font-family="Helvetica,sans-Serif" font-size="9.00">pdbx_component_atom_id</text>
</a>
</g>
<g id="a_node1_17"><a xlink:href="/dictionaries/mmcif_modeling_v10.unix_1.04.dic/Items/_chem_comp_atom.pdbx_component_comp_id.html" xlink:title="&lt;TABLE&gt;" target="_top">
<polygon fill="none" stroke="black" points="23.4313,-155.5 23.4313,-175.5 145.431,-175.5 145.431,-155.5 23.4313,-155.5"/>
<text text-anchor="start" x="28.4313" y="-163.3" font-family="Helvetica,sans-Serif" font-size="9.00">pdbx_component_comp_id</text>
</a>
</g>
<g id="a_node1_18"><a xlink:href="/dictionaries/mmcif_modeling_v10.unix_1.04.dic/Items/_chem_comp_atom.pdbx_component_entity_id.html" xlink:title="&lt;TABLE&gt;" target="_top">
<polygon fill="none" stroke="black" points="23.4313,-135.5 23.4313,-155.5 145.431,-155.5 145.431,-135.5 23.4313,-135.5"/>
<text text-anchor="start" x="28.4313" y="-143.3" font-family="Helvetica,sans-Serif" font-size="9.00">pdbx_component_entity_id</text>
</a>
</g>
<g id="a_node1_19"><a xlink:href="/dictionaries/mmcif_modeling_v10.unix_1.04.dic/Items/_chem_comp_atom.pdbx_component_id.html" xlink:title="&lt;TABLE&gt;" target="_top">
<polygon fill="none" stroke="black" points="23.4313,-115.5 23.4313,-135.5 145.431,-135.5 145.431,-115.5 23.4313,-115.5"/>
<text text-anchor="start" x="28.4313" y="-123.3" font-family="Helvetica,sans-Serif" font-size="9.00">pdbx_component_id</text>
</a>
</g>
<g id="a_node1_20"><a xlink:href="/dictionaries/mmcif_modeling_v10.unix_1.04.dic/Items/_chem_comp_atom.pdbx_leaving_atom_flag.html" xlink:title="&lt;TABLE&gt;" target="_top">
<polygon fill="none" stroke="black" points="23.4313,-95.5 23.4313,-115.5 145.431,-115.5 145.431,-95.5 23.4313,-95.5"/>
<text text-anchor="start" x="28.4313" y="-103.3" font-family="Helvetica,sans-Serif" font-size="9.00">pdbx_leaving_atom_flag</text>
</a>
</g>
<polygon fill="none" stroke="black" points="23.4313,-79.5 23.4313,-95.5 145.431,-95.5 145.431,-79.5 23.4313,-79.5"/>
<text text-anchor="start" x="53.4313" y="-85.3" font-family="Helvetica,sans-Serif" font-size="9.00">... and others ...</text>
</g>
<!-- _entity_poly_seq -->
<g id="node2" class="node"><title>_entity_poly_seq</title>
<g id="a_node2_21"><a xlink:href="/dictionaries/mmcif_modeling_v10.unix_1.04.dic/Categories/entity_poly_seq.html" xlink:title="&lt;TABLE&gt;" target="_top">
<polygon fill="#99c49b" stroke="none" points="179.431,-327.5 179.431,-348.5 283.431,-348.5 283.431,-327.5 179.431,-327.5"/>
<polygon fill="none" stroke="black" points="179.431,-327.5 179.431,-348.5 283.431,-348.5 283.431,-327.5 179.431,-327.5"/>
<text text-anchor="start" x="184.431" y="-335.5" font-family="Helvetica,sans-Serif" font-size="10.00">ENTITY_POLY_SEQ</text>
</a>
</g>
<g id="a_node2_22"><a xlink:href="/dictionaries/mmcif_modeling_v10.unix_1.04.dic/Items/_entity_poly_seq.entity_id.html" xlink:title="&lt;TABLE&gt;" target="_top">
<polygon fill="#ffff99" stroke="none" points="179.431,-307.5 179.431,-327.5 283.431,-327.5 283.431,-307.5 179.431,-307.5"/>
<polygon fill="none" stroke="black" points="179.431,-307.5 179.431,-327.5 283.431,-327.5 283.431,-307.5 179.431,-307.5"/>
<text text-anchor="start" x="184.431" y="-315.3" font-family="Helvetica,sans-Serif" font-size="9.00">entity_id</text>
</a>
</g>
<g id="a_node2_23"><a xlink:href="/dictionaries/mmcif_modeling_v10.unix_1.04.dic/Items/_entity_poly_seq.mon_id.html" xlink:title="&lt;TABLE&gt;" target="_top">
<polygon fill="#ffff99" stroke="none" points="179.431,-287.5 179.431,-307.5 283.431,-307.5 283.431,-287.5 179.431,-287.5"/>
<polygon fill="none" stroke="black" points="179.431,-287.5 179.431,-307.5 283.431,-307.5 283.431,-287.5 179.431,-287.5"/>
<text text-anchor="start" x="184.431" y="-295.3" font-family="Helvetica,sans-Serif" font-size="9.00">mon_id</text>
</a>
</g>
<g id="a_node2_24"><a xlink:href="/dictionaries/mmcif_modeling_v10.unix_1.04.dic/Items/_entity_poly_seq.num.html" xlink:title="&lt;TABLE&gt;" target="_top">
<polygon fill="#ffff99" stroke="none" points="179.431,-267.5 179.431,-287.5 283.431,-287.5 283.431,-267.5 179.431,-267.5"/>
<polygon fill="none" stroke="black" points="179.431,-267.5 179.431,-287.5 283.431,-287.5 283.431,-267.5 179.431,-267.5"/>
<text text-anchor="start" x="184.431" y="-275.3" font-family="Helvetica,sans-Serif" font-size="9.00">num</text>
</a>
</g>
<g id="a_node2_25"><a xlink:href="/dictionaries/mmcif_modeling_v10.unix_1.04.dic/Items/_entity_poly_seq.hetero.html" xlink:title="&lt;TABLE&gt;" target="_top">
<polygon fill="none" stroke="black" points="179.431,-247.5 179.431,-267.5 283.431,-267.5 283.431,-247.5 179.431,-247.5"/>
<text text-anchor="start" x="184.431" y="-255.3" font-family="Helvetica,sans-Serif" font-size="9.00">hetero</text>
</a>
</g>
</g>
<!-- _ma_distance_restraints -->
<g id="node3" class="node"><title>_ma_distance_restraints</title>
<g id="a_node3_26"><a xlink:href="/dictionaries/mmcif_modeling_v10.unix_1.04.dic/Categories/ma_distance_restraints.html" xlink:title="&lt;TABLE&gt;" target="_top">
<polygon fill="#f0027f" stroke="none" points="179.431,-900.5 179.431,-921.5 331.431,-921.5 331.431,-900.5 179.431,-900.5"/>
<polygon fill="none" stroke="black" points="179.431,-900.5 179.431,-921.5 331.431,-921.5 331.431,-900.5 179.431,-900.5"/>
<text text-anchor="start" x="184.431" y="-908.5" font-family="Helvetica,sans-Serif" font-size="10.00">MA_DISTANCE_RESTRAINTS</text>
</a>
</g>
<g id="a_node3_27"><a xlink:href="/dictionaries/mmcif_modeling_v10.unix_1.04.dic/Items/_ma_distance_restraints.ordinal_id.html" xlink:title="&lt;TABLE&gt;" target="_top">
<polygon fill="#ffff99" stroke="none" points="179.431,-880.5 179.431,-900.5 331.431,-900.5 331.431,-880.5 179.431,-880.5"/>
<polygon fill="none" stroke="black" points="179.431,-880.5 179.431,-900.5 331.431,-900.5 331.431,-880.5 179.431,-880.5"/>
<text text-anchor="start" x="184.431" y="-888.3" font-family="Helvetica,sans-Serif" font-size="9.00">ordinal_id</text>
</a>
</g>
<g id="a_node3_28"><a xlink:href="/dictionaries/mmcif_modeling_v10.unix_1.04.dic/Items/_ma_distance_restraints.asym_id_1.html" xlink:title="&lt;TABLE&gt;" target="_top">
<polygon fill="none" stroke="black" points="179.431,-860.5 179.431,-880.5 331.431,-880.5 331.431,-860.5 179.431,-860.5"/>
<text text-anchor="start" x="184.431" y="-868.3" font-family="Helvetica,sans-Serif" font-size="9.00">asym_id_1</text>
</a>
</g>
<g id="a_node3_29"><a xlink:href="/dictionaries/mmcif_modeling_v10.unix_1.04.dic/Items/_ma_distance_restraints.asym_id_2.html" xlink:title="&lt;TABLE&gt;" target="_top">
<polygon fill="none" stroke="black" points="179.431,-840.5 179.431,-860.5 331.431,-860.5 331.431,-840.5 179.431,-840.5"/>
<text text-anchor="start" x="184.431" y="-848.3" font-family="Helvetica,sans-Serif" font-size="9.00">asym_id_2</text>
</a>
</g>
<g id="a_node3_30"><a xlink:href="/dictionaries/mmcif_modeling_v10.unix_1.04.dic/Items/_ma_distance_restraints.atom_id_1.html" xlink:title="&lt;TABLE&gt;" target="_top">
<polygon fill="none" stroke="black" points="179.431,-820.5 179.431,-840.5 331.431,-840.5 331.431,-820.5 179.431,-820.5"/>
<text text-anchor="start" x="184.431" y="-828.3" font-family="Helvetica,sans-Serif" font-size="9.00">atom_id_1</text>
</a>
</g>
<g id="a_node3_31"><a xlink:href="/dictionaries/mmcif_modeling_v10.unix_1.04.dic/Items/_ma_distance_restraints.atom_id_2.html" xlink:title="&lt;TABLE&gt;" target="_top">
<polygon fill="none" stroke="black" points="179.431,-800.5 179.431,-820.5 331.431,-820.5 331.431,-800.5 179.431,-800.5"/>
<text text-anchor="start" x="184.431" y="-808.3" font-family="Helvetica,sans-Serif" font-size="9.00">atom_id_2</text>
</a>
</g>
<g id="a_node3_32"><a xlink:href="/dictionaries/mmcif_modeling_v10.unix_1.04.dic/Items/_ma_distance_restraints.comp_id_1.html" xlink:title="&lt;TABLE&gt;" target="_top">
<polygon fill="none" stroke="black" points="179.431,-780.5 179.431,-800.5 331.431,-800.5 331.431,-780.5 179.431,-780.5"/>
<text text-anchor="start" x="184.431" y="-788.3" font-family="Helvetica,sans-Serif" font-size="9.00">comp_id_1</text>
</a>
</g>
<g id="a_node3_33"><a xlink:href="/dictionaries/mmcif_modeling_v10.unix_1.04.dic/Items/_ma_distance_restraints.comp_id_2.html" xlink:title="&lt;TABLE&gt;" target="_top">
<polygon fill="none" stroke="black" points="179.431,-760.5 179.431,-780.5 331.431,-780.5 331.431,-760.5 179.431,-760.5"/>
<text text-anchor="start" x="184.431" y="-768.3" font-family="Helvetica,sans-Serif" font-size="9.00">comp_id_2</text>
</a>
</g>
<g id="a_node3_34"><a xlink:href="/dictionaries/mmcif_modeling_v10.unix_1.04.dic/Items/_ma_distance_restraints.entity_id_1.html" xlink:title="&lt;TABLE&gt;" target="_top">
<polygon fill="none" stroke="black" points="179.431,-740.5 179.431,-760.5 331.431,-760.5 331.431,-740.5 179.431,-740.5"/>
<text text-anchor="start" x="184.431" y="-748.3" font-family="Helvetica,sans-Serif" font-size="9.00">entity_id_1</text>
</a>
</g>
<g id="a_node3_35"><a xlink:href="/dictionaries/mmcif_modeling_v10.unix_1.04.dic/Items/_ma_distance_restraints.entity_id_2.html" xlink:title="&lt;TABLE&gt;" target="_top">
<polygon fill="none" stroke="black" points="179.431,-720.5 179.431,-740.5 331.431,-740.5 331.431,-720.5 179.431,-720.5"/>
<text text-anchor="start" x="184.431" y="-728.3" font-family="Helvetica,sans-Serif" font-size="9.00">entity_id_2</text>
</a>
</g>
<g id="a_node3_36"><a xlink:href="/dictionaries/mmcif_modeling_v10.unix_1.04.dic/Items/_ma_distance_restraints.restraint_id.html" xlink:title="&lt;TABLE&gt;" target="_top">
<polygon fill="none" stroke="black" points="179.431,-700.5 179.431,-720.5 331.431,-720.5 331.431,-700.5 179.431,-700.5"/>
<text text-anchor="start" x="184.431" y="-708.3" font-family="Helvetica,sans-Serif" font-size="9.00">restraint_id</text>
</a>
</g>
<g id="a_node3_37"><a xlink:href="/dictionaries/mmcif_modeling_v10.unix_1.04.dic/Items/_ma_distance_restraints.seq_id_1.html" xlink:title="&lt;TABLE&gt;" target="_top">
<polygon fill="none" stroke="black" points="179.431,-680.5 179.431,-700.5 331.431,-700.5 331.431,-680.5 179.431,-680.5"/>
<text text-anchor="start" x="184.431" y="-688.3" font-family="Helvetica,sans-Serif" font-size="9.00">seq_id_1</text>
</a>
</g>
<g id="a_node3_38"><a xlink:href="/dictionaries/mmcif_modeling_v10.unix_1.04.dic/Items/_ma_distance_restraints.seq_id_2.html" xlink:title="&lt;TABLE&gt;" target="_top">
<polygon fill="none" stroke="black" points="179.431,-660.5 179.431,-680.5 331.431,-680.5 331.431,-660.5 179.431,-660.5"/>
<text text-anchor="start" x="184.431" y="-668.3" font-family="Helvetica,sans-Serif" font-size="9.00">seq_id_2</text>
</a>
</g>
<g id="a_node3_39"><a xlink:href="/dictionaries/mmcif_modeling_v10.unix_1.04.dic/Items/_ma_distance_restraints.distance_threshold.html" xlink:title="&lt;TABLE&gt;" target="_top">
<polygon fill="none" stroke="black" points="179.431,-640.5 179.431,-660.5 331.431,-660.5 331.431,-640.5 179.431,-640.5"/>
<text text-anchor="start" x="184.431" y="-648.3" font-family="Helvetica,sans-Serif" font-size="9.00">distance_threshold</text>
</a>
</g>
<g id="a_node3_40"><a xlink:href="/dictionaries/mmcif_modeling_v10.unix_1.04.dic/Items/_ma_distance_restraints.group_id.html" xlink:title="&lt;TABLE&gt;" target="_top">
<polygon fill="none" stroke="black" points="179.431,-620.5 179.431,-640.5 331.431,-640.5 331.431,-620.5 179.431,-620.5"/>
<text text-anchor="start" x="184.431" y="-628.3" font-family="Helvetica,sans-Serif" font-size="9.00">group_id</text>
</a>
</g>
<g id="a_node3_41"><a xlink:href="/dictionaries/mmcif_modeling_v10.unix_1.04.dic/Items/_ma_distance_restraints.lower_limit.html" xlink:title="&lt;TABLE&gt;" target="_top">
<polygon fill="none" stroke="black" points="179.431,-600.5 179.431,-620.5 331.431,-620.5 331.431,-600.5 179.431,-600.5"/>
<text text-anchor="start" x="184.431" y="-608.3" font-family="Helvetica,sans-Serif" font-size="9.00">lower_limit</text>
</a>
</g>
<g id="a_node3_42"><a xlink:href="/dictionaries/mmcif_modeling_v10.unix_1.04.dic/Items/_ma_distance_restraints.uncertainty.html" xlink:title="&lt;TABLE&gt;" target="_top">
<polygon fill="none" stroke="black" points="179.431,-580.5 179.431,-600.5 331.431,-600.5 331.431,-580.5 179.431,-580.5"/>
<text text-anchor="start" x="184.431" y="-588.3" font-family="Helvetica,sans-Serif" font-size="9.00">uncertainty</text>
</a>
</g>
<g id="a_node3_43"><a xlink:href="/dictionaries/mmcif_modeling_v10.unix_1.04.dic/Items/_ma_distance_restraints.upper_limit.html" xlink:title="&lt;TABLE&gt;" target="_top">
<polygon fill="none" stroke="black" points="179.431,-560.5 179.431,-580.5 331.431,-580.5 331.431,-560.5 179.431,-560.5"/>
<text text-anchor="start" x="184.431" y="-568.3" font-family="Helvetica,sans-Serif" font-size="9.00">upper_limit</text>
</a>
</g>
</g>
<!-- _ma_distance_restraints&#45;&gt;_chem_comp_atom -->
<g id="edge1" class="edge"><title>_ma_distance_restraints:__atom_id_1:w&#45;&gt;_chem_comp_atom:__atom_id:w</title>
<path fill="none" stroke="black" d="M178.431,-830.5C140.059,-830.5 6.90303,-543.479 15.7169,-493.027"/>
<polygon fill="black" stroke="black" points="18.3861,-495.292 22.4313,-485.5 13.1625,-490.632 18.3861,-495.292"/>
</g>
<!-- _ma_distance_restraints&#45;&gt;_chem_comp_atom -->
<g id="edge2" class="edge"><title>_ma_distance_restraints:__atom_id_2:w&#45;&gt;_chem_comp_atom:__atom_id:w</title>
<path fill="none" stroke="black" d="M178.431,-810.5C102.232,-810.5 -42.6266,-516.463 12.3487,-487.749"/>
<polygon fill="black" stroke="black" points="13.4331,-491.093 22.4313,-485.5 11.9091,-484.261 13.4331,-491.093"/>
</g>
<!-- _ma_distance_restraints&#45;&gt;_entity_poly_seq -->
<g id="edge3" class="edge"><title>_ma_distance_restraints:__entity_id_1:w&#45;&gt;_entity_poly_seq:__entity_id:w</title>
<path fill="none" stroke="black" d="M178.431,-750.5C167.484,-750.5 166.501,-391.81 175.481,-327.357"/>
<polygon fill="black" stroke="black" points="178.917,-328.084 178.431,-317.5 172.211,-326.076 178.917,-328.084"/>
</g>
<!-- _ma_distance_restraints&#45;&gt;_entity_poly_seq -->
<g id="edge4" class="edge"><title>_ma_distance_restraints:__entity_id_2:w&#45;&gt;_entity_poly_seq:__entity_id:w</title>
<path fill="none" stroke="black" d="M178.431,-730.5C168.012,-730.5 167.056,-389.844 175.562,-327.302"/>
<polygon fill="black" stroke="black" points="178.981,-328.081 178.431,-317.5 172.263,-326.114 178.981,-328.081"/>
</g>
<!-- _ma_distance_restraints&#45;&gt;_entity_poly_seq -->
<g id="edge5" class="edge"><title>_ma_distance_restraints:__comp_id_1:w&#45;&gt;_entity_poly_seq:__mon_id:w</title>
<path fill="none" stroke="black" d="M178.431,-790.5C165.887,-790.5 164.833,-376.831 175.271,-307.348"/>
<polygon fill="black" stroke="black" points="178.708,-308.091 178.431,-297.5 172.043,-305.952 178.708,-308.091"/>
</g>
<!-- _ma_distance_restraints&#45;&gt;_entity_poly_seq -->
<g id="edge6" class="edge"><title>_ma_distance_restraints:__comp_id_2:w&#45;&gt;_entity_poly_seq:__mon_id:w</title>
<path fill="none" stroke="black" d="M178.431,-770.5C166.422,-770.5 165.389,-375.304 175.335,-307.379"/>
<polygon fill="black" stroke="black" points="178.78,-308.089 178.431,-297.5 172.101,-305.996 178.78,-308.089"/>
</g>
<!-- _ma_distance_restraints&#45;&gt;_entity_poly_seq -->
<g id="edge7" class="edge"><title>_ma_distance_restraints:__seq_id_1:w&#45;&gt;_entity_poly_seq:__num:w</title>
<path fill="none" stroke="black" d="M178.431,-690.5C168.012,-690.5 167.056,-349.844 175.562,-287.302"/>
<polygon fill="black" stroke="black" points="178.981,-288.081 178.431,-277.5 172.263,-286.114 178.981,-288.081"/>
</g>
<!-- _ma_distance_restraints&#45;&gt;_entity_poly_seq -->
<g id="edge8" class="edge"><title>_ma_distance_restraints:__seq_id_2:w&#45;&gt;_entity_poly_seq:__num:w</title>
<path fill="none" stroke="black" d="M178.431,-670.5C168.538,-670.5 167.611,-347.733 175.649,-287.215"/>
<polygon fill="black" stroke="black" points="179.042,-288.077 178.431,-277.5 172.313,-286.15 179.042,-288.077"/>
</g>
<!-- _ma_restraints -->
<g id="node4" class="node"><title>_ma_restraints</title>
<g id="a_node4_44"><a xlink:href="/dictionaries/mmcif_modeling_v10.unix_1.04.dic/Categories/ma_restraints.html" xlink:title="&lt;TABLE&gt;" target="_top">
<polygon fill="#99c49b" stroke="none" points="318.431,-347.5 318.431,-368.5 413.431,-368.5 413.431,-347.5 318.431,-347.5"/>
<polygon fill="none" stroke="black" points="318.431,-347.5 318.431,-368.5 413.431,-368.5 413.431,-347.5 318.431,-347.5"/>
<text text-anchor="start" x="323.431" y="-355.5" font-family="Helvetica,sans-Serif" font-size="10.00">MA_RESTRAINTS</text>
</a>
</g>
<g id="a_node4_45"><a xlink:href="/dictionaries/mmcif_modeling_v10.unix_1.04.dic/Items/_ma_restraints.ordinal_id.html" xlink:title="&lt;TABLE&gt;" target="_top">
<polygon fill="#ffff99" stroke="none" points="318.431,-327.5 318.431,-347.5 413.431,-347.5 413.431,-327.5 318.431,-327.5"/>
<polygon fill="none" stroke="black" points="318.431,-327.5 318.431,-347.5 413.431,-347.5 413.431,-327.5 318.431,-327.5"/>
<text text-anchor="start" x="323.431" y="-335.3" font-family="Helvetica,sans-Serif" font-size="9.00">ordinal_id</text>
</a>
</g>
<g id="a_node4_46"><a xlink:href="/dictionaries/mmcif_modeling_v10.unix_1.04.dic/Items/_ma_restraints.restraint_id.html" xlink:title="&lt;TABLE&gt;" target="_top">
<polygon fill="none" stroke="black" points="318.431,-307.5 318.431,-327.5 413.431,-327.5 413.431,-307.5 318.431,-307.5"/>
<text text-anchor="start" x="323.431" y="-315.3" font-family="Helvetica,sans-Serif" font-size="9.00">restraint_id</text>
</a>
</g>
<g id="a_node4_47"><a xlink:href="/dictionaries/mmcif_modeling_v10.unix_1.04.dic/Items/_ma_restraints.data_id.html" xlink:title="&lt;TABLE&gt;" target="_top">
<polygon fill="none" stroke="black" points="318.431,-287.5 318.431,-307.5 413.431,-307.5 413.431,-287.5 318.431,-287.5"/>
<text text-anchor="start" x="323.431" y="-295.3" font-family="Helvetica,sans-Serif" font-size="9.00">data_id</text>
</a>
</g>
<g id="a_node4_48"><a xlink:href="/dictionaries/mmcif_modeling_v10.unix_1.04.dic/Items/_ma_restraints.details.html" xlink:title="&lt;TABLE&gt;" target="_top">
<polygon fill="none" stroke="black" points="318.431,-267.5 318.431,-287.5 413.431,-287.5 413.431,-267.5 318.431,-267.5"/>
<text text-anchor="start" x="323.431" y="-275.3" font-family="Helvetica,sans-Serif" font-size="9.00">details</text>
</a>
</g>
<g id="a_node4_49"><a xlink:href="/dictionaries/mmcif_modeling_v10.unix_1.04.dic/Items/_ma_restraints.name.html" xlink:title="&lt;TABLE&gt;" target="_top">
<polygon fill="none" stroke="black" points="318.431,-247.5 318.431,-267.5 413.431,-267.5 413.431,-247.5 318.431,-247.5"/>
<text text-anchor="start" x="323.431" y="-255.3" font-family="Helvetica,sans-Serif" font-size="9.00">name</text>
</a>
</g>
<g id="a_node4_50"><a xlink:href="/dictionaries/mmcif_modeling_v10.unix_1.04.dic/Items/_ma_restraints.restraint_type.html" xlink:title="&lt;TABLE&gt;" target="_top">
<polygon fill="none" stroke="black" points="318.431,-227.5 318.431,-247.5 413.431,-247.5 413.431,-227.5 318.431,-227.5"/>
<text text-anchor="start" x="323.431" y="-235.3" font-family="Helvetica,sans-Serif" font-size="9.00">restraint_type</text>
</a>
</g>
</g>
<!-- _ma_distance_restraints&#45;&gt;_ma_restraints -->
<g id="edge11" class="edge"><title>_ma_distance_restraints:__restraint_id:w&#45;&gt;_ma_restraints:__restraint_id:w</title>
<path fill="none" stroke="black" d="M178.431,-710.5C110.208,-710.5 138.466,-611.556 179.431,-557 213.121,-512.133 265.043,-564.54 300.431,-521 312.953,-505.593 299.205,-361.344 310.773,-325.522"/>
<polygon fill="black" stroke="black" points="313.738,-327.43 317.431,-317.5 308.351,-322.96 313.738,-327.43"/>
</g>
<!-- _struct_asym -->
<g id="node5" class="node"><title>_struct_asym</title>
<g id="a_node5_51"><a xlink:href="/dictionaries/mmcif_modeling_v10.unix_1.04.dic/Categories/struct_asym.html" xlink:title="&lt;TABLE&gt;" target="_top">
<polygon fill="#99c49b" stroke="none" points="446.431,-417.5 446.431,-438.5 670.431,-438.5 670.431,-417.5 446.431,-417.5"/>
<polygon fill="none" stroke="black" points="446.431,-417.5 446.431,-438.5 670.431,-438.5 670.431,-417.5 446.431,-417.5"/>
<text text-anchor="start" x="520.431" y="-425.5" font-family="Helvetica,sans-Serif" font-size="10.00">STRUCT_ASYM</text>
</a>
</g>
<g id="a_node5_52"><a xlink:href="/dictionaries/mmcif_modeling_v10.unix_1.04.dic/Items/_struct_asym.id.html" xlink:title="&lt;TABLE&gt;" target="_top">
<polygon fill="#ffff99" stroke="none" points="446.431,-397.5 446.431,-417.5 670.431,-417.5 670.431,-397.5 446.431,-397.5"/>
<polygon fill="none" stroke="black" points="446.431,-397.5 446.431,-417.5 670.431,-417.5 670.431,-397.5 446.431,-397.5"/>
<text text-anchor="start" x="451.431" y="-405.3" font-family="Helvetica,sans-Serif" font-size="9.00">id</text>
</a>
</g>
<g id="a_node5_53"><a xlink:href="/dictionaries/mmcif_modeling_v10.unix_1.04.dic/Items/_struct_asym.details.html" xlink:title="&lt;TABLE&gt;" target="_top">
<polygon fill="none" stroke="black" points="446.431,-377.5 446.431,-397.5 670.431,-397.5 670.431,-377.5 446.431,-377.5"/>
<text text-anchor="start" x="451.431" y="-385.3" font-family="Helvetica,sans-Serif" font-size="9.00">details</text>
</a>
</g>
<g id="a_node5_54"><a xlink:href="/dictionaries/mmcif_modeling_v10.unix_1.04.dic/Items/_struct_asym.entity_id.html" xlink:title="&lt;TABLE&gt;" target="_top">
<polygon fill="none" stroke="black" points="446.431,-357.5 446.431,-377.5 670.431,-377.5 670.431,-357.5 446.431,-357.5"/>
<text text-anchor="start" x="451.431" y="-365.3" font-family="Helvetica,sans-Serif" font-size="9.00">entity_id</text>
</a>
</g>
<g id="a_node5_55"><a xlink:href="/dictionaries/mmcif_modeling_v10.unix_1.04.dic/Items/_struct_asym.pdbx_PDB_id.html" xlink:title="&lt;TABLE&gt;" target="_top">
<polygon fill="none" stroke="black" points="446.431,-337.5 446.431,-357.5 670.431,-357.5 670.431,-337.5 446.431,-337.5"/>
<text text-anchor="start" x="451.431" y="-345.3" font-family="Helvetica,sans-Serif" font-size="9.00">pdbx_PDB_id</text>
</a>
</g>
<g id="a_node5_56"><a xlink:href="/dictionaries/mmcif_modeling_v10.unix_1.04.dic/Items/_struct_asym.pdbx_alt_id.html" xlink:title="&lt;TABLE&gt;" target="_top">
<polygon fill="none" stroke="black" points="446.431,-317.5 446.431,-337.5 670.431,-337.5 670.431,-317.5 446.431,-317.5"/>
<text text-anchor="start" x="451.431" y="-325.3" font-family="Helvetica,sans-Serif" font-size="9.00">pdbx_alt_id</text>
</a>
</g>
<g id="a_node5_57"><a xlink:href="/dictionaries/mmcif_modeling_v10.unix_1.04.dic/Items/_struct_asym.pdbx_blank_PDB_chainid_flag.html" xlink:title="&lt;TABLE&gt;" target="_top">
<polygon fill="none" stroke="black" points="446.431,-297.5 446.431,-317.5 670.431,-317.5 670.431,-297.5 446.431,-297.5"/>
<text text-anchor="start" x="451.431" y="-305.3" font-family="Helvetica,sans-Serif" font-size="9.00">pdbx_blank_PDB_chainid_flag</text>
</a>
</g>
<g id="a_node5_58"><a xlink:href="/dictionaries/mmcif_modeling_v10.unix_1.04.dic/Items/_struct_asym.pdbx_fraction_per_asym_unit.html" xlink:title="&lt;TABLE&gt;" target="_top">
<polygon fill="none" stroke="black" points="446.431,-277.5 446.431,-297.5 670.431,-297.5 670.431,-277.5 446.431,-277.5"/>
<text text-anchor="start" x="451.431" y="-285.3" font-family="Helvetica,sans-Serif" font-size="9.00">pdbx_fraction_per_asym_unit</text>
</a>
</g>
<g id="a_node5_59"><a xlink:href="/dictionaries/mmcif_modeling_v10.unix_1.04.dic/Items/_struct_asym.pdbx_missing_num_begin_of_chain_in_seqres.html" xlink:title="&lt;TABLE&gt;" target="_top">
<polygon fill="none" stroke="black" points="446.431,-257.5 446.431,-277.5 670.431,-277.5 670.431,-257.5 446.431,-257.5"/>
<text text-anchor="start" x="451.431" y="-265.3" font-family="Helvetica,sans-Serif" font-size="9.00">pdbx_missing_num_begin_of_chain_in_seqres</text>
</a>
</g>
<g id="a_node5_60"><a xlink:href="/dictionaries/mmcif_modeling_v10.unix_1.04.dic/Items/_struct_asym.pdbx_missing_num_begin_of_chain_not_in_seqres.html" xlink:title="&lt;TABLE&gt;" target="_top">
<polygon fill="none" stroke="black" points="446.431,-237.5 446.431,-257.5 670.431,-257.5 670.431,-237.5 446.431,-237.5"/>
<text text-anchor="start" x="451.431" y="-245.3" font-family="Helvetica,sans-Serif" font-size="9.00">pdbx_missing_num_begin_of_chain_not_in_seqres</text>
</a>
</g>
<g id="a_node5_61"><a xlink:href="/dictionaries/mmcif_modeling_v10.unix_1.04.dic/Items/_struct_asym.pdbx_missing_num_end_of_chain_not_in_seqres.html" xlink:title="&lt;TABLE&gt;" target="_top">
<polygon fill="none" stroke="black" points="446.431,-217.5 446.431,-237.5 670.431,-237.5 670.431,-217.5 446.431,-217.5"/>
<text text-anchor="start" x="451.431" y="-225.3" font-family="Helvetica,sans-Serif" font-size="9.00">pdbx_missing_num_end_of_chain_not_in_seqres</text>
</a>
</g>
<g id="a_node5_62"><a xlink:href="/dictionaries/mmcif_modeling_v10.unix_1.04.dic/Items/_struct_asym.pdbx_modified.html" xlink:title="&lt;TABLE&gt;" target="_top">
<polygon fill="none" stroke="black" points="446.431,-197.5 446.431,-217.5 670.431,-217.5 670.431,-197.5 446.431,-197.5"/>
<text text-anchor="start" x="451.431" y="-205.3" font-family="Helvetica,sans-Serif" font-size="9.00">pdbx_modified</text>
</a>
</g>
<g id="a_node5_63"><a xlink:href="/dictionaries/mmcif_modeling_v10.unix_1.04.dic/Items/_struct_asym.pdbx_order.html" xlink:title="&lt;TABLE&gt;" target="_top">
<polygon fill="none" stroke="black" points="446.431,-177.5 446.431,-197.5 670.431,-197.5 670.431,-177.5 446.431,-177.5"/>
<text text-anchor="start" x="451.431" y="-185.3" font-family="Helvetica,sans-Serif" font-size="9.00">pdbx_order</text>
</a>
</g>
<g id="a_node5_64"><a xlink:href="/dictionaries/mmcif_modeling_v10.unix_1.04.dic/Items/_struct_asym.pdbx_type.html" xlink:title="&lt;TABLE&gt;" target="_top">
<polygon fill="none" stroke="black" points="446.431,-157.5 446.431,-177.5 670.431,-177.5 670.431,-157.5 446.431,-157.5"/>
<text text-anchor="start" x="451.431" y="-165.3" font-family="Helvetica,sans-Serif" font-size="9.00">pdbx_type</text>
</a>
</g>
</g>
<!-- _ma_distance_restraints&#45;&gt;_struct_asym -->
<g id="edge9" class="edge"><title>_ma_distance_restraints:__asym_id_1:w&#45;&gt;_struct_asym:__id:w</title>
<path fill="none" stroke="black" d="M178.431,-870.5C39.0972,-870.5 88.0009,-662.14 179.431,-557 253.383,-471.96 351.184,-601.128 430.431,-521 445.596,-505.667 427.549,-434.776 437.194,-413.532"/>
<polygon fill="black" stroke="black" points="439.431,-416.232 445.431,-407.5 435.295,-410.585 439.431,-416.232"/>
</g>
<!-- _ma_distance_restraints&#45;&gt;_struct_asym -->
<g id="edge10" class="edge"><title>_ma_distance_restraints:__asym_id_2:w&#45;&gt;_struct_asym:__id:w</title>
<path fill="none" stroke="black" d="M178.431,-850.5C47.9861,-850.5 93.823,-655.423 179.431,-557 253.392,-471.968 351.184,-601.128 430.431,-521 445.596,-505.667 427.549,-434.776 437.194,-413.532"/>
<polygon fill="black" stroke="black" points="439.431,-416.232 445.431,-407.5 435.295,-410.585 439.431,-416.232"/>
</g>
</g>
</svg>
