<?xml version="1.0" encoding="UTF-8" standalone="no"?>
<!DOCTYPE svg PUBLIC "-//W3C//DTD SVG 1.1//EN"
 "http://www.w3.org/Graphics/SVG/1.1/DTD/svg11.dtd">
<!-- Generated by graphviz version 2.38.0 (20140413.2041)
 -->
<!-- Title: ma_model_list Pages: 1 -->
<svg width="470pt" height="1164pt"
 viewBox="0.00 0.00 470.00 1164.00" xmlns="http://www.w3.org/2000/svg" xmlns:xlink="http://www.w3.org/1999/xlink">
<g id="graph0" class="graph" transform="scale(1 1) rotate(0) translate(4 1160)">
<title>ma_model_list</title>
<polygon fill="white" stroke="none" points="-4,4 -4,-1160 466,-1160 466,4 -4,4"/>
<text text-anchor="start" x="228" y="-58.6" font-family="Helvetica,sans-Serif" font-size="18.00"> </text>
<text text-anchor="start" x="228" y="-40.6" font-family="Helvetica,sans-Serif" font-size="18.00"> </text>
<text text-anchor="start" x="8" y="-22.6" font-family="Helvetica,sans-Serif" font-size="18.00"> Category Relationship Diagram for </text>
<text text-anchor="start" x="291" y="-22.6" font-family="Helvetica,sans-Serif" font-weight="bold" font-size="18.00">MA_MODEL_LIST</text>
<text text-anchor="start" x="444" y="-22.6" font-family="Helvetica,sans-Serif" font-size="18.00"> </text>
<text text-anchor="start" x="450" y="-22.6" font-family="Helvetica,sans-Serif" font-size="14.00"> </text>
<text text-anchor="start" x="97" y="-7.8" font-family="Helvetica,sans-Serif" font-size="14.00"> &#160;in dictionary mmcif_pdbx.dic version 5.296 </text>
<!-- _atom_site -->
<g id="node1" class="node"><title>_atom_site</title>
<g id="a_node1_0"><a xlink:href="/dictionaries/mmcif_pdbx_modeling_extension_all.dic/Categories/atom_site.html" xlink:title="&lt;TABLE&gt;" target="_top">
<polygon fill="#99c49b" stroke="none" points="209.102,-1130.5 209.102,-1151.5 331.102,-1151.5 331.102,-1130.5 209.102,-1130.5"/>
<polygon fill="none" stroke="black" points="209.102,-1130.5 209.102,-1151.5 331.102,-1151.5 331.102,-1130.5 209.102,-1130.5"/>
<text text-anchor="start" x="241.602" y="-1138.5" font-family="Helvetica,sans-Serif" font-size="10.00">ATOM_SITE</text>
</a>
</g>
<g id="a_node1_1"><a xlink:href="/dictionaries/mmcif_pdbx_modeling_extension_all.dic/Items/_atom_site.id.html" xlink:title="&lt;TABLE&gt;" target="_top">
<polygon fill="#ffff99" stroke="none" points="209.102,-1110.5 209.102,-1130.5 331.102,-1130.5 331.102,-1110.5 209.102,-1110.5"/>
<polygon fill="none" stroke="black" points="209.102,-1110.5 209.102,-1130.5 331.102,-1130.5 331.102,-1110.5 209.102,-1110.5"/>
<text text-anchor="start" x="214.102" y="-1118.3" font-family="Helvetica,sans-Serif" font-size="9.00">id</text>
</a>
</g>
<g id="a_node1_2"><a xlink:href="/dictionaries/mmcif_pdbx_modeling_extension_all.dic/Items/_atom_site.pdbx_PDB_model_num.html" xlink:title="&lt;TABLE&gt;" target="_top">
<polygon fill="none" stroke="black" points="209.102,-1090.5 209.102,-1110.5 331.102,-1110.5 331.102,-1090.5 209.102,-1090.5"/>
<text text-anchor="start" x="214.102" y="-1098.3" font-family="Helvetica,sans-Serif" font-size="9.00">pdbx_PDB_model_num</text>
</a>
</g>
<g id="a_node1_3"><a xlink:href="/dictionaries/mmcif_pdbx_modeling_extension_all.dic/Items/_atom_site.B_equiv_geom_mean.html" xlink:title="&lt;TABLE&gt;" target="_top">
<polygon fill="none" stroke="black" points="209.102,-1070.5 209.102,-1090.5 331.102,-1090.5 331.102,-1070.5 209.102,-1070.5"/>
<text text-anchor="start" x="214.102" y="-1078.3" font-family="Helvetica,sans-Serif" font-size="9.00">B_equiv_geom_mean</text>
</a>
</g>
<g id="a_node1_4"><a xlink:href="/dictionaries/mmcif_pdbx_modeling_extension_all.dic/Items/_atom_site.B_equiv_geom_mean_esd.html" xlink:title="&lt;TABLE&gt;" target="_top">
<polygon fill="none" stroke="black" points="209.102,-1050.5 209.102,-1070.5 331.102,-1070.5 331.102,-1050.5 209.102,-1050.5"/>
<text text-anchor="start" x="214.102" y="-1058.3" font-family="Helvetica,sans-Serif" font-size="9.00">B_equiv_geom_mean_esd</text>
</a>
</g>
<g id="a_node1_5"><a xlink:href="/dictionaries/mmcif_pdbx_modeling_extension_all.dic/Items/_atom_site.B_iso_or_equiv.html" xlink:title="&lt;TABLE&gt;" target="_top">
<polygon fill="none" stroke="black" points="209.102,-1030.5 209.102,-1050.5 331.102,-1050.5 331.102,-1030.5 209.102,-1030.5"/>
<text text-anchor="start" x="214.102" y="-1038.3" font-family="Helvetica,sans-Serif" font-size="9.00">B_iso_or_equiv</text>
</a>
</g>
<g id="a_node1_6"><a xlink:href="/dictionaries/mmcif_pdbx_modeling_extension_all.dic/Items/_atom_site.B_iso_or_equiv_esd.html" xlink:title="&lt;TABLE&gt;" target="_top">
<polygon fill="none" stroke="black" points="209.102,-1010.5 209.102,-1030.5 331.102,-1030.5 331.102,-1010.5 209.102,-1010.5"/>
<text text-anchor="start" x="214.102" y="-1018.3" font-family="Helvetica,sans-Serif" font-size="9.00">B_iso_or_equiv_esd</text>
</a>
</g>
<g id="a_node1_7"><a xlink:href="/dictionaries/mmcif_pdbx_modeling_extension_all.dic/Items/_atom_site.Cartn_x.html" xlink:title="&lt;TABLE&gt;" target="_top">
<polygon fill="none" stroke="black" points="209.102,-990.5 209.102,-1010.5 331.102,-1010.5 331.102,-990.5 209.102,-990.5"/>
<text text-anchor="start" x="214.102" y="-998.3" font-family="Helvetica,sans-Serif" font-size="9.00">Cartn_x</text>
</a>
</g>
<g id="a_node1_8"><a xlink:href="/dictionaries/mmcif_pdbx_modeling_extension_all.dic/Items/_atom_site.Cartn_x_esd.html" xlink:title="&lt;TABLE&gt;" target="_top">
<polygon fill="none" stroke="black" points="209.102,-970.5 209.102,-990.5 331.102,-990.5 331.102,-970.5 209.102,-970.5"/>
<text text-anchor="start" x="214.102" y="-978.3" font-family="Helvetica,sans-Serif" font-size="9.00">Cartn_x_esd</text>
</a>
</g>
<g id="a_node1_9"><a xlink:href="/dictionaries/mmcif_pdbx_modeling_extension_all.dic/Items/_atom_site.Cartn_y.html" xlink:title="&lt;TABLE&gt;" target="_top">
<polygon fill="none" stroke="black" points="209.102,-950.5 209.102,-970.5 331.102,-970.5 331.102,-950.5 209.102,-950.5"/>
<text text-anchor="start" x="214.102" y="-958.3" font-family="Helvetica,sans-Serif" font-size="9.00">Cartn_y</text>
</a>
</g>
<g id="a_node1_10"><a xlink:href="/dictionaries/mmcif_pdbx_modeling_extension_all.dic/Items/_atom_site.Cartn_y_esd.html" xlink:title="&lt;TABLE&gt;" target="_top">
<polygon fill="none" stroke="black" points="209.102,-930.5 209.102,-950.5 331.102,-950.5 331.102,-930.5 209.102,-930.5"/>
<text text-anchor="start" x="214.102" y="-938.3" font-family="Helvetica,sans-Serif" font-size="9.00">Cartn_y_esd</text>
</a>
</g>
<g id="a_node1_11"><a xlink:href="/dictionaries/mmcif_pdbx_modeling_extension_all.dic/Items/_atom_site.Cartn_z.html" xlink:title="&lt;TABLE&gt;" target="_top">
<polygon fill="none" stroke="black" points="209.102,-910.5 209.102,-930.5 331.102,-930.5 331.102,-910.5 209.102,-910.5"/>
<text text-anchor="start" x="214.102" y="-918.3" font-family="Helvetica,sans-Serif" font-size="9.00">Cartn_z</text>
</a>
</g>
<g id="a_node1_12"><a xlink:href="/dictionaries/mmcif_pdbx_modeling_extension_all.dic/Items/_atom_site.Cartn_z_esd.html" xlink:title="&lt;TABLE&gt;" target="_top">
<polygon fill="none" stroke="black" points="209.102,-890.5 209.102,-910.5 331.102,-910.5 331.102,-890.5 209.102,-890.5"/>
<text text-anchor="start" x="214.102" y="-898.3" font-family="Helvetica,sans-Serif" font-size="9.00">Cartn_z_esd</text>
</a>
</g>
<g id="a_node1_13"><a xlink:href="/dictionaries/mmcif_pdbx_modeling_extension_all.dic/Items/_atom_site.U_equiv_geom_mean.html" xlink:title="&lt;TABLE&gt;" target="_top">
<polygon fill="none" stroke="black" points="209.102,-870.5 209.102,-890.5 331.102,-890.5 331.102,-870.5 209.102,-870.5"/>
<text text-anchor="start" x="214.102" y="-878.3" font-family="Helvetica,sans-Serif" font-size="9.00">U_equiv_geom_mean</text>
</a>
</g>
<g id="a_node1_14"><a xlink:href="/dictionaries/mmcif_pdbx_modeling_extension_all.dic/Items/_atom_site.U_equiv_geom_mean_esd.html" xlink:title="&lt;TABLE&gt;" target="_top">
<polygon fill="none" stroke="black" points="209.102,-850.5 209.102,-870.5 331.102,-870.5 331.102,-850.5 209.102,-850.5"/>
<text text-anchor="start" x="214.102" y="-858.3" font-family="Helvetica,sans-Serif" font-size="9.00">U_equiv_geom_mean_esd</text>
</a>
</g>
<g id="a_node1_15"><a xlink:href="/dictionaries/mmcif_pdbx_modeling_extension_all.dic/Items/_atom_site.U_iso_or_equiv.html" xlink:title="&lt;TABLE&gt;" target="_top">
<polygon fill="none" stroke="black" points="209.102,-830.5 209.102,-850.5 331.102,-850.5 331.102,-830.5 209.102,-830.5"/>
<text text-anchor="start" x="214.102" y="-838.3" font-family="Helvetica,sans-Serif" font-size="9.00">U_iso_or_equiv</text>
</a>
</g>
<g id="a_node1_16"><a xlink:href="/dictionaries/mmcif_pdbx_modeling_extension_all.dic/Items/_atom_site.U_iso_or_equiv_esd.html" xlink:title="&lt;TABLE&gt;" target="_top">
<polygon fill="none" stroke="black" points="209.102,-810.5 209.102,-830.5 331.102,-830.5 331.102,-810.5 209.102,-810.5"/>
<text text-anchor="start" x="214.102" y="-818.3" font-family="Helvetica,sans-Serif" font-size="9.00">U_iso_or_equiv_esd</text>
</a>
</g>
<g id="a_node1_17"><a xlink:href="/dictionaries/mmcif_pdbx_modeling_extension_all.dic/Items/_atom_site.Wyckoff_symbol.html" xlink:title="&lt;TABLE&gt;" target="_top">
<polygon fill="none" stroke="black" points="209.102,-790.5 209.102,-810.5 331.102,-810.5 331.102,-790.5 209.102,-790.5"/>
<text text-anchor="start" x="214.102" y="-798.3" font-family="Helvetica,sans-Serif" font-size="9.00">Wyckoff_symbol</text>
</a>
</g>
<g id="a_node1_18"><a xlink:href="/dictionaries/mmcif_pdbx_modeling_extension_all.dic/Items/_atom_site.adp_type.html" xlink:title="&lt;TABLE&gt;" target="_top">
<polygon fill="none" stroke="black" points="209.102,-770.5 209.102,-790.5 331.102,-790.5 331.102,-770.5 209.102,-770.5"/>
<text text-anchor="start" x="214.102" y="-778.3" font-family="Helvetica,sans-Serif" font-size="9.00">adp_type</text>
</a>
</g>
<g id="a_node1_19"><a xlink:href="/dictionaries/mmcif_pdbx_modeling_extension_all.dic/Items/_atom_site.aniso_B[1][1].html" xlink:title="&lt;TABLE&gt;" target="_top">
<polygon fill="none" stroke="black" points="209.102,-750.5 209.102,-770.5 331.102,-770.5 331.102,-750.5 209.102,-750.5"/>
<text text-anchor="start" x="214.102" y="-758.3" font-family="Helvetica,sans-Serif" font-size="9.00">aniso_B[1][1]</text>
</a>
</g>
<g id="a_node1_20"><a xlink:href="/dictionaries/mmcif_pdbx_modeling_extension_all.dic/Items/_atom_site.aniso_B[1][1]_esd.html" xlink:title="&lt;TABLE&gt;" target="_top">
<polygon fill="none" stroke="black" points="209.102,-730.5 209.102,-750.5 331.102,-750.5 331.102,-730.5 209.102,-730.5"/>
<text text-anchor="start" x="214.102" y="-738.3" font-family="Helvetica,sans-Serif" font-size="9.00">aniso_B[1][1]_esd</text>
</a>
</g>
<polygon fill="none" stroke="black" points="209.102,-714.5 209.102,-730.5 331.102,-730.5 331.102,-714.5 209.102,-714.5"/>
<text text-anchor="start" x="239.102" y="-720.3" font-family="Helvetica,sans-Serif" font-size="9.00">... and others ...</text>
</g>
<!-- _ma_model_list -->
<g id="node2" class="node"><title>_ma_model_list</title>
<g id="a_node2_21"><a xlink:href="/dictionaries/mmcif_pdbx_modeling_extension_all.dic/Categories/ma_model_list.html" xlink:title="&lt;TABLE&gt;" target="_top">
<polygon fill="#f0027f" stroke="none" points="209.102,-649.5 209.102,-670.5 303.102,-670.5 303.102,-649.5 209.102,-649.5"/>
<polygon fill="none" stroke="black" points="209.102,-649.5 209.102,-670.5 303.102,-670.5 303.102,-649.5 209.102,-649.5"/>
<text text-anchor="start" x="215.102" y="-657.5" font-family="Helvetica,sans-Serif" font-size="10.00">MA_MODEL_LIST</text>
</a>
</g>
<g id="a_node2_22"><a xlink:href="/dictionaries/mmcif_pdbx_modeling_extension_all.dic/Items/_ma_model_list.ordinal_id.html" xlink:title="&lt;TABLE&gt;" target="_top">
<polygon fill="#ffff99" stroke="none" points="209.102,-629.5 209.102,-649.5 303.102,-649.5 303.102,-629.5 209.102,-629.5"/>
<polygon fill="none" stroke="black" points="209.102,-629.5 209.102,-649.5 303.102,-649.5 303.102,-629.5 209.102,-629.5"/>
<text text-anchor="start" x="214.102" y="-637.3" font-family="Helvetica,sans-Serif" font-size="9.00">ordinal_id</text>
</a>
</g>
<g id="a_node2_23"><a xlink:href="/dictionaries/mmcif_pdbx_modeling_extension_all.dic/Items/_ma_model_list.assembly_id.html" xlink:title="&lt;TABLE&gt;" target="_top">
<polygon fill="none" stroke="black" points="209.102,-609.5 209.102,-629.5 303.102,-629.5 303.102,-609.5 209.102,-609.5"/>
<text text-anchor="start" x="214.102" y="-617.3" font-family="Helvetica,sans-Serif" font-size="9.00">assembly_id</text>
</a>
</g>
<g id="a_node2_24"><a xlink:href="/dictionaries/mmcif_pdbx_modeling_extension_all.dic/Items/_ma_model_list.model_id.html" xlink:title="&lt;TABLE&gt;" target="_top">
<polygon fill="none" stroke="black" points="209.102,-589.5 209.102,-609.5 303.102,-609.5 303.102,-589.5 209.102,-589.5"/>
<text text-anchor="start" x="214.102" y="-597.3" font-family="Helvetica,sans-Serif" font-size="9.00">model_id</text>
</a>
</g>
<g id="a_node2_25"><a xlink:href="/dictionaries/mmcif_pdbx_modeling_extension_all.dic/Items/_ma_model_list.protocol_id.html" xlink:title="&lt;TABLE&gt;" target="_top">
<polygon fill="none" stroke="black" points="209.102,-569.5 209.102,-589.5 303.102,-589.5 303.102,-569.5 209.102,-569.5"/>
<text text-anchor="start" x="214.102" y="-577.3" font-family="Helvetica,sans-Serif" font-size="9.00">protocol_id</text>
</a>
</g>
<g id="a_node2_26"><a xlink:href="/dictionaries/mmcif_pdbx_modeling_extension_all.dic/Items/_ma_model_list.model_group_id.html" xlink:title="&lt;TABLE&gt;" target="_top">
<polygon fill="none" stroke="black" points="209.102,-549.5 209.102,-569.5 303.102,-569.5 303.102,-549.5 209.102,-549.5"/>
<text text-anchor="start" x="214.102" y="-557.3" font-family="Helvetica,sans-Serif" font-size="9.00">model_group_id</text>
</a>
</g>
<g id="a_node2_27"><a xlink:href="/dictionaries/mmcif_pdbx_modeling_extension_all.dic/Items/_ma_model_list.model_group_name.html" xlink:title="&lt;TABLE&gt;" target="_top">
<polygon fill="none" stroke="black" points="209.102,-529.5 209.102,-549.5 303.102,-549.5 303.102,-529.5 209.102,-529.5"/>
<text text-anchor="start" x="214.102" y="-537.3" font-family="Helvetica,sans-Serif" font-size="9.00">model_group_name</text>
</a>
</g>
<g id="a_node2_28"><a xlink:href="/dictionaries/mmcif_pdbx_modeling_extension_all.dic/Items/_ma_model_list.model_name.html" xlink:title="&lt;TABLE&gt;" target="_top">
<polygon fill="none" stroke="black" points="209.102,-509.5 209.102,-529.5 303.102,-529.5 303.102,-509.5 209.102,-509.5"/>
<text text-anchor="start" x="214.102" y="-517.3" font-family="Helvetica,sans-Serif" font-size="9.00">model_name</text>
</a>
</g>
</g>
<!-- _atom_site&#45;&gt;_ma_model_list -->
<g id="edge1" class="edge"><title>_atom_site:__pdbx_PDB_model_num:w&#45;&gt;_ma_model_list:__model_id:w</title>
<path fill="none" stroke="black" d="M208.102,-1100.5C100.248,-1100.5 96.8771,-630.323 197.99,-600.937"/>
<polygon fill="black" stroke="black" points="198.694,-604.372 208.102,-599.5 197.709,-597.442 198.694,-604.372"/>
</g>
<!-- _ma_protocol_step -->
<g id="node3" class="node"><title>_ma_protocol_step</title>
<g id="a_node3_29"><a xlink:href="/dictionaries/mmcif_pdbx_modeling_extension_all.dic/Categories/ma_protocol_step.html" xlink:title="&lt;TABLE&gt;" target="_top">
<polygon fill="#99c49b" stroke="none" points="132.102,-444.5 132.102,-465.5 250.102,-465.5 250.102,-444.5 132.102,-444.5"/>
<polygon fill="none" stroke="black" points="132.102,-444.5 132.102,-465.5 250.102,-465.5 250.102,-444.5 132.102,-444.5"/>
<text text-anchor="start" x="137.102" y="-452.5" font-family="Helvetica,sans-Serif" font-size="10.00">MA_PROTOCOL_STEP</text>
</a>
</g>
<g id="a_node3_30"><a xlink:href="/dictionaries/mmcif_pdbx_modeling_extension_all.dic/Items/_ma_protocol_step.ordinal_id.html" xlink:title="&lt;TABLE&gt;" target="_top">
<polygon fill="#ffff99" stroke="none" points="132.102,-424.5 132.102,-444.5 250.102,-444.5 250.102,-424.5 132.102,-424.5"/>
<polygon fill="none" stroke="black" points="132.102,-424.5 132.102,-444.5 250.102,-444.5 250.102,-424.5 132.102,-424.5"/>
<text text-anchor="start" x="137.102" y="-432.3" font-family="Helvetica,sans-Serif" font-size="9.00">ordinal_id</text>
</a>
</g>
<g id="a_node3_31"><a xlink:href="/dictionaries/mmcif_pdbx_modeling_extension_all.dic/Items/_ma_protocol_step.protocol_id.html" xlink:title="&lt;TABLE&gt;" target="_top">
<polygon fill="none" stroke="black" points="132.102,-404.5 132.102,-424.5 250.102,-424.5 250.102,-404.5 132.102,-404.5"/>
<text text-anchor="start" x="137.102" y="-412.3" font-family="Helvetica,sans-Serif" font-size="9.00">protocol_id</text>
</a>
</g>
<g id="a_node3_32"><a xlink:href="/dictionaries/mmcif_pdbx_modeling_extension_all.dic/Items/_ma_protocol_step.assembly_id.html" xlink:title="&lt;TABLE&gt;" target="_top">
<polygon fill="none" stroke="black" points="132.102,-384.5 132.102,-404.5 250.102,-404.5 250.102,-384.5 132.102,-384.5"/>
<text text-anchor="start" x="137.102" y="-392.3" font-family="Helvetica,sans-Serif" font-size="9.00">assembly_id</text>
</a>
</g>
<g id="a_node3_33"><a xlink:href="/dictionaries/mmcif_pdbx_modeling_extension_all.dic/Items/_ma_protocol_step.method_type.html" xlink:title="&lt;TABLE&gt;" target="_top">
<polygon fill="none" stroke="black" points="132.102,-364.5 132.102,-384.5 250.102,-384.5 250.102,-364.5 132.102,-364.5"/>
<text text-anchor="start" x="137.102" y="-372.3" font-family="Helvetica,sans-Serif" font-size="9.00">method_type</text>
</a>
</g>
<g id="a_node3_34"><a xlink:href="/dictionaries/mmcif_pdbx_modeling_extension_all.dic/Items/_ma_protocol_step.name.html" xlink:title="&lt;TABLE&gt;" target="_top">
<polygon fill="none" stroke="black" points="132.102,-344.5 132.102,-364.5 250.102,-364.5 250.102,-344.5 132.102,-344.5"/>
<text text-anchor="start" x="137.102" y="-352.3" font-family="Helvetica,sans-Serif" font-size="9.00">name</text>
</a>
</g>
<g id="a_node3_35"><a xlink:href="/dictionaries/mmcif_pdbx_modeling_extension_all.dic/Items/_ma_protocol_step.software_id.html" xlink:title="&lt;TABLE&gt;" target="_top">
<polygon fill="none" stroke="black" points="132.102,-324.5 132.102,-344.5 250.102,-344.5 250.102,-324.5 132.102,-324.5"/>
<text text-anchor="start" x="137.102" y="-332.3" font-family="Helvetica,sans-Serif" font-size="9.00">software_id</text>
</a>
</g>
<g id="a_node3_36"><a xlink:href="/dictionaries/mmcif_pdbx_modeling_extension_all.dic/Items/_ma_protocol_step.step_id.html" xlink:title="&lt;TABLE&gt;" target="_top">
<polygon fill="none" stroke="black" points="132.102,-304.5 132.102,-324.5 250.102,-324.5 250.102,-304.5 132.102,-304.5"/>
<text text-anchor="start" x="137.102" y="-312.3" font-family="Helvetica,sans-Serif" font-size="9.00">step_id</text>
</a>
</g>
</g>
<!-- _ma_model_list&#45;&gt;_ma_protocol_step -->
<g id="edge3" class="edge"><title>_ma_model_list:__protocol_id:w&#45;&gt;_ma_protocol_step:__protocol_id:w</title>
<path fill="none" stroke="black" d="M208.102,-579.5C130.811,-579.5 57.102,-428.991 121.138,-415.469"/>
<polygon fill="black" stroke="black" points="121.487,-418.952 131.102,-414.5 120.81,-411.984 121.487,-418.952"/>
</g>
<!-- _ma_struct_assembly -->
<g id="node4" class="node"><title>_ma_struct_assembly</title>
<g id="a_node4_37"><a xlink:href="/dictionaries/mmcif_pdbx_modeling_extension_all.dic/Categories/ma_struct_assembly.html" xlink:title="&lt;TABLE&gt;" target="_top">
<polygon fill="#99c49b" stroke="none" points="209.102,-239.5 209.102,-260.5 340.102,-260.5 340.102,-239.5 209.102,-239.5"/>
<polygon fill="none" stroke="black" points="209.102,-239.5 209.102,-260.5 340.102,-260.5 340.102,-239.5 209.102,-239.5"/>
<text text-anchor="start" x="214.102" y="-247.5" font-family="Helvetica,sans-Serif" font-size="10.00">MA_STRUCT_ASSEMBLY</text>
</a>
</g>
<g id="a_node4_38"><a xlink:href="/dictionaries/mmcif_pdbx_modeling_extension_all.dic/Items/_ma_struct_assembly.ordinal_id.html" xlink:title="&lt;TABLE&gt;" target="_top">
<polygon fill="#ffff99" stroke="none" points="209.102,-219.5 209.102,-239.5 340.102,-239.5 340.102,-219.5 209.102,-219.5"/>
<polygon fill="none" stroke="black" points="209.102,-219.5 209.102,-239.5 340.102,-239.5 340.102,-219.5 209.102,-219.5"/>
<text text-anchor="start" x="214.102" y="-227.3" font-family="Helvetica,sans-Serif" font-size="9.00">ordinal_id</text>
</a>
</g>
<g id="a_node4_39"><a xlink:href="/dictionaries/mmcif_pdbx_modeling_extension_all.dic/Items/_ma_struct_assembly.assembly_id.html" xlink:title="&lt;TABLE&gt;" target="_top">
<polygon fill="none" stroke="black" points="209.102,-199.5 209.102,-219.5 340.102,-219.5 340.102,-199.5 209.102,-199.5"/>
<text text-anchor="start" x="214.102" y="-207.3" font-family="Helvetica,sans-Serif" font-size="9.00">assembly_id</text>
</a>
</g>
<g id="a_node4_40"><a xlink:href="/dictionaries/mmcif_pdbx_modeling_extension_all.dic/Items/_ma_struct_assembly.asym_id.html" xlink:title="&lt;TABLE&gt;" target="_top">
<polygon fill="none" stroke="black" points="209.102,-179.5 209.102,-199.5 340.102,-199.5 340.102,-179.5 209.102,-179.5"/>
<text text-anchor="start" x="214.102" y="-187.3" font-family="Helvetica,sans-Serif" font-size="9.00">asym_id</text>
</a>
</g>
<g id="a_node4_41"><a xlink:href="/dictionaries/mmcif_pdbx_modeling_extension_all.dic/Items/_ma_struct_assembly.entity_description.html" xlink:title="&lt;TABLE&gt;" target="_top">
<polygon fill="none" stroke="black" points="209.102,-159.5 209.102,-179.5 340.102,-179.5 340.102,-159.5 209.102,-159.5"/>
<text text-anchor="start" x="214.102" y="-167.3" font-family="Helvetica,sans-Serif" font-size="9.00">entity_description</text>
</a>
</g>
<g id="a_node4_42"><a xlink:href="/dictionaries/mmcif_pdbx_modeling_extension_all.dic/Items/_ma_struct_assembly.entity_id.html" xlink:title="&lt;TABLE&gt;" target="_top">
<polygon fill="none" stroke="black" points="209.102,-139.5 209.102,-159.5 340.102,-159.5 340.102,-139.5 209.102,-139.5"/>
<text text-anchor="start" x="214.102" y="-147.3" font-family="Helvetica,sans-Serif" font-size="9.00">entity_id</text>
</a>
</g>
<g id="a_node4_43"><a xlink:href="/dictionaries/mmcif_pdbx_modeling_extension_all.dic/Items/_ma_struct_assembly.parent_assembly_id.html" xlink:title="&lt;TABLE&gt;" target="_top">
<polygon fill="none" stroke="black" points="209.102,-119.5 209.102,-139.5 340.102,-139.5 340.102,-119.5 209.102,-119.5"/>
<text text-anchor="start" x="214.102" y="-127.3" font-family="Helvetica,sans-Serif" font-size="9.00">parent_assembly_id</text>
</a>
</g>
<g id="a_node4_44"><a xlink:href="/dictionaries/mmcif_pdbx_modeling_extension_all.dic/Items/_ma_struct_assembly.seq_id_begin.html" xlink:title="&lt;TABLE&gt;" target="_top">
<polygon fill="none" stroke="black" points="209.102,-99.5 209.102,-119.5 340.102,-119.5 340.102,-99.5 209.102,-99.5"/>
<text text-anchor="start" x="214.102" y="-107.3" font-family="Helvetica,sans-Serif" font-size="9.00">seq_id_begin</text>
</a>
</g>
<g id="a_node4_45"><a xlink:href="/dictionaries/mmcif_pdbx_modeling_extension_all.dic/Items/_ma_struct_assembly.seq_id_end.html" xlink:title="&lt;TABLE&gt;" target="_top">
<polygon fill="none" stroke="black" points="209.102,-79.5 209.102,-99.5 340.102,-99.5 340.102,-79.5 209.102,-79.5"/>
<text text-anchor="start" x="214.102" y="-87.3" font-family="Helvetica,sans-Serif" font-size="9.00">seq_id_end</text>
</a>
</g>
</g>
<!-- _ma_model_list&#45;&gt;_ma_struct_assembly -->
<g id="edge2" class="edge"><title>_ma_model_list:__assembly_id:w&#45;&gt;_ma_struct_assembly:__assembly_id:w</title>
<path fill="none" stroke="black" d="M208.102,-619.5C157.655,-619.5 184.384,-549.976 209.102,-506 223.967,-479.552 252.353,-496.513 267.102,-470 303.615,-404.361 303.615,-366.639 267.102,-301 252.353,-274.487 224.089,-291.38 209.102,-265 199.105,-247.404 188.235,-221.33 198.27,-212.527"/>
<polygon fill="black" stroke="black" points="199.574,-215.788 208.102,-209.5 197.514,-209.098 199.574,-215.788"/>
</g>
<!-- _ma_protocol_step&#45;&gt;_ma_struct_assembly -->
<g id="edge4" class="edge"><title>_ma_protocol_step:__assembly_id:w&#45;&gt;_ma_struct_assembly:__assembly_id:w</title>
<path fill="none" stroke="black" d="M131.102,-394.5C89.5437,-394.5 117.777,-340.011 132.102,-301 149.078,-254.767 154.503,-215.261 197.913,-210.076"/>
<polygon fill="black" stroke="black" points="198.315,-213.559 208.102,-209.5 197.92,-206.57 198.315,-213.559"/>
</g>
<!-- _ma_struct_assembly&#45;&gt;_ma_struct_assembly -->
<g id="edge5" class="edge"><title>_ma_struct_assembly:__parent_assembly_id:e&#45;&gt;_ma_struct_assembly:__assembly_id:e</title>
<path fill="none" stroke="black" d="M340.102,-129.5C353.602,-76 365.602,-76 365.602,-169.5 365.602,-256.974 355.099,-262.612 342.691,-219.167"/>
<polygon fill="black" stroke="black" points="346.069,-218.254 340.102,-209.5 339.308,-220.065 346.069,-218.254"/>
</g>
</g>
</svg>
