<?xml version="1.0" encoding="UTF-8" standalone="no"?>
<!DOCTYPE svg PUBLIC "-//W3C//DTD SVG 1.1//EN"
 "http://www.w3.org/Graphics/SVG/1.1/DTD/svg11.dtd">
<!-- Generated by graphviz version 2.38.0 (20140413.2041)
 -->
<!-- Title: ma_protocol_step Pages: 1 -->
<svg width="515pt" height="763pt"
 viewBox="0.00 0.00 515.00 763.00" xmlns="http://www.w3.org/2000/svg" xmlns:xlink="http://www.w3.org/1999/xlink">
<g id="graph0" class="graph" transform="scale(1 1) rotate(0) translate(4 759)">
<title>ma_protocol_step</title>
<polygon fill="white" stroke="none" points="-4,4 -4,-759 511,-759 511,4 -4,4"/>
<text text-anchor="start" x="250.5" y="-58.6" font-family="Helvetica,sans-Serif" font-size="18.00"> </text>
<text text-anchor="start" x="250.5" y="-40.6" font-family="Helvetica,sans-Serif" font-size="18.00"> </text>
<text text-anchor="start" x="8" y="-22.6" font-family="Helvetica,sans-Serif" font-size="18.00"> Category Relationship Diagram for </text>
<text text-anchor="start" x="291" y="-22.6" font-family="Helvetica,sans-Serif" font-weight="bold" font-size="18.00">MA_PROTOCOL_STEP</text>
<text text-anchor="start" x="489" y="-22.6" font-family="Helvetica,sans-Serif" font-size="18.00"> </text>
<text text-anchor="start" x="495" y="-22.6" font-family="Helvetica,sans-Serif" font-size="14.00"> </text>
<text text-anchor="start" x="119.5" y="-7.8" font-family="Helvetica,sans-Serif" font-size="14.00"> &#160;in dictionary mmcif_pdbx.dic version 5.280 </text>
<!-- _entity_poly_seq -->
<g id="node1" class="node"><title>_entity_poly_seq</title>
<g id="a_node1_0"><a xlink:href="/dictionaries/mmcif_modeling_v10.unix_1.04.dic/Categories/entity_poly_seq.html" xlink:title="&lt;TABLE&gt;" target="_top">
<polygon fill="#99c49b" stroke="none" points="89.7889,-249.5 89.7889,-270.5 193.789,-270.5 193.789,-249.5 89.7889,-249.5"/>
<polygon fill="none" stroke="black" points="89.7889,-249.5 89.7889,-270.5 193.789,-270.5 193.789,-249.5 89.7889,-249.5"/>
<text text-anchor="start" x="94.7889" y="-257.5" font-family="Helvetica,sans-Serif" font-size="10.00">ENTITY_POLY_SEQ</text>
</a>
</g>
<g id="a_node1_1"><a xlink:href="/dictionaries/mmcif_modeling_v10.unix_1.04.dic/Items/_entity_poly_seq.entity_id.html" xlink:title="&lt;TABLE&gt;" target="_top">
<polygon fill="#ffff99" stroke="none" points="89.7889,-229.5 89.7889,-249.5 193.789,-249.5 193.789,-229.5 89.7889,-229.5"/>
<polygon fill="none" stroke="black" points="89.7889,-229.5 89.7889,-249.5 193.789,-249.5 193.789,-229.5 89.7889,-229.5"/>
<text text-anchor="start" x="94.7889" y="-237.3" font-family="Helvetica,sans-Serif" font-size="9.00">entity_id</text>
</a>
</g>
<g id="a_node1_2"><a xlink:href="/dictionaries/mmcif_modeling_v10.unix_1.04.dic/Items/_entity_poly_seq.mon_id.html" xlink:title="&lt;TABLE&gt;" target="_top">
<polygon fill="#ffff99" stroke="none" points="89.7889,-209.5 89.7889,-229.5 193.789,-229.5 193.789,-209.5 89.7889,-209.5"/>
<polygon fill="none" stroke="black" points="89.7889,-209.5 89.7889,-229.5 193.789,-229.5 193.789,-209.5 89.7889,-209.5"/>
<text text-anchor="start" x="94.7889" y="-217.3" font-family="Helvetica,sans-Serif" font-size="9.00">mon_id</text>
</a>
</g>
<g id="a_node1_3"><a xlink:href="/dictionaries/mmcif_modeling_v10.unix_1.04.dic/Items/_entity_poly_seq.num.html" xlink:title="&lt;TABLE&gt;" target="_top">
<polygon fill="#ffff99" stroke="none" points="89.7889,-189.5 89.7889,-209.5 193.789,-209.5 193.789,-189.5 89.7889,-189.5"/>
<polygon fill="none" stroke="black" points="89.7889,-189.5 89.7889,-209.5 193.789,-209.5 193.789,-189.5 89.7889,-189.5"/>
<text text-anchor="start" x="94.7889" y="-197.3" font-family="Helvetica,sans-Serif" font-size="9.00">num</text>
</a>
</g>
<g id="a_node1_4"><a xlink:href="/dictionaries/mmcif_modeling_v10.unix_1.04.dic/Items/_entity_poly_seq.hetero.html" xlink:title="&lt;TABLE&gt;" target="_top">
<polygon fill="none" stroke="black" points="89.7889,-169.5 89.7889,-189.5 193.789,-189.5 193.789,-169.5 89.7889,-169.5"/>
<text text-anchor="start" x="94.7889" y="-177.3" font-family="Helvetica,sans-Serif" font-size="9.00">hetero</text>
</a>
</g>
</g>
<!-- _ma_protocol_step -->
<g id="node2" class="node"><title>_ma_protocol_step</title>
<g id="a_node2_5"><a xlink:href="/dictionaries/mmcif_modeling_v10.unix_1.04.dic/Categories/ma_protocol_step.html" xlink:title="&lt;TABLE&gt;" target="_top">
<polygon fill="#f0027f" stroke="none" points="158.789,-564.5 158.789,-585.5 276.789,-585.5 276.789,-564.5 158.789,-564.5"/>
<polygon fill="none" stroke="black" points="158.789,-564.5 158.789,-585.5 276.789,-585.5 276.789,-564.5 158.789,-564.5"/>
<text text-anchor="start" x="163.789" y="-572.5" font-family="Helvetica,sans-Serif" font-size="10.00">MA_PROTOCOL_STEP</text>
</a>
</g>
<g id="a_node2_6"><a xlink:href="/dictionaries/mmcif_modeling_v10.unix_1.04.dic/Items/_ma_protocol_step.ordinal_id.html" xlink:title="&lt;TABLE&gt;" target="_top">
<polygon fill="#ffff99" stroke="none" points="158.789,-544.5 158.789,-564.5 276.789,-564.5 276.789,-544.5 158.789,-544.5"/>
<polygon fill="none" stroke="black" points="158.789,-544.5 158.789,-564.5 276.789,-564.5 276.789,-544.5 158.789,-544.5"/>
<text text-anchor="start" x="163.789" y="-552.3" font-family="Helvetica,sans-Serif" font-size="9.00">ordinal_id</text>
</a>
</g>
<g id="a_node2_7"><a xlink:href="/dictionaries/mmcif_modeling_v10.unix_1.04.dic/Items/_ma_protocol_step.asym_id.html" xlink:title="&lt;TABLE&gt;" target="_top">
<polygon fill="none" stroke="black" points="158.789,-524.5 158.789,-544.5 276.789,-544.5 276.789,-524.5 158.789,-524.5"/>
<text text-anchor="start" x="163.789" y="-532.3" font-family="Helvetica,sans-Serif" font-size="9.00">asym_id</text>
</a>
</g>
<g id="a_node2_8"><a xlink:href="/dictionaries/mmcif_modeling_v10.unix_1.04.dic/Items/_ma_protocol_step.entity_id.html" xlink:title="&lt;TABLE&gt;" target="_top">
<polygon fill="none" stroke="black" points="158.789,-504.5 158.789,-524.5 276.789,-524.5 276.789,-504.5 158.789,-504.5"/>
<text text-anchor="start" x="163.789" y="-512.3" font-family="Helvetica,sans-Serif" font-size="9.00">entity_id</text>
</a>
</g>
<g id="a_node2_9"><a xlink:href="/dictionaries/mmcif_modeling_v10.unix_1.04.dic/Items/_ma_protocol_step.protocol_id.html" xlink:title="&lt;TABLE&gt;" target="_top">
<polygon fill="none" stroke="black" points="158.789,-484.5 158.789,-504.5 276.789,-504.5 276.789,-484.5 158.789,-484.5"/>
<text text-anchor="start" x="163.789" y="-492.3" font-family="Helvetica,sans-Serif" font-size="9.00">protocol_id</text>
</a>
</g>
<g id="a_node2_10"><a xlink:href="/dictionaries/mmcif_modeling_v10.unix_1.04.dic/Items/_ma_protocol_step.step_id.html" xlink:title="&lt;TABLE&gt;" target="_top">
<polygon fill="none" stroke="black" points="158.789,-464.5 158.789,-484.5 276.789,-484.5 276.789,-464.5 158.789,-464.5"/>
<text text-anchor="start" x="163.789" y="-472.3" font-family="Helvetica,sans-Serif" font-size="9.00">step_id</text>
</a>
</g>
<g id="a_node2_11"><a xlink:href="/dictionaries/mmcif_modeling_v10.unix_1.04.dic/Items/_ma_protocol_step.method_type.html" xlink:title="&lt;TABLE&gt;" target="_top">
<polygon fill="none" stroke="black" points="158.789,-444.5 158.789,-464.5 276.789,-464.5 276.789,-444.5 158.789,-444.5"/>
<text text-anchor="start" x="163.789" y="-452.3" font-family="Helvetica,sans-Serif" font-size="9.00">method_type</text>
</a>
</g>
<g id="a_node2_12"><a xlink:href="/dictionaries/mmcif_modeling_v10.unix_1.04.dic/Items/_ma_protocol_step.name.html" xlink:title="&lt;TABLE&gt;" target="_top">
<polygon fill="none" stroke="black" points="158.789,-424.5 158.789,-444.5 276.789,-444.5 276.789,-424.5 158.789,-424.5"/>
<text text-anchor="start" x="163.789" y="-432.3" font-family="Helvetica,sans-Serif" font-size="9.00">name</text>
</a>
</g>
<g id="a_node2_13"><a xlink:href="/dictionaries/mmcif_modeling_v10.unix_1.04.dic/Items/_ma_protocol_step.software_used.html" xlink:title="&lt;TABLE&gt;" target="_top">
<polygon fill="none" stroke="black" points="158.789,-404.5 158.789,-424.5 276.789,-424.5 276.789,-404.5 158.789,-404.5"/>
<text text-anchor="start" x="163.789" y="-412.3" font-family="Helvetica,sans-Serif" font-size="9.00">software_used</text>
</a>
</g>
</g>
<!-- _ma_protocol_step&#45;&gt;_entity_poly_seq -->
<g id="edge1" class="edge"><title>_ma_protocol_step:__entity_id:w&#45;&gt;_entity_poly_seq:__entity_id:w</title>
<path fill="none" stroke="black" d="M157.789,-514.5C98.4752,-514.5 33.8488,-270.782 79.0455,-242.222"/>
<polygon fill="black" stroke="black" points="80.0993,-245.561 88.7889,-239.5 78.2159,-238.82 80.0993,-245.561"/>
</g>
<!-- _struct_asym -->
<g id="node5" class="node"><title>_struct_asym</title>
<g id="a_node5_14"><a xlink:href="/dictionaries/mmcif_modeling_v10.unix_1.04.dic/Categories/struct_asym.html" xlink:title="&lt;TABLE&gt;" target="_top">
<polygon fill="#99c49b" stroke="none" points="227.789,-339.5 227.789,-360.5 451.789,-360.5 451.789,-339.5 227.789,-339.5"/>
<polygon fill="none" stroke="black" points="227.789,-339.5 227.789,-360.5 451.789,-360.5 451.789,-339.5 227.789,-339.5"/>
<text text-anchor="start" x="301.789" y="-347.5" font-family="Helvetica,sans-Serif" font-size="10.00">STRUCT_ASYM</text>
</a>
</g>
<g id="a_node5_15"><a xlink:href="/dictionaries/mmcif_modeling_v10.unix_1.04.dic/Items/_struct_asym.id.html" xlink:title="&lt;TABLE&gt;" target="_top">
<polygon fill="#ffff99" stroke="none" points="227.789,-319.5 227.789,-339.5 451.789,-339.5 451.789,-319.5 227.789,-319.5"/>
<polygon fill="none" stroke="black" points="227.789,-319.5 227.789,-339.5 451.789,-339.5 451.789,-319.5 227.789,-319.5"/>
<text text-anchor="start" x="232.789" y="-327.3" font-family="Helvetica,sans-Serif" font-size="9.00">id</text>
</a>
</g>
<g id="a_node5_16"><a xlink:href="/dictionaries/mmcif_modeling_v10.unix_1.04.dic/Items/_struct_asym.details.html" xlink:title="&lt;TABLE&gt;" target="_top">
<polygon fill="none" stroke="black" points="227.789,-299.5 227.789,-319.5 451.789,-319.5 451.789,-299.5 227.789,-299.5"/>
<text text-anchor="start" x="232.789" y="-307.3" font-family="Helvetica,sans-Serif" font-size="9.00">details</text>
</a>
</g>
<g id="a_node5_17"><a xlink:href="/dictionaries/mmcif_modeling_v10.unix_1.04.dic/Items/_struct_asym.entity_id.html" xlink:title="&lt;TABLE&gt;" target="_top">
<polygon fill="none" stroke="black" points="227.789,-279.5 227.789,-299.5 451.789,-299.5 451.789,-279.5 227.789,-279.5"/>
<text text-anchor="start" x="232.789" y="-287.3" font-family="Helvetica,sans-Serif" font-size="9.00">entity_id</text>
</a>
</g>
<g id="a_node5_18"><a xlink:href="/dictionaries/mmcif_modeling_v10.unix_1.04.dic/Items/_struct_asym.pdbx_PDB_id.html" xlink:title="&lt;TABLE&gt;" target="_top">
<polygon fill="none" stroke="black" points="227.789,-259.5 227.789,-279.5 451.789,-279.5 451.789,-259.5 227.789,-259.5"/>
<text text-anchor="start" x="232.789" y="-267.3" font-family="Helvetica,sans-Serif" font-size="9.00">pdbx_PDB_id</text>
</a>
</g>
<g id="a_node5_19"><a xlink:href="/dictionaries/mmcif_modeling_v10.unix_1.04.dic/Items/_struct_asym.pdbx_alt_id.html" xlink:title="&lt;TABLE&gt;" target="_top">
<polygon fill="none" stroke="black" points="227.789,-239.5 227.789,-259.5 451.789,-259.5 451.789,-239.5 227.789,-239.5"/>
<text text-anchor="start" x="232.789" y="-247.3" font-family="Helvetica,sans-Serif" font-size="9.00">pdbx_alt_id</text>
</a>
</g>
<g id="a_node5_20"><a xlink:href="/dictionaries/mmcif_modeling_v10.unix_1.04.dic/Items/_struct_asym.pdbx_blank_PDB_chainid_flag.html" xlink:title="&lt;TABLE&gt;" target="_top">
<polygon fill="none" stroke="black" points="227.789,-219.5 227.789,-239.5 451.789,-239.5 451.789,-219.5 227.789,-219.5"/>
<text text-anchor="start" x="232.789" y="-227.3" font-family="Helvetica,sans-Serif" font-size="9.00">pdbx_blank_PDB_chainid_flag</text>
</a>
</g>
<g id="a_node5_21"><a xlink:href="/dictionaries/mmcif_modeling_v10.unix_1.04.dic/Items/_struct_asym.pdbx_fraction_per_asym_unit.html" xlink:title="&lt;TABLE&gt;" target="_top">
<polygon fill="none" stroke="black" points="227.789,-199.5 227.789,-219.5 451.789,-219.5 451.789,-199.5 227.789,-199.5"/>
<text text-anchor="start" x="232.789" y="-207.3" font-family="Helvetica,sans-Serif" font-size="9.00">pdbx_fraction_per_asym_unit</text>
</a>
</g>
<g id="a_node5_22"><a xlink:href="/dictionaries/mmcif_modeling_v10.unix_1.04.dic/Items/_struct_asym.pdbx_missing_num_begin_of_chain_in_seqres.html" xlink:title="&lt;TABLE&gt;" target="_top">
<polygon fill="none" stroke="black" points="227.789,-179.5 227.789,-199.5 451.789,-199.5 451.789,-179.5 227.789,-179.5"/>
<text text-anchor="start" x="232.789" y="-187.3" font-family="Helvetica,sans-Serif" font-size="9.00">pdbx_missing_num_begin_of_chain_in_seqres</text>
</a>
</g>
<g id="a_node5_23"><a xlink:href="/dictionaries/mmcif_modeling_v10.unix_1.04.dic/Items/_struct_asym.pdbx_missing_num_begin_of_chain_not_in_seqres.html" xlink:title="&lt;TABLE&gt;" target="_top">
<polygon fill="none" stroke="black" points="227.789,-159.5 227.789,-179.5 451.789,-179.5 451.789,-159.5 227.789,-159.5"/>
<text text-anchor="start" x="232.789" y="-167.3" font-family="Helvetica,sans-Serif" font-size="9.00">pdbx_missing_num_begin_of_chain_not_in_seqres</text>
</a>
</g>
<g id="a_node5_24"><a xlink:href="/dictionaries/mmcif_modeling_v10.unix_1.04.dic/Items/_struct_asym.pdbx_missing_num_end_of_chain_not_in_seqres.html" xlink:title="&lt;TABLE&gt;" target="_top">
<polygon fill="none" stroke="black" points="227.789,-139.5 227.789,-159.5 451.789,-159.5 451.789,-139.5 227.789,-139.5"/>
<text text-anchor="start" x="232.789" y="-147.3" font-family="Helvetica,sans-Serif" font-size="9.00">pdbx_missing_num_end_of_chain_not_in_seqres</text>
</a>
</g>
<g id="a_node5_25"><a xlink:href="/dictionaries/mmcif_modeling_v10.unix_1.04.dic/Items/_struct_asym.pdbx_modified.html" xlink:title="&lt;TABLE&gt;" target="_top">
<polygon fill="none" stroke="black" points="227.789,-119.5 227.789,-139.5 451.789,-139.5 451.789,-119.5 227.789,-119.5"/>
<text text-anchor="start" x="232.789" y="-127.3" font-family="Helvetica,sans-Serif" font-size="9.00">pdbx_modified</text>
</a>
</g>
<g id="a_node5_26"><a xlink:href="/dictionaries/mmcif_modeling_v10.unix_1.04.dic/Items/_struct_asym.pdbx_order.html" xlink:title="&lt;TABLE&gt;" target="_top">
<polygon fill="none" stroke="black" points="227.789,-99.5 227.789,-119.5 451.789,-119.5 451.789,-99.5 227.789,-99.5"/>
<text text-anchor="start" x="232.789" y="-107.3" font-family="Helvetica,sans-Serif" font-size="9.00">pdbx_order</text>
</a>
</g>
<g id="a_node5_27"><a xlink:href="/dictionaries/mmcif_modeling_v10.unix_1.04.dic/Items/_struct_asym.pdbx_type.html" xlink:title="&lt;TABLE&gt;" target="_top">
<polygon fill="none" stroke="black" points="227.789,-79.5 227.789,-99.5 451.789,-99.5 451.789,-79.5 227.789,-79.5"/>
<text text-anchor="start" x="232.789" y="-87.3" font-family="Helvetica,sans-Serif" font-size="9.00">pdbx_type</text>
</a>
</g>
</g>
<!-- _ma_protocol_step&#45;&gt;_struct_asym -->
<g id="edge2" class="edge"><title>_ma_protocol_step:__asym_id:w&#45;&gt;_struct_asym:__id:w</title>
<path fill="none" stroke="black" d="M157.789,-534.5C98.4539,-534.5 131.054,-453.454 158.789,-401 171.928,-376.151 192.802,-386.601 210.789,-365 218.575,-355.649 214.766,-341.897 217.834,-334.556"/>
<polygon fill="black" stroke="black" points="219.802,-337.465 226.789,-329.5 216.36,-331.369 219.802,-337.465"/>
</g>
<!-- _ma_step_input -->
<g id="node3" class="node"><title>_ma_step_input</title>
<g id="a_node3_28"><a xlink:href="/dictionaries/mmcif_modeling_v10.unix_1.04.dic/Categories/ma_step_input.html" xlink:title="&lt;TABLE&gt;" target="_top">
<polygon fill="#99c49b" stroke="none" points="95.7889,-729.5 95.7889,-750.5 188.789,-750.5 188.789,-729.5 95.7889,-729.5"/>
<polygon fill="none" stroke="black" points="95.7889,-729.5 95.7889,-750.5 188.789,-750.5 188.789,-729.5 95.7889,-729.5"/>
<text text-anchor="start" x="100.789" y="-737.5" font-family="Helvetica,sans-Serif" font-size="10.00">MA_STEP_INPUT</text>
</a>
</g>
<g id="a_node3_29"><a xlink:href="/dictionaries/mmcif_modeling_v10.unix_1.04.dic/Items/_ma_step_input.id.html" xlink:title="&lt;TABLE&gt;" target="_top">
<polygon fill="#ffff99" stroke="none" points="95.7889,-709.5 95.7889,-729.5 188.789,-729.5 188.789,-709.5 95.7889,-709.5"/>
<polygon fill="none" stroke="black" points="95.7889,-709.5 95.7889,-729.5 188.789,-729.5 188.789,-709.5 95.7889,-709.5"/>
<text text-anchor="start" x="100.789" y="-717.3" font-family="Helvetica,sans-Serif" font-size="9.00">id</text>
</a>
</g>
<g id="a_node3_30"><a xlink:href="/dictionaries/mmcif_modeling_v10.unix_1.04.dic/Items/_ma_step_input.protocol_id.html" xlink:title="&lt;TABLE&gt;" target="_top">
<polygon fill="none" stroke="black" points="95.7889,-689.5 95.7889,-709.5 188.789,-709.5 188.789,-689.5 95.7889,-689.5"/>
<text text-anchor="start" x="100.789" y="-697.3" font-family="Helvetica,sans-Serif" font-size="9.00">protocol_id</text>
</a>
</g>
<g id="a_node3_31"><a xlink:href="/dictionaries/mmcif_modeling_v10.unix_1.04.dic/Items/_ma_step_input.step_id.html" xlink:title="&lt;TABLE&gt;" target="_top">
<polygon fill="none" stroke="black" points="95.7889,-669.5 95.7889,-689.5 188.789,-689.5 188.789,-669.5 95.7889,-669.5"/>
<text text-anchor="start" x="100.789" y="-677.3" font-family="Helvetica,sans-Serif" font-size="9.00">step_id</text>
</a>
</g>
<g id="a_node3_32"><a xlink:href="/dictionaries/mmcif_modeling_v10.unix_1.04.dic/Items/_ma_step_input.content_sub_type.html" xlink:title="&lt;TABLE&gt;" target="_top">
<polygon fill="none" stroke="black" points="95.7889,-649.5 95.7889,-669.5 188.789,-669.5 188.789,-649.5 95.7889,-649.5"/>
<text text-anchor="start" x="100.789" y="-657.3" font-family="Helvetica,sans-Serif" font-size="9.00">content_sub_type</text>
</a>
</g>
<g id="a_node3_33"><a xlink:href="/dictionaries/mmcif_modeling_v10.unix_1.04.dic/Items/_ma_step_input.data_id.html" xlink:title="&lt;TABLE&gt;" target="_top">
<polygon fill="none" stroke="black" points="95.7889,-629.5 95.7889,-649.5 188.789,-649.5 188.789,-629.5 95.7889,-629.5"/>
<text text-anchor="start" x="100.789" y="-637.3" font-family="Helvetica,sans-Serif" font-size="9.00">data_id</text>
</a>
</g>
</g>
<!-- _ma_step_input&#45;&gt;_ma_protocol_step -->
<g id="edge3" class="edge"><title>_ma_step_input:__protocol_id:w&#45;&gt;_ma_protocol_step:__protocol_id:w</title>
<path fill="none" stroke="black" d="M94.7889,-699.5C2.91641,-699.5 58.1263,-509.047 147.589,-495.284"/>
<polygon fill="black" stroke="black" points="148.086,-498.756 157.789,-494.5 147.55,-491.776 148.086,-498.756"/>
</g>
<!-- _ma_step_input&#45;&gt;_ma_protocol_step -->
<g id="edge5" class="edge"><title>_ma_step_input:__step_id:w&#45;&gt;_ma_protocol_step:__step_id:w</title>
<path fill="none" stroke="black" d="M94.7889,-679.5C2.91641,-679.5 58.1263,-489.047 147.589,-475.284"/>
<polygon fill="black" stroke="black" points="148.086,-478.756 157.789,-474.5 147.55,-471.776 148.086,-478.756"/>
</g>
<!-- _ma_step_output -->
<g id="node4" class="node"><title>_ma_step_output</title>
<g id="a_node4_34"><a xlink:href="/dictionaries/mmcif_modeling_v10.unix_1.04.dic/Categories/ma_step_output.html" xlink:title="&lt;TABLE&gt;" target="_top">
<polygon fill="#99c49b" stroke="none" points="222.789,-729.5 222.789,-750.5 326.789,-750.5 326.789,-729.5 222.789,-729.5"/>
<polygon fill="none" stroke="black" points="222.789,-729.5 222.789,-750.5 326.789,-750.5 326.789,-729.5 222.789,-729.5"/>
<text text-anchor="start" x="227.789" y="-737.5" font-family="Helvetica,sans-Serif" font-size="10.00">MA_STEP_OUTPUT</text>
</a>
</g>
<g id="a_node4_35"><a xlink:href="/dictionaries/mmcif_modeling_v10.unix_1.04.dic/Items/_ma_step_output.id.html" xlink:title="&lt;TABLE&gt;" target="_top">
<polygon fill="#ffff99" stroke="none" points="222.789,-709.5 222.789,-729.5 326.789,-729.5 326.789,-709.5 222.789,-709.5"/>
<polygon fill="none" stroke="black" points="222.789,-709.5 222.789,-729.5 326.789,-729.5 326.789,-709.5 222.789,-709.5"/>
<text text-anchor="start" x="227.789" y="-717.3" font-family="Helvetica,sans-Serif" font-size="9.00">id</text>
</a>
</g>
<g id="a_node4_36"><a xlink:href="/dictionaries/mmcif_modeling_v10.unix_1.04.dic/Items/_ma_step_output.protocol_id.html" xlink:title="&lt;TABLE&gt;" target="_top">
<polygon fill="none" stroke="black" points="222.789,-689.5 222.789,-709.5 326.789,-709.5 326.789,-689.5 222.789,-689.5"/>
<text text-anchor="start" x="227.789" y="-697.3" font-family="Helvetica,sans-Serif" font-size="9.00">protocol_id</text>
</a>
</g>
<g id="a_node4_37"><a xlink:href="/dictionaries/mmcif_modeling_v10.unix_1.04.dic/Items/_ma_step_output.step_id.html" xlink:title="&lt;TABLE&gt;" target="_top">
<polygon fill="none" stroke="black" points="222.789,-669.5 222.789,-689.5 326.789,-689.5 326.789,-669.5 222.789,-669.5"/>
<text text-anchor="start" x="227.789" y="-677.3" font-family="Helvetica,sans-Serif" font-size="9.00">step_id</text>
</a>
</g>
<g id="a_node4_38"><a xlink:href="/dictionaries/mmcif_modeling_v10.unix_1.04.dic/Items/_ma_step_output.content_sub_type.html" xlink:title="&lt;TABLE&gt;" target="_top">
<polygon fill="none" stroke="black" points="222.789,-649.5 222.789,-669.5 326.789,-669.5 326.789,-649.5 222.789,-649.5"/>
<text text-anchor="start" x="227.789" y="-657.3" font-family="Helvetica,sans-Serif" font-size="9.00">content_sub_type</text>
</a>
</g>
<g id="a_node4_39"><a xlink:href="/dictionaries/mmcif_modeling_v10.unix_1.04.dic/Items/_ma_step_output.data_id.html" xlink:title="&lt;TABLE&gt;" target="_top">
<polygon fill="none" stroke="black" points="222.789,-629.5 222.789,-649.5 326.789,-649.5 326.789,-629.5 222.789,-629.5"/>
<text text-anchor="start" x="227.789" y="-637.3" font-family="Helvetica,sans-Serif" font-size="9.00">data_id</text>
</a>
</g>
</g>
<!-- _ma_step_output&#45;&gt;_ma_protocol_step -->
<g id="edge4" class="edge"><title>_ma_step_output:__protocol_id:w&#45;&gt;_ma_protocol_step:__protocol_id:w</title>
<path fill="none" stroke="black" d="M221.789,-699.5C188.26,-699.5 222.798,-654.282 204.789,-626 190.845,-604.102 170.282,-613.278 158.789,-590 141.759,-555.508 119.913,-505.1 147.56,-495.951"/>
<polygon fill="black" stroke="black" points="148.38,-499.37 157.789,-494.5 147.396,-492.439 148.38,-499.37"/>
</g>
<!-- _ma_step_output&#45;&gt;_ma_protocol_step -->
<g id="edge6" class="edge"><title>_ma_step_output:__step_id:w&#45;&gt;_ma_protocol_step:__step_id:w</title>
<path fill="none" stroke="black" d="M221.789,-679.5C196.84,-679.5 219.024,-646.489 204.789,-626 189.976,-604.68 170.261,-613.289 158.789,-590 137.788,-547.367 110.817,-484.68 147.661,-475.61"/>
<polygon fill="black" stroke="black" points="148.23,-479.068 157.789,-474.5 147.467,-472.11 148.23,-479.068"/>
</g>
</g>
</svg>
