<?xml version="1.0" encoding="UTF-8" standalone="no"?>
<!DOCTYPE svg PUBLIC "-//W3C//DTD SVG 1.1//EN"
 "http://www.w3.org/Graphics/SVG/1.1/DTD/svg11.dtd">
<!-- Generated by graphviz version 2.38.0 (20140413.2041)
 -->
<!-- Title: ma_protocol_step Pages: 1 -->
<svg width="536pt" height="903pt"
 viewBox="0.00 0.00 535.94 903.00" xmlns="http://www.w3.org/2000/svg" xmlns:xlink="http://www.w3.org/1999/xlink">
<g id="graph0" class="graph" transform="scale(1 1) rotate(0) translate(4 899)">
<title>ma_protocol_step</title>
<polygon fill="white" stroke="none" points="-4,4 -4,-899 531.939,-899 531.939,4 -4,4"/>
<text text-anchor="start" x="260.97" y="-58.6" font-family="Helvetica,sans-Serif" font-size="18.00"> </text>
<text text-anchor="start" x="260.97" y="-40.6" font-family="Helvetica,sans-Serif" font-size="18.00"> </text>
<text text-anchor="start" x="18.4697" y="-22.6" font-family="Helvetica,sans-Serif" font-size="18.00"> Category Relationship Diagram for </text>
<text text-anchor="start" x="301.47" y="-22.6" font-family="Helvetica,sans-Serif" font-weight="bold" font-size="18.00">MA_PROTOCOL_STEP</text>
<text text-anchor="start" x="499.47" y="-22.6" font-family="Helvetica,sans-Serif" font-size="18.00"> </text>
<text text-anchor="start" x="505.47" y="-22.6" font-family="Helvetica,sans-Serif" font-size="14.00"> </text>
<text text-anchor="start" x="129.97" y="-7.8" font-family="Helvetica,sans-Serif" font-size="14.00"> &#160;in dictionary mmcif_pdbx.dic version 5.296 </text>
<!-- _ma_criteria -->
<g id="node1" class="node"><title>_ma_criteria</title>
<g id="a_node1_0"><a xlink:href="/dictionaries/mmcif_pdbx_modeling_extension_all.dic/Categories/ma_criteria.html" xlink:title="&lt;TABLE&gt;" target="_top">
<polygon fill="#99c49b" stroke="none" points="47.9393,-859.5 47.9393,-880.5 126.939,-880.5 126.939,-859.5 47.9393,-859.5"/>
<polygon fill="none" stroke="black" points="47.9393,-859.5 47.9393,-880.5 126.939,-880.5 126.939,-859.5 47.9393,-859.5"/>
<text text-anchor="start" x="52.9393" y="-867.5" font-family="Helvetica,sans-Serif" font-size="10.00">MA_CRITERIA</text>
</a>
</g>
<g id="a_node1_1"><a xlink:href="/dictionaries/mmcif_pdbx_modeling_extension_all.dic/Items/_ma_criteria.id.html" xlink:title="&lt;TABLE&gt;" target="_top">
<polygon fill="#ffff99" stroke="none" points="47.9393,-839.5 47.9393,-859.5 126.939,-859.5 126.939,-839.5 47.9393,-839.5"/>
<polygon fill="none" stroke="black" points="47.9393,-839.5 47.9393,-859.5 126.939,-859.5 126.939,-839.5 47.9393,-839.5"/>
<text text-anchor="start" x="52.9393" y="-847.3" font-family="Helvetica,sans-Serif" font-size="9.00">id</text>
</a>
</g>
<g id="a_node1_2"><a xlink:href="/dictionaries/mmcif_pdbx_modeling_extension_all.dic/Items/_ma_criteria.protocol_id.html" xlink:title="&lt;TABLE&gt;" target="_top">
<polygon fill="none" stroke="black" points="47.9393,-819.5 47.9393,-839.5 126.939,-839.5 126.939,-819.5 47.9393,-819.5"/>
<text text-anchor="start" x="52.9393" y="-827.3" font-family="Helvetica,sans-Serif" font-size="9.00">protocol_id</text>
</a>
</g>
<g id="a_node1_3"><a xlink:href="/dictionaries/mmcif_pdbx_modeling_extension_all.dic/Items/_ma_criteria.step_id.html" xlink:title="&lt;TABLE&gt;" target="_top">
<polygon fill="none" stroke="black" points="47.9393,-799.5 47.9393,-819.5 126.939,-819.5 126.939,-799.5 47.9393,-799.5"/>
<text text-anchor="start" x="52.9393" y="-807.3" font-family="Helvetica,sans-Serif" font-size="9.00">step_id</text>
</a>
</g>
<g id="a_node1_4"><a xlink:href="/dictionaries/mmcif_pdbx_modeling_extension_all.dic/Items/_ma_criteria.name.html" xlink:title="&lt;TABLE&gt;" target="_top">
<polygon fill="none" stroke="black" points="47.9393,-779.5 47.9393,-799.5 126.939,-799.5 126.939,-779.5 47.9393,-779.5"/>
<text text-anchor="start" x="52.9393" y="-787.3" font-family="Helvetica,sans-Serif" font-size="9.00">name</text>
</a>
</g>
<g id="a_node1_5"><a xlink:href="/dictionaries/mmcif_pdbx_modeling_extension_all.dic/Items/_ma_criteria.type.html" xlink:title="&lt;TABLE&gt;" target="_top">
<polygon fill="none" stroke="black" points="47.9393,-759.5 47.9393,-779.5 126.939,-779.5 126.939,-759.5 47.9393,-759.5"/>
<text text-anchor="start" x="52.9393" y="-767.3" font-family="Helvetica,sans-Serif" font-size="9.00">type</text>
</a>
</g>
<g id="a_node1_6"><a xlink:href="/dictionaries/mmcif_pdbx_modeling_extension_all.dic/Items/_ma_criteria.value.html" xlink:title="&lt;TABLE&gt;" target="_top">
<polygon fill="none" stroke="black" points="47.9393,-739.5 47.9393,-759.5 126.939,-759.5 126.939,-739.5 47.9393,-739.5"/>
<text text-anchor="start" x="52.9393" y="-747.3" font-family="Helvetica,sans-Serif" font-size="9.00">value</text>
</a>
</g>
</g>
<!-- _ma_protocol_step -->
<g id="node3" class="node"><title>_ma_protocol_step</title>
<g id="a_node3_7"><a xlink:href="/dictionaries/mmcif_pdbx_modeling_extension_all.dic/Categories/ma_protocol_step.html" xlink:title="&lt;TABLE&gt;" target="_top">
<polygon fill="#f0027f" stroke="none" points="188.939,-664.5 188.939,-685.5 306.939,-685.5 306.939,-664.5 188.939,-664.5"/>
<polygon fill="none" stroke="black" points="188.939,-664.5 188.939,-685.5 306.939,-685.5 306.939,-664.5 188.939,-664.5"/>
<text text-anchor="start" x="193.939" y="-672.5" font-family="Helvetica,sans-Serif" font-size="10.00">MA_PROTOCOL_STEP</text>
</a>
</g>
<g id="a_node3_8"><a xlink:href="/dictionaries/mmcif_pdbx_modeling_extension_all.dic/Items/_ma_protocol_step.ordinal_id.html" xlink:title="&lt;TABLE&gt;" target="_top">
<polygon fill="#ffff99" stroke="none" points="188.939,-644.5 188.939,-664.5 306.939,-664.5 306.939,-644.5 188.939,-644.5"/>
<polygon fill="none" stroke="black" points="188.939,-644.5 188.939,-664.5 306.939,-664.5 306.939,-644.5 188.939,-644.5"/>
<text text-anchor="start" x="193.939" y="-652.3" font-family="Helvetica,sans-Serif" font-size="9.00">ordinal_id</text>
</a>
</g>
<g id="a_node3_9"><a xlink:href="/dictionaries/mmcif_pdbx_modeling_extension_all.dic/Items/_ma_protocol_step.assembly_id.html" xlink:title="&lt;TABLE&gt;" target="_top">
<polygon fill="none" stroke="black" points="188.939,-624.5 188.939,-644.5 306.939,-644.5 306.939,-624.5 188.939,-624.5"/>
<text text-anchor="start" x="193.939" y="-632.3" font-family="Helvetica,sans-Serif" font-size="9.00">assembly_id</text>
</a>
</g>
<g id="a_node3_10"><a xlink:href="/dictionaries/mmcif_pdbx_modeling_extension_all.dic/Items/_ma_protocol_step.protocol_id.html" xlink:title="&lt;TABLE&gt;" target="_top">
<polygon fill="none" stroke="black" points="188.939,-604.5 188.939,-624.5 306.939,-624.5 306.939,-604.5 188.939,-604.5"/>
<text text-anchor="start" x="193.939" y="-612.3" font-family="Helvetica,sans-Serif" font-size="9.00">protocol_id</text>
</a>
</g>
<g id="a_node3_11"><a xlink:href="/dictionaries/mmcif_pdbx_modeling_extension_all.dic/Items/_ma_protocol_step.software_id.html" xlink:title="&lt;TABLE&gt;" target="_top">
<polygon fill="none" stroke="black" points="188.939,-584.5 188.939,-604.5 306.939,-604.5 306.939,-584.5 188.939,-584.5"/>
<text text-anchor="start" x="193.939" y="-592.3" font-family="Helvetica,sans-Serif" font-size="9.00">software_id</text>
</a>
</g>
<g id="a_node3_12"><a xlink:href="/dictionaries/mmcif_pdbx_modeling_extension_all.dic/Items/_ma_protocol_step.step_id.html" xlink:title="&lt;TABLE&gt;" target="_top">
<polygon fill="none" stroke="black" points="188.939,-564.5 188.939,-584.5 306.939,-584.5 306.939,-564.5 188.939,-564.5"/>
<text text-anchor="start" x="193.939" y="-572.3" font-family="Helvetica,sans-Serif" font-size="9.00">step_id</text>
</a>
</g>
<g id="a_node3_13"><a xlink:href="/dictionaries/mmcif_pdbx_modeling_extension_all.dic/Items/_ma_protocol_step.method_type.html" xlink:title="&lt;TABLE&gt;" target="_top">
<polygon fill="none" stroke="black" points="188.939,-544.5 188.939,-564.5 306.939,-564.5 306.939,-544.5 188.939,-544.5"/>
<text text-anchor="start" x="193.939" y="-552.3" font-family="Helvetica,sans-Serif" font-size="9.00">method_type</text>
</a>
</g>
<g id="a_node3_14"><a xlink:href="/dictionaries/mmcif_pdbx_modeling_extension_all.dic/Items/_ma_protocol_step.name.html" xlink:title="&lt;TABLE&gt;" target="_top">
<polygon fill="none" stroke="black" points="188.939,-524.5 188.939,-544.5 306.939,-544.5 306.939,-524.5 188.939,-524.5"/>
<text text-anchor="start" x="193.939" y="-532.3" font-family="Helvetica,sans-Serif" font-size="9.00">name</text>
</a>
</g>
</g>
<!-- _ma_criteria&#45;&gt;_ma_protocol_step -->
<g id="edge1" class="edge"><title>_ma_criteria:__protocol_id:w&#45;&gt;_ma_protocol_step:__protocol_id:w</title>
<path fill="none" stroke="black" d="M46.9393,-829.5C-63.9844,-829.5 65.6252,-626.913 177.834,-615.043"/>
<polygon fill="black" stroke="black" points="178.141,-618.531 187.939,-614.5 177.766,-611.542 178.141,-618.531"/>
</g>
<!-- _ma_criteria&#45;&gt;_ma_protocol_step -->
<g id="edge2" class="edge"><title>_ma_criteria:__step_id:w&#45;&gt;_ma_protocol_step:__step_id:w</title>
<path fill="none" stroke="black" d="M46.9393,-809.5C-71.5323,-809.5 58.6228,-587.176 177.91,-575.018"/>
<polygon fill="black" stroke="black" points="178.133,-578.511 187.939,-574.5 177.772,-571.52 178.133,-578.511"/>
</g>
<!-- _ma_model_list -->
<g id="node2" class="node"><title>_ma_model_list</title>
<g id="a_node2_15"><a xlink:href="/dictionaries/mmcif_pdbx_modeling_extension_all.dic/Categories/ma_model_list.html" xlink:title="&lt;TABLE&gt;" target="_top">
<polygon fill="#99c49b" stroke="none" points="425.939,-869.5 425.939,-890.5 519.939,-890.5 519.939,-869.5 425.939,-869.5"/>
<polygon fill="none" stroke="black" points="425.939,-869.5 425.939,-890.5 519.939,-890.5 519.939,-869.5 425.939,-869.5"/>
<text text-anchor="start" x="431.939" y="-877.5" font-family="Helvetica,sans-Serif" font-size="10.00">MA_MODEL_LIST</text>
</a>
</g>
<g id="a_node2_16"><a xlink:href="/dictionaries/mmcif_pdbx_modeling_extension_all.dic/Items/_ma_model_list.ordinal_id.html" xlink:title="&lt;TABLE&gt;" target="_top">
<polygon fill="#ffff99" stroke="none" points="425.939,-849.5 425.939,-869.5 519.939,-869.5 519.939,-849.5 425.939,-849.5"/>
<polygon fill="none" stroke="black" points="425.939,-849.5 425.939,-869.5 519.939,-869.5 519.939,-849.5 425.939,-849.5"/>
<text text-anchor="start" x="430.939" y="-857.3" font-family="Helvetica,sans-Serif" font-size="9.00">ordinal_id</text>
</a>
</g>
<g id="a_node2_17"><a xlink:href="/dictionaries/mmcif_pdbx_modeling_extension_all.dic/Items/_ma_model_list.protocol_id.html" xlink:title="&lt;TABLE&gt;" target="_top">
<polygon fill="none" stroke="black" points="425.939,-829.5 425.939,-849.5 519.939,-849.5 519.939,-829.5 425.939,-829.5"/>
<text text-anchor="start" x="430.939" y="-837.3" font-family="Helvetica,sans-Serif" font-size="9.00">protocol_id</text>
</a>
</g>
<g id="a_node2_18"><a xlink:href="/dictionaries/mmcif_pdbx_modeling_extension_all.dic/Items/_ma_model_list.assembly_id.html" xlink:title="&lt;TABLE&gt;" target="_top">
<polygon fill="none" stroke="black" points="425.939,-809.5 425.939,-829.5 519.939,-829.5 519.939,-809.5 425.939,-809.5"/>
<text text-anchor="start" x="430.939" y="-817.3" font-family="Helvetica,sans-Serif" font-size="9.00">assembly_id</text>
</a>
</g>
<g id="a_node2_19"><a xlink:href="/dictionaries/mmcif_pdbx_modeling_extension_all.dic/Items/_ma_model_list.model_group_id.html" xlink:title="&lt;TABLE&gt;" target="_top">
<polygon fill="none" stroke="black" points="425.939,-789.5 425.939,-809.5 519.939,-809.5 519.939,-789.5 425.939,-789.5"/>
<text text-anchor="start" x="430.939" y="-797.3" font-family="Helvetica,sans-Serif" font-size="9.00">model_group_id</text>
</a>
</g>
<g id="a_node2_20"><a xlink:href="/dictionaries/mmcif_pdbx_modeling_extension_all.dic/Items/_ma_model_list.model_group_name.html" xlink:title="&lt;TABLE&gt;" target="_top">
<polygon fill="none" stroke="black" points="425.939,-769.5 425.939,-789.5 519.939,-789.5 519.939,-769.5 425.939,-769.5"/>
<text text-anchor="start" x="430.939" y="-777.3" font-family="Helvetica,sans-Serif" font-size="9.00">model_group_name</text>
</a>
</g>
<g id="a_node2_21"><a xlink:href="/dictionaries/mmcif_pdbx_modeling_extension_all.dic/Items/_ma_model_list.model_id.html" xlink:title="&lt;TABLE&gt;" target="_top">
<polygon fill="none" stroke="black" points="425.939,-749.5 425.939,-769.5 519.939,-769.5 519.939,-749.5 425.939,-749.5"/>
<text text-anchor="start" x="430.939" y="-757.3" font-family="Helvetica,sans-Serif" font-size="9.00">model_id</text>
</a>
</g>
<g id="a_node2_22"><a xlink:href="/dictionaries/mmcif_pdbx_modeling_extension_all.dic/Items/_ma_model_list.model_name.html" xlink:title="&lt;TABLE&gt;" target="_top">
<polygon fill="none" stroke="black" points="425.939,-729.5 425.939,-749.5 519.939,-749.5 519.939,-729.5 425.939,-729.5"/>
<text text-anchor="start" x="430.939" y="-737.3" font-family="Helvetica,sans-Serif" font-size="9.00">model_name</text>
</a>
</g>
</g>
<!-- _ma_model_list&#45;&gt;_ma_protocol_step -->
<g id="edge4" class="edge"><title>_ma_model_list:__protocol_id:w&#45;&gt;_ma_protocol_step:__protocol_id:w</title>
<path fill="none" stroke="black" d="M424.939,-839.5C399.468,-839.5 426.75,-744.21 408.939,-726 339.661,-655.169 253.591,-765.078 188.939,-690 169.608,-667.551 157.475,-625.897 177.986,-616.443"/>
<polygon fill="black" stroke="black" points="178.795,-619.851 187.939,-614.5 177.454,-612.98 178.795,-619.851"/>
</g>
<!-- _ma_struct_assembly -->
<g id="node6" class="node"><title>_ma_struct_assembly</title>
<g id="a_node6_23"><a xlink:href="/dictionaries/mmcif_pdbx_modeling_extension_all.dic/Categories/ma_struct_assembly.html" xlink:title="&lt;TABLE&gt;" target="_top">
<polygon fill="#99c49b" stroke="none" points="359.939,-349.5 359.939,-370.5 490.939,-370.5 490.939,-349.5 359.939,-349.5"/>
<polygon fill="none" stroke="black" points="359.939,-349.5 359.939,-370.5 490.939,-370.5 490.939,-349.5 359.939,-349.5"/>
<text text-anchor="start" x="364.939" y="-357.5" font-family="Helvetica,sans-Serif" font-size="10.00">MA_STRUCT_ASSEMBLY</text>
</a>
</g>
<g id="a_node6_24"><a xlink:href="/dictionaries/mmcif_pdbx_modeling_extension_all.dic/Items/_ma_struct_assembly.ordinal_id.html" xlink:title="&lt;TABLE&gt;" target="_top">
<polygon fill="#ffff99" stroke="none" points="359.939,-329.5 359.939,-349.5 490.939,-349.5 490.939,-329.5 359.939,-329.5"/>
<polygon fill="none" stroke="black" points="359.939,-329.5 359.939,-349.5 490.939,-349.5 490.939,-329.5 359.939,-329.5"/>
<text text-anchor="start" x="364.939" y="-337.3" font-family="Helvetica,sans-Serif" font-size="9.00">ordinal_id</text>
</a>
</g>
<g id="a_node6_25"><a xlink:href="/dictionaries/mmcif_pdbx_modeling_extension_all.dic/Items/_ma_struct_assembly.assembly_id.html" xlink:title="&lt;TABLE&gt;" target="_top">
<polygon fill="none" stroke="black" points="359.939,-309.5 359.939,-329.5 490.939,-329.5 490.939,-309.5 359.939,-309.5"/>
<text text-anchor="start" x="364.939" y="-317.3" font-family="Helvetica,sans-Serif" font-size="9.00">assembly_id</text>
</a>
</g>
<g id="a_node6_26"><a xlink:href="/dictionaries/mmcif_pdbx_modeling_extension_all.dic/Items/_ma_struct_assembly.asym_id.html" xlink:title="&lt;TABLE&gt;" target="_top">
<polygon fill="none" stroke="black" points="359.939,-289.5 359.939,-309.5 490.939,-309.5 490.939,-289.5 359.939,-289.5"/>
<text text-anchor="start" x="364.939" y="-297.3" font-family="Helvetica,sans-Serif" font-size="9.00">asym_id</text>
</a>
</g>
<g id="a_node6_27"><a xlink:href="/dictionaries/mmcif_pdbx_modeling_extension_all.dic/Items/_ma_struct_assembly.entity_description.html" xlink:title="&lt;TABLE&gt;" target="_top">
<polygon fill="none" stroke="black" points="359.939,-269.5 359.939,-289.5 490.939,-289.5 490.939,-269.5 359.939,-269.5"/>
<text text-anchor="start" x="364.939" y="-277.3" font-family="Helvetica,sans-Serif" font-size="9.00">entity_description</text>
</a>
</g>
<g id="a_node6_28"><a xlink:href="/dictionaries/mmcif_pdbx_modeling_extension_all.dic/Items/_ma_struct_assembly.entity_id.html" xlink:title="&lt;TABLE&gt;" target="_top">
<polygon fill="none" stroke="black" points="359.939,-249.5 359.939,-269.5 490.939,-269.5 490.939,-249.5 359.939,-249.5"/>
<text text-anchor="start" x="364.939" y="-257.3" font-family="Helvetica,sans-Serif" font-size="9.00">entity_id</text>
</a>
</g>
<g id="a_node6_29"><a xlink:href="/dictionaries/mmcif_pdbx_modeling_extension_all.dic/Items/_ma_struct_assembly.parent_assembly_id.html" xlink:title="&lt;TABLE&gt;" target="_top">
<polygon fill="none" stroke="black" points="359.939,-229.5 359.939,-249.5 490.939,-249.5 490.939,-229.5 359.939,-229.5"/>
<text text-anchor="start" x="364.939" y="-237.3" font-family="Helvetica,sans-Serif" font-size="9.00">parent_assembly_id</text>
</a>
</g>
<g id="a_node6_30"><a xlink:href="/dictionaries/mmcif_pdbx_modeling_extension_all.dic/Items/_ma_struct_assembly.seq_id_begin.html" xlink:title="&lt;TABLE&gt;" target="_top">
<polygon fill="none" stroke="black" points="359.939,-209.5 359.939,-229.5 490.939,-229.5 490.939,-209.5 359.939,-209.5"/>
<text text-anchor="start" x="364.939" y="-217.3" font-family="Helvetica,sans-Serif" font-size="9.00">seq_id_begin</text>
</a>
</g>
<g id="a_node6_31"><a xlink:href="/dictionaries/mmcif_pdbx_modeling_extension_all.dic/Items/_ma_struct_assembly.seq_id_end.html" xlink:title="&lt;TABLE&gt;" target="_top">
<polygon fill="none" stroke="black" points="359.939,-189.5 359.939,-209.5 490.939,-209.5 490.939,-189.5 359.939,-189.5"/>
<text text-anchor="start" x="364.939" y="-197.3" font-family="Helvetica,sans-Serif" font-size="9.00">seq_id_end</text>
</a>
</g>
</g>
<!-- _ma_model_list&#45;&gt;_ma_struct_assembly -->
<g id="edge3" class="edge"><title>_ma_model_list:__assembly_id:w&#45;&gt;_ma_struct_assembly:__assembly_id:w</title>
<path fill="none" stroke="black" d="M424.939,-819.5C421.82,-819.5 360.194,-378.109 359.939,-375 358.337,-355.406 342.987,-331.797 349.301,-323.014"/>
<polygon fill="black" stroke="black" points="350.743,-326.214 358.939,-319.5 348.345,-319.637 350.743,-326.214"/>
</g>
<!-- _ma_protocol_step&#45;&gt;_ma_struct_assembly -->
<g id="edge5" class="edge"><title>_ma_protocol_step:__assembly_id:w&#45;&gt;_ma_struct_assembly:__assembly_id:w</title>
<path fill="none" stroke="black" d="M187.939,-634.5C137.493,-634.5 158.889,-561.52 188.939,-521 220.842,-477.982 265.74,-522.538 303.939,-485 356.525,-433.325 288.708,-330.221 348.662,-320.276"/>
<polygon fill="black" stroke="black" points="349.231,-323.743 358.939,-319.5 348.704,-316.763 349.231,-323.743"/>
</g>
<!-- _software -->
<g id="node7" class="node"><title>_software</title>
<g id="a_node7_32"><a xlink:href="/dictionaries/mmcif_pdbx_modeling_extension_all.dic/Categories/software.html" xlink:title="&lt;TABLE&gt;" target="_top">
<polygon fill="#99c49b" stroke="none" points="188.939,-459.5 188.939,-480.5 287.939,-480.5 287.939,-459.5 188.939,-459.5"/>
<polygon fill="none" stroke="black" points="188.939,-459.5 188.939,-480.5 287.939,-480.5 287.939,-459.5 188.939,-459.5"/>
<text text-anchor="start" x="209.439" y="-467.5" font-family="Helvetica,sans-Serif" font-size="10.00">SOFTWARE</text>
</a>
</g>
<g id="a_node7_33"><a xlink:href="/dictionaries/mmcif_pdbx_modeling_extension_all.dic/Items/_software.pdbx_ordinal.html" xlink:title="&lt;TABLE&gt;" target="_top">
<polygon fill="#ffff99" stroke="none" points="188.939,-439.5 188.939,-459.5 287.939,-459.5 287.939,-439.5 188.939,-439.5"/>
<polygon fill="none" stroke="black" points="188.939,-439.5 188.939,-459.5 287.939,-459.5 287.939,-439.5 188.939,-439.5"/>
<text text-anchor="start" x="193.939" y="-447.3" font-family="Helvetica,sans-Serif" font-size="9.00">pdbx_ordinal</text>
</a>
</g>
<g id="a_node7_34"><a xlink:href="/dictionaries/mmcif_pdbx_modeling_extension_all.dic/Items/_software.citation_id.html" xlink:title="&lt;TABLE&gt;" target="_top">
<polygon fill="none" stroke="black" points="188.939,-419.5 188.939,-439.5 287.939,-439.5 287.939,-419.5 188.939,-419.5"/>
<text text-anchor="start" x="193.939" y="-427.3" font-family="Helvetica,sans-Serif" font-size="9.00">citation_id</text>
</a>
</g>
<g id="a_node7_35"><a xlink:href="/dictionaries/mmcif_pdbx_modeling_extension_all.dic/Items/_software.classification.html" xlink:title="&lt;TABLE&gt;" target="_top">
<polygon fill="none" stroke="black" points="188.939,-399.5 188.939,-419.5 287.939,-419.5 287.939,-399.5 188.939,-399.5"/>
<text text-anchor="start" x="193.939" y="-407.3" font-family="Helvetica,sans-Serif" font-size="9.00">classification</text>
</a>
</g>
<g id="a_node7_36"><a xlink:href="/dictionaries/mmcif_pdbx_modeling_extension_all.dic/Items/_software.compiler_name.html" xlink:title="&lt;TABLE&gt;" target="_top">
<polygon fill="none" stroke="black" points="188.939,-379.5 188.939,-399.5 287.939,-399.5 287.939,-379.5 188.939,-379.5"/>
<text text-anchor="start" x="193.939" y="-387.3" font-family="Helvetica,sans-Serif" font-size="9.00">compiler_name</text>
</a>
</g>
<g id="a_node7_37"><a xlink:href="/dictionaries/mmcif_pdbx_modeling_extension_all.dic/Items/_software.compiler_version.html" xlink:title="&lt;TABLE&gt;" target="_top">
<polygon fill="none" stroke="black" points="188.939,-359.5 188.939,-379.5 287.939,-379.5 287.939,-359.5 188.939,-359.5"/>
<text text-anchor="start" x="193.939" y="-367.3" font-family="Helvetica,sans-Serif" font-size="9.00">compiler_version</text>
</a>
</g>
<g id="a_node7_38"><a xlink:href="/dictionaries/mmcif_pdbx_modeling_extension_all.dic/Items/_software.contact_author.html" xlink:title="&lt;TABLE&gt;" target="_top">
<polygon fill="none" stroke="black" points="188.939,-339.5 188.939,-359.5 287.939,-359.5 287.939,-339.5 188.939,-339.5"/>
<text text-anchor="start" x="193.939" y="-347.3" font-family="Helvetica,sans-Serif" font-size="9.00">contact_author</text>
</a>
</g>
<g id="a_node7_39"><a xlink:href="/dictionaries/mmcif_pdbx_modeling_extension_all.dic/Items/_software.contact_author_email.html" xlink:title="&lt;TABLE&gt;" target="_top">
<polygon fill="none" stroke="black" points="188.939,-319.5 188.939,-339.5 287.939,-339.5 287.939,-319.5 188.939,-319.5"/>
<text text-anchor="start" x="193.939" y="-327.3" font-family="Helvetica,sans-Serif" font-size="9.00">contact_author_email</text>
</a>
</g>
<g id="a_node7_40"><a xlink:href="/dictionaries/mmcif_pdbx_modeling_extension_all.dic/Items/_software.date.html" xlink:title="&lt;TABLE&gt;" target="_top">
<polygon fill="none" stroke="black" points="188.939,-299.5 188.939,-319.5 287.939,-319.5 287.939,-299.5 188.939,-299.5"/>
<text text-anchor="start" x="193.939" y="-307.3" font-family="Helvetica,sans-Serif" font-size="9.00">date</text>
</a>
</g>
<g id="a_node7_41"><a xlink:href="/dictionaries/mmcif_pdbx_modeling_extension_all.dic/Items/_software.dependencies.html" xlink:title="&lt;TABLE&gt;" target="_top">
<polygon fill="none" stroke="black" points="188.939,-279.5 188.939,-299.5 287.939,-299.5 287.939,-279.5 188.939,-279.5"/>
<text text-anchor="start" x="193.939" y="-287.3" font-family="Helvetica,sans-Serif" font-size="9.00">dependencies</text>
</a>
</g>
<g id="a_node7_42"><a xlink:href="/dictionaries/mmcif_pdbx_modeling_extension_all.dic/Items/_software.description.html" xlink:title="&lt;TABLE&gt;" target="_top">
<polygon fill="none" stroke="black" points="188.939,-259.5 188.939,-279.5 287.939,-279.5 287.939,-259.5 188.939,-259.5"/>
<text text-anchor="start" x="193.939" y="-267.3" font-family="Helvetica,sans-Serif" font-size="9.00">description</text>
</a>
</g>
<g id="a_node7_43"><a xlink:href="/dictionaries/mmcif_pdbx_modeling_extension_all.dic/Items/_software.hardware.html" xlink:title="&lt;TABLE&gt;" target="_top">
<polygon fill="none" stroke="black" points="188.939,-239.5 188.939,-259.5 287.939,-259.5 287.939,-239.5 188.939,-239.5"/>
<text text-anchor="start" x="193.939" y="-247.3" font-family="Helvetica,sans-Serif" font-size="9.00">hardware</text>
</a>
</g>
<g id="a_node7_44"><a xlink:href="/dictionaries/mmcif_pdbx_modeling_extension_all.dic/Items/_software.language.html" xlink:title="&lt;TABLE&gt;" target="_top">
<polygon fill="none" stroke="black" points="188.939,-219.5 188.939,-239.5 287.939,-239.5 287.939,-219.5 188.939,-219.5"/>
<text text-anchor="start" x="193.939" y="-227.3" font-family="Helvetica,sans-Serif" font-size="9.00">language</text>
</a>
</g>
<g id="a_node7_45"><a xlink:href="/dictionaries/mmcif_pdbx_modeling_extension_all.dic/Items/_software.location.html" xlink:title="&lt;TABLE&gt;" target="_top">
<polygon fill="none" stroke="black" points="188.939,-199.5 188.939,-219.5 287.939,-219.5 287.939,-199.5 188.939,-199.5"/>
<text text-anchor="start" x="193.939" y="-207.3" font-family="Helvetica,sans-Serif" font-size="9.00">location</text>
</a>
</g>
<g id="a_node7_46"><a xlink:href="/dictionaries/mmcif_pdbx_modeling_extension_all.dic/Items/_software.mods.html" xlink:title="&lt;TABLE&gt;" target="_top">
<polygon fill="none" stroke="black" points="188.939,-179.5 188.939,-199.5 287.939,-199.5 287.939,-179.5 188.939,-179.5"/>
<text text-anchor="start" x="193.939" y="-187.3" font-family="Helvetica,sans-Serif" font-size="9.00">mods</text>
</a>
</g>
<g id="a_node7_47"><a xlink:href="/dictionaries/mmcif_pdbx_modeling_extension_all.dic/Items/_software.name.html" xlink:title="&lt;TABLE&gt;" target="_top">
<polygon fill="none" stroke="black" points="188.939,-159.5 188.939,-179.5 287.939,-179.5 287.939,-159.5 188.939,-159.5"/>
<text text-anchor="start" x="193.939" y="-167.3" font-family="Helvetica,sans-Serif" font-size="9.00">name</text>
</a>
</g>
<g id="a_node7_48"><a xlink:href="/dictionaries/mmcif_pdbx_modeling_extension_all.dic/Items/_software.os.html" xlink:title="&lt;TABLE&gt;" target="_top">
<polygon fill="none" stroke="black" points="188.939,-139.5 188.939,-159.5 287.939,-159.5 287.939,-139.5 188.939,-139.5"/>
<text text-anchor="start" x="193.939" y="-147.3" font-family="Helvetica,sans-Serif" font-size="9.00">os</text>
</a>
</g>
<g id="a_node7_49"><a xlink:href="/dictionaries/mmcif_pdbx_modeling_extension_all.dic/Items/_software.os_version.html" xlink:title="&lt;TABLE&gt;" target="_top">
<polygon fill="none" stroke="black" points="188.939,-119.5 188.939,-139.5 287.939,-139.5 287.939,-119.5 188.939,-119.5"/>
<text text-anchor="start" x="193.939" y="-127.3" font-family="Helvetica,sans-Serif" font-size="9.00">os_version</text>
</a>
</g>
<g id="a_node7_50"><a xlink:href="/dictionaries/mmcif_pdbx_modeling_extension_all.dic/Items/_software.type.html" xlink:title="&lt;TABLE&gt;" target="_top">
<polygon fill="none" stroke="black" points="188.939,-99.5 188.939,-119.5 287.939,-119.5 287.939,-99.5 188.939,-99.5"/>
<text text-anchor="start" x="193.939" y="-107.3" font-family="Helvetica,sans-Serif" font-size="9.00">type</text>
</a>
</g>
<g id="a_node7_51"><a xlink:href="/dictionaries/mmcif_pdbx_modeling_extension_all.dic/Items/_software.version.html" xlink:title="&lt;TABLE&gt;" target="_top">
<polygon fill="none" stroke="black" points="188.939,-79.5 188.939,-99.5 287.939,-99.5 287.939,-79.5 188.939,-79.5"/>
<text text-anchor="start" x="193.939" y="-87.3" font-family="Helvetica,sans-Serif" font-size="9.00">version</text>
</a>
</g>
</g>
<!-- _ma_protocol_step&#45;&gt;_software -->
<g id="edge8" class="edge"><title>_ma_protocol_step:__software_id:w&#45;&gt;_software:__pdbx_ordinal:w</title>
<path fill="none" stroke="black" d="M187.939,-594.5C127.019,-594.5 123.688,-464.926 177.945,-450.754"/>
<polygon fill="black" stroke="black" points="178.453,-454.217 187.939,-449.5 177.581,-447.272 178.453,-454.217"/>
</g>
<!-- _ma_step_input -->
<g id="node4" class="node"><title>_ma_step_input</title>
<g id="a_node4_52"><a xlink:href="/dictionaries/mmcif_pdbx_modeling_extension_all.dic/Categories/ma_step_input.html" xlink:title="&lt;TABLE&gt;" target="_top">
<polygon fill="#99c49b" stroke="none" points="160.939,-839.5 160.939,-860.5 253.939,-860.5 253.939,-839.5 160.939,-839.5"/>
<polygon fill="none" stroke="black" points="160.939,-839.5 160.939,-860.5 253.939,-860.5 253.939,-839.5 160.939,-839.5"/>
<text text-anchor="start" x="165.939" y="-847.5" font-family="Helvetica,sans-Serif" font-size="10.00">MA_STEP_INPUT</text>
</a>
</g>
<g id="a_node4_53"><a xlink:href="/dictionaries/mmcif_pdbx_modeling_extension_all.dic/Items/_ma_step_input.id.html" xlink:title="&lt;TABLE&gt;" target="_top">
<polygon fill="#ffff99" stroke="none" points="160.939,-819.5 160.939,-839.5 253.939,-839.5 253.939,-819.5 160.939,-819.5"/>
<polygon fill="none" stroke="black" points="160.939,-819.5 160.939,-839.5 253.939,-839.5 253.939,-819.5 160.939,-819.5"/>
<text text-anchor="start" x="165.939" y="-827.3" font-family="Helvetica,sans-Serif" font-size="9.00">id</text>
</a>
</g>
<g id="a_node4_54"><a xlink:href="/dictionaries/mmcif_pdbx_modeling_extension_all.dic/Items/_ma_step_input.protocol_id.html" xlink:title="&lt;TABLE&gt;" target="_top">
<polygon fill="none" stroke="black" points="160.939,-799.5 160.939,-819.5 253.939,-819.5 253.939,-799.5 160.939,-799.5"/>
<text text-anchor="start" x="165.939" y="-807.3" font-family="Helvetica,sans-Serif" font-size="9.00">protocol_id</text>
</a>
</g>
<g id="a_node4_55"><a xlink:href="/dictionaries/mmcif_pdbx_modeling_extension_all.dic/Items/_ma_step_input.step_id.html" xlink:title="&lt;TABLE&gt;" target="_top">
<polygon fill="none" stroke="black" points="160.939,-779.5 160.939,-799.5 253.939,-799.5 253.939,-779.5 160.939,-779.5"/>
<text text-anchor="start" x="165.939" y="-787.3" font-family="Helvetica,sans-Serif" font-size="9.00">step_id</text>
</a>
</g>
<g id="a_node4_56"><a xlink:href="/dictionaries/mmcif_pdbx_modeling_extension_all.dic/Items/_ma_step_input.data_group_id.html" xlink:title="&lt;TABLE&gt;" target="_top">
<polygon fill="none" stroke="black" points="160.939,-759.5 160.939,-779.5 253.939,-779.5 253.939,-759.5 160.939,-759.5"/>
<text text-anchor="start" x="165.939" y="-767.3" font-family="Helvetica,sans-Serif" font-size="9.00">data_group_id</text>
</a>
</g>
</g>
<!-- _ma_step_input&#45;&gt;_ma_protocol_step -->
<g id="edge6" class="edge"><title>_ma_step_input:__protocol_id:w&#45;&gt;_ma_protocol_step:__protocol_id:w</title>
<path fill="none" stroke="black" d="M159.939,-809.5C140.53,-809.5 160.347,-656.177 180.347,-621.44"/>
<polygon fill="black" stroke="black" points="182.92,-623.83 187.939,-614.5 178.197,-618.663 182.92,-623.83"/>
</g>
<!-- _ma_step_input&#45;&gt;_ma_protocol_step -->
<g id="edge9" class="edge"><title>_ma_step_input:__step_id:w&#45;&gt;_ma_protocol_step:__step_id:w</title>
<path fill="none" stroke="black" d="M159.939,-789.5C138.39,-789.5 158.522,-617.46 180.252,-581.17"/>
<polygon fill="black" stroke="black" points="182.68,-583.697 187.939,-574.5 178.092,-578.41 182.68,-583.697"/>
</g>
<!-- _ma_step_output -->
<g id="node5" class="node"><title>_ma_step_output</title>
<g id="a_node5_57"><a xlink:href="/dictionaries/mmcif_pdbx_modeling_extension_all.dic/Categories/ma_step_output.html" xlink:title="&lt;TABLE&gt;" target="_top">
<polygon fill="#99c49b" stroke="none" points="287.939,-839.5 287.939,-860.5 391.939,-860.5 391.939,-839.5 287.939,-839.5"/>
<polygon fill="none" stroke="black" points="287.939,-839.5 287.939,-860.5 391.939,-860.5 391.939,-839.5 287.939,-839.5"/>
<text text-anchor="start" x="292.939" y="-847.5" font-family="Helvetica,sans-Serif" font-size="10.00">MA_STEP_OUTPUT</text>
</a>
</g>
<g id="a_node5_58"><a xlink:href="/dictionaries/mmcif_pdbx_modeling_extension_all.dic/Items/_ma_step_output.id.html" xlink:title="&lt;TABLE&gt;" target="_top">
<polygon fill="#ffff99" stroke="none" points="287.939,-819.5 287.939,-839.5 391.939,-839.5 391.939,-819.5 287.939,-819.5"/>
<polygon fill="none" stroke="black" points="287.939,-819.5 287.939,-839.5 391.939,-839.5 391.939,-819.5 287.939,-819.5"/>
<text text-anchor="start" x="292.939" y="-827.3" font-family="Helvetica,sans-Serif" font-size="9.00">id</text>
</a>
</g>
<g id="a_node5_59"><a xlink:href="/dictionaries/mmcif_pdbx_modeling_extension_all.dic/Items/_ma_step_output.protocol_id.html" xlink:title="&lt;TABLE&gt;" target="_top">
<polygon fill="none" stroke="black" points="287.939,-799.5 287.939,-819.5 391.939,-819.5 391.939,-799.5 287.939,-799.5"/>
<text text-anchor="start" x="292.939" y="-807.3" font-family="Helvetica,sans-Serif" font-size="9.00">protocol_id</text>
</a>
</g>
<g id="a_node5_60"><a xlink:href="/dictionaries/mmcif_pdbx_modeling_extension_all.dic/Items/_ma_step_output.step_id.html" xlink:title="&lt;TABLE&gt;" target="_top">
<polygon fill="none" stroke="black" points="287.939,-779.5 287.939,-799.5 391.939,-799.5 391.939,-779.5 287.939,-779.5"/>
<text text-anchor="start" x="292.939" y="-787.3" font-family="Helvetica,sans-Serif" font-size="9.00">step_id</text>
</a>
</g>
<g id="a_node5_61"><a xlink:href="/dictionaries/mmcif_pdbx_modeling_extension_all.dic/Items/_ma_step_output.data_group_id.html" xlink:title="&lt;TABLE&gt;" target="_top">
<polygon fill="none" stroke="black" points="287.939,-759.5 287.939,-779.5 391.939,-779.5 391.939,-759.5 287.939,-759.5"/>
<text text-anchor="start" x="292.939" y="-767.3" font-family="Helvetica,sans-Serif" font-size="9.00">data_group_id</text>
</a>
</g>
</g>
<!-- _ma_step_output&#45;&gt;_ma_protocol_step -->
<g id="edge7" class="edge"><title>_ma_step_output:__protocol_id:w&#45;&gt;_ma_protocol_step:__protocol_id:w</title>
<path fill="none" stroke="black" d="M286.939,-809.5C249.067,-809.5 293.656,-755.527 269.939,-726 245.269,-695.286 210.625,-722.89 188.939,-690 172.632,-665.266 158.184,-625.362 178.111,-616.349"/>
<polygon fill="black" stroke="black" points="178.759,-619.788 187.939,-614.5 177.465,-612.909 178.759,-619.788"/>
</g>
<!-- _ma_step_output&#45;&gt;_ma_protocol_step -->
<g id="edge10" class="edge"><title>_ma_step_output:__step_id:w&#45;&gt;_ma_protocol_step:__step_id:w</title>
<path fill="none" stroke="black" d="M286.939,-789.5C257.723,-789.5 288.919,-748.212 269.939,-726 244.347,-696.049 210.549,-722.94 188.939,-690 162.87,-650.263 140.215,-585.11 177.728,-575.658"/>
<polygon fill="black" stroke="black" points="178.397,-579.104 187.939,-574.5 177.609,-572.149 178.397,-579.104"/>
</g>
<!-- _ma_struct_assembly&#45;&gt;_ma_struct_assembly -->
<g id="edge11" class="edge"><title>_ma_struct_assembly:__parent_assembly_id:e&#45;&gt;_ma_struct_assembly:__assembly_id:e</title>
<path fill="none" stroke="black" d="M490.939,-239.5C504.439,-158.5 516.439,-158.5 516.439,-279.5 516.439,-395.301 505.448,-400.277 492.67,-329.49"/>
<polygon fill="black" stroke="black" points="496.095,-328.756 490.939,-319.5 489.198,-329.951 496.095,-328.756"/>
</g>
</g>
</svg>
