<?xml version="1.0" encoding="UTF-8" standalone="no"?>
<!DOCTYPE svg PUBLIC "-//W3C//DTD SVG 1.1//EN"
 "http://www.w3.org/Graphics/SVG/1.1/DTD/svg11.dtd">
<!-- Generated by graphviz version 2.38.0 (20140413.2041)
 -->
<!-- Title: ma_restraints Pages: 1 -->
<svg width="470pt" height="839pt"
 viewBox="0.00 0.00 470.00 839.00" xmlns="http://www.w3.org/2000/svg" xmlns:xlink="http://www.w3.org/1999/xlink">
<g id="graph0" class="graph" transform="scale(1 1) rotate(0) translate(4 835)">
<title>ma_restraints</title>
<polygon fill="white" stroke="none" points="-4,4 -4,-835 466,-835 466,4 -4,4"/>
<text text-anchor="start" x="228" y="-58.6" font-family="Helvetica,sans-Serif" font-size="18.00"> </text>
<text text-anchor="start" x="228" y="-40.6" font-family="Helvetica,sans-Serif" font-size="18.00"> </text>
<text text-anchor="start" x="8" y="-22.6" font-family="Helvetica,sans-Serif" font-size="18.00"> Category Relationship Diagram for </text>
<text text-anchor="start" x="291" y="-22.6" font-family="Helvetica,sans-Serif" font-weight="bold" font-size="18.00">MA_RESTRAINTS</text>
<text text-anchor="start" x="444" y="-22.6" font-family="Helvetica,sans-Serif" font-size="18.00"> </text>
<text text-anchor="start" x="450" y="-22.6" font-family="Helvetica,sans-Serif" font-size="14.00"> </text>
<text text-anchor="start" x="97" y="-7.8" font-family="Helvetica,sans-Serif" font-size="14.00"> &#160;in dictionary mmcif_pdbx.dic version 5.280 </text>
<!-- _ma_data -->
<g id="node1" class="node"><title>_ma_data</title>
<g id="a_node1_0"><a xlink:href="/dictionaries/mmcif_modeling_v10.unix_1.04.dic/Categories/ma_data.html" xlink:title="&lt;TABLE&gt;" target="_top">
<polygon fill="#99c49b" stroke="none" points="177.313,-139.5 177.313,-160.5 240.313,-160.5 240.313,-139.5 177.313,-139.5"/>
<polygon fill="none" stroke="black" points="177.313,-139.5 177.313,-160.5 240.313,-160.5 240.313,-139.5 177.313,-139.5"/>
<text text-anchor="start" x="184.813" y="-147.5" font-family="Helvetica,sans-Serif" font-size="10.00">MA_DATA</text>
</a>
</g>
<g id="a_node1_1"><a xlink:href="/dictionaries/mmcif_modeling_v10.unix_1.04.dic/Items/_ma_data.id.html" xlink:title="&lt;TABLE&gt;" target="_top">
<polygon fill="#ffff99" stroke="none" points="177.313,-119.5 177.313,-139.5 240.313,-139.5 240.313,-119.5 177.313,-119.5"/>
<polygon fill="none" stroke="black" points="177.313,-119.5 177.313,-139.5 240.313,-139.5 240.313,-119.5 177.313,-119.5"/>
<text text-anchor="start" x="182.313" y="-127.3" font-family="Helvetica,sans-Serif" font-size="9.00">id</text>
</a>
</g>
<g id="a_node1_2"><a xlink:href="/dictionaries/mmcif_modeling_v10.unix_1.04.dic/Items/_ma_data.content_type.html" xlink:title="&lt;TABLE&gt;" target="_top">
<polygon fill="none" stroke="black" points="177.313,-99.5 177.313,-119.5 240.313,-119.5 240.313,-99.5 177.313,-99.5"/>
<text text-anchor="start" x="182.313" y="-107.3" font-family="Helvetica,sans-Serif" font-size="9.00">content_type</text>
</a>
</g>
<g id="a_node1_3"><a xlink:href="/dictionaries/mmcif_modeling_v10.unix_1.04.dic/Items/_ma_data.name.html" xlink:title="&lt;TABLE&gt;" target="_top">
<polygon fill="none" stroke="black" points="177.313,-79.5 177.313,-99.5 240.313,-99.5 240.313,-79.5 177.313,-79.5"/>
<text text-anchor="start" x="182.313" y="-87.3" font-family="Helvetica,sans-Serif" font-size="9.00">name</text>
</a>
</g>
</g>
<!-- _ma_dihedral_restraints -->
<g id="node2" class="node"><title>_ma_dihedral_restraints</title>
<g id="a_node2_4"><a xlink:href="/dictionaries/mmcif_modeling_v10.unix_1.04.dic/Categories/ma_dihedral_restraints.html" xlink:title="&lt;TABLE&gt;" target="_top">
<polygon fill="#99c49b" stroke="none" points="84.3127,-805.5 84.3127,-826.5 236.313,-826.5 236.313,-805.5 84.3127,-805.5"/>
<polygon fill="none" stroke="black" points="84.3127,-805.5 84.3127,-826.5 236.313,-826.5 236.313,-805.5 84.3127,-805.5"/>
<text text-anchor="start" x="89.3127" y="-813.5" font-family="Helvetica,sans-Serif" font-size="10.00">MA_DIHEDRAL_RESTRAINTS</text>
</a>
</g>
<g id="a_node2_5"><a xlink:href="/dictionaries/mmcif_modeling_v10.unix_1.04.dic/Items/_ma_dihedral_restraints.ordinal_id.html" xlink:title="&lt;TABLE&gt;" target="_top">
<polygon fill="#ffff99" stroke="none" points="84.3127,-785.5 84.3127,-805.5 236.313,-805.5 236.313,-785.5 84.3127,-785.5"/>
<polygon fill="none" stroke="black" points="84.3127,-785.5 84.3127,-805.5 236.313,-805.5 236.313,-785.5 84.3127,-785.5"/>
<text text-anchor="start" x="89.3127" y="-793.3" font-family="Helvetica,sans-Serif" font-size="9.00">ordinal_id</text>
</a>
</g>
<g id="a_node2_6"><a xlink:href="/dictionaries/mmcif_modeling_v10.unix_1.04.dic/Items/_ma_dihedral_restraints.restraint_id.html" xlink:title="&lt;TABLE&gt;" target="_top">
<polygon fill="none" stroke="black" points="84.3127,-765.5 84.3127,-785.5 236.313,-785.5 236.313,-765.5 84.3127,-765.5"/>
<text text-anchor="start" x="89.3127" y="-773.3" font-family="Helvetica,sans-Serif" font-size="9.00">restraint_id</text>
</a>
</g>
<g id="a_node2_7"><a xlink:href="/dictionaries/mmcif_modeling_v10.unix_1.04.dic/Items/_ma_dihedral_restraints.asym_id_1.html" xlink:title="&lt;TABLE&gt;" target="_top">
<polygon fill="none" stroke="black" points="84.3127,-745.5 84.3127,-765.5 236.313,-765.5 236.313,-745.5 84.3127,-745.5"/>
<text text-anchor="start" x="89.3127" y="-753.3" font-family="Helvetica,sans-Serif" font-size="9.00">asym_id_1</text>
</a>
</g>
<g id="a_node2_8"><a xlink:href="/dictionaries/mmcif_modeling_v10.unix_1.04.dic/Items/_ma_dihedral_restraints.asym_id_2.html" xlink:title="&lt;TABLE&gt;" target="_top">
<polygon fill="none" stroke="black" points="84.3127,-725.5 84.3127,-745.5 236.313,-745.5 236.313,-725.5 84.3127,-725.5"/>
<text text-anchor="start" x="89.3127" y="-733.3" font-family="Helvetica,sans-Serif" font-size="9.00">asym_id_2</text>
</a>
</g>
<g id="a_node2_9"><a xlink:href="/dictionaries/mmcif_modeling_v10.unix_1.04.dic/Items/_ma_dihedral_restraints.asym_id_3.html" xlink:title="&lt;TABLE&gt;" target="_top">
<polygon fill="none" stroke="black" points="84.3127,-705.5 84.3127,-725.5 236.313,-725.5 236.313,-705.5 84.3127,-705.5"/>
<text text-anchor="start" x="89.3127" y="-713.3" font-family="Helvetica,sans-Serif" font-size="9.00">asym_id_3</text>
</a>
</g>
<g id="a_node2_10"><a xlink:href="/dictionaries/mmcif_modeling_v10.unix_1.04.dic/Items/_ma_dihedral_restraints.asym_id_4.html" xlink:title="&lt;TABLE&gt;" target="_top">
<polygon fill="none" stroke="black" points="84.3127,-685.5 84.3127,-705.5 236.313,-705.5 236.313,-685.5 84.3127,-685.5"/>
<text text-anchor="start" x="89.3127" y="-693.3" font-family="Helvetica,sans-Serif" font-size="9.00">asym_id_4</text>
</a>
</g>
<g id="a_node2_11"><a xlink:href="/dictionaries/mmcif_modeling_v10.unix_1.04.dic/Items/_ma_dihedral_restraints.atom_id_1.html" xlink:title="&lt;TABLE&gt;" target="_top">
<polygon fill="none" stroke="black" points="84.3127,-665.5 84.3127,-685.5 236.313,-685.5 236.313,-665.5 84.3127,-665.5"/>
<text text-anchor="start" x="89.3127" y="-673.3" font-family="Helvetica,sans-Serif" font-size="9.00">atom_id_1</text>
</a>
</g>
<g id="a_node2_12"><a xlink:href="/dictionaries/mmcif_modeling_v10.unix_1.04.dic/Items/_ma_dihedral_restraints.atom_id_2.html" xlink:title="&lt;TABLE&gt;" target="_top">
<polygon fill="none" stroke="black" points="84.3127,-645.5 84.3127,-665.5 236.313,-665.5 236.313,-645.5 84.3127,-645.5"/>
<text text-anchor="start" x="89.3127" y="-653.3" font-family="Helvetica,sans-Serif" font-size="9.00">atom_id_2</text>
</a>
</g>
<g id="a_node2_13"><a xlink:href="/dictionaries/mmcif_modeling_v10.unix_1.04.dic/Items/_ma_dihedral_restraints.atom_id_3.html" xlink:title="&lt;TABLE&gt;" target="_top">
<polygon fill="none" stroke="black" points="84.3127,-625.5 84.3127,-645.5 236.313,-645.5 236.313,-625.5 84.3127,-625.5"/>
<text text-anchor="start" x="89.3127" y="-633.3" font-family="Helvetica,sans-Serif" font-size="9.00">atom_id_3</text>
</a>
</g>
<g id="a_node2_14"><a xlink:href="/dictionaries/mmcif_modeling_v10.unix_1.04.dic/Items/_ma_dihedral_restraints.atom_id_4.html" xlink:title="&lt;TABLE&gt;" target="_top">
<polygon fill="none" stroke="black" points="84.3127,-605.5 84.3127,-625.5 236.313,-625.5 236.313,-605.5 84.3127,-605.5"/>
<text text-anchor="start" x="89.3127" y="-613.3" font-family="Helvetica,sans-Serif" font-size="9.00">atom_id_4</text>
</a>
</g>
<g id="a_node2_15"><a xlink:href="/dictionaries/mmcif_modeling_v10.unix_1.04.dic/Items/_ma_dihedral_restraints.comp_id_1.html" xlink:title="&lt;TABLE&gt;" target="_top">
<polygon fill="none" stroke="black" points="84.3127,-585.5 84.3127,-605.5 236.313,-605.5 236.313,-585.5 84.3127,-585.5"/>
<text text-anchor="start" x="89.3127" y="-593.3" font-family="Helvetica,sans-Serif" font-size="9.00">comp_id_1</text>
</a>
</g>
<g id="a_node2_16"><a xlink:href="/dictionaries/mmcif_modeling_v10.unix_1.04.dic/Items/_ma_dihedral_restraints.comp_id_2.html" xlink:title="&lt;TABLE&gt;" target="_top">
<polygon fill="none" stroke="black" points="84.3127,-565.5 84.3127,-585.5 236.313,-585.5 236.313,-565.5 84.3127,-565.5"/>
<text text-anchor="start" x="89.3127" y="-573.3" font-family="Helvetica,sans-Serif" font-size="9.00">comp_id_2</text>
</a>
</g>
<g id="a_node2_17"><a xlink:href="/dictionaries/mmcif_modeling_v10.unix_1.04.dic/Items/_ma_dihedral_restraints.comp_id_3.html" xlink:title="&lt;TABLE&gt;" target="_top">
<polygon fill="none" stroke="black" points="84.3127,-545.5 84.3127,-565.5 236.313,-565.5 236.313,-545.5 84.3127,-545.5"/>
<text text-anchor="start" x="89.3127" y="-553.3" font-family="Helvetica,sans-Serif" font-size="9.00">comp_id_3</text>
</a>
</g>
<g id="a_node2_18"><a xlink:href="/dictionaries/mmcif_modeling_v10.unix_1.04.dic/Items/_ma_dihedral_restraints.comp_id_4.html" xlink:title="&lt;TABLE&gt;" target="_top">
<polygon fill="none" stroke="black" points="84.3127,-525.5 84.3127,-545.5 236.313,-545.5 236.313,-525.5 84.3127,-525.5"/>
<text text-anchor="start" x="89.3127" y="-533.3" font-family="Helvetica,sans-Serif" font-size="9.00">comp_id_4</text>
</a>
</g>
<g id="a_node2_19"><a xlink:href="/dictionaries/mmcif_modeling_v10.unix_1.04.dic/Items/_ma_dihedral_restraints.dihedral_threshold.html" xlink:title="&lt;TABLE&gt;" target="_top">
<polygon fill="none" stroke="black" points="84.3127,-505.5 84.3127,-525.5 236.313,-525.5 236.313,-505.5 84.3127,-505.5"/>
<text text-anchor="start" x="89.3127" y="-513.3" font-family="Helvetica,sans-Serif" font-size="9.00">dihedral_threshold</text>
</a>
</g>
<g id="a_node2_20"><a xlink:href="/dictionaries/mmcif_modeling_v10.unix_1.04.dic/Items/_ma_dihedral_restraints.entity_id_1.html" xlink:title="&lt;TABLE&gt;" target="_top">
<polygon fill="none" stroke="black" points="84.3127,-485.5 84.3127,-505.5 236.313,-505.5 236.313,-485.5 84.3127,-485.5"/>
<text text-anchor="start" x="89.3127" y="-493.3" font-family="Helvetica,sans-Serif" font-size="9.00">entity_id_1</text>
</a>
</g>
<g id="a_node2_21"><a xlink:href="/dictionaries/mmcif_modeling_v10.unix_1.04.dic/Items/_ma_dihedral_restraints.entity_id_2.html" xlink:title="&lt;TABLE&gt;" target="_top">
<polygon fill="none" stroke="black" points="84.3127,-465.5 84.3127,-485.5 236.313,-485.5 236.313,-465.5 84.3127,-465.5"/>
<text text-anchor="start" x="89.3127" y="-473.3" font-family="Helvetica,sans-Serif" font-size="9.00">entity_id_2</text>
</a>
</g>
<g id="a_node2_22"><a xlink:href="/dictionaries/mmcif_modeling_v10.unix_1.04.dic/Items/_ma_dihedral_restraints.entity_id_3.html" xlink:title="&lt;TABLE&gt;" target="_top">
<polygon fill="none" stroke="black" points="84.3127,-445.5 84.3127,-465.5 236.313,-465.5 236.313,-445.5 84.3127,-445.5"/>
<text text-anchor="start" x="89.3127" y="-453.3" font-family="Helvetica,sans-Serif" font-size="9.00">entity_id_3</text>
</a>
</g>
<g id="a_node2_23"><a xlink:href="/dictionaries/mmcif_modeling_v10.unix_1.04.dic/Items/_ma_dihedral_restraints.entity_id_4.html" xlink:title="&lt;TABLE&gt;" target="_top">
<polygon fill="none" stroke="black" points="84.3127,-425.5 84.3127,-445.5 236.313,-445.5 236.313,-425.5 84.3127,-425.5"/>
<text text-anchor="start" x="89.3127" y="-433.3" font-family="Helvetica,sans-Serif" font-size="9.00">entity_id_4</text>
</a>
</g>
<g id="a_node2_24"><a xlink:href="/dictionaries/mmcif_modeling_v10.unix_1.04.dic/Items/_ma_dihedral_restraints.group_id.html" xlink:title="&lt;TABLE&gt;" target="_top">
<polygon fill="none" stroke="black" points="84.3127,-405.5 84.3127,-425.5 236.313,-425.5 236.313,-405.5 84.3127,-405.5"/>
<text text-anchor="start" x="89.3127" y="-413.3" font-family="Helvetica,sans-Serif" font-size="9.00">group_id</text>
</a>
</g>
<polygon fill="none" stroke="black" points="84.3127,-389.5 84.3127,-405.5 236.313,-405.5 236.313,-389.5 84.3127,-389.5"/>
<text text-anchor="start" x="129.313" y="-395.3" font-family="Helvetica,sans-Serif" font-size="9.00">... and others ...</text>
</g>
<!-- _ma_restraints -->
<g id="node4" class="node"><title>_ma_restraints</title>
<g id="a_node4_25"><a xlink:href="/dictionaries/mmcif_modeling_v10.unix_1.04.dic/Categories/ma_restraints.html" xlink:title="&lt;TABLE&gt;" target="_top">
<polygon fill="#f0027f" stroke="none" points="177.313,-324.5 177.313,-345.5 272.313,-345.5 272.313,-324.5 177.313,-324.5"/>
<polygon fill="none" stroke="black" points="177.313,-324.5 177.313,-345.5 272.313,-345.5 272.313,-324.5 177.313,-324.5"/>
<text text-anchor="start" x="182.313" y="-332.5" font-family="Helvetica,sans-Serif" font-size="10.00">MA_RESTRAINTS</text>
</a>
</g>
<g id="a_node4_26"><a xlink:href="/dictionaries/mmcif_modeling_v10.unix_1.04.dic/Items/_ma_restraints.ordinal_id.html" xlink:title="&lt;TABLE&gt;" target="_top">
<polygon fill="#ffff99" stroke="none" points="177.313,-304.5 177.313,-324.5 272.313,-324.5 272.313,-304.5 177.313,-304.5"/>
<polygon fill="none" stroke="black" points="177.313,-304.5 177.313,-324.5 272.313,-324.5 272.313,-304.5 177.313,-304.5"/>
<text text-anchor="start" x="182.313" y="-312.3" font-family="Helvetica,sans-Serif" font-size="9.00">ordinal_id</text>
</a>
</g>
<g id="a_node4_27"><a xlink:href="/dictionaries/mmcif_modeling_v10.unix_1.04.dic/Items/_ma_restraints.data_id.html" xlink:title="&lt;TABLE&gt;" target="_top">
<polygon fill="none" stroke="black" points="177.313,-284.5 177.313,-304.5 272.313,-304.5 272.313,-284.5 177.313,-284.5"/>
<text text-anchor="start" x="182.313" y="-292.3" font-family="Helvetica,sans-Serif" font-size="9.00">data_id</text>
</a>
</g>
<g id="a_node4_28"><a xlink:href="/dictionaries/mmcif_modeling_v10.unix_1.04.dic/Items/_ma_restraints.restraint_id.html" xlink:title="&lt;TABLE&gt;" target="_top">
<polygon fill="none" stroke="black" points="177.313,-264.5 177.313,-284.5 272.313,-284.5 272.313,-264.5 177.313,-264.5"/>
<text text-anchor="start" x="182.313" y="-272.3" font-family="Helvetica,sans-Serif" font-size="9.00">restraint_id</text>
</a>
</g>
<g id="a_node4_29"><a xlink:href="/dictionaries/mmcif_modeling_v10.unix_1.04.dic/Items/_ma_restraints.details.html" xlink:title="&lt;TABLE&gt;" target="_top">
<polygon fill="none" stroke="black" points="177.313,-244.5 177.313,-264.5 272.313,-264.5 272.313,-244.5 177.313,-244.5"/>
<text text-anchor="start" x="182.313" y="-252.3" font-family="Helvetica,sans-Serif" font-size="9.00">details</text>
</a>
</g>
<g id="a_node4_30"><a xlink:href="/dictionaries/mmcif_modeling_v10.unix_1.04.dic/Items/_ma_restraints.name.html" xlink:title="&lt;TABLE&gt;" target="_top">
<polygon fill="none" stroke="black" points="177.313,-224.5 177.313,-244.5 272.313,-244.5 272.313,-224.5 177.313,-224.5"/>
<text text-anchor="start" x="182.313" y="-232.3" font-family="Helvetica,sans-Serif" font-size="9.00">name</text>
</a>
</g>
<g id="a_node4_31"><a xlink:href="/dictionaries/mmcif_modeling_v10.unix_1.04.dic/Items/_ma_restraints.restraint_type.html" xlink:title="&lt;TABLE&gt;" target="_top">
<polygon fill="none" stroke="black" points="177.313,-204.5 177.313,-224.5 272.313,-224.5 272.313,-204.5 177.313,-204.5"/>
<text text-anchor="start" x="182.313" y="-212.3" font-family="Helvetica,sans-Serif" font-size="9.00">restraint_type</text>
</a>
</g>
</g>
<!-- _ma_dihedral_restraints&#45;&gt;_ma_restraints -->
<g id="edge2" class="edge"><title>_ma_dihedral_restraints:__restraint_id:w&#45;&gt;_ma_restraints:__restraint_id:w</title>
<path fill="none" stroke="black" d="M83.3127,-775.5C-26.4945,-775.5 57.6356,-304.375 166.089,-275.85"/>
<polygon fill="black" stroke="black" points="166.857,-279.279 176.313,-274.5 165.941,-272.339 166.857,-279.279"/>
</g>
<!-- _ma_distance_restraints -->
<g id="node3" class="node"><title>_ma_distance_restraints</title>
<g id="a_node3_32"><a xlink:href="/dictionaries/mmcif_modeling_v10.unix_1.04.dic/Categories/ma_distance_restraints.html" xlink:title="&lt;TABLE&gt;" target="_top">
<polygon fill="#99c49b" stroke="none" points="270.313,-767.5 270.313,-788.5 422.313,-788.5 422.313,-767.5 270.313,-767.5"/>
<polygon fill="none" stroke="black" points="270.313,-767.5 270.313,-788.5 422.313,-788.5 422.313,-767.5 270.313,-767.5"/>
<text text-anchor="start" x="275.313" y="-775.5" font-family="Helvetica,sans-Serif" font-size="10.00">MA_DISTANCE_RESTRAINTS</text>
</a>
</g>
<g id="a_node3_33"><a xlink:href="/dictionaries/mmcif_modeling_v10.unix_1.04.dic/Items/_ma_distance_restraints.ordinal_id.html" xlink:title="&lt;TABLE&gt;" target="_top">
<polygon fill="#ffff99" stroke="none" points="270.313,-747.5 270.313,-767.5 422.313,-767.5 422.313,-747.5 270.313,-747.5"/>
<polygon fill="none" stroke="black" points="270.313,-747.5 270.313,-767.5 422.313,-767.5 422.313,-747.5 270.313,-747.5"/>
<text text-anchor="start" x="275.313" y="-755.3" font-family="Helvetica,sans-Serif" font-size="9.00">ordinal_id</text>
</a>
</g>
<g id="a_node3_34"><a xlink:href="/dictionaries/mmcif_modeling_v10.unix_1.04.dic/Items/_ma_distance_restraints.restraint_id.html" xlink:title="&lt;TABLE&gt;" target="_top">
<polygon fill="none" stroke="black" points="270.313,-727.5 270.313,-747.5 422.313,-747.5 422.313,-727.5 270.313,-727.5"/>
<text text-anchor="start" x="275.313" y="-735.3" font-family="Helvetica,sans-Serif" font-size="9.00">restraint_id</text>
</a>
</g>
<g id="a_node3_35"><a xlink:href="/dictionaries/mmcif_modeling_v10.unix_1.04.dic/Items/_ma_distance_restraints.asym_id_1.html" xlink:title="&lt;TABLE&gt;" target="_top">
<polygon fill="none" stroke="black" points="270.313,-707.5 270.313,-727.5 422.313,-727.5 422.313,-707.5 270.313,-707.5"/>
<text text-anchor="start" x="275.313" y="-715.3" font-family="Helvetica,sans-Serif" font-size="9.00">asym_id_1</text>
</a>
</g>
<g id="a_node3_36"><a xlink:href="/dictionaries/mmcif_modeling_v10.unix_1.04.dic/Items/_ma_distance_restraints.asym_id_2.html" xlink:title="&lt;TABLE&gt;" target="_top">
<polygon fill="none" stroke="black" points="270.313,-687.5 270.313,-707.5 422.313,-707.5 422.313,-687.5 270.313,-687.5"/>
<text text-anchor="start" x="275.313" y="-695.3" font-family="Helvetica,sans-Serif" font-size="9.00">asym_id_2</text>
</a>
</g>
<g id="a_node3_37"><a xlink:href="/dictionaries/mmcif_modeling_v10.unix_1.04.dic/Items/_ma_distance_restraints.atom_id_1.html" xlink:title="&lt;TABLE&gt;" target="_top">
<polygon fill="none" stroke="black" points="270.313,-667.5 270.313,-687.5 422.313,-687.5 422.313,-667.5 270.313,-667.5"/>
<text text-anchor="start" x="275.313" y="-675.3" font-family="Helvetica,sans-Serif" font-size="9.00">atom_id_1</text>
</a>
</g>
<g id="a_node3_38"><a xlink:href="/dictionaries/mmcif_modeling_v10.unix_1.04.dic/Items/_ma_distance_restraints.atom_id_2.html" xlink:title="&lt;TABLE&gt;" target="_top">
<polygon fill="none" stroke="black" points="270.313,-647.5 270.313,-667.5 422.313,-667.5 422.313,-647.5 270.313,-647.5"/>
<text text-anchor="start" x="275.313" y="-655.3" font-family="Helvetica,sans-Serif" font-size="9.00">atom_id_2</text>
</a>
</g>
<g id="a_node3_39"><a xlink:href="/dictionaries/mmcif_modeling_v10.unix_1.04.dic/Items/_ma_distance_restraints.comp_id_1.html" xlink:title="&lt;TABLE&gt;" target="_top">
<polygon fill="none" stroke="black" points="270.313,-627.5 270.313,-647.5 422.313,-647.5 422.313,-627.5 270.313,-627.5"/>
<text text-anchor="start" x="275.313" y="-635.3" font-family="Helvetica,sans-Serif" font-size="9.00">comp_id_1</text>
</a>
</g>
<g id="a_node3_40"><a xlink:href="/dictionaries/mmcif_modeling_v10.unix_1.04.dic/Items/_ma_distance_restraints.comp_id_2.html" xlink:title="&lt;TABLE&gt;" target="_top">
<polygon fill="none" stroke="black" points="270.313,-607.5 270.313,-627.5 422.313,-627.5 422.313,-607.5 270.313,-607.5"/>
<text text-anchor="start" x="275.313" y="-615.3" font-family="Helvetica,sans-Serif" font-size="9.00">comp_id_2</text>
</a>
</g>
<g id="a_node3_41"><a xlink:href="/dictionaries/mmcif_modeling_v10.unix_1.04.dic/Items/_ma_distance_restraints.distance_threshold.html" xlink:title="&lt;TABLE&gt;" target="_top">
<polygon fill="none" stroke="black" points="270.313,-587.5 270.313,-607.5 422.313,-607.5 422.313,-587.5 270.313,-587.5"/>
<text text-anchor="start" x="275.313" y="-595.3" font-family="Helvetica,sans-Serif" font-size="9.00">distance_threshold</text>
</a>
</g>
<g id="a_node3_42"><a xlink:href="/dictionaries/mmcif_modeling_v10.unix_1.04.dic/Items/_ma_distance_restraints.entity_id_1.html" xlink:title="&lt;TABLE&gt;" target="_top">
<polygon fill="none" stroke="black" points="270.313,-567.5 270.313,-587.5 422.313,-587.5 422.313,-567.5 270.313,-567.5"/>
<text text-anchor="start" x="275.313" y="-575.3" font-family="Helvetica,sans-Serif" font-size="9.00">entity_id_1</text>
</a>
</g>
<g id="a_node3_43"><a xlink:href="/dictionaries/mmcif_modeling_v10.unix_1.04.dic/Items/_ma_distance_restraints.entity_id_2.html" xlink:title="&lt;TABLE&gt;" target="_top">
<polygon fill="none" stroke="black" points="270.313,-547.5 270.313,-567.5 422.313,-567.5 422.313,-547.5 270.313,-547.5"/>
<text text-anchor="start" x="275.313" y="-555.3" font-family="Helvetica,sans-Serif" font-size="9.00">entity_id_2</text>
</a>
</g>
<g id="a_node3_44"><a xlink:href="/dictionaries/mmcif_modeling_v10.unix_1.04.dic/Items/_ma_distance_restraints.group_id.html" xlink:title="&lt;TABLE&gt;" target="_top">
<polygon fill="none" stroke="black" points="270.313,-527.5 270.313,-547.5 422.313,-547.5 422.313,-527.5 270.313,-527.5"/>
<text text-anchor="start" x="275.313" y="-535.3" font-family="Helvetica,sans-Serif" font-size="9.00">group_id</text>
</a>
</g>
<g id="a_node3_45"><a xlink:href="/dictionaries/mmcif_modeling_v10.unix_1.04.dic/Items/_ma_distance_restraints.lower_limit.html" xlink:title="&lt;TABLE&gt;" target="_top">
<polygon fill="none" stroke="black" points="270.313,-507.5 270.313,-527.5 422.313,-527.5 422.313,-507.5 270.313,-507.5"/>
<text text-anchor="start" x="275.313" y="-515.3" font-family="Helvetica,sans-Serif" font-size="9.00">lower_limit</text>
</a>
</g>
<g id="a_node3_46"><a xlink:href="/dictionaries/mmcif_modeling_v10.unix_1.04.dic/Items/_ma_distance_restraints.seq_id_1.html" xlink:title="&lt;TABLE&gt;" target="_top">
<polygon fill="none" stroke="black" points="270.313,-487.5 270.313,-507.5 422.313,-507.5 422.313,-487.5 270.313,-487.5"/>
<text text-anchor="start" x="275.313" y="-495.3" font-family="Helvetica,sans-Serif" font-size="9.00">seq_id_1</text>
</a>
</g>
<g id="a_node3_47"><a xlink:href="/dictionaries/mmcif_modeling_v10.unix_1.04.dic/Items/_ma_distance_restraints.seq_id_2.html" xlink:title="&lt;TABLE&gt;" target="_top">
<polygon fill="none" stroke="black" points="270.313,-467.5 270.313,-487.5 422.313,-487.5 422.313,-467.5 270.313,-467.5"/>
<text text-anchor="start" x="275.313" y="-475.3" font-family="Helvetica,sans-Serif" font-size="9.00">seq_id_2</text>
</a>
</g>
<g id="a_node3_48"><a xlink:href="/dictionaries/mmcif_modeling_v10.unix_1.04.dic/Items/_ma_distance_restraints.uncertainty.html" xlink:title="&lt;TABLE&gt;" target="_top">
<polygon fill="none" stroke="black" points="270.313,-447.5 270.313,-467.5 422.313,-467.5 422.313,-447.5 270.313,-447.5"/>
<text text-anchor="start" x="275.313" y="-455.3" font-family="Helvetica,sans-Serif" font-size="9.00">uncertainty</text>
</a>
</g>
<g id="a_node3_49"><a xlink:href="/dictionaries/mmcif_modeling_v10.unix_1.04.dic/Items/_ma_distance_restraints.upper_limit.html" xlink:title="&lt;TABLE&gt;" target="_top">
<polygon fill="none" stroke="black" points="270.313,-427.5 270.313,-447.5 422.313,-447.5 422.313,-427.5 270.313,-427.5"/>
<text text-anchor="start" x="275.313" y="-435.3" font-family="Helvetica,sans-Serif" font-size="9.00">upper_limit</text>
</a>
</g>
</g>
<!-- _ma_distance_restraints&#45;&gt;_ma_restraints -->
<g id="edge3" class="edge"><title>_ma_distance_restraints:__restraint_id:w&#45;&gt;_ma_restraints:__restraint_id:w</title>
<path fill="none" stroke="black" d="M269.313,-737.5C249.765,-737.5 264.139,-402.276 253.313,-386 232.613,-354.88 197.508,-381.45 177.313,-350 161.376,-325.182 146.757,-285.667 166.235,-276.461"/>
<polygon fill="black" stroke="black" points="167.166,-279.846 176.313,-274.5 165.828,-272.975 167.166,-279.846"/>
</g>
<!-- _ma_restraints&#45;&gt;_ma_data -->
<g id="edge1" class="edge"><title>_ma_restraints:__data_id:w&#45;&gt;_ma_data:__id:w</title>
<path fill="none" stroke="black" d="M176.313,-294.5C106.56,-294.5 103.154,-145.22 166.095,-130.642"/>
<polygon fill="black" stroke="black" points="166.763,-134.089 176.313,-129.5 165.986,-127.132 166.763,-134.089"/>
</g>
</g>
</svg>
