<?xml version="1.0" encoding="UTF-8" standalone="no"?>
<!DOCTYPE svg PUBLIC "-//W3C//DTD SVG 1.1//EN"
 "http://www.w3.org/Graphics/SVG/1.1/DTD/svg11.dtd">
<!-- Generated by graphviz version 2.38.0 (20140413.2041)
 -->
<!-- Title: ma_restraints Pages: 1 -->
<svg width="747pt" height="839pt"
 viewBox="0.00 0.00 747.33 839.00" xmlns="http://www.w3.org/2000/svg" xmlns:xlink="http://www.w3.org/1999/xlink">
<g id="graph0" class="graph" transform="scale(1 1) rotate(0) translate(4 835)">
<title>ma_restraints</title>
<polygon fill="white" stroke="none" points="-4,4 -4,-835 743.33,-835 743.33,4 -4,4"/>
<text text-anchor="start" x="366.665" y="-58.6" font-family="Helvetica,sans-Serif" font-size="18.00"> </text>
<text text-anchor="start" x="366.665" y="-40.6" font-family="Helvetica,sans-Serif" font-size="18.00"> </text>
<text text-anchor="start" x="146.665" y="-22.6" font-family="Helvetica,sans-Serif" font-size="18.00"> Category Relationship Diagram for </text>
<text text-anchor="start" x="429.665" y="-22.6" font-family="Helvetica,sans-Serif" font-weight="bold" font-size="18.00">MA_RESTRAINTS</text>
<text text-anchor="start" x="582.665" y="-22.6" font-family="Helvetica,sans-Serif" font-size="18.00"> </text>
<text text-anchor="start" x="588.665" y="-22.6" font-family="Helvetica,sans-Serif" font-size="14.00"> </text>
<text text-anchor="start" x="235.665" y="-7.8" font-family="Helvetica,sans-Serif" font-size="14.00"> &#160;in dictionary mmcif_pdbx.dic version 5.296 </text>
<!-- _ma_angle_restraints -->
<g id="node1" class="node"><title>_ma_angle_restraints</title>
<g id="a_node1_0"><a xlink:href="/dictionaries/mmcif_pdbx_modeling_extension_all.dic/Categories/ma_angle_restraints.html" xlink:title="&lt;TABLE&gt;" target="_top">
<polygon fill="#99c49b" stroke="none" points="53.8296,-805.5 53.8296,-826.5 187.83,-826.5 187.83,-805.5 53.8296,-805.5"/>
<polygon fill="none" stroke="black" points="53.8296,-805.5 53.8296,-826.5 187.83,-826.5 187.83,-805.5 53.8296,-805.5"/>
<text text-anchor="start" x="58.8296" y="-813.5" font-family="Helvetica,sans-Serif" font-size="10.00">MA_ANGLE_RESTRAINTS</text>
</a>
</g>
<g id="a_node1_1"><a xlink:href="/dictionaries/mmcif_pdbx_modeling_extension_all.dic/Items/_ma_angle_restraints.ordinal_id.html" xlink:title="&lt;TABLE&gt;" target="_top">
<polygon fill="#ffff99" stroke="none" points="53.8296,-785.5 53.8296,-805.5 187.83,-805.5 187.83,-785.5 53.8296,-785.5"/>
<polygon fill="none" stroke="black" points="53.8296,-785.5 53.8296,-805.5 187.83,-805.5 187.83,-785.5 53.8296,-785.5"/>
<text text-anchor="start" x="58.8296" y="-793.3" font-family="Helvetica,sans-Serif" font-size="9.00">ordinal_id</text>
</a>
</g>
<g id="a_node1_2"><a xlink:href="/dictionaries/mmcif_pdbx_modeling_extension_all.dic/Items/_ma_angle_restraints.restraint_id.html" xlink:title="&lt;TABLE&gt;" target="_top">
<polygon fill="none" stroke="black" points="53.8296,-765.5 53.8296,-785.5 187.83,-785.5 187.83,-765.5 53.8296,-765.5"/>
<text text-anchor="start" x="58.8296" y="-773.3" font-family="Helvetica,sans-Serif" font-size="9.00">restraint_id</text>
</a>
</g>
<g id="a_node1_3"><a xlink:href="/dictionaries/mmcif_pdbx_modeling_extension_all.dic/Items/_ma_angle_restraints.asym_id_1.html" xlink:title="&lt;TABLE&gt;" target="_top">
<polygon fill="none" stroke="black" points="53.8296,-745.5 53.8296,-765.5 187.83,-765.5 187.83,-745.5 53.8296,-745.5"/>
<text text-anchor="start" x="58.8296" y="-753.3" font-family="Helvetica,sans-Serif" font-size="9.00">asym_id_1</text>
</a>
</g>
<g id="a_node1_4"><a xlink:href="/dictionaries/mmcif_pdbx_modeling_extension_all.dic/Items/_ma_angle_restraints.asym_id_2.html" xlink:title="&lt;TABLE&gt;" target="_top">
<polygon fill="none" stroke="black" points="53.8296,-725.5 53.8296,-745.5 187.83,-745.5 187.83,-725.5 53.8296,-725.5"/>
<text text-anchor="start" x="58.8296" y="-733.3" font-family="Helvetica,sans-Serif" font-size="9.00">asym_id_2</text>
</a>
</g>
<g id="a_node1_5"><a xlink:href="/dictionaries/mmcif_pdbx_modeling_extension_all.dic/Items/_ma_angle_restraints.asym_id_3.html" xlink:title="&lt;TABLE&gt;" target="_top">
<polygon fill="none" stroke="black" points="53.8296,-705.5 53.8296,-725.5 187.83,-725.5 187.83,-705.5 53.8296,-705.5"/>
<text text-anchor="start" x="58.8296" y="-713.3" font-family="Helvetica,sans-Serif" font-size="9.00">asym_id_3</text>
</a>
</g>
<g id="a_node1_6"><a xlink:href="/dictionaries/mmcif_pdbx_modeling_extension_all.dic/Items/_ma_angle_restraints.atom_id_1.html" xlink:title="&lt;TABLE&gt;" target="_top">
<polygon fill="none" stroke="black" points="53.8296,-685.5 53.8296,-705.5 187.83,-705.5 187.83,-685.5 53.8296,-685.5"/>
<text text-anchor="start" x="58.8296" y="-693.3" font-family="Helvetica,sans-Serif" font-size="9.00">atom_id_1</text>
</a>
</g>
<g id="a_node1_7"><a xlink:href="/dictionaries/mmcif_pdbx_modeling_extension_all.dic/Items/_ma_angle_restraints.atom_id_2.html" xlink:title="&lt;TABLE&gt;" target="_top">
<polygon fill="none" stroke="black" points="53.8296,-665.5 53.8296,-685.5 187.83,-685.5 187.83,-665.5 53.8296,-665.5"/>
<text text-anchor="start" x="58.8296" y="-673.3" font-family="Helvetica,sans-Serif" font-size="9.00">atom_id_2</text>
</a>
</g>
<g id="a_node1_8"><a xlink:href="/dictionaries/mmcif_pdbx_modeling_extension_all.dic/Items/_ma_angle_restraints.atom_id_3.html" xlink:title="&lt;TABLE&gt;" target="_top">
<polygon fill="none" stroke="black" points="53.8296,-645.5 53.8296,-665.5 187.83,-665.5 187.83,-645.5 53.8296,-645.5"/>
<text text-anchor="start" x="58.8296" y="-653.3" font-family="Helvetica,sans-Serif" font-size="9.00">atom_id_3</text>
</a>
</g>
<g id="a_node1_9"><a xlink:href="/dictionaries/mmcif_pdbx_modeling_extension_all.dic/Items/_ma_angle_restraints.comp_id_1.html" xlink:title="&lt;TABLE&gt;" target="_top">
<polygon fill="none" stroke="black" points="53.8296,-625.5 53.8296,-645.5 187.83,-645.5 187.83,-625.5 53.8296,-625.5"/>
<text text-anchor="start" x="58.8296" y="-633.3" font-family="Helvetica,sans-Serif" font-size="9.00">comp_id_1</text>
</a>
</g>
<g id="a_node1_10"><a xlink:href="/dictionaries/mmcif_pdbx_modeling_extension_all.dic/Items/_ma_angle_restraints.comp_id_2.html" xlink:title="&lt;TABLE&gt;" target="_top">
<polygon fill="none" stroke="black" points="53.8296,-605.5 53.8296,-625.5 187.83,-625.5 187.83,-605.5 53.8296,-605.5"/>
<text text-anchor="start" x="58.8296" y="-613.3" font-family="Helvetica,sans-Serif" font-size="9.00">comp_id_2</text>
</a>
</g>
<g id="a_node1_11"><a xlink:href="/dictionaries/mmcif_pdbx_modeling_extension_all.dic/Items/_ma_angle_restraints.comp_id_3.html" xlink:title="&lt;TABLE&gt;" target="_top">
<polygon fill="none" stroke="black" points="53.8296,-585.5 53.8296,-605.5 187.83,-605.5 187.83,-585.5 53.8296,-585.5"/>
<text text-anchor="start" x="58.8296" y="-593.3" font-family="Helvetica,sans-Serif" font-size="9.00">comp_id_3</text>
</a>
</g>
<g id="a_node1_12"><a xlink:href="/dictionaries/mmcif_pdbx_modeling_extension_all.dic/Items/_ma_angle_restraints.entity_id_1.html" xlink:title="&lt;TABLE&gt;" target="_top">
<polygon fill="none" stroke="black" points="53.8296,-565.5 53.8296,-585.5 187.83,-585.5 187.83,-565.5 53.8296,-565.5"/>
<text text-anchor="start" x="58.8296" y="-573.3" font-family="Helvetica,sans-Serif" font-size="9.00">entity_id_1</text>
</a>
</g>
<g id="a_node1_13"><a xlink:href="/dictionaries/mmcif_pdbx_modeling_extension_all.dic/Items/_ma_angle_restraints.entity_id_2.html" xlink:title="&lt;TABLE&gt;" target="_top">
<polygon fill="none" stroke="black" points="53.8296,-545.5 53.8296,-565.5 187.83,-565.5 187.83,-545.5 53.8296,-545.5"/>
<text text-anchor="start" x="58.8296" y="-553.3" font-family="Helvetica,sans-Serif" font-size="9.00">entity_id_2</text>
</a>
</g>
<g id="a_node1_14"><a xlink:href="/dictionaries/mmcif_pdbx_modeling_extension_all.dic/Items/_ma_angle_restraints.entity_id_3.html" xlink:title="&lt;TABLE&gt;" target="_top">
<polygon fill="none" stroke="black" points="53.8296,-525.5 53.8296,-545.5 187.83,-545.5 187.83,-525.5 53.8296,-525.5"/>
<text text-anchor="start" x="58.8296" y="-533.3" font-family="Helvetica,sans-Serif" font-size="9.00">entity_id_3</text>
</a>
</g>
<g id="a_node1_15"><a xlink:href="/dictionaries/mmcif_pdbx_modeling_extension_all.dic/Items/_ma_angle_restraints.lower_limit.html" xlink:title="&lt;TABLE&gt;" target="_top">
<polygon fill="none" stroke="black" points="53.8296,-505.5 53.8296,-525.5 187.83,-525.5 187.83,-505.5 53.8296,-505.5"/>
<text text-anchor="start" x="58.8296" y="-513.3" font-family="Helvetica,sans-Serif" font-size="9.00">lower_limit</text>
</a>
</g>
<g id="a_node1_16"><a xlink:href="/dictionaries/mmcif_pdbx_modeling_extension_all.dic/Items/_ma_angle_restraints.lower_limit_esd.html" xlink:title="&lt;TABLE&gt;" target="_top">
<polygon fill="none" stroke="black" points="53.8296,-485.5 53.8296,-505.5 187.83,-505.5 187.83,-485.5 53.8296,-485.5"/>
<text text-anchor="start" x="58.8296" y="-493.3" font-family="Helvetica,sans-Serif" font-size="9.00">lower_limit_esd</text>
</a>
</g>
<g id="a_node1_17"><a xlink:href="/dictionaries/mmcif_pdbx_modeling_extension_all.dic/Items/_ma_angle_restraints.name.html" xlink:title="&lt;TABLE&gt;" target="_top">
<polygon fill="none" stroke="black" points="53.8296,-465.5 53.8296,-485.5 187.83,-485.5 187.83,-465.5 53.8296,-465.5"/>
<text text-anchor="start" x="58.8296" y="-473.3" font-family="Helvetica,sans-Serif" font-size="9.00">name</text>
</a>
</g>
<g id="a_node1_18"><a xlink:href="/dictionaries/mmcif_pdbx_modeling_extension_all.dic/Items/_ma_angle_restraints.probability.html" xlink:title="&lt;TABLE&gt;" target="_top">
<polygon fill="none" stroke="black" points="53.8296,-445.5 53.8296,-465.5 187.83,-465.5 187.83,-445.5 53.8296,-445.5"/>
<text text-anchor="start" x="58.8296" y="-453.3" font-family="Helvetica,sans-Serif" font-size="9.00">probability</text>
</a>
</g>
<g id="a_node1_19"><a xlink:href="/dictionaries/mmcif_pdbx_modeling_extension_all.dic/Items/_ma_angle_restraints.restraint_type.html" xlink:title="&lt;TABLE&gt;" target="_top">
<polygon fill="none" stroke="black" points="53.8296,-425.5 53.8296,-445.5 187.83,-445.5 187.83,-425.5 53.8296,-425.5"/>
<text text-anchor="start" x="58.8296" y="-433.3" font-family="Helvetica,sans-Serif" font-size="9.00">restraint_type</text>
</a>
</g>
<g id="a_node1_20"><a xlink:href="/dictionaries/mmcif_pdbx_modeling_extension_all.dic/Items/_ma_angle_restraints.seq_id_1.html" xlink:title="&lt;TABLE&gt;" target="_top">
<polygon fill="none" stroke="black" points="53.8296,-405.5 53.8296,-425.5 187.83,-425.5 187.83,-405.5 53.8296,-405.5"/>
<text text-anchor="start" x="58.8296" y="-413.3" font-family="Helvetica,sans-Serif" font-size="9.00">seq_id_1</text>
</a>
</g>
<polygon fill="none" stroke="black" points="53.8296,-389.5 53.8296,-405.5 187.83,-405.5 187.83,-389.5 53.8296,-389.5"/>
<text text-anchor="start" x="89.8296" y="-395.3" font-family="Helvetica,sans-Serif" font-size="9.00">... and others ...</text>
</g>
<!-- _ma_restraints -->
<g id="node5" class="node"><title>_ma_restraints</title>
<g id="a_node5_21"><a xlink:href="/dictionaries/mmcif_pdbx_modeling_extension_all.dic/Categories/ma_restraints.html" xlink:title="&lt;TABLE&gt;" target="_top">
<polygon fill="#f0027f" stroke="none" points="314.83,-324.5 314.83,-345.5 409.83,-345.5 409.83,-324.5 314.83,-324.5"/>
<polygon fill="none" stroke="black" points="314.83,-324.5 314.83,-345.5 409.83,-345.5 409.83,-324.5 314.83,-324.5"/>
<text text-anchor="start" x="319.83" y="-332.5" font-family="Helvetica,sans-Serif" font-size="10.00">MA_RESTRAINTS</text>
</a>
</g>
<g id="a_node5_22"><a xlink:href="/dictionaries/mmcif_pdbx_modeling_extension_all.dic/Items/_ma_restraints.restraint_id.html" xlink:title="&lt;TABLE&gt;" target="_top">
<polygon fill="#ffff99" stroke="none" points="314.83,-304.5 314.83,-324.5 409.83,-324.5 409.83,-304.5 314.83,-304.5"/>
<polygon fill="none" stroke="black" points="314.83,-304.5 314.83,-324.5 409.83,-324.5 409.83,-304.5 314.83,-304.5"/>
<text text-anchor="start" x="319.83" y="-312.3" font-family="Helvetica,sans-Serif" font-size="9.00">restraint_id</text>
</a>
</g>
<g id="a_node5_23"><a xlink:href="/dictionaries/mmcif_pdbx_modeling_extension_all.dic/Items/_ma_restraints.data_id.html" xlink:title="&lt;TABLE&gt;" target="_top">
<polygon fill="none" stroke="black" points="314.83,-284.5 314.83,-304.5 409.83,-304.5 409.83,-284.5 314.83,-284.5"/>
<text text-anchor="start" x="319.83" y="-292.3" font-family="Helvetica,sans-Serif" font-size="9.00">data_id</text>
</a>
</g>
<g id="a_node5_24"><a xlink:href="/dictionaries/mmcif_pdbx_modeling_extension_all.dic/Items/_ma_restraints.details.html" xlink:title="&lt;TABLE&gt;" target="_top">
<polygon fill="none" stroke="black" points="314.83,-264.5 314.83,-284.5 409.83,-284.5 409.83,-264.5 314.83,-264.5"/>
<text text-anchor="start" x="319.83" y="-272.3" font-family="Helvetica,sans-Serif" font-size="9.00">details</text>
</a>
</g>
<g id="a_node5_25"><a xlink:href="/dictionaries/mmcif_pdbx_modeling_extension_all.dic/Items/_ma_restraints.name.html" xlink:title="&lt;TABLE&gt;" target="_top">
<polygon fill="none" stroke="black" points="314.83,-244.5 314.83,-264.5 409.83,-264.5 409.83,-244.5 314.83,-244.5"/>
<text text-anchor="start" x="319.83" y="-252.3" font-family="Helvetica,sans-Serif" font-size="9.00">name</text>
</a>
</g>
<g id="a_node5_26"><a xlink:href="/dictionaries/mmcif_pdbx_modeling_extension_all.dic/Items/_ma_restraints.restraint_type.html" xlink:title="&lt;TABLE&gt;" target="_top">
<polygon fill="none" stroke="black" points="314.83,-224.5 314.83,-244.5 409.83,-244.5 409.83,-224.5 314.83,-224.5"/>
<text text-anchor="start" x="319.83" y="-232.3" font-family="Helvetica,sans-Serif" font-size="9.00">restraint_type</text>
</a>
</g>
</g>
<!-- _ma_angle_restraints&#45;&gt;_ma_restraints -->
<g id="edge1" class="edge"><title>_ma_angle_restraints:__restraint_id:w&#45;&gt;_ma_restraints:__restraint_id:w</title>
<path fill="none" stroke="black" d="M52.8296,-775.5C-33.7262,-775.5 1.27521,-454.775 53.8296,-386 70.6002,-364.054 251.949,-321.806 303.656,-315.339"/>
<polygon fill="black" stroke="black" points="304.151,-318.81 313.83,-314.5 303.576,-311.834 304.151,-318.81"/>
</g>
<!-- _ma_data -->
<g id="node2" class="node"><title>_ma_data</title>
<g id="a_node2_27"><a xlink:href="/dictionaries/mmcif_pdbx_modeling_extension_all.dic/Categories/ma_data.html" xlink:title="&lt;TABLE&gt;" target="_top">
<polygon fill="#99c49b" stroke="none" points="314.83,-159.5 314.83,-180.5 397.83,-180.5 397.83,-159.5 314.83,-159.5"/>
<polygon fill="none" stroke="black" points="314.83,-159.5 314.83,-180.5 397.83,-180.5 397.83,-159.5 314.83,-159.5"/>
<text text-anchor="start" x="332.33" y="-167.5" font-family="Helvetica,sans-Serif" font-size="10.00">MA_DATA</text>
</a>
</g>
<g id="a_node2_28"><a xlink:href="/dictionaries/mmcif_pdbx_modeling_extension_all.dic/Items/_ma_data.id.html" xlink:title="&lt;TABLE&gt;" target="_top">
<polygon fill="#ffff99" stroke="none" points="314.83,-139.5 314.83,-159.5 397.83,-159.5 397.83,-139.5 314.83,-139.5"/>
<polygon fill="none" stroke="black" points="314.83,-139.5 314.83,-159.5 397.83,-159.5 397.83,-139.5 314.83,-139.5"/>
<text text-anchor="start" x="319.83" y="-147.3" font-family="Helvetica,sans-Serif" font-size="9.00">id</text>
</a>
</g>
<g id="a_node2_29"><a xlink:href="/dictionaries/mmcif_pdbx_modeling_extension_all.dic/Items/_ma_data.content_sub_type.html" xlink:title="&lt;TABLE&gt;" target="_top">
<polygon fill="none" stroke="black" points="314.83,-119.5 314.83,-139.5 397.83,-139.5 397.83,-119.5 314.83,-119.5"/>
<text text-anchor="start" x="319.83" y="-127.3" font-family="Helvetica,sans-Serif" font-size="9.00">content_sub_type</text>
</a>
</g>
<g id="a_node2_30"><a xlink:href="/dictionaries/mmcif_pdbx_modeling_extension_all.dic/Items/_ma_data.content_type.html" xlink:title="&lt;TABLE&gt;" target="_top">
<polygon fill="none" stroke="black" points="314.83,-99.5 314.83,-119.5 397.83,-119.5 397.83,-99.5 314.83,-99.5"/>
<text text-anchor="start" x="319.83" y="-107.3" font-family="Helvetica,sans-Serif" font-size="9.00">content_type</text>
</a>
</g>
<g id="a_node2_31"><a xlink:href="/dictionaries/mmcif_pdbx_modeling_extension_all.dic/Items/_ma_data.name.html" xlink:title="&lt;TABLE&gt;" target="_top">
<polygon fill="none" stroke="black" points="314.83,-79.5 314.83,-99.5 397.83,-99.5 397.83,-79.5 314.83,-79.5"/>
<text text-anchor="start" x="319.83" y="-87.3" font-family="Helvetica,sans-Serif" font-size="9.00">name</text>
</a>
</g>
</g>
<!-- _ma_dihedral_restraints -->
<g id="node3" class="node"><title>_ma_dihedral_restraints</title>
<g id="a_node3_32"><a xlink:href="/dictionaries/mmcif_pdbx_modeling_extension_all.dic/Categories/ma_dihedral_restraints.html" xlink:title="&lt;TABLE&gt;" target="_top">
<polygon fill="#99c49b" stroke="none" points="221.83,-805.5 221.83,-826.5 373.83,-826.5 373.83,-805.5 221.83,-805.5"/>
<polygon fill="none" stroke="black" points="221.83,-805.5 221.83,-826.5 373.83,-826.5 373.83,-805.5 221.83,-805.5"/>
<text text-anchor="start" x="226.83" y="-813.5" font-family="Helvetica,sans-Serif" font-size="10.00">MA_DIHEDRAL_RESTRAINTS</text>
</a>
</g>
<g id="a_node3_33"><a xlink:href="/dictionaries/mmcif_pdbx_modeling_extension_all.dic/Items/_ma_dihedral_restraints.ordinal_id.html" xlink:title="&lt;TABLE&gt;" target="_top">
<polygon fill="#ffff99" stroke="none" points="221.83,-785.5 221.83,-805.5 373.83,-805.5 373.83,-785.5 221.83,-785.5"/>
<polygon fill="none" stroke="black" points="221.83,-785.5 221.83,-805.5 373.83,-805.5 373.83,-785.5 221.83,-785.5"/>
<text text-anchor="start" x="226.83" y="-793.3" font-family="Helvetica,sans-Serif" font-size="9.00">ordinal_id</text>
</a>
</g>
<g id="a_node3_34"><a xlink:href="/dictionaries/mmcif_pdbx_modeling_extension_all.dic/Items/_ma_dihedral_restraints.restraint_id.html" xlink:title="&lt;TABLE&gt;" target="_top">
<polygon fill="none" stroke="black" points="221.83,-765.5 221.83,-785.5 373.83,-785.5 373.83,-765.5 221.83,-765.5"/>
<text text-anchor="start" x="226.83" y="-773.3" font-family="Helvetica,sans-Serif" font-size="9.00">restraint_id</text>
</a>
</g>
<g id="a_node3_35"><a xlink:href="/dictionaries/mmcif_pdbx_modeling_extension_all.dic/Items/_ma_dihedral_restraints.asym_id_1.html" xlink:title="&lt;TABLE&gt;" target="_top">
<polygon fill="none" stroke="black" points="221.83,-745.5 221.83,-765.5 373.83,-765.5 373.83,-745.5 221.83,-745.5"/>
<text text-anchor="start" x="226.83" y="-753.3" font-family="Helvetica,sans-Serif" font-size="9.00">asym_id_1</text>
</a>
</g>
<g id="a_node3_36"><a xlink:href="/dictionaries/mmcif_pdbx_modeling_extension_all.dic/Items/_ma_dihedral_restraints.asym_id_2.html" xlink:title="&lt;TABLE&gt;" target="_top">
<polygon fill="none" stroke="black" points="221.83,-725.5 221.83,-745.5 373.83,-745.5 373.83,-725.5 221.83,-725.5"/>
<text text-anchor="start" x="226.83" y="-733.3" font-family="Helvetica,sans-Serif" font-size="9.00">asym_id_2</text>
</a>
</g>
<g id="a_node3_37"><a xlink:href="/dictionaries/mmcif_pdbx_modeling_extension_all.dic/Items/_ma_dihedral_restraints.asym_id_3.html" xlink:title="&lt;TABLE&gt;" target="_top">
<polygon fill="none" stroke="black" points="221.83,-705.5 221.83,-725.5 373.83,-725.5 373.83,-705.5 221.83,-705.5"/>
<text text-anchor="start" x="226.83" y="-713.3" font-family="Helvetica,sans-Serif" font-size="9.00">asym_id_3</text>
</a>
</g>
<g id="a_node3_38"><a xlink:href="/dictionaries/mmcif_pdbx_modeling_extension_all.dic/Items/_ma_dihedral_restraints.asym_id_4.html" xlink:title="&lt;TABLE&gt;" target="_top">
<polygon fill="none" stroke="black" points="221.83,-685.5 221.83,-705.5 373.83,-705.5 373.83,-685.5 221.83,-685.5"/>
<text text-anchor="start" x="226.83" y="-693.3" font-family="Helvetica,sans-Serif" font-size="9.00">asym_id_4</text>
</a>
</g>
<g id="a_node3_39"><a xlink:href="/dictionaries/mmcif_pdbx_modeling_extension_all.dic/Items/_ma_dihedral_restraints.atom_id_1.html" xlink:title="&lt;TABLE&gt;" target="_top">
<polygon fill="none" stroke="black" points="221.83,-665.5 221.83,-685.5 373.83,-685.5 373.83,-665.5 221.83,-665.5"/>
<text text-anchor="start" x="226.83" y="-673.3" font-family="Helvetica,sans-Serif" font-size="9.00">atom_id_1</text>
</a>
</g>
<g id="a_node3_40"><a xlink:href="/dictionaries/mmcif_pdbx_modeling_extension_all.dic/Items/_ma_dihedral_restraints.atom_id_2.html" xlink:title="&lt;TABLE&gt;" target="_top">
<polygon fill="none" stroke="black" points="221.83,-645.5 221.83,-665.5 373.83,-665.5 373.83,-645.5 221.83,-645.5"/>
<text text-anchor="start" x="226.83" y="-653.3" font-family="Helvetica,sans-Serif" font-size="9.00">atom_id_2</text>
</a>
</g>
<g id="a_node3_41"><a xlink:href="/dictionaries/mmcif_pdbx_modeling_extension_all.dic/Items/_ma_dihedral_restraints.atom_id_3.html" xlink:title="&lt;TABLE&gt;" target="_top">
<polygon fill="none" stroke="black" points="221.83,-625.5 221.83,-645.5 373.83,-645.5 373.83,-625.5 221.83,-625.5"/>
<text text-anchor="start" x="226.83" y="-633.3" font-family="Helvetica,sans-Serif" font-size="9.00">atom_id_3</text>
</a>
</g>
<g id="a_node3_42"><a xlink:href="/dictionaries/mmcif_pdbx_modeling_extension_all.dic/Items/_ma_dihedral_restraints.atom_id_4.html" xlink:title="&lt;TABLE&gt;" target="_top">
<polygon fill="none" stroke="black" points="221.83,-605.5 221.83,-625.5 373.83,-625.5 373.83,-605.5 221.83,-605.5"/>
<text text-anchor="start" x="226.83" y="-613.3" font-family="Helvetica,sans-Serif" font-size="9.00">atom_id_4</text>
</a>
</g>
<g id="a_node3_43"><a xlink:href="/dictionaries/mmcif_pdbx_modeling_extension_all.dic/Items/_ma_dihedral_restraints.comp_id_1.html" xlink:title="&lt;TABLE&gt;" target="_top">
<polygon fill="none" stroke="black" points="221.83,-585.5 221.83,-605.5 373.83,-605.5 373.83,-585.5 221.83,-585.5"/>
<text text-anchor="start" x="226.83" y="-593.3" font-family="Helvetica,sans-Serif" font-size="9.00">comp_id_1</text>
</a>
</g>
<g id="a_node3_44"><a xlink:href="/dictionaries/mmcif_pdbx_modeling_extension_all.dic/Items/_ma_dihedral_restraints.comp_id_2.html" xlink:title="&lt;TABLE&gt;" target="_top">
<polygon fill="none" stroke="black" points="221.83,-565.5 221.83,-585.5 373.83,-585.5 373.83,-565.5 221.83,-565.5"/>
<text text-anchor="start" x="226.83" y="-573.3" font-family="Helvetica,sans-Serif" font-size="9.00">comp_id_2</text>
</a>
</g>
<g id="a_node3_45"><a xlink:href="/dictionaries/mmcif_pdbx_modeling_extension_all.dic/Items/_ma_dihedral_restraints.comp_id_3.html" xlink:title="&lt;TABLE&gt;" target="_top">
<polygon fill="none" stroke="black" points="221.83,-545.5 221.83,-565.5 373.83,-565.5 373.83,-545.5 221.83,-545.5"/>
<text text-anchor="start" x="226.83" y="-553.3" font-family="Helvetica,sans-Serif" font-size="9.00">comp_id_3</text>
</a>
</g>
<g id="a_node3_46"><a xlink:href="/dictionaries/mmcif_pdbx_modeling_extension_all.dic/Items/_ma_dihedral_restraints.comp_id_4.html" xlink:title="&lt;TABLE&gt;" target="_top">
<polygon fill="none" stroke="black" points="221.83,-525.5 221.83,-545.5 373.83,-545.5 373.83,-525.5 221.83,-525.5"/>
<text text-anchor="start" x="226.83" y="-533.3" font-family="Helvetica,sans-Serif" font-size="9.00">comp_id_4</text>
</a>
</g>
<g id="a_node3_47"><a xlink:href="/dictionaries/mmcif_pdbx_modeling_extension_all.dic/Items/_ma_dihedral_restraints.entity_id_1.html" xlink:title="&lt;TABLE&gt;" target="_top">
<polygon fill="none" stroke="black" points="221.83,-505.5 221.83,-525.5 373.83,-525.5 373.83,-505.5 221.83,-505.5"/>
<text text-anchor="start" x="226.83" y="-513.3" font-family="Helvetica,sans-Serif" font-size="9.00">entity_id_1</text>
</a>
</g>
<g id="a_node3_48"><a xlink:href="/dictionaries/mmcif_pdbx_modeling_extension_all.dic/Items/_ma_dihedral_restraints.entity_id_2.html" xlink:title="&lt;TABLE&gt;" target="_top">
<polygon fill="none" stroke="black" points="221.83,-485.5 221.83,-505.5 373.83,-505.5 373.83,-485.5 221.83,-485.5"/>
<text text-anchor="start" x="226.83" y="-493.3" font-family="Helvetica,sans-Serif" font-size="9.00">entity_id_2</text>
</a>
</g>
<g id="a_node3_49"><a xlink:href="/dictionaries/mmcif_pdbx_modeling_extension_all.dic/Items/_ma_dihedral_restraints.entity_id_3.html" xlink:title="&lt;TABLE&gt;" target="_top">
<polygon fill="none" stroke="black" points="221.83,-465.5 221.83,-485.5 373.83,-485.5 373.83,-465.5 221.83,-465.5"/>
<text text-anchor="start" x="226.83" y="-473.3" font-family="Helvetica,sans-Serif" font-size="9.00">entity_id_3</text>
</a>
</g>
<g id="a_node3_50"><a xlink:href="/dictionaries/mmcif_pdbx_modeling_extension_all.dic/Items/_ma_dihedral_restraints.entity_id_4.html" xlink:title="&lt;TABLE&gt;" target="_top">
<polygon fill="none" stroke="black" points="221.83,-445.5 221.83,-465.5 373.83,-465.5 373.83,-445.5 221.83,-445.5"/>
<text text-anchor="start" x="226.83" y="-453.3" font-family="Helvetica,sans-Serif" font-size="9.00">entity_id_4</text>
</a>
</g>
<g id="a_node3_51"><a xlink:href="/dictionaries/mmcif_pdbx_modeling_extension_all.dic/Items/_ma_dihedral_restraints.lower_limit.html" xlink:title="&lt;TABLE&gt;" target="_top">
<polygon fill="none" stroke="black" points="221.83,-425.5 221.83,-445.5 373.83,-445.5 373.83,-425.5 221.83,-425.5"/>
<text text-anchor="start" x="226.83" y="-433.3" font-family="Helvetica,sans-Serif" font-size="9.00">lower_limit</text>
</a>
</g>
<g id="a_node3_52"><a xlink:href="/dictionaries/mmcif_pdbx_modeling_extension_all.dic/Items/_ma_dihedral_restraints.lower_limit_esd.html" xlink:title="&lt;TABLE&gt;" target="_top">
<polygon fill="none" stroke="black" points="221.83,-405.5 221.83,-425.5 373.83,-425.5 373.83,-405.5 221.83,-405.5"/>
<text text-anchor="start" x="226.83" y="-413.3" font-family="Helvetica,sans-Serif" font-size="9.00">lower_limit_esd</text>
</a>
</g>
<polygon fill="none" stroke="black" points="221.83,-389.5 221.83,-405.5 373.83,-405.5 373.83,-389.5 221.83,-389.5"/>
<text text-anchor="start" x="266.83" y="-395.3" font-family="Helvetica,sans-Serif" font-size="9.00">... and others ...</text>
</g>
<!-- _ma_dihedral_restraints&#45;&gt;_ma_restraints -->
<g id="edge3" class="edge"><title>_ma_dihedral_restraints:__restraint_id:w&#45;&gt;_ma_restraints:__restraint_id:w</title>
<path fill="none" stroke="black" d="M220.83,-775.5C199.191,-775.5 212.294,-405.425 221.83,-386 243.09,-342.692 259.641,-318.02 303.679,-314.85"/>
<polygon fill="black" stroke="black" points="303.956,-318.342 313.83,-314.5 303.715,-311.346 303.956,-318.342"/>
</g>
<!-- _ma_distance_restraints -->
<g id="node4" class="node"><title>_ma_distance_restraints</title>
<g id="a_node4_53"><a xlink:href="/dictionaries/mmcif_pdbx_modeling_extension_all.dic/Categories/ma_distance_restraints.html" xlink:title="&lt;TABLE&gt;" target="_top">
<polygon fill="#99c49b" stroke="none" points="407.83,-777.5 407.83,-798.5 559.83,-798.5 559.83,-777.5 407.83,-777.5"/>
<polygon fill="none" stroke="black" points="407.83,-777.5 407.83,-798.5 559.83,-798.5 559.83,-777.5 407.83,-777.5"/>
<text text-anchor="start" x="412.83" y="-785.5" font-family="Helvetica,sans-Serif" font-size="10.00">MA_DISTANCE_RESTRAINTS</text>
</a>
</g>
<g id="a_node4_54"><a xlink:href="/dictionaries/mmcif_pdbx_modeling_extension_all.dic/Items/_ma_distance_restraints.ordinal_id.html" xlink:title="&lt;TABLE&gt;" target="_top">
<polygon fill="#ffff99" stroke="none" points="407.83,-757.5 407.83,-777.5 559.83,-777.5 559.83,-757.5 407.83,-757.5"/>
<polygon fill="none" stroke="black" points="407.83,-757.5 407.83,-777.5 559.83,-777.5 559.83,-757.5 407.83,-757.5"/>
<text text-anchor="start" x="412.83" y="-765.3" font-family="Helvetica,sans-Serif" font-size="9.00">ordinal_id</text>
</a>
</g>
<g id="a_node4_55"><a xlink:href="/dictionaries/mmcif_pdbx_modeling_extension_all.dic/Items/_ma_distance_restraints.restraint_id.html" xlink:title="&lt;TABLE&gt;" target="_top">
<polygon fill="none" stroke="black" points="407.83,-737.5 407.83,-757.5 559.83,-757.5 559.83,-737.5 407.83,-737.5"/>
<text text-anchor="start" x="412.83" y="-745.3" font-family="Helvetica,sans-Serif" font-size="9.00">restraint_id</text>
</a>
</g>
<g id="a_node4_56"><a xlink:href="/dictionaries/mmcif_pdbx_modeling_extension_all.dic/Items/_ma_distance_restraints.asym_id_1.html" xlink:title="&lt;TABLE&gt;" target="_top">
<polygon fill="none" stroke="black" points="407.83,-717.5 407.83,-737.5 559.83,-737.5 559.83,-717.5 407.83,-717.5"/>
<text text-anchor="start" x="412.83" y="-725.3" font-family="Helvetica,sans-Serif" font-size="9.00">asym_id_1</text>
</a>
</g>
<g id="a_node4_57"><a xlink:href="/dictionaries/mmcif_pdbx_modeling_extension_all.dic/Items/_ma_distance_restraints.asym_id_2.html" xlink:title="&lt;TABLE&gt;" target="_top">
<polygon fill="none" stroke="black" points="407.83,-697.5 407.83,-717.5 559.83,-717.5 559.83,-697.5 407.83,-697.5"/>
<text text-anchor="start" x="412.83" y="-705.3" font-family="Helvetica,sans-Serif" font-size="9.00">asym_id_2</text>
</a>
</g>
<g id="a_node4_58"><a xlink:href="/dictionaries/mmcif_pdbx_modeling_extension_all.dic/Items/_ma_distance_restraints.atom_id_1.html" xlink:title="&lt;TABLE&gt;" target="_top">
<polygon fill="none" stroke="black" points="407.83,-677.5 407.83,-697.5 559.83,-697.5 559.83,-677.5 407.83,-677.5"/>
<text text-anchor="start" x="412.83" y="-685.3" font-family="Helvetica,sans-Serif" font-size="9.00">atom_id_1</text>
</a>
</g>
<g id="a_node4_59"><a xlink:href="/dictionaries/mmcif_pdbx_modeling_extension_all.dic/Items/_ma_distance_restraints.atom_id_2.html" xlink:title="&lt;TABLE&gt;" target="_top">
<polygon fill="none" stroke="black" points="407.83,-657.5 407.83,-677.5 559.83,-677.5 559.83,-657.5 407.83,-657.5"/>
<text text-anchor="start" x="412.83" y="-665.3" font-family="Helvetica,sans-Serif" font-size="9.00">atom_id_2</text>
</a>
</g>
<g id="a_node4_60"><a xlink:href="/dictionaries/mmcif_pdbx_modeling_extension_all.dic/Items/_ma_distance_restraints.comp_id_1.html" xlink:title="&lt;TABLE&gt;" target="_top">
<polygon fill="none" stroke="black" points="407.83,-637.5 407.83,-657.5 559.83,-657.5 559.83,-637.5 407.83,-637.5"/>
<text text-anchor="start" x="412.83" y="-645.3" font-family="Helvetica,sans-Serif" font-size="9.00">comp_id_1</text>
</a>
</g>
<g id="a_node4_61"><a xlink:href="/dictionaries/mmcif_pdbx_modeling_extension_all.dic/Items/_ma_distance_restraints.comp_id_2.html" xlink:title="&lt;TABLE&gt;" target="_top">
<polygon fill="none" stroke="black" points="407.83,-617.5 407.83,-637.5 559.83,-637.5 559.83,-617.5 407.83,-617.5"/>
<text text-anchor="start" x="412.83" y="-625.3" font-family="Helvetica,sans-Serif" font-size="9.00">comp_id_2</text>
</a>
</g>
<g id="a_node4_62"><a xlink:href="/dictionaries/mmcif_pdbx_modeling_extension_all.dic/Items/_ma_distance_restraints.entity_id_1.html" xlink:title="&lt;TABLE&gt;" target="_top">
<polygon fill="none" stroke="black" points="407.83,-597.5 407.83,-617.5 559.83,-617.5 559.83,-597.5 407.83,-597.5"/>
<text text-anchor="start" x="412.83" y="-605.3" font-family="Helvetica,sans-Serif" font-size="9.00">entity_id_1</text>
</a>
</g>
<g id="a_node4_63"><a xlink:href="/dictionaries/mmcif_pdbx_modeling_extension_all.dic/Items/_ma_distance_restraints.entity_id_2.html" xlink:title="&lt;TABLE&gt;" target="_top">
<polygon fill="none" stroke="black" points="407.83,-577.5 407.83,-597.5 559.83,-597.5 559.83,-577.5 407.83,-577.5"/>
<text text-anchor="start" x="412.83" y="-585.3" font-family="Helvetica,sans-Serif" font-size="9.00">entity_id_2</text>
</a>
</g>
<g id="a_node4_64"><a xlink:href="/dictionaries/mmcif_pdbx_modeling_extension_all.dic/Items/_ma_distance_restraints.lower_limit.html" xlink:title="&lt;TABLE&gt;" target="_top">
<polygon fill="none" stroke="black" points="407.83,-557.5 407.83,-577.5 559.83,-577.5 559.83,-557.5 407.83,-557.5"/>
<text text-anchor="start" x="412.83" y="-565.3" font-family="Helvetica,sans-Serif" font-size="9.00">lower_limit</text>
</a>
</g>
<g id="a_node4_65"><a xlink:href="/dictionaries/mmcif_pdbx_modeling_extension_all.dic/Items/_ma_distance_restraints.lower_limit_esd.html" xlink:title="&lt;TABLE&gt;" target="_top">
<polygon fill="none" stroke="black" points="407.83,-537.5 407.83,-557.5 559.83,-557.5 559.83,-537.5 407.83,-537.5"/>
<text text-anchor="start" x="412.83" y="-545.3" font-family="Helvetica,sans-Serif" font-size="9.00">lower_limit_esd</text>
</a>
</g>
<g id="a_node4_66"><a xlink:href="/dictionaries/mmcif_pdbx_modeling_extension_all.dic/Items/_ma_distance_restraints.probability.html" xlink:title="&lt;TABLE&gt;" target="_top">
<polygon fill="none" stroke="black" points="407.83,-517.5 407.83,-537.5 559.83,-537.5 559.83,-517.5 407.83,-517.5"/>
<text text-anchor="start" x="412.83" y="-525.3" font-family="Helvetica,sans-Serif" font-size="9.00">probability</text>
</a>
</g>
<g id="a_node4_67"><a xlink:href="/dictionaries/mmcif_pdbx_modeling_extension_all.dic/Items/_ma_distance_restraints.restraint_type.html" xlink:title="&lt;TABLE&gt;" target="_top">
<polygon fill="none" stroke="black" points="407.83,-497.5 407.83,-517.5 559.83,-517.5 559.83,-497.5 407.83,-497.5"/>
<text text-anchor="start" x="412.83" y="-505.3" font-family="Helvetica,sans-Serif" font-size="9.00">restraint_type</text>
</a>
</g>
<g id="a_node4_68"><a xlink:href="/dictionaries/mmcif_pdbx_modeling_extension_all.dic/Items/_ma_distance_restraints.seq_id_1.html" xlink:title="&lt;TABLE&gt;" target="_top">
<polygon fill="none" stroke="black" points="407.83,-477.5 407.83,-497.5 559.83,-497.5 559.83,-477.5 407.83,-477.5"/>
<text text-anchor="start" x="412.83" y="-485.3" font-family="Helvetica,sans-Serif" font-size="9.00">seq_id_1</text>
</a>
</g>
<g id="a_node4_69"><a xlink:href="/dictionaries/mmcif_pdbx_modeling_extension_all.dic/Items/_ma_distance_restraints.seq_id_2.html" xlink:title="&lt;TABLE&gt;" target="_top">
<polygon fill="none" stroke="black" points="407.83,-457.5 407.83,-477.5 559.83,-477.5 559.83,-457.5 407.83,-457.5"/>
<text text-anchor="start" x="412.83" y="-465.3" font-family="Helvetica,sans-Serif" font-size="9.00">seq_id_2</text>
</a>
</g>
<g id="a_node4_70"><a xlink:href="/dictionaries/mmcif_pdbx_modeling_extension_all.dic/Items/_ma_distance_restraints.upper_limit.html" xlink:title="&lt;TABLE&gt;" target="_top">
<polygon fill="none" stroke="black" points="407.83,-437.5 407.83,-457.5 559.83,-457.5 559.83,-437.5 407.83,-437.5"/>
<text text-anchor="start" x="412.83" y="-445.3" font-family="Helvetica,sans-Serif" font-size="9.00">upper_limit</text>
</a>
</g>
<g id="a_node4_71"><a xlink:href="/dictionaries/mmcif_pdbx_modeling_extension_all.dic/Items/_ma_distance_restraints.upper_limit_esd.html" xlink:title="&lt;TABLE&gt;" target="_top">
<polygon fill="none" stroke="black" points="407.83,-417.5 407.83,-437.5 559.83,-437.5 559.83,-417.5 407.83,-417.5"/>
<text text-anchor="start" x="412.83" y="-425.3" font-family="Helvetica,sans-Serif" font-size="9.00">upper_limit_esd</text>
</a>
</g>
</g>
<!-- _ma_distance_restraints&#45;&gt;_ma_restraints -->
<g id="edge4" class="edge"><title>_ma_distance_restraints:__restraint_id:w&#45;&gt;_ma_restraints:__restraint_id:w</title>
<path fill="none" stroke="black" d="M406.83,-747.5C386.727,-747.5 401.953,-402.745 390.83,-386 370.15,-354.867 335.259,-381.298 314.83,-350 308.898,-340.913 303.189,-327.541 305.33,-320.071"/>
<polygon fill="black" stroke="black" points="307.385,-322.909 313.83,-314.5 303.547,-317.055 307.385,-322.909"/>
</g>
<!-- _ma_restraints&#45;&gt;_ma_data -->
<g id="edge2" class="edge"><title>_ma_restraints:__data_id:w&#45;&gt;_ma_data:__id:w</title>
<path fill="none" stroke="black" d="M313.83,-294.5C252.91,-294.5 249.578,-164.926 303.835,-150.754"/>
<polygon fill="black" stroke="black" points="304.343,-154.217 313.83,-149.5 303.472,-147.272 304.343,-154.217"/>
</g>
<!-- _ma_restraints_group -->
<g id="node6" class="node"><title>_ma_restraints_group</title>
<g id="a_node6_72"><a xlink:href="/dictionaries/mmcif_pdbx_modeling_extension_all.dic/Categories/ma_restraints_group.html" xlink:title="&lt;TABLE&gt;" target="_top">
<polygon fill="#99c49b" stroke="none" points="594.83,-627.5 594.83,-648.5 731.83,-648.5 731.83,-627.5 594.83,-627.5"/>
<polygon fill="none" stroke="black" points="594.83,-627.5 594.83,-648.5 731.83,-648.5 731.83,-627.5 594.83,-627.5"/>
<text text-anchor="start" x="599.83" y="-635.5" font-family="Helvetica,sans-Serif" font-size="10.00">MA_RESTRAINTS_GROUP</text>
</a>
</g>
<g id="a_node6_73"><a xlink:href="/dictionaries/mmcif_pdbx_modeling_extension_all.dic/Items/_ma_restraints_group.ordinal_id.html" xlink:title="&lt;TABLE&gt;" target="_top">
<polygon fill="#ffff99" stroke="none" points="594.83,-607.5 594.83,-627.5 731.83,-627.5 731.83,-607.5 594.83,-607.5"/>
<polygon fill="none" stroke="black" points="594.83,-607.5 594.83,-627.5 731.83,-627.5 731.83,-607.5 594.83,-607.5"/>
<text text-anchor="start" x="599.83" y="-615.3" font-family="Helvetica,sans-Serif" font-size="9.00">ordinal_id</text>
</a>
</g>
<g id="a_node6_74"><a xlink:href="/dictionaries/mmcif_pdbx_modeling_extension_all.dic/Items/_ma_restraints_group.restraint_id.html" xlink:title="&lt;TABLE&gt;" target="_top">
<polygon fill="none" stroke="black" points="594.83,-587.5 594.83,-607.5 731.83,-607.5 731.83,-587.5 594.83,-587.5"/>
<text text-anchor="start" x="599.83" y="-595.3" font-family="Helvetica,sans-Serif" font-size="9.00">restraint_id</text>
</a>
</g>
<g id="a_node6_75"><a xlink:href="/dictionaries/mmcif_pdbx_modeling_extension_all.dic/Items/_ma_restraints_group.group_id.html" xlink:title="&lt;TABLE&gt;" target="_top">
<polygon fill="none" stroke="black" points="594.83,-567.5 594.83,-587.5 731.83,-587.5 731.83,-567.5 594.83,-567.5"/>
<text text-anchor="start" x="599.83" y="-575.3" font-family="Helvetica,sans-Serif" font-size="9.00">group_id</text>
</a>
</g>
</g>
<!-- _ma_restraints_group&#45;&gt;_ma_restraints -->
<g id="edge5" class="edge"><title>_ma_restraints_group:__restraint_id:w&#45;&gt;_ma_restraints:__restraint_id:w</title>
<path fill="none" stroke="black" d="M593.83,-597.5C570.254,-597.5 593.024,-403.134 576.83,-386 496.091,-300.58 393.318,-437.492 314.83,-350 307.419,-341.739 302.132,-327.544 305.132,-319.844"/>
<polygon fill="black" stroke="black" points="307.142,-322.717 313.83,-314.5 303.477,-316.753 307.142,-322.717"/>
</g>
</g>
</svg>
