<?xml version="1.0" encoding="UTF-8" standalone="no"?>
<!DOCTYPE svg PUBLIC "-//W3C//DTD SVG 1.1//EN"
 "http://www.w3.org/Graphics/SVG/1.1/DTD/svg11.dtd">
<!-- Generated by graphviz version 2.38.0 (20140413.2041)
 -->
<!-- Title: ma_restraints_group Pages: 1 -->
<svg width="546pt" height="338pt"
 viewBox="0.00 0.00 546.00 338.00" xmlns="http://www.w3.org/2000/svg" xmlns:xlink="http://www.w3.org/1999/xlink">
<g id="graph0" class="graph" transform="scale(1 1) rotate(0) translate(4 334)">
<title>ma_restraints_group</title>
<polygon fill="white" stroke="none" points="-4,4 -4,-334 542,-334 542,4 -4,4"/>
<text text-anchor="start" x="266" y="-58.6" font-family="Helvetica,sans-Serif" font-size="18.00"> </text>
<text text-anchor="start" x="266" y="-40.6" font-family="Helvetica,sans-Serif" font-size="18.00"> </text>
<text text-anchor="start" x="8" y="-22.6" font-family="Helvetica,sans-Serif" font-size="18.00"> Category Relationship Diagram for </text>
<text text-anchor="start" x="291" y="-22.6" font-family="Helvetica,sans-Serif" font-weight="bold" font-size="18.00">MA_RESTRAINTS_GROUP</text>
<text text-anchor="start" x="520" y="-22.6" font-family="Helvetica,sans-Serif" font-size="18.00"> </text>
<text text-anchor="start" x="526" y="-22.6" font-family="Helvetica,sans-Serif" font-size="14.00"> </text>
<text text-anchor="start" x="135" y="-7.8" font-family="Helvetica,sans-Serif" font-size="14.00"> &#160;in dictionary mmcif_pdbx.dic version 5.296 </text>
<!-- _ma_restraints -->
<g id="node1" class="node"><title>_ma_restraints</title>
<g id="a_node1_0"><a xlink:href="/dictionaries/mmcif_pdbx_modeling_extension_all.dic/Categories/ma_restraints.html" xlink:title="&lt;TABLE&gt;" target="_top">
<polygon fill="#99c49b" stroke="none" points="214.853,-179.5 214.853,-200.5 309.853,-200.5 309.853,-179.5 214.853,-179.5"/>
<polygon fill="none" stroke="black" points="214.853,-179.5 214.853,-200.5 309.853,-200.5 309.853,-179.5 214.853,-179.5"/>
<text text-anchor="start" x="219.853" y="-187.5" font-family="Helvetica,sans-Serif" font-size="10.00">MA_RESTRAINTS</text>
</a>
</g>
<g id="a_node1_1"><a xlink:href="/dictionaries/mmcif_pdbx_modeling_extension_all.dic/Items/_ma_restraints.restraint_id.html" xlink:title="&lt;TABLE&gt;" target="_top">
<polygon fill="#ffff99" stroke="none" points="214.853,-159.5 214.853,-179.5 309.853,-179.5 309.853,-159.5 214.853,-159.5"/>
<polygon fill="none" stroke="black" points="214.853,-159.5 214.853,-179.5 309.853,-179.5 309.853,-159.5 214.853,-159.5"/>
<text text-anchor="start" x="219.853" y="-167.3" font-family="Helvetica,sans-Serif" font-size="9.00">restraint_id</text>
</a>
</g>
<g id="a_node1_2"><a xlink:href="/dictionaries/mmcif_pdbx_modeling_extension_all.dic/Items/_ma_restraints.data_id.html" xlink:title="&lt;TABLE&gt;" target="_top">
<polygon fill="none" stroke="black" points="214.853,-139.5 214.853,-159.5 309.853,-159.5 309.853,-139.5 214.853,-139.5"/>
<text text-anchor="start" x="219.853" y="-147.3" font-family="Helvetica,sans-Serif" font-size="9.00">data_id</text>
</a>
</g>
<g id="a_node1_3"><a xlink:href="/dictionaries/mmcif_pdbx_modeling_extension_all.dic/Items/_ma_restraints.details.html" xlink:title="&lt;TABLE&gt;" target="_top">
<polygon fill="none" stroke="black" points="214.853,-119.5 214.853,-139.5 309.853,-139.5 309.853,-119.5 214.853,-119.5"/>
<text text-anchor="start" x="219.853" y="-127.3" font-family="Helvetica,sans-Serif" font-size="9.00">details</text>
</a>
</g>
<g id="a_node1_4"><a xlink:href="/dictionaries/mmcif_pdbx_modeling_extension_all.dic/Items/_ma_restraints.name.html" xlink:title="&lt;TABLE&gt;" target="_top">
<polygon fill="none" stroke="black" points="214.853,-99.5 214.853,-119.5 309.853,-119.5 309.853,-99.5 214.853,-99.5"/>
<text text-anchor="start" x="219.853" y="-107.3" font-family="Helvetica,sans-Serif" font-size="9.00">name</text>
</a>
</g>
<g id="a_node1_5"><a xlink:href="/dictionaries/mmcif_pdbx_modeling_extension_all.dic/Items/_ma_restraints.restraint_type.html" xlink:title="&lt;TABLE&gt;" target="_top">
<polygon fill="none" stroke="black" points="214.853,-79.5 214.853,-99.5 309.853,-99.5 309.853,-79.5 214.853,-79.5"/>
<text text-anchor="start" x="219.853" y="-87.3" font-family="Helvetica,sans-Serif" font-size="9.00">restraint_type</text>
</a>
</g>
</g>
<!-- _ma_restraints_group -->
<g id="node2" class="node"><title>_ma_restraints_group</title>
<g id="a_node2_6"><a xlink:href="/dictionaries/mmcif_pdbx_modeling_extension_all.dic/Categories/ma_restraints_group.html" xlink:title="&lt;TABLE&gt;" target="_top">
<polygon fill="#f0027f" stroke="none" points="214.853,-304.5 214.853,-325.5 351.853,-325.5 351.853,-304.5 214.853,-304.5"/>
<polygon fill="none" stroke="black" points="214.853,-304.5 214.853,-325.5 351.853,-325.5 351.853,-304.5 214.853,-304.5"/>
<text text-anchor="start" x="219.853" y="-312.5" font-family="Helvetica,sans-Serif" font-size="10.00">MA_RESTRAINTS_GROUP</text>
</a>
</g>
<g id="a_node2_7"><a xlink:href="/dictionaries/mmcif_pdbx_modeling_extension_all.dic/Items/_ma_restraints_group.ordinal_id.html" xlink:title="&lt;TABLE&gt;" target="_top">
<polygon fill="#ffff99" stroke="none" points="214.853,-284.5 214.853,-304.5 351.853,-304.5 351.853,-284.5 214.853,-284.5"/>
<polygon fill="none" stroke="black" points="214.853,-284.5 214.853,-304.5 351.853,-304.5 351.853,-284.5 214.853,-284.5"/>
<text text-anchor="start" x="219.853" y="-292.3" font-family="Helvetica,sans-Serif" font-size="9.00">ordinal_id</text>
</a>
</g>
<g id="a_node2_8"><a xlink:href="/dictionaries/mmcif_pdbx_modeling_extension_all.dic/Items/_ma_restraints_group.restraint_id.html" xlink:title="&lt;TABLE&gt;" target="_top">
<polygon fill="none" stroke="black" points="214.853,-264.5 214.853,-284.5 351.853,-284.5 351.853,-264.5 214.853,-264.5"/>
<text text-anchor="start" x="219.853" y="-272.3" font-family="Helvetica,sans-Serif" font-size="9.00">restraint_id</text>
</a>
</g>
<g id="a_node2_9"><a xlink:href="/dictionaries/mmcif_pdbx_modeling_extension_all.dic/Items/_ma_restraints_group.group_id.html" xlink:title="&lt;TABLE&gt;" target="_top">
<polygon fill="none" stroke="black" points="214.853,-244.5 214.853,-264.5 351.853,-264.5 351.853,-244.5 214.853,-244.5"/>
<text text-anchor="start" x="219.853" y="-252.3" font-family="Helvetica,sans-Serif" font-size="9.00">group_id</text>
</a>
</g>
</g>
<!-- _ma_restraints_group&#45;&gt;_ma_restraints -->
<g id="edge1" class="edge"><title>_ma_restraints_group:__restraint_id:w&#45;&gt;_ma_restraints:__restraint_id:w</title>
<path fill="none" stroke="black" d="M213.853,-274.5C170.832,-274.5 167.471,-185.265 203.77,-171.322"/>
<polygon fill="black" stroke="black" points="204.635,-174.723 213.853,-169.5 203.39,-167.835 204.635,-174.723"/>
</g>
</g>
</svg>
