<?xml version="1.0" encoding="UTF-8" standalone="no"?>
<!DOCTYPE svg PUBLIC "-//W3C//DTD SVG 1.1//EN"
 "http://www.w3.org/Graphics/SVG/1.1/DTD/svg11.dtd">
<!-- Generated by graphviz version 2.38.0 (20140413.2041)
 -->
<!-- Title: ma_struct_assembly Pages: 1 -->
<svg width="573pt" height="1393pt"
 viewBox="0.00 0.00 573.15 1393.00" xmlns="http://www.w3.org/2000/svg" xmlns:xlink="http://www.w3.org/1999/xlink">
<g id="graph0" class="graph" transform="scale(1 1) rotate(0) translate(4 1389)">
<title>ma_struct_assembly</title>
<polygon fill="white" stroke="none" points="-4,4 -4,-1389 569.147,-1389 569.147,4 -4,4"/>
<text text-anchor="start" x="279.574" y="-58.6" font-family="Helvetica,sans-Serif" font-size="18.00"> </text>
<text text-anchor="start" x="279.574" y="-40.6" font-family="Helvetica,sans-Serif" font-size="18.00"> </text>
<text text-anchor="start" x="26.0737" y="-22.6" font-family="Helvetica,sans-Serif" font-size="18.00"> Category Relationship Diagram for </text>
<text text-anchor="start" x="309.074" y="-22.6" font-family="Helvetica,sans-Serif" font-weight="bold" font-size="18.00">MA_STRUCT_ASSEMBLY</text>
<text text-anchor="start" x="529.074" y="-22.6" font-family="Helvetica,sans-Serif" font-size="18.00"> </text>
<text text-anchor="start" x="535.074" y="-22.6" font-family="Helvetica,sans-Serif" font-size="14.00"> </text>
<text text-anchor="start" x="148.574" y="-7.8" font-family="Helvetica,sans-Serif" font-size="14.00"> &#160;in dictionary mmcif_pdbx.dic version 5.296 </text>
<!-- _entity -->
<g id="node1" class="node"><title>_entity</title>
<g id="a_node1_0"><a xlink:href="/dictionaries/mmcif_pdbx_modeling_extension_all.dic/Categories/entity.html" xlink:title="&lt;TABLE&gt;" target="_top">
<polygon fill="#99c49b" stroke="none" points="246.147,-399.5 246.147,-420.5 406.147,-420.5 406.147,-399.5 246.147,-399.5"/>
<polygon fill="none" stroke="black" points="246.147,-399.5 246.147,-420.5 406.147,-420.5 406.147,-399.5 246.147,-399.5"/>
<text text-anchor="start" x="307.647" y="-407.5" font-family="Helvetica,sans-Serif" font-size="10.00">ENTITY</text>
</a>
</g>
<g id="a_node1_1"><a xlink:href="/dictionaries/mmcif_pdbx_modeling_extension_all.dic/Items/_entity.id.html" xlink:title="&lt;TABLE&gt;" target="_top">
<polygon fill="#ffff99" stroke="none" points="246.147,-379.5 246.147,-399.5 406.147,-399.5 406.147,-379.5 246.147,-379.5"/>
<polygon fill="none" stroke="black" points="246.147,-379.5 246.147,-399.5 406.147,-399.5 406.147,-379.5 246.147,-379.5"/>
<text text-anchor="start" x="251.147" y="-387.3" font-family="Helvetica,sans-Serif" font-size="9.00">id</text>
</a>
</g>
<g id="a_node1_2"><a xlink:href="/dictionaries/mmcif_pdbx_modeling_extension_all.dic/Items/_entity.pdbx_description.html" xlink:title="&lt;TABLE&gt;" target="_top">
<polygon fill="none" stroke="black" points="246.147,-359.5 246.147,-379.5 406.147,-379.5 406.147,-359.5 246.147,-359.5"/>
<text text-anchor="start" x="251.147" y="-367.3" font-family="Helvetica,sans-Serif" font-size="9.00">pdbx_description</text>
</a>
</g>
<g id="a_node1_3"><a xlink:href="/dictionaries/mmcif_pdbx_modeling_extension_all.dic/Items/_entity.details.html" xlink:title="&lt;TABLE&gt;" target="_top">
<polygon fill="none" stroke="black" points="246.147,-339.5 246.147,-359.5 406.147,-359.5 406.147,-339.5 246.147,-339.5"/>
<text text-anchor="start" x="251.147" y="-347.3" font-family="Helvetica,sans-Serif" font-size="9.00">details</text>
</a>
</g>
<g id="a_node1_4"><a xlink:href="/dictionaries/mmcif_pdbx_modeling_extension_all.dic/Items/_entity.formula_weight.html" xlink:title="&lt;TABLE&gt;" target="_top">
<polygon fill="none" stroke="black" points="246.147,-319.5 246.147,-339.5 406.147,-339.5 406.147,-319.5 246.147,-319.5"/>
<text text-anchor="start" x="251.147" y="-327.3" font-family="Helvetica,sans-Serif" font-size="9.00">formula_weight</text>
</a>
</g>
<g id="a_node1_5"><a xlink:href="/dictionaries/mmcif_pdbx_modeling_extension_all.dic/Items/_entity.pdbx_ec.html" xlink:title="&lt;TABLE&gt;" target="_top">
<polygon fill="none" stroke="black" points="246.147,-299.5 246.147,-319.5 406.147,-319.5 406.147,-299.5 246.147,-299.5"/>
<text text-anchor="start" x="251.147" y="-307.3" font-family="Helvetica,sans-Serif" font-size="9.00">pdbx_ec</text>
</a>
</g>
<g id="a_node1_6"><a xlink:href="/dictionaries/mmcif_pdbx_modeling_extension_all.dic/Items/_entity.pdbx_entities_per_biological_unit.html" xlink:title="&lt;TABLE&gt;" target="_top">
<polygon fill="none" stroke="black" points="246.147,-279.5 246.147,-299.5 406.147,-299.5 406.147,-279.5 246.147,-279.5"/>
<text text-anchor="start" x="251.147" y="-287.3" font-family="Helvetica,sans-Serif" font-size="9.00">pdbx_entities_per_biological_unit</text>
</a>
</g>
<g id="a_node1_7"><a xlink:href="/dictionaries/mmcif_pdbx_modeling_extension_all.dic/Items/_entity.pdbx_formula_weight_exptl.html" xlink:title="&lt;TABLE&gt;" target="_top">
<polygon fill="none" stroke="black" points="246.147,-259.5 246.147,-279.5 406.147,-279.5 406.147,-259.5 246.147,-259.5"/>
<text text-anchor="start" x="251.147" y="-267.3" font-family="Helvetica,sans-Serif" font-size="9.00">pdbx_formula_weight_exptl</text>
</a>
</g>
<g id="a_node1_8"><a xlink:href="/dictionaries/mmcif_pdbx_modeling_extension_all.dic/Items/_entity.pdbx_formula_weight_exptl_method.html" xlink:title="&lt;TABLE&gt;" target="_top">
<polygon fill="none" stroke="black" points="246.147,-239.5 246.147,-259.5 406.147,-259.5 406.147,-239.5 246.147,-239.5"/>
<text text-anchor="start" x="251.147" y="-247.3" font-family="Helvetica,sans-Serif" font-size="9.00">pdbx_formula_weight_exptl_method</text>
</a>
</g>
<g id="a_node1_9"><a xlink:href="/dictionaries/mmcif_pdbx_modeling_extension_all.dic/Items/_entity.pdbx_fragment.html" xlink:title="&lt;TABLE&gt;" target="_top">
<polygon fill="none" stroke="black" points="246.147,-219.5 246.147,-239.5 406.147,-239.5 406.147,-219.5 246.147,-219.5"/>
<text text-anchor="start" x="251.147" y="-227.3" font-family="Helvetica,sans-Serif" font-size="9.00">pdbx_fragment</text>
</a>
</g>
<g id="a_node1_10"><a xlink:href="/dictionaries/mmcif_pdbx_modeling_extension_all.dic/Items/_entity.pdbx_modification.html" xlink:title="&lt;TABLE&gt;" target="_top">
<polygon fill="none" stroke="black" points="246.147,-199.5 246.147,-219.5 406.147,-219.5 406.147,-199.5 246.147,-199.5"/>
<text text-anchor="start" x="251.147" y="-207.3" font-family="Helvetica,sans-Serif" font-size="9.00">pdbx_modification</text>
</a>
</g>
<g id="a_node1_11"><a xlink:href="/dictionaries/mmcif_pdbx_modeling_extension_all.dic/Items/_entity.pdbx_mutation.html" xlink:title="&lt;TABLE&gt;" target="_top">
<polygon fill="none" stroke="black" points="246.147,-179.5 246.147,-199.5 406.147,-199.5 406.147,-179.5 246.147,-179.5"/>
<text text-anchor="start" x="251.147" y="-187.3" font-family="Helvetica,sans-Serif" font-size="9.00">pdbx_mutation</text>
</a>
</g>
<g id="a_node1_12"><a xlink:href="/dictionaries/mmcif_pdbx_modeling_extension_all.dic/Items/_entity.pdbx_number_of_molecules.html" xlink:title="&lt;TABLE&gt;" target="_top">
<polygon fill="none" stroke="black" points="246.147,-159.5 246.147,-179.5 406.147,-179.5 406.147,-159.5 246.147,-159.5"/>
<text text-anchor="start" x="251.147" y="-167.3" font-family="Helvetica,sans-Serif" font-size="9.00">pdbx_number_of_molecules</text>
</a>
</g>
<g id="a_node1_13"><a xlink:href="/dictionaries/mmcif_pdbx_modeling_extension_all.dic/Items/_entity.pdbx_parent_entity_id.html" xlink:title="&lt;TABLE&gt;" target="_top">
<polygon fill="none" stroke="black" points="246.147,-139.5 246.147,-159.5 406.147,-159.5 406.147,-139.5 246.147,-139.5"/>
<text text-anchor="start" x="251.147" y="-147.3" font-family="Helvetica,sans-Serif" font-size="9.00">pdbx_parent_entity_id</text>
</a>
</g>
<g id="a_node1_14"><a xlink:href="/dictionaries/mmcif_pdbx_modeling_extension_all.dic/Items/_entity.pdbx_target_id.html" xlink:title="&lt;TABLE&gt;" target="_top">
<polygon fill="none" stroke="black" points="246.147,-119.5 246.147,-139.5 406.147,-139.5 406.147,-119.5 246.147,-119.5"/>
<text text-anchor="start" x="251.147" y="-127.3" font-family="Helvetica,sans-Serif" font-size="9.00">pdbx_target_id</text>
</a>
</g>
<g id="a_node1_15"><a xlink:href="/dictionaries/mmcif_pdbx_modeling_extension_all.dic/Items/_entity.src_method.html" xlink:title="&lt;TABLE&gt;" target="_top">
<polygon fill="none" stroke="black" points="246.147,-99.5 246.147,-119.5 406.147,-119.5 406.147,-99.5 246.147,-99.5"/>
<text text-anchor="start" x="251.147" y="-107.3" font-family="Helvetica,sans-Serif" font-size="9.00">src_method</text>
</a>
</g>
<g id="a_node1_16"><a xlink:href="/dictionaries/mmcif_pdbx_modeling_extension_all.dic/Items/_entity.type.html" xlink:title="&lt;TABLE&gt;" target="_top">
<polygon fill="none" stroke="black" points="246.147,-79.5 246.147,-99.5 406.147,-99.5 406.147,-79.5 246.147,-79.5"/>
<text text-anchor="start" x="251.147" y="-87.3" font-family="Helvetica,sans-Serif" font-size="9.00">type</text>
</a>
</g>
</g>
<!-- _entity&#45;&gt;_entity -->
<g id="edge2" class="edge"><title>_entity:__pdbx_parent_entity_id:e&#45;&gt;_entity:__id:e</title>
<path fill="none" stroke="black" d="M406.147,-149.5C420.147,-61 432.147,-61 432.147,-269.5 432.147,-469.855 421.067,-477.682 407.778,-399.459"/>
<polygon fill="black" stroke="black" points="411.218,-398.803 406.147,-389.5 404.31,-399.934 411.218,-398.803"/>
</g>
<!-- _entity_poly_seq -->
<g id="node2" class="node"><title>_entity_poly_seq</title>
<g id="a_node2_17"><a xlink:href="/dictionaries/mmcif_pdbx_modeling_extension_all.dic/Categories/entity_poly_seq.html" xlink:title="&lt;TABLE&gt;" target="_top">
<polygon fill="#99c49b" stroke="none" points="195.147,-634.5 195.147,-655.5 299.147,-655.5 299.147,-634.5 195.147,-634.5"/>
<polygon fill="none" stroke="black" points="195.147,-634.5 195.147,-655.5 299.147,-655.5 299.147,-634.5 195.147,-634.5"/>
<text text-anchor="start" x="200.147" y="-642.5" font-family="Helvetica,sans-Serif" font-size="10.00">ENTITY_POLY_SEQ</text>
</a>
</g>
<g id="a_node2_18"><a xlink:href="/dictionaries/mmcif_pdbx_modeling_extension_all.dic/Items/_entity_poly_seq.entity_id.html" xlink:title="&lt;TABLE&gt;" target="_top">
<polygon fill="#ffff99" stroke="none" points="195.147,-614.5 195.147,-634.5 299.147,-634.5 299.147,-614.5 195.147,-614.5"/>
<polygon fill="none" stroke="black" points="195.147,-614.5 195.147,-634.5 299.147,-634.5 299.147,-614.5 195.147,-614.5"/>
<text text-anchor="start" x="200.147" y="-622.3" font-family="Helvetica,sans-Serif" font-size="9.00">entity_id</text>
</a>
</g>
<g id="a_node2_19"><a xlink:href="/dictionaries/mmcif_pdbx_modeling_extension_all.dic/Items/_entity_poly_seq.mon_id.html" xlink:title="&lt;TABLE&gt;" target="_top">
<polygon fill="#ffff99" stroke="none" points="195.147,-594.5 195.147,-614.5 299.147,-614.5 299.147,-594.5 195.147,-594.5"/>
<polygon fill="none" stroke="black" points="195.147,-594.5 195.147,-614.5 299.147,-614.5 299.147,-594.5 195.147,-594.5"/>
<text text-anchor="start" x="200.147" y="-602.3" font-family="Helvetica,sans-Serif" font-size="9.00">mon_id</text>
</a>
</g>
<g id="a_node2_20"><a xlink:href="/dictionaries/mmcif_pdbx_modeling_extension_all.dic/Items/_entity_poly_seq.num.html" xlink:title="&lt;TABLE&gt;" target="_top">
<polygon fill="#ffff99" stroke="none" points="195.147,-574.5 195.147,-594.5 299.147,-594.5 299.147,-574.5 195.147,-574.5"/>
<polygon fill="none" stroke="black" points="195.147,-574.5 195.147,-594.5 299.147,-594.5 299.147,-574.5 195.147,-574.5"/>
<text text-anchor="start" x="200.147" y="-582.3" font-family="Helvetica,sans-Serif" font-size="9.00">num</text>
</a>
</g>
<g id="a_node2_21"><a xlink:href="/dictionaries/mmcif_pdbx_modeling_extension_all.dic/Items/_entity_poly_seq.hetero.html" xlink:title="&lt;TABLE&gt;" target="_top">
<polygon fill="none" stroke="black" points="195.147,-554.5 195.147,-574.5 299.147,-574.5 299.147,-554.5 195.147,-554.5"/>
<text text-anchor="start" x="200.147" y="-562.3" font-family="Helvetica,sans-Serif" font-size="9.00">hetero</text>
</a>
</g>
</g>
<!-- _ma_model_list -->
<g id="node3" class="node"><title>_ma_model_list</title>
<g id="a_node3_22"><a xlink:href="/dictionaries/mmcif_pdbx_modeling_extension_all.dic/Categories/ma_model_list.html" xlink:title="&lt;TABLE&gt;" target="_top">
<polygon fill="#99c49b" stroke="none" points="118.147,-1359.5 118.147,-1380.5 212.147,-1380.5 212.147,-1359.5 118.147,-1359.5"/>
<polygon fill="none" stroke="black" points="118.147,-1359.5 118.147,-1380.5 212.147,-1380.5 212.147,-1359.5 118.147,-1359.5"/>
<text text-anchor="start" x="124.147" y="-1367.5" font-family="Helvetica,sans-Serif" font-size="10.00">MA_MODEL_LIST</text>
</a>
</g>
<g id="a_node3_23"><a xlink:href="/dictionaries/mmcif_pdbx_modeling_extension_all.dic/Items/_ma_model_list.ordinal_id.html" xlink:title="&lt;TABLE&gt;" target="_top">
<polygon fill="#ffff99" stroke="none" points="118.147,-1339.5 118.147,-1359.5 212.147,-1359.5 212.147,-1339.5 118.147,-1339.5"/>
<polygon fill="none" stroke="black" points="118.147,-1339.5 118.147,-1359.5 212.147,-1359.5 212.147,-1339.5 118.147,-1339.5"/>
<text text-anchor="start" x="123.147" y="-1347.3" font-family="Helvetica,sans-Serif" font-size="9.00">ordinal_id</text>
</a>
</g>
<g id="a_node3_24"><a xlink:href="/dictionaries/mmcif_pdbx_modeling_extension_all.dic/Items/_ma_model_list.assembly_id.html" xlink:title="&lt;TABLE&gt;" target="_top">
<polygon fill="none" stroke="black" points="118.147,-1319.5 118.147,-1339.5 212.147,-1339.5 212.147,-1319.5 118.147,-1319.5"/>
<text text-anchor="start" x="123.147" y="-1327.3" font-family="Helvetica,sans-Serif" font-size="9.00">assembly_id</text>
</a>
</g>
<g id="a_node3_25"><a xlink:href="/dictionaries/mmcif_pdbx_modeling_extension_all.dic/Items/_ma_model_list.model_group_id.html" xlink:title="&lt;TABLE&gt;" target="_top">
<polygon fill="none" stroke="black" points="118.147,-1299.5 118.147,-1319.5 212.147,-1319.5 212.147,-1299.5 118.147,-1299.5"/>
<text text-anchor="start" x="123.147" y="-1307.3" font-family="Helvetica,sans-Serif" font-size="9.00">model_group_id</text>
</a>
</g>
<g id="a_node3_26"><a xlink:href="/dictionaries/mmcif_pdbx_modeling_extension_all.dic/Items/_ma_model_list.model_group_name.html" xlink:title="&lt;TABLE&gt;" target="_top">
<polygon fill="none" stroke="black" points="118.147,-1279.5 118.147,-1299.5 212.147,-1299.5 212.147,-1279.5 118.147,-1279.5"/>
<text text-anchor="start" x="123.147" y="-1287.3" font-family="Helvetica,sans-Serif" font-size="9.00">model_group_name</text>
</a>
</g>
<g id="a_node3_27"><a xlink:href="/dictionaries/mmcif_pdbx_modeling_extension_all.dic/Items/_ma_model_list.model_id.html" xlink:title="&lt;TABLE&gt;" target="_top">
<polygon fill="none" stroke="black" points="118.147,-1259.5 118.147,-1279.5 212.147,-1279.5 212.147,-1259.5 118.147,-1259.5"/>
<text text-anchor="start" x="123.147" y="-1267.3" font-family="Helvetica,sans-Serif" font-size="9.00">model_id</text>
</a>
</g>
<g id="a_node3_28"><a xlink:href="/dictionaries/mmcif_pdbx_modeling_extension_all.dic/Items/_ma_model_list.model_name.html" xlink:title="&lt;TABLE&gt;" target="_top">
<polygon fill="none" stroke="black" points="118.147,-1239.5 118.147,-1259.5 212.147,-1259.5 212.147,-1239.5 118.147,-1239.5"/>
<text text-anchor="start" x="123.147" y="-1247.3" font-family="Helvetica,sans-Serif" font-size="9.00">model_name</text>
</a>
</g>
<g id="a_node3_29"><a xlink:href="/dictionaries/mmcif_pdbx_modeling_extension_all.dic/Items/_ma_model_list.protocol_id.html" xlink:title="&lt;TABLE&gt;" target="_top">
<polygon fill="none" stroke="black" points="118.147,-1219.5 118.147,-1239.5 212.147,-1239.5 212.147,-1219.5 118.147,-1219.5"/>
<text text-anchor="start" x="123.147" y="-1227.3" font-family="Helvetica,sans-Serif" font-size="9.00">protocol_id</text>
</a>
</g>
</g>
<!-- _ma_protocol_step -->
<g id="node4" class="node"><title>_ma_protocol_step</title>
<g id="a_node4_30"><a xlink:href="/dictionaries/mmcif_pdbx_modeling_extension_all.dic/Categories/ma_protocol_step.html" xlink:title="&lt;TABLE&gt;" target="_top">
<polygon fill="#99c49b" stroke="none" points="41.1475,-1154.5 41.1475,-1175.5 159.147,-1175.5 159.147,-1154.5 41.1475,-1154.5"/>
<polygon fill="none" stroke="black" points="41.1475,-1154.5 41.1475,-1175.5 159.147,-1175.5 159.147,-1154.5 41.1475,-1154.5"/>
<text text-anchor="start" x="46.1475" y="-1162.5" font-family="Helvetica,sans-Serif" font-size="10.00">MA_PROTOCOL_STEP</text>
</a>
</g>
<g id="a_node4_31"><a xlink:href="/dictionaries/mmcif_pdbx_modeling_extension_all.dic/Items/_ma_protocol_step.ordinal_id.html" xlink:title="&lt;TABLE&gt;" target="_top">
<polygon fill="#ffff99" stroke="none" points="41.1475,-1134.5 41.1475,-1154.5 159.147,-1154.5 159.147,-1134.5 41.1475,-1134.5"/>
<polygon fill="none" stroke="black" points="41.1475,-1134.5 41.1475,-1154.5 159.147,-1154.5 159.147,-1134.5 41.1475,-1134.5"/>
<text text-anchor="start" x="46.1475" y="-1142.3" font-family="Helvetica,sans-Serif" font-size="9.00">ordinal_id</text>
</a>
</g>
<g id="a_node4_32"><a xlink:href="/dictionaries/mmcif_pdbx_modeling_extension_all.dic/Items/_ma_protocol_step.assembly_id.html" xlink:title="&lt;TABLE&gt;" target="_top">
<polygon fill="none" stroke="black" points="41.1475,-1114.5 41.1475,-1134.5 159.147,-1134.5 159.147,-1114.5 41.1475,-1114.5"/>
<text text-anchor="start" x="46.1475" y="-1122.3" font-family="Helvetica,sans-Serif" font-size="9.00">assembly_id</text>
</a>
</g>
<g id="a_node4_33"><a xlink:href="/dictionaries/mmcif_pdbx_modeling_extension_all.dic/Items/_ma_protocol_step.method_type.html" xlink:title="&lt;TABLE&gt;" target="_top">
<polygon fill="none" stroke="black" points="41.1475,-1094.5 41.1475,-1114.5 159.147,-1114.5 159.147,-1094.5 41.1475,-1094.5"/>
<text text-anchor="start" x="46.1475" y="-1102.3" font-family="Helvetica,sans-Serif" font-size="9.00">method_type</text>
</a>
</g>
<g id="a_node4_34"><a xlink:href="/dictionaries/mmcif_pdbx_modeling_extension_all.dic/Items/_ma_protocol_step.name.html" xlink:title="&lt;TABLE&gt;" target="_top">
<polygon fill="none" stroke="black" points="41.1475,-1074.5 41.1475,-1094.5 159.147,-1094.5 159.147,-1074.5 41.1475,-1074.5"/>
<text text-anchor="start" x="46.1475" y="-1082.3" font-family="Helvetica,sans-Serif" font-size="9.00">name</text>
</a>
</g>
<g id="a_node4_35"><a xlink:href="/dictionaries/mmcif_pdbx_modeling_extension_all.dic/Items/_ma_protocol_step.protocol_id.html" xlink:title="&lt;TABLE&gt;" target="_top">
<polygon fill="none" stroke="black" points="41.1475,-1054.5 41.1475,-1074.5 159.147,-1074.5 159.147,-1054.5 41.1475,-1054.5"/>
<text text-anchor="start" x="46.1475" y="-1062.3" font-family="Helvetica,sans-Serif" font-size="9.00">protocol_id</text>
</a>
</g>
<g id="a_node4_36"><a xlink:href="/dictionaries/mmcif_pdbx_modeling_extension_all.dic/Items/_ma_protocol_step.software_id.html" xlink:title="&lt;TABLE&gt;" target="_top">
<polygon fill="none" stroke="black" points="41.1475,-1034.5 41.1475,-1054.5 159.147,-1054.5 159.147,-1034.5 41.1475,-1034.5"/>
<text text-anchor="start" x="46.1475" y="-1042.3" font-family="Helvetica,sans-Serif" font-size="9.00">software_id</text>
</a>
</g>
<g id="a_node4_37"><a xlink:href="/dictionaries/mmcif_pdbx_modeling_extension_all.dic/Items/_ma_protocol_step.step_id.html" xlink:title="&lt;TABLE&gt;" target="_top">
<polygon fill="none" stroke="black" points="41.1475,-1014.5 41.1475,-1034.5 159.147,-1034.5 159.147,-1014.5 41.1475,-1014.5"/>
<text text-anchor="start" x="46.1475" y="-1022.3" font-family="Helvetica,sans-Serif" font-size="9.00">step_id</text>
</a>
</g>
</g>
<!-- _ma_model_list&#45;&gt;_ma_protocol_step -->
<g id="edge8" class="edge"><title>_ma_model_list:__protocol_id:w&#45;&gt;_ma_protocol_step:__protocol_id:w</title>
<path fill="none" stroke="black" d="M117.147,-1229.5C39.8573,-1229.5 -33.8521,-1078.99 30.1836,-1065.47"/>
<polygon fill="black" stroke="black" points="30.5333,-1068.95 40.1475,-1064.5 29.8556,-1061.98 30.5333,-1068.95"/>
</g>
<!-- _ma_struct_assembly -->
<g id="node5" class="node"><title>_ma_struct_assembly</title>
<g id="a_node5_38"><a xlink:href="/dictionaries/mmcif_pdbx_modeling_extension_all.dic/Categories/ma_struct_assembly.html" xlink:title="&lt;TABLE&gt;" target="_top">
<polygon fill="#f0027f" stroke="none" points="195.147,-949.5 195.147,-970.5 326.147,-970.5 326.147,-949.5 195.147,-949.5"/>
<polygon fill="none" stroke="black" points="195.147,-949.5 195.147,-970.5 326.147,-970.5 326.147,-949.5 195.147,-949.5"/>
<text text-anchor="start" x="200.147" y="-957.5" font-family="Helvetica,sans-Serif" font-size="10.00">MA_STRUCT_ASSEMBLY</text>
</a>
</g>
<g id="a_node5_39"><a xlink:href="/dictionaries/mmcif_pdbx_modeling_extension_all.dic/Items/_ma_struct_assembly.ordinal_id.html" xlink:title="&lt;TABLE&gt;" target="_top">
<polygon fill="#ffff99" stroke="none" points="195.147,-929.5 195.147,-949.5 326.147,-949.5 326.147,-929.5 195.147,-929.5"/>
<polygon fill="none" stroke="black" points="195.147,-929.5 195.147,-949.5 326.147,-949.5 326.147,-929.5 195.147,-929.5"/>
<text text-anchor="start" x="200.147" y="-937.3" font-family="Helvetica,sans-Serif" font-size="9.00">ordinal_id</text>
</a>
</g>
<g id="a_node5_40"><a xlink:href="/dictionaries/mmcif_pdbx_modeling_extension_all.dic/Items/_ma_struct_assembly.assembly_id.html" xlink:title="&lt;TABLE&gt;" target="_top">
<polygon fill="none" stroke="black" points="195.147,-909.5 195.147,-929.5 326.147,-929.5 326.147,-909.5 195.147,-909.5"/>
<text text-anchor="start" x="200.147" y="-917.3" font-family="Helvetica,sans-Serif" font-size="9.00">assembly_id</text>
</a>
</g>
<g id="a_node5_41"><a xlink:href="/dictionaries/mmcif_pdbx_modeling_extension_all.dic/Items/_ma_struct_assembly.asym_id.html" xlink:title="&lt;TABLE&gt;" target="_top">
<polygon fill="none" stroke="black" points="195.147,-889.5 195.147,-909.5 326.147,-909.5 326.147,-889.5 195.147,-889.5"/>
<text text-anchor="start" x="200.147" y="-897.3" font-family="Helvetica,sans-Serif" font-size="9.00">asym_id</text>
</a>
</g>
<g id="a_node5_42"><a xlink:href="/dictionaries/mmcif_pdbx_modeling_extension_all.dic/Items/_ma_struct_assembly.entity_description.html" xlink:title="&lt;TABLE&gt;" target="_top">
<polygon fill="none" stroke="black" points="195.147,-869.5 195.147,-889.5 326.147,-889.5 326.147,-869.5 195.147,-869.5"/>
<text text-anchor="start" x="200.147" y="-877.3" font-family="Helvetica,sans-Serif" font-size="9.00">entity_description</text>
</a>
</g>
<g id="a_node5_43"><a xlink:href="/dictionaries/mmcif_pdbx_modeling_extension_all.dic/Items/_ma_struct_assembly.entity_id.html" xlink:title="&lt;TABLE&gt;" target="_top">
<polygon fill="none" stroke="black" points="195.147,-849.5 195.147,-869.5 326.147,-869.5 326.147,-849.5 195.147,-849.5"/>
<text text-anchor="start" x="200.147" y="-857.3" font-family="Helvetica,sans-Serif" font-size="9.00">entity_id</text>
</a>
</g>
<g id="a_node5_44"><a xlink:href="/dictionaries/mmcif_pdbx_modeling_extension_all.dic/Items/_ma_struct_assembly.parent_assembly_id.html" xlink:title="&lt;TABLE&gt;" target="_top">
<polygon fill="none" stroke="black" points="195.147,-829.5 195.147,-849.5 326.147,-849.5 326.147,-829.5 195.147,-829.5"/>
<text text-anchor="start" x="200.147" y="-837.3" font-family="Helvetica,sans-Serif" font-size="9.00">parent_assembly_id</text>
</a>
</g>
<g id="a_node5_45"><a xlink:href="/dictionaries/mmcif_pdbx_modeling_extension_all.dic/Items/_ma_struct_assembly.seq_id_begin.html" xlink:title="&lt;TABLE&gt;" target="_top">
<polygon fill="none" stroke="black" points="195.147,-809.5 195.147,-829.5 326.147,-829.5 326.147,-809.5 195.147,-809.5"/>
<text text-anchor="start" x="200.147" y="-817.3" font-family="Helvetica,sans-Serif" font-size="9.00">seq_id_begin</text>
</a>
</g>
<g id="a_node5_46"><a xlink:href="/dictionaries/mmcif_pdbx_modeling_extension_all.dic/Items/_ma_struct_assembly.seq_id_end.html" xlink:title="&lt;TABLE&gt;" target="_top">
<polygon fill="none" stroke="black" points="195.147,-789.5 195.147,-809.5 326.147,-809.5 326.147,-789.5 195.147,-789.5"/>
<text text-anchor="start" x="200.147" y="-797.3" font-family="Helvetica,sans-Serif" font-size="9.00">seq_id_end</text>
</a>
</g>
</g>
<!-- _ma_model_list&#45;&gt;_ma_struct_assembly -->
<g id="edge7" class="edge"><title>_ma_model_list:__assembly_id:w&#45;&gt;_ma_struct_assembly:__assembly_id:w</title>
<path fill="none" stroke="black" d="M117.147,-1329.5C66.7011,-1329.5 93.4302,-1259.98 118.147,-1216 133.013,-1189.55 160.493,-1205.99 176.147,-1180 189.568,-1157.72 170.075,-966.028 186.799,-926.58"/>
<polygon fill="black" stroke="black" points="189.374,-928.959 194.147,-919.5 184.518,-923.918 189.374,-928.959"/>
</g>
<!-- _ma_protocol_step&#45;&gt;_ma_struct_assembly -->
<g id="edge9" class="edge"><title>_ma_protocol_step:__assembly_id:w&#45;&gt;_ma_struct_assembly:__assembly_id:w</title>
<path fill="none" stroke="black" d="M40.1475,-1124.5C-70.4696,-1124.5 71.3985,-931.336 184.036,-920.018"/>
<polygon fill="black" stroke="black" points="184.34,-923.507 194.147,-919.5 183.982,-916.516 184.34,-923.507"/>
</g>
<!-- _ma_struct_assembly&#45;&gt;_entity -->
<g id="edge3" class="edge"><title>_ma_struct_assembly:__entity_description:w&#45;&gt;_entity:__pdbx_description:w</title>
<path fill="none" stroke="black" d="M194.147,-879.5C-30.2016,-879.5 15.8702,-384.823 234.925,-369.847"/>
<polygon fill="black" stroke="black" points="235.272,-373.337 245.147,-369.5 235.034,-366.341 235.272,-373.337"/>
</g>
<!-- _ma_struct_assembly&#45;&gt;_entity_poly_seq -->
<g id="edge4" class="edge"><title>_ma_struct_assembly:__entity_id:w&#45;&gt;_entity_poly_seq:__entity_id:w</title>
<path fill="none" stroke="black" d="M194.147,-859.5C170.739,-859.5 168.316,-670.634 186.878,-631.533"/>
<polygon fill="black" stroke="black" points="189.394,-633.969 194.147,-624.5 184.527,-628.938 189.394,-633.969"/>
</g>
<!-- _ma_struct_assembly&#45;&gt;_entity_poly_seq -->
<g id="edge5" class="edge"><title>_ma_struct_assembly:__seq_id_begin:w&#45;&gt;_entity_poly_seq:__num:w</title>
<path fill="none" stroke="black" d="M194.147,-819.5C170.739,-819.5 168.316,-630.634 186.878,-591.533"/>
<polygon fill="black" stroke="black" points="189.394,-593.969 194.147,-584.5 184.527,-588.938 189.394,-593.969"/>
</g>
<!-- _ma_struct_assembly&#45;&gt;_entity_poly_seq -->
<g id="edge6" class="edge"><title>_ma_struct_assembly:__seq_id_end:w&#45;&gt;_entity_poly_seq:__num:w</title>
<path fill="none" stroke="black" d="M194.147,-799.5C172.918,-799.5 170.555,-629.706 187.057,-591.901"/>
<polygon fill="black" stroke="black" points="189.757,-594.142 194.147,-584.5 184.702,-589.3 189.757,-594.142"/>
</g>
<!-- _ma_struct_assembly&#45;&gt;_ma_struct_assembly -->
<g id="edge10" class="edge"><title>_ma_struct_assembly:__parent_assembly_id:e&#45;&gt;_ma_struct_assembly:__assembly_id:e</title>
<path fill="none" stroke="black" d="M326.147,-839.5C339.647,-786 351.647,-786 351.647,-879.5 351.647,-966.974 341.145,-972.612 328.736,-929.167"/>
<polygon fill="black" stroke="black" points="332.115,-928.254 326.147,-919.5 325.353,-930.065 332.115,-928.254"/>
</g>
<!-- _struct_asym -->
<g id="node7" class="node"><title>_struct_asym</title>
<g id="a_node7_47"><a xlink:href="/dictionaries/mmcif_pdbx_modeling_extension_all.dic/Categories/struct_asym.html" xlink:title="&lt;TABLE&gt;" target="_top">
<polygon fill="#99c49b" stroke="none" points="333.147,-724.5 333.147,-745.5 557.147,-745.5 557.147,-724.5 333.147,-724.5"/>
<polygon fill="none" stroke="black" points="333.147,-724.5 333.147,-745.5 557.147,-745.5 557.147,-724.5 333.147,-724.5"/>
<text text-anchor="start" x="407.147" y="-732.5" font-family="Helvetica,sans-Serif" font-size="10.00">STRUCT_ASYM</text>
</a>
</g>
<g id="a_node7_48"><a xlink:href="/dictionaries/mmcif_pdbx_modeling_extension_all.dic/Items/_struct_asym.id.html" xlink:title="&lt;TABLE&gt;" target="_top">
<polygon fill="#ffff99" stroke="none" points="333.147,-704.5 333.147,-724.5 557.147,-724.5 557.147,-704.5 333.147,-704.5"/>
<polygon fill="none" stroke="black" points="333.147,-704.5 333.147,-724.5 557.147,-724.5 557.147,-704.5 333.147,-704.5"/>
<text text-anchor="start" x="338.147" y="-712.3" font-family="Helvetica,sans-Serif" font-size="9.00">id</text>
</a>
</g>
<g id="a_node7_49"><a xlink:href="/dictionaries/mmcif_pdbx_modeling_extension_all.dic/Items/_struct_asym.details.html" xlink:title="&lt;TABLE&gt;" target="_top">
<polygon fill="none" stroke="black" points="333.147,-684.5 333.147,-704.5 557.147,-704.5 557.147,-684.5 333.147,-684.5"/>
<text text-anchor="start" x="338.147" y="-692.3" font-family="Helvetica,sans-Serif" font-size="9.00">details</text>
</a>
</g>
<g id="a_node7_50"><a xlink:href="/dictionaries/mmcif_pdbx_modeling_extension_all.dic/Items/_struct_asym.entity_id.html" xlink:title="&lt;TABLE&gt;" target="_top">
<polygon fill="none" stroke="black" points="333.147,-664.5 333.147,-684.5 557.147,-684.5 557.147,-664.5 333.147,-664.5"/>
<text text-anchor="start" x="338.147" y="-672.3" font-family="Helvetica,sans-Serif" font-size="9.00">entity_id</text>
</a>
</g>
<g id="a_node7_51"><a xlink:href="/dictionaries/mmcif_pdbx_modeling_extension_all.dic/Items/_struct_asym.pdbx_PDB_id.html" xlink:title="&lt;TABLE&gt;" target="_top">
<polygon fill="none" stroke="black" points="333.147,-644.5 333.147,-664.5 557.147,-664.5 557.147,-644.5 333.147,-644.5"/>
<text text-anchor="start" x="338.147" y="-652.3" font-family="Helvetica,sans-Serif" font-size="9.00">pdbx_PDB_id</text>
</a>
</g>
<g id="a_node7_52"><a xlink:href="/dictionaries/mmcif_pdbx_modeling_extension_all.dic/Items/_struct_asym.pdbx_alt_id.html" xlink:title="&lt;TABLE&gt;" target="_top">
<polygon fill="none" stroke="black" points="333.147,-624.5 333.147,-644.5 557.147,-644.5 557.147,-624.5 333.147,-624.5"/>
<text text-anchor="start" x="338.147" y="-632.3" font-family="Helvetica,sans-Serif" font-size="9.00">pdbx_alt_id</text>
</a>
</g>
<g id="a_node7_53"><a xlink:href="/dictionaries/mmcif_pdbx_modeling_extension_all.dic/Items/_struct_asym.pdbx_blank_PDB_chainid_flag.html" xlink:title="&lt;TABLE&gt;" target="_top">
<polygon fill="none" stroke="black" points="333.147,-604.5 333.147,-624.5 557.147,-624.5 557.147,-604.5 333.147,-604.5"/>
<text text-anchor="start" x="338.147" y="-612.3" font-family="Helvetica,sans-Serif" font-size="9.00">pdbx_blank_PDB_chainid_flag</text>
</a>
</g>
<g id="a_node7_54"><a xlink:href="/dictionaries/mmcif_pdbx_modeling_extension_all.dic/Items/_struct_asym.pdbx_fraction_per_asym_unit.html" xlink:title="&lt;TABLE&gt;" target="_top">
<polygon fill="none" stroke="black" points="333.147,-584.5 333.147,-604.5 557.147,-604.5 557.147,-584.5 333.147,-584.5"/>
<text text-anchor="start" x="338.147" y="-592.3" font-family="Helvetica,sans-Serif" font-size="9.00">pdbx_fraction_per_asym_unit</text>
</a>
</g>
<g id="a_node7_55"><a xlink:href="/dictionaries/mmcif_pdbx_modeling_extension_all.dic/Items/_struct_asym.pdbx_missing_num_begin_of_chain_in_seqres.html" xlink:title="&lt;TABLE&gt;" target="_top">
<polygon fill="none" stroke="black" points="333.147,-564.5 333.147,-584.5 557.147,-584.5 557.147,-564.5 333.147,-564.5"/>
<text text-anchor="start" x="338.147" y="-572.3" font-family="Helvetica,sans-Serif" font-size="9.00">pdbx_missing_num_begin_of_chain_in_seqres</text>
</a>
</g>
<g id="a_node7_56"><a xlink:href="/dictionaries/mmcif_pdbx_modeling_extension_all.dic/Items/_struct_asym.pdbx_missing_num_begin_of_chain_not_in_seqres.html" xlink:title="&lt;TABLE&gt;" target="_top">
<polygon fill="none" stroke="black" points="333.147,-544.5 333.147,-564.5 557.147,-564.5 557.147,-544.5 333.147,-544.5"/>
<text text-anchor="start" x="338.147" y="-552.3" font-family="Helvetica,sans-Serif" font-size="9.00">pdbx_missing_num_begin_of_chain_not_in_seqres</text>
</a>
</g>
<g id="a_node7_57"><a xlink:href="/dictionaries/mmcif_pdbx_modeling_extension_all.dic/Items/_struct_asym.pdbx_missing_num_end_of_chain_not_in_seqres.html" xlink:title="&lt;TABLE&gt;" target="_top">
<polygon fill="none" stroke="black" points="333.147,-524.5 333.147,-544.5 557.147,-544.5 557.147,-524.5 333.147,-524.5"/>
<text text-anchor="start" x="338.147" y="-532.3" font-family="Helvetica,sans-Serif" font-size="9.00">pdbx_missing_num_end_of_chain_not_in_seqres</text>
</a>
</g>
<g id="a_node7_58"><a xlink:href="/dictionaries/mmcif_pdbx_modeling_extension_all.dic/Items/_struct_asym.pdbx_modified.html" xlink:title="&lt;TABLE&gt;" target="_top">
<polygon fill="none" stroke="black" points="333.147,-504.5 333.147,-524.5 557.147,-524.5 557.147,-504.5 333.147,-504.5"/>
<text text-anchor="start" x="338.147" y="-512.3" font-family="Helvetica,sans-Serif" font-size="9.00">pdbx_modified</text>
</a>
</g>
<g id="a_node7_59"><a xlink:href="/dictionaries/mmcif_pdbx_modeling_extension_all.dic/Items/_struct_asym.pdbx_order.html" xlink:title="&lt;TABLE&gt;" target="_top">
<polygon fill="none" stroke="black" points="333.147,-484.5 333.147,-504.5 557.147,-504.5 557.147,-484.5 333.147,-484.5"/>
<text text-anchor="start" x="338.147" y="-492.3" font-family="Helvetica,sans-Serif" font-size="9.00">pdbx_order</text>
</a>
</g>
<g id="a_node7_60"><a xlink:href="/dictionaries/mmcif_pdbx_modeling_extension_all.dic/Items/_struct_asym.pdbx_type.html" xlink:title="&lt;TABLE&gt;" target="_top">
<polygon fill="none" stroke="black" points="333.147,-464.5 333.147,-484.5 557.147,-484.5 557.147,-464.5 333.147,-464.5"/>
<text text-anchor="start" x="338.147" y="-472.3" font-family="Helvetica,sans-Serif" font-size="9.00">pdbx_type</text>
</a>
</g>
</g>
<!-- _ma_struct_assembly&#45;&gt;_struct_asym -->
<g id="edge12" class="edge"><title>_ma_struct_assembly:__asym_id:w&#45;&gt;_struct_asym:__id:w</title>
<path fill="none" stroke="black" d="M194.147,-899.5C143.701,-899.5 164.811,-826.305 195.147,-786 228.889,-741.172 273.902,-786.923 316.147,-750 325.31,-741.992 320.942,-727.695 323.557,-719.911"/>
<polygon fill="black" stroke="black" points="325.552,-722.791 332.147,-714.5 321.821,-716.868 325.552,-722.791"/>
</g>
<!-- _ma_struct_assembly_details -->
<g id="node6" class="node"><title>_ma_struct_assembly_details</title>
<g id="a_node6_61"><a xlink:href="/dictionaries/mmcif_pdbx_modeling_extension_all.dic/Categories/ma_struct_assembly_details.html" xlink:title="&lt;TABLE&gt;" target="_top">
<polygon fill="#99c49b" stroke="none" points="231.147,-1114.5 231.147,-1135.5 410.147,-1135.5 410.147,-1114.5 231.147,-1114.5"/>
<polygon fill="none" stroke="black" points="231.147,-1114.5 231.147,-1135.5 410.147,-1135.5 410.147,-1114.5 231.147,-1114.5"/>
<text text-anchor="start" x="236.147" y="-1122.5" font-family="Helvetica,sans-Serif" font-size="10.00">MA_STRUCT_ASSEMBLY_DETAILS</text>
</a>
</g>
<g id="a_node6_62"><a xlink:href="/dictionaries/mmcif_pdbx_modeling_extension_all.dic/Items/_ma_struct_assembly_details.assembly_id.html" xlink:title="&lt;TABLE&gt;" target="_top">
<polygon fill="#ffff99" stroke="none" points="231.147,-1094.5 231.147,-1114.5 410.147,-1114.5 410.147,-1094.5 231.147,-1094.5"/>
<polygon fill="none" stroke="black" points="231.147,-1094.5 231.147,-1114.5 410.147,-1114.5 410.147,-1094.5 231.147,-1094.5"/>
<text text-anchor="start" x="236.147" y="-1102.3" font-family="Helvetica,sans-Serif" font-size="9.00">assembly_id</text>
</a>
</g>
<g id="a_node6_63"><a xlink:href="/dictionaries/mmcif_pdbx_modeling_extension_all.dic/Items/_ma_struct_assembly_details.assembly_description.html" xlink:title="&lt;TABLE&gt;" target="_top">
<polygon fill="none" stroke="black" points="231.147,-1074.5 231.147,-1094.5 410.147,-1094.5 410.147,-1074.5 231.147,-1074.5"/>
<text text-anchor="start" x="236.147" y="-1082.3" font-family="Helvetica,sans-Serif" font-size="9.00">assembly_description</text>
</a>
</g>
<g id="a_node6_64"><a xlink:href="/dictionaries/mmcif_pdbx_modeling_extension_all.dic/Items/_ma_struct_assembly_details.assembly_name.html" xlink:title="&lt;TABLE&gt;" target="_top">
<polygon fill="none" stroke="black" points="231.147,-1054.5 231.147,-1074.5 410.147,-1074.5 410.147,-1054.5 231.147,-1054.5"/>
<text text-anchor="start" x="236.147" y="-1062.3" font-family="Helvetica,sans-Serif" font-size="9.00">assembly_name</text>
</a>
</g>
</g>
<!-- _ma_struct_assembly_details&#45;&gt;_ma_struct_assembly -->
<g id="edge11" class="edge"><title>_ma_struct_assembly_details:__assembly_id:w&#45;&gt;_ma_struct_assembly:__assembly_id:w</title>
<path fill="none" stroke="black" d="M230.147,-1104.5C208.852,-1104.5 215.357,-1031.37 209.147,-1011 204.141,-994.579 198.465,-991.844 195.147,-975 191.311,-955.522 177.027,-931.454 184.448,-922.795"/>
<polygon fill="black" stroke="black" points="185.805,-926.031 194.147,-919.5 183.553,-919.403 185.805,-926.031"/>
</g>
<!-- _struct_asym&#45;&gt;_entity -->
<g id="edge1" class="edge"><title>_struct_asym:__entity_id:w&#45;&gt;_entity:__id:w</title>
<path fill="none" stroke="black" d="M332.147,-674.5C308.359,-674.5 329.289,-480.829 316.147,-461 296.821,-431.839 264.789,-454.604 246.147,-425 240.365,-415.817 234.6,-402.482 236.691,-395.043"/>
<polygon fill="black" stroke="black" points="238.703,-397.91 245.147,-389.5 234.865,-392.055 238.703,-397.91"/>
</g>
</g>
</svg>
