<?xml version="1.0" encoding="UTF-8" standalone="no"?>
<!DOCTYPE svg PUBLIC "-//W3C//DTD SVG 1.1//EN"
 "http://www.w3.org/Graphics/SVG/1.1/DTD/svg11.dtd">
<!-- Generated by graphviz version 2.38.0 (20140413.2041)
 -->
<!-- Title: ma_step_output Pages: 1 -->
<svg width="486pt" height="398pt"
 viewBox="0.00 0.00 486.00 398.00" xmlns="http://www.w3.org/2000/svg" xmlns:xlink="http://www.w3.org/1999/xlink">
<g id="graph0" class="graph" transform="scale(1 1) rotate(0) translate(4 394)">
<title>ma_step_output</title>
<polygon fill="white" stroke="none" points="-4,4 -4,-394 482,-394 482,4 -4,4"/>
<text text-anchor="start" x="236" y="-58.6" font-family="Helvetica,sans-Serif" font-size="18.00"> </text>
<text text-anchor="start" x="236" y="-40.6" font-family="Helvetica,sans-Serif" font-size="18.00"> </text>
<text text-anchor="start" x="8" y="-22.6" font-family="Helvetica,sans-Serif" font-size="18.00"> Category Relationship Diagram for </text>
<text text-anchor="start" x="291" y="-22.6" font-family="Helvetica,sans-Serif" font-weight="bold" font-size="18.00">MA_STEP_OUTPUT</text>
<text text-anchor="start" x="460" y="-22.6" font-family="Helvetica,sans-Serif" font-size="18.00"> </text>
<text text-anchor="start" x="466" y="-22.6" font-family="Helvetica,sans-Serif" font-size="14.00"> </text>
<text text-anchor="start" x="105" y="-7.8" font-family="Helvetica,sans-Serif" font-size="14.00"> &#160;in dictionary mmcif_pdbx.dic version 5.296 </text>
<!-- _ma_data_group -->
<g id="node1" class="node"><title>_ma_data_group</title>
<g id="a_node1_0"><a xlink:href="/dictionaries/mmcif_pdbx_modeling_extension_all.dic/Categories/ma_data_group.html" xlink:title="&lt;TABLE&gt;" target="_top">
<polygon fill="#99c49b" stroke="none" points="116.101,-179.5 116.101,-200.5 216.101,-200.5 216.101,-179.5 116.101,-179.5"/>
<polygon fill="none" stroke="black" points="116.101,-179.5 116.101,-200.5 216.101,-200.5 216.101,-179.5 116.101,-179.5"/>
<text text-anchor="start" x="121.101" y="-187.5" font-family="Helvetica,sans-Serif" font-size="10.00">MA_DATA_GROUP</text>
</a>
</g>
<g id="a_node1_1"><a xlink:href="/dictionaries/mmcif_pdbx_modeling_extension_all.dic/Items/_ma_data_group.ordinal_id.html" xlink:title="&lt;TABLE&gt;" target="_top">
<polygon fill="#ffff99" stroke="none" points="116.101,-159.5 116.101,-179.5 216.101,-179.5 216.101,-159.5 116.101,-159.5"/>
<polygon fill="none" stroke="black" points="116.101,-159.5 116.101,-179.5 216.101,-179.5 216.101,-159.5 116.101,-159.5"/>
<text text-anchor="start" x="121.101" y="-167.3" font-family="Helvetica,sans-Serif" font-size="9.00">ordinal_id</text>
</a>
</g>
<g id="a_node1_2"><a xlink:href="/dictionaries/mmcif_pdbx_modeling_extension_all.dic/Items/_ma_data_group.group_id.html" xlink:title="&lt;TABLE&gt;" target="_top">
<polygon fill="none" stroke="black" points="116.101,-139.5 116.101,-159.5 216.101,-159.5 216.101,-139.5 116.101,-139.5"/>
<text text-anchor="start" x="121.101" y="-147.3" font-family="Helvetica,sans-Serif" font-size="9.00">group_id</text>
</a>
</g>
<g id="a_node1_3"><a xlink:href="/dictionaries/mmcif_pdbx_modeling_extension_all.dic/Items/_ma_data_group.data_id.html" xlink:title="&lt;TABLE&gt;" target="_top">
<polygon fill="none" stroke="black" points="116.101,-119.5 116.101,-139.5 216.101,-139.5 216.101,-119.5 116.101,-119.5"/>
<text text-anchor="start" x="121.101" y="-127.3" font-family="Helvetica,sans-Serif" font-size="9.00">data_id</text>
</a>
</g>
</g>
<!-- _ma_protocol_step -->
<g id="node2" class="node"><title>_ma_protocol_step</title>
<g id="a_node2_4"><a xlink:href="/dictionaries/mmcif_pdbx_modeling_extension_all.dic/Categories/ma_protocol_step.html" xlink:title="&lt;TABLE&gt;" target="_top">
<polygon fill="#99c49b" stroke="none" points="250.101,-219.5 250.101,-240.5 368.101,-240.5 368.101,-219.5 250.101,-219.5"/>
<polygon fill="none" stroke="black" points="250.101,-219.5 250.101,-240.5 368.101,-240.5 368.101,-219.5 250.101,-219.5"/>
<text text-anchor="start" x="255.101" y="-227.5" font-family="Helvetica,sans-Serif" font-size="10.00">MA_PROTOCOL_STEP</text>
</a>
</g>
<g id="a_node2_5"><a xlink:href="/dictionaries/mmcif_pdbx_modeling_extension_all.dic/Items/_ma_protocol_step.ordinal_id.html" xlink:title="&lt;TABLE&gt;" target="_top">
<polygon fill="#ffff99" stroke="none" points="250.101,-199.5 250.101,-219.5 368.101,-219.5 368.101,-199.5 250.101,-199.5"/>
<polygon fill="none" stroke="black" points="250.101,-199.5 250.101,-219.5 368.101,-219.5 368.101,-199.5 250.101,-199.5"/>
<text text-anchor="start" x="255.101" y="-207.3" font-family="Helvetica,sans-Serif" font-size="9.00">ordinal_id</text>
</a>
</g>
<g id="a_node2_6"><a xlink:href="/dictionaries/mmcif_pdbx_modeling_extension_all.dic/Items/_ma_protocol_step.protocol_id.html" xlink:title="&lt;TABLE&gt;" target="_top">
<polygon fill="none" stroke="black" points="250.101,-179.5 250.101,-199.5 368.101,-199.5 368.101,-179.5 250.101,-179.5"/>
<text text-anchor="start" x="255.101" y="-187.3" font-family="Helvetica,sans-Serif" font-size="9.00">protocol_id</text>
</a>
</g>
<g id="a_node2_7"><a xlink:href="/dictionaries/mmcif_pdbx_modeling_extension_all.dic/Items/_ma_protocol_step.step_id.html" xlink:title="&lt;TABLE&gt;" target="_top">
<polygon fill="none" stroke="black" points="250.101,-159.5 250.101,-179.5 368.101,-179.5 368.101,-159.5 250.101,-159.5"/>
<text text-anchor="start" x="255.101" y="-167.3" font-family="Helvetica,sans-Serif" font-size="9.00">step_id</text>
</a>
</g>
<g id="a_node2_8"><a xlink:href="/dictionaries/mmcif_pdbx_modeling_extension_all.dic/Items/_ma_protocol_step.assembly_id.html" xlink:title="&lt;TABLE&gt;" target="_top">
<polygon fill="none" stroke="black" points="250.101,-139.5 250.101,-159.5 368.101,-159.5 368.101,-139.5 250.101,-139.5"/>
<text text-anchor="start" x="255.101" y="-147.3" font-family="Helvetica,sans-Serif" font-size="9.00">assembly_id</text>
</a>
</g>
<g id="a_node2_9"><a xlink:href="/dictionaries/mmcif_pdbx_modeling_extension_all.dic/Items/_ma_protocol_step.method_type.html" xlink:title="&lt;TABLE&gt;" target="_top">
<polygon fill="none" stroke="black" points="250.101,-119.5 250.101,-139.5 368.101,-139.5 368.101,-119.5 250.101,-119.5"/>
<text text-anchor="start" x="255.101" y="-127.3" font-family="Helvetica,sans-Serif" font-size="9.00">method_type</text>
</a>
</g>
<g id="a_node2_10"><a xlink:href="/dictionaries/mmcif_pdbx_modeling_extension_all.dic/Items/_ma_protocol_step.name.html" xlink:title="&lt;TABLE&gt;" target="_top">
<polygon fill="none" stroke="black" points="250.101,-99.5 250.101,-119.5 368.101,-119.5 368.101,-99.5 250.101,-99.5"/>
<text text-anchor="start" x="255.101" y="-107.3" font-family="Helvetica,sans-Serif" font-size="9.00">name</text>
</a>
</g>
<g id="a_node2_11"><a xlink:href="/dictionaries/mmcif_pdbx_modeling_extension_all.dic/Items/_ma_protocol_step.software_id.html" xlink:title="&lt;TABLE&gt;" target="_top">
<polygon fill="none" stroke="black" points="250.101,-79.5 250.101,-99.5 368.101,-99.5 368.101,-79.5 250.101,-79.5"/>
<text text-anchor="start" x="255.101" y="-87.3" font-family="Helvetica,sans-Serif" font-size="9.00">software_id</text>
</a>
</g>
</g>
<!-- _ma_step_output -->
<g id="node3" class="node"><title>_ma_step_output</title>
<g id="a_node3_12"><a xlink:href="/dictionaries/mmcif_pdbx_modeling_extension_all.dic/Categories/ma_step_output.html" xlink:title="&lt;TABLE&gt;" target="_top">
<polygon fill="#f0027f" stroke="none" points="250.101,-364.5 250.101,-385.5 354.101,-385.5 354.101,-364.5 250.101,-364.5"/>
<polygon fill="none" stroke="black" points="250.101,-364.5 250.101,-385.5 354.101,-385.5 354.101,-364.5 250.101,-364.5"/>
<text text-anchor="start" x="255.101" y="-372.5" font-family="Helvetica,sans-Serif" font-size="10.00">MA_STEP_OUTPUT</text>
</a>
</g>
<g id="a_node3_13"><a xlink:href="/dictionaries/mmcif_pdbx_modeling_extension_all.dic/Items/_ma_step_output.id.html" xlink:title="&lt;TABLE&gt;" target="_top">
<polygon fill="#ffff99" stroke="none" points="250.101,-344.5 250.101,-364.5 354.101,-364.5 354.101,-344.5 250.101,-344.5"/>
<polygon fill="none" stroke="black" points="250.101,-344.5 250.101,-364.5 354.101,-364.5 354.101,-344.5 250.101,-344.5"/>
<text text-anchor="start" x="255.101" y="-352.3" font-family="Helvetica,sans-Serif" font-size="9.00">id</text>
</a>
</g>
<g id="a_node3_14"><a xlink:href="/dictionaries/mmcif_pdbx_modeling_extension_all.dic/Items/_ma_step_output.data_group_id.html" xlink:title="&lt;TABLE&gt;" target="_top">
<polygon fill="none" stroke="black" points="250.101,-324.5 250.101,-344.5 354.101,-344.5 354.101,-324.5 250.101,-324.5"/>
<text text-anchor="start" x="255.101" y="-332.3" font-family="Helvetica,sans-Serif" font-size="9.00">data_group_id</text>
</a>
</g>
<g id="a_node3_15"><a xlink:href="/dictionaries/mmcif_pdbx_modeling_extension_all.dic/Items/_ma_step_output.protocol_id.html" xlink:title="&lt;TABLE&gt;" target="_top">
<polygon fill="none" stroke="black" points="250.101,-304.5 250.101,-324.5 354.101,-324.5 354.101,-304.5 250.101,-304.5"/>
<text text-anchor="start" x="255.101" y="-312.3" font-family="Helvetica,sans-Serif" font-size="9.00">protocol_id</text>
</a>
</g>
<g id="a_node3_16"><a xlink:href="/dictionaries/mmcif_pdbx_modeling_extension_all.dic/Items/_ma_step_output.step_id.html" xlink:title="&lt;TABLE&gt;" target="_top">
<polygon fill="none" stroke="black" points="250.101,-284.5 250.101,-304.5 354.101,-304.5 354.101,-284.5 250.101,-284.5"/>
<text text-anchor="start" x="255.101" y="-292.3" font-family="Helvetica,sans-Serif" font-size="9.00">step_id</text>
</a>
</g>
</g>
<!-- _ma_step_output&#45;&gt;_ma_data_group -->
<g id="edge1" class="edge"><title>_ma_step_output:__data_group_id:w&#45;&gt;_ma_data_group:__group_id:w</title>
<path fill="none" stroke="black" d="M249.101,-334.5C166.598,-334.5 148.865,-280.719 116.101,-205 108.064,-186.427 95.9388,-160.979 105.459,-152.433"/>
<polygon fill="black" stroke="black" points="106.552,-155.759 115.101,-149.5 104.515,-149.062 106.552,-155.759"/>
</g>
<!-- _ma_step_output&#45;&gt;_ma_protocol_step -->
<g id="edge2" class="edge"><title>_ma_step_output:__protocol_id:w&#45;&gt;_ma_protocol_step:__protocol_id:w</title>
<path fill="none" stroke="black" d="M249.101,-314.5C237.437,-314.5 235.568,-226.333 243.497,-198.092"/>
<polygon fill="black" stroke="black" points="246.569,-199.788 249.101,-189.5 240.706,-195.963 246.569,-199.788"/>
</g>
<!-- _ma_step_output&#45;&gt;_ma_protocol_step -->
<g id="edge3" class="edge"><title>_ma_step_output:__step_id:w&#45;&gt;_ma_protocol_step:__step_id:w</title>
<path fill="none" stroke="black" d="M249.101,-294.5C237.437,-294.5 235.568,-206.333 243.497,-178.092"/>
<polygon fill="black" stroke="black" points="246.569,-179.788 249.101,-169.5 240.706,-175.963 246.569,-179.788"/>
</g>
</g>
</svg>
