<?xml version="1.0" encoding="UTF-8" standalone="no"?>
<!DOCTYPE svg PUBLIC "-//W3C//DTD SVG 1.1//EN"
 "http://www.w3.org/Graphics/SVG/1.1/DTD/svg11.dtd">
<!-- Generated by graphviz version 2.38.0 (20140413.2041)
 -->
<!-- Title: ma_step_input Pages: 1 -->
<svg width="466pt" height="438pt"
 viewBox="0.00 0.00 466.00 438.00" xmlns="http://www.w3.org/2000/svg" xmlns:xlink="http://www.w3.org/1999/xlink">
<g id="graph0" class="graph" transform="scale(1 1) rotate(0) translate(4 434)">
<title>ma_step_input</title>
<polygon fill="white" stroke="none" points="-4,4 -4,-434 462,-434 462,4 -4,4"/>
<text text-anchor="start" x="226" y="-58.6" font-family="Helvetica,sans-Serif" font-size="18.00"> </text>
<text text-anchor="start" x="226" y="-40.6" font-family="Helvetica,sans-Serif" font-size="18.00"> </text>
<text text-anchor="start" x="8" y="-22.6" font-family="Helvetica,sans-Serif" font-size="18.00"> Category Relationship Diagram for </text>
<text text-anchor="start" x="291" y="-22.6" font-family="Helvetica,sans-Serif" font-weight="bold" font-size="18.00">MA_STEP_INPUT</text>
<text text-anchor="start" x="440" y="-22.6" font-family="Helvetica,sans-Serif" font-size="18.00"> </text>
<text text-anchor="start" x="446" y="-22.6" font-family="Helvetica,sans-Serif" font-size="14.00"> </text>
<text text-anchor="start" x="95" y="-7.8" font-family="Helvetica,sans-Serif" font-size="14.00"> &#160;in dictionary mmcif_pdbx.dic version 5.280 </text>
<!-- _ma_data -->
<g id="node1" class="node"><title>_ma_data</title>
<g id="a_node1_0"><a xlink:href="/dictionaries/mmcif_modeling_v10.unix_1.04.dic/Categories/ma_data.html" xlink:title="&lt;TABLE&gt;" target="_top">
<polygon fill="#99c49b" stroke="none" points="124.688,-189.5 124.688,-210.5 187.688,-210.5 187.688,-189.5 124.688,-189.5"/>
<polygon fill="none" stroke="black" points="124.688,-189.5 124.688,-210.5 187.688,-210.5 187.688,-189.5 124.688,-189.5"/>
<text text-anchor="start" x="132.188" y="-197.5" font-family="Helvetica,sans-Serif" font-size="10.00">MA_DATA</text>
</a>
</g>
<g id="a_node1_1"><a xlink:href="/dictionaries/mmcif_modeling_v10.unix_1.04.dic/Items/_ma_data.id.html" xlink:title="&lt;TABLE&gt;" target="_top">
<polygon fill="#ffff99" stroke="none" points="124.688,-169.5 124.688,-189.5 187.688,-189.5 187.688,-169.5 124.688,-169.5"/>
<polygon fill="none" stroke="black" points="124.688,-169.5 124.688,-189.5 187.688,-189.5 187.688,-169.5 124.688,-169.5"/>
<text text-anchor="start" x="129.688" y="-177.3" font-family="Helvetica,sans-Serif" font-size="9.00">id</text>
</a>
</g>
<g id="a_node1_2"><a xlink:href="/dictionaries/mmcif_modeling_v10.unix_1.04.dic/Items/_ma_data.content_type.html" xlink:title="&lt;TABLE&gt;" target="_top">
<polygon fill="none" stroke="black" points="124.688,-149.5 124.688,-169.5 187.688,-169.5 187.688,-149.5 124.688,-149.5"/>
<text text-anchor="start" x="129.688" y="-157.3" font-family="Helvetica,sans-Serif" font-size="9.00">content_type</text>
</a>
</g>
<g id="a_node1_3"><a xlink:href="/dictionaries/mmcif_modeling_v10.unix_1.04.dic/Items/_ma_data.name.html" xlink:title="&lt;TABLE&gt;" target="_top">
<polygon fill="none" stroke="black" points="124.688,-129.5 124.688,-149.5 187.688,-149.5 187.688,-129.5 124.688,-129.5"/>
<text text-anchor="start" x="129.688" y="-137.3" font-family="Helvetica,sans-Serif" font-size="9.00">name</text>
</a>
</g>
</g>
<!-- _ma_protocol_step -->
<g id="node2" class="node"><title>_ma_protocol_step</title>
<g id="a_node2_4"><a xlink:href="/dictionaries/mmcif_modeling_v10.unix_1.04.dic/Categories/ma_protocol_step.html" xlink:title="&lt;TABLE&gt;" target="_top">
<polygon fill="#99c49b" stroke="none" points="221.688,-239.5 221.688,-260.5 339.688,-260.5 339.688,-239.5 221.688,-239.5"/>
<polygon fill="none" stroke="black" points="221.688,-239.5 221.688,-260.5 339.688,-260.5 339.688,-239.5 221.688,-239.5"/>
<text text-anchor="start" x="226.688" y="-247.5" font-family="Helvetica,sans-Serif" font-size="10.00">MA_PROTOCOL_STEP</text>
</a>
</g>
<g id="a_node2_5"><a xlink:href="/dictionaries/mmcif_modeling_v10.unix_1.04.dic/Items/_ma_protocol_step.ordinal_id.html" xlink:title="&lt;TABLE&gt;" target="_top">
<polygon fill="#ffff99" stroke="none" points="221.688,-219.5 221.688,-239.5 339.688,-239.5 339.688,-219.5 221.688,-219.5"/>
<polygon fill="none" stroke="black" points="221.688,-219.5 221.688,-239.5 339.688,-239.5 339.688,-219.5 221.688,-219.5"/>
<text text-anchor="start" x="226.688" y="-227.3" font-family="Helvetica,sans-Serif" font-size="9.00">ordinal_id</text>
</a>
</g>
<g id="a_node2_6"><a xlink:href="/dictionaries/mmcif_modeling_v10.unix_1.04.dic/Items/_ma_protocol_step.protocol_id.html" xlink:title="&lt;TABLE&gt;" target="_top">
<polygon fill="none" stroke="black" points="221.688,-199.5 221.688,-219.5 339.688,-219.5 339.688,-199.5 221.688,-199.5"/>
<text text-anchor="start" x="226.688" y="-207.3" font-family="Helvetica,sans-Serif" font-size="9.00">protocol_id</text>
</a>
</g>
<g id="a_node2_7"><a xlink:href="/dictionaries/mmcif_modeling_v10.unix_1.04.dic/Items/_ma_protocol_step.step_id.html" xlink:title="&lt;TABLE&gt;" target="_top">
<polygon fill="none" stroke="black" points="221.688,-179.5 221.688,-199.5 339.688,-199.5 339.688,-179.5 221.688,-179.5"/>
<text text-anchor="start" x="226.688" y="-187.3" font-family="Helvetica,sans-Serif" font-size="9.00">step_id</text>
</a>
</g>
<g id="a_node2_8"><a xlink:href="/dictionaries/mmcif_modeling_v10.unix_1.04.dic/Items/_ma_protocol_step.asym_id.html" xlink:title="&lt;TABLE&gt;" target="_top">
<polygon fill="none" stroke="black" points="221.688,-159.5 221.688,-179.5 339.688,-179.5 339.688,-159.5 221.688,-159.5"/>
<text text-anchor="start" x="226.688" y="-167.3" font-family="Helvetica,sans-Serif" font-size="9.00">asym_id</text>
</a>
</g>
<g id="a_node2_9"><a xlink:href="/dictionaries/mmcif_modeling_v10.unix_1.04.dic/Items/_ma_protocol_step.entity_id.html" xlink:title="&lt;TABLE&gt;" target="_top">
<polygon fill="none" stroke="black" points="221.688,-139.5 221.688,-159.5 339.688,-159.5 339.688,-139.5 221.688,-139.5"/>
<text text-anchor="start" x="226.688" y="-147.3" font-family="Helvetica,sans-Serif" font-size="9.00">entity_id</text>
</a>
</g>
<g id="a_node2_10"><a xlink:href="/dictionaries/mmcif_modeling_v10.unix_1.04.dic/Items/_ma_protocol_step.method_type.html" xlink:title="&lt;TABLE&gt;" target="_top">
<polygon fill="none" stroke="black" points="221.688,-119.5 221.688,-139.5 339.688,-139.5 339.688,-119.5 221.688,-119.5"/>
<text text-anchor="start" x="226.688" y="-127.3" font-family="Helvetica,sans-Serif" font-size="9.00">method_type</text>
</a>
</g>
<g id="a_node2_11"><a xlink:href="/dictionaries/mmcif_modeling_v10.unix_1.04.dic/Items/_ma_protocol_step.name.html" xlink:title="&lt;TABLE&gt;" target="_top">
<polygon fill="none" stroke="black" points="221.688,-99.5 221.688,-119.5 339.688,-119.5 339.688,-99.5 221.688,-99.5"/>
<text text-anchor="start" x="226.688" y="-107.3" font-family="Helvetica,sans-Serif" font-size="9.00">name</text>
</a>
</g>
<g id="a_node2_12"><a xlink:href="/dictionaries/mmcif_modeling_v10.unix_1.04.dic/Items/_ma_protocol_step.software_used.html" xlink:title="&lt;TABLE&gt;" target="_top">
<polygon fill="none" stroke="black" points="221.688,-79.5 221.688,-99.5 339.688,-99.5 339.688,-79.5 221.688,-79.5"/>
<text text-anchor="start" x="226.688" y="-87.3" font-family="Helvetica,sans-Serif" font-size="9.00">software_used</text>
</a>
</g>
</g>
<!-- _ma_step_input -->
<g id="node3" class="node"><title>_ma_step_input</title>
<g id="a_node3_13"><a xlink:href="/dictionaries/mmcif_modeling_v10.unix_1.04.dic/Categories/ma_step_input.html" xlink:title="&lt;TABLE&gt;" target="_top">
<polygon fill="#f0027f" stroke="none" points="221.688,-404.5 221.688,-425.5 314.688,-425.5 314.688,-404.5 221.688,-404.5"/>
<polygon fill="none" stroke="black" points="221.688,-404.5 221.688,-425.5 314.688,-425.5 314.688,-404.5 221.688,-404.5"/>
<text text-anchor="start" x="226.688" y="-412.5" font-family="Helvetica,sans-Serif" font-size="10.00">MA_STEP_INPUT</text>
</a>
</g>
<g id="a_node3_14"><a xlink:href="/dictionaries/mmcif_modeling_v10.unix_1.04.dic/Items/_ma_step_input.id.html" xlink:title="&lt;TABLE&gt;" target="_top">
<polygon fill="#ffff99" stroke="none" points="221.688,-384.5 221.688,-404.5 314.688,-404.5 314.688,-384.5 221.688,-384.5"/>
<polygon fill="none" stroke="black" points="221.688,-384.5 221.688,-404.5 314.688,-404.5 314.688,-384.5 221.688,-384.5"/>
<text text-anchor="start" x="226.688" y="-392.3" font-family="Helvetica,sans-Serif" font-size="9.00">id</text>
</a>
</g>
<g id="a_node3_15"><a xlink:href="/dictionaries/mmcif_modeling_v10.unix_1.04.dic/Items/_ma_step_input.data_id.html" xlink:title="&lt;TABLE&gt;" target="_top">
<polygon fill="none" stroke="black" points="221.688,-364.5 221.688,-384.5 314.688,-384.5 314.688,-364.5 221.688,-364.5"/>
<text text-anchor="start" x="226.688" y="-372.3" font-family="Helvetica,sans-Serif" font-size="9.00">data_id</text>
</a>
</g>
<g id="a_node3_16"><a xlink:href="/dictionaries/mmcif_modeling_v10.unix_1.04.dic/Items/_ma_step_input.protocol_id.html" xlink:title="&lt;TABLE&gt;" target="_top">
<polygon fill="none" stroke="black" points="221.688,-344.5 221.688,-364.5 314.688,-364.5 314.688,-344.5 221.688,-344.5"/>
<text text-anchor="start" x="226.688" y="-352.3" font-family="Helvetica,sans-Serif" font-size="9.00">protocol_id</text>
</a>
</g>
<g id="a_node3_17"><a xlink:href="/dictionaries/mmcif_modeling_v10.unix_1.04.dic/Items/_ma_step_input.step_id.html" xlink:title="&lt;TABLE&gt;" target="_top">
<polygon fill="none" stroke="black" points="221.688,-324.5 221.688,-344.5 314.688,-344.5 314.688,-324.5 221.688,-324.5"/>
<text text-anchor="start" x="226.688" y="-332.3" font-family="Helvetica,sans-Serif" font-size="9.00">step_id</text>
</a>
</g>
<g id="a_node3_18"><a xlink:href="/dictionaries/mmcif_modeling_v10.unix_1.04.dic/Items/_ma_step_input.content_sub_type.html" xlink:title="&lt;TABLE&gt;" target="_top">
<polygon fill="none" stroke="black" points="221.688,-304.5 221.688,-324.5 314.688,-324.5 314.688,-304.5 221.688,-304.5"/>
<text text-anchor="start" x="226.688" y="-312.3" font-family="Helvetica,sans-Serif" font-size="9.00">content_sub_type</text>
</a>
</g>
</g>
<!-- _ma_step_input&#45;&gt;_ma_data -->
<g id="edge1" class="edge"><title>_ma_step_input:__data_id:w&#45;&gt;_ma_data:__id:w</title>
<path fill="none" stroke="black" d="M220.688,-374.5C176.448,-374.5 91.6021,-211.576 114.308,-183.573"/>
<polygon fill="black" stroke="black" points="115.909,-186.693 123.688,-179.5 113.121,-180.273 115.909,-186.693"/>
</g>
<!-- _ma_step_input&#45;&gt;_ma_protocol_step -->
<g id="edge2" class="edge"><title>_ma_step_input:__protocol_id:w&#45;&gt;_ma_protocol_step:__protocol_id:w</title>
<path fill="none" stroke="black" d="M220.688,-354.5C206.905,-354.5 204.913,-248.385 214.712,-217.711"/>
<polygon fill="black" stroke="black" points="217.633,-219.645 220.688,-209.5 211.973,-215.526 217.633,-219.645"/>
</g>
<!-- _ma_step_input&#45;&gt;_ma_protocol_step -->
<g id="edge3" class="edge"><title>_ma_step_input:__step_id:w&#45;&gt;_ma_protocol_step:__step_id:w</title>
<path fill="none" stroke="black" d="M220.688,-334.5C206.905,-334.5 204.913,-228.385 214.712,-197.711"/>
<polygon fill="black" stroke="black" points="217.633,-199.645 220.688,-189.5 211.973,-195.526 217.633,-199.645"/>
</g>
</g>
</svg>
