<?xml version="1.0" encoding="UTF-8" standalone="no"?>
<!DOCTYPE svg PUBLIC "-//W3C//DTD SVG 1.1//EN"
 "http://www.w3.org/Graphics/SVG/1.1/DTD/svg11.dtd">
<!-- Generated by graphviz version 2.38.0 (20140413.2041)
 -->
<!-- Title: ma_struct_assembly_details Pages: 1 -->
<svg width="624pt" height="398pt"
 viewBox="0.00 0.00 624.00 398.00" xmlns="http://www.w3.org/2000/svg" xmlns:xlink="http://www.w3.org/1999/xlink">
<g id="graph0" class="graph" transform="scale(1 1) rotate(0) translate(4 394)">
<title>ma_struct_assembly_details</title>
<polygon fill="white" stroke="none" points="-4,4 -4,-394 620,-394 620,4 -4,4"/>
<text text-anchor="start" x="305" y="-58.6" font-family="Helvetica,sans-Serif" font-size="18.00"> </text>
<text text-anchor="start" x="305" y="-40.6" font-family="Helvetica,sans-Serif" font-size="18.00"> </text>
<text text-anchor="start" x="8" y="-22.6" font-family="Helvetica,sans-Serif" font-size="18.00"> Category Relationship Diagram for </text>
<text text-anchor="start" x="291" y="-22.6" font-family="Helvetica,sans-Serif" font-weight="bold" font-size="18.00">MA_STRUCT_ASSEMBLY_DETAILS</text>
<text text-anchor="start" x="598" y="-22.6" font-family="Helvetica,sans-Serif" font-size="18.00"> </text>
<text text-anchor="start" x="604" y="-22.6" font-family="Helvetica,sans-Serif" font-size="14.00"> </text>
<text text-anchor="start" x="174" y="-7.8" font-family="Helvetica,sans-Serif" font-size="14.00"> &#160;in dictionary mmcif_pdbx.dic version 5.296 </text>
<!-- _ma_struct_assembly -->
<g id="node1" class="node"><title>_ma_struct_assembly</title>
<g id="a_node1_0"><a xlink:href="/dictionaries/mmcif_pdbx_modeling_extension_all.dic/Categories/ma_struct_assembly.html" xlink:title="&lt;TABLE&gt;" target="_top">
<polygon fill="#99c49b" stroke="none" points="227.579,-239.5 227.579,-260.5 358.579,-260.5 358.579,-239.5 227.579,-239.5"/>
<polygon fill="none" stroke="black" points="227.579,-239.5 227.579,-260.5 358.579,-260.5 358.579,-239.5 227.579,-239.5"/>
<text text-anchor="start" x="232.579" y="-247.5" font-family="Helvetica,sans-Serif" font-size="10.00">MA_STRUCT_ASSEMBLY</text>
</a>
</g>
<g id="a_node1_1"><a xlink:href="/dictionaries/mmcif_pdbx_modeling_extension_all.dic/Items/_ma_struct_assembly.ordinal_id.html" xlink:title="&lt;TABLE&gt;" target="_top">
<polygon fill="#ffff99" stroke="none" points="227.579,-219.5 227.579,-239.5 358.579,-239.5 358.579,-219.5 227.579,-219.5"/>
<polygon fill="none" stroke="black" points="227.579,-219.5 227.579,-239.5 358.579,-239.5 358.579,-219.5 227.579,-219.5"/>
<text text-anchor="start" x="232.579" y="-227.3" font-family="Helvetica,sans-Serif" font-size="9.00">ordinal_id</text>
</a>
</g>
<g id="a_node1_2"><a xlink:href="/dictionaries/mmcif_pdbx_modeling_extension_all.dic/Items/_ma_struct_assembly.assembly_id.html" xlink:title="&lt;TABLE&gt;" target="_top">
<polygon fill="none" stroke="black" points="227.579,-199.5 227.579,-219.5 358.579,-219.5 358.579,-199.5 227.579,-199.5"/>
<text text-anchor="start" x="232.579" y="-207.3" font-family="Helvetica,sans-Serif" font-size="9.00">assembly_id</text>
</a>
</g>
<g id="a_node1_3"><a xlink:href="/dictionaries/mmcif_pdbx_modeling_extension_all.dic/Items/_ma_struct_assembly.asym_id.html" xlink:title="&lt;TABLE&gt;" target="_top">
<polygon fill="none" stroke="black" points="227.579,-179.5 227.579,-199.5 358.579,-199.5 358.579,-179.5 227.579,-179.5"/>
<text text-anchor="start" x="232.579" y="-187.3" font-family="Helvetica,sans-Serif" font-size="9.00">asym_id</text>
</a>
</g>
<g id="a_node1_4"><a xlink:href="/dictionaries/mmcif_pdbx_modeling_extension_all.dic/Items/_ma_struct_assembly.entity_description.html" xlink:title="&lt;TABLE&gt;" target="_top">
<polygon fill="none" stroke="black" points="227.579,-159.5 227.579,-179.5 358.579,-179.5 358.579,-159.5 227.579,-159.5"/>
<text text-anchor="start" x="232.579" y="-167.3" font-family="Helvetica,sans-Serif" font-size="9.00">entity_description</text>
</a>
</g>
<g id="a_node1_5"><a xlink:href="/dictionaries/mmcif_pdbx_modeling_extension_all.dic/Items/_ma_struct_assembly.entity_id.html" xlink:title="&lt;TABLE&gt;" target="_top">
<polygon fill="none" stroke="black" points="227.579,-139.5 227.579,-159.5 358.579,-159.5 358.579,-139.5 227.579,-139.5"/>
<text text-anchor="start" x="232.579" y="-147.3" font-family="Helvetica,sans-Serif" font-size="9.00">entity_id</text>
</a>
</g>
<g id="a_node1_6"><a xlink:href="/dictionaries/mmcif_pdbx_modeling_extension_all.dic/Items/_ma_struct_assembly.parent_assembly_id.html" xlink:title="&lt;TABLE&gt;" target="_top">
<polygon fill="none" stroke="black" points="227.579,-119.5 227.579,-139.5 358.579,-139.5 358.579,-119.5 227.579,-119.5"/>
<text text-anchor="start" x="232.579" y="-127.3" font-family="Helvetica,sans-Serif" font-size="9.00">parent_assembly_id</text>
</a>
</g>
<g id="a_node1_7"><a xlink:href="/dictionaries/mmcif_pdbx_modeling_extension_all.dic/Items/_ma_struct_assembly.seq_id_begin.html" xlink:title="&lt;TABLE&gt;" target="_top">
<polygon fill="none" stroke="black" points="227.579,-99.5 227.579,-119.5 358.579,-119.5 358.579,-99.5 227.579,-99.5"/>
<text text-anchor="start" x="232.579" y="-107.3" font-family="Helvetica,sans-Serif" font-size="9.00">seq_id_begin</text>
</a>
</g>
<g id="a_node1_8"><a xlink:href="/dictionaries/mmcif_pdbx_modeling_extension_all.dic/Items/_ma_struct_assembly.seq_id_end.html" xlink:title="&lt;TABLE&gt;" target="_top">
<polygon fill="none" stroke="black" points="227.579,-79.5 227.579,-99.5 358.579,-99.5 358.579,-79.5 227.579,-79.5"/>
<text text-anchor="start" x="232.579" y="-87.3" font-family="Helvetica,sans-Serif" font-size="9.00">seq_id_end</text>
</a>
</g>
</g>
<!-- _ma_struct_assembly&#45;&gt;_ma_struct_assembly -->
<g id="edge1" class="edge"><title>_ma_struct_assembly:__parent_assembly_id:e&#45;&gt;_ma_struct_assembly:__assembly_id:e</title>
<path fill="none" stroke="black" d="M358.579,-129.5C372.079,-86 384.079,-86 384.079,-169.5 384.079,-246.15 373.967,-252.438 361.865,-219.305"/>
<polygon fill="black" stroke="black" points="365.075,-217.869 358.579,-209.5 358.438,-220.094 365.075,-217.869"/>
</g>
<!-- _ma_struct_assembly_details -->
<g id="node2" class="node"><title>_ma_struct_assembly_details</title>
<g id="a_node2_9"><a xlink:href="/dictionaries/mmcif_pdbx_modeling_extension_all.dic/Categories/ma_struct_assembly_details.html" xlink:title="&lt;TABLE&gt;" target="_top">
<polygon fill="#f0027f" stroke="none" points="227.579,-364.5 227.579,-385.5 406.579,-385.5 406.579,-364.5 227.579,-364.5"/>
<polygon fill="none" stroke="black" points="227.579,-364.5 227.579,-385.5 406.579,-385.5 406.579,-364.5 227.579,-364.5"/>
<text text-anchor="start" x="232.579" y="-372.5" font-family="Helvetica,sans-Serif" font-size="10.00">MA_STRUCT_ASSEMBLY_DETAILS</text>
</a>
</g>
<g id="a_node2_10"><a xlink:href="/dictionaries/mmcif_pdbx_modeling_extension_all.dic/Items/_ma_struct_assembly_details.assembly_id.html" xlink:title="&lt;TABLE&gt;" target="_top">
<polygon fill="#ffff99" stroke="none" points="227.579,-344.5 227.579,-364.5 406.579,-364.5 406.579,-344.5 227.579,-344.5"/>
<polygon fill="none" stroke="black" points="227.579,-344.5 227.579,-364.5 406.579,-364.5 406.579,-344.5 227.579,-344.5"/>
<text text-anchor="start" x="232.579" y="-352.3" font-family="Helvetica,sans-Serif" font-size="9.00">assembly_id</text>
</a>
</g>
<g id="a_node2_11"><a xlink:href="/dictionaries/mmcif_pdbx_modeling_extension_all.dic/Items/_ma_struct_assembly_details.assembly_description.html" xlink:title="&lt;TABLE&gt;" target="_top">
<polygon fill="none" stroke="black" points="227.579,-324.5 227.579,-344.5 406.579,-344.5 406.579,-324.5 227.579,-324.5"/>
<text text-anchor="start" x="232.579" y="-332.3" font-family="Helvetica,sans-Serif" font-size="9.00">assembly_description</text>
</a>
</g>
<g id="a_node2_12"><a xlink:href="/dictionaries/mmcif_pdbx_modeling_extension_all.dic/Items/_ma_struct_assembly_details.assembly_name.html" xlink:title="&lt;TABLE&gt;" target="_top">
<polygon fill="none" stroke="black" points="227.579,-304.5 227.579,-324.5 406.579,-324.5 406.579,-304.5 227.579,-304.5"/>
<text text-anchor="start" x="232.579" y="-312.3" font-family="Helvetica,sans-Serif" font-size="9.00">assembly_name</text>
</a>
</g>
</g>
<!-- _ma_struct_assembly_details&#45;&gt;_ma_struct_assembly -->
<g id="edge2" class="edge"><title>_ma_struct_assembly_details:__assembly_id:w&#45;&gt;_ma_struct_assembly:__assembly_id:w</title>
<path fill="none" stroke="black" d="M226.579,-354.5C197.755,-354.5 194.715,-238.473 217.459,-213.999"/>
<polygon fill="black" stroke="black" points="219.159,-217.063 226.579,-209.5 216.062,-210.785 219.159,-217.063"/>
</g>
</g>
</svg>
