<?xml version="1.0" encoding="UTF-8" standalone="no"?>
<!DOCTYPE svg PUBLIC "-//W3C//DTD SVG 1.1//EN"
 "http://www.w3.org/Graphics/SVG/1.1/DTD/svg11.dtd">
<!-- Generated by graphviz version 2.38.0 (20140413.2041)
 -->
<!-- Title: ma_step_output Pages: 1 -->
<svg width="486pt" height="438pt"
 viewBox="0.00 0.00 486.00 438.00" xmlns="http://www.w3.org/2000/svg" xmlns:xlink="http://www.w3.org/1999/xlink">
<g id="graph0" class="graph" transform="scale(1 1) rotate(0) translate(4 434)">
<title>ma_step_output</title>
<polygon fill="white" stroke="none" points="-4,4 -4,-434 482,-434 482,4 -4,4"/>
<text text-anchor="start" x="236" y="-58.6" font-family="Helvetica,sans-Serif" font-size="18.00"> </text>
<text text-anchor="start" x="236" y="-40.6" font-family="Helvetica,sans-Serif" font-size="18.00"> </text>
<text text-anchor="start" x="8" y="-22.6" font-family="Helvetica,sans-Serif" font-size="18.00"> Category Relationship Diagram for </text>
<text text-anchor="start" x="291" y="-22.6" font-family="Helvetica,sans-Serif" font-weight="bold" font-size="18.00">MA_STEP_OUTPUT</text>
<text text-anchor="start" x="460" y="-22.6" font-family="Helvetica,sans-Serif" font-size="18.00"> </text>
<text text-anchor="start" x="466" y="-22.6" font-family="Helvetica,sans-Serif" font-size="14.00"> </text>
<text text-anchor="start" x="105" y="-7.8" font-family="Helvetica,sans-Serif" font-size="14.00"> &#160;in dictionary mmcif_pdbx.dic version 5.280 </text>
<!-- _ma_data -->
<g id="node1" class="node"><title>_ma_data</title>
<g id="a_node1_0"><a xlink:href="/dictionaries/mmcif_modeling_v10.unix_1.04.dic/Categories/ma_data.html" xlink:title="&lt;TABLE&gt;" target="_top">
<polygon fill="#99c49b" stroke="none" points="134.688,-189.5 134.688,-210.5 197.688,-210.5 197.688,-189.5 134.688,-189.5"/>
<polygon fill="none" stroke="black" points="134.688,-189.5 134.688,-210.5 197.688,-210.5 197.688,-189.5 134.688,-189.5"/>
<text text-anchor="start" x="142.188" y="-197.5" font-family="Helvetica,sans-Serif" font-size="10.00">MA_DATA</text>
</a>
</g>
<g id="a_node1_1"><a xlink:href="/dictionaries/mmcif_modeling_v10.unix_1.04.dic/Items/_ma_data.id.html" xlink:title="&lt;TABLE&gt;" target="_top">
<polygon fill="#ffff99" stroke="none" points="134.688,-169.5 134.688,-189.5 197.688,-189.5 197.688,-169.5 134.688,-169.5"/>
<polygon fill="none" stroke="black" points="134.688,-169.5 134.688,-189.5 197.688,-189.5 197.688,-169.5 134.688,-169.5"/>
<text text-anchor="start" x="139.688" y="-177.3" font-family="Helvetica,sans-Serif" font-size="9.00">id</text>
</a>
</g>
<g id="a_node1_2"><a xlink:href="/dictionaries/mmcif_modeling_v10.unix_1.04.dic/Items/_ma_data.content_type.html" xlink:title="&lt;TABLE&gt;" target="_top">
<polygon fill="none" stroke="black" points="134.688,-149.5 134.688,-169.5 197.688,-169.5 197.688,-149.5 134.688,-149.5"/>
<text text-anchor="start" x="139.688" y="-157.3" font-family="Helvetica,sans-Serif" font-size="9.00">content_type</text>
</a>
</g>
<g id="a_node1_3"><a xlink:href="/dictionaries/mmcif_modeling_v10.unix_1.04.dic/Items/_ma_data.name.html" xlink:title="&lt;TABLE&gt;" target="_top">
<polygon fill="none" stroke="black" points="134.688,-129.5 134.688,-149.5 197.688,-149.5 197.688,-129.5 134.688,-129.5"/>
<text text-anchor="start" x="139.688" y="-137.3" font-family="Helvetica,sans-Serif" font-size="9.00">name</text>
</a>
</g>
</g>
<!-- _ma_protocol_step -->
<g id="node2" class="node"><title>_ma_protocol_step</title>
<g id="a_node2_4"><a xlink:href="/dictionaries/mmcif_modeling_v10.unix_1.04.dic/Categories/ma_protocol_step.html" xlink:title="&lt;TABLE&gt;" target="_top">
<polygon fill="#99c49b" stroke="none" points="231.688,-239.5 231.688,-260.5 349.688,-260.5 349.688,-239.5 231.688,-239.5"/>
<polygon fill="none" stroke="black" points="231.688,-239.5 231.688,-260.5 349.688,-260.5 349.688,-239.5 231.688,-239.5"/>
<text text-anchor="start" x="236.688" y="-247.5" font-family="Helvetica,sans-Serif" font-size="10.00">MA_PROTOCOL_STEP</text>
</a>
</g>
<g id="a_node2_5"><a xlink:href="/dictionaries/mmcif_modeling_v10.unix_1.04.dic/Items/_ma_protocol_step.ordinal_id.html" xlink:title="&lt;TABLE&gt;" target="_top">
<polygon fill="#ffff99" stroke="none" points="231.688,-219.5 231.688,-239.5 349.688,-239.5 349.688,-219.5 231.688,-219.5"/>
<polygon fill="none" stroke="black" points="231.688,-219.5 231.688,-239.5 349.688,-239.5 349.688,-219.5 231.688,-219.5"/>
<text text-anchor="start" x="236.688" y="-227.3" font-family="Helvetica,sans-Serif" font-size="9.00">ordinal_id</text>
</a>
</g>
<g id="a_node2_6"><a xlink:href="/dictionaries/mmcif_modeling_v10.unix_1.04.dic/Items/_ma_protocol_step.protocol_id.html" xlink:title="&lt;TABLE&gt;" target="_top">
<polygon fill="none" stroke="black" points="231.688,-199.5 231.688,-219.5 349.688,-219.5 349.688,-199.5 231.688,-199.5"/>
<text text-anchor="start" x="236.688" y="-207.3" font-family="Helvetica,sans-Serif" font-size="9.00">protocol_id</text>
</a>
</g>
<g id="a_node2_7"><a xlink:href="/dictionaries/mmcif_modeling_v10.unix_1.04.dic/Items/_ma_protocol_step.step_id.html" xlink:title="&lt;TABLE&gt;" target="_top">
<polygon fill="none" stroke="black" points="231.688,-179.5 231.688,-199.5 349.688,-199.5 349.688,-179.5 231.688,-179.5"/>
<text text-anchor="start" x="236.688" y="-187.3" font-family="Helvetica,sans-Serif" font-size="9.00">step_id</text>
</a>
</g>
<g id="a_node2_8"><a xlink:href="/dictionaries/mmcif_modeling_v10.unix_1.04.dic/Items/_ma_protocol_step.asym_id.html" xlink:title="&lt;TABLE&gt;" target="_top">
<polygon fill="none" stroke="black" points="231.688,-159.5 231.688,-179.5 349.688,-179.5 349.688,-159.5 231.688,-159.5"/>
<text text-anchor="start" x="236.688" y="-167.3" font-family="Helvetica,sans-Serif" font-size="9.00">asym_id</text>
</a>
</g>
<g id="a_node2_9"><a xlink:href="/dictionaries/mmcif_modeling_v10.unix_1.04.dic/Items/_ma_protocol_step.entity_id.html" xlink:title="&lt;TABLE&gt;" target="_top">
<polygon fill="none" stroke="black" points="231.688,-139.5 231.688,-159.5 349.688,-159.5 349.688,-139.5 231.688,-139.5"/>
<text text-anchor="start" x="236.688" y="-147.3" font-family="Helvetica,sans-Serif" font-size="9.00">entity_id</text>
</a>
</g>
<g id="a_node2_10"><a xlink:href="/dictionaries/mmcif_modeling_v10.unix_1.04.dic/Items/_ma_protocol_step.method_type.html" xlink:title="&lt;TABLE&gt;" target="_top">
<polygon fill="none" stroke="black" points="231.688,-119.5 231.688,-139.5 349.688,-139.5 349.688,-119.5 231.688,-119.5"/>
<text text-anchor="start" x="236.688" y="-127.3" font-family="Helvetica,sans-Serif" font-size="9.00">method_type</text>
</a>
</g>
<g id="a_node2_11"><a xlink:href="/dictionaries/mmcif_modeling_v10.unix_1.04.dic/Items/_ma_protocol_step.name.html" xlink:title="&lt;TABLE&gt;" target="_top">
<polygon fill="none" stroke="black" points="231.688,-99.5 231.688,-119.5 349.688,-119.5 349.688,-99.5 231.688,-99.5"/>
<text text-anchor="start" x="236.688" y="-107.3" font-family="Helvetica,sans-Serif" font-size="9.00">name</text>
</a>
</g>
<g id="a_node2_12"><a xlink:href="/dictionaries/mmcif_modeling_v10.unix_1.04.dic/Items/_ma_protocol_step.software_used.html" xlink:title="&lt;TABLE&gt;" target="_top">
<polygon fill="none" stroke="black" points="231.688,-79.5 231.688,-99.5 349.688,-99.5 349.688,-79.5 231.688,-79.5"/>
<text text-anchor="start" x="236.688" y="-87.3" font-family="Helvetica,sans-Serif" font-size="9.00">software_used</text>
</a>
</g>
</g>
<!-- _ma_step_output -->
<g id="node3" class="node"><title>_ma_step_output</title>
<g id="a_node3_13"><a xlink:href="/dictionaries/mmcif_modeling_v10.unix_1.04.dic/Categories/ma_step_output.html" xlink:title="&lt;TABLE&gt;" target="_top">
<polygon fill="#f0027f" stroke="none" points="231.688,-404.5 231.688,-425.5 335.688,-425.5 335.688,-404.5 231.688,-404.5"/>
<polygon fill="none" stroke="black" points="231.688,-404.5 231.688,-425.5 335.688,-425.5 335.688,-404.5 231.688,-404.5"/>
<text text-anchor="start" x="236.688" y="-412.5" font-family="Helvetica,sans-Serif" font-size="10.00">MA_STEP_OUTPUT</text>
</a>
</g>
<g id="a_node3_14"><a xlink:href="/dictionaries/mmcif_modeling_v10.unix_1.04.dic/Items/_ma_step_output.id.html" xlink:title="&lt;TABLE&gt;" target="_top">
<polygon fill="#ffff99" stroke="none" points="231.688,-384.5 231.688,-404.5 335.688,-404.5 335.688,-384.5 231.688,-384.5"/>
<polygon fill="none" stroke="black" points="231.688,-384.5 231.688,-404.5 335.688,-404.5 335.688,-384.5 231.688,-384.5"/>
<text text-anchor="start" x="236.688" y="-392.3" font-family="Helvetica,sans-Serif" font-size="9.00">id</text>
</a>
</g>
<g id="a_node3_15"><a xlink:href="/dictionaries/mmcif_modeling_v10.unix_1.04.dic/Items/_ma_step_output.data_id.html" xlink:title="&lt;TABLE&gt;" target="_top">
<polygon fill="none" stroke="black" points="231.688,-364.5 231.688,-384.5 335.688,-384.5 335.688,-364.5 231.688,-364.5"/>
<text text-anchor="start" x="236.688" y="-372.3" font-family="Helvetica,sans-Serif" font-size="9.00">data_id</text>
</a>
</g>
<g id="a_node3_16"><a xlink:href="/dictionaries/mmcif_modeling_v10.unix_1.04.dic/Items/_ma_step_output.protocol_id.html" xlink:title="&lt;TABLE&gt;" target="_top">
<polygon fill="none" stroke="black" points="231.688,-344.5 231.688,-364.5 335.688,-364.5 335.688,-344.5 231.688,-344.5"/>
<text text-anchor="start" x="236.688" y="-352.3" font-family="Helvetica,sans-Serif" font-size="9.00">protocol_id</text>
</a>
</g>
<g id="a_node3_17"><a xlink:href="/dictionaries/mmcif_modeling_v10.unix_1.04.dic/Items/_ma_step_output.step_id.html" xlink:title="&lt;TABLE&gt;" target="_top">
<polygon fill="none" stroke="black" points="231.688,-324.5 231.688,-344.5 335.688,-344.5 335.688,-324.5 231.688,-324.5"/>
<text text-anchor="start" x="236.688" y="-332.3" font-family="Helvetica,sans-Serif" font-size="9.00">step_id</text>
</a>
</g>
<g id="a_node3_18"><a xlink:href="/dictionaries/mmcif_modeling_v10.unix_1.04.dic/Items/_ma_step_output.content_sub_type.html" xlink:title="&lt;TABLE&gt;" target="_top">
<polygon fill="none" stroke="black" points="231.688,-304.5 231.688,-324.5 335.688,-324.5 335.688,-304.5 231.688,-304.5"/>
<text text-anchor="start" x="236.688" y="-312.3" font-family="Helvetica,sans-Serif" font-size="9.00">content_sub_type</text>
</a>
</g>
</g>
<!-- _ma_step_output&#45;&gt;_ma_data -->
<g id="edge1" class="edge"><title>_ma_step_output:__data_id:w&#45;&gt;_ma_data:__id:w</title>
<path fill="none" stroke="black" d="M230.688,-374.5C186.448,-374.5 101.602,-211.576 124.308,-183.573"/>
<polygon fill="black" stroke="black" points="125.909,-186.693 133.688,-179.5 123.121,-180.273 125.909,-186.693"/>
</g>
<!-- _ma_step_output&#45;&gt;_ma_protocol_step -->
<g id="edge2" class="edge"><title>_ma_step_output:__protocol_id:w&#45;&gt;_ma_protocol_step:__protocol_id:w</title>
<path fill="none" stroke="black" d="M230.688,-354.5C216.905,-354.5 214.913,-248.385 224.712,-217.711"/>
<polygon fill="black" stroke="black" points="227.633,-219.645 230.688,-209.5 221.973,-215.526 227.633,-219.645"/>
</g>
<!-- _ma_step_output&#45;&gt;_ma_protocol_step -->
<g id="edge3" class="edge"><title>_ma_step_output:__step_id:w&#45;&gt;_ma_protocol_step:__step_id:w</title>
<path fill="none" stroke="black" d="M230.688,-334.5C216.905,-334.5 214.913,-228.385 224.712,-197.711"/>
<polygon fill="black" stroke="black" points="227.633,-199.645 230.688,-189.5 221.973,-195.526 227.633,-199.645"/>
</g>
</g>
</svg>
