<?xml version="1.0" encoding="UTF-8" standalone="no"?>
<!DOCTYPE svg PUBLIC "-//W3C//DTD SVG 1.1//EN"
 "http://www.w3.org/Graphics/SVG/1.1/DTD/svg11.dtd">
<!-- Generated by graphviz version 2.38.0 (20140413.2041)
 -->
<!-- Title: ma_template_details Pages: 1 -->
<svg width="540pt" height="1168pt"
 viewBox="0.00 0.00 540.00 1168.00" xmlns="http://www.w3.org/2000/svg" xmlns:xlink="http://www.w3.org/1999/xlink">
<g id="graph0" class="graph" transform="scale(1 1) rotate(0) translate(4 1164)">
<title>ma_template_details</title>
<polygon fill="white" stroke="none" points="-4,4 -4,-1164 536,-1164 536,4 -4,4"/>
<text text-anchor="start" x="263" y="-58.6" font-family="Helvetica,sans-Serif" font-size="18.00"> </text>
<text text-anchor="start" x="263" y="-40.6" font-family="Helvetica,sans-Serif" font-size="18.00"> </text>
<text text-anchor="start" x="8" y="-22.6" font-family="Helvetica,sans-Serif" font-size="18.00"> Category Relationship Diagram for </text>
<text text-anchor="start" x="291" y="-22.6" font-family="Helvetica,sans-Serif" font-weight="bold" font-size="18.00">MA_TEMPLATE_DETAILS</text>
<text text-anchor="start" x="514" y="-22.6" font-family="Helvetica,sans-Serif" font-size="18.00"> </text>
<text text-anchor="start" x="520" y="-22.6" font-family="Helvetica,sans-Serif" font-size="14.00"> </text>
<text text-anchor="start" x="132" y="-7.8" font-family="Helvetica,sans-Serif" font-size="14.00"> &#160;in dictionary mmcif_pdbx.dic version 5.296 </text>
<!-- _ma_alignment_details -->
<g id="node1" class="node"><title>_ma_alignment_details</title>
<g id="a_node1_0"><a xlink:href="/dictionaries/mmcif_pdbx_modeling_extension_all.dic/Categories/ma_alignment_details.html" xlink:title="&lt;TABLE&gt;" target="_top">
<polygon fill="#99c49b" stroke="none" points="141.009,-1074.5 141.009,-1095.5 284.009,-1095.5 284.009,-1074.5 141.009,-1074.5"/>
<polygon fill="none" stroke="black" points="141.009,-1074.5 141.009,-1095.5 284.009,-1095.5 284.009,-1074.5 141.009,-1074.5"/>
<text text-anchor="start" x="149.009" y="-1082.5" font-family="Helvetica,sans-Serif" font-size="10.00">MA_ALIGNMENT_DETAILS</text>
</a>
</g>
<g id="a_node1_1"><a xlink:href="/dictionaries/mmcif_pdbx_modeling_extension_all.dic/Items/_ma_alignment_details.ordinal_id.html" xlink:title="&lt;TABLE&gt;" target="_top">
<polygon fill="#ffff99" stroke="none" points="141.009,-1054.5 141.009,-1074.5 284.009,-1074.5 284.009,-1054.5 141.009,-1054.5"/>
<polygon fill="none" stroke="black" points="141.009,-1054.5 141.009,-1074.5 284.009,-1074.5 284.009,-1054.5 141.009,-1054.5"/>
<text text-anchor="start" x="146.009" y="-1062.3" font-family="Helvetica,sans-Serif" font-size="9.00">ordinal_id</text>
</a>
</g>
<g id="a_node1_2"><a xlink:href="/dictionaries/mmcif_pdbx_modeling_extension_all.dic/Items/_ma_alignment_details.template_id.html" xlink:title="&lt;TABLE&gt;" target="_top">
<polygon fill="none" stroke="black" points="141.009,-1034.5 141.009,-1054.5 284.009,-1054.5 284.009,-1034.5 141.009,-1034.5"/>
<text text-anchor="start" x="146.009" y="-1042.3" font-family="Helvetica,sans-Serif" font-size="9.00">template_id</text>
</a>
</g>
<g id="a_node1_3"><a xlink:href="/dictionaries/mmcif_pdbx_modeling_extension_all.dic/Items/_ma_alignment_details.alignment_id.html" xlink:title="&lt;TABLE&gt;" target="_top">
<polygon fill="none" stroke="black" points="141.009,-1014.5 141.009,-1034.5 284.009,-1034.5 284.009,-1014.5 141.009,-1014.5"/>
<text text-anchor="start" x="146.009" y="-1022.3" font-family="Helvetica,sans-Serif" font-size="9.00">alignment_id</text>
</a>
</g>
<g id="a_node1_4"><a xlink:href="/dictionaries/mmcif_pdbx_modeling_extension_all.dic/Items/_ma_alignment_details.alignment_length.html" xlink:title="&lt;TABLE&gt;" target="_top">
<polygon fill="none" stroke="black" points="141.009,-994.5 141.009,-1014.5 284.009,-1014.5 284.009,-994.5 141.009,-994.5"/>
<text text-anchor="start" x="146.009" y="-1002.3" font-family="Helvetica,sans-Serif" font-size="9.00">alignment_length</text>
</a>
</g>
<g id="a_node1_5"><a xlink:href="/dictionaries/mmcif_pdbx_modeling_extension_all.dic/Items/_ma_alignment_details.alignment_type.html" xlink:title="&lt;TABLE&gt;" target="_top">
<polygon fill="none" stroke="black" points="141.009,-974.5 141.009,-994.5 284.009,-994.5 284.009,-974.5 141.009,-974.5"/>
<text text-anchor="start" x="146.009" y="-982.3" font-family="Helvetica,sans-Serif" font-size="9.00">alignment_type</text>
</a>
</g>
<g id="a_node1_6"><a xlink:href="/dictionaries/mmcif_pdbx_modeling_extension_all.dic/Items/_ma_alignment_details.data_id.html" xlink:title="&lt;TABLE&gt;" target="_top">
<polygon fill="none" stroke="black" points="141.009,-954.5 141.009,-974.5 284.009,-974.5 284.009,-954.5 141.009,-954.5"/>
<text text-anchor="start" x="146.009" y="-962.3" font-family="Helvetica,sans-Serif" font-size="9.00">data_id</text>
</a>
</g>
<g id="a_node1_7"><a xlink:href="/dictionaries/mmcif_pdbx_modeling_extension_all.dic/Items/_ma_alignment_details.e_value.html" xlink:title="&lt;TABLE&gt;" target="_top">
<polygon fill="none" stroke="black" points="141.009,-934.5 141.009,-954.5 284.009,-954.5 284.009,-934.5 141.009,-934.5"/>
<text text-anchor="start" x="146.009" y="-942.3" font-family="Helvetica,sans-Serif" font-size="9.00">e_value</text>
</a>
</g>
<g id="a_node1_8"><a xlink:href="/dictionaries/mmcif_pdbx_modeling_extension_all.dic/Items/_ma_alignment_details.percent_sequence_identity.html" xlink:title="&lt;TABLE&gt;" target="_top">
<polygon fill="none" stroke="black" points="141.009,-914.5 141.009,-934.5 284.009,-934.5 284.009,-914.5 141.009,-914.5"/>
<text text-anchor="start" x="146.009" y="-922.3" font-family="Helvetica,sans-Serif" font-size="9.00">percent_sequence_identity</text>
</a>
</g>
<g id="a_node1_9"><a xlink:href="/dictionaries/mmcif_pdbx_modeling_extension_all.dic/Items/_ma_alignment_details.sequence_identity_denominator.html" xlink:title="&lt;TABLE&gt;" target="_top">
<polygon fill="none" stroke="black" points="141.009,-894.5 141.009,-914.5 284.009,-914.5 284.009,-894.5 141.009,-894.5"/>
<text text-anchor="start" x="146.009" y="-902.3" font-family="Helvetica,sans-Serif" font-size="9.00">sequence_identity_denominator</text>
</a>
</g>
<g id="a_node1_10"><a xlink:href="/dictionaries/mmcif_pdbx_modeling_extension_all.dic/Items/_ma_alignment_details.software_id.html" xlink:title="&lt;TABLE&gt;" target="_top">
<polygon fill="none" stroke="black" points="141.009,-874.5 141.009,-894.5 284.009,-894.5 284.009,-874.5 141.009,-874.5"/>
<text text-anchor="start" x="146.009" y="-882.3" font-family="Helvetica,sans-Serif" font-size="9.00">software_id</text>
</a>
</g>
<g id="a_node1_11"><a xlink:href="/dictionaries/mmcif_pdbx_modeling_extension_all.dic/Items/_ma_alignment_details.target_id.html" xlink:title="&lt;TABLE&gt;" target="_top">
<polygon fill="none" stroke="black" points="141.009,-854.5 141.009,-874.5 284.009,-874.5 284.009,-854.5 141.009,-854.5"/>
<text text-anchor="start" x="146.009" y="-862.3" font-family="Helvetica,sans-Serif" font-size="9.00">target_id</text>
</a>
</g>
</g>
<!-- _ma_data -->
<g id="node2" class="node"><title>_ma_data</title>
<g id="a_node2_12"><a xlink:href="/dictionaries/mmcif_pdbx_modeling_extension_all.dic/Categories/ma_data.html" xlink:title="&lt;TABLE&gt;" target="_top">
<polygon fill="#99c49b" stroke="none" points="159.009,-159.5 159.009,-180.5 242.009,-180.5 242.009,-159.5 159.009,-159.5"/>
<polygon fill="none" stroke="black" points="159.009,-159.5 159.009,-180.5 242.009,-180.5 242.009,-159.5 159.009,-159.5"/>
<text text-anchor="start" x="176.509" y="-167.5" font-family="Helvetica,sans-Serif" font-size="10.00">MA_DATA</text>
</a>
</g>
<g id="a_node2_13"><a xlink:href="/dictionaries/mmcif_pdbx_modeling_extension_all.dic/Items/_ma_data.id.html" xlink:title="&lt;TABLE&gt;" target="_top">
<polygon fill="#ffff99" stroke="none" points="159.009,-139.5 159.009,-159.5 242.009,-159.5 242.009,-139.5 159.009,-139.5"/>
<polygon fill="none" stroke="black" points="159.009,-139.5 159.009,-159.5 242.009,-159.5 242.009,-139.5 159.009,-139.5"/>
<text text-anchor="start" x="164.009" y="-147.3" font-family="Helvetica,sans-Serif" font-size="9.00">id</text>
</a>
</g>
<g id="a_node2_14"><a xlink:href="/dictionaries/mmcif_pdbx_modeling_extension_all.dic/Items/_ma_data.content_sub_type.html" xlink:title="&lt;TABLE&gt;" target="_top">
<polygon fill="none" stroke="black" points="159.009,-119.5 159.009,-139.5 242.009,-139.5 242.009,-119.5 159.009,-119.5"/>
<text text-anchor="start" x="164.009" y="-127.3" font-family="Helvetica,sans-Serif" font-size="9.00">content_sub_type</text>
</a>
</g>
<g id="a_node2_15"><a xlink:href="/dictionaries/mmcif_pdbx_modeling_extension_all.dic/Items/_ma_data.content_type.html" xlink:title="&lt;TABLE&gt;" target="_top">
<polygon fill="none" stroke="black" points="159.009,-99.5 159.009,-119.5 242.009,-119.5 242.009,-99.5 159.009,-99.5"/>
<text text-anchor="start" x="164.009" y="-107.3" font-family="Helvetica,sans-Serif" font-size="9.00">content_type</text>
</a>
</g>
<g id="a_node2_16"><a xlink:href="/dictionaries/mmcif_pdbx_modeling_extension_all.dic/Items/_ma_data.name.html" xlink:title="&lt;TABLE&gt;" target="_top">
<polygon fill="none" stroke="black" points="159.009,-79.5 159.009,-99.5 242.009,-99.5 242.009,-79.5 159.009,-79.5"/>
<text text-anchor="start" x="164.009" y="-87.3" font-family="Helvetica,sans-Serif" font-size="9.00">name</text>
</a>
</g>
</g>
<!-- _ma_alignment_details&#45;&gt;_ma_data -->
<g id="edge1" class="edge"><title>_ma_alignment_details:__data_id:w&#45;&gt;_ma_data:__id:w</title>
<path fill="none" stroke="black" d="M140.009,-964.5C52.7924,-964.5 66.2448,-208.866 148.227,-152.784"/>
<polygon fill="black" stroke="black" points="149.643,-156 158.009,-149.5 147.415,-149.364 149.643,-156"/>
</g>
<!-- _ma_target_details -->
<g id="node3" class="node"><title>_ma_target_details</title>
<g id="a_node3_17"><a xlink:href="/dictionaries/mmcif_pdbx_modeling_extension_all.dic/Categories/ma_target_details.html" xlink:title="&lt;TABLE&gt;" target="_top">
<polygon fill="#99c49b" stroke="none" points="159.009,-424.5 159.009,-445.5 278.009,-445.5 278.009,-424.5 159.009,-424.5"/>
<polygon fill="none" stroke="black" points="159.009,-424.5 159.009,-445.5 278.009,-445.5 278.009,-424.5 159.009,-424.5"/>
<text text-anchor="start" x="164.009" y="-432.5" font-family="Helvetica,sans-Serif" font-size="10.00">MA_TARGET_DETAILS</text>
</a>
</g>
<g id="a_node3_18"><a xlink:href="/dictionaries/mmcif_pdbx_modeling_extension_all.dic/Items/_ma_target_details.id.html" xlink:title="&lt;TABLE&gt;" target="_top">
<polygon fill="#ffff99" stroke="none" points="159.009,-404.5 159.009,-424.5 278.009,-424.5 278.009,-404.5 159.009,-404.5"/>
<polygon fill="none" stroke="black" points="159.009,-404.5 159.009,-424.5 278.009,-424.5 278.009,-404.5 159.009,-404.5"/>
<text text-anchor="start" x="164.009" y="-412.3" font-family="Helvetica,sans-Serif" font-size="9.00">id</text>
</a>
</g>
<g id="a_node3_19"><a xlink:href="/dictionaries/mmcif_pdbx_modeling_extension_all.dic/Items/_ma_target_details.entity_id.html" xlink:title="&lt;TABLE&gt;" target="_top">
<polygon fill="none" stroke="black" points="159.009,-384.5 159.009,-404.5 278.009,-404.5 278.009,-384.5 159.009,-384.5"/>
<text text-anchor="start" x="164.009" y="-392.3" font-family="Helvetica,sans-Serif" font-size="9.00">entity_id</text>
</a>
</g>
<g id="a_node3_20"><a xlink:href="/dictionaries/mmcif_pdbx_modeling_extension_all.dic/Items/_ma_target_details.data_id.html" xlink:title="&lt;TABLE&gt;" target="_top">
<polygon fill="none" stroke="black" points="159.009,-364.5 159.009,-384.5 278.009,-384.5 278.009,-364.5 159.009,-364.5"/>
<text text-anchor="start" x="164.009" y="-372.3" font-family="Helvetica,sans-Serif" font-size="9.00">data_id</text>
</a>
</g>
<g id="a_node3_21"><a xlink:href="/dictionaries/mmcif_pdbx_modeling_extension_all.dic/Items/_ma_target_details.db_accession.html" xlink:title="&lt;TABLE&gt;" target="_top">
<polygon fill="none" stroke="black" points="159.009,-344.5 159.009,-364.5 278.009,-364.5 278.009,-344.5 159.009,-344.5"/>
<text text-anchor="start" x="164.009" y="-352.3" font-family="Helvetica,sans-Serif" font-size="9.00">db_accession</text>
</a>
</g>
<g id="a_node3_22"><a xlink:href="/dictionaries/mmcif_pdbx_modeling_extension_all.dic/Items/_ma_target_details.db_code.html" xlink:title="&lt;TABLE&gt;" target="_top">
<polygon fill="none" stroke="black" points="159.009,-324.5 159.009,-344.5 278.009,-344.5 278.009,-324.5 159.009,-324.5"/>
<text text-anchor="start" x="164.009" y="-332.3" font-family="Helvetica,sans-Serif" font-size="9.00">db_code</text>
</a>
</g>
<g id="a_node3_23"><a xlink:href="/dictionaries/mmcif_pdbx_modeling_extension_all.dic/Items/_ma_target_details.db_isoform.html" xlink:title="&lt;TABLE&gt;" target="_top">
<polygon fill="none" stroke="black" points="159.009,-304.5 159.009,-324.5 278.009,-324.5 278.009,-304.5 159.009,-304.5"/>
<text text-anchor="start" x="164.009" y="-312.3" font-family="Helvetica,sans-Serif" font-size="9.00">db_isoform</text>
</a>
</g>
<g id="a_node3_24"><a xlink:href="/dictionaries/mmcif_pdbx_modeling_extension_all.dic/Items/_ma_target_details.db_name.html" xlink:title="&lt;TABLE&gt;" target="_top">
<polygon fill="none" stroke="black" points="159.009,-284.5 159.009,-304.5 278.009,-304.5 278.009,-284.5 159.009,-284.5"/>
<text text-anchor="start" x="164.009" y="-292.3" font-family="Helvetica,sans-Serif" font-size="9.00">db_name</text>
</a>
</g>
<g id="a_node3_25"><a xlink:href="/dictionaries/mmcif_pdbx_modeling_extension_all.dic/Items/_ma_target_details.seq_db_align_begin.html" xlink:title="&lt;TABLE&gt;" target="_top">
<polygon fill="none" stroke="black" points="159.009,-264.5 159.009,-284.5 278.009,-284.5 278.009,-264.5 159.009,-264.5"/>
<text text-anchor="start" x="164.009" y="-272.3" font-family="Helvetica,sans-Serif" font-size="9.00">seq_db_align_begin</text>
</a>
</g>
<g id="a_node3_26"><a xlink:href="/dictionaries/mmcif_pdbx_modeling_extension_all.dic/Items/_ma_target_details.seq_db_align_end.html" xlink:title="&lt;TABLE&gt;" target="_top">
<polygon fill="none" stroke="black" points="159.009,-244.5 159.009,-264.5 278.009,-264.5 278.009,-244.5 159.009,-244.5"/>
<text text-anchor="start" x="164.009" y="-252.3" font-family="Helvetica,sans-Serif" font-size="9.00">seq_db_align_end</text>
</a>
</g>
<g id="a_node3_27"><a xlink:href="/dictionaries/mmcif_pdbx_modeling_extension_all.dic/Items/_ma_target_details.seq_db_one_letter_code.html" xlink:title="&lt;TABLE&gt;" target="_top">
<polygon fill="none" stroke="black" points="159.009,-224.5 159.009,-244.5 278.009,-244.5 278.009,-224.5 159.009,-224.5"/>
<text text-anchor="start" x="164.009" y="-232.3" font-family="Helvetica,sans-Serif" font-size="9.00">seq_db_one_letter_code</text>
</a>
</g>
</g>
<!-- _ma_alignment_details&#45;&gt;_ma_target_details -->
<g id="edge2" class="edge"><title>_ma_alignment_details:__target_id:w&#45;&gt;_ma_target_details:__id:w</title>
<path fill="none" stroke="black" d="M140.009,-864.5C128.598,-864.5 142.57,-490.125 154.607,-424.317"/>
<polygon fill="black" stroke="black" points="158.042,-425.095 158.009,-414.5 151.428,-422.803 158.042,-425.095"/>
</g>
<!-- _ma_template_details -->
<g id="node5" class="node"><title>_ma_template_details</title>
<g id="a_node5_28"><a xlink:href="/dictionaries/mmcif_pdbx_modeling_extension_all.dic/Categories/ma_template_details.html" xlink:title="&lt;TABLE&gt;" target="_top">
<polygon fill="#f0027f" stroke="none" points="248.009,-729.5 248.009,-750.5 387.009,-750.5 387.009,-729.5 248.009,-729.5"/>
<polygon fill="none" stroke="black" points="248.009,-729.5 248.009,-750.5 387.009,-750.5 387.009,-729.5 248.009,-729.5"/>
<text text-anchor="start" x="257.009" y="-737.5" font-family="Helvetica,sans-Serif" font-size="10.00">MA_TEMPLATE_DETAILS</text>
</a>
</g>
<g id="a_node5_29"><a xlink:href="/dictionaries/mmcif_pdbx_modeling_extension_all.dic/Items/_ma_template_details.id.html" xlink:title="&lt;TABLE&gt;" target="_top">
<polygon fill="#ffff99" stroke="none" points="248.009,-709.5 248.009,-729.5 387.009,-729.5 387.009,-709.5 248.009,-709.5"/>
<polygon fill="none" stroke="black" points="248.009,-709.5 248.009,-729.5 387.009,-729.5 387.009,-709.5 248.009,-709.5"/>
<text text-anchor="start" x="253.009" y="-717.3" font-family="Helvetica,sans-Serif" font-size="9.00">id</text>
</a>
</g>
<g id="a_node5_30"><a xlink:href="/dictionaries/mmcif_pdbx_modeling_extension_all.dic/Items/_ma_template_details.data_id.html" xlink:title="&lt;TABLE&gt;" target="_top">
<polygon fill="none" stroke="black" points="248.009,-689.5 248.009,-709.5 387.009,-709.5 387.009,-689.5 248.009,-689.5"/>
<text text-anchor="start" x="253.009" y="-697.3" font-family="Helvetica,sans-Serif" font-size="9.00">data_id</text>
</a>
</g>
<g id="a_node5_31"><a xlink:href="/dictionaries/mmcif_pdbx_modeling_extension_all.dic/Items/_ma_template_details.target_entity_id.html" xlink:title="&lt;TABLE&gt;" target="_top">
<polygon fill="none" stroke="black" points="248.009,-669.5 248.009,-689.5 387.009,-689.5 387.009,-669.5 248.009,-669.5"/>
<text text-anchor="start" x="253.009" y="-677.3" font-family="Helvetica,sans-Serif" font-size="9.00">target_entity_id</text>
</a>
</g>
<g id="a_node5_32"><a xlink:href="/dictionaries/mmcif_pdbx_modeling_extension_all.dic/Items/_ma_template_details.group_id.html" xlink:title="&lt;TABLE&gt;" target="_top">
<polygon fill="none" stroke="black" points="248.009,-649.5 248.009,-669.5 387.009,-669.5 387.009,-649.5 248.009,-649.5"/>
<text text-anchor="start" x="253.009" y="-657.3" font-family="Helvetica,sans-Serif" font-size="9.00">group_id</text>
</a>
</g>
<g id="a_node5_33"><a xlink:href="/dictionaries/mmcif_pdbx_modeling_extension_all.dic/Items/_ma_template_details.pdb_code.html" xlink:title="&lt;TABLE&gt;" target="_top">
<polygon fill="none" stroke="black" points="248.009,-629.5 248.009,-649.5 387.009,-649.5 387.009,-629.5 248.009,-629.5"/>
<text text-anchor="start" x="253.009" y="-637.3" font-family="Helvetica,sans-Serif" font-size="9.00">pdb_code</text>
</a>
</g>
<g id="a_node5_34"><a xlink:href="/dictionaries/mmcif_pdbx_modeling_extension_all.dic/Items/_ma_template_details.pdb_entity_id.html" xlink:title="&lt;TABLE&gt;" target="_top">
<polygon fill="none" stroke="black" points="248.009,-609.5 248.009,-629.5 387.009,-629.5 387.009,-609.5 248.009,-609.5"/>
<text text-anchor="start" x="253.009" y="-617.3" font-family="Helvetica,sans-Serif" font-size="9.00">pdb_entity_id</text>
</a>
</g>
<g id="a_node5_35"><a xlink:href="/dictionaries/mmcif_pdbx_modeling_extension_all.dic/Items/_ma_template_details.pdb_label_asym_id.html" xlink:title="&lt;TABLE&gt;" target="_top">
<polygon fill="none" stroke="black" points="248.009,-589.5 248.009,-609.5 387.009,-609.5 387.009,-589.5 248.009,-589.5"/>
<text text-anchor="start" x="253.009" y="-597.3" font-family="Helvetica,sans-Serif" font-size="9.00">pdb_label_asym_id</text>
</a>
</g>
<g id="a_node5_36"><a xlink:href="/dictionaries/mmcif_pdbx_modeling_extension_all.dic/Items/_ma_template_details.pdb_model_num.html" xlink:title="&lt;TABLE&gt;" target="_top">
<polygon fill="none" stroke="black" points="248.009,-569.5 248.009,-589.5 387.009,-589.5 387.009,-569.5 248.009,-569.5"/>
<text text-anchor="start" x="253.009" y="-577.3" font-family="Helvetica,sans-Serif" font-size="9.00">pdb_model_num</text>
</a>
</g>
<g id="a_node5_37"><a xlink:href="/dictionaries/mmcif_pdbx_modeling_extension_all.dic/Items/_ma_template_details.pdb_seq_id_begin.html" xlink:title="&lt;TABLE&gt;" target="_top">
<polygon fill="none" stroke="black" points="248.009,-549.5 248.009,-569.5 387.009,-569.5 387.009,-549.5 248.009,-549.5"/>
<text text-anchor="start" x="253.009" y="-557.3" font-family="Helvetica,sans-Serif" font-size="9.00">pdb_seq_id_begin</text>
</a>
</g>
<g id="a_node5_38"><a xlink:href="/dictionaries/mmcif_pdbx_modeling_extension_all.dic/Items/_ma_template_details.pdb_seq_id_end.html" xlink:title="&lt;TABLE&gt;" target="_top">
<polygon fill="none" stroke="black" points="248.009,-529.5 248.009,-549.5 387.009,-549.5 387.009,-529.5 248.009,-529.5"/>
<text text-anchor="start" x="253.009" y="-537.3" font-family="Helvetica,sans-Serif" font-size="9.00">pdb_seq_id_end</text>
</a>
</g>
<g id="a_node5_39"><a xlink:href="/dictionaries/mmcif_pdbx_modeling_extension_all.dic/Items/_ma_template_details.pdb_seq_one_letter_code.html" xlink:title="&lt;TABLE&gt;" target="_top">
<polygon fill="none" stroke="black" points="248.009,-509.5 248.009,-529.5 387.009,-529.5 387.009,-509.5 248.009,-509.5"/>
<text text-anchor="start" x="253.009" y="-517.3" font-family="Helvetica,sans-Serif" font-size="9.00">pdb_seq_one_letter_code</text>
</a>
</g>
<g id="a_node5_40"><a xlink:href="/dictionaries/mmcif_pdbx_modeling_extension_all.dic/Items/_ma_template_details.pdb_seq_one_letter_code_can.html" xlink:title="&lt;TABLE&gt;" target="_top">
<polygon fill="none" stroke="black" points="248.009,-489.5 248.009,-509.5 387.009,-509.5 387.009,-489.5 248.009,-489.5"/>
<text text-anchor="start" x="253.009" y="-497.3" font-family="Helvetica,sans-Serif" font-size="9.00">pdb_seq_one_letter_code_can</text>
</a>
</g>
</g>
<!-- _ma_alignment_details&#45;&gt;_ma_template_details -->
<g id="edge3" class="edge"><title>_ma_alignment_details:__template_id:w&#45;&gt;_ma_template_details:__id:w</title>
<path fill="none" stroke="black" d="M140.009,-1044.5C54.0077,-1044.5 112.182,-932.026 141.009,-851 164.991,-783.59 171.357,-725.219 236.9,-719.895"/>
<polygon fill="black" stroke="black" points="237.153,-723.388 247.009,-719.5 236.88,-716.394 237.153,-723.388"/>
</g>
<!-- _ma_target_details&#45;&gt;_ma_data -->
<g id="edge5" class="edge"><title>_ma_target_details:__data_id:w&#45;&gt;_ma_data:__id:w</title>
<path fill="none" stroke="black" d="M158.009,-374.5C135.743,-374.5 133.308,-196.027 150.703,-156.986"/>
<polygon fill="black" stroke="black" points="153.529,-159.101 158.009,-149.5 148.52,-154.212 153.529,-159.101"/>
</g>
<!-- _ma_template_coord -->
<g id="node4" class="node"><title>_ma_template_coord</title>
<g id="a_node4_41"><a xlink:href="/dictionaries/mmcif_pdbx_modeling_extension_all.dic/Categories/ma_template_coord.html" xlink:title="&lt;TABLE&gt;" target="_top">
<polygon fill="#99c49b" stroke="none" points="318.009,-1134.5 318.009,-1155.5 444.009,-1155.5 444.009,-1134.5 318.009,-1134.5"/>
<polygon fill="none" stroke="black" points="318.009,-1134.5 318.009,-1155.5 444.009,-1155.5 444.009,-1134.5 318.009,-1134.5"/>
<text text-anchor="start" x="323.009" y="-1142.5" font-family="Helvetica,sans-Serif" font-size="10.00">MA_TEMPLATE_COORD</text>
</a>
</g>
<g id="a_node4_42"><a xlink:href="/dictionaries/mmcif_pdbx_modeling_extension_all.dic/Items/_ma_template_coord.ordinal_id.html" xlink:title="&lt;TABLE&gt;" target="_top">
<polygon fill="#ffff99" stroke="none" points="318.009,-1114.5 318.009,-1134.5 444.009,-1134.5 444.009,-1114.5 318.009,-1114.5"/>
<polygon fill="none" stroke="black" points="318.009,-1114.5 318.009,-1134.5 444.009,-1134.5 444.009,-1114.5 318.009,-1114.5"/>
<text text-anchor="start" x="323.009" y="-1122.3" font-family="Helvetica,sans-Serif" font-size="9.00">ordinal_id</text>
</a>
</g>
<g id="a_node4_43"><a xlink:href="/dictionaries/mmcif_pdbx_modeling_extension_all.dic/Items/_ma_template_coord.template_id.html" xlink:title="&lt;TABLE&gt;" target="_top">
<polygon fill="none" stroke="black" points="318.009,-1094.5 318.009,-1114.5 444.009,-1114.5 444.009,-1094.5 318.009,-1094.5"/>
<text text-anchor="start" x="323.009" y="-1102.3" font-family="Helvetica,sans-Serif" font-size="9.00">template_id</text>
</a>
</g>
<g id="a_node4_44"><a xlink:href="/dictionaries/mmcif_pdbx_modeling_extension_all.dic/Items/_ma_template_coord.B_iso_or_equiv.html" xlink:title="&lt;TABLE&gt;" target="_top">
<polygon fill="none" stroke="black" points="318.009,-1074.5 318.009,-1094.5 444.009,-1094.5 444.009,-1074.5 318.009,-1074.5"/>
<text text-anchor="start" x="323.009" y="-1082.3" font-family="Helvetica,sans-Serif" font-size="9.00">B_iso_or_equiv</text>
</a>
</g>
<g id="a_node4_45"><a xlink:href="/dictionaries/mmcif_pdbx_modeling_extension_all.dic/Items/_ma_template_coord.Cartn_x.html" xlink:title="&lt;TABLE&gt;" target="_top">
<polygon fill="none" stroke="black" points="318.009,-1054.5 318.009,-1074.5 444.009,-1074.5 444.009,-1054.5 318.009,-1054.5"/>
<text text-anchor="start" x="323.009" y="-1062.3" font-family="Helvetica,sans-Serif" font-size="9.00">Cartn_x</text>
</a>
</g>
<g id="a_node4_46"><a xlink:href="/dictionaries/mmcif_pdbx_modeling_extension_all.dic/Items/_ma_template_coord.Cartn_y.html" xlink:title="&lt;TABLE&gt;" target="_top">
<polygon fill="none" stroke="black" points="318.009,-1034.5 318.009,-1054.5 444.009,-1054.5 444.009,-1034.5 318.009,-1034.5"/>
<text text-anchor="start" x="323.009" y="-1042.3" font-family="Helvetica,sans-Serif" font-size="9.00">Cartn_y</text>
</a>
</g>
<g id="a_node4_47"><a xlink:href="/dictionaries/mmcif_pdbx_modeling_extension_all.dic/Items/_ma_template_coord.Cartn_z.html" xlink:title="&lt;TABLE&gt;" target="_top">
<polygon fill="none" stroke="black" points="318.009,-1014.5 318.009,-1034.5 444.009,-1034.5 444.009,-1014.5 318.009,-1014.5"/>
<text text-anchor="start" x="323.009" y="-1022.3" font-family="Helvetica,sans-Serif" font-size="9.00">Cartn_z</text>
</a>
</g>
<g id="a_node4_48"><a xlink:href="/dictionaries/mmcif_pdbx_modeling_extension_all.dic/Items/_ma_template_coord.formal_charge.html" xlink:title="&lt;TABLE&gt;" target="_top">
<polygon fill="none" stroke="black" points="318.009,-994.5 318.009,-1014.5 444.009,-1014.5 444.009,-994.5 318.009,-994.5"/>
<text text-anchor="start" x="323.009" y="-1002.3" font-family="Helvetica,sans-Serif" font-size="9.00">formal_charge</text>
</a>
</g>
<g id="a_node4_49"><a xlink:href="/dictionaries/mmcif_pdbx_modeling_extension_all.dic/Items/_ma_template_coord.group_PDB.html" xlink:title="&lt;TABLE&gt;" target="_top">
<polygon fill="none" stroke="black" points="318.009,-974.5 318.009,-994.5 444.009,-994.5 444.009,-974.5 318.009,-974.5"/>
<text text-anchor="start" x="323.009" y="-982.3" font-family="Helvetica,sans-Serif" font-size="9.00">group_PDB</text>
</a>
</g>
<g id="a_node4_50"><a xlink:href="/dictionaries/mmcif_pdbx_modeling_extension_all.dic/Items/_ma_template_coord.id.html" xlink:title="&lt;TABLE&gt;" target="_top">
<polygon fill="none" stroke="black" points="318.009,-954.5 318.009,-974.5 444.009,-974.5 444.009,-954.5 318.009,-954.5"/>
<text text-anchor="start" x="323.009" y="-962.3" font-family="Helvetica,sans-Serif" font-size="9.00">id</text>
</a>
</g>
<g id="a_node4_51"><a xlink:href="/dictionaries/mmcif_pdbx_modeling_extension_all.dic/Items/_ma_template_coord.label_asym_id.html" xlink:title="&lt;TABLE&gt;" target="_top">
<polygon fill="none" stroke="black" points="318.009,-934.5 318.009,-954.5 444.009,-954.5 444.009,-934.5 318.009,-934.5"/>
<text text-anchor="start" x="323.009" y="-942.3" font-family="Helvetica,sans-Serif" font-size="9.00">label_asym_id</text>
</a>
</g>
<g id="a_node4_52"><a xlink:href="/dictionaries/mmcif_pdbx_modeling_extension_all.dic/Items/_ma_template_coord.label_atom_id.html" xlink:title="&lt;TABLE&gt;" target="_top">
<polygon fill="none" stroke="black" points="318.009,-914.5 318.009,-934.5 444.009,-934.5 444.009,-914.5 318.009,-914.5"/>
<text text-anchor="start" x="323.009" y="-922.3" font-family="Helvetica,sans-Serif" font-size="9.00">label_atom_id</text>
</a>
</g>
<g id="a_node4_53"><a xlink:href="/dictionaries/mmcif_pdbx_modeling_extension_all.dic/Items/_ma_template_coord.label_comp_id.html" xlink:title="&lt;TABLE&gt;" target="_top">
<polygon fill="none" stroke="black" points="318.009,-894.5 318.009,-914.5 444.009,-914.5 444.009,-894.5 318.009,-894.5"/>
<text text-anchor="start" x="323.009" y="-902.3" font-family="Helvetica,sans-Serif" font-size="9.00">label_comp_id</text>
</a>
</g>
<g id="a_node4_54"><a xlink:href="/dictionaries/mmcif_pdbx_modeling_extension_all.dic/Items/_ma_template_coord.label_entity_id.html" xlink:title="&lt;TABLE&gt;" target="_top">
<polygon fill="none" stroke="black" points="318.009,-874.5 318.009,-894.5 444.009,-894.5 444.009,-874.5 318.009,-874.5"/>
<text text-anchor="start" x="323.009" y="-882.3" font-family="Helvetica,sans-Serif" font-size="9.00">label_entity_id</text>
</a>
</g>
<g id="a_node4_55"><a xlink:href="/dictionaries/mmcif_pdbx_modeling_extension_all.dic/Items/_ma_template_coord.label_seq_id.html" xlink:title="&lt;TABLE&gt;" target="_top">
<polygon fill="none" stroke="black" points="318.009,-854.5 318.009,-874.5 444.009,-874.5 444.009,-854.5 318.009,-854.5"/>
<text text-anchor="start" x="323.009" y="-862.3" font-family="Helvetica,sans-Serif" font-size="9.00">label_seq_id</text>
</a>
</g>
<g id="a_node4_56"><a xlink:href="/dictionaries/mmcif_pdbx_modeling_extension_all.dic/Items/_ma_template_coord.occupancy.html" xlink:title="&lt;TABLE&gt;" target="_top">
<polygon fill="none" stroke="black" points="318.009,-834.5 318.009,-854.5 444.009,-854.5 444.009,-834.5 318.009,-834.5"/>
<text text-anchor="start" x="323.009" y="-842.3" font-family="Helvetica,sans-Serif" font-size="9.00">occupancy</text>
</a>
</g>
<g id="a_node4_57"><a xlink:href="/dictionaries/mmcif_pdbx_modeling_extension_all.dic/Items/_ma_template_coord.pdb_model_num.html" xlink:title="&lt;TABLE&gt;" target="_top">
<polygon fill="none" stroke="black" points="318.009,-814.5 318.009,-834.5 444.009,-834.5 444.009,-814.5 318.009,-814.5"/>
<text text-anchor="start" x="323.009" y="-822.3" font-family="Helvetica,sans-Serif" font-size="9.00">pdb_model_num</text>
</a>
</g>
<g id="a_node4_58"><a xlink:href="/dictionaries/mmcif_pdbx_modeling_extension_all.dic/Items/_ma_template_coord.type_symbol.html" xlink:title="&lt;TABLE&gt;" target="_top">
<polygon fill="none" stroke="black" points="318.009,-794.5 318.009,-814.5 444.009,-814.5 444.009,-794.5 318.009,-794.5"/>
<text text-anchor="start" x="323.009" y="-802.3" font-family="Helvetica,sans-Serif" font-size="9.00">type_symbol</text>
</a>
</g>
</g>
<!-- _ma_template_coord&#45;&gt;_ma_template_details -->
<g id="edge7" class="edge"><title>_ma_template_coord:__template_id:w&#45;&gt;_ma_template_details:__id:w</title>
<path fill="none" stroke="black" d="M317.009,-1104.5C282.124,-1104.5 317.03,-821.45 300.009,-791 286.294,-766.464 261.404,-779.712 248.009,-755 242.896,-745.568 236.98,-732.558 238.67,-725.19"/>
<polygon fill="black" stroke="black" points="240.722,-728.028 247.009,-719.5 236.776,-722.246 240.722,-728.028"/>
</g>
<!-- _ma_template_details&#45;&gt;_ma_data -->
<g id="edge4" class="edge"><title>_ma_template_details:__data_id:w&#45;&gt;_ma_data:__id:w</title>
<path fill="none" stroke="black" d="M247.009,-699.5C152.119,-699.5 206.247,-571.206 248.009,-486 259.434,-462.688 282.638,-473.338 294.009,-450 338.588,-358.504 356.016,-301.709 294.009,-221 256.177,-171.758 197.53,-233.704 159.009,-185 152.124,-176.295 146.623,-162.281 149.451,-154.727"/>
<polygon fill="black" stroke="black" points="151.299,-157.699 158.009,-149.5 147.65,-151.726 151.299,-157.699"/>
</g>
<!-- _ma_template_details&#45;&gt;_ma_target_details -->
<g id="edge6" class="edge"><title>_ma_template_details:__target_entity_id:w&#45;&gt;_ma_target_details:__entity_id:w</title>
<path fill="none" stroke="black" d="M247.009,-679.5C155.092,-679.5 207.912,-571.435 174.009,-486 167.615,-469.889 162.561,-466.965 159.009,-450 154.94,-430.569 140.797,-406.472 148.283,-397.801"/>
<polygon fill="black" stroke="black" points="149.664,-401.028 158.009,-394.5 147.414,-394.399 149.664,-401.028"/>
</g>
</g>
</svg>
