<?xml version="1.0" encoding="UTF-8" standalone="no"?>
<!DOCTYPE svg PUBLIC "-//W3C//DTD SVG 1.1//EN"
 "http://www.w3.org/Graphics/SVG/1.1/DTD/svg11.dtd">
<!-- Generated by graphviz version 2.38.0 (20140413.2041)
 -->
<!-- Title: ma_template_details Pages: 1 -->
<svg width="540pt" height="983pt"
 viewBox="0.00 0.00 540.00 983.00" xmlns="http://www.w3.org/2000/svg" xmlns:xlink="http://www.w3.org/1999/xlink">
<g id="graph0" class="graph" transform="scale(1 1) rotate(0) translate(4 979)">
<title>ma_template_details</title>
<polygon fill="white" stroke="none" points="-4,4 -4,-979 536,-979 536,4 -4,4"/>
<text text-anchor="start" x="263" y="-58.6" font-family="Helvetica,sans-Serif" font-size="18.00"> </text>
<text text-anchor="start" x="263" y="-40.6" font-family="Helvetica,sans-Serif" font-size="18.00"> </text>
<text text-anchor="start" x="8" y="-22.6" font-family="Helvetica,sans-Serif" font-size="18.00"> Category Relationship Diagram for </text>
<text text-anchor="start" x="291" y="-22.6" font-family="Helvetica,sans-Serif" font-weight="bold" font-size="18.00">MA_TEMPLATE_DETAILS</text>
<text text-anchor="start" x="514" y="-22.6" font-family="Helvetica,sans-Serif" font-size="18.00"> </text>
<text text-anchor="start" x="520" y="-22.6" font-family="Helvetica,sans-Serif" font-size="14.00"> </text>
<text text-anchor="start" x="132" y="-7.8" font-family="Helvetica,sans-Serif" font-size="14.00"> &#160;in dictionary mmcif_pdbx.dic version 5.280 </text>
<!-- _ma_alignment_details -->
<g id="node1" class="node"><title>_ma_alignment_details</title>
<g id="a_node1_0"><a xlink:href="/dictionaries/mmcif_modeling_v10.unix_1.04.dic/Categories/ma_alignment_details.html" xlink:title="&lt;TABLE&gt;" target="_top">
<polygon fill="#99c49b" stroke="none" points="125.145,-889.5 125.145,-910.5 268.145,-910.5 268.145,-889.5 125.145,-889.5"/>
<polygon fill="none" stroke="black" points="125.145,-889.5 125.145,-910.5 268.145,-910.5 268.145,-889.5 125.145,-889.5"/>
<text text-anchor="start" x="133.145" y="-897.5" font-family="Helvetica,sans-Serif" font-size="10.00">MA_ALIGNMENT_DETAILS</text>
</a>
</g>
<g id="a_node1_1"><a xlink:href="/dictionaries/mmcif_modeling_v10.unix_1.04.dic/Items/_ma_alignment_details.ordinal_id.html" xlink:title="&lt;TABLE&gt;" target="_top">
<polygon fill="#ffff99" stroke="none" points="125.145,-869.5 125.145,-889.5 268.145,-889.5 268.145,-869.5 125.145,-869.5"/>
<polygon fill="none" stroke="black" points="125.145,-869.5 125.145,-889.5 268.145,-889.5 268.145,-869.5 125.145,-869.5"/>
<text text-anchor="start" x="130.145" y="-877.3" font-family="Helvetica,sans-Serif" font-size="9.00">ordinal_id</text>
</a>
</g>
<g id="a_node1_2"><a xlink:href="/dictionaries/mmcif_modeling_v10.unix_1.04.dic/Items/_ma_alignment_details.template_id.html" xlink:title="&lt;TABLE&gt;" target="_top">
<polygon fill="none" stroke="black" points="125.145,-849.5 125.145,-869.5 268.145,-869.5 268.145,-849.5 125.145,-849.5"/>
<text text-anchor="start" x="130.145" y="-857.3" font-family="Helvetica,sans-Serif" font-size="9.00">template_id</text>
</a>
</g>
<g id="a_node1_3"><a xlink:href="/dictionaries/mmcif_modeling_v10.unix_1.04.dic/Items/_ma_alignment_details.alignment_id.html" xlink:title="&lt;TABLE&gt;" target="_top">
<polygon fill="none" stroke="black" points="125.145,-829.5 125.145,-849.5 268.145,-849.5 268.145,-829.5 125.145,-829.5"/>
<text text-anchor="start" x="130.145" y="-837.3" font-family="Helvetica,sans-Serif" font-size="9.00">alignment_id</text>
</a>
</g>
<g id="a_node1_4"><a xlink:href="/dictionaries/mmcif_modeling_v10.unix_1.04.dic/Items/_ma_alignment_details.alignment_length.html" xlink:title="&lt;TABLE&gt;" target="_top">
<polygon fill="none" stroke="black" points="125.145,-809.5 125.145,-829.5 268.145,-829.5 268.145,-809.5 125.145,-809.5"/>
<text text-anchor="start" x="130.145" y="-817.3" font-family="Helvetica,sans-Serif" font-size="9.00">alignment_length</text>
</a>
</g>
<g id="a_node1_5"><a xlink:href="/dictionaries/mmcif_modeling_v10.unix_1.04.dic/Items/_ma_alignment_details.alignment_type.html" xlink:title="&lt;TABLE&gt;" target="_top">
<polygon fill="none" stroke="black" points="125.145,-789.5 125.145,-809.5 268.145,-809.5 268.145,-789.5 125.145,-789.5"/>
<text text-anchor="start" x="130.145" y="-797.3" font-family="Helvetica,sans-Serif" font-size="9.00">alignment_type</text>
</a>
</g>
<g id="a_node1_6"><a xlink:href="/dictionaries/mmcif_modeling_v10.unix_1.04.dic/Items/_ma_alignment_details.data_id.html" xlink:title="&lt;TABLE&gt;" target="_top">
<polygon fill="none" stroke="black" points="125.145,-769.5 125.145,-789.5 268.145,-789.5 268.145,-769.5 125.145,-769.5"/>
<text text-anchor="start" x="130.145" y="-777.3" font-family="Helvetica,sans-Serif" font-size="9.00">data_id</text>
</a>
</g>
<g id="a_node1_7"><a xlink:href="/dictionaries/mmcif_modeling_v10.unix_1.04.dic/Items/_ma_alignment_details.e_value.html" xlink:title="&lt;TABLE&gt;" target="_top">
<polygon fill="none" stroke="black" points="125.145,-749.5 125.145,-769.5 268.145,-769.5 268.145,-749.5 125.145,-749.5"/>
<text text-anchor="start" x="130.145" y="-757.3" font-family="Helvetica,sans-Serif" font-size="9.00">e_value</text>
</a>
</g>
<g id="a_node1_8"><a xlink:href="/dictionaries/mmcif_modeling_v10.unix_1.04.dic/Items/_ma_alignment_details.percent_sequence_identity.html" xlink:title="&lt;TABLE&gt;" target="_top">
<polygon fill="none" stroke="black" points="125.145,-729.5 125.145,-749.5 268.145,-749.5 268.145,-729.5 125.145,-729.5"/>
<text text-anchor="start" x="130.145" y="-737.3" font-family="Helvetica,sans-Serif" font-size="9.00">percent_sequence_identity</text>
</a>
</g>
<g id="a_node1_9"><a xlink:href="/dictionaries/mmcif_modeling_v10.unix_1.04.dic/Items/_ma_alignment_details.sequence_identity_denominator.html" xlink:title="&lt;TABLE&gt;" target="_top">
<polygon fill="none" stroke="black" points="125.145,-709.5 125.145,-729.5 268.145,-729.5 268.145,-709.5 125.145,-709.5"/>
<text text-anchor="start" x="130.145" y="-717.3" font-family="Helvetica,sans-Serif" font-size="9.00">sequence_identity_denominator</text>
</a>
</g>
<g id="a_node1_10"><a xlink:href="/dictionaries/mmcif_modeling_v10.unix_1.04.dic/Items/_ma_alignment_details.software_used.html" xlink:title="&lt;TABLE&gt;" target="_top">
<polygon fill="none" stroke="black" points="125.145,-689.5 125.145,-709.5 268.145,-709.5 268.145,-689.5 125.145,-689.5"/>
<text text-anchor="start" x="130.145" y="-697.3" font-family="Helvetica,sans-Serif" font-size="9.00">software_used</text>
</a>
</g>
<g id="a_node1_11"><a xlink:href="/dictionaries/mmcif_modeling_v10.unix_1.04.dic/Items/_ma_alignment_details.target_id.html" xlink:title="&lt;TABLE&gt;" target="_top">
<polygon fill="none" stroke="black" points="125.145,-669.5 125.145,-689.5 268.145,-689.5 268.145,-669.5 125.145,-669.5"/>
<text text-anchor="start" x="130.145" y="-677.3" font-family="Helvetica,sans-Serif" font-size="9.00">target_id</text>
</a>
</g>
</g>
<!-- _ma_target_details -->
<g id="node2" class="node"><title>_ma_target_details</title>
<g id="a_node2_12"><a xlink:href="/dictionaries/mmcif_modeling_v10.unix_1.04.dic/Categories/ma_target_details.html" xlink:title="&lt;TABLE&gt;" target="_top">
<polygon fill="#99c49b" stroke="none" points="143.145,-259.5 143.145,-280.5 262.145,-280.5 262.145,-259.5 143.145,-259.5"/>
<polygon fill="none" stroke="black" points="143.145,-259.5 143.145,-280.5 262.145,-280.5 262.145,-259.5 143.145,-259.5"/>
<text text-anchor="start" x="148.145" y="-267.5" font-family="Helvetica,sans-Serif" font-size="10.00">MA_TARGET_DETAILS</text>
</a>
</g>
<g id="a_node2_13"><a xlink:href="/dictionaries/mmcif_modeling_v10.unix_1.04.dic/Items/_ma_target_details.id.html" xlink:title="&lt;TABLE&gt;" target="_top">
<polygon fill="#ffff99" stroke="none" points="143.145,-239.5 143.145,-259.5 262.145,-259.5 262.145,-239.5 143.145,-239.5"/>
<polygon fill="none" stroke="black" points="143.145,-239.5 143.145,-259.5 262.145,-259.5 262.145,-239.5 143.145,-239.5"/>
<text text-anchor="start" x="148.145" y="-247.3" font-family="Helvetica,sans-Serif" font-size="9.00">id</text>
</a>
</g>
<g id="a_node2_14"><a xlink:href="/dictionaries/mmcif_modeling_v10.unix_1.04.dic/Items/_ma_target_details.entity_id.html" xlink:title="&lt;TABLE&gt;" target="_top">
<polygon fill="none" stroke="black" points="143.145,-219.5 143.145,-239.5 262.145,-239.5 262.145,-219.5 143.145,-219.5"/>
<text text-anchor="start" x="148.145" y="-227.3" font-family="Helvetica,sans-Serif" font-size="9.00">entity_id</text>
</a>
</g>
<g id="a_node2_15"><a xlink:href="/dictionaries/mmcif_modeling_v10.unix_1.04.dic/Items/_ma_target_details.db_accession.html" xlink:title="&lt;TABLE&gt;" target="_top">
<polygon fill="none" stroke="black" points="143.145,-199.5 143.145,-219.5 262.145,-219.5 262.145,-199.5 143.145,-199.5"/>
<text text-anchor="start" x="148.145" y="-207.3" font-family="Helvetica,sans-Serif" font-size="9.00">db_accession</text>
</a>
</g>
<g id="a_node2_16"><a xlink:href="/dictionaries/mmcif_modeling_v10.unix_1.04.dic/Items/_ma_target_details.db_code.html" xlink:title="&lt;TABLE&gt;" target="_top">
<polygon fill="none" stroke="black" points="143.145,-179.5 143.145,-199.5 262.145,-199.5 262.145,-179.5 143.145,-179.5"/>
<text text-anchor="start" x="148.145" y="-187.3" font-family="Helvetica,sans-Serif" font-size="9.00">db_code</text>
</a>
</g>
<g id="a_node2_17"><a xlink:href="/dictionaries/mmcif_modeling_v10.unix_1.04.dic/Items/_ma_target_details.db_isoform.html" xlink:title="&lt;TABLE&gt;" target="_top">
<polygon fill="none" stroke="black" points="143.145,-159.5 143.145,-179.5 262.145,-179.5 262.145,-159.5 143.145,-159.5"/>
<text text-anchor="start" x="148.145" y="-167.3" font-family="Helvetica,sans-Serif" font-size="9.00">db_isoform</text>
</a>
</g>
<g id="a_node2_18"><a xlink:href="/dictionaries/mmcif_modeling_v10.unix_1.04.dic/Items/_ma_target_details.db_name.html" xlink:title="&lt;TABLE&gt;" target="_top">
<polygon fill="none" stroke="black" points="143.145,-139.5 143.145,-159.5 262.145,-159.5 262.145,-139.5 143.145,-139.5"/>
<text text-anchor="start" x="148.145" y="-147.3" font-family="Helvetica,sans-Serif" font-size="9.00">db_name</text>
</a>
</g>
<g id="a_node2_19"><a xlink:href="/dictionaries/mmcif_modeling_v10.unix_1.04.dic/Items/_ma_target_details.seq_db_align_begin.html" xlink:title="&lt;TABLE&gt;" target="_top">
<polygon fill="none" stroke="black" points="143.145,-119.5 143.145,-139.5 262.145,-139.5 262.145,-119.5 143.145,-119.5"/>
<text text-anchor="start" x="148.145" y="-127.3" font-family="Helvetica,sans-Serif" font-size="9.00">seq_db_align_begin</text>
</a>
</g>
<g id="a_node2_20"><a xlink:href="/dictionaries/mmcif_modeling_v10.unix_1.04.dic/Items/_ma_target_details.seq_db_align_end.html" xlink:title="&lt;TABLE&gt;" target="_top">
<polygon fill="none" stroke="black" points="143.145,-99.5 143.145,-119.5 262.145,-119.5 262.145,-99.5 143.145,-99.5"/>
<text text-anchor="start" x="148.145" y="-107.3" font-family="Helvetica,sans-Serif" font-size="9.00">seq_db_align_end</text>
</a>
</g>
<g id="a_node2_21"><a xlink:href="/dictionaries/mmcif_modeling_v10.unix_1.04.dic/Items/_ma_target_details.seq_db_one_letter_code.html" xlink:title="&lt;TABLE&gt;" target="_top">
<polygon fill="none" stroke="black" points="143.145,-79.5 143.145,-99.5 262.145,-99.5 262.145,-79.5 143.145,-79.5"/>
<text text-anchor="start" x="148.145" y="-87.3" font-family="Helvetica,sans-Serif" font-size="9.00">seq_db_one_letter_code</text>
</a>
</g>
</g>
<!-- _ma_alignment_details&#45;&gt;_ma_target_details -->
<g id="edge1" class="edge"><title>_ma_alignment_details:__target_id:w&#45;&gt;_ma_target_details:__id:w</title>
<path fill="none" stroke="black" d="M124.145,-679.5C79.4076,-679.5 92.2786,-303.143 133.28,-254.629"/>
<polygon fill="black" stroke="black" points="135.242,-257.537 142.145,-249.5 131.737,-251.478 135.242,-257.537"/>
</g>
<!-- _ma_template_details -->
<g id="node4" class="node"><title>_ma_template_details</title>
<g id="a_node4_22"><a xlink:href="/dictionaries/mmcif_modeling_v10.unix_1.04.dic/Categories/ma_template_details.html" xlink:title="&lt;TABLE&gt;" target="_top">
<polygon fill="#f0027f" stroke="none" points="162.145,-544.5 162.145,-565.5 301.145,-565.5 301.145,-544.5 162.145,-544.5"/>
<polygon fill="none" stroke="black" points="162.145,-544.5 162.145,-565.5 301.145,-565.5 301.145,-544.5 162.145,-544.5"/>
<text text-anchor="start" x="171.145" y="-552.5" font-family="Helvetica,sans-Serif" font-size="10.00">MA_TEMPLATE_DETAILS</text>
</a>
</g>
<g id="a_node4_23"><a xlink:href="/dictionaries/mmcif_modeling_v10.unix_1.04.dic/Items/_ma_template_details.id.html" xlink:title="&lt;TABLE&gt;" target="_top">
<polygon fill="#ffff99" stroke="none" points="162.145,-524.5 162.145,-544.5 301.145,-544.5 301.145,-524.5 162.145,-524.5"/>
<polygon fill="none" stroke="black" points="162.145,-524.5 162.145,-544.5 301.145,-544.5 301.145,-524.5 162.145,-524.5"/>
<text text-anchor="start" x="167.145" y="-532.3" font-family="Helvetica,sans-Serif" font-size="9.00">id</text>
</a>
</g>
<g id="a_node4_24"><a xlink:href="/dictionaries/mmcif_modeling_v10.unix_1.04.dic/Items/_ma_template_details.target_entity_id.html" xlink:title="&lt;TABLE&gt;" target="_top">
<polygon fill="none" stroke="black" points="162.145,-504.5 162.145,-524.5 301.145,-524.5 301.145,-504.5 162.145,-504.5"/>
<text text-anchor="start" x="167.145" y="-512.3" font-family="Helvetica,sans-Serif" font-size="9.00">target_entity_id</text>
</a>
</g>
<g id="a_node4_25"><a xlink:href="/dictionaries/mmcif_modeling_v10.unix_1.04.dic/Items/_ma_template_details.group_id.html" xlink:title="&lt;TABLE&gt;" target="_top">
<polygon fill="none" stroke="black" points="162.145,-484.5 162.145,-504.5 301.145,-504.5 301.145,-484.5 162.145,-484.5"/>
<text text-anchor="start" x="167.145" y="-492.3" font-family="Helvetica,sans-Serif" font-size="9.00">group_id</text>
</a>
</g>
<g id="a_node4_26"><a xlink:href="/dictionaries/mmcif_modeling_v10.unix_1.04.dic/Items/_ma_template_details.pdb_code.html" xlink:title="&lt;TABLE&gt;" target="_top">
<polygon fill="none" stroke="black" points="162.145,-464.5 162.145,-484.5 301.145,-484.5 301.145,-464.5 162.145,-464.5"/>
<text text-anchor="start" x="167.145" y="-472.3" font-family="Helvetica,sans-Serif" font-size="9.00">pdb_code</text>
</a>
</g>
<g id="a_node4_27"><a xlink:href="/dictionaries/mmcif_modeling_v10.unix_1.04.dic/Items/_ma_template_details.pdb_entity_id.html" xlink:title="&lt;TABLE&gt;" target="_top">
<polygon fill="none" stroke="black" points="162.145,-444.5 162.145,-464.5 301.145,-464.5 301.145,-444.5 162.145,-444.5"/>
<text text-anchor="start" x="167.145" y="-452.3" font-family="Helvetica,sans-Serif" font-size="9.00">pdb_entity_id</text>
</a>
</g>
<g id="a_node4_28"><a xlink:href="/dictionaries/mmcif_modeling_v10.unix_1.04.dic/Items/_ma_template_details.pdb_label_asym_id.html" xlink:title="&lt;TABLE&gt;" target="_top">
<polygon fill="none" stroke="black" points="162.145,-424.5 162.145,-444.5 301.145,-444.5 301.145,-424.5 162.145,-424.5"/>
<text text-anchor="start" x="167.145" y="-432.3" font-family="Helvetica,sans-Serif" font-size="9.00">pdb_label_asym_id</text>
</a>
</g>
<g id="a_node4_29"><a xlink:href="/dictionaries/mmcif_modeling_v10.unix_1.04.dic/Items/_ma_template_details.pdb_model_num.html" xlink:title="&lt;TABLE&gt;" target="_top">
<polygon fill="none" stroke="black" points="162.145,-404.5 162.145,-424.5 301.145,-424.5 301.145,-404.5 162.145,-404.5"/>
<text text-anchor="start" x="167.145" y="-412.3" font-family="Helvetica,sans-Serif" font-size="9.00">pdb_model_num</text>
</a>
</g>
<g id="a_node4_30"><a xlink:href="/dictionaries/mmcif_modeling_v10.unix_1.04.dic/Items/_ma_template_details.pdb_seq_id_begin.html" xlink:title="&lt;TABLE&gt;" target="_top">
<polygon fill="none" stroke="black" points="162.145,-384.5 162.145,-404.5 301.145,-404.5 301.145,-384.5 162.145,-384.5"/>
<text text-anchor="start" x="167.145" y="-392.3" font-family="Helvetica,sans-Serif" font-size="9.00">pdb_seq_id_begin</text>
</a>
</g>
<g id="a_node4_31"><a xlink:href="/dictionaries/mmcif_modeling_v10.unix_1.04.dic/Items/_ma_template_details.pdb_seq_id_end.html" xlink:title="&lt;TABLE&gt;" target="_top">
<polygon fill="none" stroke="black" points="162.145,-364.5 162.145,-384.5 301.145,-384.5 301.145,-364.5 162.145,-364.5"/>
<text text-anchor="start" x="167.145" y="-372.3" font-family="Helvetica,sans-Serif" font-size="9.00">pdb_seq_id_end</text>
</a>
</g>
<g id="a_node4_32"><a xlink:href="/dictionaries/mmcif_modeling_v10.unix_1.04.dic/Items/_ma_template_details.pdb_seq_one_letter_code.html" xlink:title="&lt;TABLE&gt;" target="_top">
<polygon fill="none" stroke="black" points="162.145,-344.5 162.145,-364.5 301.145,-364.5 301.145,-344.5 162.145,-344.5"/>
<text text-anchor="start" x="167.145" y="-352.3" font-family="Helvetica,sans-Serif" font-size="9.00">pdb_seq_one_letter_code</text>
</a>
</g>
<g id="a_node4_33"><a xlink:href="/dictionaries/mmcif_modeling_v10.unix_1.04.dic/Items/_ma_template_details.pdb_seq_one_letter_code_can.html" xlink:title="&lt;TABLE&gt;" target="_top">
<polygon fill="none" stroke="black" points="162.145,-324.5 162.145,-344.5 301.145,-344.5 301.145,-324.5 162.145,-324.5"/>
<text text-anchor="start" x="167.145" y="-332.3" font-family="Helvetica,sans-Serif" font-size="9.00">pdb_seq_one_letter_code_can</text>
</a>
</g>
</g>
<!-- _ma_alignment_details&#45;&gt;_ma_template_details -->
<g id="edge2" class="edge"><title>_ma_alignment_details:__template_id:w&#45;&gt;_ma_template_details:__id:w</title>
<path fill="none" stroke="black" d="M124.145,-859.5C90.6401,-859.5 119.467,-583.298 152.65,-540.141"/>
<polygon fill="black" stroke="black" points="154.751,-542.948 161.145,-534.5 150.878,-537.116 154.751,-542.948"/>
</g>
<!-- _ma_template_coord -->
<g id="node3" class="node"><title>_ma_template_coord</title>
<g id="a_node3_34"><a xlink:href="/dictionaries/mmcif_modeling_v10.unix_1.04.dic/Categories/ma_template_coord.html" xlink:title="&lt;TABLE&gt;" target="_top">
<polygon fill="#99c49b" stroke="none" points="302.145,-949.5 302.145,-970.5 428.145,-970.5 428.145,-949.5 302.145,-949.5"/>
<polygon fill="none" stroke="black" points="302.145,-949.5 302.145,-970.5 428.145,-970.5 428.145,-949.5 302.145,-949.5"/>
<text text-anchor="start" x="307.145" y="-957.5" font-family="Helvetica,sans-Serif" font-size="10.00">MA_TEMPLATE_COORD</text>
</a>
</g>
<g id="a_node3_35"><a xlink:href="/dictionaries/mmcif_modeling_v10.unix_1.04.dic/Items/_ma_template_coord.ordinal_id.html" xlink:title="&lt;TABLE&gt;" target="_top">
<polygon fill="#ffff99" stroke="none" points="302.145,-929.5 302.145,-949.5 428.145,-949.5 428.145,-929.5 302.145,-929.5"/>
<polygon fill="none" stroke="black" points="302.145,-929.5 302.145,-949.5 428.145,-949.5 428.145,-929.5 302.145,-929.5"/>
<text text-anchor="start" x="307.145" y="-937.3" font-family="Helvetica,sans-Serif" font-size="9.00">ordinal_id</text>
</a>
</g>
<g id="a_node3_36"><a xlink:href="/dictionaries/mmcif_modeling_v10.unix_1.04.dic/Items/_ma_template_coord.template_id.html" xlink:title="&lt;TABLE&gt;" target="_top">
<polygon fill="none" stroke="black" points="302.145,-909.5 302.145,-929.5 428.145,-929.5 428.145,-909.5 302.145,-909.5"/>
<text text-anchor="start" x="307.145" y="-917.3" font-family="Helvetica,sans-Serif" font-size="9.00">template_id</text>
</a>
</g>
<g id="a_node3_37"><a xlink:href="/dictionaries/mmcif_modeling_v10.unix_1.04.dic/Items/_ma_template_coord.B_iso_or_equiv.html" xlink:title="&lt;TABLE&gt;" target="_top">
<polygon fill="none" stroke="black" points="302.145,-889.5 302.145,-909.5 428.145,-909.5 428.145,-889.5 302.145,-889.5"/>
<text text-anchor="start" x="307.145" y="-897.3" font-family="Helvetica,sans-Serif" font-size="9.00">B_iso_or_equiv</text>
</a>
</g>
<g id="a_node3_38"><a xlink:href="/dictionaries/mmcif_modeling_v10.unix_1.04.dic/Items/_ma_template_coord.Cartn_x.html" xlink:title="&lt;TABLE&gt;" target="_top">
<polygon fill="none" stroke="black" points="302.145,-869.5 302.145,-889.5 428.145,-889.5 428.145,-869.5 302.145,-869.5"/>
<text text-anchor="start" x="307.145" y="-877.3" font-family="Helvetica,sans-Serif" font-size="9.00">Cartn_x</text>
</a>
</g>
<g id="a_node3_39"><a xlink:href="/dictionaries/mmcif_modeling_v10.unix_1.04.dic/Items/_ma_template_coord.Cartn_y.html" xlink:title="&lt;TABLE&gt;" target="_top">
<polygon fill="none" stroke="black" points="302.145,-849.5 302.145,-869.5 428.145,-869.5 428.145,-849.5 302.145,-849.5"/>
<text text-anchor="start" x="307.145" y="-857.3" font-family="Helvetica,sans-Serif" font-size="9.00">Cartn_y</text>
</a>
</g>
<g id="a_node3_40"><a xlink:href="/dictionaries/mmcif_modeling_v10.unix_1.04.dic/Items/_ma_template_coord.Cartn_z.html" xlink:title="&lt;TABLE&gt;" target="_top">
<polygon fill="none" stroke="black" points="302.145,-829.5 302.145,-849.5 428.145,-849.5 428.145,-829.5 302.145,-829.5"/>
<text text-anchor="start" x="307.145" y="-837.3" font-family="Helvetica,sans-Serif" font-size="9.00">Cartn_z</text>
</a>
</g>
<g id="a_node3_41"><a xlink:href="/dictionaries/mmcif_modeling_v10.unix_1.04.dic/Items/_ma_template_coord.formal_charge.html" xlink:title="&lt;TABLE&gt;" target="_top">
<polygon fill="none" stroke="black" points="302.145,-809.5 302.145,-829.5 428.145,-829.5 428.145,-809.5 302.145,-809.5"/>
<text text-anchor="start" x="307.145" y="-817.3" font-family="Helvetica,sans-Serif" font-size="9.00">formal_charge</text>
</a>
</g>
<g id="a_node3_42"><a xlink:href="/dictionaries/mmcif_modeling_v10.unix_1.04.dic/Items/_ma_template_coord.group_PDB.html" xlink:title="&lt;TABLE&gt;" target="_top">
<polygon fill="none" stroke="black" points="302.145,-789.5 302.145,-809.5 428.145,-809.5 428.145,-789.5 302.145,-789.5"/>
<text text-anchor="start" x="307.145" y="-797.3" font-family="Helvetica,sans-Serif" font-size="9.00">group_PDB</text>
</a>
</g>
<g id="a_node3_43"><a xlink:href="/dictionaries/mmcif_modeling_v10.unix_1.04.dic/Items/_ma_template_coord.id.html" xlink:title="&lt;TABLE&gt;" target="_top">
<polygon fill="none" stroke="black" points="302.145,-769.5 302.145,-789.5 428.145,-789.5 428.145,-769.5 302.145,-769.5"/>
<text text-anchor="start" x="307.145" y="-777.3" font-family="Helvetica,sans-Serif" font-size="9.00">id</text>
</a>
</g>
<g id="a_node3_44"><a xlink:href="/dictionaries/mmcif_modeling_v10.unix_1.04.dic/Items/_ma_template_coord.label_asym_id.html" xlink:title="&lt;TABLE&gt;" target="_top">
<polygon fill="none" stroke="black" points="302.145,-749.5 302.145,-769.5 428.145,-769.5 428.145,-749.5 302.145,-749.5"/>
<text text-anchor="start" x="307.145" y="-757.3" font-family="Helvetica,sans-Serif" font-size="9.00">label_asym_id</text>
</a>
</g>
<g id="a_node3_45"><a xlink:href="/dictionaries/mmcif_modeling_v10.unix_1.04.dic/Items/_ma_template_coord.label_atom_id.html" xlink:title="&lt;TABLE&gt;" target="_top">
<polygon fill="none" stroke="black" points="302.145,-729.5 302.145,-749.5 428.145,-749.5 428.145,-729.5 302.145,-729.5"/>
<text text-anchor="start" x="307.145" y="-737.3" font-family="Helvetica,sans-Serif" font-size="9.00">label_atom_id</text>
</a>
</g>
<g id="a_node3_46"><a xlink:href="/dictionaries/mmcif_modeling_v10.unix_1.04.dic/Items/_ma_template_coord.label_comp_id.html" xlink:title="&lt;TABLE&gt;" target="_top">
<polygon fill="none" stroke="black" points="302.145,-709.5 302.145,-729.5 428.145,-729.5 428.145,-709.5 302.145,-709.5"/>
<text text-anchor="start" x="307.145" y="-717.3" font-family="Helvetica,sans-Serif" font-size="9.00">label_comp_id</text>
</a>
</g>
<g id="a_node3_47"><a xlink:href="/dictionaries/mmcif_modeling_v10.unix_1.04.dic/Items/_ma_template_coord.label_entity_id.html" xlink:title="&lt;TABLE&gt;" target="_top">
<polygon fill="none" stroke="black" points="302.145,-689.5 302.145,-709.5 428.145,-709.5 428.145,-689.5 302.145,-689.5"/>
<text text-anchor="start" x="307.145" y="-697.3" font-family="Helvetica,sans-Serif" font-size="9.00">label_entity_id</text>
</a>
</g>
<g id="a_node3_48"><a xlink:href="/dictionaries/mmcif_modeling_v10.unix_1.04.dic/Items/_ma_template_coord.label_seq_id.html" xlink:title="&lt;TABLE&gt;" target="_top">
<polygon fill="none" stroke="black" points="302.145,-669.5 302.145,-689.5 428.145,-689.5 428.145,-669.5 302.145,-669.5"/>
<text text-anchor="start" x="307.145" y="-677.3" font-family="Helvetica,sans-Serif" font-size="9.00">label_seq_id</text>
</a>
</g>
<g id="a_node3_49"><a xlink:href="/dictionaries/mmcif_modeling_v10.unix_1.04.dic/Items/_ma_template_coord.occupancy.html" xlink:title="&lt;TABLE&gt;" target="_top">
<polygon fill="none" stroke="black" points="302.145,-649.5 302.145,-669.5 428.145,-669.5 428.145,-649.5 302.145,-649.5"/>
<text text-anchor="start" x="307.145" y="-657.3" font-family="Helvetica,sans-Serif" font-size="9.00">occupancy</text>
</a>
</g>
<g id="a_node3_50"><a xlink:href="/dictionaries/mmcif_modeling_v10.unix_1.04.dic/Items/_ma_template_coord.pdb_model_num.html" xlink:title="&lt;TABLE&gt;" target="_top">
<polygon fill="none" stroke="black" points="302.145,-629.5 302.145,-649.5 428.145,-649.5 428.145,-629.5 302.145,-629.5"/>
<text text-anchor="start" x="307.145" y="-637.3" font-family="Helvetica,sans-Serif" font-size="9.00">pdb_model_num</text>
</a>
</g>
<g id="a_node3_51"><a xlink:href="/dictionaries/mmcif_modeling_v10.unix_1.04.dic/Items/_ma_template_coord.type_symbol.html" xlink:title="&lt;TABLE&gt;" target="_top">
<polygon fill="none" stroke="black" points="302.145,-609.5 302.145,-629.5 428.145,-629.5 428.145,-609.5 302.145,-609.5"/>
<text text-anchor="start" x="307.145" y="-617.3" font-family="Helvetica,sans-Serif" font-size="9.00">type_symbol</text>
</a>
</g>
</g>
<!-- _ma_template_coord&#45;&gt;_ma_template_details -->
<g id="edge4" class="edge"><title>_ma_template_coord:__template_id:w&#45;&gt;_ma_template_details:__id:w</title>
<path fill="none" stroke="black" d="M301.145,-919.5C266.261,-919.5 305.781,-633.365 284.145,-606 249.082,-561.653 196.628,-614.799 162.145,-570 155.526,-561.401 150.075,-547.846 152.444,-540.214"/>
<polygon fill="black" stroke="black" points="154.708,-542.915 161.145,-534.5 150.865,-537.064 154.708,-542.915"/>
</g>
<!-- _ma_template_details&#45;&gt;_ma_target_details -->
<g id="edge3" class="edge"><title>_ma_template_details:__target_entity_id:w&#45;&gt;_ma_target_details:__entity_id:w</title>
<path fill="none" stroke="black" d="M161.145,-514.5C154.11,-514.5 138.374,-290.413 140.43,-239.643"/>
<polygon fill="black" stroke="black" points="143.929,-239.944 142.145,-229.5 137.027,-238.777 143.929,-239.944"/>
</g>
</g>
</svg>
