<?xml version="1.0" encoding="UTF-8" standalone="no"?>
<!DOCTYPE svg PUBLIC "-//W3C//DTD SVG 1.1//EN"
 "http://www.w3.org/Graphics/SVG/1.1/DTD/svg11.dtd">
<!-- Generated by graphviz version 2.38.0 (20140413.2041)
 -->
<!-- Title: ma_target_details Pages: 1 -->
<svg width="516pt" height="1288pt"
 viewBox="0.00 0.00 516.00 1288.00" xmlns="http://www.w3.org/2000/svg" xmlns:xlink="http://www.w3.org/1999/xlink">
<g id="graph0" class="graph" transform="scale(1 1) rotate(0) translate(4 1284)">
<title>ma_target_details</title>
<polygon fill="white" stroke="none" points="-4,4 -4,-1284 512,-1284 512,4 -4,4"/>
<text text-anchor="start" x="251" y="-58.6" font-family="Helvetica,sans-Serif" font-size="18.00"> </text>
<text text-anchor="start" x="251" y="-40.6" font-family="Helvetica,sans-Serif" font-size="18.00"> </text>
<text text-anchor="start" x="8" y="-22.6" font-family="Helvetica,sans-Serif" font-size="18.00"> Category Relationship Diagram for </text>
<text text-anchor="start" x="291" y="-22.6" font-family="Helvetica,sans-Serif" font-weight="bold" font-size="18.00">MA_TARGET_DETAILS</text>
<text text-anchor="start" x="490" y="-22.6" font-family="Helvetica,sans-Serif" font-size="18.00"> </text>
<text text-anchor="start" x="496" y="-22.6" font-family="Helvetica,sans-Serif" font-size="14.00"> </text>
<text text-anchor="start" x="120" y="-7.8" font-family="Helvetica,sans-Serif" font-size="14.00"> &#160;in dictionary mmcif_pdbx.dic version 5.296 </text>
<!-- _entity -->
<g id="node1" class="node"><title>_entity</title>
<g id="a_node1_0"><a xlink:href="/dictionaries/mmcif_pdbx_modeling_extension_all.dic/Categories/entity.html" xlink:title="&lt;TABLE&gt;" target="_top">
<polygon fill="#99c49b" stroke="none" points="252.475,-399.5 252.475,-420.5 412.475,-420.5 412.475,-399.5 252.475,-399.5"/>
<polygon fill="none" stroke="black" points="252.475,-399.5 252.475,-420.5 412.475,-420.5 412.475,-399.5 252.475,-399.5"/>
<text text-anchor="start" x="313.975" y="-407.5" font-family="Helvetica,sans-Serif" font-size="10.00">ENTITY</text>
</a>
</g>
<g id="a_node1_1"><a xlink:href="/dictionaries/mmcif_pdbx_modeling_extension_all.dic/Items/_entity.id.html" xlink:title="&lt;TABLE&gt;" target="_top">
<polygon fill="#ffff99" stroke="none" points="252.475,-379.5 252.475,-399.5 412.475,-399.5 412.475,-379.5 252.475,-379.5"/>
<polygon fill="none" stroke="black" points="252.475,-379.5 252.475,-399.5 412.475,-399.5 412.475,-379.5 252.475,-379.5"/>
<text text-anchor="start" x="257.475" y="-387.3" font-family="Helvetica,sans-Serif" font-size="9.00">id</text>
</a>
</g>
<g id="a_node1_2"><a xlink:href="/dictionaries/mmcif_pdbx_modeling_extension_all.dic/Items/_entity.details.html" xlink:title="&lt;TABLE&gt;" target="_top">
<polygon fill="none" stroke="black" points="252.475,-359.5 252.475,-379.5 412.475,-379.5 412.475,-359.5 252.475,-359.5"/>
<text text-anchor="start" x="257.475" y="-367.3" font-family="Helvetica,sans-Serif" font-size="9.00">details</text>
</a>
</g>
<g id="a_node1_3"><a xlink:href="/dictionaries/mmcif_pdbx_modeling_extension_all.dic/Items/_entity.formula_weight.html" xlink:title="&lt;TABLE&gt;" target="_top">
<polygon fill="none" stroke="black" points="252.475,-339.5 252.475,-359.5 412.475,-359.5 412.475,-339.5 252.475,-339.5"/>
<text text-anchor="start" x="257.475" y="-347.3" font-family="Helvetica,sans-Serif" font-size="9.00">formula_weight</text>
</a>
</g>
<g id="a_node1_4"><a xlink:href="/dictionaries/mmcif_pdbx_modeling_extension_all.dic/Items/_entity.pdbx_description.html" xlink:title="&lt;TABLE&gt;" target="_top">
<polygon fill="none" stroke="black" points="252.475,-319.5 252.475,-339.5 412.475,-339.5 412.475,-319.5 252.475,-319.5"/>
<text text-anchor="start" x="257.475" y="-327.3" font-family="Helvetica,sans-Serif" font-size="9.00">pdbx_description</text>
</a>
</g>
<g id="a_node1_5"><a xlink:href="/dictionaries/mmcif_pdbx_modeling_extension_all.dic/Items/_entity.pdbx_ec.html" xlink:title="&lt;TABLE&gt;" target="_top">
<polygon fill="none" stroke="black" points="252.475,-299.5 252.475,-319.5 412.475,-319.5 412.475,-299.5 252.475,-299.5"/>
<text text-anchor="start" x="257.475" y="-307.3" font-family="Helvetica,sans-Serif" font-size="9.00">pdbx_ec</text>
</a>
</g>
<g id="a_node1_6"><a xlink:href="/dictionaries/mmcif_pdbx_modeling_extension_all.dic/Items/_entity.pdbx_entities_per_biological_unit.html" xlink:title="&lt;TABLE&gt;" target="_top">
<polygon fill="none" stroke="black" points="252.475,-279.5 252.475,-299.5 412.475,-299.5 412.475,-279.5 252.475,-279.5"/>
<text text-anchor="start" x="257.475" y="-287.3" font-family="Helvetica,sans-Serif" font-size="9.00">pdbx_entities_per_biological_unit</text>
</a>
</g>
<g id="a_node1_7"><a xlink:href="/dictionaries/mmcif_pdbx_modeling_extension_all.dic/Items/_entity.pdbx_formula_weight_exptl.html" xlink:title="&lt;TABLE&gt;" target="_top">
<polygon fill="none" stroke="black" points="252.475,-259.5 252.475,-279.5 412.475,-279.5 412.475,-259.5 252.475,-259.5"/>
<text text-anchor="start" x="257.475" y="-267.3" font-family="Helvetica,sans-Serif" font-size="9.00">pdbx_formula_weight_exptl</text>
</a>
</g>
<g id="a_node1_8"><a xlink:href="/dictionaries/mmcif_pdbx_modeling_extension_all.dic/Items/_entity.pdbx_formula_weight_exptl_method.html" xlink:title="&lt;TABLE&gt;" target="_top">
<polygon fill="none" stroke="black" points="252.475,-239.5 252.475,-259.5 412.475,-259.5 412.475,-239.5 252.475,-239.5"/>
<text text-anchor="start" x="257.475" y="-247.3" font-family="Helvetica,sans-Serif" font-size="9.00">pdbx_formula_weight_exptl_method</text>
</a>
</g>
<g id="a_node1_9"><a xlink:href="/dictionaries/mmcif_pdbx_modeling_extension_all.dic/Items/_entity.pdbx_fragment.html" xlink:title="&lt;TABLE&gt;" target="_top">
<polygon fill="none" stroke="black" points="252.475,-219.5 252.475,-239.5 412.475,-239.5 412.475,-219.5 252.475,-219.5"/>
<text text-anchor="start" x="257.475" y="-227.3" font-family="Helvetica,sans-Serif" font-size="9.00">pdbx_fragment</text>
</a>
</g>
<g id="a_node1_10"><a xlink:href="/dictionaries/mmcif_pdbx_modeling_extension_all.dic/Items/_entity.pdbx_modification.html" xlink:title="&lt;TABLE&gt;" target="_top">
<polygon fill="none" stroke="black" points="252.475,-199.5 252.475,-219.5 412.475,-219.5 412.475,-199.5 252.475,-199.5"/>
<text text-anchor="start" x="257.475" y="-207.3" font-family="Helvetica,sans-Serif" font-size="9.00">pdbx_modification</text>
</a>
</g>
<g id="a_node1_11"><a xlink:href="/dictionaries/mmcif_pdbx_modeling_extension_all.dic/Items/_entity.pdbx_mutation.html" xlink:title="&lt;TABLE&gt;" target="_top">
<polygon fill="none" stroke="black" points="252.475,-179.5 252.475,-199.5 412.475,-199.5 412.475,-179.5 252.475,-179.5"/>
<text text-anchor="start" x="257.475" y="-187.3" font-family="Helvetica,sans-Serif" font-size="9.00">pdbx_mutation</text>
</a>
</g>
<g id="a_node1_12"><a xlink:href="/dictionaries/mmcif_pdbx_modeling_extension_all.dic/Items/_entity.pdbx_number_of_molecules.html" xlink:title="&lt;TABLE&gt;" target="_top">
<polygon fill="none" stroke="black" points="252.475,-159.5 252.475,-179.5 412.475,-179.5 412.475,-159.5 252.475,-159.5"/>
<text text-anchor="start" x="257.475" y="-167.3" font-family="Helvetica,sans-Serif" font-size="9.00">pdbx_number_of_molecules</text>
</a>
</g>
<g id="a_node1_13"><a xlink:href="/dictionaries/mmcif_pdbx_modeling_extension_all.dic/Items/_entity.pdbx_parent_entity_id.html" xlink:title="&lt;TABLE&gt;" target="_top">
<polygon fill="none" stroke="black" points="252.475,-139.5 252.475,-159.5 412.475,-159.5 412.475,-139.5 252.475,-139.5"/>
<text text-anchor="start" x="257.475" y="-147.3" font-family="Helvetica,sans-Serif" font-size="9.00">pdbx_parent_entity_id</text>
</a>
</g>
<g id="a_node1_14"><a xlink:href="/dictionaries/mmcif_pdbx_modeling_extension_all.dic/Items/_entity.pdbx_target_id.html" xlink:title="&lt;TABLE&gt;" target="_top">
<polygon fill="none" stroke="black" points="252.475,-119.5 252.475,-139.5 412.475,-139.5 412.475,-119.5 252.475,-119.5"/>
<text text-anchor="start" x="257.475" y="-127.3" font-family="Helvetica,sans-Serif" font-size="9.00">pdbx_target_id</text>
</a>
</g>
<g id="a_node1_15"><a xlink:href="/dictionaries/mmcif_pdbx_modeling_extension_all.dic/Items/_entity.src_method.html" xlink:title="&lt;TABLE&gt;" target="_top">
<polygon fill="none" stroke="black" points="252.475,-99.5 252.475,-119.5 412.475,-119.5 412.475,-99.5 252.475,-99.5"/>
<text text-anchor="start" x="257.475" y="-107.3" font-family="Helvetica,sans-Serif" font-size="9.00">src_method</text>
</a>
</g>
<g id="a_node1_16"><a xlink:href="/dictionaries/mmcif_pdbx_modeling_extension_all.dic/Items/_entity.type.html" xlink:title="&lt;TABLE&gt;" target="_top">
<polygon fill="none" stroke="black" points="252.475,-79.5 252.475,-99.5 412.475,-99.5 412.475,-79.5 252.475,-79.5"/>
<text text-anchor="start" x="257.475" y="-87.3" font-family="Helvetica,sans-Serif" font-size="9.00">type</text>
</a>
</g>
</g>
<!-- _entity&#45;&gt;_entity -->
<g id="edge1" class="edge"><title>_entity:__pdbx_parent_entity_id:e&#45;&gt;_entity:__id:e</title>
<path fill="none" stroke="black" d="M412.475,-149.5C426.475,-68.5 438.475,-68.5 438.475,-269.5 438.475,-461.863 427.484,-470.129 414.268,-399.483"/>
<polygon fill="black" stroke="black" points="417.688,-398.724 412.475,-389.5 410.798,-399.961 417.688,-398.724"/>
</g>
<!-- _ma_alignment_details -->
<g id="node2" class="node"><title>_ma_alignment_details</title>
<g id="a_node2_17"><a xlink:href="/dictionaries/mmcif_pdbx_modeling_extension_all.dic/Categories/ma_alignment_details.html" xlink:title="&lt;TABLE&gt;" target="_top">
<polygon fill="#99c49b" stroke="none" points="153.475,-1254.5 153.475,-1275.5 296.475,-1275.5 296.475,-1254.5 153.475,-1254.5"/>
<polygon fill="none" stroke="black" points="153.475,-1254.5 153.475,-1275.5 296.475,-1275.5 296.475,-1254.5 153.475,-1254.5"/>
<text text-anchor="start" x="161.475" y="-1262.5" font-family="Helvetica,sans-Serif" font-size="10.00">MA_ALIGNMENT_DETAILS</text>
</a>
</g>
<g id="a_node2_18"><a xlink:href="/dictionaries/mmcif_pdbx_modeling_extension_all.dic/Items/_ma_alignment_details.ordinal_id.html" xlink:title="&lt;TABLE&gt;" target="_top">
<polygon fill="#ffff99" stroke="none" points="153.475,-1234.5 153.475,-1254.5 296.475,-1254.5 296.475,-1234.5 153.475,-1234.5"/>
<polygon fill="none" stroke="black" points="153.475,-1234.5 153.475,-1254.5 296.475,-1254.5 296.475,-1234.5 153.475,-1234.5"/>
<text text-anchor="start" x="158.475" y="-1242.3" font-family="Helvetica,sans-Serif" font-size="9.00">ordinal_id</text>
</a>
</g>
<g id="a_node2_19"><a xlink:href="/dictionaries/mmcif_pdbx_modeling_extension_all.dic/Items/_ma_alignment_details.target_id.html" xlink:title="&lt;TABLE&gt;" target="_top">
<polygon fill="none" stroke="black" points="153.475,-1214.5 153.475,-1234.5 296.475,-1234.5 296.475,-1214.5 153.475,-1214.5"/>
<text text-anchor="start" x="158.475" y="-1222.3" font-family="Helvetica,sans-Serif" font-size="9.00">target_id</text>
</a>
</g>
<g id="a_node2_20"><a xlink:href="/dictionaries/mmcif_pdbx_modeling_extension_all.dic/Items/_ma_alignment_details.alignment_id.html" xlink:title="&lt;TABLE&gt;" target="_top">
<polygon fill="none" stroke="black" points="153.475,-1194.5 153.475,-1214.5 296.475,-1214.5 296.475,-1194.5 153.475,-1194.5"/>
<text text-anchor="start" x="158.475" y="-1202.3" font-family="Helvetica,sans-Serif" font-size="9.00">alignment_id</text>
</a>
</g>
<g id="a_node2_21"><a xlink:href="/dictionaries/mmcif_pdbx_modeling_extension_all.dic/Items/_ma_alignment_details.alignment_length.html" xlink:title="&lt;TABLE&gt;" target="_top">
<polygon fill="none" stroke="black" points="153.475,-1174.5 153.475,-1194.5 296.475,-1194.5 296.475,-1174.5 153.475,-1174.5"/>
<text text-anchor="start" x="158.475" y="-1182.3" font-family="Helvetica,sans-Serif" font-size="9.00">alignment_length</text>
</a>
</g>
<g id="a_node2_22"><a xlink:href="/dictionaries/mmcif_pdbx_modeling_extension_all.dic/Items/_ma_alignment_details.alignment_type.html" xlink:title="&lt;TABLE&gt;" target="_top">
<polygon fill="none" stroke="black" points="153.475,-1154.5 153.475,-1174.5 296.475,-1174.5 296.475,-1154.5 153.475,-1154.5"/>
<text text-anchor="start" x="158.475" y="-1162.3" font-family="Helvetica,sans-Serif" font-size="9.00">alignment_type</text>
</a>
</g>
<g id="a_node2_23"><a xlink:href="/dictionaries/mmcif_pdbx_modeling_extension_all.dic/Items/_ma_alignment_details.data_id.html" xlink:title="&lt;TABLE&gt;" target="_top">
<polygon fill="none" stroke="black" points="153.475,-1134.5 153.475,-1154.5 296.475,-1154.5 296.475,-1134.5 153.475,-1134.5"/>
<text text-anchor="start" x="158.475" y="-1142.3" font-family="Helvetica,sans-Serif" font-size="9.00">data_id</text>
</a>
</g>
<g id="a_node2_24"><a xlink:href="/dictionaries/mmcif_pdbx_modeling_extension_all.dic/Items/_ma_alignment_details.e_value.html" xlink:title="&lt;TABLE&gt;" target="_top">
<polygon fill="none" stroke="black" points="153.475,-1114.5 153.475,-1134.5 296.475,-1134.5 296.475,-1114.5 153.475,-1114.5"/>
<text text-anchor="start" x="158.475" y="-1122.3" font-family="Helvetica,sans-Serif" font-size="9.00">e_value</text>
</a>
</g>
<g id="a_node2_25"><a xlink:href="/dictionaries/mmcif_pdbx_modeling_extension_all.dic/Items/_ma_alignment_details.percent_sequence_identity.html" xlink:title="&lt;TABLE&gt;" target="_top">
<polygon fill="none" stroke="black" points="153.475,-1094.5 153.475,-1114.5 296.475,-1114.5 296.475,-1094.5 153.475,-1094.5"/>
<text text-anchor="start" x="158.475" y="-1102.3" font-family="Helvetica,sans-Serif" font-size="9.00">percent_sequence_identity</text>
</a>
</g>
<g id="a_node2_26"><a xlink:href="/dictionaries/mmcif_pdbx_modeling_extension_all.dic/Items/_ma_alignment_details.sequence_identity_denominator.html" xlink:title="&lt;TABLE&gt;" target="_top">
<polygon fill="none" stroke="black" points="153.475,-1074.5 153.475,-1094.5 296.475,-1094.5 296.475,-1074.5 153.475,-1074.5"/>
<text text-anchor="start" x="158.475" y="-1082.3" font-family="Helvetica,sans-Serif" font-size="9.00">sequence_identity_denominator</text>
</a>
</g>
<g id="a_node2_27"><a xlink:href="/dictionaries/mmcif_pdbx_modeling_extension_all.dic/Items/_ma_alignment_details.software_id.html" xlink:title="&lt;TABLE&gt;" target="_top">
<polygon fill="none" stroke="black" points="153.475,-1054.5 153.475,-1074.5 296.475,-1074.5 296.475,-1054.5 153.475,-1054.5"/>
<text text-anchor="start" x="158.475" y="-1062.3" font-family="Helvetica,sans-Serif" font-size="9.00">software_id</text>
</a>
</g>
<g id="a_node2_28"><a xlink:href="/dictionaries/mmcif_pdbx_modeling_extension_all.dic/Items/_ma_alignment_details.template_id.html" xlink:title="&lt;TABLE&gt;" target="_top">
<polygon fill="none" stroke="black" points="153.475,-1034.5 153.475,-1054.5 296.475,-1054.5 296.475,-1034.5 153.475,-1034.5"/>
<text text-anchor="start" x="158.475" y="-1042.3" font-family="Helvetica,sans-Serif" font-size="9.00">template_id</text>
</a>
</g>
</g>
<!-- _ma_data -->
<g id="node3" class="node"><title>_ma_data</title>
<g id="a_node3_29"><a xlink:href="/dictionaries/mmcif_pdbx_modeling_extension_all.dic/Categories/ma_data.html" xlink:title="&lt;TABLE&gt;" target="_top">
<polygon fill="#99c49b" stroke="none" points="135.475,-279.5 135.475,-300.5 218.475,-300.5 218.475,-279.5 135.475,-279.5"/>
<polygon fill="none" stroke="black" points="135.475,-279.5 135.475,-300.5 218.475,-300.5 218.475,-279.5 135.475,-279.5"/>
<text text-anchor="start" x="152.975" y="-287.5" font-family="Helvetica,sans-Serif" font-size="10.00">MA_DATA</text>
</a>
</g>
<g id="a_node3_30"><a xlink:href="/dictionaries/mmcif_pdbx_modeling_extension_all.dic/Items/_ma_data.id.html" xlink:title="&lt;TABLE&gt;" target="_top">
<polygon fill="#ffff99" stroke="none" points="135.475,-259.5 135.475,-279.5 218.475,-279.5 218.475,-259.5 135.475,-259.5"/>
<polygon fill="none" stroke="black" points="135.475,-259.5 135.475,-279.5 218.475,-279.5 218.475,-259.5 135.475,-259.5"/>
<text text-anchor="start" x="140.475" y="-267.3" font-family="Helvetica,sans-Serif" font-size="9.00">id</text>
</a>
</g>
<g id="a_node3_31"><a xlink:href="/dictionaries/mmcif_pdbx_modeling_extension_all.dic/Items/_ma_data.content_sub_type.html" xlink:title="&lt;TABLE&gt;" target="_top">
<polygon fill="none" stroke="black" points="135.475,-239.5 135.475,-259.5 218.475,-259.5 218.475,-239.5 135.475,-239.5"/>
<text text-anchor="start" x="140.475" y="-247.3" font-family="Helvetica,sans-Serif" font-size="9.00">content_sub_type</text>
</a>
</g>
<g id="a_node3_32"><a xlink:href="/dictionaries/mmcif_pdbx_modeling_extension_all.dic/Items/_ma_data.content_type.html" xlink:title="&lt;TABLE&gt;" target="_top">
<polygon fill="none" stroke="black" points="135.475,-219.5 135.475,-239.5 218.475,-239.5 218.475,-219.5 135.475,-219.5"/>
<text text-anchor="start" x="140.475" y="-227.3" font-family="Helvetica,sans-Serif" font-size="9.00">content_type</text>
</a>
</g>
<g id="a_node3_33"><a xlink:href="/dictionaries/mmcif_pdbx_modeling_extension_all.dic/Items/_ma_data.name.html" xlink:title="&lt;TABLE&gt;" target="_top">
<polygon fill="none" stroke="black" points="135.475,-199.5 135.475,-219.5 218.475,-219.5 218.475,-199.5 135.475,-199.5"/>
<text text-anchor="start" x="140.475" y="-207.3" font-family="Helvetica,sans-Serif" font-size="9.00">name</text>
</a>
</g>
</g>
<!-- _ma_alignment_details&#45;&gt;_ma_data -->
<g id="edge3" class="edge"><title>_ma_alignment_details:__data_id:w&#45;&gt;_ma_data:__id:w</title>
<path fill="none" stroke="black" d="M152.475,-1144.5C58.5561,-1144.5 38.5554,-328.292 124.906,-272.497"/>
<polygon fill="black" stroke="black" points="125.978,-275.829 134.475,-269.5 123.886,-269.149 125.978,-275.829"/>
</g>
<!-- _ma_target_details -->
<g id="node4" class="node"><title>_ma_target_details</title>
<g id="a_node4_34"><a xlink:href="/dictionaries/mmcif_pdbx_modeling_extension_all.dic/Categories/ma_target_details.html" xlink:title="&lt;TABLE&gt;" target="_top">
<polygon fill="#f0027f" stroke="none" points="221.475,-664.5 221.475,-685.5 340.475,-685.5 340.475,-664.5 221.475,-664.5"/>
<polygon fill="none" stroke="black" points="221.475,-664.5 221.475,-685.5 340.475,-685.5 340.475,-664.5 221.475,-664.5"/>
<text text-anchor="start" x="226.475" y="-672.5" font-family="Helvetica,sans-Serif" font-size="10.00">MA_TARGET_DETAILS</text>
</a>
</g>
<g id="a_node4_35"><a xlink:href="/dictionaries/mmcif_pdbx_modeling_extension_all.dic/Items/_ma_target_details.id.html" xlink:title="&lt;TABLE&gt;" target="_top">
<polygon fill="#ffff99" stroke="none" points="221.475,-644.5 221.475,-664.5 340.475,-664.5 340.475,-644.5 221.475,-644.5"/>
<polygon fill="none" stroke="black" points="221.475,-644.5 221.475,-664.5 340.475,-664.5 340.475,-644.5 221.475,-644.5"/>
<text text-anchor="start" x="226.475" y="-652.3" font-family="Helvetica,sans-Serif" font-size="9.00">id</text>
</a>
</g>
<g id="a_node4_36"><a xlink:href="/dictionaries/mmcif_pdbx_modeling_extension_all.dic/Items/_ma_target_details.data_id.html" xlink:title="&lt;TABLE&gt;" target="_top">
<polygon fill="none" stroke="black" points="221.475,-624.5 221.475,-644.5 340.475,-644.5 340.475,-624.5 221.475,-624.5"/>
<text text-anchor="start" x="226.475" y="-632.3" font-family="Helvetica,sans-Serif" font-size="9.00">data_id</text>
</a>
</g>
<g id="a_node4_37"><a xlink:href="/dictionaries/mmcif_pdbx_modeling_extension_all.dic/Items/_ma_target_details.entity_id.html" xlink:title="&lt;TABLE&gt;" target="_top">
<polygon fill="none" stroke="black" points="221.475,-604.5 221.475,-624.5 340.475,-624.5 340.475,-604.5 221.475,-604.5"/>
<text text-anchor="start" x="226.475" y="-612.3" font-family="Helvetica,sans-Serif" font-size="9.00">entity_id</text>
</a>
</g>
<g id="a_node4_38"><a xlink:href="/dictionaries/mmcif_pdbx_modeling_extension_all.dic/Items/_ma_target_details.db_accession.html" xlink:title="&lt;TABLE&gt;" target="_top">
<polygon fill="none" stroke="black" points="221.475,-584.5 221.475,-604.5 340.475,-604.5 340.475,-584.5 221.475,-584.5"/>
<text text-anchor="start" x="226.475" y="-592.3" font-family="Helvetica,sans-Serif" font-size="9.00">db_accession</text>
</a>
</g>
<g id="a_node4_39"><a xlink:href="/dictionaries/mmcif_pdbx_modeling_extension_all.dic/Items/_ma_target_details.db_code.html" xlink:title="&lt;TABLE&gt;" target="_top">
<polygon fill="none" stroke="black" points="221.475,-564.5 221.475,-584.5 340.475,-584.5 340.475,-564.5 221.475,-564.5"/>
<text text-anchor="start" x="226.475" y="-572.3" font-family="Helvetica,sans-Serif" font-size="9.00">db_code</text>
</a>
</g>
<g id="a_node4_40"><a xlink:href="/dictionaries/mmcif_pdbx_modeling_extension_all.dic/Items/_ma_target_details.db_isoform.html" xlink:title="&lt;TABLE&gt;" target="_top">
<polygon fill="none" stroke="black" points="221.475,-544.5 221.475,-564.5 340.475,-564.5 340.475,-544.5 221.475,-544.5"/>
<text text-anchor="start" x="226.475" y="-552.3" font-family="Helvetica,sans-Serif" font-size="9.00">db_isoform</text>
</a>
</g>
<g id="a_node4_41"><a xlink:href="/dictionaries/mmcif_pdbx_modeling_extension_all.dic/Items/_ma_target_details.db_name.html" xlink:title="&lt;TABLE&gt;" target="_top">
<polygon fill="none" stroke="black" points="221.475,-524.5 221.475,-544.5 340.475,-544.5 340.475,-524.5 221.475,-524.5"/>
<text text-anchor="start" x="226.475" y="-532.3" font-family="Helvetica,sans-Serif" font-size="9.00">db_name</text>
</a>
</g>
<g id="a_node4_42"><a xlink:href="/dictionaries/mmcif_pdbx_modeling_extension_all.dic/Items/_ma_target_details.seq_db_align_begin.html" xlink:title="&lt;TABLE&gt;" target="_top">
<polygon fill="none" stroke="black" points="221.475,-504.5 221.475,-524.5 340.475,-524.5 340.475,-504.5 221.475,-504.5"/>
<text text-anchor="start" x="226.475" y="-512.3" font-family="Helvetica,sans-Serif" font-size="9.00">seq_db_align_begin</text>
</a>
</g>
<g id="a_node4_43"><a xlink:href="/dictionaries/mmcif_pdbx_modeling_extension_all.dic/Items/_ma_target_details.seq_db_align_end.html" xlink:title="&lt;TABLE&gt;" target="_top">
<polygon fill="none" stroke="black" points="221.475,-484.5 221.475,-504.5 340.475,-504.5 340.475,-484.5 221.475,-484.5"/>
<text text-anchor="start" x="226.475" y="-492.3" font-family="Helvetica,sans-Serif" font-size="9.00">seq_db_align_end</text>
</a>
</g>
<g id="a_node4_44"><a xlink:href="/dictionaries/mmcif_pdbx_modeling_extension_all.dic/Items/_ma_target_details.seq_db_one_letter_code.html" xlink:title="&lt;TABLE&gt;" target="_top">
<polygon fill="none" stroke="black" points="221.475,-464.5 221.475,-484.5 340.475,-484.5 340.475,-464.5 221.475,-464.5"/>
<text text-anchor="start" x="226.475" y="-472.3" font-family="Helvetica,sans-Serif" font-size="9.00">seq_db_one_letter_code</text>
</a>
</g>
</g>
<!-- _ma_alignment_details&#45;&gt;_ma_target_details -->
<g id="edge4" class="edge"><title>_ma_alignment_details:__target_id:w&#45;&gt;_ma_target_details:__id:w</title>
<path fill="none" stroke="black" d="M152.475,-1224.5C66.474,-1224.5 99.7613,-1098.16 153.475,-1031 197.917,-975.43 265.177,-1050.68 309.475,-995 383.905,-901.438 376.114,-825.261 309.475,-726 285.921,-690.916 245.521,-724.749 221.475,-690 215.3,-681.077 209.683,-667.644 211.904,-660.119"/>
<polygon fill="black" stroke="black" points="214.031,-662.91 220.475,-654.5 210.193,-657.056 214.031,-662.91"/>
</g>
<!-- _ma_template_details -->
<g id="node5" class="node"><title>_ma_template_details</title>
<g id="a_node5_45"><a xlink:href="/dictionaries/mmcif_pdbx_modeling_extension_all.dic/Categories/ma_template_details.html" xlink:title="&lt;TABLE&gt;" target="_top">
<polygon fill="#99c49b" stroke="none" points="153.475,-969.5 153.475,-990.5 292.475,-990.5 292.475,-969.5 153.475,-969.5"/>
<polygon fill="none" stroke="black" points="153.475,-969.5 153.475,-990.5 292.475,-990.5 292.475,-969.5 153.475,-969.5"/>
<text text-anchor="start" x="162.475" y="-977.5" font-family="Helvetica,sans-Serif" font-size="10.00">MA_TEMPLATE_DETAILS</text>
</a>
</g>
<g id="a_node5_46"><a xlink:href="/dictionaries/mmcif_pdbx_modeling_extension_all.dic/Items/_ma_template_details.id.html" xlink:title="&lt;TABLE&gt;" target="_top">
<polygon fill="#ffff99" stroke="none" points="153.475,-949.5 153.475,-969.5 292.475,-969.5 292.475,-949.5 153.475,-949.5"/>
<polygon fill="none" stroke="black" points="153.475,-949.5 153.475,-969.5 292.475,-969.5 292.475,-949.5 153.475,-949.5"/>
<text text-anchor="start" x="158.475" y="-957.3" font-family="Helvetica,sans-Serif" font-size="9.00">id</text>
</a>
</g>
<g id="a_node5_47"><a xlink:href="/dictionaries/mmcif_pdbx_modeling_extension_all.dic/Items/_ma_template_details.target_entity_id.html" xlink:title="&lt;TABLE&gt;" target="_top">
<polygon fill="none" stroke="black" points="153.475,-929.5 153.475,-949.5 292.475,-949.5 292.475,-929.5 153.475,-929.5"/>
<text text-anchor="start" x="158.475" y="-937.3" font-family="Helvetica,sans-Serif" font-size="9.00">target_entity_id</text>
</a>
</g>
<g id="a_node5_48"><a xlink:href="/dictionaries/mmcif_pdbx_modeling_extension_all.dic/Items/_ma_template_details.data_id.html" xlink:title="&lt;TABLE&gt;" target="_top">
<polygon fill="none" stroke="black" points="153.475,-909.5 153.475,-929.5 292.475,-929.5 292.475,-909.5 153.475,-909.5"/>
<text text-anchor="start" x="158.475" y="-917.3" font-family="Helvetica,sans-Serif" font-size="9.00">data_id</text>
</a>
</g>
<g id="a_node5_49"><a xlink:href="/dictionaries/mmcif_pdbx_modeling_extension_all.dic/Items/_ma_template_details.group_id.html" xlink:title="&lt;TABLE&gt;" target="_top">
<polygon fill="none" stroke="black" points="153.475,-889.5 153.475,-909.5 292.475,-909.5 292.475,-889.5 153.475,-889.5"/>
<text text-anchor="start" x="158.475" y="-897.3" font-family="Helvetica,sans-Serif" font-size="9.00">group_id</text>
</a>
</g>
<g id="a_node5_50"><a xlink:href="/dictionaries/mmcif_pdbx_modeling_extension_all.dic/Items/_ma_template_details.pdb_code.html" xlink:title="&lt;TABLE&gt;" target="_top">
<polygon fill="none" stroke="black" points="153.475,-869.5 153.475,-889.5 292.475,-889.5 292.475,-869.5 153.475,-869.5"/>
<text text-anchor="start" x="158.475" y="-877.3" font-family="Helvetica,sans-Serif" font-size="9.00">pdb_code</text>
</a>
</g>
<g id="a_node5_51"><a xlink:href="/dictionaries/mmcif_pdbx_modeling_extension_all.dic/Items/_ma_template_details.pdb_entity_id.html" xlink:title="&lt;TABLE&gt;" target="_top">
<polygon fill="none" stroke="black" points="153.475,-849.5 153.475,-869.5 292.475,-869.5 292.475,-849.5 153.475,-849.5"/>
<text text-anchor="start" x="158.475" y="-857.3" font-family="Helvetica,sans-Serif" font-size="9.00">pdb_entity_id</text>
</a>
</g>
<g id="a_node5_52"><a xlink:href="/dictionaries/mmcif_pdbx_modeling_extension_all.dic/Items/_ma_template_details.pdb_label_asym_id.html" xlink:title="&lt;TABLE&gt;" target="_top">
<polygon fill="none" stroke="black" points="153.475,-829.5 153.475,-849.5 292.475,-849.5 292.475,-829.5 153.475,-829.5"/>
<text text-anchor="start" x="158.475" y="-837.3" font-family="Helvetica,sans-Serif" font-size="9.00">pdb_label_asym_id</text>
</a>
</g>
<g id="a_node5_53"><a xlink:href="/dictionaries/mmcif_pdbx_modeling_extension_all.dic/Items/_ma_template_details.pdb_model_num.html" xlink:title="&lt;TABLE&gt;" target="_top">
<polygon fill="none" stroke="black" points="153.475,-809.5 153.475,-829.5 292.475,-829.5 292.475,-809.5 153.475,-809.5"/>
<text text-anchor="start" x="158.475" y="-817.3" font-family="Helvetica,sans-Serif" font-size="9.00">pdb_model_num</text>
</a>
</g>
<g id="a_node5_54"><a xlink:href="/dictionaries/mmcif_pdbx_modeling_extension_all.dic/Items/_ma_template_details.pdb_seq_id_begin.html" xlink:title="&lt;TABLE&gt;" target="_top">
<polygon fill="none" stroke="black" points="153.475,-789.5 153.475,-809.5 292.475,-809.5 292.475,-789.5 153.475,-789.5"/>
<text text-anchor="start" x="158.475" y="-797.3" font-family="Helvetica,sans-Serif" font-size="9.00">pdb_seq_id_begin</text>
</a>
</g>
<g id="a_node5_55"><a xlink:href="/dictionaries/mmcif_pdbx_modeling_extension_all.dic/Items/_ma_template_details.pdb_seq_id_end.html" xlink:title="&lt;TABLE&gt;" target="_top">
<polygon fill="none" stroke="black" points="153.475,-769.5 153.475,-789.5 292.475,-789.5 292.475,-769.5 153.475,-769.5"/>
<text text-anchor="start" x="158.475" y="-777.3" font-family="Helvetica,sans-Serif" font-size="9.00">pdb_seq_id_end</text>
</a>
</g>
<g id="a_node5_56"><a xlink:href="/dictionaries/mmcif_pdbx_modeling_extension_all.dic/Items/_ma_template_details.pdb_seq_one_letter_code.html" xlink:title="&lt;TABLE&gt;" target="_top">
<polygon fill="none" stroke="black" points="153.475,-749.5 153.475,-769.5 292.475,-769.5 292.475,-749.5 153.475,-749.5"/>
<text text-anchor="start" x="158.475" y="-757.3" font-family="Helvetica,sans-Serif" font-size="9.00">pdb_seq_one_letter_code</text>
</a>
</g>
<g id="a_node5_57"><a xlink:href="/dictionaries/mmcif_pdbx_modeling_extension_all.dic/Items/_ma_template_details.pdb_seq_one_letter_code_can.html" xlink:title="&lt;TABLE&gt;" target="_top">
<polygon fill="none" stroke="black" points="153.475,-729.5 153.475,-749.5 292.475,-749.5 292.475,-729.5 153.475,-729.5"/>
<text text-anchor="start" x="158.475" y="-737.3" font-family="Helvetica,sans-Serif" font-size="9.00">pdb_seq_one_letter_code_can</text>
</a>
</g>
</g>
<!-- _ma_alignment_details&#45;&gt;_ma_template_details -->
<g id="edge5" class="edge"><title>_ma_alignment_details:__template_id:w&#45;&gt;_ma_template_details:__id:w</title>
<path fill="none" stroke="black" d="M152.475,-1044.5C136.759,-1044.5 134.119,-985.657 144.556,-965.889"/>
<polygon fill="black" stroke="black" points="146.89,-968.503 152.475,-959.5 142.494,-963.055 146.89,-968.503"/>
</g>
<!-- _ma_target_details&#45;&gt;_entity -->
<g id="edge2" class="edge"><title>_ma_target_details:__entity_id:w&#45;&gt;_entity:__id:w</title>
<path fill="none" stroke="black" d="M220.475,-614.5C152.252,-614.5 207.795,-527.838 221.475,-461 222.147,-457.719 237.299,-416.334 246.037,-398.068"/>
<polygon fill="black" stroke="black" points="249.071,-399.818 251.475,-389.5 243.161,-396.067 249.071,-399.818"/>
</g>
<!-- _ma_target_details&#45;&gt;_ma_data -->
<g id="edge7" class="edge"><title>_ma_target_details:__data_id:w&#45;&gt;_ma_data:__id:w</title>
<path fill="none" stroke="black" d="M220.475,-634.5C211.023,-634.5 136.797,-314.36 135.475,-305 134.096,-295.232 127.884,-283.807 127.273,-276.612"/>
<polygon fill="black" stroke="black" points="129.819,-279.017 134.475,-269.5 124.9,-274.036 129.819,-279.017"/>
</g>
<!-- _ma_template_details&#45;&gt;_ma_data -->
<g id="edge6" class="edge"><title>_ma_template_details:__data_id:w&#45;&gt;_ma_data:__id:w</title>
<path fill="none" stroke="black" d="M152.475,-919.5C144.105,-919.5 128.033,-361.228 132.912,-279.45"/>
<polygon fill="black" stroke="black" points="136.38,-279.922 134.475,-269.5 129.465,-278.835 136.38,-279.922"/>
</g>
<!-- _ma_template_details&#45;&gt;_ma_target_details -->
<g id="edge8" class="edge"><title>_ma_template_details:__target_entity_id:w&#45;&gt;_ma_target_details:__entity_id:w</title>
<path fill="none" stroke="black" d="M152.475,-939.5C128.753,-939.5 147.082,-748.845 153.475,-726 156.792,-714.147 192.564,-641.626 212.037,-620.357"/>
<polygon fill="black" stroke="black" points="214.256,-623.077 220.475,-614.5 210.264,-617.327 214.256,-623.077"/>
</g>
</g>
</svg>
