<?xml version="1.0" encoding="UTF-8" standalone="no"?>
<!DOCTYPE svg PUBLIC "-//W3C//DTD SVG 1.1//EN"
 "http://www.w3.org/Graphics/SVG/1.1/DTD/svg11.dtd">
<!-- Generated by graphviz version 2.38.0 (20140413.2041)
 -->
<!-- Title: ma_target_oligomer_modeling Pages: 1 -->
<svg width="645pt" height="723pt"
 viewBox="0.00 0.00 645.00 723.00" xmlns="http://www.w3.org/2000/svg" xmlns:xlink="http://www.w3.org/1999/xlink">
<g id="graph0" class="graph" transform="scale(1 1) rotate(0) translate(4 719)">
<title>ma_target_oligomer_modeling</title>
<polygon fill="white" stroke="none" points="-4,4 -4,-719 641,-719 641,4 -4,4"/>
<text text-anchor="start" x="315.5" y="-58.6" font-family="Helvetica,sans-Serif" font-size="18.00"> </text>
<text text-anchor="start" x="315.5" y="-40.6" font-family="Helvetica,sans-Serif" font-size="18.00"> </text>
<text text-anchor="start" x="8" y="-22.6" font-family="Helvetica,sans-Serif" font-size="18.00"> Category Relationship Diagram for </text>
<text text-anchor="start" x="291" y="-22.6" font-family="Helvetica,sans-Serif" font-weight="bold" font-size="18.00">MA_TARGET_OLIGOMER_MODELING</text>
<text text-anchor="start" x="619" y="-22.6" font-family="Helvetica,sans-Serif" font-size="18.00"> </text>
<text text-anchor="start" x="625" y="-22.6" font-family="Helvetica,sans-Serif" font-size="14.00"> </text>
<text text-anchor="start" x="184.5" y="-7.8" font-family="Helvetica,sans-Serif" font-size="14.00"> &#160;in dictionary mmcif_pdbx.dic version 5.280 </text>
<!-- _entity_poly_seq -->
<g id="node1" class="node"><title>_entity_poly_seq</title>
<g id="a_node1_0"><a xlink:href="/dictionaries/mmcif_modeling_v10.unix_1.04.dic/Categories/entity_poly_seq.html" xlink:title="&lt;TABLE&gt;" target="_top">
<polygon fill="#99c49b" stroke="none" points="126.198,-159.5 126.198,-180.5 230.198,-180.5 230.198,-159.5 126.198,-159.5"/>
<polygon fill="none" stroke="black" points="126.198,-159.5 126.198,-180.5 230.198,-180.5 230.198,-159.5 126.198,-159.5"/>
<text text-anchor="start" x="131.198" y="-167.5" font-family="Helvetica,sans-Serif" font-size="10.00">ENTITY_POLY_SEQ</text>
</a>
</g>
<g id="a_node1_1"><a xlink:href="/dictionaries/mmcif_modeling_v10.unix_1.04.dic/Items/_entity_poly_seq.entity_id.html" xlink:title="&lt;TABLE&gt;" target="_top">
<polygon fill="#ffff99" stroke="none" points="126.198,-139.5 126.198,-159.5 230.198,-159.5 230.198,-139.5 126.198,-139.5"/>
<polygon fill="none" stroke="black" points="126.198,-139.5 126.198,-159.5 230.198,-159.5 230.198,-139.5 126.198,-139.5"/>
<text text-anchor="start" x="131.198" y="-147.3" font-family="Helvetica,sans-Serif" font-size="9.00">entity_id</text>
</a>
</g>
<g id="a_node1_2"><a xlink:href="/dictionaries/mmcif_modeling_v10.unix_1.04.dic/Items/_entity_poly_seq.mon_id.html" xlink:title="&lt;TABLE&gt;" target="_top">
<polygon fill="#ffff99" stroke="none" points="126.198,-119.5 126.198,-139.5 230.198,-139.5 230.198,-119.5 126.198,-119.5"/>
<polygon fill="none" stroke="black" points="126.198,-119.5 126.198,-139.5 230.198,-139.5 230.198,-119.5 126.198,-119.5"/>
<text text-anchor="start" x="131.198" y="-127.3" font-family="Helvetica,sans-Serif" font-size="9.00">mon_id</text>
</a>
</g>
<g id="a_node1_3"><a xlink:href="/dictionaries/mmcif_modeling_v10.unix_1.04.dic/Items/_entity_poly_seq.num.html" xlink:title="&lt;TABLE&gt;" target="_top">
<polygon fill="#ffff99" stroke="none" points="126.198,-99.5 126.198,-119.5 230.198,-119.5 230.198,-99.5 126.198,-99.5"/>
<polygon fill="none" stroke="black" points="126.198,-99.5 126.198,-119.5 230.198,-119.5 230.198,-99.5 126.198,-99.5"/>
<text text-anchor="start" x="131.198" y="-107.3" font-family="Helvetica,sans-Serif" font-size="9.00">num</text>
</a>
</g>
<g id="a_node1_4"><a xlink:href="/dictionaries/mmcif_modeling_v10.unix_1.04.dic/Items/_entity_poly_seq.hetero.html" xlink:title="&lt;TABLE&gt;" target="_top">
<polygon fill="none" stroke="black" points="126.198,-79.5 126.198,-99.5 230.198,-99.5 230.198,-79.5 126.198,-79.5"/>
<text text-anchor="start" x="131.198" y="-87.3" font-family="Helvetica,sans-Serif" font-size="9.00">hetero</text>
</a>
</g>
</g>
<!-- _ma_target_details -->
<g id="node2" class="node"><title>_ma_target_details</title>
<g id="a_node2_5"><a xlink:href="/dictionaries/mmcif_modeling_v10.unix_1.04.dic/Categories/ma_target_details.html" xlink:title="&lt;TABLE&gt;" target="_top">
<polygon fill="#99c49b" stroke="none" points="163.198,-444.5 163.198,-465.5 282.198,-465.5 282.198,-444.5 163.198,-444.5"/>
<polygon fill="none" stroke="black" points="163.198,-444.5 163.198,-465.5 282.198,-465.5 282.198,-444.5 163.198,-444.5"/>
<text text-anchor="start" x="168.198" y="-452.5" font-family="Helvetica,sans-Serif" font-size="10.00">MA_TARGET_DETAILS</text>
</a>
</g>
<g id="a_node2_6"><a xlink:href="/dictionaries/mmcif_modeling_v10.unix_1.04.dic/Items/_ma_target_details.id.html" xlink:title="&lt;TABLE&gt;" target="_top">
<polygon fill="#ffff99" stroke="none" points="163.198,-424.5 163.198,-444.5 282.198,-444.5 282.198,-424.5 163.198,-424.5"/>
<polygon fill="none" stroke="black" points="163.198,-424.5 163.198,-444.5 282.198,-444.5 282.198,-424.5 163.198,-424.5"/>
<text text-anchor="start" x="168.198" y="-432.3" font-family="Helvetica,sans-Serif" font-size="9.00">id</text>
</a>
</g>
<g id="a_node2_7"><a xlink:href="/dictionaries/mmcif_modeling_v10.unix_1.04.dic/Items/_ma_target_details.entity_id.html" xlink:title="&lt;TABLE&gt;" target="_top">
<polygon fill="none" stroke="black" points="163.198,-404.5 163.198,-424.5 282.198,-424.5 282.198,-404.5 163.198,-404.5"/>
<text text-anchor="start" x="168.198" y="-412.3" font-family="Helvetica,sans-Serif" font-size="9.00">entity_id</text>
</a>
</g>
<g id="a_node2_8"><a xlink:href="/dictionaries/mmcif_modeling_v10.unix_1.04.dic/Items/_ma_target_details.db_accession.html" xlink:title="&lt;TABLE&gt;" target="_top">
<polygon fill="none" stroke="black" points="163.198,-384.5 163.198,-404.5 282.198,-404.5 282.198,-384.5 163.198,-384.5"/>
<text text-anchor="start" x="168.198" y="-392.3" font-family="Helvetica,sans-Serif" font-size="9.00">db_accession</text>
</a>
</g>
<g id="a_node2_9"><a xlink:href="/dictionaries/mmcif_modeling_v10.unix_1.04.dic/Items/_ma_target_details.db_code.html" xlink:title="&lt;TABLE&gt;" target="_top">
<polygon fill="none" stroke="black" points="163.198,-364.5 163.198,-384.5 282.198,-384.5 282.198,-364.5 163.198,-364.5"/>
<text text-anchor="start" x="168.198" y="-372.3" font-family="Helvetica,sans-Serif" font-size="9.00">db_code</text>
</a>
</g>
<g id="a_node2_10"><a xlink:href="/dictionaries/mmcif_modeling_v10.unix_1.04.dic/Items/_ma_target_details.db_isoform.html" xlink:title="&lt;TABLE&gt;" target="_top">
<polygon fill="none" stroke="black" points="163.198,-344.5 163.198,-364.5 282.198,-364.5 282.198,-344.5 163.198,-344.5"/>
<text text-anchor="start" x="168.198" y="-352.3" font-family="Helvetica,sans-Serif" font-size="9.00">db_isoform</text>
</a>
</g>
<g id="a_node2_11"><a xlink:href="/dictionaries/mmcif_modeling_v10.unix_1.04.dic/Items/_ma_target_details.db_name.html" xlink:title="&lt;TABLE&gt;" target="_top">
<polygon fill="none" stroke="black" points="163.198,-324.5 163.198,-344.5 282.198,-344.5 282.198,-324.5 163.198,-324.5"/>
<text text-anchor="start" x="168.198" y="-332.3" font-family="Helvetica,sans-Serif" font-size="9.00">db_name</text>
</a>
</g>
<g id="a_node2_12"><a xlink:href="/dictionaries/mmcif_modeling_v10.unix_1.04.dic/Items/_ma_target_details.seq_db_align_begin.html" xlink:title="&lt;TABLE&gt;" target="_top">
<polygon fill="none" stroke="black" points="163.198,-304.5 163.198,-324.5 282.198,-324.5 282.198,-304.5 163.198,-304.5"/>
<text text-anchor="start" x="168.198" y="-312.3" font-family="Helvetica,sans-Serif" font-size="9.00">seq_db_align_begin</text>
</a>
</g>
<g id="a_node2_13"><a xlink:href="/dictionaries/mmcif_modeling_v10.unix_1.04.dic/Items/_ma_target_details.seq_db_align_end.html" xlink:title="&lt;TABLE&gt;" target="_top">
<polygon fill="none" stroke="black" points="163.198,-284.5 163.198,-304.5 282.198,-304.5 282.198,-284.5 163.198,-284.5"/>
<text text-anchor="start" x="168.198" y="-292.3" font-family="Helvetica,sans-Serif" font-size="9.00">seq_db_align_end</text>
</a>
</g>
<g id="a_node2_14"><a xlink:href="/dictionaries/mmcif_modeling_v10.unix_1.04.dic/Items/_ma_target_details.seq_db_one_letter_code.html" xlink:title="&lt;TABLE&gt;" target="_top">
<polygon fill="none" stroke="black" points="163.198,-264.5 163.198,-284.5 282.198,-284.5 282.198,-264.5 163.198,-264.5"/>
<text text-anchor="start" x="168.198" y="-272.3" font-family="Helvetica,sans-Serif" font-size="9.00">seq_db_one_letter_code</text>
</a>
</g>
</g>
<!-- _ma_target_details&#45;&gt;_entity_poly_seq -->
<g id="edge1" class="edge"><title>_ma_target_details:__entity_id:w&#45;&gt;_entity_poly_seq:__entity_id:w</title>
<path fill="none" stroke="black" d="M162.198,-414.5C140.559,-414.5 145.384,-242.008 140.198,-221 133.57,-194.156 103.807,-161.182 115.168,-151.984"/>
<polygon fill="black" stroke="black" points="116.333,-155.302 125.198,-149.5 114.65,-148.507 116.333,-155.302"/>
</g>
<!-- _ma_target_oligomer_modeling -->
<g id="node3" class="node"><title>_ma_target_oligomer_modeling</title>
<g id="a_node3_15"><a xlink:href="/dictionaries/mmcif_modeling_v10.unix_1.04.dic/Categories/ma_target_oligomer_modeling.html" xlink:title="&lt;TABLE&gt;" target="_top">
<polygon fill="#f0027f" stroke="none" points="144.198,-689.5 144.198,-710.5 332.198,-710.5 332.198,-689.5 144.198,-689.5"/>
<polygon fill="none" stroke="black" points="144.198,-689.5 144.198,-710.5 332.198,-710.5 332.198,-689.5 144.198,-689.5"/>
<text text-anchor="start" x="149.198" y="-697.5" font-family="Helvetica,sans-Serif" font-size="10.00">MA_TARGET_OLIGOMER_MODELING</text>
</a>
</g>
<g id="a_node3_16"><a xlink:href="/dictionaries/mmcif_modeling_v10.unix_1.04.dic/Items/_ma_target_oligomer_modeling.ordinal_id.html" xlink:title="&lt;TABLE&gt;" target="_top">
<polygon fill="#ffff99" stroke="none" points="144.198,-669.5 144.198,-689.5 332.198,-689.5 332.198,-669.5 144.198,-669.5"/>
<polygon fill="none" stroke="black" points="144.198,-669.5 144.198,-689.5 332.198,-689.5 332.198,-669.5 144.198,-669.5"/>
<text text-anchor="start" x="149.198" y="-677.3" font-family="Helvetica,sans-Serif" font-size="9.00">ordinal_id</text>
</a>
</g>
<g id="a_node3_17"><a xlink:href="/dictionaries/mmcif_modeling_v10.unix_1.04.dic/Items/_ma_target_oligomer_modeling.asym_id.html" xlink:title="&lt;TABLE&gt;" target="_top">
<polygon fill="none" stroke="black" points="144.198,-649.5 144.198,-669.5 332.198,-669.5 332.198,-649.5 144.198,-649.5"/>
<text text-anchor="start" x="149.198" y="-657.3" font-family="Helvetica,sans-Serif" font-size="9.00">asym_id</text>
</a>
</g>
<g id="a_node3_18"><a xlink:href="/dictionaries/mmcif_modeling_v10.unix_1.04.dic/Items/_ma_target_oligomer_modeling.seq_id_begin.html" xlink:title="&lt;TABLE&gt;" target="_top">
<polygon fill="none" stroke="black" points="144.198,-629.5 144.198,-649.5 332.198,-649.5 332.198,-629.5 144.198,-629.5"/>
<text text-anchor="start" x="149.198" y="-637.3" font-family="Helvetica,sans-Serif" font-size="9.00">seq_id_begin</text>
</a>
</g>
<g id="a_node3_19"><a xlink:href="/dictionaries/mmcif_modeling_v10.unix_1.04.dic/Items/_ma_target_oligomer_modeling.seq_id_end.html" xlink:title="&lt;TABLE&gt;" target="_top">
<polygon fill="none" stroke="black" points="144.198,-609.5 144.198,-629.5 332.198,-629.5 332.198,-609.5 144.198,-609.5"/>
<text text-anchor="start" x="149.198" y="-617.3" font-family="Helvetica,sans-Serif" font-size="9.00">seq_id_end</text>
</a>
</g>
<g id="a_node3_20"><a xlink:href="/dictionaries/mmcif_modeling_v10.unix_1.04.dic/Items/_ma_target_oligomer_modeling.target_entity_id.html" xlink:title="&lt;TABLE&gt;" target="_top">
<polygon fill="none" stroke="black" points="144.198,-589.5 144.198,-609.5 332.198,-609.5 332.198,-589.5 144.198,-589.5"/>
<text text-anchor="start" x="149.198" y="-597.3" font-family="Helvetica,sans-Serif" font-size="9.00">target_entity_id</text>
</a>
</g>
<g id="a_node3_21"><a xlink:href="/dictionaries/mmcif_modeling_v10.unix_1.04.dic/Items/_ma_target_oligomer_modeling.oligomer_group_id.html" xlink:title="&lt;TABLE&gt;" target="_top">
<polygon fill="none" stroke="black" points="144.198,-569.5 144.198,-589.5 332.198,-589.5 332.198,-569.5 144.198,-569.5"/>
<text text-anchor="start" x="149.198" y="-577.3" font-family="Helvetica,sans-Serif" font-size="9.00">oligomer_group_id</text>
</a>
</g>
<g id="a_node3_22"><a xlink:href="/dictionaries/mmcif_modeling_v10.unix_1.04.dic/Items/_ma_target_oligomer_modeling.oligomer_name.html" xlink:title="&lt;TABLE&gt;" target="_top">
<polygon fill="none" stroke="black" points="144.198,-549.5 144.198,-569.5 332.198,-569.5 332.198,-549.5 144.198,-549.5"/>
<text text-anchor="start" x="149.198" y="-557.3" font-family="Helvetica,sans-Serif" font-size="9.00">oligomer_name</text>
</a>
</g>
</g>
<!-- _ma_target_oligomer_modeling&#45;&gt;_entity_poly_seq -->
<g id="edge2" class="edge"><title>_ma_target_oligomer_modeling:__seq_id_begin:w&#45;&gt;_entity_poly_seq:__num:w</title>
<path fill="none" stroke="black" d="M143.198,-639.5C87.4973,-639.5 68.3661,-165.884 116.215,-114.082"/>
<polygon fill="black" stroke="black" points="117.88,-117.162 125.198,-109.5 114.699,-110.926 117.88,-117.162"/>
</g>
<!-- _ma_target_oligomer_modeling&#45;&gt;_entity_poly_seq -->
<g id="edge3" class="edge"><title>_ma_target_oligomer_modeling:__seq_id_end:w&#45;&gt;_entity_poly_seq:__num:w</title>
<path fill="none" stroke="black" d="M143.198,-619.5C117.006,-619.5 99.6491,-184.236 119.51,-117.926"/>
<polygon fill="black" stroke="black" points="122.504,-119.747 125.198,-109.5 116.702,-115.83 122.504,-119.747"/>
</g>
<!-- _ma_target_oligomer_modeling&#45;&gt;_ma_target_details -->
<g id="edge4" class="edge"><title>_ma_target_oligomer_modeling:__target_entity_id:w&#45;&gt;_ma_target_details:__entity_id:w</title>
<path fill="none" stroke="black" d="M143.198,-599.5C134.258,-599.5 147.278,-461.003 157.641,-423.674"/>
<polygon fill="black" stroke="black" points="160.884,-425.013 162.198,-414.5 154.615,-421.899 160.884,-425.013"/>
</g>
<!-- _struct_asym -->
<g id="node4" class="node"><title>_struct_asym</title>
<g id="a_node4_23"><a xlink:href="/dictionaries/mmcif_modeling_v10.unix_1.04.dic/Categories/struct_asym.html" xlink:title="&lt;TABLE&gt;" target="_top">
<polygon fill="#99c49b" stroke="none" points="316.198,-484.5 316.198,-505.5 540.198,-505.5 540.198,-484.5 316.198,-484.5"/>
<polygon fill="none" stroke="black" points="316.198,-484.5 316.198,-505.5 540.198,-505.5 540.198,-484.5 316.198,-484.5"/>
<text text-anchor="start" x="390.198" y="-492.5" font-family="Helvetica,sans-Serif" font-size="10.00">STRUCT_ASYM</text>
</a>
</g>
<g id="a_node4_24"><a xlink:href="/dictionaries/mmcif_modeling_v10.unix_1.04.dic/Items/_struct_asym.id.html" xlink:title="&lt;TABLE&gt;" target="_top">
<polygon fill="#ffff99" stroke="none" points="316.198,-464.5 316.198,-484.5 540.198,-484.5 540.198,-464.5 316.198,-464.5"/>
<polygon fill="none" stroke="black" points="316.198,-464.5 316.198,-484.5 540.198,-484.5 540.198,-464.5 316.198,-464.5"/>
<text text-anchor="start" x="321.198" y="-472.3" font-family="Helvetica,sans-Serif" font-size="9.00">id</text>
</a>
</g>
<g id="a_node4_25"><a xlink:href="/dictionaries/mmcif_modeling_v10.unix_1.04.dic/Items/_struct_asym.details.html" xlink:title="&lt;TABLE&gt;" target="_top">
<polygon fill="none" stroke="black" points="316.198,-444.5 316.198,-464.5 540.198,-464.5 540.198,-444.5 316.198,-444.5"/>
<text text-anchor="start" x="321.198" y="-452.3" font-family="Helvetica,sans-Serif" font-size="9.00">details</text>
</a>
</g>
<g id="a_node4_26"><a xlink:href="/dictionaries/mmcif_modeling_v10.unix_1.04.dic/Items/_struct_asym.entity_id.html" xlink:title="&lt;TABLE&gt;" target="_top">
<polygon fill="none" stroke="black" points="316.198,-424.5 316.198,-444.5 540.198,-444.5 540.198,-424.5 316.198,-424.5"/>
<text text-anchor="start" x="321.198" y="-432.3" font-family="Helvetica,sans-Serif" font-size="9.00">entity_id</text>
</a>
</g>
<g id="a_node4_27"><a xlink:href="/dictionaries/mmcif_modeling_v10.unix_1.04.dic/Items/_struct_asym.pdbx_PDB_id.html" xlink:title="&lt;TABLE&gt;" target="_top">
<polygon fill="none" stroke="black" points="316.198,-404.5 316.198,-424.5 540.198,-424.5 540.198,-404.5 316.198,-404.5"/>
<text text-anchor="start" x="321.198" y="-412.3" font-family="Helvetica,sans-Serif" font-size="9.00">pdbx_PDB_id</text>
</a>
</g>
<g id="a_node4_28"><a xlink:href="/dictionaries/mmcif_modeling_v10.unix_1.04.dic/Items/_struct_asym.pdbx_alt_id.html" xlink:title="&lt;TABLE&gt;" target="_top">
<polygon fill="none" stroke="black" points="316.198,-384.5 316.198,-404.5 540.198,-404.5 540.198,-384.5 316.198,-384.5"/>
<text text-anchor="start" x="321.198" y="-392.3" font-family="Helvetica,sans-Serif" font-size="9.00">pdbx_alt_id</text>
</a>
</g>
<g id="a_node4_29"><a xlink:href="/dictionaries/mmcif_modeling_v10.unix_1.04.dic/Items/_struct_asym.pdbx_blank_PDB_chainid_flag.html" xlink:title="&lt;TABLE&gt;" target="_top">
<polygon fill="none" stroke="black" points="316.198,-364.5 316.198,-384.5 540.198,-384.5 540.198,-364.5 316.198,-364.5"/>
<text text-anchor="start" x="321.198" y="-372.3" font-family="Helvetica,sans-Serif" font-size="9.00">pdbx_blank_PDB_chainid_flag</text>
</a>
</g>
<g id="a_node4_30"><a xlink:href="/dictionaries/mmcif_modeling_v10.unix_1.04.dic/Items/_struct_asym.pdbx_fraction_per_asym_unit.html" xlink:title="&lt;TABLE&gt;" target="_top">
<polygon fill="none" stroke="black" points="316.198,-344.5 316.198,-364.5 540.198,-364.5 540.198,-344.5 316.198,-344.5"/>
<text text-anchor="start" x="321.198" y="-352.3" font-family="Helvetica,sans-Serif" font-size="9.00">pdbx_fraction_per_asym_unit</text>
</a>
</g>
<g id="a_node4_31"><a xlink:href="/dictionaries/mmcif_modeling_v10.unix_1.04.dic/Items/_struct_asym.pdbx_missing_num_begin_of_chain_in_seqres.html" xlink:title="&lt;TABLE&gt;" target="_top">
<polygon fill="none" stroke="black" points="316.198,-324.5 316.198,-344.5 540.198,-344.5 540.198,-324.5 316.198,-324.5"/>
<text text-anchor="start" x="321.198" y="-332.3" font-family="Helvetica,sans-Serif" font-size="9.00">pdbx_missing_num_begin_of_chain_in_seqres</text>
</a>
</g>
<g id="a_node4_32"><a xlink:href="/dictionaries/mmcif_modeling_v10.unix_1.04.dic/Items/_struct_asym.pdbx_missing_num_begin_of_chain_not_in_seqres.html" xlink:title="&lt;TABLE&gt;" target="_top">
<polygon fill="none" stroke="black" points="316.198,-304.5 316.198,-324.5 540.198,-324.5 540.198,-304.5 316.198,-304.5"/>
<text text-anchor="start" x="321.198" y="-312.3" font-family="Helvetica,sans-Serif" font-size="9.00">pdbx_missing_num_begin_of_chain_not_in_seqres</text>
</a>
</g>
<g id="a_node4_33"><a xlink:href="/dictionaries/mmcif_modeling_v10.unix_1.04.dic/Items/_struct_asym.pdbx_missing_num_end_of_chain_not_in_seqres.html" xlink:title="&lt;TABLE&gt;" target="_top">
<polygon fill="none" stroke="black" points="316.198,-284.5 316.198,-304.5 540.198,-304.5 540.198,-284.5 316.198,-284.5"/>
<text text-anchor="start" x="321.198" y="-292.3" font-family="Helvetica,sans-Serif" font-size="9.00">pdbx_missing_num_end_of_chain_not_in_seqres</text>
</a>
</g>
<g id="a_node4_34"><a xlink:href="/dictionaries/mmcif_modeling_v10.unix_1.04.dic/Items/_struct_asym.pdbx_modified.html" xlink:title="&lt;TABLE&gt;" target="_top">
<polygon fill="none" stroke="black" points="316.198,-264.5 316.198,-284.5 540.198,-284.5 540.198,-264.5 316.198,-264.5"/>
<text text-anchor="start" x="321.198" y="-272.3" font-family="Helvetica,sans-Serif" font-size="9.00">pdbx_modified</text>
</a>
</g>
<g id="a_node4_35"><a xlink:href="/dictionaries/mmcif_modeling_v10.unix_1.04.dic/Items/_struct_asym.pdbx_order.html" xlink:title="&lt;TABLE&gt;" target="_top">
<polygon fill="none" stroke="black" points="316.198,-244.5 316.198,-264.5 540.198,-264.5 540.198,-244.5 316.198,-244.5"/>
<text text-anchor="start" x="321.198" y="-252.3" font-family="Helvetica,sans-Serif" font-size="9.00">pdbx_order</text>
</a>
</g>
<g id="a_node4_36"><a xlink:href="/dictionaries/mmcif_modeling_v10.unix_1.04.dic/Items/_struct_asym.pdbx_type.html" xlink:title="&lt;TABLE&gt;" target="_top">
<polygon fill="none" stroke="black" points="316.198,-224.5 316.198,-244.5 540.198,-244.5 540.198,-224.5 316.198,-224.5"/>
<text text-anchor="start" x="321.198" y="-232.3" font-family="Helvetica,sans-Serif" font-size="9.00">pdbx_type</text>
</a>
</g>
</g>
<!-- _ma_target_oligomer_modeling&#45;&gt;_struct_asym -->
<g id="edge5" class="edge"><title>_ma_target_oligomer_modeling:__asym_id:w&#45;&gt;_struct_asym:__id:w</title>
<path fill="none" stroke="black" d="M143.198,-659.5C92.7514,-659.5 112.647,-585.362 144.198,-546 188.431,-490.817 244.554,-554.897 299.198,-510 308.6,-502.275 304.134,-487.863 306.67,-479.986"/>
<polygon fill="black" stroke="black" points="308.682,-482.854 315.198,-474.5 304.894,-476.967 308.682,-482.854"/>
</g>
</g>
</svg>
