<?xml version="1.0" encoding="UTF-8" standalone="no"?>
<!DOCTYPE svg PUBLIC "-//W3C//DTD SVG 1.1//EN"
 "http://www.w3.org/Graphics/SVG/1.1/DTD/svg11.dtd">
<!-- Generated by graphviz version 2.38.0 (20140413.2041)
 -->
<!-- Title: ma_template_coord Pages: 1 -->
<svg width="529pt" height="758pt"
 viewBox="0.00 0.00 529.00 758.00" xmlns="http://www.w3.org/2000/svg" xmlns:xlink="http://www.w3.org/1999/xlink">
<g id="graph0" class="graph" transform="scale(1 1) rotate(0) translate(4 754)">
<title>ma_template_coord</title>
<polygon fill="white" stroke="none" points="-4,4 -4,-754 525,-754 525,4 -4,4"/>
<text text-anchor="start" x="257.5" y="-58.6" font-family="Helvetica,sans-Serif" font-size="18.00"> </text>
<text text-anchor="start" x="257.5" y="-40.6" font-family="Helvetica,sans-Serif" font-size="18.00"> </text>
<text text-anchor="start" x="8" y="-22.6" font-family="Helvetica,sans-Serif" font-size="18.00"> Category Relationship Diagram for </text>
<text text-anchor="start" x="291" y="-22.6" font-family="Helvetica,sans-Serif" font-weight="bold" font-size="18.00">MA_TEMPLATE_COORD</text>
<text text-anchor="start" x="503" y="-22.6" font-family="Helvetica,sans-Serif" font-size="18.00"> </text>
<text text-anchor="start" x="509" y="-22.6" font-family="Helvetica,sans-Serif" font-size="14.00"> </text>
<text text-anchor="start" x="126.5" y="-7.8" font-family="Helvetica,sans-Serif" font-size="14.00"> &#160;in dictionary mmcif_pdbx.dic version 5.296 </text>
<!-- _ma_template_coord -->
<g id="node1" class="node"><title>_ma_template_coord</title>
<g id="a_node1_0"><a xlink:href="/dictionaries/mmcif_pdbx_modeling_extension_all.dic/Categories/ma_template_coord.html" xlink:title="&lt;TABLE&gt;" target="_top">
<polygon fill="#f0027f" stroke="none" points="203.887,-724.5 203.887,-745.5 329.887,-745.5 329.887,-724.5 203.887,-724.5"/>
<polygon fill="none" stroke="black" points="203.887,-724.5 203.887,-745.5 329.887,-745.5 329.887,-724.5 203.887,-724.5"/>
<text text-anchor="start" x="208.887" y="-732.5" font-family="Helvetica,sans-Serif" font-size="10.00">MA_TEMPLATE_COORD</text>
</a>
</g>
<g id="a_node1_1"><a xlink:href="/dictionaries/mmcif_pdbx_modeling_extension_all.dic/Items/_ma_template_coord.ordinal_id.html" xlink:title="&lt;TABLE&gt;" target="_top">
<polygon fill="#ffff99" stroke="none" points="203.887,-704.5 203.887,-724.5 329.887,-724.5 329.887,-704.5 203.887,-704.5"/>
<polygon fill="none" stroke="black" points="203.887,-704.5 203.887,-724.5 329.887,-724.5 329.887,-704.5 203.887,-704.5"/>
<text text-anchor="start" x="208.887" y="-712.3" font-family="Helvetica,sans-Serif" font-size="9.00">ordinal_id</text>
</a>
</g>
<g id="a_node1_2"><a xlink:href="/dictionaries/mmcif_pdbx_modeling_extension_all.dic/Items/_ma_template_coord.template_id.html" xlink:title="&lt;TABLE&gt;" target="_top">
<polygon fill="none" stroke="black" points="203.887,-684.5 203.887,-704.5 329.887,-704.5 329.887,-684.5 203.887,-684.5"/>
<text text-anchor="start" x="208.887" y="-692.3" font-family="Helvetica,sans-Serif" font-size="9.00">template_id</text>
</a>
</g>
<g id="a_node1_3"><a xlink:href="/dictionaries/mmcif_pdbx_modeling_extension_all.dic/Items/_ma_template_coord.B_iso_or_equiv.html" xlink:title="&lt;TABLE&gt;" target="_top">
<polygon fill="none" stroke="black" points="203.887,-664.5 203.887,-684.5 329.887,-684.5 329.887,-664.5 203.887,-664.5"/>
<text text-anchor="start" x="208.887" y="-672.3" font-family="Helvetica,sans-Serif" font-size="9.00">B_iso_or_equiv</text>
</a>
</g>
<g id="a_node1_4"><a xlink:href="/dictionaries/mmcif_pdbx_modeling_extension_all.dic/Items/_ma_template_coord.Cartn_x.html" xlink:title="&lt;TABLE&gt;" target="_top">
<polygon fill="none" stroke="black" points="203.887,-644.5 203.887,-664.5 329.887,-664.5 329.887,-644.5 203.887,-644.5"/>
<text text-anchor="start" x="208.887" y="-652.3" font-family="Helvetica,sans-Serif" font-size="9.00">Cartn_x</text>
</a>
</g>
<g id="a_node1_5"><a xlink:href="/dictionaries/mmcif_pdbx_modeling_extension_all.dic/Items/_ma_template_coord.Cartn_y.html" xlink:title="&lt;TABLE&gt;" target="_top">
<polygon fill="none" stroke="black" points="203.887,-624.5 203.887,-644.5 329.887,-644.5 329.887,-624.5 203.887,-624.5"/>
<text text-anchor="start" x="208.887" y="-632.3" font-family="Helvetica,sans-Serif" font-size="9.00">Cartn_y</text>
</a>
</g>
<g id="a_node1_6"><a xlink:href="/dictionaries/mmcif_pdbx_modeling_extension_all.dic/Items/_ma_template_coord.Cartn_z.html" xlink:title="&lt;TABLE&gt;" target="_top">
<polygon fill="none" stroke="black" points="203.887,-604.5 203.887,-624.5 329.887,-624.5 329.887,-604.5 203.887,-604.5"/>
<text text-anchor="start" x="208.887" y="-612.3" font-family="Helvetica,sans-Serif" font-size="9.00">Cartn_z</text>
</a>
</g>
<g id="a_node1_7"><a xlink:href="/dictionaries/mmcif_pdbx_modeling_extension_all.dic/Items/_ma_template_coord.formal_charge.html" xlink:title="&lt;TABLE&gt;" target="_top">
<polygon fill="none" stroke="black" points="203.887,-584.5 203.887,-604.5 329.887,-604.5 329.887,-584.5 203.887,-584.5"/>
<text text-anchor="start" x="208.887" y="-592.3" font-family="Helvetica,sans-Serif" font-size="9.00">formal_charge</text>
</a>
</g>
<g id="a_node1_8"><a xlink:href="/dictionaries/mmcif_pdbx_modeling_extension_all.dic/Items/_ma_template_coord.group_PDB.html" xlink:title="&lt;TABLE&gt;" target="_top">
<polygon fill="none" stroke="black" points="203.887,-564.5 203.887,-584.5 329.887,-584.5 329.887,-564.5 203.887,-564.5"/>
<text text-anchor="start" x="208.887" y="-572.3" font-family="Helvetica,sans-Serif" font-size="9.00">group_PDB</text>
</a>
</g>
<g id="a_node1_9"><a xlink:href="/dictionaries/mmcif_pdbx_modeling_extension_all.dic/Items/_ma_template_coord.id.html" xlink:title="&lt;TABLE&gt;" target="_top">
<polygon fill="none" stroke="black" points="203.887,-544.5 203.887,-564.5 329.887,-564.5 329.887,-544.5 203.887,-544.5"/>
<text text-anchor="start" x="208.887" y="-552.3" font-family="Helvetica,sans-Serif" font-size="9.00">id</text>
</a>
</g>
<g id="a_node1_10"><a xlink:href="/dictionaries/mmcif_pdbx_modeling_extension_all.dic/Items/_ma_template_coord.label_asym_id.html" xlink:title="&lt;TABLE&gt;" target="_top">
<polygon fill="none" stroke="black" points="203.887,-524.5 203.887,-544.5 329.887,-544.5 329.887,-524.5 203.887,-524.5"/>
<text text-anchor="start" x="208.887" y="-532.3" font-family="Helvetica,sans-Serif" font-size="9.00">label_asym_id</text>
</a>
</g>
<g id="a_node1_11"><a xlink:href="/dictionaries/mmcif_pdbx_modeling_extension_all.dic/Items/_ma_template_coord.label_atom_id.html" xlink:title="&lt;TABLE&gt;" target="_top">
<polygon fill="none" stroke="black" points="203.887,-504.5 203.887,-524.5 329.887,-524.5 329.887,-504.5 203.887,-504.5"/>
<text text-anchor="start" x="208.887" y="-512.3" font-family="Helvetica,sans-Serif" font-size="9.00">label_atom_id</text>
</a>
</g>
<g id="a_node1_12"><a xlink:href="/dictionaries/mmcif_pdbx_modeling_extension_all.dic/Items/_ma_template_coord.label_comp_id.html" xlink:title="&lt;TABLE&gt;" target="_top">
<polygon fill="none" stroke="black" points="203.887,-484.5 203.887,-504.5 329.887,-504.5 329.887,-484.5 203.887,-484.5"/>
<text text-anchor="start" x="208.887" y="-492.3" font-family="Helvetica,sans-Serif" font-size="9.00">label_comp_id</text>
</a>
</g>
<g id="a_node1_13"><a xlink:href="/dictionaries/mmcif_pdbx_modeling_extension_all.dic/Items/_ma_template_coord.label_entity_id.html" xlink:title="&lt;TABLE&gt;" target="_top">
<polygon fill="none" stroke="black" points="203.887,-464.5 203.887,-484.5 329.887,-484.5 329.887,-464.5 203.887,-464.5"/>
<text text-anchor="start" x="208.887" y="-472.3" font-family="Helvetica,sans-Serif" font-size="9.00">label_entity_id</text>
</a>
</g>
<g id="a_node1_14"><a xlink:href="/dictionaries/mmcif_pdbx_modeling_extension_all.dic/Items/_ma_template_coord.label_seq_id.html" xlink:title="&lt;TABLE&gt;" target="_top">
<polygon fill="none" stroke="black" points="203.887,-444.5 203.887,-464.5 329.887,-464.5 329.887,-444.5 203.887,-444.5"/>
<text text-anchor="start" x="208.887" y="-452.3" font-family="Helvetica,sans-Serif" font-size="9.00">label_seq_id</text>
</a>
</g>
<g id="a_node1_15"><a xlink:href="/dictionaries/mmcif_pdbx_modeling_extension_all.dic/Items/_ma_template_coord.occupancy.html" xlink:title="&lt;TABLE&gt;" target="_top">
<polygon fill="none" stroke="black" points="203.887,-424.5 203.887,-444.5 329.887,-444.5 329.887,-424.5 203.887,-424.5"/>
<text text-anchor="start" x="208.887" y="-432.3" font-family="Helvetica,sans-Serif" font-size="9.00">occupancy</text>
</a>
</g>
<g id="a_node1_16"><a xlink:href="/dictionaries/mmcif_pdbx_modeling_extension_all.dic/Items/_ma_template_coord.pdb_model_num.html" xlink:title="&lt;TABLE&gt;" target="_top">
<polygon fill="none" stroke="black" points="203.887,-404.5 203.887,-424.5 329.887,-424.5 329.887,-404.5 203.887,-404.5"/>
<text text-anchor="start" x="208.887" y="-412.3" font-family="Helvetica,sans-Serif" font-size="9.00">pdb_model_num</text>
</a>
</g>
<g id="a_node1_17"><a xlink:href="/dictionaries/mmcif_pdbx_modeling_extension_all.dic/Items/_ma_template_coord.type_symbol.html" xlink:title="&lt;TABLE&gt;" target="_top">
<polygon fill="none" stroke="black" points="203.887,-384.5 203.887,-404.5 329.887,-404.5 329.887,-384.5 203.887,-384.5"/>
<text text-anchor="start" x="208.887" y="-392.3" font-family="Helvetica,sans-Serif" font-size="9.00">type_symbol</text>
</a>
</g>
</g>
<!-- _ma_template_details -->
<g id="node2" class="node"><title>_ma_template_details</title>
<g id="a_node2_18"><a xlink:href="/dictionaries/mmcif_pdbx_modeling_extension_all.dic/Categories/ma_template_details.html" xlink:title="&lt;TABLE&gt;" target="_top">
<polygon fill="#99c49b" stroke="none" points="203.887,-319.5 203.887,-340.5 342.887,-340.5 342.887,-319.5 203.887,-319.5"/>
<polygon fill="none" stroke="black" points="203.887,-319.5 203.887,-340.5 342.887,-340.5 342.887,-319.5 203.887,-319.5"/>
<text text-anchor="start" x="212.887" y="-327.5" font-family="Helvetica,sans-Serif" font-size="10.00">MA_TEMPLATE_DETAILS</text>
</a>
</g>
<g id="a_node2_19"><a xlink:href="/dictionaries/mmcif_pdbx_modeling_extension_all.dic/Items/_ma_template_details.id.html" xlink:title="&lt;TABLE&gt;" target="_top">
<polygon fill="#ffff99" stroke="none" points="203.887,-299.5 203.887,-319.5 342.887,-319.5 342.887,-299.5 203.887,-299.5"/>
<polygon fill="none" stroke="black" points="203.887,-299.5 203.887,-319.5 342.887,-319.5 342.887,-299.5 203.887,-299.5"/>
<text text-anchor="start" x="208.887" y="-307.3" font-family="Helvetica,sans-Serif" font-size="9.00">id</text>
</a>
</g>
<g id="a_node2_20"><a xlink:href="/dictionaries/mmcif_pdbx_modeling_extension_all.dic/Items/_ma_template_details.data_id.html" xlink:title="&lt;TABLE&gt;" target="_top">
<polygon fill="none" stroke="black" points="203.887,-279.5 203.887,-299.5 342.887,-299.5 342.887,-279.5 203.887,-279.5"/>
<text text-anchor="start" x="208.887" y="-287.3" font-family="Helvetica,sans-Serif" font-size="9.00">data_id</text>
</a>
</g>
<g id="a_node2_21"><a xlink:href="/dictionaries/mmcif_pdbx_modeling_extension_all.dic/Items/_ma_template_details.group_id.html" xlink:title="&lt;TABLE&gt;" target="_top">
<polygon fill="none" stroke="black" points="203.887,-259.5 203.887,-279.5 342.887,-279.5 342.887,-259.5 203.887,-259.5"/>
<text text-anchor="start" x="208.887" y="-267.3" font-family="Helvetica,sans-Serif" font-size="9.00">group_id</text>
</a>
</g>
<g id="a_node2_22"><a xlink:href="/dictionaries/mmcif_pdbx_modeling_extension_all.dic/Items/_ma_template_details.pdb_code.html" xlink:title="&lt;TABLE&gt;" target="_top">
<polygon fill="none" stroke="black" points="203.887,-239.5 203.887,-259.5 342.887,-259.5 342.887,-239.5 203.887,-239.5"/>
<text text-anchor="start" x="208.887" y="-247.3" font-family="Helvetica,sans-Serif" font-size="9.00">pdb_code</text>
</a>
</g>
<g id="a_node2_23"><a xlink:href="/dictionaries/mmcif_pdbx_modeling_extension_all.dic/Items/_ma_template_details.pdb_entity_id.html" xlink:title="&lt;TABLE&gt;" target="_top">
<polygon fill="none" stroke="black" points="203.887,-219.5 203.887,-239.5 342.887,-239.5 342.887,-219.5 203.887,-219.5"/>
<text text-anchor="start" x="208.887" y="-227.3" font-family="Helvetica,sans-Serif" font-size="9.00">pdb_entity_id</text>
</a>
</g>
<g id="a_node2_24"><a xlink:href="/dictionaries/mmcif_pdbx_modeling_extension_all.dic/Items/_ma_template_details.pdb_label_asym_id.html" xlink:title="&lt;TABLE&gt;" target="_top">
<polygon fill="none" stroke="black" points="203.887,-199.5 203.887,-219.5 342.887,-219.5 342.887,-199.5 203.887,-199.5"/>
<text text-anchor="start" x="208.887" y="-207.3" font-family="Helvetica,sans-Serif" font-size="9.00">pdb_label_asym_id</text>
</a>
</g>
<g id="a_node2_25"><a xlink:href="/dictionaries/mmcif_pdbx_modeling_extension_all.dic/Items/_ma_template_details.pdb_model_num.html" xlink:title="&lt;TABLE&gt;" target="_top">
<polygon fill="none" stroke="black" points="203.887,-179.5 203.887,-199.5 342.887,-199.5 342.887,-179.5 203.887,-179.5"/>
<text text-anchor="start" x="208.887" y="-187.3" font-family="Helvetica,sans-Serif" font-size="9.00">pdb_model_num</text>
</a>
</g>
<g id="a_node2_26"><a xlink:href="/dictionaries/mmcif_pdbx_modeling_extension_all.dic/Items/_ma_template_details.pdb_seq_id_begin.html" xlink:title="&lt;TABLE&gt;" target="_top">
<polygon fill="none" stroke="black" points="203.887,-159.5 203.887,-179.5 342.887,-179.5 342.887,-159.5 203.887,-159.5"/>
<text text-anchor="start" x="208.887" y="-167.3" font-family="Helvetica,sans-Serif" font-size="9.00">pdb_seq_id_begin</text>
</a>
</g>
<g id="a_node2_27"><a xlink:href="/dictionaries/mmcif_pdbx_modeling_extension_all.dic/Items/_ma_template_details.pdb_seq_id_end.html" xlink:title="&lt;TABLE&gt;" target="_top">
<polygon fill="none" stroke="black" points="203.887,-139.5 203.887,-159.5 342.887,-159.5 342.887,-139.5 203.887,-139.5"/>
<text text-anchor="start" x="208.887" y="-147.3" font-family="Helvetica,sans-Serif" font-size="9.00">pdb_seq_id_end</text>
</a>
</g>
<g id="a_node2_28"><a xlink:href="/dictionaries/mmcif_pdbx_modeling_extension_all.dic/Items/_ma_template_details.pdb_seq_one_letter_code.html" xlink:title="&lt;TABLE&gt;" target="_top">
<polygon fill="none" stroke="black" points="203.887,-119.5 203.887,-139.5 342.887,-139.5 342.887,-119.5 203.887,-119.5"/>
<text text-anchor="start" x="208.887" y="-127.3" font-family="Helvetica,sans-Serif" font-size="9.00">pdb_seq_one_letter_code</text>
</a>
</g>
<g id="a_node2_29"><a xlink:href="/dictionaries/mmcif_pdbx_modeling_extension_all.dic/Items/_ma_template_details.pdb_seq_one_letter_code_can.html" xlink:title="&lt;TABLE&gt;" target="_top">
<polygon fill="none" stroke="black" points="203.887,-99.5 203.887,-119.5 342.887,-119.5 342.887,-99.5 203.887,-99.5"/>
<text text-anchor="start" x="208.887" y="-107.3" font-family="Helvetica,sans-Serif" font-size="9.00">pdb_seq_one_letter_code_can</text>
</a>
</g>
<g id="a_node2_30"><a xlink:href="/dictionaries/mmcif_pdbx_modeling_extension_all.dic/Items/_ma_template_details.target_entity_id.html" xlink:title="&lt;TABLE&gt;" target="_top">
<polygon fill="none" stroke="black" points="203.887,-79.5 203.887,-99.5 342.887,-99.5 342.887,-79.5 203.887,-79.5"/>
<text text-anchor="start" x="208.887" y="-87.3" font-family="Helvetica,sans-Serif" font-size="9.00">target_entity_id</text>
</a>
</g>
</g>
<!-- _ma_template_coord&#45;&gt;_ma_template_details -->
<g id="edge1" class="edge"><title>_ma_template_coord:__template_id:w&#45;&gt;_ma_template_details:__id:w</title>
<path fill="none" stroke="black" d="M202.887,-694.5C163.201,-694.5 160.333,-363.134 194.283,-315.241"/>
<polygon fill="black" stroke="black" points="196.512,-317.962 202.887,-309.5 192.626,-312.139 196.512,-317.962"/>
</g>
</g>
</svg>
