<?xml version="1.0" encoding="UTF-8" standalone="no"?>
<!DOCTYPE svg PUBLIC "-//W3C//DTD SVG 1.1//EN"
 "http://www.w3.org/Graphics/SVG/1.1/DTD/svg11.dtd">
<!-- Generated by graphviz version 2.38.0 (20140413.2041)
 -->
<!-- Title: ma_target_details Pages: 1 -->
<svg width="516pt" height="1008pt"
 viewBox="0.00 0.00 516.00 1008.00" xmlns="http://www.w3.org/2000/svg" xmlns:xlink="http://www.w3.org/1999/xlink">
<g id="graph0" class="graph" transform="scale(1 1) rotate(0) translate(4 1004)">
<title>ma_target_details</title>
<polygon fill="white" stroke="none" points="-4,4 -4,-1004 512,-1004 512,4 -4,4"/>
<text text-anchor="start" x="251" y="-58.6" font-family="Helvetica,sans-Serif" font-size="18.00"> </text>
<text text-anchor="start" x="251" y="-40.6" font-family="Helvetica,sans-Serif" font-size="18.00"> </text>
<text text-anchor="start" x="8" y="-22.6" font-family="Helvetica,sans-Serif" font-size="18.00"> Category Relationship Diagram for </text>
<text text-anchor="start" x="291" y="-22.6" font-family="Helvetica,sans-Serif" font-weight="bold" font-size="18.00">MA_TARGET_DETAILS</text>
<text text-anchor="start" x="490" y="-22.6" font-family="Helvetica,sans-Serif" font-size="18.00"> </text>
<text text-anchor="start" x="496" y="-22.6" font-family="Helvetica,sans-Serif" font-size="14.00"> </text>
<text text-anchor="start" x="120" y="-7.8" font-family="Helvetica,sans-Serif" font-size="14.00"> &#160;in dictionary mmcif_pdbx.dic version 5.280 </text>
<!-- _entity_poly_seq -->
<g id="node1" class="node"><title>_entity_poly_seq</title>
<g id="a_node1_0"><a xlink:href="/dictionaries/mmcif_modeling_v10.unix_1.04.dic/Categories/entity_poly_seq.html" xlink:title="&lt;TABLE&gt;" target="_top">
<polygon fill="#99c49b" stroke="none" points="253.362,-159.5 253.362,-180.5 357.362,-180.5 357.362,-159.5 253.362,-159.5"/>
<polygon fill="none" stroke="black" points="253.362,-159.5 253.362,-180.5 357.362,-180.5 357.362,-159.5 253.362,-159.5"/>
<text text-anchor="start" x="258.362" y="-167.5" font-family="Helvetica,sans-Serif" font-size="10.00">ENTITY_POLY_SEQ</text>
</a>
</g>
<g id="a_node1_1"><a xlink:href="/dictionaries/mmcif_modeling_v10.unix_1.04.dic/Items/_entity_poly_seq.entity_id.html" xlink:title="&lt;TABLE&gt;" target="_top">
<polygon fill="#ffff99" stroke="none" points="253.362,-139.5 253.362,-159.5 357.362,-159.5 357.362,-139.5 253.362,-139.5"/>
<polygon fill="none" stroke="black" points="253.362,-139.5 253.362,-159.5 357.362,-159.5 357.362,-139.5 253.362,-139.5"/>
<text text-anchor="start" x="258.362" y="-147.3" font-family="Helvetica,sans-Serif" font-size="9.00">entity_id</text>
</a>
</g>
<g id="a_node1_2"><a xlink:href="/dictionaries/mmcif_modeling_v10.unix_1.04.dic/Items/_entity_poly_seq.mon_id.html" xlink:title="&lt;TABLE&gt;" target="_top">
<polygon fill="#ffff99" stroke="none" points="253.362,-119.5 253.362,-139.5 357.362,-139.5 357.362,-119.5 253.362,-119.5"/>
<polygon fill="none" stroke="black" points="253.362,-119.5 253.362,-139.5 357.362,-139.5 357.362,-119.5 253.362,-119.5"/>
<text text-anchor="start" x="258.362" y="-127.3" font-family="Helvetica,sans-Serif" font-size="9.00">mon_id</text>
</a>
</g>
<g id="a_node1_3"><a xlink:href="/dictionaries/mmcif_modeling_v10.unix_1.04.dic/Items/_entity_poly_seq.num.html" xlink:title="&lt;TABLE&gt;" target="_top">
<polygon fill="#ffff99" stroke="none" points="253.362,-99.5 253.362,-119.5 357.362,-119.5 357.362,-99.5 253.362,-99.5"/>
<polygon fill="none" stroke="black" points="253.362,-99.5 253.362,-119.5 357.362,-119.5 357.362,-99.5 253.362,-99.5"/>
<text text-anchor="start" x="258.362" y="-107.3" font-family="Helvetica,sans-Serif" font-size="9.00">num</text>
</a>
</g>
<g id="a_node1_4"><a xlink:href="/dictionaries/mmcif_modeling_v10.unix_1.04.dic/Items/_entity_poly_seq.hetero.html" xlink:title="&lt;TABLE&gt;" target="_top">
<polygon fill="none" stroke="black" points="253.362,-79.5 253.362,-99.5 357.362,-99.5 357.362,-79.5 253.362,-79.5"/>
<text text-anchor="start" x="258.362" y="-87.3" font-family="Helvetica,sans-Serif" font-size="9.00">hetero</text>
</a>
</g>
</g>
<!-- _ma_alignment_details -->
<g id="node2" class="node"><title>_ma_alignment_details</title>
<g id="a_node2_5"><a xlink:href="/dictionaries/mmcif_modeling_v10.unix_1.04.dic/Categories/ma_alignment_details.html" xlink:title="&lt;TABLE&gt;" target="_top">
<polygon fill="#99c49b" stroke="none" points="79.3619,-974.5 79.3619,-995.5 222.362,-995.5 222.362,-974.5 79.3619,-974.5"/>
<polygon fill="none" stroke="black" points="79.3619,-974.5 79.3619,-995.5 222.362,-995.5 222.362,-974.5 79.3619,-974.5"/>
<text text-anchor="start" x="87.3619" y="-982.5" font-family="Helvetica,sans-Serif" font-size="10.00">MA_ALIGNMENT_DETAILS</text>
</a>
</g>
<g id="a_node2_6"><a xlink:href="/dictionaries/mmcif_modeling_v10.unix_1.04.dic/Items/_ma_alignment_details.ordinal_id.html" xlink:title="&lt;TABLE&gt;" target="_top">
<polygon fill="#ffff99" stroke="none" points="79.3619,-954.5 79.3619,-974.5 222.362,-974.5 222.362,-954.5 79.3619,-954.5"/>
<polygon fill="none" stroke="black" points="79.3619,-954.5 79.3619,-974.5 222.362,-974.5 222.362,-954.5 79.3619,-954.5"/>
<text text-anchor="start" x="84.3619" y="-962.3" font-family="Helvetica,sans-Serif" font-size="9.00">ordinal_id</text>
</a>
</g>
<g id="a_node2_7"><a xlink:href="/dictionaries/mmcif_modeling_v10.unix_1.04.dic/Items/_ma_alignment_details.target_id.html" xlink:title="&lt;TABLE&gt;" target="_top">
<polygon fill="none" stroke="black" points="79.3619,-934.5 79.3619,-954.5 222.362,-954.5 222.362,-934.5 79.3619,-934.5"/>
<text text-anchor="start" x="84.3619" y="-942.3" font-family="Helvetica,sans-Serif" font-size="9.00">target_id</text>
</a>
</g>
<g id="a_node2_8"><a xlink:href="/dictionaries/mmcif_modeling_v10.unix_1.04.dic/Items/_ma_alignment_details.alignment_id.html" xlink:title="&lt;TABLE&gt;" target="_top">
<polygon fill="none" stroke="black" points="79.3619,-914.5 79.3619,-934.5 222.362,-934.5 222.362,-914.5 79.3619,-914.5"/>
<text text-anchor="start" x="84.3619" y="-922.3" font-family="Helvetica,sans-Serif" font-size="9.00">alignment_id</text>
</a>
</g>
<g id="a_node2_9"><a xlink:href="/dictionaries/mmcif_modeling_v10.unix_1.04.dic/Items/_ma_alignment_details.alignment_length.html" xlink:title="&lt;TABLE&gt;" target="_top">
<polygon fill="none" stroke="black" points="79.3619,-894.5 79.3619,-914.5 222.362,-914.5 222.362,-894.5 79.3619,-894.5"/>
<text text-anchor="start" x="84.3619" y="-902.3" font-family="Helvetica,sans-Serif" font-size="9.00">alignment_length</text>
</a>
</g>
<g id="a_node2_10"><a xlink:href="/dictionaries/mmcif_modeling_v10.unix_1.04.dic/Items/_ma_alignment_details.alignment_type.html" xlink:title="&lt;TABLE&gt;" target="_top">
<polygon fill="none" stroke="black" points="79.3619,-874.5 79.3619,-894.5 222.362,-894.5 222.362,-874.5 79.3619,-874.5"/>
<text text-anchor="start" x="84.3619" y="-882.3" font-family="Helvetica,sans-Serif" font-size="9.00">alignment_type</text>
</a>
</g>
<g id="a_node2_11"><a xlink:href="/dictionaries/mmcif_modeling_v10.unix_1.04.dic/Items/_ma_alignment_details.data_id.html" xlink:title="&lt;TABLE&gt;" target="_top">
<polygon fill="none" stroke="black" points="79.3619,-854.5 79.3619,-874.5 222.362,-874.5 222.362,-854.5 79.3619,-854.5"/>
<text text-anchor="start" x="84.3619" y="-862.3" font-family="Helvetica,sans-Serif" font-size="9.00">data_id</text>
</a>
</g>
<g id="a_node2_12"><a xlink:href="/dictionaries/mmcif_modeling_v10.unix_1.04.dic/Items/_ma_alignment_details.e_value.html" xlink:title="&lt;TABLE&gt;" target="_top">
<polygon fill="none" stroke="black" points="79.3619,-834.5 79.3619,-854.5 222.362,-854.5 222.362,-834.5 79.3619,-834.5"/>
<text text-anchor="start" x="84.3619" y="-842.3" font-family="Helvetica,sans-Serif" font-size="9.00">e_value</text>
</a>
</g>
<g id="a_node2_13"><a xlink:href="/dictionaries/mmcif_modeling_v10.unix_1.04.dic/Items/_ma_alignment_details.percent_sequence_identity.html" xlink:title="&lt;TABLE&gt;" target="_top">
<polygon fill="none" stroke="black" points="79.3619,-814.5 79.3619,-834.5 222.362,-834.5 222.362,-814.5 79.3619,-814.5"/>
<text text-anchor="start" x="84.3619" y="-822.3" font-family="Helvetica,sans-Serif" font-size="9.00">percent_sequence_identity</text>
</a>
</g>
<g id="a_node2_14"><a xlink:href="/dictionaries/mmcif_modeling_v10.unix_1.04.dic/Items/_ma_alignment_details.sequence_identity_denominator.html" xlink:title="&lt;TABLE&gt;" target="_top">
<polygon fill="none" stroke="black" points="79.3619,-794.5 79.3619,-814.5 222.362,-814.5 222.362,-794.5 79.3619,-794.5"/>
<text text-anchor="start" x="84.3619" y="-802.3" font-family="Helvetica,sans-Serif" font-size="9.00">sequence_identity_denominator</text>
</a>
</g>
<g id="a_node2_15"><a xlink:href="/dictionaries/mmcif_modeling_v10.unix_1.04.dic/Items/_ma_alignment_details.software_used.html" xlink:title="&lt;TABLE&gt;" target="_top">
<polygon fill="none" stroke="black" points="79.3619,-774.5 79.3619,-794.5 222.362,-794.5 222.362,-774.5 79.3619,-774.5"/>
<text text-anchor="start" x="84.3619" y="-782.3" font-family="Helvetica,sans-Serif" font-size="9.00">software_used</text>
</a>
</g>
<g id="a_node2_16"><a xlink:href="/dictionaries/mmcif_modeling_v10.unix_1.04.dic/Items/_ma_alignment_details.template_id.html" xlink:title="&lt;TABLE&gt;" target="_top">
<polygon fill="none" stroke="black" points="79.3619,-754.5 79.3619,-774.5 222.362,-774.5 222.362,-754.5 79.3619,-754.5"/>
<text text-anchor="start" x="84.3619" y="-762.3" font-family="Helvetica,sans-Serif" font-size="9.00">template_id</text>
</a>
</g>
</g>
<!-- _ma_target_details -->
<g id="node3" class="node"><title>_ma_target_details</title>
<g id="a_node3_17"><a xlink:href="/dictionaries/mmcif_modeling_v10.unix_1.04.dic/Categories/ma_target_details.html" xlink:title="&lt;TABLE&gt;" target="_top">
<polygon fill="#f0027f" stroke="none" points="98.3619,-404.5 98.3619,-425.5 217.362,-425.5 217.362,-404.5 98.3619,-404.5"/>
<polygon fill="none" stroke="black" points="98.3619,-404.5 98.3619,-425.5 217.362,-425.5 217.362,-404.5 98.3619,-404.5"/>
<text text-anchor="start" x="103.362" y="-412.5" font-family="Helvetica,sans-Serif" font-size="10.00">MA_TARGET_DETAILS</text>
</a>
</g>
<g id="a_node3_18"><a xlink:href="/dictionaries/mmcif_modeling_v10.unix_1.04.dic/Items/_ma_target_details.id.html" xlink:title="&lt;TABLE&gt;" target="_top">
<polygon fill="#ffff99" stroke="none" points="98.3619,-384.5 98.3619,-404.5 217.362,-404.5 217.362,-384.5 98.3619,-384.5"/>
<polygon fill="none" stroke="black" points="98.3619,-384.5 98.3619,-404.5 217.362,-404.5 217.362,-384.5 98.3619,-384.5"/>
<text text-anchor="start" x="103.362" y="-392.3" font-family="Helvetica,sans-Serif" font-size="9.00">id</text>
</a>
</g>
<g id="a_node3_19"><a xlink:href="/dictionaries/mmcif_modeling_v10.unix_1.04.dic/Items/_ma_target_details.entity_id.html" xlink:title="&lt;TABLE&gt;" target="_top">
<polygon fill="none" stroke="black" points="98.3619,-364.5 98.3619,-384.5 217.362,-384.5 217.362,-364.5 98.3619,-364.5"/>
<text text-anchor="start" x="103.362" y="-372.3" font-family="Helvetica,sans-Serif" font-size="9.00">entity_id</text>
</a>
</g>
<g id="a_node3_20"><a xlink:href="/dictionaries/mmcif_modeling_v10.unix_1.04.dic/Items/_ma_target_details.db_accession.html" xlink:title="&lt;TABLE&gt;" target="_top">
<polygon fill="none" stroke="black" points="98.3619,-344.5 98.3619,-364.5 217.362,-364.5 217.362,-344.5 98.3619,-344.5"/>
<text text-anchor="start" x="103.362" y="-352.3" font-family="Helvetica,sans-Serif" font-size="9.00">db_accession</text>
</a>
</g>
<g id="a_node3_21"><a xlink:href="/dictionaries/mmcif_modeling_v10.unix_1.04.dic/Items/_ma_target_details.db_code.html" xlink:title="&lt;TABLE&gt;" target="_top">
<polygon fill="none" stroke="black" points="98.3619,-324.5 98.3619,-344.5 217.362,-344.5 217.362,-324.5 98.3619,-324.5"/>
<text text-anchor="start" x="103.362" y="-332.3" font-family="Helvetica,sans-Serif" font-size="9.00">db_code</text>
</a>
</g>
<g id="a_node3_22"><a xlink:href="/dictionaries/mmcif_modeling_v10.unix_1.04.dic/Items/_ma_target_details.db_isoform.html" xlink:title="&lt;TABLE&gt;" target="_top">
<polygon fill="none" stroke="black" points="98.3619,-304.5 98.3619,-324.5 217.362,-324.5 217.362,-304.5 98.3619,-304.5"/>
<text text-anchor="start" x="103.362" y="-312.3" font-family="Helvetica,sans-Serif" font-size="9.00">db_isoform</text>
</a>
</g>
<g id="a_node3_23"><a xlink:href="/dictionaries/mmcif_modeling_v10.unix_1.04.dic/Items/_ma_target_details.db_name.html" xlink:title="&lt;TABLE&gt;" target="_top">
<polygon fill="none" stroke="black" points="98.3619,-284.5 98.3619,-304.5 217.362,-304.5 217.362,-284.5 98.3619,-284.5"/>
<text text-anchor="start" x="103.362" y="-292.3" font-family="Helvetica,sans-Serif" font-size="9.00">db_name</text>
</a>
</g>
<g id="a_node3_24"><a xlink:href="/dictionaries/mmcif_modeling_v10.unix_1.04.dic/Items/_ma_target_details.seq_db_align_begin.html" xlink:title="&lt;TABLE&gt;" target="_top">
<polygon fill="none" stroke="black" points="98.3619,-264.5 98.3619,-284.5 217.362,-284.5 217.362,-264.5 98.3619,-264.5"/>
<text text-anchor="start" x="103.362" y="-272.3" font-family="Helvetica,sans-Serif" font-size="9.00">seq_db_align_begin</text>
</a>
</g>
<g id="a_node3_25"><a xlink:href="/dictionaries/mmcif_modeling_v10.unix_1.04.dic/Items/_ma_target_details.seq_db_align_end.html" xlink:title="&lt;TABLE&gt;" target="_top">
<polygon fill="none" stroke="black" points="98.3619,-244.5 98.3619,-264.5 217.362,-264.5 217.362,-244.5 98.3619,-244.5"/>
<text text-anchor="start" x="103.362" y="-252.3" font-family="Helvetica,sans-Serif" font-size="9.00">seq_db_align_end</text>
</a>
</g>
<g id="a_node3_26"><a xlink:href="/dictionaries/mmcif_modeling_v10.unix_1.04.dic/Items/_ma_target_details.seq_db_one_letter_code.html" xlink:title="&lt;TABLE&gt;" target="_top">
<polygon fill="none" stroke="black" points="98.3619,-224.5 98.3619,-244.5 217.362,-244.5 217.362,-224.5 98.3619,-224.5"/>
<text text-anchor="start" x="103.362" y="-232.3" font-family="Helvetica,sans-Serif" font-size="9.00">seq_db_one_letter_code</text>
</a>
</g>
</g>
<!-- _ma_alignment_details&#45;&gt;_ma_target_details -->
<g id="edge4" class="edge"><title>_ma_alignment_details:__target_id:w&#45;&gt;_ma_target_details:__id:w</title>
<path fill="none" stroke="black" d="M78.3619,-944.5C20.4389,-944.5 34.4333,-450.978 88.0454,-398.927"/>
<polygon fill="black" stroke="black" points="89.8321,-401.953 97.3619,-394.5 86.8276,-395.631 89.8321,-401.953"/>
</g>
<!-- _ma_template_details -->
<g id="node5" class="node"><title>_ma_template_details</title>
<g id="a_node5_27"><a xlink:href="/dictionaries/mmcif_modeling_v10.unix_1.04.dic/Categories/ma_template_details.html" xlink:title="&lt;TABLE&gt;" target="_top">
<polygon fill="#99c49b" stroke="none" points="98.3619,-689.5 98.3619,-710.5 237.362,-710.5 237.362,-689.5 98.3619,-689.5"/>
<polygon fill="none" stroke="black" points="98.3619,-689.5 98.3619,-710.5 237.362,-710.5 237.362,-689.5 98.3619,-689.5"/>
<text text-anchor="start" x="107.362" y="-697.5" font-family="Helvetica,sans-Serif" font-size="10.00">MA_TEMPLATE_DETAILS</text>
</a>
</g>
<g id="a_node5_28"><a xlink:href="/dictionaries/mmcif_modeling_v10.unix_1.04.dic/Items/_ma_template_details.id.html" xlink:title="&lt;TABLE&gt;" target="_top">
<polygon fill="#ffff99" stroke="none" points="98.3619,-669.5 98.3619,-689.5 237.362,-689.5 237.362,-669.5 98.3619,-669.5"/>
<polygon fill="none" stroke="black" points="98.3619,-669.5 98.3619,-689.5 237.362,-689.5 237.362,-669.5 98.3619,-669.5"/>
<text text-anchor="start" x="103.362" y="-677.3" font-family="Helvetica,sans-Serif" font-size="9.00">id</text>
</a>
</g>
<g id="a_node5_29"><a xlink:href="/dictionaries/mmcif_modeling_v10.unix_1.04.dic/Items/_ma_template_details.target_entity_id.html" xlink:title="&lt;TABLE&gt;" target="_top">
<polygon fill="none" stroke="black" points="98.3619,-649.5 98.3619,-669.5 237.362,-669.5 237.362,-649.5 98.3619,-649.5"/>
<text text-anchor="start" x="103.362" y="-657.3" font-family="Helvetica,sans-Serif" font-size="9.00">target_entity_id</text>
</a>
</g>
<g id="a_node5_30"><a xlink:href="/dictionaries/mmcif_modeling_v10.unix_1.04.dic/Items/_ma_template_details.group_id.html" xlink:title="&lt;TABLE&gt;" target="_top">
<polygon fill="none" stroke="black" points="98.3619,-629.5 98.3619,-649.5 237.362,-649.5 237.362,-629.5 98.3619,-629.5"/>
<text text-anchor="start" x="103.362" y="-637.3" font-family="Helvetica,sans-Serif" font-size="9.00">group_id</text>
</a>
</g>
<g id="a_node5_31"><a xlink:href="/dictionaries/mmcif_modeling_v10.unix_1.04.dic/Items/_ma_template_details.pdb_code.html" xlink:title="&lt;TABLE&gt;" target="_top">
<polygon fill="none" stroke="black" points="98.3619,-609.5 98.3619,-629.5 237.362,-629.5 237.362,-609.5 98.3619,-609.5"/>
<text text-anchor="start" x="103.362" y="-617.3" font-family="Helvetica,sans-Serif" font-size="9.00">pdb_code</text>
</a>
</g>
<g id="a_node5_32"><a xlink:href="/dictionaries/mmcif_modeling_v10.unix_1.04.dic/Items/_ma_template_details.pdb_entity_id.html" xlink:title="&lt;TABLE&gt;" target="_top">
<polygon fill="none" stroke="black" points="98.3619,-589.5 98.3619,-609.5 237.362,-609.5 237.362,-589.5 98.3619,-589.5"/>
<text text-anchor="start" x="103.362" y="-597.3" font-family="Helvetica,sans-Serif" font-size="9.00">pdb_entity_id</text>
</a>
</g>
<g id="a_node5_33"><a xlink:href="/dictionaries/mmcif_modeling_v10.unix_1.04.dic/Items/_ma_template_details.pdb_label_asym_id.html" xlink:title="&lt;TABLE&gt;" target="_top">
<polygon fill="none" stroke="black" points="98.3619,-569.5 98.3619,-589.5 237.362,-589.5 237.362,-569.5 98.3619,-569.5"/>
<text text-anchor="start" x="103.362" y="-577.3" font-family="Helvetica,sans-Serif" font-size="9.00">pdb_label_asym_id</text>
</a>
</g>
<g id="a_node5_34"><a xlink:href="/dictionaries/mmcif_modeling_v10.unix_1.04.dic/Items/_ma_template_details.pdb_model_num.html" xlink:title="&lt;TABLE&gt;" target="_top">
<polygon fill="none" stroke="black" points="98.3619,-549.5 98.3619,-569.5 237.362,-569.5 237.362,-549.5 98.3619,-549.5"/>
<text text-anchor="start" x="103.362" y="-557.3" font-family="Helvetica,sans-Serif" font-size="9.00">pdb_model_num</text>
</a>
</g>
<g id="a_node5_35"><a xlink:href="/dictionaries/mmcif_modeling_v10.unix_1.04.dic/Items/_ma_template_details.pdb_seq_id_begin.html" xlink:title="&lt;TABLE&gt;" target="_top">
<polygon fill="none" stroke="black" points="98.3619,-529.5 98.3619,-549.5 237.362,-549.5 237.362,-529.5 98.3619,-529.5"/>
<text text-anchor="start" x="103.362" y="-537.3" font-family="Helvetica,sans-Serif" font-size="9.00">pdb_seq_id_begin</text>
</a>
</g>
<g id="a_node5_36"><a xlink:href="/dictionaries/mmcif_modeling_v10.unix_1.04.dic/Items/_ma_template_details.pdb_seq_id_end.html" xlink:title="&lt;TABLE&gt;" target="_top">
<polygon fill="none" stroke="black" points="98.3619,-509.5 98.3619,-529.5 237.362,-529.5 237.362,-509.5 98.3619,-509.5"/>
<text text-anchor="start" x="103.362" y="-517.3" font-family="Helvetica,sans-Serif" font-size="9.00">pdb_seq_id_end</text>
</a>
</g>
<g id="a_node5_37"><a xlink:href="/dictionaries/mmcif_modeling_v10.unix_1.04.dic/Items/_ma_template_details.pdb_seq_one_letter_code.html" xlink:title="&lt;TABLE&gt;" target="_top">
<polygon fill="none" stroke="black" points="98.3619,-489.5 98.3619,-509.5 237.362,-509.5 237.362,-489.5 98.3619,-489.5"/>
<text text-anchor="start" x="103.362" y="-497.3" font-family="Helvetica,sans-Serif" font-size="9.00">pdb_seq_one_letter_code</text>
</a>
</g>
<g id="a_node5_38"><a xlink:href="/dictionaries/mmcif_modeling_v10.unix_1.04.dic/Items/_ma_template_details.pdb_seq_one_letter_code_can.html" xlink:title="&lt;TABLE&gt;" target="_top">
<polygon fill="none" stroke="black" points="98.3619,-469.5 98.3619,-489.5 237.362,-489.5 237.362,-469.5 98.3619,-469.5"/>
<text text-anchor="start" x="103.362" y="-477.3" font-family="Helvetica,sans-Serif" font-size="9.00">pdb_seq_one_letter_code_can</text>
</a>
</g>
</g>
<!-- _ma_alignment_details&#45;&gt;_ma_template_details -->
<g id="edge5" class="edge"><title>_ma_alignment_details:__template_id:w&#45;&gt;_ma_template_details:__id:w</title>
<path fill="none" stroke="black" d="M78.3619,-764.5C70.5367,-764.5 81.4616,-708.925 91.0468,-687.65"/>
<polygon fill="black" stroke="black" points="94.0036,-689.548 97.3619,-679.5 88.4702,-685.261 94.0036,-689.548"/>
</g>
<!-- _ma_target_details&#45;&gt;_entity_poly_seq -->
<g id="edge1" class="edge"><title>_ma_target_details:__entity_id:w&#45;&gt;_entity_poly_seq:__entity_id:w</title>
<path fill="none" stroke="black" d="M97.3619,-374.5C29.1383,-374.5 61.4704,-278.389 98.3619,-221 137.255,-160.498 173.356,-150.374 241.995,-149.558"/>
<polygon fill="black" stroke="black" points="242.382,-153.056 252.362,-149.5 242.343,-146.056 242.382,-153.056"/>
</g>
<!-- _ma_target_oligomer_modeling -->
<g id="node4" class="node"><title>_ma_target_oligomer_modeling</title>
<g id="a_node4_39"><a xlink:href="/dictionaries/mmcif_modeling_v10.unix_1.04.dic/Categories/ma_target_oligomer_modeling.html" xlink:title="&lt;TABLE&gt;" target="_top">
<polygon fill="#99c49b" stroke="none" points="271.362,-649.5 271.362,-670.5 459.362,-670.5 459.362,-649.5 271.362,-649.5"/>
<polygon fill="none" stroke="black" points="271.362,-649.5 271.362,-670.5 459.362,-670.5 459.362,-649.5 271.362,-649.5"/>
<text text-anchor="start" x="276.362" y="-657.5" font-family="Helvetica,sans-Serif" font-size="10.00">MA_TARGET_OLIGOMER_MODELING</text>
</a>
</g>
<g id="a_node4_40"><a xlink:href="/dictionaries/mmcif_modeling_v10.unix_1.04.dic/Items/_ma_target_oligomer_modeling.ordinal_id.html" xlink:title="&lt;TABLE&gt;" target="_top">
<polygon fill="#ffff99" stroke="none" points="271.362,-629.5 271.362,-649.5 459.362,-649.5 459.362,-629.5 271.362,-629.5"/>
<polygon fill="none" stroke="black" points="271.362,-629.5 271.362,-649.5 459.362,-649.5 459.362,-629.5 271.362,-629.5"/>
<text text-anchor="start" x="276.362" y="-637.3" font-family="Helvetica,sans-Serif" font-size="9.00">ordinal_id</text>
</a>
</g>
<g id="a_node4_41"><a xlink:href="/dictionaries/mmcif_modeling_v10.unix_1.04.dic/Items/_ma_target_oligomer_modeling.target_entity_id.html" xlink:title="&lt;TABLE&gt;" target="_top">
<polygon fill="none" stroke="black" points="271.362,-609.5 271.362,-629.5 459.362,-629.5 459.362,-609.5 271.362,-609.5"/>
<text text-anchor="start" x="276.362" y="-617.3" font-family="Helvetica,sans-Serif" font-size="9.00">target_entity_id</text>
</a>
</g>
<g id="a_node4_42"><a xlink:href="/dictionaries/mmcif_modeling_v10.unix_1.04.dic/Items/_ma_target_oligomer_modeling.asym_id.html" xlink:title="&lt;TABLE&gt;" target="_top">
<polygon fill="none" stroke="black" points="271.362,-589.5 271.362,-609.5 459.362,-609.5 459.362,-589.5 271.362,-589.5"/>
<text text-anchor="start" x="276.362" y="-597.3" font-family="Helvetica,sans-Serif" font-size="9.00">asym_id</text>
</a>
</g>
<g id="a_node4_43"><a xlink:href="/dictionaries/mmcif_modeling_v10.unix_1.04.dic/Items/_ma_target_oligomer_modeling.oligomer_group_id.html" xlink:title="&lt;TABLE&gt;" target="_top">
<polygon fill="none" stroke="black" points="271.362,-569.5 271.362,-589.5 459.362,-589.5 459.362,-569.5 271.362,-569.5"/>
<text text-anchor="start" x="276.362" y="-577.3" font-family="Helvetica,sans-Serif" font-size="9.00">oligomer_group_id</text>
</a>
</g>
<g id="a_node4_44"><a xlink:href="/dictionaries/mmcif_modeling_v10.unix_1.04.dic/Items/_ma_target_oligomer_modeling.oligomer_name.html" xlink:title="&lt;TABLE&gt;" target="_top">
<polygon fill="none" stroke="black" points="271.362,-549.5 271.362,-569.5 459.362,-569.5 459.362,-549.5 271.362,-549.5"/>
<text text-anchor="start" x="276.362" y="-557.3" font-family="Helvetica,sans-Serif" font-size="9.00">oligomer_name</text>
</a>
</g>
<g id="a_node4_45"><a xlink:href="/dictionaries/mmcif_modeling_v10.unix_1.04.dic/Items/_ma_target_oligomer_modeling.seq_id_begin.html" xlink:title="&lt;TABLE&gt;" target="_top">
<polygon fill="none" stroke="black" points="271.362,-529.5 271.362,-549.5 459.362,-549.5 459.362,-529.5 271.362,-529.5"/>
<text text-anchor="start" x="276.362" y="-537.3" font-family="Helvetica,sans-Serif" font-size="9.00">seq_id_begin</text>
</a>
</g>
<g id="a_node4_46"><a xlink:href="/dictionaries/mmcif_modeling_v10.unix_1.04.dic/Items/_ma_target_oligomer_modeling.seq_id_end.html" xlink:title="&lt;TABLE&gt;" target="_top">
<polygon fill="none" stroke="black" points="271.362,-509.5 271.362,-529.5 459.362,-529.5 459.362,-509.5 271.362,-509.5"/>
<text text-anchor="start" x="276.362" y="-517.3" font-family="Helvetica,sans-Serif" font-size="9.00">seq_id_end</text>
</a>
</g>
</g>
<!-- _ma_target_oligomer_modeling&#45;&gt;_entity_poly_seq -->
<g id="edge2" class="edge"><title>_ma_target_oligomer_modeling:__seq_id_begin:w&#45;&gt;_entity_poly_seq:__num:w</title>
<path fill="none" stroke="black" d="M270.362,-539.5C248.46,-539.5 231.517,-178.694 247.203,-118.089"/>
<polygon fill="black" stroke="black" points="250.214,-119.875 252.362,-109.5 244.213,-116.271 250.214,-119.875"/>
</g>
<!-- _ma_target_oligomer_modeling&#45;&gt;_entity_poly_seq -->
<g id="edge3" class="edge"><title>_ma_target_oligomer_modeling:__seq_id_end:w&#45;&gt;_entity_poly_seq:__num:w</title>
<path fill="none" stroke="black" d="M270.362,-519.5C262.066,-519.5 261.295,-229.244 260.362,-221 255.23,-175.682 210.912,-119.608 242.108,-110.713"/>
<polygon fill="black" stroke="black" points="242.842,-114.151 252.362,-109.5 242.02,-107.199 242.842,-114.151"/>
</g>
<!-- _ma_target_oligomer_modeling&#45;&gt;_ma_target_details -->
<g id="edge7" class="edge"><title>_ma_target_oligomer_modeling:__target_entity_id:w&#45;&gt;_ma_target_details:__entity_id:w</title>
<path fill="none" stroke="black" d="M270.362,-619.5C236.042,-619.5 276.158,-491.655 253.362,-466 206.387,-413.132 142.848,-484.979 98.3619,-430 85.5107,-414.118 76.3396,-386.479 87.5777,-377.447"/>
<polygon fill="black" stroke="black" points="88.7965,-380.736 97.3619,-374.5 86.7774,-374.033 88.7965,-380.736"/>
</g>
<!-- _ma_template_details&#45;&gt;_ma_target_details -->
<g id="edge6" class="edge"><title>_ma_template_details:__target_entity_id:w&#45;&gt;_ma_target_details:__entity_id:w</title>
<path fill="none" stroke="black" d="M97.3619,-659.5C83.2294,-659.5 81.7113,-432.442 92.8075,-383.66"/>
<polygon fill="black" stroke="black" points="96.0436,-385.013 97.3619,-374.5 89.7757,-381.896 96.0436,-385.013"/>
</g>
</g>
</svg>
